<svg xmlns="http://www.w3.org/2000/svg" width="22" height="22" fill="none"><path fill="#000" d="M19.36 0H2.64A2.639 2.639 0 0 0 0 2.64v16.72A2.639 2.639 0 0 0 2.64 22h16.72A2.639 2.639 0 0 0 22 19.36V2.64A2.639 2.639 0 0 0 19.36 0ZM7.225 16.35a.356.356 0 0 1-.347.347H4.979a.356.356 0 0 1-.347-.348V8.082c0-.185.162-.347.347-.347h1.899c.185 0 .347.162.347.347v8.267Zm5.072 0a.356.356 0 0 1-.348.347H10.05a.356.356 0 0 1-.347-.348V5.651c0-.186.162-.348.348-.348h1.899c.185 0 .347.162.347.348v10.698Zm5.095 0a.356.356 0 0 1-.348.347h-1.899a.356.356 0 0 1-.347-.348v-5.858c0-.186.162-.348.347-.348h1.876c.185 0 .347.162.347.348v5.858h.024Z"/></svg>