<svg xmlns="http://www.w3.org/2000/svg" width="156" height="178" fill="none"><path fill="#767676" d="M113.724 154.976a.624.624 0 0 1-.305-.081l-37.152-21.483a.61.61 0 0 1-.304-.527l-.002-42.871a.61.61 0 0 1 .305-.529l37.153-21.482a.614.614 0 0 1 .611 0l37.152 21.482a.61.61 0 0 1 .305.529l.001 42.871a.609.609 0 0 1-.305.527l-37.152 21.483a.625.625 0 0 1-.306.081h-.001Zm-36.542-22.444 36.542 21.13 36.543-21.13-.001-42.167-36.542-21.129-36.543 21.13.001 42.166Zm-37.771 22.454a.623.623 0 0 1-.304-.081L1.955 133.422a.61.61 0 0 1-.305-.527l-.002-42.871a.61.61 0 1 1 1.22 0l.002 42.518 36.847 21.305a.611.611 0 0 1-.307 1.139h.001Z"/><path fill="#767676" d="M76.568 133.494a.61.61 0 0 1-.61-.609l-.001-42.52L39.11 69.062a.61.61 0 0 1 .61-1.057l37.152 21.482c.19.109.305.31.305.528v42.871a.609.609 0 0 1-.609.609Z"/><path fill="#767676" d="M76.567 133.499a.612.612 0 0 1-.304-.082L39.11 111.982a.609.609 0 1 1 .61-1.056l37.153 21.434a.611.611 0 0 1-.306 1.139Z"/><path fill="#767676" d="M2.267 133.499a.61.61 0 0 1-.305-1.139l37.152-21.434a.608.608 0 1 1 .609 1.056L2.57 133.417a.61.61 0 0 1-.304.082Z"/><path fill="#767676" d="M39.415 111.662a.202.202 0 0 1-.102-.378l37.167-21.46a.203.203 0 1 1 .203.353l-37.167 21.459a.206.206 0 0 1-.101.026Zm1.055.603a.202.202 0 0 1-.177-.103.203.203 0 0 1 .075-.278l36.11-20.849a.203.203 0 1 1 .203.352l-36.11 20.85a.218.218 0 0 1-.102.028Zm1.061.607a.202.202 0 0 1-.102-.378l35.052-20.24a.203.203 0 1 1 .203.352l-35.05 20.239a.199.199 0 0 1-.103.027Zm1.056.625a.206.206 0 0 1-.177-.103.202.202 0 0 1 .075-.277L76.48 93.489a.202.202 0 0 1 .278.074.202.202 0 0 1-.075.277l-33.995 19.63a.208.208 0 0 1-.101.028Zm1.054.608a.202.202 0 0 1-.102-.378l32.94-19.02a.203.203 0 1 1 .202.352l-32.939 19.019a.196.196 0 0 1-.1.027Zm1.055.608a.205.205 0 0 1-.177-.1.203.203 0 0 1 .075-.278l31.882-18.409a.202.202 0 0 1 .278.075.203.203 0 0 1-.075.277l-31.882 18.409a.204.204 0 0 1-.101.026Zm1.054.609a.204.204 0 0 1-.102-.381l30.825-17.796a.204.204 0 0 1 .203.353l-30.824 17.796a.208.208 0 0 1-.102.028Zm1.063.615a.204.204 0 0 1-.102-.38l29.767-17.186a.203.203 0 1 1 .203.353L46.914 115.91a.206.206 0 0 1-.102.027Zm1.016.628a.202.202 0 0 1-.102-.378L76.475 99.59a.203.203 0 0 1 .277.074.204.204 0 0 1-.075.277L47.93 116.538a.187.187 0 0 1-.101.027Zm1.093.583a.202.202 0 0 1-.102-.378l27.655-15.969a.201.201 0 0 1 .278.076.203.203 0 0 1-.075.277L49.024 117.12a.2.2 0 0 1-.102.028Zm1.055.615a.203.203 0 0 1-.102-.379l26.596-15.356a.203.203 0 1 1 .203.351L50.08 117.736a.198.198 0 0 1-.102.026v.001Zm1.032.624a.203.203 0 0 1-.103-.379l25.57-14.762a.203.203 0 0 1 .202.352L51.11 118.36a.194.194 0 0 1-.1.027Zm1.101.581a.205.205 0 0 1-.176-.102.202.202 0 0 1 .074-.277l24.463-14.124a.204.204 0 0 1 .204.353L52.211 118.94a.196.196 0 0 1-.101.028Zm1.032.619a.203.203 0 0 1-.102-.379l23.426-13.524a.204.204 0 1 1 .204.352l-23.427 13.525a.217.217 0 0 1-.101.026Zm1.124.582a.204.204 0 0 1-.176-.101.204.204 0 0 1 .074-.279l22.307-12.879a.204.204 0 0 1 .204.353l-22.307 12.879a.207.207 0 0 1-.102.027Zm1.031.623a.2.2 0 0 1-.176-.102.202.202 0 0 1 .075-.277L76.47 108.13a.203.203 0 1 1 .204.351l-21.275 12.284a.199.199 0 0 1-.102.027Zm1.023.629a.203.203 0 0 1-.101-.379l20.255-11.694a.203.203 0 1 1 .204.351l-20.256 11.694a.196.196 0 0 1-.101.028Zm1.055.613a.2.2 0 0 1-.176-.103.202.202 0 0 1 .075-.277l19.3-11.142a.203.203 0 1 1 .202.352l-19.299 11.142a.199.199 0 0 1-.102.028Zm1.055.612a.204.204 0 0 1-.176-.103.202.202 0 0 1 .074-.277l18.234-10.527a.202.202 0 0 1 .278.074.203.203 0 0 1-.075.278l-18.234 10.527a.207.207 0 0 1-.1.028Zm1.07.597a.204.204 0 0 1-.102-.38l17.064-9.851a.203.203 0 1 1 .203.352l-17.063 9.851a.2.2 0 0 1-.101.027v.001Zm.97.659a.204.204 0 0 1-.102-.38l16.214-9.361a.202.202 0 0 1 .279.074.204.204 0 0 1-.076.278l-16.215 9.361a.207.207 0 0 1-.1.028Zm1.218.525a.204.204 0 0 1-.177-.101.204.204 0 0 1 .075-.278l14.879-8.59a.202.202 0 1 1 .203.351L61.789 124.4a.205.205 0 0 1-.101.027Zm1.015.629a.202.202 0 0 1-.175-.101.202.202 0 0 1 .074-.278l13.857-8a.201.201 0 0 1 .277.073.202.202 0 0 1-.074.277l-13.857 8.002a.198.198 0 0 1-.102.027Zm1 .64a.202.202 0 0 1-.175-.102.201.201 0 0 1 .074-.277l12.855-7.422a.203.203 0 0 1 .203.352l-12.855 7.422a.207.207 0 0 1-.102.027Zm1.063.609a.203.203 0 0 1-.102-.379l11.8-6.813a.203.203 0 1 1 .203.352l-11.8 6.812a.208.208 0 0 1-.101.028Zm1.055.606a.203.203 0 0 1-.102-.379l10.645-6.145a.204.204 0 1 1 .204.352l-10.646 6.145a.195.195 0 0 1-.1.027Zm1.008.65a.203.203 0 0 1-.102-.379l9.739-5.623a.204.204 0 0 1 .203.353l-9.739 5.622a.197.197 0 0 1-.101.027Zm1.101.576a.203.203 0 0 1-.102-.378l8.629-4.981a.203.203 0 1 1 .203.351l-8.629 4.982a.193.193 0 0 1-.1.026Zm1 .646a.203.203 0 0 1-.176-.102.202.202 0 0 1 .075-.277l7.633-4.408a.204.204 0 0 1 .203.352l-7.633 4.407a.194.194 0 0 1-.102.027v.001Zm1.117.574a.201.201 0 0 1-.175-.103.202.202 0 0 1 .074-.277l6.514-3.762a.202.202 0 0 1 .278.075.204.204 0 0 1-.075.278l-6.514 3.76a.209.209 0 0 1-.102.028v.001Zm1.055.61a.203.203 0 0 1-.102-.38l5.612-3.239a.203.203 0 1 1 .203.352l-5.611 3.24a.217.217 0 0 1-.102.027Zm1.008.634a.202.202 0 0 1-.102-.378l4.383-2.531a.202.202 0 0 1 .278.074.202.202 0 0 1-.075.277l-4.383 2.531a.195.195 0 0 1-.101.026v.001Zm1.195.534a.202.202 0 0 1-.102-.378l3.118-1.8a.204.204 0 0 1 .278.074.202.202 0 0 1-.075.277l-3.118 1.8a.193.193 0 0 1-.1.027Zm.969.667a.203.203 0 0 1-.102-.379l2.404-1.387a.204.204 0 1 1 .203.352l-2.403 1.387a.196.196 0 0 1-.102.027Zm-34.859-21.366a.204.204 0 0 1-.177-.101.205.205 0 0 1 .075-.279l36.109-20.849a.203.203 0 1 1 .203.352l-36.109 20.85a.206.206 0 0 1-.101.026v.001Zm0-1.22a.203.203 0 0 1-.102-.38l35.051-20.238a.203.203 0 1 1 .203.352l-35.05 20.238a.208.208 0 0 1-.102.028Zm-.001-1.211a.203.203 0 0 1-.101-.379l33.995-19.63a.204.204 0 0 1 .203.352l-33.995 19.629a.198.198 0 0 1-.102.028Zm.001-1.227a.203.203 0 0 1-.102-.38l32.939-19.019a.203.203 0 1 1 .203.352L39.516 106.75a.19.19 0 0 1-.101.029Zm0-1.213a.205.205 0 0 1-.177-.102.202.202 0 0 1 .075-.277l31.881-18.408a.203.203 0 1 1 .203.351l-31.881 18.408a.208.208 0 0 1-.101.028Zm0-1.22a.204.204 0 0 1-.102-.379l30.825-17.797a.203.203 0 1 1 .203.352l-30.825 17.796a.195.195 0 0 1-.1.028Zm0-1.226a.203.203 0 0 1-.102-.38l29.768-17.188a.202.202 0 0 1 .277.074.202.202 0 0 1-.074.278L39.516 103.09a.205.205 0 0 1-.1.028v.001Zm-.039-1.193a.204.204 0 0 1-.177-.102.202.202 0 0 1 .075-.277L68.02 84.949a.203.203 0 1 1 .203.351l-28.746 16.598a.2.2 0 0 1-.101.028Zm.038-1.239a.203.203 0 0 1-.101-.38L66.967 84.34a.203.203 0 0 1 .278.074.204.204 0 0 1-.075.278l-27.654 15.966a.192.192 0 0 1-.102.029Zm0-1.227a.2.2 0 0 1-.175-.103.202.202 0 0 1 .074-.277L65.91 83.723a.202.202 0 0 1 .278.074.202.202 0 0 1-.075.278L39.516 99.433a.206.206 0 0 1-.102.027Zm-.03-1.195a.205.205 0 0 1-.177-.102.202.202 0 0 1 .074-.278l25.57-14.763a.202.202 0 0 1 .278.074.203.203 0 0 1-.074.278l-25.57 14.763a.206.206 0 0 1-.1.029h-.001Zm.046-1.25a.204.204 0 0 1-.176-.101.204.204 0 0 1 .075-.278L63.79 82.512a.203.203 0 0 1 .278.074.204.204 0 0 1-.075.278L39.532 96.987a.204.204 0 0 1-.102.027Zm-.015-1.217a.203.203 0 0 1-.102-.379l23.425-13.524a.203.203 0 0 1 .278.074.203.203 0 0 1-.074.278L39.516 95.77a.202.202 0 0 1-.1.027h-.001Zm.054-1.246a.203.203 0 0 1-.101-.38l22.308-12.878a.202.202 0 0 1 .277.074.202.202 0 0 1-.074.277L39.57 94.525a.206.206 0 0 1-.102.027Zm-.023-1.212a.203.203 0 0 1-.102-.38l21.274-12.284a.202.202 0 0 1 .278.075.202.202 0 0 1-.074.277L39.547 93.31a.195.195 0 0 1-.101.028Zm-.039-1.2a.203.203 0 0 1-.102-.38L59.56 80.067a.203.203 0 1 1 .203.351L39.508 92.113a.2.2 0 0 1-.101.027Zm0-1.215a.202.202 0 0 1-.102-.379l19.3-11.143a.203.203 0 1 1 .203.352l-19.3 11.143a.204.204 0 0 1-.101.027Zm0-1.225a.203.203 0 0 1-.102-.379l18.234-10.528a.202.202 0 0 1 .278.075.203.203 0 0 1-.074.278L39.508 89.673a.204.204 0 0 1-.101.027Zm.023-1.23a.203.203 0 0 1-.101-.38l17.064-9.851a.202.202 0 0 1 .278.074.203.203 0 0 1-.075.277l-17.064 9.853a.206.206 0 0 1-.102.027Zm-.093-1.169a.203.203 0 0 1-.102-.38L55.45 77.56a.203.203 0 0 1 .278.074.204.204 0 0 1-.075.278l-16.215 9.362a.202.202 0 0 1-.101.028Zm.163-1.311a.203.203 0 0 1-.102-.38l14.88-8.59a.202.202 0 0 1 .277.074.202.202 0 0 1-.074.277l-14.879 8.592a.201.201 0 0 1-.101.027Zm-.038-1.2a.206.206 0 0 1-.177-.102.204.204 0 0 1 .075-.277l13.856-8a.203.203 0 0 1 .203.352l-13.856 8a.2.2 0 0 1-.101.027Zm-.055-1.187a.203.203 0 0 1-.102-.38l12.856-7.422a.203.203 0 0 1 .277.074.203.203 0 0 1-.074.278L39.51 83.575a.194.194 0 0 1-.101.028Zm0-1.22a.203.203 0 0 1-.102-.38l11.798-6.811a.202.202 0 0 1 .278.074.202.202 0 0 1-.075.277l-11.798 6.813a.203.203 0 0 1-.101.027Zm0-1.213a.204.204 0 0 1-.102-.38l10.644-6.145a.202.202 0 0 1 .277.074.202.202 0 0 1-.074.278l-10.644 6.145a.206.206 0 0 1-.101.027Zm-.055-1.196a.203.203 0 0 1-.102-.38l9.738-5.621a.203.203 0 1 1 .203.351l-9.738 5.623a.202.202 0 0 1-.101.027Zm.055-1.249a.203.203 0 0 1-.102-.38l8.627-4.981a.202.202 0 0 1 .278.074.203.203 0 0 1-.074.278l-8.627 4.982a.197.197 0 0 1-.102.027Zm-.063-1.185a.203.203 0 0 1-.102-.38l7.633-4.406a.203.203 0 0 1 .277.074.203.203 0 0 1-.074.278l-7.632 4.407a.207.207 0 0 1-.102.027Zm.063-1.255a.203.203 0 0 1-.102-.38l6.514-3.76a.203.203 0 1 1 .203.351l-6.514 3.761a.205.205 0 0 1-.1.028Zm0-1.217a.204.204 0 0 1-.102-.38l5.611-3.238a.203.203 0 1 1 .203.352l-5.611 3.238a.196.196 0 0 1-.101.028Zm-.055-1.194a.204.204 0 0 1-.102-.38l4.382-2.529a.202.202 0 0 1 .278.075.202.202 0 0 1-.075.277l-4.382 2.53a.201.201 0 0 1-.1.028v-.001Zm.141-1.3a.203.203 0 0 1-.102-.38l3.117-1.799a.202.202 0 0 1 .278.074.204.204 0 0 1-.074.278l-3.118 1.799a.204.204 0 0 1-.101.028Zm-.086-1.171a.203.203 0 0 1-.102-.378l2.403-1.388a.202.202 0 0 1 .278.075.203.203 0 0 1-.074.277l-2.404 1.388a.2.2 0 0 1-.101.028v-.002Zm74.312-45.123a.601.601 0 0 1-.304-.082L76.567 4.892 39.72 26.198a.61.61 0 1 1-.61-1.055L76.261 3.66a.613.613 0 0 1 .61 0l37.153 21.483a.61.61 0 0 1-.307 1.138h.001Z"/><path fill="#767676" d="M76.574 90.63a.604.604 0 0 1-.305-.081L39.118 69.068a.61.61 0 1 1 .61-1.056l36.846 21.305 36.848-21.305a.61.61 0 0 1 .61 1.056l-37.153 21.48a.606.606 0 0 1-.305.083Z"/><path fill="#767676" d="M113.723 69.147a.606.606 0 0 1-.304-.082L76.266 47.631a.61.61 0 1 1 .61-1.057L114.03 68.01a.609.609 0 0 1-.306 1.138Z"/><path fill="#767676" d="M76.571 47.715a.61.61 0 0 1-.61-.61V4.188a.61.61 0 0 1 1.22 0v42.917a.61.61 0 0 1-.61.61Z"/><path fill="#767676" d="M76.57 47.303a.204.204 0 0 1-.176-.102.204.204 0 0 1 .075-.278l37.168-21.458a.203.203 0 0 1 .278.074.205.205 0 0 1-.076.278L76.672 47.275a.201.201 0 0 1-.101.027Zm1.056.616a.202.202 0 0 1-.102-.379l36.11-20.848a.203.203 0 1 1 .202.352L77.727 47.892a.201.201 0 0 1-.101.026Zm1.062.608a.203.203 0 0 1-.102-.379l35.052-20.238a.203.203 0 1 1 .202.352L78.79 48.5a.192.192 0 0 1-.102.027Zm1.055.609a.203.203 0 0 1-.102-.38l33.996-19.627a.202.202 0 0 1 .278.075.205.205 0 0 1-.075.277L79.845 49.11a.208.208 0 0 1-.102.027Zm1.055.616a.204.204 0 0 1-.102-.38l32.94-19.016a.204.204 0 0 1 .279.074.205.205 0 0 1-.076.277l-32.94 19.017a.195.195 0 0 1-.101.028Zm1.054.608a.203.203 0 0 1-.101-.38l31.881-18.406a.205.205 0 0 1 .28.074.205.205 0 0 1-.076.278L81.954 50.334a.196.196 0 0 1-.102.027Zm1.061.61a.203.203 0 0 1-.1-.38l30.823-17.797a.203.203 0 1 1 .204.353L83.016 50.942a.206.206 0 0 1-.103.028Zm1.048.608a.2.2 0 0 1-.175-.102.202.202 0 0 1 .073-.277l29.768-17.187a.204.204 0 0 1 .204.352L84.063 51.552a.195.195 0 0 1-.101.027Zm1.023.637a.203.203 0 0 1-.1-.38L113.63 35.24a.202.202 0 0 1 .277.074.202.202 0 0 1-.073.277L85.087 52.188a.199.199 0 0 1-.102.026Zm1.094.588a.207.207 0 0 1-.177-.102.204.204 0 0 1 .076-.277l27.655-15.967a.202.202 0 0 1 .277.074.201.201 0 0 1-.074.278L86.18 52.775a.2.2 0 0 1-.1.028h-.002Zm1.056.607a.204.204 0 0 1-.177-.101.202.202 0 0 1 .074-.278l26.597-15.355a.203.203 0 1 1 .203.352L87.234 53.384a.199.199 0 0 1-.1.026Zm1.031.626a.202.202 0 0 1-.102-.38l25.568-14.761a.202.202 0 0 1 .277.074.202.202 0 0 1-.073.277L88.266 54.008a.191.191 0 0 1-.1.028Zm1.101.587a.204.204 0 0 1-.176-.102.202.202 0 0 1 .076-.277l24.46-14.123a.203.203 0 1 1 .204.352L89.368 54.596a.206.206 0 0 1-.102.028Zm1.038.622a.203.203 0 0 1-.101-.38L113.63 41.34a.204.204 0 0 1 .204.353L90.407 55.218a.209.209 0 0 1-.103.027Zm1.119.573a.204.204 0 0 1-.103-.38l22.308-12.879a.203.203 0 0 1 .278.074.203.203 0 0 1-.074.278L91.524 55.79a.201.201 0 0 1-.101.027Zm1.03.63a.203.203 0 0 1-.102-.379l21.276-12.284a.202.202 0 0 1 .277.074.203.203 0 0 1-.073.278L92.556 56.421a.196.196 0 0 1-.102.027Zm1.015.629a.203.203 0 0 1-.1-.379l20.254-11.694a.202.202 0 0 1 .277.074.202.202 0 0 1-.073.278L93.571 57.05a.204.204 0 0 1-.103.027Zm1.057.606a.203.203 0 0 1-.103-.38l19.3-11.143a.204.204 0 0 1 .279.075.205.205 0 0 1-.076.277l-19.3 11.144a.201.201 0 0 1-.1.027Zm1.062.611a.208.208 0 0 1-.177-.102.204.204 0 0 1 .075-.278l18.234-10.527a.203.203 0 0 1 .278.075.203.203 0 0 1-.074.277L95.688 58.267a.2.2 0 0 1-.1.027Zm1.07.598a.204.204 0 0 1-.102-.38l17.065-9.851a.201.201 0 0 1 .277.074.203.203 0 0 1-.073.278l-17.065 9.852a.207.207 0 0 1-.102.028Zm.968.666a.203.203 0 0 1-.101-.38l16.214-9.362a.202.202 0 0 1 .277.075.201.201 0 0 1-.073.277L97.727 59.53a.201.201 0 0 1-.102.027Zm1.212.51a.205.205 0 0 1-.177-.102.202.202 0 0 1 .075-.278l14.88-8.59a.204.204 0 0 1 .279.074.203.203 0 0 1-.075.278l-14.88 8.59a.195.195 0 0 1-.101.027Zm1.023.635a.207.207 0 0 1-.177-.101.204.204 0 0 1 .075-.278l13.856-8a.203.203 0 1 1 .203.351l-13.857 8a.19.19 0 0 1-.1.028Zm1.008.642a.203.203 0 0 1-.102-.38l12.855-7.422a.203.203 0 1 1 .203.353l-12.855 7.421a.2.2 0 0 1-.101.028Zm1.055.609a.203.203 0 0 1-.102-.38l11.798-6.812a.203.203 0 1 1 .203.352l-11.799 6.813a.199.199 0 0 1-.1.027Zm1.054.615a.207.207 0 0 1-.177-.102.204.204 0 0 1 .075-.277l10.645-6.147a.203.203 0 1 1 .202.352l-10.643 6.146a.197.197 0 0 1-.102.028Zm1 .641a.203.203 0 0 1-.1-.38l9.737-5.622a.203.203 0 0 1 .204.352l-9.739 5.623a.2.2 0 0 1-.102.027Zm1.11.577a.207.207 0 0 1-.177-.102.203.203 0 0 1 .075-.278l8.627-4.981a.203.203 0 1 1 .203.352l-8.627 4.981a.204.204 0 0 1-.101.028Zm.999.643a.209.209 0 0 1-.177-.1.205.205 0 0 1 .076-.278l7.632-4.408a.203.203 0 1 1 .203.352l-7.631 4.408a.21.21 0 0 1-.103.027Zm1.118.574a.204.204 0 0 1-.102-.38l6.514-3.76a.203.203 0 1 1 .203.352l-6.513 3.76a.205.205 0 0 1-.102.028Zm1.055.611a.202.202 0 0 1-.101-.379l5.611-3.24a.202.202 0 0 1 .277.075.202.202 0 0 1-.075.278l-5.61 3.24a.203.203 0 0 1-.102.027Zm1.007.642a.202.202 0 0 1-.176-.101.202.202 0 0 1 .074-.278l4.384-2.53a.202.202 0 0 1 .277.074.202.202 0 0 1-.075.278l-4.383 2.53a.196.196 0 0 1-.101.027Zm1.195.528a.203.203 0 0 1-.102-.378l3.118-1.8a.2.2 0 0 1 .277.073.202.202 0 0 1-.074.278l-3.117 1.8a.2.2 0 0 1-.102.027Zm.961.665a.204.204 0 0 1-.102-.379l2.404-1.387a.204.204 0 0 1 .279.074.205.205 0 0 1-.076.278l-2.403 1.387a.202.202 0 0 1-.102.027ZM76.57 46.09a.204.204 0 0 1-.102-.38l36.111-20.847a.202.202 0 0 1 .277.075.202.202 0 0 1-.074.277l-36.11 20.848a.203.203 0 0 1-.101.028Zm0-1.219a.203.203 0 0 1-.102-.38l35.054-20.236a.203.203 0 1 1 .202.35l-35.052 20.24a.201.201 0 0 1-.101.026Zm0-1.227a.204.204 0 0 1-.102-.38l33.997-19.627a.204.204 0 0 1 .203.352L76.672 43.617a.202.202 0 0 1-.101.027Zm0-1.212a.203.203 0 0 1-.102-.379l32.939-19.017a.203.203 0 1 1 .204.352L76.672 42.403a.198.198 0 0 1-.102.028Zm0-1.22a.204.204 0 0 1-.102-.38l31.881-18.406a.203.203 0 1 1 .203.352l-31.88 18.407a.203.203 0 0 1-.102.027Zm.001-1.22a.203.203 0 0 1-.102-.379l30.824-17.797a.204.204 0 0 1 .204.352L76.672 39.965a.203.203 0 0 1-.101.027Zm0-1.218a.203.203 0 0 1-.102-.38l29.768-17.186a.203.203 0 0 1 .203.351L76.673 38.747a.205.205 0 0 1-.102.027Zm-.039-1.207a.204.204 0 0 1-.102-.38l28.747-16.597a.203.203 0 1 1 .202.352L76.634 37.54a.201.201 0 0 1-.102.028Zm.039-1.234a.203.203 0 0 1-.102-.379l27.654-15.966a.203.203 0 0 1 .278.075.202.202 0 0 1-.074.277L76.673 36.306a.199.199 0 0 1-.102.027Zm0-1.227a.203.203 0 0 1-.102-.38l26.597-15.354a.202.202 0 0 1 .277.074.202.202 0 0 1-.073.277L76.673 35.08a.2.2 0 0 1-.101.027Zm-.031-1.203a.203.203 0 0 1-.101-.38l25.567-14.761a.203.203 0 1 1 .203.352L76.641 33.876a.203.203 0 0 1-.102.027Zm.047-1.24a.203.203 0 0 1-.102-.38l24.461-14.123a.203.203 0 1 1 .204.351L76.688 32.636a.196.196 0 0 1-.101.028Zm-.017-1.216a.203.203 0 0 1-.1-.379l23.424-13.524a.203.203 0 1 1 .204.352L76.673 31.42a.2.2 0 0 1-.102.026Zm.055-1.255a.204.204 0 0 1-.1-.379l22.307-12.88a.203.203 0 1 1 .203.353l-22.308 12.88a.202.202 0 0 1-.102.026Zm-.023-1.197a.205.205 0 0 1-.177-.102.204.204 0 0 1 .075-.277l21.275-12.283a.202.202 0 0 1 .278.074.203.203 0 0 1-.074.277L76.704 28.968a.195.195 0 0 1-.101.027h-.001Zm-.039-1.206a.205.205 0 0 1-.176-.102.202.202 0 0 1 .075-.277l20.255-11.695a.203.203 0 1 1 .203.352L76.665 27.76a.203.203 0 0 1-.102.028Zm0-1.216a.204.204 0 0 1-.102-.379l19.3-11.143a.204.204 0 0 1 .204.352l-19.3 11.143a.201.201 0 0 1-.102.027Zm0-1.225a.203.203 0 0 1-.101-.38l18.234-10.526a.202.202 0 0 1 .277.074.202.202 0 0 1-.074.277L76.665 25.32a.194.194 0 0 1-.102.028Zm.016-1.23a.203.203 0 0 1-.102-.38l17.065-9.851a.203.203 0 0 1 .277.074.201.201 0 0 1-.074.277L76.68 24.09a.199.199 0 0 1-.1.028h-.001Zm-.086-1.17a.203.203 0 0 1-.102-.38l16.214-9.361a.204.204 0 0 1 .204.352l-16.215 9.362a.196.196 0 0 1-.101.027Zm.164-1.303a.202.202 0 0 1-.102-.379l14.879-8.59a.203.203 0 1 1 .204.352l-14.88 8.59a.2.2 0 0 1-.101.027Zm-.039-1.205a.203.203 0 0 1-.102-.38l13.856-8.001a.203.203 0 1 1 .203.352L76.72 20.413a.205.205 0 0 1-.101.027Zm-.055-1.188a.203.203 0 0 1-.102-.38l12.855-7.422a.202.202 0 0 1 .278.074.203.203 0 0 1-.074.277l-12.855 7.423a.2.2 0 0 1-.102.027Zm0-1.212a.203.203 0 0 1-.102-.38l11.799-6.812a.204.204 0 0 1 .204.352l-11.799 6.812a.207.207 0 0 1-.101.028Zm0-1.23a.202.202 0 0 1-.102-.379l10.645-6.146a.205.205 0 0 1 .278.075.205.205 0 0 1-.075.277l-10.644 6.145a.2.2 0 0 1-.102.027Zm-.055-1.179a.204.204 0 0 1-.102-.38l9.739-5.622a.202.202 0 0 1 .277.074.203.203 0 0 1-.074.278l-9.738 5.622a.204.204 0 0 1-.101.028Zm.055-1.258a.204.204 0 0 1-.102-.38l8.628-4.98a.202.202 0 0 1 .278.074.202.202 0 0 1-.075.277l-8.627 4.982a.2.2 0 0 1-.102.027ZM76.5 13.19a.203.203 0 0 1-.102-.38l7.633-4.407a.204.204 0 1 1 .203.352l-7.632 4.406a.202.202 0 0 1-.102.028Zm.062-1.249a.204.204 0 0 1-.101-.379l6.513-3.761a.203.203 0 1 1 .204.352l-6.513 3.76a.2.2 0 0 1-.102.028Zm.001-1.224a.203.203 0 0 1-.102-.38l5.612-3.239a.203.203 0 1 1 .203.352l-5.612 3.24a.204.204 0 0 1-.101.027Zm-.055-1.193a.204.204 0 0 1-.102-.38l4.384-2.53a.203.203 0 1 1 .203.352l-4.384 2.53a.202.202 0 0 1-.1.028Zm.142-1.302a.206.206 0 0 1-.178-.102.204.204 0 0 1 .075-.278l3.117-1.799a.203.203 0 1 1 .203.352l-3.117 1.8a.197.197 0 0 1-.1.027Zm-.095-1.17a.203.203 0 0 1-.102-.379l2.403-1.388a.204.204 0 1 1 .204.352l-2.403 1.388a.197.197 0 0 1-.102.027Z"/><path fill="#767676" d="M76.64 176.039a.203.203 0 0 1-.101-.026L2.243 133.055a.207.207 0 0 1-.101-.177l-.001-85.73a.203.203 0 1 1 .406 0v85.612l74.093 42.841 74.093-42.841V47.148a.203.203 0 0 1 .407 0v85.73c0 .072-.039.14-.102.177l-74.297 42.958a.214.214 0 0 1-.101.026Z"/><path fill="#0059FE" d="M80.75 4.188a4.188 4.188 0 1 1-8.375 0 4.188 4.188 0 0 1 8.375 0Zm37.159 21.484a4.19 4.19 0 0 1-8.378 0 4.19 4.19 0 0 1 8.378 0ZM80.75 90.016a4.188 4.188 0 1 1-8.375 0 4.188 4.188 0 0 1 8.375 0Zm74.314 42.876a4.189 4.189 0 1 1-8.377-.001 4.189 4.189 0 0 1 8.377.001Z"/><path fill="#767676" d="M41.676 25.667a2.26 2.26 0 1 1-4.52 0 2.26 2.26 0 0 1 4.52 0ZM4.52 46.464a2.26 2.26 0 1 1-4.521-.001 2.26 2.26 0 0 1 4.52 0Zm36.984 21.445a2.26 2.26 0 1 1-4.519 0 2.26 2.26 0 0 1 4.52 0Zm37.18 107.345a2.26 2.26 0 1 1-4.519-.003 2.26 2.26 0 0 1 4.52.003Zm0-42.673a2.26 2.26 0 1 1-4.52-.003 2.26 2.26 0 0 1 4.52.003ZM4.52 90.025a2.26 2.26 0 1 1-4.52.001 2.26 2.26 0 0 1 4.52 0Z"/><path fill="#0059FE" d="M4.52 132.221a2.259 2.259 0 1 1-4.518 0 2.259 2.259 0 0 1 4.517 0Z"/><path fill="#767676" d="M115.832 155.096a2.26 2.26 0 1 1-4.519 0 2.26 2.26 0 0 1 4.519 0Zm36.985-108.304a2.261 2.261 0 0 1-4.52 0 2.262 2.262 0 0 1 2.26-2.26 2.261 2.261 0 0 1 2.26 2.26Z"/></svg>