<svg xmlns="http://www.w3.org/2000/svg" width="22" height="22" fill="none"><path fill="#000" fill-rule="evenodd" d="M2.593 12.377h4.619a2.61 2.61 0 0 1 1.832.747c.47.46.76 1.098.76 1.798v4.533c0 .7-.29 1.336-.76 1.798A2.61 2.61 0 0 1 7.212 22H2.593a2.61 2.61 0 0 1-1.832-.747A2.515 2.515 0 0 1 0 19.455v-4.533c0-.7.291-1.337.761-1.798a2.61 2.61 0 0 1 1.832-.747ZM12.764 5.37a.564.564 0 0 1-.569-.558c0-.31.255-.56.57-.56h3.763V.56c0-.31.255-.559.57-.559.314 0 .569.25.569.559v3.694h3.764c.314 0 .569.25.569.559a.564.564 0 0 1-.57.558h-3.763v3.695a.564.564 0 0 1-.57.56.564.564 0 0 1-.569-.56V5.37h-3.763ZM2.594 0h4.619a2.61 2.61 0 0 1 1.832.747c.47.461.76 1.098.76 1.798v4.533c0 .7-.29 1.336-.76 1.798a2.61 2.61 0 0 1-1.832.747h-4.62a2.61 2.61 0 0 1-1.832-.747A2.515 2.515 0 0 1 0 7.078V2.545c0-.7.291-1.337.761-1.798A2.61 2.61 0 0 1 2.593 0Zm12.195 12.377h4.619c.713 0 1.361.286 1.832.747.47.46.76 1.098.76 1.798v4.533c0 .7-.29 1.336-.76 1.798a2.61 2.61 0 0 1-1.832.747h-4.619a2.61 2.61 0 0 1-1.832-.747 2.515 2.515 0 0 1-.76-1.798v-4.533c0-.7.29-1.337.76-1.798a2.61 2.61 0 0 1 1.832-.747Z" clip-rule="evenodd"/></svg>