<svg xmlns="http://www.w3.org/2000/svg" width="40" height="50" fill="none"><mask id="a" width="26" height="26" x="6" y="12" maskUnits="userSpaceOnUse" style="mask-type:luminance"><path fill="#fff" d="M31.632 12.367H6.707v24.925h24.925V12.367Z"/></mask><g fill="#1F375B" mask="url(#a)"><path d="M25.771 12.008h-.35v.369h.35v-.37Z" opacity=".79"/><path d="M7.206 13H7.06v.157h.147V13Z" opacity=".85"/><path d="M9.692 13.031h-.083v.087h.083v-.087Z" opacity=".81"/><path d="M10.572 12.992h-.162v.17h.162v-.17Z" opacity=".91"/><path d="M11.406 12.992h-.16v.17h.16v-.17Z" opacity=".89"/><path d="M12.212 13.031h-.087v.092h.087v-.092Z" opacity=".77"/><path d="M13.06 13.023h-.107v.113h.107v-.113Z" opacity=".64"/><path d="M13.897 13.023h-.104v.11h.104v-.11Z" opacity=".5"/><path d="M14.766 12.992h-.16v.17h.16v-.17Z" opacity=".81"/><path d="M15.574 13.023h-.097v.104h.097v-.104Z" opacity=".76"/><path d="M16.392 13.047h-.052v.055h.052v-.055Z" opacity=".8"/><path d="M17.419 12.844h-.435v.46h.435v-.46Z" opacity=".87"/><path d="M18.131 12.984h-.178v.19h.178v-.19Z" opacity=".62"/><path d="M18.936 13.023h-.104v.11h.104v-.11Z" opacity=".54"/><path d="M19.79 13h-.142v.15h.142V13Z" opacity=".51"/><path d="M21.457 13.016h-.117v.125h.117v-.125Z" opacity=".87"/><path d="M22.334 12.977h-.186v.198h.186v-.198Z" opacity=".6"/><path d="M23.166 12.984h-.174v.183h.174v-.183Z" opacity=".82"/><path d="M23.936 13.063h-.034v.035h.034v-.036Z" opacity=".62"/><path d="M24.78 13.055h-.05v.053h.05v-.053Z" opacity=".85"/><path d="M25.656 13.016h-.12v.128h.12v-.128Z" opacity=".68"/><path d="M26.461 13.047h-.055v.058h.055v-.058Z" opacity=".69"/><path d="M27.314 13.04h-.072v.074h.072v-.075Z" opacity=".77"/><path d="M28.195 12.992h-.16v.17h.16v-.17Z" opacity=".88"/><path d="M29.097 12.922h-.288v.305h.288v-.305Z" opacity=".6"/><path d="M29.932 12.93h-.276v.29h.276v-.29Z" opacity=".89"/><path d="M30.681 13.023h-.099v.104h.1v-.104Z" opacity=".83"/><path d="M31.6 12.945h-.252v.267h.251v-.267Z" opacity=".61"/><path d="M8.162 13.766h-.38v.402h.38v-.402Z" opacity=".92"/><path d="M8.934 13.836H8.69v.258h.243v-.258Z" opacity=".71"/><path d="M9.732 13.875H9.57v.17h.162v-.17Z" opacity=".54"/><path d="M10.56 13.89h-.138v.147h.139v-.146Z" opacity=".82"/><path d="M11.447 13.844h-.232v.245h.232v-.245Z" opacity=".66"/><path d="M12.333 13.79h-.33v.347h.33v-.348Z" opacity=".78"/><path d="M13.157 13.805h-.302v.318h.302v-.318Z" opacity=".83"/><path d="M13.868 13.945h-.04v.041h.04v-.04Z" opacity=".87"/><path d="M14.766 13.875h-.16v.17h.16v-.17Z" opacity=".92"/><path d="M17.342 13.82h-.276v.293h.276v-.293Z" opacity=".61"/><path d="M18.085 13.922h-.081v.085h.08v-.085Z" opacity=".66"/><path d="M19.04 13.797h-.313v.33h.312v-.33Z" opacity=".77"/><path d="M19.83 13.852h-.213v.224h.212v-.224Z" opacity=".85"/><path d="M20.621 13.898h-.117v.126h.117v-.126Z" opacity=".64"/><path d="M22.326 13.875h-.17v.178h.17v-.178Z" opacity=".71"/><path d="M23.183 13.852h-.21v.222h.21v-.222Z" opacity=".9"/><path d="M23.968 13.914h-.1v.105h.1v-.105Z" opacity=".75"/><path d="M24.818 13.898H24.7v.126h.12v-.126Z" opacity=".94"/><path d="M25.628 13.93h-.066V14h.066v-.07Z" opacity=".62"/><path d="M26.583 13.805h-.294v.31h.294v-.31Z" opacity=".61"/><path d="M28.125 13.953h-.02v.022h.02v-.022Z" opacity=".78"/><path d="M29.847 13.906h-.105v.112h.105v-.112Z" opacity=".62"/><path d="M30.771 13.82h-.279v.296h.28v-.296Z" opacity=".9"/><path d="M31.59 13.844h-.238v.251h.237v-.251Z" opacity=".89"/><path d="M8.127 14.688H7.82v.324h.307v-.325Z" opacity=".57"/><path d="M8.867 14.79h-.113v.12h.113v-.12Z" opacity=".52"/><path d="M9.672 14.828h-.047v.05h.047v-.05Z" opacity=".66"/><path d="M10.586 14.75h-.195v.206h.195v-.206Z" opacity=".71"/><path d="M11.4 14.781h-.142v.15h.142v-.15Z" opacity=".89"/><path d="M12.193 14.82h-.056v.061h.056v-.06Z" opacity=".65"/><path d="M13.063 14.797h-.11v.116h.11v-.116Z" opacity=".87"/><path d="M13.902 14.797h-.113v.119h.113v-.12Z" opacity=".68"/><path d="M14.775 14.758h-.181v.192h.181v-.192Z" opacity=".73"/><path d="M15.576 14.805h-.1v.103h.1v-.103Z" opacity=".75"/><path d="M16.44 14.773h-.15v.16h.15v-.16Z" opacity=".85"/><path d="M17.255 14.797h-.103v.108h.102v-.108Z" opacity=".68"/><path d="M18.119 14.773h-.154v.164h.154v-.164Z" opacity=".9"/><path d="M20.687 14.719h-.253v.268h.253v-.268Z" opacity=".77"/><path d="M21.43 14.82h-.059v.064h.06v-.064Z" opacity=".84"/><path d="M22.365 14.719h-.252v.267h.252v-.267Z" opacity=".72"/><path d="M23.116 14.82h-.07v.072h.07v-.072Z" opacity=".5"/><path d="M23.974 14.79h-.115v.121h.115v-.122Z" opacity=".57"/><path d="M24.797 14.813h-.082v.086h.082v-.086Z" opacity=".9"/><path d="M25.663 14.781h-.136v.144h.136v-.144Z" opacity=".56"/><path d="M27.344 14.781h-.133v.139h.133v-.139Z" opacity=".9"/><path d="M28.24 14.719h-.248v.264h.249v-.264Z" opacity=".7"/><path d="M29.008 14.797h-.11v.116h.11v-.116Z" opacity=".76"/><path d="M29.967 14.664h-.354v.374h.354v-.374Z" opacity=".65"/><path d="M31.505 14.813h-.071v.076h.071v-.076Z" opacity=".55"/><path d="M8.032 15.672H7.91v.13h.122v-.13Z" opacity=".76"/><path d="M8.863 15.688h-.105v.11h.105v-.11Z" opacity=".75"/><path d="M9.67 15.719h-.037v.038h.036v-.038Z" opacity=".92"/><path d="M11.422 15.64h-.188v.199h.188v-.198Z" opacity=".58"/><path d="M12.235 15.672h-.13v.136h.13v-.136Z" opacity=".72"/><path d="M13.89 15.695h-.085v.09h.085v-.09Z" opacity=".91"/><path d="M14.711 15.71h-.055v.059h.055v-.058Z" opacity=".9"/><path d="M15.588 15.672h-.123v.131h.123v-.131Z" opacity=".84"/><path d="M16.392 15.71h-.056v.06h.056v-.06Z" opacity=".7"/><path d="M17.254 15.688h-.098v.103h.098v-.104Z" opacity=".81"/><path d="M18.13 15.648h-.17v.179h.17v-.179Z" opacity=".77"/><path d="M19.009 15.61h-.255v.268h.255v-.269Z" opacity=".72"/><path d="M19.803 15.648h-.166v.176h.166v-.176Z" opacity=".71"/><path d="M20.576 15.727h-.03v.03h.03v-.03Z" opacity=".72"/><path d="M21.493 15.64h-.184v.196h.184v-.195Z" opacity=".51"/><path d="M22.282 15.695h-.087v.093h.087v-.093Z" opacity=".67"/><path d="M23.136 15.68h-.113v.12h.113v-.12Z" opacity=".93"/><path d="M23.935 15.719h-.037v.038h.037v-.038Z" opacity=".57"/><path d="M24.91 15.578h-.308v.326h.308v-.326Z" opacity=".78"/><path d="M26.607 15.563h-.341v.36h.341v-.36Z" opacity=".6"/><path d="M27.354 15.656h-.159v.168h.159v-.168Z" opacity=".53"/><path d="M28.235 15.61h-.243v.256h.243v-.257Z" opacity=".76"/><path d="M28.976 15.71h-.05v.054h.05v-.053Z" opacity=".51"/><path d="M29.894 15.633h-.203v.213h.203v-.213Z" opacity=".53"/><path d="M30.695 15.672h-.125v.133h.125v-.133Z" opacity=".84"/><path d="M31.573 15.633h-.206v.216h.206v-.216Z" opacity=".69"/><path d="M7.172 16.586h-.078v.084h.078v-.084Z" opacity=".87"/><path d="M8.069 16.523h-.194v.205h.194v-.205Z" opacity=".79"/><path d="M8.915 16.516h-.212v.224h.212v-.224Z" opacity=".91"/><path d="M10.52 16.602h-.06v.062h.06v-.062Z" opacity=".87"/><path d="M11.336 16.617h-.016v.015h.016v-.015Z" opacity=".8"/><path d="M12.24 16.555h-.138v.146h.138v-.146Z" opacity=".71"/><path d="M13.03 16.602h-.042v.044h.041v-.044Z" opacity=".57"/><path d="M13.893 16.586h-.088v.093h.088v-.093Z" opacity=".68"/><path d="M14.792 16.516h-.21v.222h.21v-.222Z" opacity=".91"/><path d="M15.55 16.602h-.046v.047h.046v-.047Z" opacity=".74"/><path d="M16.445 16.547h-.16v.17h.16v-.17Z" opacity=".77"/><path d="M17.277 16.547h-.152v.162h.152v-.162Z" opacity=".91"/><path d="M18.136 16.531h-.183v.194h.183v-.194Z" opacity=".71"/><path d="M18.965 16.54h-.168v.176h.168v-.177Z" opacity=".62"/><path d="M19.767 16.586h-.087v.093h.087v-.093Z" opacity=".83"/><path d="M20.591 16.594h-.064v.067h.064v-.067Z" opacity=".58"/><path d="M21.409 16.617h-.018v.02h.018v-.02Z" opacity=".55"/><path d="M22.285 16.578h-.09v.096h.09v-.096Z" opacity=".8"/><path d="M23.11 16.594h-.063v.068h.064v-.068Z" opacity=".83"/><path d="M23.942 16.602h-.047v.05h.047v-.05Z" opacity=".71"/><path d="M24.795 16.586h-.076v.08h.076v-.08Z" opacity=".59"/><path d="M25.68 16.54h-.164v.173h.164v-.174Z" opacity=".74"/><path d="M26.551 16.508h-.227v.24h.227v-.24Z" opacity=".84"/><path d="M27.347 16.547H27.2v.157h.148v-.157Z" opacity=".89"/><path d="M28.14 16.602h-.05v.053h.05v-.053Z" opacity=".79"/><path d="M29.094 16.477h-.285v.301h.285v-.301Z" opacity=".63"/><path d="M29.88 16.531h-.177v.188h.177v-.188Z" opacity=".91"/><path d="M30.749 16.5h-.233v.247h.233V16.5Z" opacity=".68"/><path d="M31.559 16.54h-.172v.182h.172v-.183Z" opacity=".53"/><path d="M8.002 17.484h-.06v.064h.06v-.064Z" opacity=".91"/><path d="M8.84 17.484h-.055v.058h.055v-.058Z" opacity=".56"/><path d="M9.772 17.383h-.249v.264h.249v-.264Z" opacity=".82"/><path d="M10.516 17.484h-.055v.058h.055v-.058Z" opacity=".58"/><path d="M12.189 17.492h-.044v.047h.044v-.047Z" opacity=".72"/><path d="M13.868 17.492h-.04v.041h.04v-.04Z" opacity=".62"/><path d="M14.738 17.46h-.105v.112h.105v-.111Z" opacity=".78"/><path d="M15.598 17.438h-.145v.154h.145v-.154Z" opacity=".71"/><path d="M16.436 17.438h-.143v.15h.143v-.15Z" opacity=".55"/><path d="M17.26 17.453h-.112v.117h.112v-.117Z" opacity=".65"/><path d="M18.066 17.492h-.05v.053h.05v-.053Z" opacity=".6"/><path d="M18.925 17.477h-.081v.085h.08v-.085Zm.837 0h-.082v.087h.082v-.087Z" opacity=".87"/><path d="M20.611 17.46h-.103v.11h.104v-.11Z" opacity=".92"/><path d="M21.505 17.406h-.212v.224h.212v-.224Z" opacity=".88"/><path d="M22.3 17.453h-.12v.128h.12v-.128Z" opacity=".65"/><path d="M23.158 17.43h-.162v.17h.162v-.17Z" opacity=".8"/><path d="M23.943 17.492h-.045v.047h.045v-.047Z" opacity=".89"/><path d="M24.775 17.492h-.037v.038h.037v-.038Z" opacity=".52"/><path d="M25.757 17.344h-.323v.341h.323v-.341Z" opacity=".63"/><path d="M26.484 17.469h-.093v.097h.093v-.097Z" opacity=".76"/><path d="M27.376 17.406h-.204v.217h.204v-.217Z" opacity=".53"/><path d="M28.247 17.375h-.267v.284h.267v-.284Z" opacity=".94"/><path d="M29.058 17.406h-.21v.223h.21v-.223Z" opacity=".93"/><path d="M29.847 17.46h-.105v.112h.105v-.111Z" opacity=".89"/><path d="M30.664 17.484h-.062v.066h.062v-.066Z" opacity=".72"/><path d="M31.535 17.453h-.12v.127h.12v-.127Z" opacity=".67"/><path d="M7.164 18.367h-.062v.067h.062v-.067Z" opacity=".64"/><path d="M8.872 18.344H8.75v.128h.122v-.128Z" opacity=".6"/><path d="M9.695 18.36h-.086v.09h.086v-.09Z" opacity=".82"/><path d="M10.561 18.328h-.143v.151h.143v-.15Z" opacity=".56"/><path d="M11.38 18.352h-.107v.112h.107v-.112Z" opacity=".57"/><path d="M12.247 18.32h-.157v.166h.157v-.166Z" opacity=".58"/><path d="M13.053 18.352h-.096v.1h.096v-.1Z" opacity=".62"/><path d="M13.854 18.39h-.018v.02h.018v-.02Z" opacity=".92"/><path d="M14.85 18.227h-.33v.349h.33v-.35Z" opacity=".78"/><path d="M15.61 18.313h-.172v.183h.172v-.183Z" opacity=".88"/><path d="M17.232 18.375h-.056v.06h.056v-.06Z" opacity=".79"/><path d="M18.979 18.305h-.194v.204h.194v-.204Z" opacity=".69"/><path d="M19.843 18.273h-.245v.261h.245v-.26Z" opacity=".64"/><path d="M20.61 18.352h-.102v.108h.102v-.108Z" opacity=".8"/><path d="M21.558 18.234h-.316v.334h.316v-.334Z" opacity=".84"/><path d="M22.349 18.29h-.22v.23h.22v-.23Z" opacity=".86"/><path d="M23.223 18.25h-.285v.302h.285v-.302Z" opacity=".53"/><path d="M24.066 18.25h-.293v.31h.293v-.31Z" opacity=".78"/><path d="M24.866 18.29h-.214v.225h.214v-.226Z" opacity=".66"/><path d="M25.677 18.32h-.157v.166h.157v-.166Z" opacity=".81"/><path d="M26.455 18.383h-.037v.038h.037v-.038Z" opacity=".53"/><path d="M27.327 18.352h-.1v.106h.1v-.106Z" opacity=".93"/><path d="M28.179 18.336h-.128v.136h.128v-.136Z" opacity=".5"/><path d="M29.853 18.344h-.119v.126h.12v-.126Z" opacity=".91"/><path d="M30.683 18.352h-.101v.106h.1v-.106Z" opacity=".87"/><path d="M31.488 18.383h-.031v.032h.03v-.032Z" opacity=".8"/><path d="M7.257 19.156h-.253v.269h.253v-.269Z" opacity=".69"/><path d="M8.053 19.203h-.166v.175h.166v-.175Z" opacity=".6"/><path d="M8.901 19.195h-.178v.19H8.9v-.19Z" opacity=".8"/><path d="M10.502 19.281h-.025v.028h.025v-.028Z" opacity=".81"/><path d="M11.397 19.219h-.14v.148h.14v-.148Zm.839 0h-.134v.141h.134v-.141Z" opacity=".51"/><path d="M14.79 19.18h-.208v.22h.207v-.22Z" opacity=".84"/><path d="M15.643 19.164h-.237v.25h.237v-.25Z" opacity=".68"/><path d="M16.562 19.086h-.39v.412h.39v-.412Z" opacity=".85"/><path d="M18.147 19.188h-.202v.211h.202v-.212Z" opacity=".81"/><path d="M18.965 19.203h-.164v.174h.164v-.174Z" opacity=".53"/><path d="M19.894 19.11h-.343v.362h.343v-.363Z" opacity=".64"/><path d="M20.68 19.164h-.239v.255h.24v-.255Z" opacity=".63"/><path d="M23.133 19.234h-.11v.116h.11v-.116Z" opacity=".87"/><path d="M23.989 19.219h-.145v.152h.145v-.152Z" opacity=".89"/><path d="M24.862 19.18h-.214v.225h.214v-.225Z" opacity=".62"/><path d="M25.631 19.258h-.069v.072h.07v-.072Z" opacity=".92"/><path d="M26.5 19.227h-.129v.135h.128v-.135Zm.835 0h-.116v.122h.116v-.122Z" opacity=".87"/><path d="M28.99 19.258h-.072v.076h.072v-.076Zm.878-.048h-.15v.16h.15v-.16Z" opacity=".51"/><path d="M30.65 19.273h-.04v.045h.04v-.045Z" opacity=".67"/><path d="M31.493 19.266h-.044v.047h.044v-.047Z" opacity=".6"/><path d="M7.338 19.96H6.93v.432h.408v-.431Z" opacity=".5"/><path d="M7.98 20.172h-.02v.018h.02v-.018Z" opacity=".64"/><path d="M8.968 20.016h-.316v.334h.316v-.334Z" opacity=".86"/><path d="M9.669 20.156h-.04v.041h.04v-.04Z" opacity=".5"/><path d="M10.566 20.102h-.156v.164h.156v-.164Z" opacity=".89"/><path d="M11.411 20.094h-.169v.178h.17v-.178Z" opacity=".57"/><path d="M13.078 20.11h-.14v.147h.14v-.148Z" opacity=".73"/><path d="M13.854 20.164h-.018v.02h.018v-.02Z" opacity=".67"/><path d="M14.71 20.148h-.05v.054h.05v-.054Z" opacity=".55"/><path d="M15.542 20.164h-.03v.032h.03v-.032Z" opacity=".86"/><path d="M16.418 20.117h-.11v.116h.11v-.116Z" opacity=".52"/><path d="M17.29 20.086h-.177v.188h.177v-.188Z" opacity=".74"/><path d="M18.138 20.086h-.185v.195h.185v-.195Z" opacity=".9"/><path d="M18.96 20.094h-.16v.169h.16v-.17Z" opacity=".52"/><path d="M19.854 20.04h-.264v.278h.264v-.279Z" opacity=".54"/><path d="M20.65 20.086h-.177v.188h.177v-.188Z" opacity=".66"/><path d="M21.478 20.102h-.154v.161h.154v-.161Z" opacity=".94"/><path d="M22.258 20.164h-.035v.037h.035v-.037Z" opacity=".93"/><path d="M23.237 20.008h-.319v.337h.319v-.337Z" opacity=".67"/><path d="M24.012 20.078h-.188v.198h.188v-.198Z" opacity=".87"/><path d="M24.814 20.117h-.11v.12h.11v-.12Z" opacity=".5"/><path d="M25.657 20.117h-.122v.13h.122v-.13Z" opacity=".8"/><path d="M26.516 20.094h-.16v.169h.16v-.17Z" opacity=".6"/><path d="M27.306 20.148h-.06v.063h.06v-.063Z" opacity=".66"/><path d="M28.135 20.156h-.041v.043h.04v-.043Z" opacity=".53"/><path d="M29.01 20.125h-.108v.113h.107v-.113Z" opacity=".74"/><path d="M29.827 20.14h-.065v.07h.065v-.07Z" opacity=".76"/><path d="M30.683 20.125h-.101v.107h.1v-.107Z" opacity=".72"/><path d="M31.564 20.078h-.189v.2h.19v-.2Z" opacity=".52"/><path d="M8.008 21.031h-.074v.08h.074v-.08Z" opacity=".89"/><path d="M9.791 20.914h-.283v.3h.283v-.3Z" opacity=".64"/><path d="M11.342 21.055h-.026v.026h.026v-.026Z" opacity=".84"/><path d="M13.158 20.914h-.295v.311h.295v-.31Z" opacity=".93"/><path d="M13.97 20.938h-.247v.26h.247v-.26Z" opacity=".69"/><path d="M14.705 21.047h-.037v.038h.037v-.038Z" opacity=".79"/><path d="M15.545 21.055h-.033v.035h.033v-.035Z" opacity=".74"/><path d="M16.378 21.055h-.03v.032h.03v-.032Z" opacity=".77"/><path d="M17.32 20.945h-.234v.249h.235v-.249Z" opacity=".73"/><path d="M18.191 20.914h-.293v.31h.293v-.31Z" opacity=".59"/><path d="M18.913 21.031h-.065v.069h.065v-.069Z" opacity=".8"/><path d="M19.758 21.031h-.074v.08h.074v-.08Z" opacity=".53"/><path d="M20.684 20.938h-.247v.26h.247v-.26Z" opacity=".84"/><path d="M21.422 21.047h-.043v.046h.043v-.046Z" opacity=".82"/><path d="M23.102 21.047h-.047v.05h.047v-.05Z" opacity=".69"/><path d="M23.964 21.016h-.093v.097h.093v-.097Z" opacity=".81"/><path d="M25.655 21.008h-.116v.122h.116v-.122Z" opacity=".69"/><path d="M26.58 20.914h-.287v.303h.287v-.303Z" opacity=".67"/><path d="M27.3 21.04h-.05v.052h.05v-.053Z" opacity=".52"/><path d="M28.194 20.984h-.159v.17h.159v-.17Z" opacity=".75"/><path d="M29.824 21.04h-.062v.065h.062v-.066Z" opacity=".76"/><path d="M30.666 21.031h-.064v.069h.064v-.069Z" opacity=".67"/><path d="M31.526 21.016h-.104v.11h.104v-.11Z" opacity=".94"/><path d="M8.015 21.906h-.093v.1h.093v-.1Z" opacity=".72"/><path d="M8.941 21.82h-.257v.273h.257v-.273Z" opacity=".64"/><path d="M9.794 21.805h-.286v.302h.286v-.302Z" opacity=".9"/><path d="M10.61 21.828h-.243v.256h.243v-.256Z" opacity=".78"/><path d="M12.227 21.89h-.122v.13h.122v-.13Z" opacity=".84"/><path d="M13.064 21.898h-.11v.118h.11v-.118Z" opacity=".85"/><path d="M14.722 21.914h-.074v.078h.074v-.078Z" opacity=".8"/><path d="M15.635 21.836h-.22v.235h.22v-.235Z" opacity=".64"/><path d="M16.422 21.89h-.117v.126h.117v-.125Z" opacity=".54"/><path d="M17.24 21.914h-.076v.082h.076v-.082Z" opacity=".65"/><path d="M18.118 21.875h-.15v.157h.15v-.157Z" opacity=".67"/><path d="M19.748 21.93h-.049v.05h.049v-.05Z" opacity=".94"/><path d="M20.587 21.93h-.052v.053h.052v-.053Z" opacity=".74"/><path d="M21.492 21.86h-.183v.193h.183v-.194Z" opacity=".69"/><path d="M22.325 21.867h-.173v.183h.173v-.183Z" opacity=".85"/><path d="M23.195 21.828h-.238v.252h.238v-.252Z" opacity=".82"/><path d="M23.954 21.914h-.071v.076h.072v-.076Z" opacity=".84"/><path d="M24.787 21.922h-.064v.069h.064v-.07Z" opacity=".64"/><path d="M25.648 21.898h-.101v.107h.1v-.107Z" opacity=".71"/><path d="M26.54 21.844h-.208v.22h.209v-.22Z" opacity=".51"/><path d="M27.31 21.922h-.068v.072h.069v-.072Z" opacity=".7"/><path d="M28.274 21.79h-.317v.335h.317v-.336Z" opacity=".59"/><path d="M29.852 21.89h-.118v.126h.118v-.125Z" opacity=".92"/><path d="M30.658 21.93h-.049v.052h.05v-.052Z" opacity=".88"/><path d="M31.572 21.844h-.205v.216h.204v-.216Z" opacity=".94"/><path d="M7.15 22.828h-.033v.034h.032v-.034Z" opacity=".62"/><path d="M8.07 22.742h-.195v.206h.195v-.206Z" opacity=".94"/><path d="M8.88 22.773h-.138v.148h.139v-.148Z" opacity=".63"/><path d="M9.72 22.766h-.146v.154h.147v-.154Z" opacity=".81"/><path d="M10.546 22.781h-.112v.12h.112v-.12Z" opacity=".6"/><path d="M11.34 22.836h-.02v.021h.02v-.021Z" opacity=".77"/><path d="M12.181 22.828h-.029v.03h.03v-.03Z" opacity=".82"/><path d="M13.943 22.742h-.19v.201h.19v-.2Z" opacity=".91"/><path d="M14.8 22.719h-.226v.24h.226v-.24Z" opacity=".79"/><path d="M15.565 22.805h-.077v.08h.077v-.08Z" opacity=".74"/><path d="M16.47 22.734h-.212v.224h.212v-.224Z" opacity=".6"/><path d="M17.277 22.766h-.148v.157h.148v-.157Z" opacity=".78"/><path d="M18.062 22.828h-.039v.04h.039v-.04Z" opacity=".52"/><path d="M18.918 22.805h-.07v.074h.07v-.074Z" opacity=".64"/><path d="M19.76 22.805h-.076v.08h.076v-.08Z" opacity=".61"/><path d="M20.629 22.773h-.133v.14h.133v-.14Z" opacity=".9"/><path d="M21.467 22.773h-.131v.14h.131v-.14Z" opacity=".69"/><path d="M23.148 22.773h-.14v.148h.14v-.148Z" opacity=".75"/><path d="M24.026 22.727h-.213v.225h.213v-.225Z" opacity=".59"/><path d="M24.834 22.758h-.154v.163h.154v-.163Z" opacity=".78"/><path d="M25.68 22.758h-.168v.178h.167v-.178Z" opacity=".82"/><path d="M26.565 22.703h-.256v.27h.256v-.27Z" opacity=".76"/><path d="M28.167 22.79h-.1v.104h.1v-.105Z" opacity=".92"/><path d="M28.97 22.828h-.032v.034h.032v-.034Z" opacity=".77"/><path d="M29.85 22.781h-.116v.122h.116v-.122Z" opacity=".7"/><path d="M30.713 22.758h-.158v.168h.158v-.168Z" opacity=".81"/><path d="M7.227 23.633h-.188v.198h.188v-.198Z" opacity=".87"/><path d="M8.004 23.695H7.94v.066h.063v-.066Z" opacity=".72"/><path d="M8.88 23.656h-.138v.145h.137v-.145Z" opacity=".56"/><path d="M9.673 23.703H9.63v.046h.044v-.046Z" opacity=".81"/><path d="M10.592 23.625h-.21v.221h.21v-.221Z" opacity=".73"/><path d="M13.1 23.633h-.19v.201h.19v-.201Z" opacity=".56"/><path d="M13.949 23.625h-.203v.213h.203v-.213Z" opacity=".5"/><path d="M14.766 23.648h-.16v.171h.16v-.17Z" opacity=".73"/><path d="M15.544 23.71h-.032v.036h.032v-.035Z" opacity=".79"/><path d="M16.494 23.594h-.26v.274h.26v-.274Z" opacity=".88"/><path d="M17.241 23.688h-.073v.076h.073v-.076Z" opacity=".55"/><path d="M18.147 23.625h-.206v.218h.206v-.218Z" opacity=".82"/><path d="M19.791 23.656h-.139v.147h.14v-.147Z" opacity=".75"/><path d="M20.61 23.68h-.098v.103h.097v-.103Z" opacity=".94"/><path d="M21.457 23.664h-.117v.125h.117v-.125Z" opacity=".65"/><path d="M22.285 23.68h-.09v.094h.09v-.094Z" opacity=".73"/><path d="M23.129 23.68h-.098v.103h.098v-.103Zm1.74-.063h-.224v.236h.224v-.236Z" opacity=".78"/><path d="M25.73 23.586h-.27v.285h.27v-.285Z" opacity=".89"/><path d="M26.506 23.656h-.139v.148h.139v-.148Z" opacity=".64"/><path d="M27.333 23.672h-.114v.122h.114v-.122Z" opacity=".69"/><path d="M28.24 23.602h-.248v.26h.247v-.26Z" opacity=".84"/><path d="M29.053 23.633h-.194v.204h.194v-.204Z" opacity=".51"/><path d="M29.817 23.703h-.047v.05h.047v-.05Z" opacity=".7"/><path d="M31.502 23.703h-.06v.064h.06v-.064Z" opacity=".52"/><path d="M7.237 24.508h-.206v.218h.206v-.218Z" opacity=".91"/><path d="M8.052 24.54h-.157v.164h.157v-.165Z" opacity=".66"/><path d="M8.897 24.523H8.72v.19h.178v-.19Z" opacity=".5"/><path d="M10.554 24.555h-.128v.135h.128v-.135Z" opacity=".53"/><path d="M12.362 24.414h-.385v.409h.385v-.409Z" opacity=".8"/><path d="M13.074 24.547h-.133v.14h.133v-.14Z" opacity=".6"/><path d="M13.96 24.5h-.222v.235h.221V24.5Z" opacity=".74"/><path d="M14.708 24.602h-.04v.04h.04v-.04Z" opacity=".68"/><path d="M16.454 24.523h-.177v.188h.177v-.188Z" opacity=".64"/><path d="M17.252 24.57h-.092v.096h.092v-.096Z" opacity=".56"/><path d="M18.902 24.602h-.043v.045h.043v-.045Z" opacity=".55"/><path d="M19.757 24.578h-.073v.078h.073v-.078Z" opacity=".88"/><path d="M20.61 24.57h-.098v.104h.097v-.104Z" opacity=".51"/><path d="M21.49 24.523h-.177v.186h.176v-.186Z" opacity=".83"/><path d="M22.282 24.578h-.083v.087h.083v-.087Z" opacity=".8"/><path d="M23.201 24.492h-.244v.258h.244v-.258Z" opacity=".78"/><path d="M23.997 24.54h-.157v.165h.157v-.166Z" opacity=".77"/><path d="M24.777 24.602h-.043v.045h.043v-.045Z" opacity=".94"/><path d="M25.666 24.547h-.139v.146h.14v-.146Z" opacity=".68"/><path d="M26.59 24.453h-.309v.326h.308v-.326Z" opacity=".84"/><path d="M27.348 24.54h-.145v.153h.145v-.154Z" opacity=".92"/><path d="M28.146 24.586h-.064v.067h.064v-.067Z" opacity=".61"/><path d="M29.064 24.5h-.224v.238h.224V24.5Z" opacity=".78"/><path d="M30.726 24.523h-.183v.192h.183v-.192Z" opacity=".85"/><path d="M31.561 24.523h-.178v.188h.178v-.188Z" opacity=".78"/><path d="M7.212 25.422h-.161v.17h.161v-.17Z" opacity=".72"/><path d="M8.943 25.367H8.68v.28h.263v-.28Z" opacity=".68"/><path d="M9.759 25.39h-.22v.232h.22v-.231Z" opacity=".82"/><path d="M10.65 25.344h-.318v.337h.319v-.337Z" opacity=".92"/><path d="M11.403 25.43h-.15v.158h.15v-.158Z" opacity=".79"/><path d="M12.236 25.438h-.134v.141h.134v-.142Z" opacity=".89"/><path d="M13.142 25.367h-.267v.282h.267v-.282Z" opacity=".84"/><path d="M13.892 25.46h-.091v.097h.091v-.096Z" opacity=".77"/><path d="M14.86 25.328h-.348v.368h.347v-.368Z" opacity=".93"/><path d="M15.683 25.344h-.316v.334h.316v-.334Z" opacity=".5"/><path d="M16.392 25.477h-.052v.054h.052v-.054Z" opacity=".82"/><path d="M17.246 25.46h-.082v.086h.082v-.085Z" opacity=".86"/><path d="M18.052 25.5h-.017v.017h.017V25.5Z" opacity=".52"/><path d="M18.977 25.406h-.188v.199h.188v-.199Z" opacity=".6"/><path d="M19.898 25.32h-.355v.375h.355v-.375Z" opacity=".79"/><path d="M20.606 25.46h-.094v.1h.094v-.1Z" opacity=".94"/><path d="M21.45 25.453h-.102v.108h.102v-.108Z" opacity=".67"/><path d="M22.433 25.305h-.382v.405h.383v-.405Z" opacity=".84"/><path d="M23.16 25.422h-.164v.174h.165v-.174Z" opacity=".83"/><path d="M25.814 25.281h-.431v.456h.431v-.456Z" opacity=".52"/><path d="M26.482 25.46h-.091v.098h.091v-.097Z" opacity=".6"/><path d="M27.288 25.492h-.026v.028h.026v-.028Z" opacity=".53"/><path d="M28.21 25.406h-.187v.195h.186v-.195Z" opacity=".61"/><path d="M29.059 25.398h-.207v.22h.207v-.22Z" opacity=".51"/><path d="M29.84 25.46h-.094v.1h.095v-.1Z" opacity=".68"/><path d="M30.765 25.367H30.5v.28h.265v-.28Z" opacity=".7"/><path d="M31.49 25.484h-.04v.043h.04v-.043Z" opacity=".58"/><path d="M7.185 26.344h-.107v.113h.107v-.113Z" opacity=".8"/><path d="M8.108 26.25h-.276v.291h.276v-.291Z" opacity=".83"/><path d="M8.948 26.25h-.276v.291h.276v-.291Z" opacity=".53"/><path d="M9.79 26.242h-.282v.299h.282v-.299Z" opacity=".63"/><path d="M10.57 26.313h-.16v.169h.16v-.17Z" opacity=".84"/><path d="M11.409 26.313h-.159v.167h.159v-.168Z" opacity=".93"/><path d="M12.216 26.344h-.095v.1h.095v-.1Z" opacity=".52"/><path d="M13.096 26.305h-.178v.189h.178v-.19Zm.844-.008h-.186v.197h.186v-.197Z" opacity=".92"/><path d="M14.793 26.281h-.215v.227h.215v-.227Z" opacity=".68"/><path d="M15.627 26.29h-.201v.213h.201v-.214Z" opacity=".83"/><path d="M16.474 26.281h-.216v.229h.216v-.229Z" opacity=".7"/><path d="M17.229 26.367h-.05v.052h.05v-.052Z" opacity=".61"/><path d="M18.119 26.313h-.154v.163h.154v-.163Z" opacity=".83"/><path d="M19.741 26.375h-.038v.041h.038v-.041Z" opacity=".5"/><path d="M20.588 26.367h-.057v.06h.057v-.06Z" opacity=".88"/><path d="M21.448 26.344h-.093v.097h.093v-.097Z" opacity=".75"/><path d="M22.28 26.352h-.08v.085h.08v-.085Z" opacity=".71"/><path d="M23.171 26.297h-.183v.194h.183v-.194Z" opacity=".89"/><path d="M24.834 26.313h-.154v.163h.154v-.163Z" opacity=".79"/><path d="M25.7 26.281h-.212v.224h.212v-.224Z" opacity=".55"/><path d="M26.533 26.297h-.19v.198h.19v-.198Z" opacity=".64"/><path d="M27.324 26.344h-.097v.103h.097v-.103Z" opacity=".93"/><path d="M28.254 26.25h-.277v.294h.277v-.294Z" opacity=".84"/><path d="M29.052 26.297h-.193v.203h.192v-.203Z" opacity=".59"/><path d="M29.855 26.328h-.125v.133h.125v-.133Z" opacity=".92"/><path d="M30.762 26.258H30.5v.277h.262v-.277Z" opacity=".73"/><path d="M31.58 26.281h-.217v.229h.217v-.229Z" opacity=".68"/><path d="M7.19 27.219h-.116v.123h.116v-.123Z" opacity=".6"/><path d="M8.16 27.086h-.38v.4h.378v-.4Z" opacity=".51"/><path d="M8.896 27.188h-.173v.184h.173v-.184Z" opacity=".79"/><path d="M9.762 27.164h-.223v.236h.223v-.236Z" opacity=".8"/><path d="M10.51 27.258h-.045v.047h.046v-.047Z" opacity=".84"/><path d="M12.248 27.195h-.158v.168h.158v-.168Z" opacity=".5"/><path d="M13.071 27.21h-.13v.137h.13v-.136Z" opacity=".72"/><path d="M13.898 27.227h-.105v.11h.105v-.11Z" opacity=".62"/><path d="M14.862 27.102h-.35v.37h.35v-.37Z" opacity=".87"/><path d="M15.544 27.266h-.032v.033h.032v-.033Z" opacity=".62"/><path d="M16.485 27.156h-.243v.256h.243v-.256Z" opacity=".8"/><path d="M17.233 27.25h-.053v.056h.053v-.056Z" opacity=".67"/><path d="M18.094 27.234h-.098v.104h.098v-.104Z" opacity=".62"/><path d="M18.966 27.195h-.17v.18h.17v-.18Z" opacity=".63"/><path d="M19.8 27.195h-.16v.17h.16v-.17Z" opacity=".92"/><path d="M20.678 27.156h-.237v.25h.237v-.25Z" opacity=".67"/><path d="M21.527 27.148h-.25v.264h.25v-.264Z" opacity=".73"/><path d="M23.147 27.21h-.135v.144h.135v-.143Z" opacity=".52"/><path d="M23.983 27.21h-.131v.14h.13v-.14Z" opacity=".54"/><path d="M24.83 27.203h-.142v.151h.143v-.15Z" opacity=".61"/><path d="M25.656 27.219h-.12v.126h.12v-.126Z" opacity=".53"/><path d="M26.548 27.164h-.224v.236h.224v-.236Z" opacity=".7"/><path d="M27.3 27.258h-.05v.053h.05v-.053Z" opacity=".8"/><path d="M28.159 27.234h-.089v.093h.089v-.093Z" opacity=".62"/><path d="M29.006 27.227h-.104v.11h.104v-.11Z" opacity=".6"/><path d="M29.819 27.25h-.053v.058h.053v-.058Z" opacity=".85"/><path d="M30.666 27.25h-.068v.072h.068v-.072Z" opacity=".7"/><path d="M31.53 27.219h-.116v.122h.116v-.122Z" opacity=".56"/><path d="M7.15 28.156h-.033v.035h.034v-.035Z" opacity=".8"/><path d="M8.11 28.023h-.282v.3h.282v-.3Z" opacity=".57"/><path d="M8.91 28.07h-.2v.21h.2v-.21Z" opacity=".58"/><path d="M9.81 28h-.326v.346h.327V28Z" opacity=".92"/><path d="M10.563 28.094h-.145v.154h.145v-.154Z" opacity=".55"/><path d="M11.447 28.047h-.236v.25h.236v-.25Z" opacity=".57"/><path d="M12.294 28.04h-.251v.266h.252v-.267Z" opacity=".85"/><path d="M13.87 28.14h-.05v.052h.05v-.051Z" opacity=".72"/><path d="M14.73 28.125h-.09v.095h.09v-.095Z" opacity=".53"/><path d="M15.647 28.04h-.249v.263h.249v-.264Z" opacity=".83"/><path d="M16.457 28.07h-.188v.198h.188v-.198Z" opacity=".69"/><path d="M18.091 28.117h-.099v.105h.1v-.105Z" opacity=".54"/><path d="M18.898 28.156h-.035v.037h.035v-.037Z" opacity=".65"/><path d="M19.75 28.14h-.059v.063h.06v-.062Z" opacity=".71"/><path d="M21.56 28h-.322v.341h.322V28Z" opacity=".66"/><path d="M22.37 28.031h-.265v.28h.266v-.28Z" opacity=".62"/><path d="M23.144 28.102h-.128v.135h.128v-.135Z" opacity=".67"/><path d="M23.948 28.14h-.061v.065h.06v-.064Z" opacity=".51"/><path d="M24.916 28h-.314v.332h.314V28Z" opacity=".81"/><path d="M25.627 28.14h-.057v.06h.057v-.06Z" opacity=".82"/><path d="M26.58 28.016h-.287v.302h.287v-.302Z" opacity=".59"/><path d="M27.31 28.133h-.068v.073h.069v-.073Z" opacity=".68"/><path d="M28.195 28.086h-.16v.17h.16v-.17Z" opacity=".78"/><path d="M29.023 28.102h-.14v.148h.14v-.148Z" opacity=".65"/><path d="M29.872 28.086h-.157v.166h.157v-.166Z" opacity=".52"/><path d="M30.759 28.04h-.255v.269h.255v-.27Z" opacity=".53"/><path d="M31.49 28.148h-.037v.039h.037v-.039Z" opacity=".92"/><path d="M7.251 28.938H7.02v.243h.231v-.244Z" opacity=".54"/><path d="M8.062 28.96h-.183v.195h.183v-.194Z" opacity=".78"/><path d="M8.862 29.008h-.1v.107h.1v-.107Z" opacity=".51"/><path d="M9.686 29.023h-.073v.078h.073v-.078Z" opacity=".64"/><path d="M10.508 29.04h-.04v.04h.04v-.04Z" opacity=".63"/><path d="M11.397 28.984h-.135v.145h.135v-.145Z" opacity=".5"/><path d="M12.189 29.031h-.044v.047h.044v-.047Z" opacity=".79"/><path d="M13.048 29.016h-.08v.084h.08v-.084Z" opacity=".53"/><path d="M15.606 28.969h-.165v.174h.165v-.174Zm.809.039h-.102v.108h.102v-.108Z" opacity=".6"/><path d="M18.152 28.945h-.218v.23h.218v-.23Z" opacity=".93"/><path d="M18.978 28.96h-.189v.2h.19v-.2Z" opacity=".94"/><path d="M19.843 28.93h-.245v.259h.245v-.26Z" opacity=".8"/><path d="M20.68 28.93h-.239v.253h.24v-.253Z" opacity=".65"/><path d="M21.524 28.93h-.243v.257h.243v-.257Z" opacity=".72"/><path d="M23.14 28.992h-.124v.133h.125v-.133Z" opacity=".83"/><path d="M24.044 28.922h-.251v.267h.252v-.267Z" opacity=".59"/><path d="M24.802 29.016h-.087v.093h.087v-.093Z" opacity=".75"/><path d="M25.627 29.031h-.057v.06h.057v-.06Z" opacity=".93"/><path d="M26.545 28.945h-.217v.23h.217v-.23Zm.799.047h-.133v.139h.133v-.139Z" opacity=".85"/><path d="M28.991 29.023h-.073v.078h.073v-.078Z" opacity=".78"/><path d="M29.875 28.969h-.168v.178h.168v-.178Z" opacity=".86"/><path d="M30.801 28.883h-.332v.352h.332v-.352Z" opacity=".74"/><path d="M7.213 29.86h-.166v.175h.166v-.176Z" opacity=".94"/><path d="M8.061 29.852h-.178v.189h.178v-.19Z" opacity=".72"/><path d="M8.859 29.898h-.093v.098h.093v-.098Z" opacity=".65"/><path d="M9.76 29.836h-.217v.229h.216v-.23Z" opacity=".55"/><path d="M10.541 29.89h-.104V30h.104v-.11Z" opacity=".92"/><path d="M11.405 29.867h-.151v.16h.15v-.16Zm.824.016h-.123v.13h.123v-.13Z" opacity=".83"/><path d="M13.074 29.875h-.133v.14h.133v-.14Z" opacity=".79"/><path d="M13.876 29.914h-.06v.063h.06v-.063Z" opacity=".87"/><path d="M14.802 29.828h-.232v.246h.232v-.246Z" opacity=".86"/><path d="M15.575 29.89h-.102V30h.102v-.108Z" opacity=".84"/><path d="M17.342 29.805h-.272v.286h.272v-.286Z" opacity=".5"/><path d="M18.136 29.852h-.183v.193h.183v-.193Z" opacity=".9"/><path d="M18.959 29.867h-.154v.163h.154v-.163Zm1.658.016h-.113v.119h.113v-.12Z" opacity=".74"/><path d="M21.412 29.938h-.021v.02h.021v-.02Z" opacity=".69"/><path d="M22.266 29.914h-.055v.058h.055v-.058Z" opacity=".67"/><path d="M23.994 29.867h-.154v.162h.154v-.162Z" opacity=".76"/><path d="M24.855 29.844h-.19v.201h.19v-.201Z" opacity=".8"/><path d="M26.496 29.883h-.125v.133h.125v-.133Z" opacity=".86"/><path d="M27.314 29.906h-.076v.081h.076v-.08Z" opacity=".94"/><path d="M28.218 29.836h-.206v.218h.206v-.218Z" opacity=".74"/><path d="M29.97 29.758h-.357v.376h.357v-.376Z" opacity=".64"/><path d="M30.751 29.82h-.24v.253h.24v-.253Z" opacity=".67"/><path d="M31.484 29.938h-.023v.024h.023v-.024Z" opacity=".57"/><path d="M8.028 30.773h-.114v.122h.114v-.122Z" opacity=".71"/><path d="M8.965 30.672H8.66v.322h.305v-.322Z" opacity=".54"/><path d="M10.534 30.79h-.089v.094h.089v-.095Z" opacity=".78"/><path d="M11.436 30.719h-.213v.225h.213v-.225Z" opacity=".69"/><path d="M12.29 30.703h-.243v.256h.242v-.256Z" opacity=".57"/><path d="M13.919 30.758h-.15v.158h.15v-.158Z" opacity=".89"/><path d="M14.832 30.68h-.293v.31h.293v-.31Z" opacity=".92"/><path d="M15.586 30.773h-.117v.124h.117v-.124Z" opacity=".86"/><path d="M16.396 30.805h-.064v.068h.064v-.068Z" opacity=".89"/><path d="M17.232 30.805h-.052v.055h.052v-.055Z" opacity=".77"/><path d="M18.085 30.79H18v.089h.085v-.09Z" opacity=".61"/><path d="M18.965 30.742h-.168v.179h.168v-.179Z" opacity=".78"/><path d="M19.76 30.797h-.073v.078h.074v-.078Z" opacity=".51"/><path d="M20.719 30.664h-.313v.33h.313v-.33Z" opacity=".59"/><path d="M21.413 30.82h-.026v.028h.026v-.028Z" opacity=".58"/><path d="M23.173 30.734h-.189v.2h.19v-.2Z" opacity=".75"/><path d="M24.014 30.734h-.186v.199h.186v-.199Z" opacity=".82"/><path d="M24.829 30.766h-.138v.145h.138v-.145Z" opacity=".5"/><path d="M25.657 30.773h-.122v.13h.122v-.13Z" opacity=".67"/><path d="M26.498 30.766h-.13v.138h.13v-.138Z" opacity=".53"/><path d="M27.362 30.742h-.17v.182h.17v-.182Z" opacity=".63"/><path d="M28.142 30.813h-.052v.054h.052v-.055Z" opacity=".56"/><path d="M29.129 30.648h-.348v.368h.348v-.368Z" opacity=".88"/><path d="M29.861 30.766h-.138v.146h.138v-.146Z" opacity=".59"/><path d="M7.16 31.695h-.05v.054h.05v-.054Z" opacity=".84"/><path d="M8.816 31.71h-.015v.016h.015v-.015Z" opacity=".59"/><path d="M9.697 31.672h-.092v.098h.092v-.098Z" opacity=".83"/><path d="M10.568 31.64h-.154v.164h.154v-.163Z" opacity=".93"/><path d="M12.287 31.602h-.236v.25h.236v-.25Zm.843-.008h-.243v.257h.244v-.257Zm.817.023h-.2v.214h.2v-.214Z" opacity=".9"/><path d="M14.823 31.578h-.276v.293h.276v-.293Z" opacity=".77"/><path d="M16.423 31.664h-.114v.12h.114v-.12Z" opacity=".82"/><path d="M17.223 31.703h-.04v.043h.04v-.043Z" opacity=".74"/><path d="M18.081 31.68h-.073v.077h.073v-.077Z" opacity=".6"/><path d="M18.927 31.672h-.091v.098h.091v-.098Z" opacity=".86"/><path d="M19.738 31.703h-.035v.038h.035v-.038Z" opacity=".93"/><path d="M20.652 31.625h-.183v.192h.183v-.192Z" opacity=".62"/><path d="M21.46 31.656h-.12v.128h.12v-.128Z" opacity=".55"/><path d="M22.276 31.688h-.069v.071h.069v-.072Z" opacity=".89"/><path d="M23.124 31.672h-.093v.098h.093v-.098Zm.852-.016h-.12v.128h.12v-.128Z" opacity=".66"/><path d="M24.767 31.71h-.02v.024h.02v-.023Z" opacity=".9"/><path d="M25.692 31.625H25.5v.203h.192v-.203Z" opacity=".79"/><path d="M26.509 31.648h-.142v.15h.142v-.15Z" opacity=".69"/><path d="M27.306 31.688h-.06v.062h.06v-.063Z" opacity=".79"/><path d="M28.145 31.695h-.055v.058h.055v-.058Z" opacity=".59"/><path d="M29.875 31.633h-.172v.183h.172v-.183Z" opacity=".74"/><path d="M30.71 31.64h-.155v.164h.155v-.163Z" opacity=".85"/><path d="M8.054 32.523h-.167v.177h.167v-.177Z" opacity=".55"/><path d="M8.967 32.445H8.66v.325h.307v-.325Z" opacity=".57"/><path d="M9.855 32.398h-.41v.433h.41v-.433Z" opacity=".71"/><path d="M10.53 32.57h-.08v.086h.08v-.086Z" opacity=".63"/><path d="M11.385 32.547h-.115v.123h.115v-.123Z" opacity=".5"/><path d="M12.201 32.578h-.068v.072h.068v-.072Z" opacity=".73"/><path d="M13.036 32.578h-.06v.063h.06v-.063Zm.834.008h-.05v.053h.05v-.053Z" opacity=".77"/><path d="M14.84 32.445h-.305v.324h.305v-.324Z" opacity=".51"/><path d="M15.709 32.414h-.37v.39h.37v-.39Z" opacity=".64"/><path d="M16.452 32.523h-.17v.18h.17v-.18Z" opacity=".84"/><path d="M17.237 32.578h-.065v.069h.065v-.069Z" opacity=".7"/><path d="M18.1 32.547h-.116v.123h.116v-.123Z" opacity=".58"/><path d="M18.91 32.578h-.062v.067h.062v-.067Z" opacity=".5"/><path d="M19.753 32.578h-.066v.069h.066v-.069Z" opacity=".75"/><path d="M20.603 32.57h-.084v.089h.084v-.089Z" opacity=".54"/><path d="M21.474 32.531h-.146v.156h.146v-.156Z" opacity=".72"/><path d="M22.288 32.555h-.1v.106h.1v-.106Z" opacity=".69"/><path d="M23.14 32.547h-.124v.131h.123v-.131Z" opacity=".51"/><path d="M24.11 32.414h-.38v.403h.38v-.403Z" opacity=".5"/><path d="M24.8 32.563h-.09v.094h.09v-.094Z" opacity=".63"/><path d="M25.693 32.508h-.197v.209h.197v-.21Z" opacity=".59"/><path d="M26.495 32.547h-.12v.128h.12v-.128Z" opacity=".61"/><path d="M27.294 32.594h-.036v.04h.036v-.04Z" opacity=".52"/><path d="M28.197 32.523h-.162v.171h.162v-.17Z" opacity=".86"/><path d="M29.104 32.453h-.3v.317h.3v-.317Z" opacity=".94"/><path d="M29.86 32.54h-.133v.14h.132v-.14Z" opacity=".51"/><path d="M30.706 32.54h-.143v.15h.143v-.15Z" opacity=".55"/><path d="M31.55 32.523h-.16v.168h.16v-.168Z" opacity=".74"/><path d="M7.247 33.375h-.231v.245h.231v-.245Z" opacity=".6"/><path d="M8.06 33.406h-.173v.185h.174v-.185Z" opacity=".58"/><path d="M8.863 33.445h-.105v.112h.105v-.112Z" opacity=".75"/><path d="M9.684 33.46h-.067v.071h.067v-.07Z" opacity=".71"/><path d="M10.508 33.477h-.035v.038h.035v-.038Z" opacity=".67"/><path d="M11.46 33.36h-.26v.275h.26v-.276Zm1.612.07h-.127v.134h.127v-.134Z" opacity=".89"/><path d="M13.912 33.43h-.13v.138h.13v-.138Z" opacity=".52"/><path d="M15.602 33.414h-.153v.16h.153v-.16Z" opacity=".86"/><path d="M16.452 33.406h-.179v.19h.179v-.19Z" opacity=".89"/><path d="M17.296 33.398h-.183v.192h.183v-.192Z" opacity=".9"/><path d="M18.074 33.46h-.062v.066h.062v-.065Z" opacity=".72"/><path d="M18.988 33.39h-.21v.223h.21v-.222Z" opacity=".87"/><path d="M19.741 33.477h-.038v.04h.038v-.04Z" opacity=".56"/><path d="M20.69 33.367h-.256v.27h.256v-.27Z" opacity=".75"/><path d="M21.537 33.36h-.271v.288h.271v-.289Z" opacity=".7"/><path d="M22.35 33.383h-.217v.23h.218v-.23Z" opacity=".79"/><path d="M23.159 33.414H23v.166h.159v-.166Z" opacity=".78"/><path d="M23.939 33.477h-.044v.047h.044v-.047Z" opacity=".82"/><path d="M24.824 33.43h-.133v.14h.133v-.14Z" opacity=".93"/><path d="M25.62 33.477h-.046v.048h.046v-.048Z" opacity=".73"/><path d="M27.355 33.414h-.16v.17h.16v-.17Z" opacity=".91"/><path d="M28.258 33.352h-.285v.301h.285v-.301Z" opacity=".65"/><path d="M28.992 33.46h-.078v.083h.078v-.082Z" opacity=".8"/><path d="M29.815 33.477h-.042v.044h.042v-.044Z" opacity=".57"/><path d="M31.496 33.469h-.05v.053h.05v-.053Z" opacity=".62"/><path d="M7.201 34.313h-.138v.147H7.2v-.148Z" opacity=".6"/><path d="M8.078 34.273h-.21v.223h.21v-.223Z" opacity=".59"/><path d="M8.824 34.375h-.027v.029h.027v-.029Z" opacity=".72"/><path d="M9.673 34.367H9.63v.047h.044v-.047Z" opacity=".89"/><path d="M10.52 34.352h-.067v.07h.067v-.07Z" opacity=".82"/><path d="M11.415 34.297h-.173v.181h.172v-.181Z" opacity=".72"/><path d="M12.33 34.219h-.322v.34h.322v-.34Z" opacity=".53"/><path d="M13.076 34.313h-.139v.146h.14v-.147Z" opacity=".81"/><path d="M13.907 34.32h-.122v.13h.122v-.13Z" opacity=".94"/><path d="M14.705 34.367h-.04v.043h.04v-.043Z" opacity=".83"/><path d="M15.629 34.281h-.203v.215h.203v-.215Z" opacity=".66"/><path d="M16.442 34.305h-.157v.166h.157v-.166Z" opacity=".64"/><path d="M17.308 34.273h-.21v.223h.21v-.223Z" opacity=".93"/><path d="M18.97 34.297h-.173v.184h.174v-.184Z" opacity=".89"/><path d="M19.887 34.21h-.332v.353h.332v-.352Z" opacity=".78"/><path d="M20.586 34.36h-.055v.057h.055v-.058Z" opacity=".92"/><path d="M21.42 34.367h-.037v.038h.036v-.038Z" opacity=".79"/><path d="M22.314 34.313h-.146v.154h.146v-.154Z" opacity=".77"/><path d="M23.976 34.32h-.12v.127h.12v-.127Z" opacity=".54"/><path d="M24.834 34.305h-.15v.16h.15v-.16Z" opacity=".77"/><path d="M25.713 34.266h-.229v.242h.23v-.242Z" opacity=".92"/><path d="M26.475 34.344h-.08v.085h.08v-.085Z" opacity=".76"/><path d="M27.42 34.234h-.287v.304h.287v-.304Z" opacity=".92"/><path d="M28.215 34.281h-.2v.212h.2v-.212Z" opacity=".78"/><path d="M29.034 34.305h-.159v.167h.159v-.167Z" opacity=".55"/><path d="M29.812 34.367h-.035v.038h.035v-.038Z" opacity=".7"/><path d="M30.703 34.313h-.144v.154h.144v-.154Z" opacity=".91"/><path d="M31.532 34.328h-.118v.124h.117v-.124Z" opacity=".73"/><path d="M7.146 35.258h-.029v.03h.03v-.03Z" opacity=".69"/><path d="M8.095 35.148h-.247v.261h.247v-.26Z" opacity=".52"/><path d="M9.695 35.227h-.09v.094h.09v-.094Z" opacity=".64"/><path d="M10.613 35.14h-.25v.264h.25v-.263Z" opacity=".69"/><path d="M12.298 35.14h-.259v.275h.26v-.274Z" opacity=".72"/><path d="M13.229 35.04h-.444v.467h.444v-.468Z" opacity=".7"/><path d="M13.998 35.117h-.307v.325h.307v-.325Z" opacity=".73"/><path d="M14.76 35.195h-.15v.16h.15v-.16Z" opacity=".5"/><path d="M15.552 35.25H15.5v.055h.052v-.055Z" opacity=".78"/><path d="M16.43 35.203h-.133v.14h.133v-.14Z" opacity=".91"/><path d="M17.275 35.195h-.146v.156h.146v-.156Z" opacity=".62"/><path d="M18.092 35.227h-.096v.102h.096v-.102Z" opacity=".73"/><path d="M18.972 35.18h-.183v.195h.183v-.195Z" opacity=".69"/><path d="M19.854 35.14h-.264v.28h.264v-.28Z" opacity=".83"/><path d="M20.592 35.242h-.06v.064h.06v-.064Z" opacity=".72"/><path d="M21.548 35.117h-.294v.311h.294v-.31Z" opacity=".94"/><path d="M22.354 35.156h-.229v.243h.229v-.243Z" opacity=".93"/><path d="M23.147 35.203h-.135v.143h.135v-.143Z" opacity=".55"/><path d="M24.81 35.219h-.103v.108h.102v-.108Z" opacity=".9"/><path d="M25.643 35.227h-.088v.094h.088v-.094Z" opacity=".78"/><path d="M27.372 35.172h-.196v.207h.197v-.207Z" opacity=".62"/><path d="M28.18 35.203h-.133v.14h.133v-.14Z" opacity=".67"/><path d="M29.035 35.188h-.16v.169h.16v-.17Z" opacity=".62"/><path d="M29.881 35.18h-.178v.189h.178v-.19Z" opacity=".72"/><path d="M30.733 35.164h-.202v.213h.202v-.213Z" opacity=".64"/><path d="M31.541 35.203h-.139v.146h.14v-.146Z" opacity=".78"/><path d="M7.173 36.125h-.08v.084h.08v-.084Z" opacity=".72"/><path d="M8.914 36.055h-.207v.22h.207v-.22Z" opacity=".68"/><path d="M9.835 35.96h-.37v.394h.37v-.393Z" opacity=".51"/><path d="M10.605 36.04h-.23v.242h.23v-.243Z" opacity=".87"/><path d="M12.207 36.125h-.078v.082h.078v-.082Z" opacity=".85"/><path d="M13.105 36.063h-.195v.205h.195v-.206Z" opacity=".7"/><path d="M13.929 36.078h-.163v.172h.163v-.172Z" opacity=".92"/><path d="M14.779 36.063h-.19v.2h.19v-.2Z" opacity=".71"/><path d="M15.54 36.148h-.028v.03h.029v-.03Z" opacity=".62"/><path d="M17.33 36.023h-.256v.272h.256v-.272Z" opacity=".71"/><path d="M18.065 36.133h-.046v.047h.046v-.047Z" opacity=".7"/><path d="M18.943 36.102h-.119v.125h.12v-.125Z" opacity=".73"/><path d="M19.793 36.086h-.145v.154h.145v-.154Z" opacity=".88"/><path d="M20.764 35.945h-.409v.432h.41v-.432Z" opacity=".59"/><path d="M21.427 36.133h-.052v.055h.052v-.055Z" opacity=".73"/><path d="M22.253 36.148h-.023v.025h.023v-.025Z" opacity=".59"/><path d="M23.22 36.016h-.282v.297h.282v-.297Z" opacity=".51"/><path d="M24.815 36.102H24.7v.122h.116v-.122Z" opacity=".64"/><path d="M27.369 36.063h-.19v.2h.19v-.2Z" opacity=".61"/><path d="M28.158 36.117h-.084v.089h.084v-.089Z" opacity=".71"/><path d="M29.069 36.04h-.23v.242h.23v-.243Z" opacity=".86"/><path d="M29.832 36.125h-.074v.08h.075v-.08Z" opacity=".69"/><path d="M30.736 36.055h-.205v.215h.205v-.215Z" opacity=".53"/><path d="M31.543 36.086h-.14v.148h.14v-.148Z" opacity=".55"/><path d="M7.287 36.89H6.98v.324h.307v-.323Z" opacity=".54"/><path d="M8.063 36.953H7.88v.195h.184v-.195Z" opacity=".82"/><path d="M8.874 36.984h-.128v.136h.128v-.136Z" opacity=".61"/><path d="M9.665 37.031h-.032v.034h.032v-.034Z" opacity=".59"/><path d="M10.618 36.914h-.263v.276h.263v-.276Z" opacity=".63"/><path d="M11.394 36.977h-.132v.141h.132v-.141Z" opacity=".71"/><path d="M12.216 37h-.099v.105h.1V37Z" opacity=".88"/><path d="M13.11 36.938h-.208v.22h.208v-.22Z" opacity=".54"/><path d="M13.947 36.945h-.2v.214h.2v-.214Z" opacity=".81"/><path d="M14.76 36.969h-.147v.155h.147v-.155Z" opacity=".91"/><path d="M15.585 36.984h-.12v.127h.12v-.127Z" opacity=".82"/><path d="M16.415 37h-.102v.108h.102V37Z" opacity=".92"/><path d="M17.245 37.008h-.08v.085h.08v-.085Z" opacity=".52"/><path d="M18.13 36.953h-.177v.188h.177v-.188Z" opacity=".55"/><path d="M19.791 36.977h-.139v.146h.14v-.146Z" opacity=".66"/><path d="M20.6 37.008h-.077v.08h.077v-.08Z" opacity=".91"/><path d="M21.435 37.016h-.064v.067h.064v-.067Z" opacity=".56"/><path d="M22.277 37.008h-.078v.082h.078v-.082Z" opacity=".88"/><path d="M24.03 36.93h-.221v.233h.22v-.233Z" opacity=".8"/><path d="M24.811 36.992h-.108v.114h.108v-.114Z" opacity=".88"/><path d="M25.67 36.969h-.15v.16h.15v-.16Z" opacity=".77"/><path d="M26.492 36.992h-.113v.12h.113v-.12Z" opacity=".65"/><path d="M27.452 36.86h-.358v.377h.358v-.378Z" opacity=".66"/><path d="M28.165 36.992h-.102v.108h.102v-.108Z" opacity=".57"/><path d="M29.817 37.023h-.047v.05h.047v-.05Z" opacity=".91"/><path d="M30.696 36.984h-.13v.138h.13v-.138Z" opacity=".66"/><path d="M31.507 37.008h-.073v.076h.073v-.076Z" opacity=".62"/></g><path fill="#000" d="M30.74 11.93H7.809c-.883 0-1.601.718-1.601 1.6v22.935c0 .882.718 1.6 1.6 1.6h22.934c.882 0 1.602-.718 1.602-1.6V13.53c0-.883-.72-1.601-1.603-1.601Zm.764 24.535c0 .42-.343.762-.764.762H7.809a.763.763 0 0 1-.762-.762V13.53c0-.421.341-.763.762-.763H30.74c.42 0 .763.342.763.763v22.934ZM4.184 9.476a.556.556 0 0 0-.308-.306.555.555 0 0 0-.438 0 .547.547 0 0 0-.34.413.552.552 0 0 0 .154.514.547.547 0 0 0 .186.122c.035.015.07.024.107.034a.552.552 0 0 0 .428-.085.536.536 0 0 0 .157-.158.6.6 0 0 0 .096-.316.617.617 0 0 0-.044-.218h.002Zm30.387.694a.623.623 0 0 0 .206.085.546.546 0 0 0 .428-.085.572.572 0 0 0-.1-1c-.032-.015-.069-.024-.106-.034a.555.555 0 0 0-.33.034.546.546 0 0 0-.186.122.573.573 0 0 0 .086.878h.002ZM4.184 40.094a.749.749 0 0 0-.052-.098.669.669 0 0 0-.072-.087.486.486 0 0 0-.087-.07.432.432 0 0 0-.097-.052.557.557 0 0 0-.537.052.547.547 0 0 0-.24.361.576.576 0 0 0 .24.585c.03.022.064.039.1.053a.542.542 0 0 0 .435 0 .606.606 0 0 0 .185-.122.601.601 0 0 0 .168-.402.616.616 0 0 0-.044-.218v-.002Zm31.232 0a.502.502 0 0 0-.21-.255.514.514 0 0 0-.1-.052.557.557 0 0 0-.537.052.546.546 0 0 0-.24.361.554.554 0 0 0 .155.516c.026.026.055.05.087.07a.51.51 0 0 0 .098.052.511.511 0 0 0 .218.044.552.552 0 0 0 .315-.096.557.557 0 0 0 .255-.474.54.54 0 0 0-.043-.218h.002Z"/><path fill="#000" d="M36.255 13.307h.848a.42.42 0 0 0 .42-.419V8.271c0-.838-.682-1.521-1.522-1.521h-1.477V3.93a.42.42 0 0 0-.42-.419h-.814V.42a.42.42 0 0 0-.839 0v3.092h-.814a.419.419 0 0 0-.419.42V6.75h-3.493V3.93a.42.42 0 0 0-.42-.419h-.814V.42a.42.42 0 0 0-.838 0v3.092h-.814a.419.419 0 0 0-.42.42V6.75h-3.492V3.93a.42.42 0 0 0-.42-.419h-.814V.42a.42.42 0 0 0-.839 0v3.092h-.815a.419.419 0 0 0-.418.42V6.75h-3.495V3.93a.419.419 0 0 0-.419-.419h-.813V.42a.42.42 0 0 0-.839.001V3.51h-.815a.42.42 0 0 0-.419.42v2.82H7.328V3.93a.419.419 0 0 0-.42-.419h-.814V.42A.42.42 0 0 0 5.677 0c-.23 0-.42.19-.42.42v3.09h-.815a.42.42 0 0 0-.42.42v2.82H2.545c-.839 0-1.522.683-1.522 1.521v4.617c0 .232.188.42.42.42h.847a.948.948 0 0 1 0 1.895h-.847a.419.419 0 0 0-.42.419v18.756c0 .232.188.42.42.42h.806c.543 0 .987.423.988.943a.94.94 0 0 1-.277.674.941.941 0 0 1-.67.278h-.847a.419.419 0 0 0-.42.419v4.615c0 .84.683 1.523 1.522 1.523h1.477v2.82c0 .231.19.419.42.419h.814v3.092a.42.42 0 0 0 .838 0v-3.092h.815a.42.42 0 0 0 .419-.42V43.25h3.493v2.82a.42.42 0 0 0 .42.419h.813v3.092a.42.42 0 0 0 .839 0v-3.092h.814a.42.42 0 0 0 .42-.42V43.25h3.494v2.82a.42.42 0 0 0 .418.419h.814v3.092c0 .23.189.419.42.419.23 0 .419-.19.419-.42v-3.09h.815a.42.42 0 0 0 .42-.42v-2.82h3.492v2.82a.42.42 0 0 0 .42.419h.812v3.092c0 .23.19.419.42.419.23 0 .419-.19.419-.42v-3.09h.816a.42.42 0 0 0 .419-.42v-2.82h3.493v2.82a.42.42 0 0 0 .42.419h.813v3.092a.42.42 0 0 0 .839 0v-3.092h.814a.42.42 0 0 0 .42-.42V43.25H36c.405 0 .788-.158 1.076-.446.287-.289.446-.67.446-1.077v-4.615a.419.419 0 0 0-.42-.42h-.848a.95.95 0 0 1-.669-1.617.935.935 0 0 1 .67-.278h.847a.42.42 0 0 0 .42-.419V15.622a.419.419 0 0 0-.42-.42h-.806c-.543 0-.987-.423-.988-.943a.938.938 0 0 1 .277-.674.94.94 0 0 1 .67-.278ZM32.21 4.502h1.323v2.095H32.21V4.502Zm-6.799 0h1.324v2.095H25.41V4.502Zm-6.8 0h1.325v2.095H18.61V4.502Zm-6.798 0h1.325v2.095h-1.325V4.502Zm-6.798 0h1.323v2.095H5.013V4.502Zm1.323 40.996H5.013v-2.095h1.324v2.095Zm6.8 0h-1.325v-2.095h1.325v2.095Zm6.798 0H18.61v-2.095h1.325v2.095Zm6.799 0H25.41v-2.095h1.324v2.095Zm6.798 0H32.21v-2.095h1.323v2.095Zm2.765-29.457h.388v17.918h-.43c-.477 0-.925.186-1.262.523a1.774 1.774 0 0 0-.523 1.262 1.79 1.79 0 0 0 1.785 1.787h.43v4.196a.685.685 0 0 1-.684.685H2.545a.684.684 0 0 1-.683-.685v-4.196h.428c.48 0 .927-.186 1.263-.524.34-.339.524-.79.523-1.269-.003-.98-.823-1.779-1.827-1.779h-.387V16.041h.428c.478 0 .926-.186 1.263-.523a1.788 1.788 0 0 0-1.262-3.05h-.429V8.274c0-.378.306-.685.683-.685h33.456c.377 0 .684.307.684.685v4.196h-.43a1.77 1.77 0 0 0-1.262.524 1.78 1.78 0 0 0-.523 1.269c.005.982.823 1.779 1.827 1.779Z"/><path fill="#000" d="M28.03 25.413a.42.42 0 0 0 .419-.417c0-.23-.19-.42-.42-.42h-2.238v-2.212h2.238a.42.42 0 0 0 0-.838h-2.238v-1.67c0-.76-.617-1.38-1.378-1.38h-1.671V16.24a.42.42 0 0 0-.839 0v2.236h-2.212V16.24a.42.42 0 1 0-.839 0v2.236h-2.21V16.24a.419.419 0 1 0-.839 0v2.236h-1.671c-.76 0-1.378.62-1.378 1.38v1.671h-2.239a.419.419 0 0 0 0 .839h2.239v2.212h-2.239a.418.418 0 0 0 0 .837h2.239v2.212h-2.239a.419.419 0 0 0 0 .837h2.239v1.671c0 .761.619 1.38 1.378 1.38h1.673v2.237a.419.419 0 1 0 .837 0v-2.237h2.212v2.237a.42.42 0 1 0 .838 0v-2.237h2.211v2.237a.42.42 0 0 0 .839 0v-2.237h1.67a1.38 1.38 0 0 0 1.38-1.38v-1.67h2.237a.42.42 0 0 0 0-.84h-2.238v-2.212h2.238Zm-3.23 4.722a.388.388 0 0 1-.387.39H14.132a.388.388 0 0 1-.387-.39V19.856c0-.215.174-.389.387-.389h10.28c.214 0 .388.174.388.39v10.278Z"/><path fill="#000" d="M24.802 19.858v10.279a.388.388 0 0 1-.388.389h-10.28a.388.388 0 0 1-.388-.39V19.859a.39.39 0 0 1 .387-.39h10.281c.214 0 .387.175.387.39Z"/><path fill="#fff" d="M16.863 24.81v.315h-.914v-.315h.914Zm-.706-.363h.42v1.413c0 .038.006.069.019.09a.094.094 0 0 0 .05.044.262.262 0 0 0 .134.006l.046-.007.066.312c-.022.006-.05.014-.089.023a.802.802 0 0 1-.139.017.604.604 0 0 1-.265-.041.368.368 0 0 1-.177-.143.454.454 0 0 1-.062-.247v-1.469l-.003.002Zm2.326.514a.468.468 0 0 0-.058-.128.395.395 0 0 0-.213-.154.523.523 0 0 0-.423.055.504.504 0 0 0-.181.224.892.892 0 0 0-.066.359c0 .141.022.26.064.36a.507.507 0 0 0 .182.225.49.49 0 0 0 .277.078c.096 0 .18-.017.249-.052a.379.379 0 0 0 .158-.146.436.436 0 0 0 .055-.225l.087.013h-.521v-.322h.845v.255a.88.88 0 0 1-.113.457.767.767 0 0 1-.31.294.96.96 0 0 1-.451.104.983.983 0 0 1-.499-.125.866.866 0 0 1-.335-.358 1.198 1.198 0 0 1-.12-.552c0-.163.024-.31.071-.44a.928.928 0 0 1 .201-.327.875.875 0 0 1 .3-.205.962.962 0 0 1 .373-.07c.114 0 .22.017.32.05a.79.79 0 0 1 .45.355.794.794 0 0 1 .094.275h-.436Zm.775 1.364v-2.02h.797a.82.82 0 0 1 .392.087c.108.058.19.138.247.242a.73.73 0 0 1 .085.355.708.708 0 0 1-.087.355.596.596 0 0 1-.251.24.86.86 0 0 1-.396.085h-.508v-.343h.439a.43.43 0 0 0 .204-.043.275.275 0 0 0 .12-.118.37.37 0 0 0 .04-.177.387.387 0 0 0-.04-.177.272.272 0 0 0-.12-.117.447.447 0 0 0-.206-.043h-.288v1.67h-.427l-.001.004Zm3.045-2.02h.427v1.312a.709.709 0 0 1-.105.388.709.709 0 0 1-.293.257.99.99 0 0 1-.439.093.982.982 0 0 1-.44-.093.709.709 0 0 1-.293-.257.709.709 0 0 1-.105-.388v-1.312h.427v1.276a.378.378 0 0 0 .194.348.446.446 0 0 0 .216.051.43.43 0 0 0 .216-.052.357.357 0 0 0 .144-.141.412.412 0 0 0 .05-.206v-1.276h.001Z"/></svg>