<svg xmlns="http://www.w3.org/2000/svg" width="36" height="45" fill="none"><path fill="#000" d="M28.62 34.419a.347.347 0 0 1-.345-.346c0-.115.057-.228.161-.293l-.453.262-1.006.581-2.045 1.181-3.515 2.03-3.344 1.93.171.1a.345.345 0 0 1 .173.298v.199l3.323-1.918.038-.022h.003l.002-.004 3.472-2.004s.007-.003.008-.005l.032-.02 3.163-1.825.332-.192a.335.335 0 0 1-.171.046l.001.002Zm7.368-4.47a.325.325 0 0 0-.011-.042.372.372 0 0 0-.067-.116l-.015-.017a.408.408 0 0 0-.072-.056l-.008-.005a.343.343 0 0 0-.336.005l-3.502 2.023-.008.004-3.51 2.027-.007.004-.005.003-.006.004-.453.262-1.007.581-6.746 3.895-2.159 1.245-.173.1a.345.345 0 0 0-.172.298v4.059c0 .123.066.236.172.298l.02.01a.386.386 0 0 0 .153.036.335.335 0 0 0 .152-.035l.02-.011 3.516-2.029.032-.02.004-.004h.002l3.304-1.906.173-.1.517-.298 3.515-2.029 6.517-3.76a.347.347 0 0 0 .173-.298v-4.06a.318.318 0 0 0-.007-.067h-.006Zm-.681 3.928-13.89 8.016c-.013.008-.026.016-.037.025l-2.962 1.709v-3.265l3.324-1.918.038-.022h.003l.002-.003 3.472-2.005.008-.005.032-.018 3.163-1.826.331-.192 3.515-2.03 2.999-1.73v3.264h.002Z"/><path fill="#000" d="M17.9 44.52a.345.345 0 0 1-.172-.297v-.596l-2.96-1.709c-.012-.01-.026-.017-.039-.025l-3.515-2.029a.345.345 0 0 1 0 .596l-.173.1 3.305 1.907c.012.01.025.019.038.025l3.515 2.029.02.01c-.006-.004-.014-.007-.02-.012l.002.002Zm.344-4.654-.17-.1-5.532-3.192-1.33-.767-2.134-1.233-2.371-1.37-2.527-1.457-3.515-2.029a.342.342 0 0 0-.344 0 .347.347 0 0 0-.173.298v4.059c0 .124.065.236.173.298l6.514 3.758.479.275c.01.01.025.018.038.026l.17.098 2.83 1.632.69.398 3.304 1.907c.012.01.025.019.038.025l3.515 2.029.02.01a.273.273 0 0 0 .086.028.313.313 0 0 0 .133 0 .446.446 0 0 0 .086-.029l.02-.01a.345.345 0 0 0 .173-.299v-4.059a.342.342 0 0 0-.173-.298v.002Zm-3.516 2.027-3.516-2.029-3.477-2.006c-.01-.01-.025-.017-.038-.025l-6.86-3.956v-3.265l.077.045 5.352 3.088 1.087.628 2.601 1.5.914.529.923.532 2.594 1.498 3.343 1.928v3.265l-2.96-1.708c-.012-.01-.026-.018-.039-.026l-.001.002Z"/><path fill="#000" d="M3.836 32.353.321 30.324a.347.347 0 0 1-.173-.298c0-.122.067-.236.173-.297L17.9 19.578a.342.342 0 0 1 .344 0l3.515 2.031-.344.596-3.344-1.932-16.888 9.753 2.998 1.731-.344.596Z"/><path fill="#000" d="m21.759 21.598-.345.597 3.516 2.029.344-.598-3.515-2.028Z"/><path fill="#000" d="m25.275 23.622-.345.597 3.515 2.031.345-.597-3.515-2.031Zm3.519 2.038-.345.598 3.516 2.028.345-.597-3.516-2.028Z"/><path fill="#000" d="M18.075 40.509a.357.357 0 0 1-.173-.046l-3.515-2.029.344-.596 3.344 1.93 16.888-9.75-2.998-1.735.343-.596 3.516 2.032a.347.347 0 0 1 .172.298.347.347 0 0 1-.172.298L18.246 40.463a.353.353 0 0 1-.173.046h.002Z"/><mask id="a" width="36" height="22" x="0" y="19" maskUnits="userSpaceOnUse" style="mask-type:luminance"><path fill="#fff" d="m.668 29.727 17.265-9.883 17.89 9.883-17.772 10.287L.668 29.727Z"/></mask><g fill="#1F375B" mask="url(#a)"><path d="M17.384 19.64h-.224v.237h.224v-.236Z" opacity=".72"/><path d="M22.568 19.617h-.271v.287h.27v-.287Z" opacity=".78"/><path d="M24.063 19.602h-.301v.317h.3v-.317Z" opacity=".6"/><path d="M25.49 19.648h-.213v.226h.213v-.226Z" opacity=".76"/><path d="M26.95 19.664h-.177v.189h.178v-.189Z" opacity=".53"/><path d="M28.427 19.664h-.18v.19h.18v-.19Z" opacity=".69"/><path d="M29.204 19.617h-.263v.28h.264v-.28Z" opacity=".71"/><path d="M35.069 19.664h-.182v.192h.182v-.192Z" opacity=".67"/><path d="M1.146 20.43h-.22v.233h.22v-.233Z" opacity=".92"/><path d="M2.562 20.492h-.105v.11h.105v-.11Z" opacity=".76"/><path d="M3.291 20.5h-.084v.089h.084V20.5Z" opacity=".67"/><path d="M4.135 20.383h-.3v.317h.3v-.317Z" opacity=".88"/><path d="M6.314 20.422h-.236v.25h.236v-.25Zm.662.086h-.07v.073h.07v-.073Z" opacity=".87"/><path d="M7.76 20.453h-.17v.18h.17v-.18Z" opacity=".79"/><path d="M8.506 20.445H8.32v.197h.186v-.197Z" opacity=".91"/><path d="M9.916 20.516h-.053v.055h.053v-.055Z" opacity=".87"/><path d="M10.634 20.54h-.013v.013h.013v-.014Z" opacity=".8"/><path d="M11.427 20.477h-.122v.128h.122v-.128Z" opacity=".71"/><path d="M12.122 20.523h-.036v.04h.036v-.04Z" opacity=".57"/><path d="M12.882 20.5h-.077v.08h.077v-.08Z" opacity=".68"/><path d="M13.668 20.445h-.184v.195h.184v-.195Z" opacity=".91"/><path d="M14.336 20.516h-.04v.042h.04v-.042Z" opacity=".74"/><path d="M15.124 20.469h-.14v.149h.14v-.15Z" opacity=".77"/><path d="M15.857 20.477h-.134v.142h.134v-.142Z" opacity=".91"/><path d="M16.61 20.453h-.16v.17h.16v-.17Z" opacity=".71"/><path d="M17.343 20.46h-.148v.156h.148v-.155Z" opacity=".62"/><path d="M18.045 20.5h-.076v.08h.076v-.08Z" opacity=".83"/><path d="M18.77 20.508h-.055v.059h.055v-.06Z" opacity=".58"/><path d="M19.488 20.531h-.015v.018h.015v-.018Z" opacity=".55"/><path d="M20.259 20.5h-.08v.084h.08V20.5Z" opacity=".8"/><path d="M20.987 20.508h-.057v.06h.057v-.06Z" opacity=".83"/><path d="M21.717 20.516h-.041v.044h.041v-.044Z" opacity=".71"/><path d="M22.467 20.508h-.069v.071h.069v-.071Z" opacity=".59"/><path d="M23.244 20.46h-.146v.155h.146v-.154Z" opacity=".74"/><path d="M24.008 20.43h-.2v.21h.2v-.21Z" opacity=".84"/><path d="M24.712 20.477h-.13v.137h.13v-.137Z" opacity=".89"/><path d="M25.408 20.516h-.045v.046h.045v-.046Z" opacity=".79"/><path d="M26.247 20.414h-.25v.265h.25v-.265Z" opacity=".63"/><path d="M26.94 20.46h-.155v.166h.155v-.165Z" opacity=".91"/><path d="M27.702 20.43h-.206v.217h.206v-.217Z" opacity=".68"/><path d="M28.408 20.46h-.15v.161h.15v-.16Z" opacity=".53"/><path d="M29.855 20.5h-.085v.092h.085V20.5Z" opacity=".8"/><path d="M30.713 20.367h-.326v.346h.326v-.346Z" opacity=".81"/><path d="M31.32 20.508h-.066v.071h.066v-.071Z" opacity=".83"/><path d="M32.157 20.398h-.266v.282h.266v-.282Z" opacity=".51"/><path d="M32.828 20.477h-.133v.139h.133v-.14Z" opacity=".9"/><path d="M33.613 20.422h-.226v.24h.226v-.24Z" opacity=".74"/><path d="M34.308 20.46h-.144v.155h.144v-.154Z" opacity=".82"/><path d="M35.04 20.477h-.126v.133h.125v-.133Z" opacity=".57"/><path d="M35.84 20.414h-.242v.257h.242v-.257Z" opacity=".59"/><path d="M1.12 21.234H.95v.181h.17v-.18Z" opacity=".57"/><path d="M1.805 21.29h-.059v.06h.059v-.06Z" opacity=".61"/><path d="M2.593 21.234H2.43v.173h.163v-.173Z" opacity=".84"/><path d="M3.3 21.266h-.11v.114h.11v-.114Z" opacity=".69"/><path d="M4.041 21.266h-.115v.123h.115v-.123Z" opacity=".54"/><path d="M4.75 21.297h-.055v.057h.054v-.057Z" opacity=".64"/><path d="M5.547 21.234h-.168v.18h.168v-.18Z" opacity=".52"/><path d="M6.284 21.234h-.175v.184h.175v-.184Z" opacity=".57"/><path d="M7.702 21.297h-.054v.057h.054v-.057Z" opacity=".91"/><path d="M8.44 21.297h-.05v.05h.05v-.05Z" opacity=".56"/><path d="M9.262 21.203h-.219v.232h.219v-.232Z" opacity=".82"/><path d="M9.91 21.297h-.047v.05h.048v-.05Z" opacity=".58"/><path d="M11.387 21.305h-.04v.04h.04v-.04Z" opacity=".72"/><path d="M12.86 21.305h-.036v.036h.035v-.036Z" opacity=".62"/><path d="M13.625 21.273h-.094v.099h.094v-.099Z" opacity=".78"/><path d="M14.377 21.258h-.127v.134h.127v-.134Z" opacity=".71"/><path d="M15.117 21.258h-.125v.133h.125v-.133Z" opacity=".55"/><path d="M15.844 21.266h-.098v.103h.098v-.103Z" opacity=".65"/><path d="M16.552 21.297h-.044v.046h.044v-.046Z" opacity=".6"/><path d="M17.302 21.281h-.072v.075h.072v-.075Zm.738 0h-.071v.076h.071v-.076Z" opacity=".87"/><path d="M18.791 21.273H18.7v.097h.092v-.097Z" opacity=".92"/><path d="M19.572 21.227h-.185v.196h.185v-.196Z" opacity=".88"/><path d="M20.274 21.266h-.106v.112h.106v-.112Z" opacity=".65"/><path d="M21.03 21.25h-.143v.15h.142v-.15Z" opacity=".8"/><path d="M21.715 21.305h-.04v.04h.04v-.04Z" opacity=".89"/><path d="M22.45 21.305h-.032v.033h.032v-.033Z" opacity=".52"/><path d="M23.315 21.172h-.284v.301h.284v-.301Z" opacity=".63"/><path d="M23.948 21.273h-.08v.086h.08v-.086Z" opacity=".76"/><path d="M24.74 21.227h-.181v.19h.18v-.19Z" opacity=".53"/><path d="M25.504 21.203h-.235v.249h.235v-.249Z" opacity=".94"/><path d="M26.217 21.227h-.186v.196h.186v-.196Z" opacity=".93"/><path d="M26.91 21.273h-.094v.099h.094v-.099Z" opacity=".89"/><path d="M27.626 21.297h-.056v.058h.056v-.058Z" opacity=".72"/><path d="M28.391 21.266h-.106v.11h.106v-.11Z" opacity=".67"/><path d="M29.105 21.29h-.062v.064h.062v-.065Z" opacity=".75"/><path d="M29.835 21.305h-.038v.04h.038v-.04Z" opacity=".94"/><path d="M30.632 21.234h-.163v.173h.163v-.173Z" opacity=".54"/><path d="M31.355 21.25h-.136v.144h.136v-.144Z" opacity=".8"/><path d="M32.102 21.242h-.149v.157h.15v-.157Z" opacity=".62"/><path d="M32.797 21.29h-.066v.07h.066v-.07Z" opacity=".84"/><path d="M33.523 21.297h-.043v.044h.043v-.044Z" opacity=".5"/><path d="M34.37 21.188h-.264v.28h.264v-.28Z" opacity=".75"/><path d="M34.991 21.305h-.03v.031h.03v-.031Z" opacity=".58"/><path d="M35.739 21.297h-.048v.05h.048v-.05Z" opacity=".68"/><path d="M2.546 22.07h-.07v.073h.07v-.073Z" opacity=".71"/><path d="M4.04 22.04h-.11v.118h.11v-.119Z" opacity=".85"/><path d="M5.564 22h-.197v.208h.197V22Z" opacity=".91"/><path d="M6.294 22h-.189v.2h.19V22Z" opacity=".67"/><path d="M6.966 22.078H6.91v.059h.056v-.059Z" opacity=".64"/><path d="M8.466 22.047h-.107v.112h.107v-.112Z" opacity=".6"/><path d="M9.192 22.063h-.075v.079h.075v-.08Z" opacity=".82"/><path d="M9.95 22.04h-.126v.132h.125v-.133Z" opacity=".56"/><path d="M10.677 22.055h-.095v.1h.095v-.1Z" opacity=".57"/><path d="M11.435 22.031h-.138v.146h.138v-.146Z" opacity=".58"/><path d="M12.146 22.055h-.084v.088h.085v-.088Z" opacity=".62"/><path d="M12.848 22.094h-.016v.017h.016v-.017Z" opacity=".92"/><path d="M13.724 21.953h-.29v.308h.29v-.308Z" opacity=".78"/><path d="M14.394 22.023h-.152v.16h.152v-.16Z" opacity=".88"/><path d="M15.815 22.078h-.05v.052h.05v-.052Z" opacity=".79"/><path d="M17.353 22.016h-.17v.179h.17v-.18Z" opacity=".69"/><path d="M18.114 21.992h-.216v.228h.216v-.228Z" opacity=".64"/><path d="M18.79 22.055h-.09v.095h.09v-.095Z" opacity=".8"/><path d="M19.621 21.96h-.277v.294h.277v-.293Z" opacity=".84"/><path d="M20.317 22h-.192v.203h.192V22Z" opacity=".86"/><path d="M21.082 21.969h-.25v.264h.25v-.264Z" opacity=".53"/><path d="M21.823 21.969h-.257v.272h.257v-.272Z" opacity=".78"/><path d="M22.527 22h-.187v.198h.187V22Z" opacity=".66"/><path d="M23.24 22.031h-.138v.146h.137v-.146Z" opacity=".81"/><path d="M23.926 22.086h-.031v.033h.031v-.033Z" opacity=".53"/><path d="M24.694 22.055h-.088v.093h.088v-.093Z" opacity=".93"/><path d="M25.44 22.04h-.112v.118h.113v-.119Z" opacity=".5"/><path d="M26.913 22.047h-.104v.11h.104v-.11Z" opacity=".91"/><path d="M27.643 22.055h-.088v.093h.088v-.093Z" opacity=".87"/><path d="M28.351 22.094h-.027v.028h.027v-.028Z" opacity=".8"/><path d="M29.093 22.086h-.034v.036h.034v-.036Z" opacity=".74"/><path d="M29.863 22.047h-.101v.108h.101v-.108Z" opacity=".86"/><path d="M30.687 21.96h-.273v.288h.273v-.287Z" opacity=".5"/><path d="M31.344 22.047h-.11v.116h.11v-.116Z" opacity=".68"/><path d="M32.84 22.023h-.153v.16h.153v-.16Z" opacity=".69"/><path d="M33.533 22.07h-.06v.064h.06v-.064Z" opacity=".88"/><path d="M34.317 22.023h-.157v.165h.157v-.165Z" opacity=".76"/><path d="M35.103 21.969h-.248v.261h.248v-.261Z" opacity=".86"/><path d="M35.752 22.063h-.076v.08h.076v-.08Z" opacity=".65"/><path d="M1.173 22.742H.898v.29h.275v-.29Z" opacity=".94"/><path d="M1.82 22.836h-.097v.101h.096v-.101Z" opacity=".59"/><path d="M2.524 22.867h-.032v.034h.032v-.034Z" opacity=".61"/><path d="M3.304 22.82H3.19v.12h.113v-.12Z" opacity=".55"/><path d="M4.056 22.805h-.138v.147h.138v-.147Zm.723.015h-.111v.118h.11v-.118Z" opacity=".59"/><path d="M5.478 22.867H5.44v.038h.037v-.038Z" opacity=".62"/><path d="M6.217 22.867h-.033v.035h.033v-.035Z" opacity=".78"/><path d="M7.052 22.766h-.224v.236h.224v-.236Z" opacity=".69"/><path d="M7.747 22.805h-.145v.153h.145v-.153Z" opacity=".6"/><path d="M8.493 22.805h-.157v.165h.157v-.165Z" opacity=".8"/><path d="M9.901 22.867H9.88v.024h.02v-.024Z" opacity=".81"/><path d="M10.684 22.813h-.121v.13h.121v-.13Zm.738.007h-.117v.124h.117v-.124Z" opacity=".51"/><path d="M13.667 22.79h-.183v.192h.183v-.193Z" opacity=".84"/><path d="M14.422 22.773h-.207v.22h.207v-.22Z" opacity=".68"/><path d="M15.225 22.703h-.342v.363h.342v-.363Z" opacity=".85"/><path d="M16.617 22.79h-.176v.186h.176v-.187Z" opacity=".81"/><path d="M17.343 22.805H17.2v.153h.144v-.153Z" opacity=".53"/><path d="M18.157 22.727h-.302v.318h.302v-.318Z" opacity=".64"/><path d="M18.851 22.773h-.21v.224h.21v-.224Z" opacity=".63"/><path d="M21.007 22.836h-.097v.103h.097v-.103Z" opacity=".87"/><path d="M21.756 22.813h-.127v.134h.127v-.134Z" opacity=".89"/><path d="M22.528 22.781h-.188v.2h.188v-.2Z" opacity=".62"/><path d="M23.2 22.852h-.06v.063h.06v-.063Z" opacity=".92"/><path d="M23.968 22.82h-.113v.12h.113v-.12Zm.732.008h-.102v.108h.101v-.108Z" opacity=".87"/><path d="M26.153 22.852h-.063v.066h.063v-.066Zm.771-.039h-.131v.139h.131v-.14Z" opacity=".51"/><path d="M27.619 22.867h-.037v.038h.037v-.038Z" opacity=".67"/><path d="M28.356 22.867h-.04v.041h.04v-.04Z" opacity=".6"/><path d="M29.125 22.828h-.102v.108h.102v-.108Z" opacity=".63"/><path d="M29.882 22.805h-.14v.147h.14v-.147Z" opacity=".53"/><path d="M31.356 22.805h-.141v.149h.14v-.15Z" opacity=".9"/><path d="M32.064 22.844h-.076v.08h.076v-.08Z" opacity=".83"/><path d="M32.818 22.828h-.103v.11h.103v-.11Z" opacity=".62"/><path d="M33.533 22.852h-.06v.063h.06v-.063Z" opacity=".88"/><path d="M34.254 22.867h-.031v.034h.031v-.034Z" opacity=".55"/><path d="M35.074 22.79h-.187v.197h.187v-.198Z" opacity=".91"/><path d="M35.78 22.813h-.136v.144h.137v-.145Z" opacity=".76"/><path d="M1.056 23.64h-.044v.047h.044v-.046Z" opacity=".87"/><path d="M3.278 23.64h-.055v.06h.055v-.06Z" opacity=".62"/><path d="M4.028 23.625h-.083v.087h.083v-.087Z" opacity=".89"/><path d="M5.474 23.648h-.02v.021h.02v-.02Z" opacity=".56"/><path d="M6.216 23.64H6.18v.04h.036v-.04Zm.9-.163h-.358v.378h.358v-.378Z" opacity=".5"/><path d="M7.684 23.656h-.016v.018h.016v-.018Z" opacity=".64"/><path d="M8.55 23.516h-.277v.293h.278v-.293Z" opacity=".86"/><path d="M9.168 23.64h-.035v.037h.035v-.036Z" opacity=".5"/><path d="M9.96 23.594h-.136v.146h.137v-.146Z" opacity=".89"/><path d="M10.704 23.586h-.15v.157h.15v-.157Z" opacity=".57"/><path d="M12.163 23.602h-.124v.13h.124v-.13Z" opacity=".73"/><path d="M12.85 23.656h-.018v.018h.018v-.018Z" opacity=".67"/><path d="M13.6 23.64h-.045v.048h.044v-.047Z" opacity=".55"/><path d="M14.332 23.648h-.027v.029h.027v-.029Z" opacity=".86"/><path d="M15.104 23.617h-.096v.102h.097v-.102Z" opacity=".52"/><path d="M15.87 23.578h-.155v.165h.155v-.165Z" opacity=".74"/><path d="M16.61 23.578h-.16v.171h.16v-.17Z" opacity=".9"/><path d="M17.34 23.586h-.14v.149h.14v-.15Z" opacity=".52"/><path d="M18.124 23.54h-.233v.245h.233v-.246Z" opacity=".54"/><path d="M18.823 23.578h-.155v.165h.155v-.165Z" opacity=".66"/><path d="M19.549 23.594h-.135v.142h.135v-.142Z" opacity=".94"/><path d="M20.237 23.648h-.03v.032h.03v-.032Z" opacity=".93"/><path d="M21.097 23.516h-.28v.296h.28v-.296Z" opacity=".67"/><path d="M21.778 23.578h-.165v.175h.165v-.175Z" opacity=".87"/><path d="M22.485 23.617h-.098v.105h.098v-.105Z" opacity=".5"/><path d="M23.225 23.61h-.108v.112h.108v-.113Z" opacity=".8"/><path d="M23.975 23.586h-.14v.149h.14v-.15Z" opacity=".6"/><path d="M24.673 23.64h-.052v.056h.052v-.055Z" opacity=".66"/><path d="M25.404 23.64h-.037v.039h.037v-.038Z" opacity=".53"/><path d="M26.172 23.617h-.094v.1h.094v-.1Z" opacity=".74"/><path d="M26.89 23.64h-.058v.06h.057v-.06Z" opacity=".76"/><path d="M27.643 23.617h-.088v.094h.088v-.094Z" opacity=".72"/><path d="M28.42 23.578h-.166v.176h.166v-.176Z" opacity=".52"/><path d="M29.896 23.578h-.162v.171h.162v-.17Z" opacity=".89"/><path d="M30.606 23.602h-.114v.122h.114v-.122Z" opacity=".93"/><path d="M31.386 23.563h-.195v.206h.195v-.206Z" opacity=".75"/><path d="M33.556 23.61h-.103v.109h.103v-.11Z" opacity=".56"/><path d="M34.302 23.602h-.122v.13h.122v-.13Z" opacity=".9"/><path d="M35.078 23.563h-.195v.206h.195v-.206Z" opacity=".56"/><path d="M35.735 23.64h-.04v.043h.04v-.042Z" opacity=".79"/><path d="M1.094 24.383H.977v.123h.117v-.123Z" opacity=".72"/><path d="M1.897 24.313h-.249v.263h.25v-.264Z" opacity=".94"/><path d="M2.618 24.336h-.216v.228h.216v-.228Z" opacity=".66"/><path d="M3.435 24.25h-.373v.393h.373v-.393Z" opacity=".79"/><path d="M4.043 24.383h-.117v.123h.117v-.123Z" opacity=".74"/><path d="M4.772 24.398h-.096v.104h.096v-.104Zm.836-.108h-.292v.308h.292v-.309Z" opacity=".56"/><path d="M6.284 24.352h-.17v.18h.17v-.18Z" opacity=".9"/><path d="M7.71 24.406h-.065v.07h.065v-.07Z" opacity=".89"/><path d="M9.272 24.313h-.249v.263h.25v-.264Z" opacity=".64"/><path d="M10.64 24.43h-.023v.023h.022v-.023Z" opacity=".84"/><path d="M12.231 24.305h-.258v.274h.258v-.274Z" opacity=".93"/><path d="M12.951 24.336h-.217v.23h.217v-.23Z" opacity=".69"/><path d="M13.594 24.43h-.031v.033h.031v-.033Z" opacity=".79"/><path d="M14.333 24.43h-.028v.03h.028v-.03Z" opacity=".74"/><path d="M15.07 24.43h-.027v.028h.027v-.028Z" opacity=".77"/><path d="M15.897 24.336h-.206v.217h.206v-.217Z" opacity=".73"/><path d="M16.655 24.313h-.257v.272h.257v-.273Z" opacity=".59"/><path d="M17.295 24.414h-.057v.06h.057v-.06Z" opacity=".8"/><path d="M18.038 24.406h-.065v.07h.065v-.07Z" opacity=".53"/><path d="M18.854 24.336h-.217v.23h.217v-.23Z" opacity=".84"/><path d="M19.503 24.422h-.038v.04h.038v-.04Z" opacity=".82"/><path d="M20.979 24.422h-.041v.044h.04v-.044Z" opacity=".69"/><path d="M21.737 24.406h-.08v.086h.08v-.086Z" opacity=".81"/><path d="M23.223 24.39h-.102v.108h.102v-.107Z" opacity=".69"/><path d="M24.033 24.313h-.252v.266h.252v-.267Z" opacity=".67"/><path d="M24.67 24.422h-.045v.046h.044v-.046Z" opacity=".52"/><path d="M25.452 24.375h-.14v.149h.14v-.149Z" opacity=".75"/><path d="M26.887 24.414h-.055v.059h.055v-.059Z" opacity=".76"/><path d="M27.627 24.414h-.057v.06h.057v-.06Z" opacity=".67"/><path d="M28.381 24.398h-.092v.097h.092v-.097Z" opacity=".94"/><path d="M29.148 24.367h-.144v.152h.144v-.152Z" opacity=".54"/><path d="M30.591 24.406h-.08v.083h.08v-.083Z" opacity=".68"/><path d="M32.048 24.422h-.044v.047h.044v-.047Z" opacity=".59"/><path d="M32.824 24.383h-.117v.123h.117v-.123Z" opacity=".94"/><path d="M33.544 24.406h-.087v.092h.087v-.092Z" opacity=".76"/><path d="M34.308 24.375h-.136v.144h.136v-.144Z" opacity=".55"/><path d="M35.145 24.266h-.34v.36h.34v-.36Z" opacity=".86"/><path d="M35.751 24.406h-.071v.076h.071v-.076Z" opacity=".84"/><path d="M1.052 25.203h-.036v.04h.036v-.04Z" opacity=".64"/><path d="M1.805 25.195h-.059v.062h.059v-.062Z" opacity=".65"/><path d="M2.626 25.11h-.231v.245h.23v-.246Z" opacity=".85"/><path d="M3.412 25.047h-.326v.345h.326v-.345Z" opacity=".68"/><path d="M4.004 25.203h-.035v.037h.035v-.037Z" opacity=".54"/><path d="M4.786 25.164h-.122v.128h.122v-.128Z" opacity=".6"/><path d="M5.479 25.203h-.042v.044h.042v-.044Z" opacity=".52"/><path d="M6.222 25.203h-.046v.048h.046v-.048Z" opacity=".83"/><path d="M7.715 25.18h-.082v.087h.082v-.087Z" opacity=".72"/><path d="M8.527 25.11h-.226v.239h.226v-.24Z" opacity=".64"/><path d="M9.275 25.094h-.252v.266h.252v-.266Z" opacity=".9"/><path d="M9.998 25.11h-.213v.224h.213v-.225Z" opacity=".78"/><path d="M11.416 25.172h-.107v.114h.107v-.114Z" opacity=".84"/><path d="M12.153 25.18h-.098v.103h.098v-.103Z" opacity=".85"/><path d="M13.61 25.188h-.063v.068h.063v-.069Z" opacity=".8"/><path d="M14.414 25.117h-.195v.206h.195v-.206Z" opacity=".64"/><path d="M15.103 25.172H15v.11h.103v-.11Z" opacity=".54"/><path d="M15.826 25.188h-.068v.07h.068v-.07Z" opacity=".65"/><path d="M16.596 25.156h-.131v.138h.131v-.138Z" opacity=".67"/><path d="M18.027 25.203h-.043v.044h.043v-.044Z" opacity=".94"/><path d="M18.769 25.203h-.046v.048h.046v-.048Z" opacity=".74"/><path d="M19.562 25.14h-.16v.17h.16v-.17Z" opacity=".69"/><path d="M20.297 25.148h-.152v.16h.152v-.16Z" opacity=".85"/><path d="M21.06 25.11h-.208v.221h.209v-.222Z" opacity=".82"/><path d="M21.727 25.188h-.063v.068h.063v-.069Z" opacity=".84"/><path d="M22.463 25.195h-.057v.06h.057v-.06Z" opacity=".64"/><path d="M23.218 25.18h-.09v.093h.09v-.093Z" opacity=".71"/><path d="M24 25.125h-.184v.195H24v-.195Z" opacity=".51"/><path d="M24.677 25.195h-.06v.064h.06v-.064Z" opacity=".7"/><path d="M25.525 25.078h-.279v.295h.279v-.295Z" opacity=".59"/><path d="M26.912 25.172h-.103v.11h.103v-.11Z" opacity=".92"/><path d="M27.62 25.203h-.042v.046h.043v-.046Z" opacity=".88"/><path d="M28.427 25.133h-.18v.19h.18v-.19Z" opacity=".94"/><path d="M29.889 25.148h-.15v.159h.15v-.159Z" opacity=".8"/><path d="M30.564 25.21h-.029v.031h.029v-.03Z" opacity=".91"/><path d="M31.337 25.18h-.099v.104h.099v-.104Z" opacity=".94"/><path d="M32.119 25.125h-.185v.197h.185v-.197Z" opacity=".69"/><path d="M32.815 25.18h-.1v.104h.1v-.104Z" opacity=".8"/><path d="M33.607 25.11h-.212v.224h.212v-.225Z" opacity=".88"/><path d="M34.33 25.133h-.182v.19h.181v-.19Z" opacity=".5"/><path d="M35.785 25.156h-.137v.145h.137v-.145Z" opacity=".84"/><path d="M1.788 25.992h-.03v.032h.03v-.032Z" opacity=".62"/><path d="M2.56 25.945h-.103v.11h.103v-.11Z" opacity=".91"/><path d="M3.264 25.992h-.03v.032h.03v-.032Zm.904-.172h-.363v.384h.363v-.384Z" opacity=".89"/><path d="M4.76 25.969h-.072v.077h.072v-.077Z" opacity=".66"/><path d="M5.533 25.93h-.142v.15h.142v-.15Z" opacity=".6"/><path d="M6.266 25.938h-.133v.14h.133v-.14Z" opacity=".69"/><path d="M6.95 25.992h-.028v.03h.028v-.03Z" opacity=".62"/><path d="M7.761 25.914H7.59v.18h.171v-.18Z" opacity=".94"/><path d="M8.474 25.945h-.122v.13h.122v-.13Z" opacity=".63"/><path d="M9.218 25.945H9.09v.137h.128v-.137Z" opacity=".81"/><path d="M9.94 25.953h-.1v.106h.1v-.106Z" opacity=".6"/><path d="M10.639 26h-.018v.019h.018V26Z" opacity=".77"/><path d="M11.38 25.992h-.025v.027h.026v-.027Z" opacity=".82"/><path d="M12.924 25.922h-.166v.176h.166v-.176Z" opacity=".91"/><path d="M13.68 25.898h-.2v.211h.2v-.21Z" opacity=".79"/><path d="M14.348 25.969h-.067v.071h.067v-.071Z" opacity=".74"/><path d="M15.148 25.906h-.187v.198h.187v-.198Z" opacity=".6"/><path d="M15.857 25.938h-.13v.137h.13v-.137Z" opacity=".78"/><path d="M16.549 25.992h-.033v.035h.033v-.035Z" opacity=".52"/><path d="M17.3 25.977h-.062v.064h.062v-.064Z" opacity=".64"/><path d="M18.035 25.969h-.066v.071h.066v-.071Z" opacity=".61"/><path d="M18.8 25.945h-.116v.124h.117v-.124Z" opacity=".9"/><path d="M19.54 25.945h-.114v.122h.114v-.122Z" opacity=".69"/><path d="M21.018 25.945h-.123v.13h.123v-.13Z" opacity=".75"/><path d="M21.789 25.906h-.187v.198h.187v-.198Z" opacity=".59"/><path d="M22.5 25.938h-.137v.144h.137v-.145Z" opacity=".78"/><path d="M23.245 25.93h-.147v.157h.147v-.157Z" opacity=".82"/><path d="M24.022 25.883h-.225v.238h.225v-.238Z" opacity=".76"/><path d="M25.427 25.96h-.087v.094h.087v-.093Z" opacity=".92"/><path d="M26.136 25.992h-.027v.029h.027v-.029Z" opacity=".77"/><path d="M26.912 25.945h-.103v.108h.103v-.108Z" opacity=".7"/><path d="M27.667 25.938h-.14v.147h.14v-.148Z" opacity=".81"/><path d="M29.175 25.898h-.206v.218h.206v-.218Z" opacity=".92"/><path d="M29.866 25.953h-.1v.105h.1v-.105Z" opacity=".6"/><path d="M30.593 25.96h-.09v.096h.09v-.095Z" opacity=".72"/><path d="M31.41 25.883h-.238v.252h.238v-.252Z" opacity=".63"/><path d="M32.048 25.984h-.044v.046h.044v-.046Z" opacity=".73"/><path d="M32.822 25.945h-.111v.118h.11v-.118Z" opacity=".71"/><path d="M33.645 25.852h-.29v.307h.29v-.307Z" opacity=".64"/><path d="M34.289 25.953h-.102v.106h.102v-.106Z" opacity=".51"/><path d="M34.99 25.992h-.033v.035h.033v-.035Z" opacity=".87"/><path d="M35.748 25.969h-.068v.071h.068v-.071Z" opacity=".71"/><path d="M1.051 26.773H1.02v.034h.031v-.034Z" opacity=".81"/><path d="M2.521 26.781h-.025v.027h.025v-.027Z" opacity=".52"/><path d="M3.307 26.727h-.116v.122h.116v-.122Z" opacity=".92"/><path d="M4.03 26.742h-.089v.095h.09v-.095Z" opacity=".82"/><path d="M4.832 26.672h-.219v.231h.219v-.231Z" opacity=".55"/><path d="M5.6 26.64h-.28v.297h.28v-.296Z" opacity=".93"/><path d="M6.318 26.656h-.236v.25h.236v-.25Z" opacity=".85"/><path d="M7.02 26.703h-.165v.175h.165v-.175Z" opacity=".87"/><path d="M7.702 26.758h-.054v.057h.054v-.057Z" opacity=".72"/><path d="M8.472 26.719h-.12v.127h.12v-.127Z" opacity=".56"/><path d="M9.17 26.766h-.037v.04h.038v-.04Z" opacity=".81"/><path d="M9.98 26.688h-.183v.194h.184v-.195Z" opacity=".73"/><path d="M12.186 26.703h-.166v.176h.166v-.176Z" opacity=".56"/><path d="M12.928 26.695h-.178v.189h.178v-.189Z" opacity=".5"/><path d="M13.649 26.719h-.141v.15h.14v-.15Z" opacity=".73"/><path d="M14.333 26.773h-.028v.03h.028v-.03Z" opacity=".79"/><path d="M15.17 26.664h-.229v.241h.229v-.24Z" opacity=".88"/><path d="M15.821 26.758h-.063v.068h.063v-.068Z" opacity=".55"/><path d="M16.618 26.695h-.18v.192h.18v-.192Z" opacity=".82"/><path d="M18.067 26.719h-.122v.128h.122v-.128Z" opacity=".75"/><path d="M18.789 26.742h-.086v.09h.086v-.09Z" opacity=".94"/><path d="M19.533 26.727h-.103v.109h.103v-.11Z" opacity=".65"/><path d="M20.259 26.742h-.08v.084h.08v-.084Z" opacity=".73"/><path d="M21 26.742h-.086v.092H21v-.092Zm1.532-.062h-.196v.207h.197v-.207Z" opacity=".78"/><path d="M23.292 26.656h-.237v.252h.237v-.252Z" opacity=".89"/><path d="M23.97 26.719h-.122v.13h.122v-.13Z" opacity=".64"/><path d="M24.7 26.734h-.102v.107h.101v-.107Z" opacity=".69"/><path d="M25.494 26.672h-.217v.23h.217v-.23Z" opacity=".84"/><path d="M26.209 26.695h-.17v.18h.17v-.18Z" opacity=".51"/><path d="M26.883 26.766h-.043v.044h.043v-.044Z" opacity=".7"/><path d="M28.366 26.758h-.053v.057h.053v-.057Z" opacity=".52"/><path d="M29.129 26.727h-.11v.115h.11v-.115Z" opacity=".61"/><path d="M29.882 26.719h-.136v.144h.136v-.144Z" opacity=".63"/><path d="M30.594 26.742h-.09v.095h.09v-.095Z" opacity=".86"/><path d="M31.347 26.727h-.113v.118h.113v-.118Z" opacity=".91"/><path d="M32.04 26.773h-.028v.03h.028v-.03Z" opacity=".62"/><path d="M32.82 26.727h-.11v.117h.11v-.117Z" opacity=".84"/><path d="M33.553 26.734h-.1v.105h.1v-.105Z" opacity=".81"/><path d="M34.254 26.773h-.031v.034h.031v-.034Z" opacity=".84"/><path d="M35.162 26.586h-.369v.391h.37v-.391Z" opacity=".79"/><path d="M35.741 26.758h-.053v.057h.053v-.057Z" opacity=".51"/><path d="M1.08 27.516H.983v.1h.095v-.1Z" opacity=".71"/><path d="M2.543 27.54h-.059v.06h.059v-.06Z" opacity=".58"/><path d="M3.26 27.555h-.026v.027h.026v-.027Z" opacity=".79"/><path d="M4.024 27.531h-.075v.08h.075v-.08Z" opacity=".64"/><path d="M4.759 27.54h-.064v.066h.064v-.067Z" opacity=".75"/><path d="M5.53 27.492h-.14v.148h.14v-.148Z" opacity=".64"/><path d="M6.253 27.516h-.105v.11h.105v-.11Z" opacity=".76"/><path d="M7.028 27.477h-.18v.191h.18v-.191Z" opacity=".91"/><path d="M7.747 27.492H7.61v.146h.138v-.146Z" opacity=".66"/><path d="M8.493 27.484h-.157v.167h.157v-.167Z" opacity=".5"/><path d="M9.945 27.508h-.113v.119h.113v-.12Z" opacity=".53"/><path d="M11.534 27.39h-.339v.36h.34v-.36Z" opacity=".8"/><path d="M12.16 27.508h-.117v.123h.117v-.123Z" opacity=".6"/><path d="M12.937 27.469h-.195v.206h.195v-.206Z" opacity=".74"/><path d="M13.597 27.547h-.034v.036h.034v-.036Z" opacity=".68"/><path d="M15.132 27.484h-.155v.165h.155v-.165Z" opacity=".64"/><path d="M15.835 27.523h-.081v.084h.08v-.084Z" opacity=".56"/><path d="M17.288 27.547h-.038v.04h.038v-.04Z" opacity=".55"/><path d="M18.036 27.54h-.063v.067h.063v-.068Z" opacity=".88"/><path d="M18.789 27.523h-.086v.092h.086v-.092Z" opacity=".51"/><path d="M19.562 27.484h-.156v.164h.156v-.164Z" opacity=".83"/><path d="M20.255 27.531h-.071v.076h.07v-.076Z" opacity=".8"/><path d="M21.066 27.453h-.214v.227h.213v-.227Z" opacity=".78"/><path d="M21.763 27.492h-.138v.146h.138v-.146Z" opacity=".77"/><path d="M22.452 27.547h-.038v.04h.038v-.04Z" opacity=".94"/><path d="M23.231 27.5h-.122v.128h.122V27.5Z" opacity=".68"/><path d="M24.044 27.422h-.27v.287h.27v-.287Z" opacity=".84"/><path d="M24.71 27.5h-.128v.135h.128V27.5Z" opacity=".92"/><path d="M25.415 27.54h-.056v.058h.056v-.059Z" opacity=".61"/><path d="M26.22 27.469h-.197v.209h.197v-.21Z" opacity=".78"/><path d="M27.68 27.484h-.16v.17h.16v-.17Z" opacity=".85"/><path d="M28.415 27.484h-.157v.165h.157v-.165Z" opacity=".78"/><path d="M29.207 27.43h-.262v.276h.262v-.276Z" opacity=".65"/><path d="M30.577 27.54h-.058v.06h.058v-.06Z" opacity=".69"/><path d="M31.461 27.383h-.352v.37h.352v-.37Z" opacity=".5"/><path d="M32.063 27.531h-.075v.08h.075v-.08Z" opacity=".76"/><path d="M32.828 27.5h-.125v.131h.125V27.5Z" opacity=".79"/><path d="M1.05 28.336h-.027v.029h.027v-.03Z" opacity=".85"/><path d="M1.872 28.25h-.196v.208h.196v-.208Z" opacity=".88"/><path d="M2.572 28.29h-.119v.124h.119v-.125Z" opacity=".63"/><path d="M3.302 28.29h-.11v.118h.11v-.119Z" opacity=".74"/><path d="M3.996 28.336h-.023v.025h.023v-.025Z" opacity=".87"/><path d="M4.75 28.32h-.055v.059h.056v-.059Z" opacity=".64"/><path d="M6.273 28.273H6.13v.154h.144v-.154Z" opacity=".83"/><path d="M7.008 28.273h-.14v.151h.14v-.15Z" opacity=".72"/><path d="M8.53 28.227h-.233v.245h.233v-.245Z" opacity=".68"/><path d="M9.246 28.25h-.191v.203h.191v-.203Z" opacity=".82"/><path d="M10.03 28.195h-.28v.297h.28v-.297Z" opacity=".92"/><path d="M10.694 28.281h-.132v.14h.132v-.14Z" opacity=".79"/><path d="M11.424 28.29h-.12v.124h.12v-.125Z" opacity=".89"/><path d="M12.219 28.227h-.235v.247h.235v-.247Z" opacity=".84"/><path d="M12.88 28.313h-.08v.084h.08v-.084Z" opacity=".77"/><path d="M13.732 28.188h-.306v.323h.306v-.323Z" opacity=".93"/><path d="M14.457 28.203h-.277v.293h.277v-.293Z" opacity=".5"/><path d="M15.077 28.32h-.046v.048h.046v-.048Z" opacity=".82"/><path d="M15.83 28.313h-.072v.076h.071v-.076Z" opacity=".86"/><path d="M16.538 28.344h-.015v.016h.015v-.016Z" opacity=".52"/><path d="M17.352 28.258h-.165v.174h.165v-.174Z" opacity=".6"/><path d="M18.16 28.188h-.312v.33h.312v-.33Z" opacity=".79"/><path d="M18.785 28.305h-.082v.087h.082v-.087Z" opacity=".94"/><path d="M19.528 28.305h-.09v.095h.09v-.095Z" opacity=".67"/><path d="M20.387 28.172h-.336v.357h.336v-.357Z" opacity=".84"/><path d="M21.03 28.273h-.143v.153h.144v-.153Z" opacity=".83"/><path d="M23.36 28.148h-.38v.401h.38v-.4Z" opacity=".52"/><path d="M23.948 28.305h-.08v.085h.08v-.085Z" opacity=".6"/><path d="M24.659 28.336h-.022v.024h.022v-.024Z" opacity=".53"/><path d="M25.468 28.258h-.163v.173h.163v-.173Z" opacity=".61"/><path d="M26.213 28.258h-.182v.193h.183v-.193Z" opacity=".51"/><path d="M26.899 28.305h-.083v.087h.083v-.087Z" opacity=".68"/><path d="M27.713 28.227h-.233v.247h.233v-.247Z" opacity=".7"/><path d="M28.355 28.328h-.035v.038h.035v-.038Z" opacity=".58"/><path d="M29.089 28.328h-.03v.032h.03v-.032Z" opacity=".88"/><path d="M29.91 28.242h-.2v.213h.2v-.213Z" opacity=".65"/><path d="M30.643 28.258h-.182v.193h.182v-.193Z" opacity=".64"/><path d="M31.342 28.297h-.108v.114h.108v-.114Z" opacity=".77"/><path d="M32.067 28.305h-.083v.087h.083v-.087Z" opacity=".71"/><path d="M32.776 28.328h-.03v.033h.03v-.033Z" opacity=".74"/><path d="M33.56 28.29h-.11v.116h.11v-.117Z" opacity=".68"/><path d="M34.26 28.328h-.041v.043h.041v-.043Z" opacity=".81"/><path d="M34.985 28.336h-.02v.022h.02v-.022Z" opacity=".59"/><path d="M35.748 28.313h-.068v.072h.068v-.073Z" opacity=".63"/><path d="M1.808 29.094h-.062v.065h.062v-.065Z" opacity=".58"/><path d="M2.58 29.063h-.135v.142h.135v-.142Z" opacity=".84"/><path d="M3.346 29.023h-.19v.203h.19v-.203Z" opacity=".67"/><path d="M4.166 28.938h-.361v.381h.361v-.381Z" opacity=".77"/><path d="M4.803 29.047h-.158v.168h.158v-.168Z" opacity=".83"/><path d="M6.986 29.078H6.89v.1h.095v-.1Z" opacity=".8"/><path d="M7.797 29h-.242v.257h.242V29Z" opacity=".83"/><path d="M8.535 29h-.242v.257h.242V29Z" opacity=".53"/><path d="M9.27 29h-.247v.262h.248V29Z" opacity=".63"/><path d="M9.96 29.055h-.14v.149h.14v-.15Z" opacity=".84"/><path d="M10.698 29.055h-.14v.147h.14v-.147Z" opacity=".93"/><path d="M11.408 29.086h-.084v.089h.084v-.09Z" opacity=".52"/><path d="M12.184 29.047h-.157v.165h.157v-.165Zm.737-.007h-.163v.172h.163v-.173Z" opacity=".92"/><path d="M13.67 29.023h-.19v.2h.19v-.2Z" opacity=".68"/><path d="M14.404 29.031h-.177v.187h.177v-.187Z" opacity=".83"/><path d="M15.147 29.023h-.19v.202h.19v-.202Z" opacity=".7"/><path d="M15.812 29.102h-.042v.046h.042v-.046Z" opacity=".61"/><path d="M16.596 29.063h-.135v.142h.135v-.142Z" opacity=".83"/><path d="M18.022 29.11h-.034v.034h.034v-.035Z" opacity=".5"/><path d="M18.77 29.102h-.051v.052h.05v-.052Z" opacity=".88"/><path d="M19.522 29.086h-.08v.086h.08v-.086Z" opacity=".75"/><path d="M20.255 29.086h-.071v.076h.07v-.076Z" opacity=".71"/><path d="M21.039 29.04h-.16v.169h.16v-.17Z" opacity=".89"/><path d="M22.5 29.055h-.137v.144h.137v-.144Z" opacity=".79"/><path d="M23.265 29.023h-.187v.198h.187v-.198Z" opacity=".55"/><path d="M23.993 29.04h-.165v.173h.165v-.174Z" opacity=".64"/><path d="M24.691 29.086h-.085v.09h.085v-.09Z" opacity=".93"/><path d="M25.506 29h-.244v.258h.244V29Z" opacity=".84"/><path d="M26.207 29.04h-.168v.178h.168v-.179Z" opacity=".59"/><path d="M26.92 29.07h-.111v.118h.11v-.118Z" opacity=".92"/><path d="M27.716 29.008h-.232v.244h.232v-.244Z" opacity=".73"/><path d="M28.432 29.023h-.19v.202h.19v-.202Z" opacity=".68"/><path d="M29.187 29.016h-.222v.234h.222v-.234Z" opacity=".56"/><path d="M29.885 29.047h-.15v.16h.15v-.16Z" opacity=".61"/><path d="M30.597 29.086h-.093v.098h.093v-.098Z" opacity=".84"/><path d="M31.353 29.063h-.126v.133h.126v-.134Z" opacity=".66"/><path d="M32.04 29.11h-.032v.033h.031v-.034Z" opacity=".54"/><path d="M33.695 28.922h-.386v.409h.386v-.41Z" opacity=".7"/><path d="M34.312 29.047h-.152v.16h.152v-.16Z" opacity=".76"/><path d="M35.018 29.086h-.084v.089h.084v-.09Z" opacity=".58"/><path d="M1.048 29.898H1.02v.03h.028v-.03Z" opacity=".74"/><path d="M1.794 29.883H1.75v.047h.044v-.047Z" opacity=".83"/><path d="M2.534 29.883h-.046v.049h.046v-.05Z" opacity=".55"/><path d="M3.334 29.813h-.178V30h.178v-.188Z" opacity=".57"/><path d="M4.1 29.79h-.233v.246H4.1v-.247Z" opacity=".67"/><path d="M4.763 29.867h-.08v.084h.08v-.084Z" opacity=".78"/><path d="M5.54 29.828h-.15v.159h.15v-.159Z" opacity=".69"/><path d="M6.99 29.86h-.103v.107h.103v-.108Z" opacity=".6"/><path d="M7.845 29.727h-.333v.351h.333v-.351Z" opacity=".51"/><path d="M8.49 29.828h-.154v.162h.154v-.162Z" opacity=".79"/><path d="M9.251 29.805h-.196v.207h.196v-.207Z" opacity=".8"/><path d="M9.91 29.89h-.039v.043h.04v-.042Z" opacity=".84"/><path d="M11.436 29.836h-.14v.147h.14v-.147Z" opacity=".5"/><path d="M12.16 29.852h-.113v.12h.112v-.12Z" opacity=".72"/><path d="M12.885 29.86h-.092v.098h.092v-.099Z" opacity=".62"/><path d="M13.733 29.742h-.307v.327h.307v-.327Z" opacity=".87"/><path d="M14.333 29.898h-.028v.03h.028v-.03Z" opacity=".62"/><path d="M15.162 29.797h-.213v.225h.213v-.225Z" opacity=".8"/><path d="M15.817 29.883h-.047v.05h.047v-.05Z" opacity=".67"/><path d="M16.574 29.86h-.086v.091h.086v-.092Z" opacity=".62"/><path d="M17.344 29.828h-.149v.159h.15v-.159Z" opacity=".63"/><path d="M18.079 29.836h-.142v.149h.142v-.15Z" opacity=".92"/><path d="M18.848 29.797h-.207v.22h.207v-.22Z" opacity=".67"/><path d="M19.594 29.79h-.219v.23h.219v-.23Z" opacity=".73"/><path d="M21.017 29.852h-.119v.126h.12v-.126Z" opacity=".52"/><path d="M21.752 29.852h-.115v.122h.115v-.122Z" opacity=".54"/><path d="M22.496 29.844h-.125v.133h.125v-.133Z" opacity=".61"/><path d="M23.223 29.86h-.106v.11h.106v-.11Z" opacity=".53"/><path d="M24.005 29.805h-.196v.207h.196v-.207Z" opacity=".7"/><path d="M24.67 29.89h-.045v.047h.044v-.046Z" opacity=".8"/><path d="M25.421 29.867h-.077v.083h.077v-.083Z" opacity=".62"/><path d="M26.169 29.86h-.09v.096h.09v-.097Z" opacity=".6"/><path d="M26.884 29.883h-.048v.05h.048v-.05Z" opacity=".85"/><path d="M27.63 29.875h-.06v.063h.06v-.063Z" opacity=".7"/><path d="M28.387 29.86h-.102v.107h.102v-.108Z" opacity=".56"/><path d="M29.114 29.867h-.083v.087h.083v-.087Z" opacity=".8"/><path d="M30.65 29.797h-.2v.212h.2v-.212Z" opacity=".7"/><path d="M31.35 29.852h-.12v.125h.12v-.125Z" opacity=".89"/><path d="M32.113 29.82h-.172v.181h.172v-.18Z" opacity=".87"/><path d="M32.867 29.797h-.21v.223h.21v-.223Z" opacity=".7"/><path d="M34.312 29.836h-.148v.157h.148v-.157Z" opacity=".78"/><path d="M35.777 29.852h-.117v.123h.117v-.123Z" opacity=".82"/><path d="M1.095 30.625H.977v.125h.118v-.125Z" opacity=".66"/><path d="M1.846 30.617h-.143v.15h.143v-.15Z" opacity=".91"/><path d="M2.575 30.625h-.122v.128h.122v-.128Z" opacity=".74"/><path d="M4.062 30.61H3.91v.16h.152v-.16Z" opacity=".66"/><path d="M4.77 30.64h-.086v.093h.087v-.092Z" opacity=".76"/><path d="M5.526 30.625h-.124v.131h.124v-.131Z" opacity=".88"/><path d="M6.283 30.602h-.17v.179h.17v-.18Z" opacity=".89"/><path d="M6.95 30.68h-.028v.03h.028v-.03Z" opacity=".8"/><path d="M7.8 30.563h-.25v.263h.25v-.264Z" opacity=".57"/><path d="M8.499 30.602h-.175v.183H8.5v-.183Z" opacity=".58"/><path d="M9.295 30.54h-.287v.303h.287v-.304Z" opacity=".92"/><path d="M9.953 30.625h-.129v.135h.129v-.135Z" opacity=".55"/><path d="M10.731 30.578h-.208v.22h.208v-.22Z" opacity=".57"/><path d="M11.48 30.57h-.222v.235h.222v-.235Z" opacity=".85"/><path d="M12.863 30.672h-.043v.046h.043v-.046Z" opacity=".72"/><path d="M13.618 30.648h-.079v.084h.08v-.084Z" opacity=".53"/><path d="M14.426 30.57h-.219v.232h.219v-.232Z" opacity=".83"/><path d="M15.137 30.602h-.164v.174h.164v-.174Z" opacity=".69"/><path d="M16.575 30.64h-.087v.093h.087v-.092Z" opacity=".54"/><path d="M17.284 30.68h-.03v.031h.03v-.031Z" opacity=".65"/><path d="M18.033 30.664h-.053v.055h.053v-.055Z" opacity=".71"/><path d="M19.623 30.54h-.283v.299h.284v-.3Z" opacity=".66"/><path d="M20.338 30.563h-.233v.247h.233v-.247Z" opacity=".62"/><path d="M21.015 30.625h-.113v.119h.113v-.119Z" opacity=".67"/><path d="M21.722 30.664h-.054v.057h.054v-.057Z" opacity=".51"/><path d="M22.573 30.547h-.276v.291h.276v-.291Z" opacity=".81"/><path d="M23.198 30.664h-.05v.052h.05v-.052Z" opacity=".82"/><path d="M24.033 30.563h-.252v.266h.252v-.267Z" opacity=".59"/><path d="M24.677 30.656h-.06v.064h.06v-.064Z" opacity=".68"/><path d="M25.454 30.617h-.142v.15h.142v-.15Z" opacity=".78"/><path d="M26.186 30.625h-.123v.13h.123v-.13Z" opacity=".65"/><path d="M26.927 30.617h-.138v.148h.138v-.148Z" opacity=".52"/><path d="M27.712 30.57h-.224v.236h.224v-.236Z" opacity=".53"/><path d="M28.356 30.672h-.032v.033h.032v-.033Zm.734 0h-.031v.033h.031v-.033Z" opacity=".92"/><path d="M29.863 30.633h-.101v.108h.101v-.108Z" opacity=".64"/><path d="M31.353 30.625h-.13v.136h.13v-.136Z" opacity=".72"/><path d="M32.121 30.594h-.184v.195h.184v-.195Z" opacity=".92"/><path d="M32.873 30.57h-.22v.233h.22v-.233Z" opacity=".81"/><path d="M33.6 30.586h-.194v.204h.194v-.204Z" opacity=".71"/><path d="M34.298 30.625h-.114v.122h.114v-.122Z" opacity=".61"/><path d="M35.04 30.625h-.126v.135h.127v-.135Z" opacity=".89"/><path d="M35.736 30.672h-.04v.043h.04v-.043Z" opacity=".67"/><path d="M1.18 31.313H.884v.315h.298v-.316Zm.61.14h-.036v.038h.036v-.038Z" opacity=".71"/><path d="M3.286 31.438h-.071v.074h.071v-.075Z" opacity=".81"/><path d="M4.012 31.445H3.96v.053h.05v-.053Z" opacity=".82"/><path d="M4.75 31.445h-.055v.057h.056v-.057Z" opacity=".57"/><path d="M5.607 31.32h-.295v.313h.295v-.313Z" opacity=".75"/><path d="M6.284 31.383h-.17v.18h.17v-.18Z" opacity=".94"/><path d="M7.039 31.367h-.203v.214h.203v-.214Z" opacity=".54"/><path d="M7.758 31.39h-.16v.172h.16v-.171Z" opacity=".78"/><path d="M8.46 31.422h-.09v.095h.089v-.095Z" opacity=".51"/><path d="M9.186 31.438h-.065v.068h.065v-.069Z" opacity=".64"/><path d="M9.906 31.453h-.035v.037h.035v-.037Z" opacity=".63"/><path d="M10.687 31.406h-.12v.127h.12v-.127Z" opacity=".5"/><path d="M11.387 31.453h-.04v.041h.04v-.04Z" opacity=".79"/><path d="M12.14 31.438h-.07v.074h.07v-.075Z" opacity=".53"/><path d="M14.39 31.398h-.144v.154h.144v-.154Zm.712.024h-.09v.095h.09v-.095Z" opacity=".6"/><path d="M16.625 31.367h-.191v.203h.191v-.203Z" opacity=".93"/><path d="M17.354 31.383h-.166v.176h.166v-.176Z" opacity=".94"/><path d="M18.114 31.36h-.216v.228h.216v-.229Z" opacity=".8"/><path d="M18.851 31.36h-.21v.223h.21v-.224Z" opacity=".65"/><path d="M19.589 31.36h-.214v.226h.214v-.227Z" opacity=".72"/><path d="M21.012 31.414h-.11v.116h.11v-.116Z" opacity=".83"/><path d="M21.808 31.352h-.222v.234h.222v-.234Z" opacity=".59"/><path d="M22.47 31.43h-.075v.08h.076v-.08Z" opacity=".75"/><path d="M23.198 31.445h-.05v.053h.05v-.053Z" opacity=".93"/><path d="M24.003 31.375h-.19v.203h.19v-.203Zm.703.031h-.116v.122h.116v-.122Z" opacity=".85"/><path d="M26.155 31.438h-.065v.068h.065v-.069Z" opacity=".78"/><path d="M26.933 31.398h-.148v.157h.148v-.157Z" opacity=".86"/><path d="M27.746 31.32h-.293v.31h.293v-.31Z" opacity=".74"/><path d="M29.125 31.414h-.102v.108h.102v-.108Z" opacity=".84"/><path d="M30.635 31.383h-.166v.176h.166v-.176Z" opacity=".57"/><path d="M31.398 31.352h-.222v.234h.222v-.234Z" opacity=".84"/><path d="M32.082 31.414h-.11v.116h.11v-.116Z" opacity=".7"/><path d="M32.773 31.46h-.02v.021h.02v-.02Z" opacity=".94"/><path d="M33.599 31.367h-.197v.208h.197v-.208Z" opacity=".75"/><path d="M34.275 31.438h-.068v.072h.068v-.073Z" opacity=".69"/><path d="M35.013 31.43h-.072v.076h.072v-.076Z" opacity=".54"/><path d="M35.766 31.414h-.102v.108h.102v-.108Z" opacity=".89"/><path d="M1.068 32.219h-.06v.063h.06v-.063Z" opacity=".9"/><path d="M1.827 32.188h-.112v.118h.112v-.118Z" opacity=".65"/><path d="M2.556 32.21h-.087v.094h.087v-.093Z" opacity=".83"/><path d="M3.331 32.164h-.163v.173h.163v-.173Z" opacity=".68"/><path d="M4.004 32.227h-.035v.036h.035v-.036Z" opacity=".65"/><path d="M4.792 32.18H4.66v.14h.132v-.14Z" opacity=".58"/><path d="M5.54 32.164h-.157v.166h.157v-.166Z" opacity=".82"/><path d="M6.274 32.172h-.141v.149h.14v-.15Z" opacity=".51"/><path d="M7.013 32.172h-.146v.155h.146v-.155Z" opacity=".94"/><path d="M7.755 32.164h-.157v.165h.157v-.165Z" opacity=".72"/><path d="M8.457 32.21h-.082v.087h.082v-.086Z" opacity=".65"/><path d="M9.245 32.156h-.19v.202h.19v-.202Z" opacity=".55"/><path d="M9.936 32.203h-.092v.097h.092v-.097Z" opacity=".92"/><path d="M10.694 32.18h-.132v.14h.132v-.14Zm.722.015h-.107v.114h.107v-.114Z" opacity=".83"/><path d="M12.16 32.188h-.117v.123h.117v-.123Z" opacity=".79"/><path d="M12.865 32.227h-.053v.055h.053v-.055Z" opacity=".87"/><path d="M13.685 32.148h-.205v.216h.205v-.216Z" opacity=".86"/><path d="M14.362 32.203h-.089v.095h.09v-.095Z" opacity=".84"/><path d="M15.911 32.125h-.24v.252h.24v-.252Z" opacity=".5"/><path d="M16.61 32.164h-.16v.171h.16v-.17Z" opacity=".9"/><path d="M17.334 32.18h-.135v.144h.135v-.144Zm1.461.023h-.1v.105h.1v-.105Z" opacity=".74"/><path d="M19.492 32.242h-.02v.02h.02v-.02Z" opacity=".69"/><path d="M20.244 32.227h-.049v.05h.05v-.05Z" opacity=".67"/><path d="M21.764 32.18h-.135v.142h.135v-.142Z" opacity=".76"/><path d="M22.518 32.164h-.166v.178h.166v-.178Z" opacity=".8"/><path d="M23.965 32.195h-.11v.118h.11v-.118Z" opacity=".86"/><path d="M24.681 32.219h-.068v.071h.068v-.071Z" opacity=".94"/><path d="M25.474 32.156h-.181v.192h.18v-.192Z" opacity=".74"/><path d="M27.02 32.086h-.313v.331h.314v-.331Z" opacity=".64"/><path d="M27.703 32.14h-.21v.224h.21v-.223Z" opacity=".67"/><path d="M28.345 32.242h-.02v.02h.02v-.02Z" opacity=".57"/><path d="M29.083 32.242h-.02v.02h.02v-.02Z" opacity=".87"/><path d="M29.842 32.219h-.065v.068h.065v-.068Z" opacity=".93"/><path d="M30.574 32.227h-.043v.044h.043v-.044Z" opacity=".82"/><path d="M31.382 32.156h-.19v.202h.19v-.202Zm.671.071h-.057v.06h.057v-.06Z" opacity=".59"/><path d="M32.807 32.203h-.092v.097h.092v-.097Z" opacity=".69"/><path d="M34.289 32.195h-.102v.106h.102v-.106Z" opacity=".64"/><path d="M35.01 32.219h-.065v.068h.065v-.068Z" opacity=".87"/><path d="M35.823 32.14h-.218v.23h.218v-.23Z" opacity=".8"/><path d="M1.088 32.977H.98v.114h.108v-.114Z" opacity=".93"/><path d="M1.843 32.96h-.14v.148h.14v-.147Z" opacity=".58"/><path d="M3.339 32.938h-.183v.191h.183v-.191Z" opacity=".53"/><path d="M4.152 32.86h-.336v.356h.336v-.357Z" opacity=".84"/><path d="M4.825 32.93H4.63v.207h.196v-.207Z" opacity=".9"/><path d="M5.518 32.969h-.116v.122h.116v-.122Z" opacity=".65"/><path d="M6.213 33.016h-.026v.025h.026v-.025Z" opacity=".66"/><path d="M7.726 32.977h-.101v.106h.101v-.106Z" opacity=".71"/><path d="M8.55 32.89h-.27v.284h.268v-.283Z" opacity=".54"/><path d="M9.93 32.992h-.078v.083h.077v-.083Z" opacity=".78"/><path d="M10.72 32.938h-.189v.2h.189v-.2Z" opacity=".69"/><path d="M11.47 32.922h-.212v.225h.212v-.225Z" opacity=".57"/><path d="M12.905 32.96h-.132v.14h.132v-.14Z" opacity=".89"/><path d="M13.706 32.898h-.257v.273h.257v-.273Z" opacity=".92"/><path d="M14.369 32.977h-.103v.109h.103v-.11Z" opacity=".86"/><path d="M15.08 33h-.057v.06h.058V33Z" opacity=".89"/><path d="M15.816 33.008h-.046v.047h.046v-.047Z" opacity=".77"/><path d="M16.567 32.992h-.075v.08h.075v-.08Z" opacity=".61"/><path d="M17.343 32.953h-.148v.157h.148v-.157Z" opacity=".78"/><path d="M18.036 33h-.063v.068h.063V33Z" opacity=".51"/><path d="M18.885 32.883h-.276v.291h.276v-.291Z" opacity=".59"/><path d="M19.495 33.023h-.022v.024h.022v-.024Z" opacity=".58"/><path d="M21.04 32.945h-.165v.176h.165v-.176Z" opacity=".75"/><path d="M21.776 32.945h-.163v.175h.163v-.175Z" opacity=".82"/><path d="M22.491 32.969h-.12v.127h.12v-.127Z" opacity=".5"/><path d="M23.225 32.977h-.108v.112h.108v-.112Z" opacity=".67"/><path d="M23.966 32.969h-.114v.122h.114v-.122Z" opacity=".53"/><path d="M24.72 32.953h-.15v.159h.15v-.159Z" opacity=".63"/><path d="M25.41 33.008h-.047v.047h.046v-.047Z" opacity=".56"/><path d="M26.275 32.867h-.306v.324h.306v-.324Z" opacity=".88"/><path d="M26.923 32.969H26.8v.128h.122v-.128Z" opacity=".59"/><path d="M29.127 32.977h-.107v.114h.107v-.114Z" opacity=".8"/><path d="M29.92 32.922h-.217v.23h.217v-.23Z" opacity=".57"/><path d="M32.053 33h-.05v.052h.05V33Z" opacity=".88"/><path d="M32.807 32.984h-.088v.094h.088v-.094Z" opacity=".79"/><path d="M34.299 32.969h-.12v.125h.12v-.125Z" opacity=".93"/><path d="M35.78 32.969h-.128v.136h.129v-.136Zm-33.22.797h-.103v.109h.103v-.11Z" opacity=".77"/><path d="M3.291 33.766h-.084v.088h.084v-.088Z" opacity=".93"/><path d="M4.004 33.797h-.035v.036h.035v-.036Z" opacity=".89"/><path d="M4.776 33.758h-.108v.112h.108v-.112Z" opacity=".88"/><path d="M6.31 33.695h-.22v.233h.22v-.233Z" opacity=".71"/><path d="M6.958 33.79h-.044v.045h.044v-.046Z" opacity=".84"/><path d="M8.424 33.805H8.41v.014h.014v-.014Z" opacity=".59"/><path d="M9.194 33.766h-.08v.085h.08v-.085Z" opacity=".83"/><path d="M9.959 33.742h-.135v.143h.135v-.143Z" opacity=".93"/><path d="M11.47 33.703h-.208v.22h.207v-.22Zm.74 0h-.214v.227h.214v-.227Zm.721.016h-.177v.187h.177v-.187Z" opacity=".9"/><path d="M13.7 33.688h-.243v.256h.242v-.257Z" opacity=".77"/><path d="M15.104 33.766h-.1v.106h.1v-.106Z" opacity=".82"/><path d="M15.812 33.79h-.035v.035h.035v-.036Z" opacity=".74"/><path d="M16.56 33.773h-.064v.069h.064v-.069Z" opacity=".6"/><path d="M17.311 33.766h-.08v.085h.08v-.085Z" opacity=".86"/><path d="M18.022 33.797h-.03v.033h.03v-.033Z" opacity=".93"/><path d="M18.824 33.727h-.16v.17h.16v-.17Z" opacity=".62"/><path d="M19.536 33.758h-.106v.112h.106v-.112Z" opacity=".55"/><path d="M20.248 33.781h-.06v.064h.06v-.064Z" opacity=".89"/><path d="M21 33.766h-.082v.085H21v-.085Zm.75-.008h-.105v.112h.106v-.112Z" opacity=".66"/><path d="M22.44 33.805h-.018v.02h.019v-.02Z" opacity=".9"/><path d="M23.256 33.727h-.17v.179h.17v-.18Z" opacity=".79"/><path d="M23.971 33.75h-.123v.132h.123v-.132Z" opacity=".69"/><path d="M24.673 33.781h-.052v.056h.052v-.056Z" opacity=".79"/><path d="M25.41 33.79h-.047v.05h.048v-.05Z" opacity=".59"/><path d="M26.937 33.734h-.152v.162h.152v-.162Z" opacity=".74"/><path d="M27.668 33.742h-.137v.144h.137v-.144Z" opacity=".85"/><path d="M29.117 33.766h-.086v.09h.086v-.09Z" opacity=".71"/><path d="M29.889 33.734h-.15v.159h.15v-.159Z" opacity=".58"/><path d="M30.576 33.781h-.053v.056h.053v-.056Z" opacity=".71"/><path d="M31.325 33.773h-.075v.08h.075v-.08Z" opacity=".75"/><path d="M32.073 33.766h-.096v.103h.096v-.103Z" opacity=".91"/><path d="M33.53 33.781h-.053v.057h.053v-.057Z" opacity=".54"/><path d="M34.305 33.75h-.125v.132h.125v-.132Z" opacity=".93"/><path d="M35.075 33.71h-.192v.204h.192v-.203Z" opacity=".52"/><path d="M35.744 33.781h-.06v.064h.06v-.064Z" opacity=".89"/><path d="M1.068 34.563h-.06v.063h.06v-.063Z" opacity=".64"/><path d="M1.807 34.555h-.065v.07h.065v-.07Z" opacity=".52"/><path d="M2.544 34.563H2.48v.066h.064v-.066Z" opacity=".72"/><path d="M4.093 34.484h-.206v.218h.206v-.218Z" opacity=".51"/><path d="M5.545 34.508H5.38v.176h.166v-.176Z" opacity=".78"/><path d="M6.23 34.563h-.058v.061h.059v-.062Z" opacity=".85"/><path d="M7.749 34.516h-.147v.155h.147v-.155Z" opacity=".55"/><path d="M8.55 34.453h-.269v.285h.27v-.285Z" opacity=".57"/><path d="M9.332 34.406h-.36v.382h.36v-.382Z" opacity=".71"/><path d="M9.927 34.555h-.072v.076h.072v-.076Z" opacity=".63"/><path d="M10.677 34.54h-.103v.107h.103v-.108Z" opacity=".5"/><path d="M11.396 34.563h-.06v.063h.06v-.063Z" opacity=".73"/><path d="M12.13 34.563h-.052v.053h.052v-.053Zm.73.007h-.044v.048h.045v-.048Z" opacity=".77"/><path d="M13.717 34.453h-.268v.284h.268v-.284Z" opacity=".51"/><path d="M14.477 34.422h-.325v.344h.325v-.344Z" opacity=".64"/><path d="M15.131 34.516h-.15v.158h.15v-.158Z" opacity=".84"/><path d="M15.819 34.563h-.057v.06h.057v-.06Z" opacity=".7"/><path d="M16.584 34.54h-.104v.107h.104v-.108Z" opacity=".58"/><path d="M17.294 34.563h-.056v.058h.056v-.059Z" opacity=".5"/><path d="M18.034 34.563h-.057v.06h.057v-.06Z" opacity=".75"/><path d="M18.78 34.555h-.073v.077h.073v-.077Z" opacity=".54"/><path d="M19.546 34.531h-.128v.136h.128v-.136Z" opacity=".72"/><path d="M20.265 34.547h-.09v.093h.09v-.093Z" opacity=".69"/><path d="M21.012 34.54h-.11v.115h.11v-.116Z" opacity=".51"/><path d="M21.862 34.414h-.335v.353h.335v-.353Z" opacity=".5"/><path d="M22.47 34.547h-.08v.084h.08v-.084Z" opacity=".63"/><path d="M23.259 34.5h-.173v.184h.173V34.5Z" opacity=".59"/><path d="M23.962 34.54h-.107v.112h.107v-.113Z" opacity=".61"/><path d="M24.665 34.578h-.032v.035h.032v-.035Z" opacity=".52"/><path d="M25.454 34.516h-.142v.15h.142v-.15Z" opacity=".86"/><path d="M26.255 34.453h-.263v.28h.263v-.28Z" opacity=".94"/><path d="M26.922 34.54h-.117v.123h.117v-.124Z" opacity=".51"/><path d="M27.66 34.531h-.125v.133h.125v-.133Z" opacity=".55"/><path d="M28.405 34.523h-.14v.148h.14v-.148Z" opacity=".74"/><path d="M29.883 34.516h-.145v.152h.145v-.152Z" opacity=".84"/><path d="M30.66 34.477h-.223v.233h.222v-.233Z" opacity=".77"/><path d="M31.313 34.57h-.047v.05h.047v-.05Z" opacity=".73"/><path d="M32.12 34.5h-.182v.192h.182V34.5Z" opacity=".58"/><path d="M32.791 34.563h-.057v.061h.057v-.062Z" opacity=".54"/><path d="M33.54 34.547h-.08v.082h.08v-.082Z" opacity=".51"/><path d="M34.31 34.516h-.142v.15h.143v-.15Z" opacity=".75"/><path d="M35.764 34.54h-.1v.105h.1v-.106Z" opacity=".61"/><path d="M1.158 35.242H.914v.259h.244v-.259Z" opacity=".79"/><path d="M1.854 35.29h-.167v.177h.167v-.178Z" opacity=".5"/><path d="M2.598 35.281h-.176v.186h.176v-.186Z" opacity=".8"/><path d="M3.287 35.336h-.076v.08h.076v-.08Z" opacity=".86"/><path d="M4.115 35.242h-.256v.27h.256v-.27Z" opacity=".54"/><path d="M4.827 35.266h-.206v.217h.206v-.217Z" opacity=".73"/><path d="M5.483 35.36H5.44v.042h.042v-.043Z" opacity=".9"/><path d="M6.244 35.328H6.16v.089h.084v-.089Z" opacity=".87"/><path d="M7.04 35.266h-.204v.215h.204v-.215Z" opacity=".6"/><path d="M7.751 35.297h-.153v.162h.153v-.162Z" opacity=".58"/><path d="M8.46 35.32h-.093v.099h.094v-.099Z" opacity=".75"/><path d="M9.18 35.344h-.06v.062h.059v-.062Z" opacity=".71"/><path d="M9.907 35.36h-.032v.033h.032v-.034Z" opacity=".67"/><path d="M10.744 35.25h-.228v.242h.228v-.242Zm1.414.063h-.111v.117h.11v-.117Z" opacity=".89"/><path d="M12.895 35.313h-.114v.121h.114v-.121Z" opacity=".52"/><path d="M14.383 35.305h-.133v.14h.133v-.14Z" opacity=".86"/><path d="M15.133 35.297h-.156v.166h.156v-.166Z" opacity=".89"/><path d="M15.871 35.29h-.16v.169h.16v-.17Z" opacity=".9"/><path d="M16.56 35.344h-.056v.058h.055v-.058Z" opacity=".72"/><path d="M17.36 35.273h-.184v.195h.184v-.195Z" opacity=".87"/><path d="M18.022 35.36h-.034v.034h.034v-.035Z" opacity=".56"/><path d="M18.858 35.25h-.225v.238h.225v-.238Z" opacity=".75"/><path d="M19.603 35.242h-.24v.254h.24v-.254Z" opacity=".7"/><path d="M20.317 35.273h-.192v.203h.192v-.203Z" opacity=".79"/><path d="M21.026 35.305h-.14v.147h.14v-.147Z" opacity=".78"/><path d="M21.715 35.36h-.04v.04h.04v-.04Z" opacity=".82"/><path d="M22.492 35.305h-.117v.123h.117v-.123Z" opacity=".93"/><path d="M23.194 35.36h-.042v.042h.042v-.043Z" opacity=".73"/><path d="M24.715 35.305h-.14v.149h.14v-.15Z" opacity=".91"/><path d="M25.508 35.242h-.25v.265h.25v-.265Z" opacity=".65"/><path d="M26.154 35.336h-.068v.071h.068v-.071Z" opacity=".8"/><path d="M26.88 35.36h-.036v.039h.036v-.04Z" opacity=".57"/><path d="M28.36 35.352h-.044v.046h.045v-.046Z" opacity=".62"/><path d="M29.2 35.242h-.25v.265h.25v-.265Z" opacity=".5"/><path d="M29.936 35.242h-.248v.263h.248v-.263Z" opacity=".67"/><path d="M31.32 35.344h-.062v.066h.062v-.066Z" opacity=".68"/><path d="M32.055 35.344h-.059v.062h.059v-.062Z" opacity=".7"/><path d="M32.796 35.344h-.062v.065h.062v-.065Z" opacity=".83"/><path d="M33.542 35.328h-.081v.086h.08v-.086Z" opacity=".92"/><path d="M34.307 35.305h-.139v.147h.14v-.147Z" opacity=".78"/><path d="M35.058 35.29h-.163v.173h.163v-.174Z" opacity=".71"/><path d="M35.735 35.36h-.04v.042h.04v-.043Z" opacity=".58"/><path d="M1.053 36.14h-.041v.045h.04v-.044Z" opacity=".9"/><path d="M1.888 36.031h-.236v.25h.236v-.25Z" opacity=".76"/><path d="M2.58 36.078h-.143v.15h.143v-.15Z" opacity=".53"/><path d="M3.283 36.117h-.068v.072h.068v-.072Z" opacity=".62"/><path d="M4.17 35.953h-.373v.395h.374v-.395Z" opacity=".82"/><path d="M4.799 36.078h-.15v.16h.15v-.16Z" opacity=".79"/><path d="M5.49 36.125h-.056v.06h.057v-.06Z" opacity=".74"/><path d="M6.226 36.133h-.05v.052h.05v-.052Z" opacity=".58"/><path d="M6.997 36.086h-.122v.13h.122v-.13Z" opacity=".6"/><path d="M7.767 36.055h-.185v.196h.185v-.196Z" opacity=".59"/><path d="M8.426 36.14h-.024v.026h.024v-.025Z" opacity=".72"/><path d="M9.172 36.14h-.04v.042h.04v-.041Z" opacity=".89"/><path d="M9.918 36.125h-.059v.062h.059v-.062Z" opacity=".82"/><path d="M10.701 36.078h-.15v.16h.15v-.16Z" opacity=".72"/><path d="M11.505 36.008h-.282v.3h.282v-.3Z" opacity=".53"/><path d="M12.161 36.086h-.122v.128h.122v-.128Z" opacity=".81"/><path d="M12.893 36.094h-.108v.114h.108v-.114Z" opacity=".94"/><path d="M13.597 36.14h-.034v.039h.034v-.038Z" opacity=".83"/><path d="M14.406 36.063h-.18v.188h.18v-.188Z" opacity=".66"/><path d="M15.122 36.078h-.138v.147h.138v-.147Z" opacity=".64"/><path d="M15.885 36.055h-.186v.196h.186v-.196Z" opacity=".93"/><path d="M17.344 36.078h-.153v.162h.153v-.162Z" opacity=".89"/><path d="M18.151 36h-.292v.309h.292V36Z" opacity=".78"/><path d="M18.768 36.133h-.05v.05h.05v-.05Z" opacity=".92"/><path d="M19.5 36.14h-.031v.034h.031v-.033Z" opacity=".79"/><path d="M20.285 36.086h-.129v.135h.129v-.135Z" opacity=".77"/><path d="M21.75 36.094h-.105v.11h.106v-.11Z" opacity=".54"/><path d="M22.5 36.078h-.133v.141h.133v-.14Z" opacity=".77"/><path d="M23.272 36.047h-.202v.212h.202v-.212Z" opacity=".92"/><path d="M23.942 36.117h-.07v.075h.07v-.075Z" opacity=".76"/><path d="M24.771 36.023h-.252v.267h.253v-.267Z" opacity=".92"/><path d="M25.473 36.063h-.176v.185h.176v-.185Z" opacity=".78"/><path d="M26.19 36.078h-.14v.147h.14v-.147Z" opacity=".55"/><path d="M26.878 36.14h-.03v.034h.03v-.033Z" opacity=".7"/><path d="M27.663 36.086h-.128v.135h.128v-.135Z" opacity=".91"/><path d="M28.388 36.102h-.103v.109h.103v-.11Z" opacity=".73"/><path d="M29.151 36.078h-.155v.165h.155v-.165Z" opacity=".86"/><path d="M29.899 36.063h-.176v.185h.176v-.185Z" opacity=".89"/><path d="M30.572 36.133h-.045v.047h.045v-.047Z" opacity=".88"/><path d="M31.376 36.063h-.173v.182h.173v-.182Z" opacity=".9"/><path d="M32.195 35.977h-.336v.355h.336v-.355Z" opacity=".94"/><path d="M32.801 36.117h-.074v.08h.074v-.08Z" opacity=".84"/><path d="M33.53 36.125h-.053v.057h.053v-.057Z" opacity=".5"/><path d="M34.374 36.008h-.272v.288h.272v-.288Z" opacity=".75"/><path d="M35.793 36.078h-.152v.16h.152v-.16Z" opacity=".93"/><path d="M1.084 36.883h-.1v.106h.1v-.106Z" opacity=".66"/><path d="M1.843 36.86h-.136v.144h.136v-.145Z" opacity=".8"/><path d="M2.541 36.906h-.057v.06h.057v-.06Z" opacity=".67"/><path d="M3.262 36.914H3.23v.033h.032v-.033Zm.868-.133h-.286v.303h.287v-.303Z" opacity=".86"/><path d="M4.748 36.906H4.7v.051h.05v-.05Z" opacity=".64"/><path d="M5.51 36.883h-.1v.104h.1v-.104Z" opacity=".83"/><path d="M6.258 36.875H6.14v.124h.117v-.124Z" opacity=".56"/><path d="M6.951 36.922h-.025v.027h.025v-.027Z" opacity=".69"/><path d="M7.784 36.82h-.218v.23h.218v-.23Z" opacity=".52"/><path d="M9.193 36.898h-.08v.084h.08v-.084Z" opacity=".64"/><path d="M10 36.82h-.219v.233H10v-.233Z" opacity=".69"/><path d="M11.482 36.813h-.228v.24h.228v-.24Z" opacity=".72"/><path d="M12.3 36.727h-.39v.412h.39v-.412Z" opacity=".7"/><path d="M12.976 36.79h-.269v.284h.27v-.285Z" opacity=".73"/><path d="M13.645 36.867h-.133v.141h.133v-.14Z" opacity=".5"/><path d="M14.339 36.906h-.046v.048h.046v-.048Z" opacity=".78"/><path d="M15.113 36.875h-.117v.124h.117v-.124Z" opacity=".91"/><path d="M15.855 36.867h-.128v.137h.128v-.137Z" opacity=".62"/><path d="M16.572 36.89h-.084v.09h.084v-.09Z" opacity=".73"/><path d="M17.35 36.844h-.163v.17h.162v-.17Z" opacity=".69"/><path d="M18.122 36.813h-.231v.245h.231v-.245Z" opacity=".83"/><path d="M18.769 36.906h-.054v.057h.054v-.057Z" opacity=".72"/><path d="M19.61 36.797h-.258v.273h.258v-.273Z" opacity=".94"/><path d="M20.319 36.828h-.202v.214h.201v-.214Z" opacity=".93"/><path d="M21.017 36.875h-.119V37h.12v-.125Z" opacity=".55"/><path d="M22.481 36.89h-.09v.096h.09v-.095Z" opacity=".9"/><path d="M23.207 36.898h-.078v.083h.078v-.083Z" opacity=".78"/><path d="M24.735 36.844h-.172v.182h.172v-.182Z" opacity=".62"/><path d="M25.444 36.875h-.116v.124h.116v-.124Z" opacity=".67"/><path d="M26.192 36.86h-.141v.148h.14v-.149Z" opacity=".62"/><path d="M26.942 36.852h-.157v.164h.157v-.164Z" opacity=".72"/><path d="M27.69 36.844h-.178v.187h.177v-.187Z" opacity=".64"/><path d="M28.395 36.867h-.122v.129h.122v-.129Z" opacity=".78"/><path d="M29.126 36.883h-.107v.112h.107v-.112Z" opacity=".74"/><path d="M29.843 36.906h-.062v.065h.062v-.065Z" opacity=".5"/><path d="M30.626 36.852h-.157v.166h.157v-.166Z" opacity=".74"/><path d="M31.304 36.914h-.03v.032h.03v-.032Z" opacity=".85"/><path d="M32.07 36.89h-.09v.096h.09v-.095Z" opacity=".68"/><path d="M32.963 36.727h-.397v.42h.397v-.42Z" opacity=".53"/><path d="M33.516 36.914h-.032v.033h.032v-.033Z" opacity=".77"/><path d="M34.263 36.906h-.044v.048h.044v-.048Z" opacity=".81"/><path d="M35.076 36.836h-.193v.204h.193v-.204Z" opacity=".87"/><path d="M35.794 36.852h-.157v.164h.157v-.164Z" opacity=".61"/><path d="M1.066 37.68h-.062v.066h.062v-.066Z" opacity=".69"/><path d="M1.815 37.672h-.088v.095h.088v-.095Z" opacity=".74"/><path d="M2.529 37.695h-.037v.04h.037v-.04Z" opacity=".61"/><path d="M3.334 37.625H3.16v.184h.174v-.184Z" opacity=".79"/><path d="M4.805 37.625h-.164v.174h.164v-.174Z" opacity=".55"/><path d="M5.547 37.625h-.168v.178h.168v-.178Z" opacity=".53"/><path d="M6.251 37.664h-.103v.108h.103v-.108Z" opacity=".81"/><path d="M6.976 37.68h-.07v.073h.07v-.073Z" opacity=".72"/><path d="M8.506 37.617h-.182v.194h.182v-.194Z" opacity=".68"/><path d="M9.319 37.547h-.327v.345h.327v-.345Z" opacity=".51"/><path d="M9.992 37.61h-.203v.213h.203v-.214Z" opacity=".87"/><path d="M11.4 37.68h-.068v.073h.068v-.073Z" opacity=".85"/><path d="M12.187 37.625h-.171v.18h.17v-.18Z" opacity=".7"/><path d="M12.914 37.64h-.144v.153h.144v-.152Z" opacity=".92"/><path d="M13.662 37.625h-.166v.176h.166v-.176Z" opacity=".71"/><path d="M14.33 37.703h-.025v.027h.025v-.027Z" opacity=".62"/><path d="M15.905 37.602h-.225v.237h.225v-.237Z" opacity=".71"/><path d="M16.551 37.695h-.04v.043h.04v-.043Z" opacity=".7"/><path d="M17.32 37.664h-.105v.11h.104v-.11Z" opacity=".73"/><path d="M18.07 37.648h-.129v.135h.129v-.135Z" opacity=".88"/><path d="M18.925 37.531h-.359v.379h.359v-.379Z" opacity=".59"/><path d="M19.503 37.688h-.046v.047h.046v-.047Z" opacity=".73"/><path d="M20.232 37.703h-.021v.02h.02v-.02Z" opacity=".59"/><path d="M21.08 37.586h-.248v.261h.247v-.261Z" opacity=".51"/><path d="M22.484 37.664h-.101v.108h.101v-.108Z" opacity=".64"/><path d="M24.733 37.625h-.167v.176h.167v-.176Z" opacity=".61"/><path d="M25.42 37.68h-.072v.077h.073v-.077Z" opacity=".71"/><path d="M26.22 37.61h-.2v.212h.2v-.213Z" opacity=".86"/><path d="M26.895 37.68h-.067v.07h.067v-.07Z" opacity=".69"/><path d="M27.69 37.617h-.178v.189h.179v-.189Z" opacity=".53"/><path d="M28.397 37.656h-.124v.13h.124v-.13Z" opacity=".55"/><path d="M29.207 37.57h-.27v.286h.27v-.286Z" opacity=".8"/><path d="M29.85 37.68h-.08v.085h.08v-.085Z" opacity=".52"/><path d="M30.577 37.68h-.058v.06h.058v-.06Z" opacity=".72"/><path d="M31.323 37.68h-.073v.076h.073v-.076Z" opacity=".75"/><path d="M32.036 37.695h-.028v.032h.028v-.032Z" opacity=".84"/><path d="M32.826 37.656h-.119v.126h.119v-.126Z" opacity=".61"/><path d="M33.618 37.594h-.231v.244h.231v-.244Z" opacity=".85"/><path d="M34.406 37.54h-.332v.35h.332v-.35Z" opacity=".9"/><path d="M35.087 37.602h-.22v.233h.22v-.233Z" opacity=".82"/><path d="M35.766 37.664h-.102v.106h.102v-.106Z" opacity=".87"/><path d="M1.103 38.43h-.13v.136h.13v-.136Z" opacity=".86"/><path d="M1.85 38.414h-.155v.163h.156v-.163Z" opacity=".76"/><path d="M2.6 38.398h-.178v.187h.177v-.187Z" opacity=".75"/><path d="M3.286 38.46h-.071v.075h.071v-.074Z" opacity=".73"/><path d="M4.063 38.422h-.149v.157h.149v-.157Z" opacity=".91"/><path d="M4.795 38.422H4.66v.143h.135v-.143Z" opacity=".71"/><path d="M5.54 38.414h-.157v.165h.157v-.165Z" opacity=".76"/><path d="M6.32 38.367h-.242v.257h.243v-.257Z" opacity=".66"/><path d="M7.074 38.352h-.27v.285h.27v-.285Z" opacity=".54"/><path d="M7.755 38.406h-.161v.171h.161v-.17Z" opacity=".82"/><path d="M8.468 38.438h-.113v.12h.113v-.12Z" opacity=".61"/><path d="M9.165 38.484h-.028v.03h.028v-.03Z" opacity=".59"/><path d="M10.003 38.383h-.23v.242h.23v-.242Z" opacity=".63"/><path d="M10.684 38.438h-.118v.123h.118v-.123Z" opacity=".71"/><path d="M11.411 38.445h-.087v.092h.087v-.092Z" opacity=".88"/><path d="M12.194 38.398h-.182v.192h.182v-.192Z" opacity=".54"/><path d="M12.931 38.398h-.177v.187h.177v-.187Z" opacity=".81"/><path d="M13.64 38.43h-.128v.136h.128v-.136Z" opacity=".91"/><path d="M14.368 38.445h-.106v.111h.106v-.11Z" opacity=".82"/><path d="M15.1 38.445h-.088v.095h.088v-.095Z" opacity=".92"/><path d="M15.83 38.46h-.072v.077h.071v-.076Z" opacity=".52"/><path d="M16.608 38.414h-.155v.165h.155v-.165Z" opacity=".55"/><path d="M18.067 38.438h-.122v.128h.122v-.129Z" opacity=".66"/><path d="M18.777 38.46h-.066v.072h.067v-.071Z" opacity=".91"/><path d="M19.509 38.469h-.056v.058h.056v-.058Z" opacity=".56"/><path d="M20.252 38.46h-.068v.072h.068v-.071Z" opacity=".88"/><path d="M21.793 38.39h-.195v.207h.195v-.206Z" opacity=".8"/><path d="M22.482 38.445h-.095v.1h.095v-.1Z" opacity=".88"/><path d="M23.235 38.43h-.133v.14h.133v-.14Z" opacity=".77"/><path d="M23.96 38.445h-.1v.105h.1v-.105Z" opacity=".65"/><path d="M24.804 38.328h-.316v.333h.316v-.333Z" opacity=".66"/><path d="M25.43 38.445h-.09v.095h.09v-.095Z" opacity=".57"/><path d="M26.883 38.477h-.043v.044h.043v-.044Z" opacity=".91"/><path d="M27.657 38.438h-.114v.12h.114v-.12Z" opacity=".66"/><path d="M28.368 38.46h-.063v.07h.063v-.07Z" opacity=".62"/><path d="M29.11 38.453h-.075v.08h.075v-.08Z" opacity=".92"/><path d="M29.851 38.453h-.078v.082h.078v-.082Z" opacity=".77"/><path d="M31.344 38.445h-.11v.114h.11v-.114Z" opacity=".66"/><path d="M32.131 38.383h-.217v.23h.217v-.23Z" opacity=".88"/><path d="M32.804 38.445h-.085v.09h.085v-.09Z" opacity=".9"/><path d="M33.58 38.406h-.162v.171h.162v-.17Z" opacity=".81"/><path d="M35.006 38.46h-.057v.061h.057v-.06Z" opacity=".71"/><path d="M35.766 38.445h-.102v.108h.102v-.108Z" opacity=".59"/><path d="M1.12 39.188H.945v.183h.175v-.184Z" opacity=".92"/><path d="M1.787 39.266h-.025v.027h.025v-.027Z" opacity=".86"/><path d="M2.529 39.258h-.037v.038h.037v-.038Z" opacity=".6"/><path d="M4.127 39.133h-.28v.295h.28v-.295Z" opacity=".89"/><path d="M4.735 39.266H4.71v.025h.024v-.025Z" opacity=".83"/><path d="M5.506 39.234h-.084v.09h.084v-.09Z" opacity=".53"/><path d="M6.241 39.234h-.08v.086h.08v-.086Z" opacity=".88"/><path d="M7.759 39.195h-.165v.175h.165v-.175Z" opacity=".91"/><path d="M8.464 39.227h-.097v.101h.097v-.101Z" opacity=".57"/><path d="M9.181 39.242h-.06v.064h.06v-.064Z" opacity=".94"/><path d="M10.65 39.25h-.052v.056h.052v-.056Z" opacity=".79"/><path d="M11.383 39.258h-.035v.036h.034v-.036Z" opacity=".76"/><path d="M12.111 39.273h-.017v.02h.017v-.02Z" opacity=".9"/><path d="M12.91 39.203h-.137v.144h.137v-.144Z" opacity=".68"/><path d="M13.672 39.172h-.192v.203h.192v-.203Z" opacity=".91"/><path d="M14.365 39.227h-.092v.096h.092v-.096Z" opacity=".87"/><path d="M16.606 39.203h-.149v.157h.149v-.157Z" opacity=".8"/><path d="M17.291 39.25h-.049v.052h.05v-.052Z" opacity=".85"/><path d="M18.116 39.164h-.214v.227h.214v-.227Z" opacity=".75"/><path d="M18.884 39.133h-.275v.29h.275v-.29Z" opacity=".55"/><path d="M19.616 39.14h-.268v.284h.268v-.283Z" opacity=".82"/><path d="M20.285 39.21h-.137v.145h.137v-.144Z" opacity=".89"/><path d="M21 39.234h-.082v.087H21v-.087Z" opacity=".85"/><path d="M21.815 39.156h-.24v.255h.24v-.255Z" opacity=".55"/><path d="M22.458 39.25h-.048v.05h.048v-.05Z" opacity=".87"/><path d="M23.233 39.219h-.124v.13h.124v-.13Z" opacity=".71"/><path d="M23.971 39.21h-.131v.14h.131v-.14Z" opacity=".7"/><path d="M24.807 39.11h-.319v.337h.319v-.338Z" opacity=".76"/><path d="M25.454 39.203h-.142v.15h.142v-.15Z" opacity=".8"/><path d="M26.873 39.266h-.025v.027h.025v-.027Z" opacity=".83"/><path d="M27.66 39.21h-.125v.133h.125v-.132Z" opacity=".64"/><path d="M28.405 39.203h-.14v.147h.14v-.147Z" opacity=".61"/><path d="M29.162 39.188h-.178v.186h.178v-.187Z" opacity=".58"/><path d="M29.888 39.195h-.154v.162h.154v-.162Z" opacity=".92"/><path d="M32.148 39.156h-.238v.252h.238v-.252Z" opacity=".83"/><path d="M32.775 39.266h-.029v.03h.029v-.03Z" opacity=".72"/><path d="M33.58 39.195h-.158v.167h.158v-.167Z" opacity=".76"/><path d="M34.275 39.242h-.068v.072h.068v-.072Z" opacity=".87"/><path d="M35.005 39.25h-.056v.059h.056v-.059Z" opacity=".56"/><path d="M35.73 39.258h-.035v.036h.035v-.036Z" opacity=".89"/><path d="M1.84 39.984h-.13v.137h.13v-.137Z" opacity=".93"/><path d="M5.521 39.992h-.119v.125h.12v-.125Z" opacity=".54"/><path d="M6.247 40.008h-.09v.095h.09v-.095Z" opacity=".5"/><path d="M8.472 39.992h-.12v.129h.12v-.129Z" opacity=".65"/><path d="M10.68 40h-.106v.112h.106V40Z" opacity=".55"/><path d="M11.436 39.984h-.143v.152h.143v-.152Zm.804-.07h-.275v.292h.276v-.292Z" opacity=".57"/><path d="M12.956 39.93h-.233v.247h.233v-.247Z" opacity=".61"/><path d="M13.66 39.977h-.16v.17h.16v-.17Z" opacity=".78"/><path d="M16.615 39.969h-.17v.179h.17v-.18Zm1.438.039h-.092v.098h.092v-.098Z" opacity=".74"/><path d="M20.345 39.922h-.255v.27h.255v-.27Z" opacity=".57"/><path d="M21.073 39.93h-.233v.247h.233v-.247Z" opacity=".54"/><path d="M21.75 40h-.11v.117h.11V40Z" opacity=".65"/><path d="M22.621 39.86h-.379v.4h.379v-.4Z" opacity=".54"/><path d="M23.222 40h-.105v.11h.105V40Z" opacity=".79"/><path d="M24.843 39.852h-.39v.413h.39v-.413Z" opacity=".75"/><path d="M25.462 39.984h-.153v.162h.153v-.162Z" opacity=".6"/><path d="M26.943 39.977h-.162v.17h.162v-.17Z" opacity=".54"/><path d="M27.705 39.945h-.213v.225h.213v-.225Z" opacity=".65"/><path d="M29.912 39.953h-.201v.212h.201v-.212Z" opacity=".67"/><path d="M30.713 39.883h-.326v.344h.326v-.344Z" opacity=".68"/><path d="M31.391 39.945h-.207v.22h.207v-.22Z" opacity=".54"/><path d="M32.09 39.984h-.13v.138h.13v-.138Z" opacity=".92"/><path d="M35.048 39.984h-.146v.154h.146v-.154Z" opacity=".62"/><path d="M35.783 39.984h-.135v.143h.135v-.143Z" opacity=".57"/></g><path fill="#000" d="M28.642 24.701a.332.332 0 0 1-.171.048.348.348 0 0 1-.346-.346.34.34 0 0 1 .159-.29l.003-.003-.179.103-1.282.74-6.745 3.896-2.159 1.245.171.099a.347.347 0 0 1 .173.298v.2l10.375-5.99h.001Zm7.195-4.425c-.003-.014-.008-.03-.01-.044-.007-.013-.012-.029-.018-.041 0-.003-.003-.006-.006-.01l-.037-.054c0-.003-.003-.008-.006-.01-.007-.007-.011-.012-.016-.015l-.018-.016a.126.126 0 0 0-.015-.014c-.011-.01-.026-.017-.038-.025l-.01-.007a.344.344 0 0 0-.334.007l-.519.298-6.523 3.765-.179.103-1.282.74-6.745 3.896-2.159 1.245-.171.099a.347.347 0 0 0-.173.298v4.06a.345.345 0 0 0 .28.34c.02.004.043.006.066.006.022 0 .044 0 .066-.007a.458.458 0 0 0 .086-.028l.019-.011 3.515-2.027a.355.355 0 0 0 .032-.021s.005 0 .006-.005l3.303-1.906.173-.1.518-.298 3.514-2.027 6.515-3.761a.343.343 0 0 0 .173-.298v-4.06c0-.024 0-.046-.008-.068l.001-.004Zm-.681 3.93-13.89 8.014c-.013.008-.027.016-.036.025l-2.963 1.709v-3.265l10.375-5.99 6.514-3.76v3.266Z"/><path fill="#000" d="M35.154 20.947v3.265l-13.89 8.014c-.012.008-.027.016-.036.026l-2.962 1.708v-3.265l10.374-5.989 6.514-3.76Zm-17.061 9.247-.171-.098-5.53-3.194-1.328-.767-2.135-1.233-2.37-1.369-2.526-1.458-3-1.73-.516-.299a.342.342 0 0 0-.344 0 .343.343 0 0 0-.173.298v4.06c0 .123.067.237.173.299l6.514 3.757.478.276c.011.01.026.017.038.027l.168.097 2.83 1.63.69.398 3.305 1.907c.012.01.025.017.038.025l3.515 2.027.02.011a.32.32 0 0 0 .153.037c.022 0 .044 0 .066-.007a.448.448 0 0 0 .086-.028l.019-.011a.345.345 0 0 0 .173-.298v-4.06a.347.347 0 0 0-.173-.299v.002Zm-3.514 2.027-3.515-2.027-3.477-2.006c-.011-.011-.026-.018-.038-.026l-6.86-3.957V20.94l2.999 1.73 2.428 1.403 1.089.628 2.6 1.5.915.529.924.532 2.594 1.498 3.343 1.929v3.264l-2.96-1.708c-.012-.01-.026-.017-.037-.026l-.005.002Zm2.999 2.331v-.596l-2.96-1.708c-.012-.01-.026-.017-.037-.025l-3.515-2.027a.347.347 0 0 1 .172.298.35.35 0 0 1-.172.3l-.173.097 3.304 1.907c.013.01.026.017.038.025l3.515 2.027a.345.345 0 0 1-.172-.298Z"/><path fill="#000" d="M17.574 30.695v3.265l-2.96-1.708c-.011-.01-.026-.018-.037-.026L11.062 30.2l-3.477-2.006c-.011-.011-.026-.018-.038-.026L.687 24.21v-3.265l3 1.731 2.427 1.403 1.089.627 2.6 1.501.915.528.924.532 2.595 1.498 3.342 1.929-.005.001Zm3.693-18.166v.004l-3.342-1.931-16.889 9.753-.516-.298a.342.342 0 0 0-.344 0L17.753 9.906a.342.342 0 0 1 .344 0l3.512 2.027-.342.596Z"/><path fill="#000" d="m21.609 11.925-.344.594-.003-.001.342-.596.005.003ZM4.032 22.073l-.344.598-2.999-1.73-.516-.299a.344.344 0 1 1 .344-.596l.516.298 3 1.731-.001-.002Z"/><path fill="#000" d="m25.12 13.949-.341.596v.001l-3.514-2.025-.003-.002.342-.595.002-.002 3.512 2.025.003.002Z"/><path fill="#000" d="m25.122 13.942-.345.597 3.516 2.031.345-.596-3.516-2.032Zm3.515 2.047-.344.597 3.516 2.028.344-.597-3.515-2.028Z"/><path fill="#000" d="M35.842 20.345a.342.342 0 0 1-.17.298l-.517.298-6.514 3.761-10.375 5.99-.172.1a.34.34 0 0 1-.344 0l-.173-.1-3.343-1.928.343-.597 3.342 1.928 2.159-1.245 6.745-3.896 1.282-.74.176-.1.003-.003 6.523-3.766-2.998-1.733.344-.596 3.507 2.027.01.006c.012.008.027.016.038.025.006.005.01.011.016.015s.01.01.017.016c.008.007.014.015.022.025.013.017.027.035.037.054.025.05.04.104.04.161h.002Z"/><path fill="#fff" fill-opacity=".11" d="m1.227 20.3 16.89-9.753L35.005 20.3l-16.717 9.848L1.227 20.3Z"/><path fill="#000" d="M28.642 14.856a.332.332 0 0 1-.171.047.348.348 0 0 1-.346-.345.34.34 0 0 1 .159-.29l.003-.003-.179.103-1.282.74-6.745 3.895-2.159 1.246.171.098a.347.347 0 0 1 .173.298v.2l10.375-5.989h.001Zm7.195-4.423c-.003-.015-.008-.03-.01-.045-.007-.012-.012-.028-.018-.04 0-.004-.003-.007-.006-.01a.567.567 0 0 0-.043-.065.11.11 0 0 0-.016-.015l-.018-.015a.128.128 0 0 0-.015-.015c-.011-.01-.026-.017-.038-.025l-.01-.006a.344.344 0 0 0-.334.006l-.519.298-6.523 3.765-.179.103-1.282.74-6.745 3.896-2.159 1.246-.171.098a.347.347 0 0 0-.173.298v4.06a.345.345 0 0 0 .28.34c.02.004.043.006.066.006.022 0 .044 0 .066-.006a.45.45 0 0 0 .086-.029l.019-.011 3.515-2.027a.379.379 0 0 0 .032-.02s.005 0 .006-.006l3.303-1.906.173-.1.518-.298 3.514-2.027 6.515-3.76a.343.343 0 0 0 .173-.299v-4.06c0-.024 0-.046-.008-.068l.001-.003Zm-.681 3.927-13.89 8.015a.136.136 0 0 0-.036.025l-2.963 1.708v-3.265l10.375-5.989 6.514-3.76v3.266Z"/><path fill="#000" d="M35.154 11.088v3.264l-13.89 8.015c-.012.008-.027.016-.036.025l-2.962 1.709v-3.265l10.374-5.99 6.514-3.76v.002Zm-17.061 9.255-.171-.099-5.53-3.193-1.328-.767-2.135-1.233-2.37-1.37-2.526-1.458-3-1.73-.516-.298a.342.342 0 0 0-.344 0 .343.343 0 0 0-.173.298v4.06c0 .122.067.236.173.298l6.514 3.758.478.275c.011.01.026.018.038.027l.168.097 2.83 1.63.69.399 3.305 1.906c.012.01.025.018.038.026l3.515 2.027s.013.008.02.01a.328.328 0 0 0 .153.037c.022 0 .044 0 .066-.006a.455.455 0 0 0 .086-.029s.012-.008.019-.01a.345.345 0 0 0 .173-.299v-4.06a.347.347 0 0 0-.173-.298v.002Zm-3.514 2.028-3.515-2.027-3.477-2.006c-.011-.011-.026-.018-.038-.026l-6.86-3.957V11.09l2.999 1.73 2.428 1.403 1.089.628 2.6 1.5.915.529.924.532 2.594 1.498 3.343 1.929v3.264l-2.96-1.708c-.012-.01-.026-.017-.037-.025l-.005.001Zm2.999 2.33v-.596l-2.96-1.709-.037-.025-3.515-2.027a.347.347 0 0 1 .172.298.35.35 0 0 1-.172.3l-.173.098 3.304 1.907.038.025 3.515 2.027a.345.345 0 0 1-.172-.298Z"/><path fill="#000" d="M17.574 20.836V24.1l-2.96-1.709c-.011-.01-.026-.017-.037-.025l-3.515-2.027-3.477-2.007c-.011-.01-.026-.017-.038-.025L.687 14.35v-3.265l3 1.73 2.427 1.403 1.089.628 2.6 1.5.915.528.924.533 2.595 1.498 3.342 1.928-.005.002ZM21.267 2.67v.004L17.925.742 1.036 10.495l-.516-.298a.342.342 0 0 0-.344 0L17.753.047a.342.342 0 0 1 .344 0l3.512 2.026-.342.596Z"/><path fill="#000" d="m21.609 2.081-.344.595-.003-.002.342-.596.005.003ZM4.032 12.23l-.344.597-2.999-1.73-.516-.298a.343.343 0 1 1 .344-.596l.516.298 3 1.73-.001-.001Z"/><path fill="#000" d="m25.12 4.099-.341.596-3.514-2.026-.003-.001.342-.596.002-.002 3.512 2.027.003.002Z"/><path fill="#000" d="m25.122 4.098-.345.597 3.516 2.032.345-.597-3.516-2.032Zm3.515 2.039-.344.597 3.516 2.029.344-.598-3.515-2.028Z"/><path fill="#000" d="M35.842 10.494a.341.341 0 0 1-.17.298l-.517.298-6.514 3.76-10.375 5.99-.172.1a.34.34 0 0 1-.344 0l-.173-.099-3.343-1.928.343-.598 3.342 1.929 2.159-1.246 6.745-3.896 1.282-.74.176-.1.003-.003 6.523-3.765L31.81 8.76l.344-.596 3.507 2.027.01.006c.012.008.027.016.038.026l.016.014c.006.005.01.011.017.016l.022.025c.013.018.027.035.037.054.025.05.04.105.04.162h.002Z"/><path fill="#fff" fill-opacity=".11" d="M1.227 10.447 18.117.695l16.888 9.752-16.717 9.848-17.061-9.848Z"/></svg>