<svg xmlns="http://www.w3.org/2000/svg" width="1080" height="1080" fill="none"><g clip-path="url(#a)"><mask id="b" width="292" height="1121" x="243" y="36" maskUnits="userSpaceOnUse" style="mask-type:luminance"><path fill="#fff" d="M534.6 36.64H243v1120.24h291.6V36.64Z"/></mask><g mask="url(#b)"><path fill="#231F20" d="m537.149 117.231 245.02 441.91.47.84-.87-.42-244.4-118.76v274.34h-3.49v-279.92l.44.21 239.91 116.58-240.13-433.08-.15-.27.27-.15 2.52-1.4.27-.15.15.27h-.01Z"/><path fill="#000" d="m539.369 717.13-4.24-4.28-3.25-280.84 3.32 1.62 234.21 113.81-237.21-427.82-.98-1.75 6.55-3.62 1.13 2 245.02 441.91 3.56 6.38-6.58-3.19-241.53-117.36v273.14Z"/><path fill="#231F20" d="m537.37 439.14-.18.08-.85.38L288.2 551l-.86.39.47-.82L536.8 112.56l.57-.99v327.57ZM290.14 545.4l243.74-108.53v-312.3L290.14 545.4Z"/><path fill="#000" d="m286.219 549.191-4.59-.66 257.74-444.4v336.31l-2.22.98-247.01 110.89-3.92-3.13v.01Zm245.66-417.18-236.91 409.05 236.91-105.49v-303.56Z"/><path fill="#231F20" d="m534.278 435.431 3.02 1.44 3.09-1.37.43-.2v.48l-.03 2.77 244.13 116.97.49.24-.45.3-245.75 160.75-.15-.23-.19.23-.79-.52-251.88-167.09-.46-.31.51-.23 247.61-110.26-.03-2.69v-.49l.44.21h.01Zm5.1 163.96 1.39 112.23 237.55-155.39-237.55-113.83-1.39 156.99Zm-246.4-49.9 244.29 162.05-.12-10.02-1.87-.02h-.3v-.31l.91-101.8-1.96-157.2-240.94 107.29-.01.01Z"/><path fill="#000" d="m538.629 719.58-.61-.96-1.02-.68-252.35-167.4-3.02-2.01 3.82-1.7 246.41-109.73-.06-5.1 5.53 2.66 5.52-2.48-.04 5.11 246.67 118.19-3.42 2.24-246.18 161.03-.58.73-.26-.18-.42.27.01.01Zm2.75-120.19 1.35 108.56 231.53-151.45-231.52-110.93-1.36 153.82Zm-244.26-49.55 238.1 157.95-.05-4.28-2.22-.02.02-2.31.91-101.8-1.92-154.12-234.84 104.57v.01Zm239.87 149.68h1.63l-.95-76.43-.68 76.43Zm-1.1-260.38 1.7 136.56 1.21-135.9.01-1.41-1.53.68-1.4-.67v.73l.01.01Z"/><path fill="#231F20" d="m537.373 117.73 3.47 320.54-3.49.04-3.47-320.54 3.49-.04Z"/><path fill="#000" d="m535.362 440.331-.02-2-3.49-318.54 7.49-4.08.03 2 3.49 322.54-7.5.08Z"/><path fill="#231F20" d="M536.141 968.59V770.74l-246.24-138.49 246.24 336.34Zm3.5 9.75h-.31l-.25.18-260.69-356.08.4-.45 260.69 146.62.16.09v209.64Z"/><path fill="#000" d="m538.64 981.301-1.17-1.6-261.65-357.39 2.54-2.86 263.27 148.08v212.81h-1.66l-1.33.96Zm-241.67-342.78 237.17 323.95v-190.56l-237.17-133.39Zm-12.34-10.95 4 5.47 1.9-2.15-5.91-3.32h.01Z"/><path fill="#000" d="m538.641 981.302-4.5-213.76 1.87-1.06 256.79-147.05 2.56 2.84-256.73 359.03h.01Zm3-209.4v190.41l232.75-323.7-232.75 133.29Zm239.11-140.95 1.92 2.13 3.95-5.49-5.87 3.36Z"/><path fill="#4162AE" d="m536.619 441.52-66.62-86.13-.63-.82-.7.75-179.29 190.98 1.28 1.36 178.59-190.23 65.99 85.31 1.4-1.22h-.02Z"/><path fill="#000" d="m290.649 550.57-4.02-4.27 1.28-1.38 181.6-193.43 2.07 2.67 67.77 87.63-4.41 3.85-65.85-85.14-178.44 190.07Z"/><path fill="#4162AE" d="m472.001 356.109 64.79-239.55-1.7-.45-64.79 239.55 1.7.45Z"/><path fill="#000" d="m473.41 358.55-5.57-1.48 65.84-243.41 5.56 1.49-65.83 243.4Z"/><path fill="#4162AE" d="m454.612 262.47 15.61 93.66.22 1.34 1.3-.81c.18-.11 64.28-40.28 66.99-40.28v-1.61c-3.11 0-57.71 34.08-66.84 39.79l-15.39-92.32-1.9.22.01.01Z"/><path fill="#000" d="m468.972 360.761-16.21-97.25-2.93-2.51 8.34-.96 15.21 91.23c40.88-25.55 62.87-38.51 65.36-38.51h2v5.61h-1.77c-3.75 1.36-36.65 21.5-65.97 39.86l-4.03 2.52v.01Z"/><path fill="#4162AE" d="m289.373 550.96 156.99 3.61h.45l.29-.37 89.51-118.82-1.44-1.29-89.23 118.45-156.54-3.59-.04 2.03.01-.02Z"/><path fill="#000" d="m447.792 556.591-1.47-.02-158.99-5.18.12-4.51 2 .05 155.52 3.57 89.92-119.36 4.43 3.97-91.53 121.48Z"/><path fill="#4162AE" d="m445.949 553.781 89.18 159.07 1.54-1.26-89.18-159.07-1.53 1.26h-.01Z"/><path fill="#000" d="m534.551 715.911-91.16-162.61 4.67-3.84 91.17 162.61-4.68 3.84Zm242.628-158.35-1.49-1.67-172.59-193.27-64.24 87.32-4.32-3.97 68.14-92.61 2.33 2.6 176.11 197.21-3.94 4.39Z"/><path fill="#000" d="m600.42 360.521-65.83-243.41 5.57-1.49 65.83 243.41-5.57 1.49Z"/><path fill="#000" d="m604.872 362.732-4.16-2.61c-30.26-18.93-62.13-38.43-65.84-39.78h-1.77v-5.61h2c2.49 0 24.47 12.95 65.36 38.51l15.21-91.23 7.9.91-2.48 2.48-16.22 97.34v-.01Zm18.947 197.519-.89-1.23-88.37-121.93 4.35-4.06 87.76 121.09 153.69-3.66.11 6.05-156.65 3.74Z"/><path fill="#4162AE" d="m298.573 637.783 195.03 169.46 43.74-38.95h.04l.969.9v.05l-44.249 39.5-.511.55-.51-.56-195.539-170.01a.695.695 0 0 1 .039-.98c.28-.26.72-.24.98.05l.011-.01Z"/><path fill="#000" d="m493.582 812.242-1.9-2.08-195.54-170.01-.07-.07c-.49-.53-.74-1.22-.71-1.94.03-.72.34-1.39.88-1.87.1-.1.21-.18.33-.26v-2.67l3.25 2.89.03.03.04.04 193.7 168.27 42.98-38.27h1.55l2.23 2.03v1.77l-.67.65-44.18 39.44-1.93 2.07.01-.02Z"/><path fill="#4162AE" stroke="#000" stroke-miterlimit="10" stroke-width="4" d="m494.281 808.07 44.27 161.07-1.34.37-44.27-161.07 1.34-.37Z"/></g><mask id="c" width="293" height="1121" x="534" y="36" maskUnits="userSpaceOnUse" style="mask-type:luminance"><path fill="#fff" d="M534.607 1156.89h291.6V36.65h-291.6v1120.24Z"/></mask><g mask="url(#c)"><path fill="#231F20" d="m532.208 116.961.27.15 2.52 1.4.27.15-.15.27-240.13 433.08 239.91-116.58.44-.21v279.92h-3.49v-274.34l-244.4 118.76-.87.42.47-.84 245.02-441.91.15-.27h-.01Z"/><path fill="#000" d="m529.837 717.13 4.24-4.28 3.25-280.84-3.32 1.62-234.21 113.81 237.21-427.82.98-1.75-6.56-3.62-1.12 2-245.02 441.91-3.56 6.38 6.58-3.19 241.53-117.36v273.14Z"/><path fill="#231F20" d="m531.84 111.58.57.99L781.4 550.58l.47.82-.86-.39-248.14-111.4-.85-.38-.18-.08V111.58Zm3.49 12.99v312.3L779.07 545.4 535.33 124.57Z"/><path fill="#000" d="m779.07 552.321-247.01-110.89-2.22-.98v-336.32l257.74 444.4-4.59.66-3.92 3.13Zm-241.74-116.75 236.91 105.49-236.91-409.05v303.56Z"/><path fill="#231F20" d="M535.367 435.211v.49l-.04 2.69 247.61 110.26.51.23-.46.31-251.88 167.09-.79.52-.19-.23-.15.23-245.75-160.75-.45-.3.49-.24 244.13-116.97-.02-2.77v-.48l.43.2 3.09 1.37 3.02-1.44.44-.21h.01Zm-6.93 7.19-237.55 113.83 237.55 155.39 1.39-112.23-1.39-156.99Zm6.84-.2-1.96 157.2.91 101.8v.31h-.3l-1.87.02-.12 10.02 244.29-162.05-240.94-107.29-.01-.01Z"/><path fill="#000" d="m530.159 719.312-.26.18-.58-.73-246.18-161.03-3.42-2.24 246.67-118.19-.04-5.11 5.52 2.48 5.53-2.66-.06 5.1 246.41 109.73 3.82 1.7-3.02 2.01-252.35 167.4-1.02.68-.61.96-.42-.27.01-.01Zm-3.69-273.74-231.52 110.93 231.53 151.45 1.35-108.56-1.36-153.82Zm10.77-.3-1.92 154.12.91 101.8.02 2.31-2.22.02-.05 4.28 238.1-157.95-234.84-104.57v-.01Zm-5.7 177.83-.95 76.44h1.63l-.68-76.44Zm1.79-184.69-1.4.67-1.53-.68v1.41h.01l1.21 135.9 1.7-136.56v-.73l.01-.01Z"/><path fill="#231F20" d="m535.327 117.77-3.47 320.54-3.49-.04 3.47-320.54 3.49.04Z"/><path fill="#000" d="m533.838 440.331.02-2 3.49-318.54-7.49-4.08-.02 2-3.49 322.54 7.49.08Z"/><path fill="#231F20" d="m779.296 632.25-246.24 138.49v197.85l246.24-336.34ZM529.566 768.7l.16-.09 260.69-146.62.4.45-260.69 356.08-.25-.18h-.31V768.7Z"/><path fill="#000" d="M529.226 980.341h-1.66v-212.81l263.27-148.08 2.54 2.86-261.65 357.39-1.17 1.6-1.33-.96Zm5.83-208.43v190.56l237.17-323.95-237.17 133.39Zm243.61-141.02 1.9 2.15 4-5.47-5.91 3.32h.01Z"/><path fill="#000" d="m273.838 622.272 2.56-2.84 256.79 147.05 1.87 1.06-4.5 213.76-256.73-359.03h.01Zm20.98 16.34 232.75 323.7v-190.41l-232.75-133.29Zm-12.23-11.03 3.95 5.49 1.92-2.13-5.87-3.36Z"/><path fill="#4162AE" d="m533.989 442.74 65.99-85.31 178.59 190.23 1.28-1.36-179.29-190.98-.7-.75-.63.82-66.62 86.13 1.4 1.22h-.02Z"/><path fill="#000" d="m778.558 550.57 4.02-4.27-1.29-1.38-181.59-193.43-2.07 2.67-67.78 87.63 4.42 3.85 65.85-85.14 178.44 190.07Z"/><path fill="#4162AE" d="m598.908 355.65-64.79-239.55-1.7.45 64.79 239.55 1.7-.45Z"/><path fill="#000" d="m595.799 358.55 5.57-1.48-65.84-243.41-5.56 1.49 65.83 243.4Z"/><path fill="#4162AE" d="m614.599 262.472-1.9-.22-15.39 92.32c-9.13-5.71-63.73-39.79-66.84-39.79v1.61c2.71 0 66.81 40.17 66.99 40.28l1.3.81.22-1.34 15.61-93.66.01-.01Z"/><path fill="#000" d="m600.239 360.761 16.21-97.25 2.93-2.51-8.34-.96-15.21 91.23c-40.88-25.55-62.87-38.51-65.36-38.51h-2v5.61h1.77c3.75 1.36 36.65 21.5 65.97 39.86l4.03 2.52v.01Z"/><path fill="#4162AE" d="m779.796 548.93-156.54 3.59-89.23-118.45-1.44 1.29 89.51 118.82.29.38h.45l156.99-3.62-.04-2.03.01.02Z"/><path fill="#000" d="m621.417 556.591 1.46-.02 158.99-5.18-.11-4.51-2.01.05-155.51 3.57-89.92-119.36-4.43 3.97 91.53 121.48Z"/><path fill="#4162AE" d="m621.715 552.521-89.18 159.07 1.54 1.26 89.18-159.07-1.53-1.26h-.01Z"/><path fill="#000" d="m534.657 715.911 91.16-162.61-4.67-3.84-91.17 162.61 4.68 3.84ZM292.02 557.561l1.49-1.67 172.59-193.27 64.24 87.32 4.33-3.97-68.14-92.61-2.33 2.6-176.11 197.21 3.93 4.39Z"/><path fill="#000" d="m468.779 360.521 65.83-243.41-5.56-1.49-65.83 243.41 5.56 1.49Z"/><path fill="#000" d="m464.337 362.732 4.16-2.61c30.26-18.93 62.13-38.43 65.84-39.78h1.77v-5.61h-2c-2.49 0-24.47 12.95-65.36 38.51l-15.21-91.23-7.9.91 2.48 2.48 16.22 97.34v-.01Zm-18.949 197.519.89-1.23 88.37-121.93-4.35-4.06-87.77 121.09-153.69-3.66-.1 6.05 156.65 3.74Z"/><path fill="#4162AE" d="M770.626 637.781c.26-.29.7-.31.98-.05.29.26.3.7.04.98l-195.54 170.01-.51.56-.51-.55-44.25-39.5v-.05l.97-.9h.04l43.74 38.95 195.03-169.46.01.01Z"/><path fill="#000" d="m575.618 812.242 1.9-2.08 195.54-170.01.07-.07c.49-.53.74-1.22.71-1.94-.03-.72-.34-1.39-.88-1.87a2.1 2.1 0 0 0-.33-.26v-2.67l-3.25 2.89c-.01 0-.02.02-.03.03l-.04.04-193.7 168.27-42.98-38.27h-1.55l-2.23 2.03v1.77l.67.65 44.18 39.44 1.93 2.07-.01-.02Z"/><path fill="#4162AE" stroke="#000" stroke-miterlimit="10" stroke-width="4" d="m576.266 808.431-44.27 161.07-1.34-.37 44.27-161.07 1.34.37Z"/></g><path fill="#000" d="m468.219 353.47 67.12-33.13-.03 118.65-67.09-85.52Zm67.093 85.52-.71 275.07 87.5-159.86-86.79-115.21Zm-.25 332.92-39.55 38.26 39.55 152.3V771.91Z"/><path fill="#1F375B" d="m540.001 420.85-.33 12.64-1.81 2.48-.24-11.94 2.38-3.18Zm59.701-69.359-2.05 2.81-1.14-4.41 3.19 1.6Z"/><path fill="#1F375B" d="m540.001 420.85-.33 12.64-1.81 2.48-.24-11.94 2.38-3.18Z"/><mask id="d" width="45" height="192" x="535" y="771" maskUnits="userSpaceOnUse" style="mask-type:luminance"><path fill="#fff" d="m535.059 771.91 44.49 36.82-44.49 153.74V771.91Z"/></mask><g fill="#1F375B" mask="url(#d)"><path d="M558.462 767.619h-4.36v4.61h4.36v-4.61Z" opacity=".81"/><path d="M583.069 766.949h-5.62v5.95h5.62v-5.95Z" opacity=".94"/><path d="M544.68 782.199h-.77v.81h.77v-.81Z" opacity=".65"/><path d="M558.279 780.5h-3.99v4.22h3.99v-4.22Z" opacity=".59"/><path d="M569.062 781.779h-1.57v1.66h1.57v-1.66Zm12.589-.638h-2.78v2.94h2.78v-2.94Z" opacity=".93"/><path d="M545.139 794.4h-1.69v1.78h1.69v-1.78Z" opacity=".87"/><path d="M557.619 793.879h-2.67v2.82h2.67v-2.82Z" opacity=".6"/><path d="M569.511 793.98h-2.48v2.62h2.48v-2.62Z" opacity=".82"/><path d="M557.492 806.699h-2.41v2.55h2.41v-2.55Z" opacity=".71"/><path d="M569.782 806.379h-3.02v3.19h3.02v-3.19Z" opacity=".9"/><path d="M544.731 820.199h-.86v.91h.86v-.91Z" opacity=".84"/><path d="M558.082 818.75h-3.59v3.8h3.59v-3.8Z" opacity=".72"/><path d="M568.759 820.141h-.97v1.02h.97v-1.02Z" opacity=".5"/><path d="M581.081 819.789h-1.64v1.74h1.64v-1.74Z" opacity=".57"/><path d="M545.61 831.949h-2.63v2.78h2.63v-2.78Z" opacity=".51"/><path d="M556.91 832.68h-1.25V834h1.25v-1.32Z" opacity=".67"/><path d="M569.081 832.48h-1.62v1.721h1.62v-1.721Z" opacity=".93"/><path d="M544.43 845.879h-.27v.28h.27v-.28Z" opacity=".55"/><path d="M556.931 845.34h-1.29v1.36h1.29v-1.36Z" opacity=".8"/><path d="M568.729 845.539h-.92v.97h.92v-.97Z" opacity=".83"/><path d="M545.801 857.109h-3.02v3.2h3.02v-3.2Z" opacity=".88"/><path d="M557.142 857.789h-1.72v1.82h1.72v-1.82Z" opacity=".65"/><path d="M569.419 857.48h-2.31v2.45h2.31v-2.45Z" opacity=".8"/><path d="M546.539 869h-4.5v4.77h4.5V869Z" opacity=".84"/><path d="M557.839 869.73h-3.12v3.301h3.12v-3.301Z" opacity=".86"/><path d="M570.312 869.23h-4.07v4.301h4.07v-4.301Z" opacity=".53"/><path d="M582.342 869.18h-4.17v4.41h4.17v-4.41Z" opacity=".78"/><path d="M569.06 883.24h-1.58v1.67h1.58v-1.67Z" opacity=".87"/><path d="M581.29 882.98h-2.06v2.18h2.06v-2.18Z" opacity=".89"/><path d="M545.389 895.59h-2.19v2.32h2.19v-2.32Z" opacity=".94"/><path d="M556.529 896.49h-.49v.52h.49v-.52Z" opacity=".93"/><path d="M570.552 894.34h-4.56v4.82h4.56v-4.82Z" opacity=".67"/><path d="M581.602 895.33h-2.68v2.84h2.68v-2.84Z" opacity=".87"/><path d="M544.602 909.109h-.61v.65h.61v-.65Z" opacity=".82"/><path d="M568.611 909.08h-.67v.71h.67v-.71Zm-23.009 11.66h-2.61v2.76h2.61v-2.76Z" opacity=".69"/><path d="M557.521 920.811h-2.47v2.61h2.47v-2.61Z" opacity=".85"/><path d="M569.97 920.32h-3.4v3.6h3.4v-3.6Z" opacity=".82"/><path d="M545.229 933.82h-1.87v1.97h1.87v-1.97Z" opacity=".69"/><path d="M569.27 933.74h-2v2.12h2v-2.12Z" opacity=".75"/><path d="M581.782 933.189h-3.04v3.22h3.04v-3.22Z" opacity=".59"/><path d="M545.129 946.6h-1.68v1.78h1.68v-1.78Z" opacity=".65"/><path d="M556.931 946.801h-1.29v1.36h1.29v-1.36Z" opacity=".73"/><path d="M568.97 946.74h-1.4v1.48h1.4v-1.48Z" opacity=".78"/><path d="M545.551 958.83h-2.52v2.67h2.52v-2.67Z" opacity=".83"/><path d="M556.859 959.551h-1.16v1.23h1.16v-1.23Z" opacity=".8"/><path d="M570.011 958.33h-3.48v3.68h3.48v-3.68Z" opacity=".78"/><path d="M581.381 958.98h-2.24v2.37h2.24v-2.37Z" opacity=".77"/></g><mask id="e" width="156" height="594" x="442" y="113" maskUnits="userSpaceOnUse" style="mask-type:luminance"><path fill="#fff" d="m597.65 354.3-1.08 1.46-56.9 77.73-7.07 273.33-90.01-156.03 95.03-126.76-2.15-104.73-67.25 34.17 67.31-239.81 60.98 236.23 1.14 4.41Z"/></mask><g fill="#1F375B" mask="url(#e)"><path d="M454.718 140.871h-3.98v4.22h3.98v-4.22Z" opacity=".78"/><path d="M465.739 141.9h-2.04v2.16h2.04v-2.16Z" opacity=".66"/><path d="M490.05 141.551h-2.71v2.86h2.71v-2.86Z" opacity=".73"/><path d="M501.62 141.99h-1.87v1.98h1.87v-1.98Z" opacity=".66"/><path d="M513.178 142.441h-1.01v1.07h1.01v-1.07Z" opacity=".79"/><path d="M538.47 141.041h-3.65v3.86h3.65v-3.86Z" opacity=".67"/><path d="M550.45 141.061h-3.63v3.84h3.63v-3.84Z" opacity=".6"/><path d="M560.918 142.66h-.59v.62h.59v-.62Z" opacity=".8"/><path d="M573.197 142.361h-1.17v1.24h1.17v-1.24Z" opacity=".56"/><path d="M585.177 142.371h-1.15v1.22h1.15v-1.22Z" opacity=".86"/><path d="M597.407 142.111h-1.63v1.73h1.63v-1.73Z" opacity=".94"/><path d="M453.519 154.83h-1.57v1.66h1.57v-1.66Z" opacity=".66"/><path d="M477.82 154.48h-2.23v2.36h2.23v-2.36Z" opacity=".59"/><path d="M488.988 155.352h-.59v.62h.59v-.62Z" opacity=".79"/><path d="M501.29 155.012h-1.22v1.29h1.22v-1.29Z" opacity=".74"/><path d="M513.279 155.021h-1.22v1.29h1.22v-1.29Z" opacity=".55"/><path d="M525.638 154.621h-1.97v2.09h1.97v-2.09Z" opacity=".94"/><path d="M537.597 154.65h-1.909v2.02h1.909v-2.02Z" opacity=".92"/><path d="M549.678 154.561h-2.08v2.2h2.08v-2.2Z" opacity=".93"/><path d="M562.029 154.17h-2.81v2.97h2.81v-2.97Z" opacity=".57"/><path d="M572.849 155.41h-.47v.49h.47v-.49Z" opacity=".6"/><path d="M585.751 154.451h-2.29v2.42h2.29v-2.42Z" opacity=".68"/><path d="M598.03 154.141h-2.87v3.03h2.87v-3.03Z" opacity=".7"/><path d="M442.851 166.111h-4.21v4.46h4.21v-4.46Z" opacity=".53"/><path d="M454.708 166.25h-3.95v4.18h3.95v-4.18Z" opacity=".64"/><path d="M465.631 167.371h-1.83v1.94h1.83v-1.94Z" opacity=".81"/><path d="M478.361 166.59h-3.31v3.5h3.31v-3.5Z" opacity=".62"/><path d="M489.099 167.92h-.81v.85h.81v-.85Z" opacity=".61"/><path d="M501.46 167.521h-1.55v1.63h1.55v-1.63Z" opacity=".66"/><path d="M526.529 166.361h-3.74v3.96h3.74v-3.96Z" opacity=".85"/><path d="M537.53 167.41h-1.76v1.86h1.76v-1.86Z" opacity=".87"/><path d="M561.65 167.25h-2.06v2.18h2.06v-2.18Z" opacity=".66"/><path d="M574.828 166h-4.43v4.69h4.43V166Z" opacity=".63"/><path d="M584.979 167.941h-.76v.81h.76v-.81Z" opacity=".55"/><path d="M599.338 165.441h-5.49v5.8h5.49v-5.8Z" opacity=".85"/><path d="M453.698 180h-1.94v2.05h1.94V180Z" opacity=".91"/><path d="M477.359 180.32h-1.32v1.4h1.32v-1.4Z" opacity=".94"/><path d="M488.98 180.73h-.57v.6h.57v-.6Z" opacity=".55"/><path d="M501.128 180.551h-.89v.94h.89v-.94Z" opacity=".6"/><path d="M513.77 179.861h-2.2v2.32h2.2v-2.32Z" opacity=".64"/><path d="M525.14 180.521h-.96v1.02h.96v-1.02Z" opacity=".76"/><path d="M561.029 180.602h-.81v.86h.81v-.86Z" opacity=".91"/><path d="M573.308 180.291h-1.39v1.47h1.39v-1.47Z" opacity=".94"/><path d="M584.94 180.67h-.67v.71h.67v-.71Z" opacity=".93"/><path d="M598.348 179.16h-3.52v3.72h3.52v-3.72Z" opacity=".5"/><path d="M453.27 193.131h-1.09v1.15h1.09v-1.15Z" opacity=".76"/><path d="M465.94 192.42h-2.44V195h2.44v-2.58Z" opacity=".69"/><path d="M489.849 192.49h-2.31v2.44h2.31v-2.44Z" opacity=".76"/><path d="M501.45 192.891h-1.54v1.63h1.54v-1.63Z" opacity=".93"/><path d="M513.791 192.521h-2.24v2.37h2.24v-2.37Z" opacity=".73"/><path d="M526.81 191.441h-4.29v4.53h4.29v-4.53Z" opacity=".66"/><path d="M536.921 193.42h-.55v.59h.55v-.59Z" opacity=".71"/><path d="M549.26 193.051h-1.24v1.31h1.24v-1.31Z" opacity=".75"/><path d="M561.451 192.83h-1.65v1.75h1.65v-1.75Z" opacity=".59"/><path d="M585.54 192.711h-1.88v1.99h1.88v-1.99Z" opacity=".73"/><path d="M454.417 204.602h-3.39v3.59h3.39v-3.59Z" opacity=".55"/><path d="M466.321 204.701h-3.2v3.39h3.2v-3.39Z" opacity=".74"/><path d="M477.328 205.73h-1.25v1.32h1.25v-1.32Z" opacity=".85"/><path d="M489.819 205.201h-2.26v2.39h2.26v-2.39Z" opacity=".72"/><path d="M513.809 205.191h-2.27v2.4h2.27v-2.4Z" opacity=".63"/><path d="M538.517 204.41h-3.74v3.96h3.74v-3.96Z" opacity=".58"/><path d="M549.378 205.611h-1.48v1.57h1.48v-1.57Z" opacity=".86"/><path d="M573.238 205.73h-1.25v1.32h1.25v-1.32Z" opacity=".94"/><path d="M586.778 204.09h-4.36v4.61h4.36v-4.61Z" opacity=".81"/><path d="M596.928 206.041h-.67v.71h.67v-.71Z" opacity=".75"/><path d="M465.301 218.461h-1.16v1.23h1.16v-1.23Z" opacity=".93"/><path d="M477.771 217.951h-2.13v2.26h2.13v-2.26Z" opacity=".75"/><path d="M489.648 218.061h-1.91v2.02h1.91v-2.02Z" opacity=".56"/><path d="M514.36 217.291h-3.38v3.58h3.38v-3.58Z" opacity=".81"/><path d="M537.401 218.281h-1.51v1.6h1.51v-1.6Z" opacity=".67"/><path d="M550.329 217.291h-3.38v3.58h3.38v-3.58Z" opacity=".57"/><path d="M561.69 217.951h-2.12v2.24h2.12v-2.24Z" opacity=".6"/><path d="M573 218.67h-.77v.81h.77v-.81Z" opacity=".65"/><path d="M586.599 216.971h-3.99v4.22h3.99v-4.22Z" opacity=".59"/><path d="M597.379 218.25h-1.57v1.66h1.57v-1.66Z" opacity=".93"/><path d="M453.489 230.961h-1.52v1.6h1.52v-1.6Z" opacity=".64"/><path d="M465.46 230.971h-1.48v1.57h1.48v-1.57Z" opacity=".5"/><path d="M477.849 230.551h-2.29v2.42h2.29v-2.42Z" opacity=".81"/><path d="M489.4 231.021H488v1.48h1.4v-1.48Z" opacity=".76"/><path d="M501.059 231.361h-.75v.79h.75v-.79Z" opacity=".8"/><path d="M515.78 228.471h-6.21v6.57h6.21v-6.57Z" opacity=".87"/><path d="M525.939 230.41h-2.56v2.7h2.56v-2.7Z" opacity=".62"/><path d="M537.39 230.971h-1.48v1.57h1.48v-1.57Z" opacity=".54"/><path d="M549.649 230.691h-2.02v2.14h2.02v-2.14Z" opacity=".51"/><path d="M573.46 230.871h-1.69v1.78h1.69v-1.78Z" opacity=".87"/><path d="M585.94 230.352h-2.67v2.82h2.67v-2.82Z" opacity=".6"/><path d="M597.828 230.451h-2.48v2.62h2.48v-2.62Z" opacity=".82"/><path d="M443.091 241.961h-4.7v4.97h4.7v-4.97Z" opacity=".78"/><path d="M454.888 242.16h-4.31v4.56h4.31v-4.56Z" opacity=".83"/><path d="M464.997 244.141h-.559v.6h.559v-.6Z" opacity=".87"/><path d="M477.849 243.23h-2.29v2.42h2.29v-2.42Z" opacity=".92"/><path d="M514.649 242.352h-3.95v4.17h3.95v-4.17Z" opacity=".61"/><path d="M525.238 243.83h-1.16v1.23h1.16v-1.23Z" opacity=".66"/><path d="M538.888 242.08h-4.47v4.72h4.47v-4.72Z" opacity=".77"/><path d="M550.151 242.84h-3.03v3.2h3.03v-3.2Z" opacity=".85"/><path d="M561.467 243.551h-1.69v1.78h1.69v-1.78Z" opacity=".64"/><path d="M585.808 243.16h-2.41v2.55h2.41v-2.55Z" opacity=".71"/><path d="M598.098 242.852h-3.02v3.19h3.02v-3.19Z" opacity=".9"/><path d="M453.509 256.301h-1.56v1.65h1.56v-1.65Z" opacity=".87"/><path d="M465.52 256.271h-1.61v1.7h1.61v-1.7Z" opacity=".68"/><path d="M478.01 255.75h-2.6v2.75h2.6v-2.75Z" opacity=".73"/><path d="M489.398 256.381h-1.41v1.49h1.41v-1.49Z" opacity=".75"/><path d="M501.758 255.98h-2.16v2.29h2.16v-2.29Z" opacity=".85"/><path d="M513.398 256.352h-1.46v1.55h1.46v-1.55Z" opacity=".68"/><path d="M525.769 255.951h-2.21v2.34h2.21v-2.34Z" opacity=".9"/><path d="M562.44 255.211h-3.62v3.83h3.62v-3.83Z" opacity=".77"/><path d="M573.047 256.67h-.859v.91h.859v-.91Z" opacity=".84"/><path d="M586.399 255.221h-3.59v3.8h3.59v-3.8Z" opacity=".72"/><path d="M597.079 256.611h-.97v1.02h.97v-1.02Z" opacity=".5"/><path d="M465.319 269.17h-1.21v1.28h1.21v-1.28Z" opacity=".91"/><path d="M477.099 269.391h-.79v.83h.79v-.83Z" opacity=".9"/><path d="M489.569 268.871h-1.76v1.86h1.76v-1.86Z" opacity=".84"/><path d="M501.077 269.381h-.8v.85h.8v-.85Z" opacity=".7"/><path d="M513.37 269.07h-1.39v1.47h1.39v-1.47Z" opacity=".81"/><path d="M525.871 268.531h-2.41v2.55h2.41v-2.55Z" opacity=".77"/><path d="M538.458 267.891h-3.63v3.84h3.63v-3.84Z" opacity=".72"/><path d="M549.819 268.551h-2.37v2.5h2.37v-2.5Z" opacity=".71"/><path d="M560.828 269.59h-.41v.43h.41v-.43Z" opacity=".72"/><path d="M573.931 268.42h-2.63v2.78h2.63v-2.78Z" opacity=".51"/><path d="M585.23 269.15h-1.25v1.32h1.25v-1.32Z" opacity=".67"/><path d="M597.397 268.951h-1.62v1.72h1.62v-1.72Z" opacity=".93"/><path d="M453.03 282.17h-.6v.63h.6v-.63Z" opacity=".57"/><path d="M465.34 281.83h-1.25v1.33h1.25v-1.33Z" opacity=".68"/><path d="M478.211 280.9h-3v3.17h3v-3.17Z" opacity=".91"/><path d="M489.011 282.15h-.64v.68h.64v-.68Z" opacity=".74"/><path d="M501.819 281.281h-2.28v2.41h2.28v-2.41Z" opacity=".77"/><path d="M513.758 281.33h-2.18v2.31h2.18v-2.31Z" opacity=".91"/><path d="M525.969 281.111h-2.61v2.76h2.61v-2.76Z" opacity=".71"/><path d="M537.849 281.221h-2.4v2.53h2.4v-2.53Z" opacity=".62"/><path d="M549.258 281.83h-1.25v1.32h1.25v-1.32Z" opacity=".83"/><path d="M561.078 282.012h-.91v.96h.91v-.96Z" opacity=".58"/><path d="M572.75 282.352h-.27v.28h.27v-.28Z" opacity=".55"/><path d="M585.251 281.811h-1.29v1.36h1.29v-1.36Z" opacity=".8"/><path d="M597.049 282h-.92v.97h.92V282Z" opacity=".83"/><path d="M464.997 294.881h-.559v.59h.559v-.59Z" opacity=".62"/><path d="M477.459 294.371h-1.51v1.6h1.51v-1.6Z" opacity=".78"/><path d="M489.73 294.08h-2.07v2.19h2.07v-2.19Z" opacity=".71"/><path d="M501.7 294.09h-2.04v2.16h2.04v-2.16Z" opacity=".55"/><path d="M513.459 294.34h-1.58v1.67h1.58v-1.67Z" opacity=".65"/><path d="M525.019 294.801h-.71v.75h.71v-.75Z" opacity=".6"/><path d="M537.228 294.57h-1.15v1.21h1.15v-1.21Zm11.993-.019h-1.17v1.24h1.17v-1.24Z" opacity=".87"/><path d="M561.369 294.381h-1.49v1.58h1.49v-1.58Z" opacity=".92"/><path d="M574.118 293.57h-3.02v3.2h3.02v-3.2Z" opacity=".88"/><path d="M585.458 294.262h-1.72v1.82h1.72v-1.82Z" opacity=".65"/><path d="M597.74 293.951h-2.31v2.45h2.31v-2.45Z" opacity=".8"/><path d="M453.421 307.131h-1.37v1.45h1.37v-1.45Z" opacity=".62"/><path d="M464.86 307.711h-.27v.28h.27v-.28Z" opacity=".92"/><path d="M479.068 305.361h-4.72v4.99h4.72v-4.99Z" opacity=".78"/><path d="M489.929 306.551h-2.46v2.6h2.46v-2.6Z" opacity=".88"/><path d="M513.07 307.432h-.8v.85h.8v-.85Z" opacity=".79"/><path d="M538.03 306.4h-2.76v2.92h2.76v-2.92Z" opacity=".69"/><path d="M550.389 306h-3.51v3.72h3.51V306Z" opacity=".64"/><path d="M561.358 307.08h-1.46v1.54h1.46v-1.54Z" opacity=".8"/><path d="M574.859 305.471h-4.5v4.77h4.5v-4.77Z" opacity=".84"/><path d="M586.159 306.201h-3.12v3.3h3.12v-3.3Z" opacity=".86"/><path d="M598.629 305.701h-4.07v4.3h4.07v-4.3Z" opacity=".53"/><path d="M478.189 318.971h-2.97v3.14h2.97v-3.14Z" opacity=".84"/><path d="M490.378 318.762h-3.37v3.56h3.37v-3.56Z" opacity=".68"/><path d="M503.458 317.602h-5.56v5.88h5.56v-5.88Z" opacity=".85"/><path d="M526.1 319.021h-2.87v3.03h2.87v-3.03Z" opacity=".81"/><path d="M537.819 319.301h-2.35v2.49h2.35v-2.49Z" opacity=".53"/><path d="M551.088 317.951h-4.9v5.18h4.9v-5.18Z" opacity=".64"/><path d="M562.34 318.73h-3.43v3.63h3.43v-3.63Z" opacity=".63"/><path d="M597.381 319.701h-1.58v1.67h1.58v-1.67Z" opacity=".87"/><path d="M453.73 332.16h-2v2.12h2v-2.12Z" opacity=".73"/><path d="M464.858 333.08h-.28v.29h.28v-.29Z" opacity=".67"/><path d="M477.068 332.84h-.72v.76h.72v-.76Z" opacity=".55"/><path d="M488.92 332.99h-.44v.46h.44v-.46Z" opacity=".86"/><path d="M501.468 332.391h-1.57v1.66h1.57v-1.66Z" opacity=".52"/><path d="M513.938 331.881h-2.54v2.68h2.54v-2.68Z" opacity=".74"/><path d="M525.978 331.83h-2.63v2.78h2.63v-2.78Z" opacity=".9"/><path d="M537.8 332.012h-2.3v2.43h2.3v-2.43Z" opacity=".52"/><path d="M550.53 331.221h-3.78v4h3.78v-4Z" opacity=".54"/><path d="M561.889 331.881h-2.53v2.67h2.53v-2.67Z" opacity=".66"/><path d="M573.71 332.061h-2.19v2.32h2.19v-2.32Z" opacity=".94"/><path d="M584.849 332.961h-.49v.52h.49v-.52Z" opacity=".93"/><path d="M598.869 330.811h-4.56v4.82h4.56v-4.82Z" opacity=".67"/><path d="M454.829 343.682h-4.2v4.44h4.2v-4.44Z" opacity=".93"/><path d="M466.479 344.041h-3.53v3.73h3.53v-3.73Z" opacity=".69"/><path d="M476.969 345.631h-.52v.55h.52v-.55Z" opacity=".79"/><path d="M488.931 345.66h-.47v.5h.47v-.5Z" opacity=".74"/><path d="M500.901 345.67h-.44v.46h.44v-.46Z" opacity=".77"/><path d="M514.34 344.141H511v3.54h3.34v-3.54Z" opacity=".73"/><path d="M526.74 343.701h-4.17v4.42h4.17v-4.42Z" opacity=".59"/><path d="M537.12 345.41h-.94v.99h.94v-.99Z" opacity=".8"/><path d="M549.169 345.34h-1.06v1.12h1.06v-1.12Z" opacity=".53"/><path d="M562.379 344.041h-3.52v3.73h3.52v-3.73Z" opacity=".84"/><path d="M572.919 345.58h-.61v.65h.61v-.65Z" opacity=".82"/><path d="M596.928 345.551h-.67v.71h.67v-.71Z" opacity=".69"/><path d="M453.52 357.75h-1.59v1.68h1.59v-1.68Z" opacity=".85"/><path d="M477.23 358.031h-1.05v1.11h1.05v-1.11Z" opacity=".8"/><path d="M490.269 356.91h-3.16v3.35h3.16v-3.35Z" opacity=".64"/><path d="M501.53 357.701h-1.69v1.78h1.69v-1.78Z" opacity=".54"/><path d="M513.221 358.012h-1.1v1.16h1.1v-1.16Z" opacity=".65"/><path d="M525.728 357.461h-2.13v2.25h2.13v-2.25Z" opacity=".67"/><path d="M548.979 358.221h-.69v.73h.69v-.73Z" opacity=".94"/><path d="M560.988 358.201h-.73v.77h.73v-.77Z" opacity=".74"/><path d="M573.919 357.211h-2.61v2.76h2.61v-2.76Z" opacity=".69"/><path d="M585.841 357.281h-2.47v2.61h2.47v-2.61Z" opacity=".85"/><path d="M598.291 356.791h-3.4v3.6h3.4v-3.6Z" opacity=".82"/><path d="M466.069 369.84h-2.71v2.87h2.71v-2.87Z" opacity=".91"/><path d="M478.32 369.561h-3.23v3.42h3.23v-3.42Z" opacity=".79"/><path d="M489.238 370.691h-1.09v1.15h1.09v-1.15Z" opacity=".74"/><path d="M502.198 369.67h-3.03v3.2h3.03v-3.2Z" opacity=".6"/><path d="M513.731 370.15h-2.11v2.23h2.11v-2.23Z" opacity=".78"/><path d="M524.921 370.99h-.53v.56h.53v-.56Z" opacity=".52"/><path d="M537.148 370.74h-1v1.06h1v-1.06Z" opacity=".64"/><path d="M549.18 370.701h-1.09v1.15h1.09v-1.15Z" opacity=".61"/><path d="M561.57 370.271h-1.89v2h1.89v-2Z" opacity=".9"/><path d="M573.55 370.281h-1.87v1.97h1.87v-1.97Z" opacity=".69"/><path d="M597.59 370.211h-2v2.12h2v-2.12Z" opacity=".75"/><path d="M454.089 382.521h-2.71v2.871h2.71v-2.871Z" opacity=".56"/><path d="M466.16 382.42h-2.89v3.06h2.89v-3.06Z" opacity=".5"/><path d="M477.859 382.74h-2.3v2.43h2.3v-2.43Z" opacity=".73"/><path d="M488.921 383.711h-.46v.49h.46v-.49Z" opacity=".79"/><path d="M502.528 382h-3.7v3.92h3.7V382Z" opacity=".88"/><path d="M513.188 383.4h-1.04v1.1h1.04v-1.1Z" opacity=".55"/><path d="M526.138 382.391h-2.95v3.12h2.95v-3.12Z" opacity=".82"/><path d="M549.628 382.9h-1.98v2.1h1.98v-2.1Z" opacity=".75"/><path d="M561.32 383.221h-1.39v1.47h1.39v-1.47Z" opacity=".94"/><path d="M573.45 383.061h-1.68v1.78h1.68v-1.78Z" opacity=".65"/><path d="M585.251 383.271h-1.29v1.361h1.29v-1.361Z" opacity=".73"/><path d="M597.291 383.211h-1.4v1.48h1.4v-1.48Z" opacity=".78"/><path d="M443.5 393.721h-5.52v5.84h5.52v-5.84Z" opacity=".8"/><path d="M453.667 395.631h-1.89v2h1.89v-2Z" opacity=".6"/><path d="M466.311 394.961h-3.17v3.35h3.17v-3.35Z" opacity=".74"/><path d="M476.99 396.34h-.56v.59h.56v-.59Z" opacity=".68"/><path d="M501.948 395.301h-2.53v2.68h2.53v-2.68Z" opacity=".64"/><path d="M513.32 395.951h-1.3v1.38h1.3v-1.38Z" opacity=".56"/><path d="M536.95 396.311h-.61v.65h.61v-.65Z" opacity=".55"/><path d="M549.159 396.08h-1.05v1.11h1.05v-1.11Z" opacity=".88"/><path d="M561.318 395.9h-1.4v1.48h1.4v-1.48Z" opacity=".51"/><path d="M573.868 395.301h-2.52v2.67h2.52v-2.67Z" opacity=".83"/><path d="M585.18 396.021h-1.16v1.23h1.16v-1.23Z" opacity=".8"/><path d="M598.328 394.791h-3.48v3.68h3.48v-3.68Z" opacity=".78"/><path d="M454.628 407.311h-3.8v4.02h3.8v-4.02Z" opacity=".84"/><path d="M465.36 408.631h-1.29v1.37h1.29v-1.37Z" opacity=".77"/><path d="M479.19 406.701h-4.96v5.25h4.96v-5.25Z" opacity=".93"/><path d="M490.948 406.932h-4.51v4.77h4.51v-4.77Z" opacity=".5"/><path d="M501.049 408.932h-.74v.78h.74v-.78Z" opacity=".82"/><path d="M513.25 408.711h-1.16v1.23h1.16v-1.23Z" opacity=".86"/><path d="M524.769 409.201h-.23v.25h.23v-.25Z" opacity=".52"/><path d="M537.989 407.9h-2.68v2.84h2.68v-2.84Z" opacity=".6"/><path d="M551.168 406.641h-5.07v5.36h5.07v-5.36Z" opacity=".79"/><path d="M561.301 408.611h-1.34v1.42h1.34v-1.42Z" opacity=".94"/><path d="M573.339 408.551h-1.46v1.55h1.46v-1.55Z" opacity=".67"/><path d="M587.331 406.432h-5.46v5.78h5.46v-5.78Z" opacity=".84"/><path d="M597.758 408.08h-2.34v2.48h2.34v-2.48Z" opacity=".83"/><path d="M454.011 420.66h-2.55v2.69h2.55v-2.69Zm12.04-.07h-2.66v2.82h2.66v-2.82Z" opacity=".92"/><path d="M478.238 420.381h-3.07v3.24h3.07v-3.24Z" opacity=".68"/><path d="M490.138 420.48h-2.88v3.04h2.88v-3.04Z" opacity=".83"/><path d="M502.241 420.361h-3.1v3.28h3.1v-3.28Z" opacity=".7"/><path d="M513.02 421.631h-.7v.74h.7v-.74Z" opacity=".61"/><path d="M525.749 420.84h-2.19v2.32h2.19v-2.32Z" opacity=".83"/><path d="M548.909 421.711h-.55v.58h.55v-.58Z" opacity=".5"/><path d="M561.029 421.57h-.81v.86h.81v-.86Z" opacity=".88"/><path d="M573.279 421.301h-1.33v1.4h1.33v-1.4Z" opacity=".75"/><path d="M585.18 421.391h-1.16v1.23h1.16v-1.23Z" opacity=".71"/><path d="M597.899 420.621h-2.61v2.76h2.61v-2.76Z" opacity=".89"/><path d="M453.649 433.711h-1.84v1.94h1.84v-1.94Z" opacity=".72"/><path d="M465.469 433.891h-1.5v1.59h1.5v-1.59Z" opacity=".62"/><path d="M479.211 432.041h-5v5.29h5v-5.29Z" opacity=".87"/><path d="M488.919 434.451h-.45v.48h.45v-.48Z" opacity=".62"/><path d="M502.409 432.861h-3.46v3.66h3.46v-3.66Z" opacity=".8"/><path d="M513.059 434.281h-.77v.81h.77v-.81Z" opacity=".67"/><path d="M525.361 433.951h-1.4v1.48h1.4v-1.48Z" opacity=".62"/><path d="M537.86 433.4h-2.43v2.57h2.43v-2.57Z" opacity=".63"/><path d="M549.78 433.48h-2.28v2.42h2.28v-2.42Z" opacity=".92"/><path d="M562.318 432.9h-3.38v3.57h3.38v-3.57Z" opacity=".67"/><path d="M574.388 432.801h-3.56v3.77h3.56v-3.77Z" opacity=".73"/><path d="M597.561 433.66h-1.94v2.05h1.94v-2.05Z" opacity=".52"/><path d="M465.071 447h-.7v.74h.7V447Z" opacity=".72"/><path d="M477.35 446.691h-1.28v1.36h1.28v-1.36Z" opacity=".53"/><path d="M490.478 445.49h-3.56v3.77h3.56v-3.77Z" opacity=".83"/><path d="M502.02 445.951h-2.68v2.83h2.68v-2.83Z" opacity=".69"/><path d="M525.359 446.621h-1.41v1.5h1.41v-1.5Z" opacity=".54"/><path d="M536.9 447.111h-.49v.51h.49v-.51Z" opacity=".65"/><path d="M549.061 446.92h-.85v.9h.85v-.9Z" opacity=".71"/><path d="M574.909 444.932h-4.6v4.87h4.6v-4.87Z" opacity=".66"/><path d="M586.491 445.371h-3.78v4h3.78v-4Z" opacity=".62"/><path d="M597.498 446.4h-1.83v1.94h1.83v-1.94Z" opacity=".67"/><path d="M453.29 459.451h-1.13v1.2h1.13v-1.2Z" opacity=".53"/><path d="M489.87 458.811h-2.35v2.49h2.35v-2.49Zm11.539.47h-1.46v1.55h1.46v-1.55Z" opacity=".6"/><path d="M526.208 458.4h-3.11v3.29h3.11v-3.29Z" opacity=".93"/><path d="M538.001 458.621h-2.7v2.86h2.7v-2.86Z" opacity=".94"/><path d="M550.391 458.201h-3.5v3.7h3.5v-3.7Z" opacity=".8"/><path d="M562.33 458.24h-3.42v3.62h3.42v-3.62Z" opacity=".65"/><path d="M574.349 458.211h-3.47v3.67h3.47v-3.67Z" opacity=".72"/><path d="M597.479 459.111h-1.78v1.88h1.78v-1.88Z" opacity=".83"/><path d="M453.667 471.73h-1.89v2h1.89v-2Z" opacity=".79"/><path d="M465.151 472.291h-.85v.9h.85v-.9Z" opacity=".87"/><path d="M478.371 470.98h-3.32v3.51h3.32v-3.51Z" opacity=".86"/><path d="M489.429 471.961h-1.46v1.54h1.46v-1.54Z" opacity=".84"/><path d="M514.61 470.682h-3.88v4.1h3.88v-4.1Z" opacity=".5"/><path d="M525.958 471.352h-2.61v2.77h2.61v-2.77Z" opacity=".9"/><path d="M537.751 471.57h-2.2v2.33h2.2v-2.33Zm23.679.311h-1.61v1.7h1.61v-1.7Z" opacity=".74"/><path d="M572.759 472.58h-.29v.31h.29v-.31Z" opacity=".69"/><path d="M585.001 472.32h-.79v.83h.79v-.83Z" opacity=".67"/><path d="M465.788 484.291h-2.14v2.26h2.14v-2.26Z" opacity=".89"/><path d="M478.791 483.211h-4.17v4.42h4.17v-4.42Z" opacity=".92"/><path d="M489.529 484.531h-1.67v1.77h1.67v-1.77Z" opacity=".86"/><path d="M501.15 484.932h-.92v.97h.92v-.97Z" opacity=".89"/><path d="M513.041 485.031h-.74v.78h.74v-.78Z" opacity=".77"/><path d="M525.271 484.771h-1.22v1.29h1.22v-1.29Z" opacity=".61"/><path d="M537.849 484.15h-2.4v2.54h2.4v-2.54Z" opacity=".78"/><path d="M549.161 484.871h-1.04v1.1h1.04v-1.1Z" opacity=".51"/><path d="M562.861 483.051h-4.47v4.73h4.47v-4.73Z" opacity=".59"/><path d="M572.8 485.221h-.37v.39h.37v-.39Z" opacity=".58"/><path d="M597.94 484h-2.69v2.85h2.69V484Z" opacity=".75"/><path d="M454.468 496.262h-3.48v3.68h3.48v-3.68Zm11.679.318h-2.87v3.04h2.87v-3.04Z" opacity=".9"/><path d="M478.678 496.021h-3.94v4.17h3.94v-4.17Z" opacity=".77"/><path d="M501.501 497.24h-1.63v1.73h1.63v-1.73Z" opacity=".82"/><path d="M512.961 497.801h-.57v.6h.57v-.6Z" opacity=".74"/><path d="M525.191 497.551h-1.05v1.11h1.05v-1.11Z" opacity=".6"/><path d="M537.298 497.41h-1.31v1.38h1.31v-1.38Z" opacity=".86"/><path d="M548.891 497.83h-.5v.53h.5v-.53Z" opacity=".93"/><path d="M561.92 496.721h-2.6v2.75h2.6v-2.75Z" opacity=".62"/><path d="M573.48 497.191h-1.73v1.83h1.73v-1.83Z" opacity=".55"/><path d="M585.089 497.58h-.98v1.03h.98v-1.03Z" opacity=".89"/><path d="M597.26 497.4h-1.33v1.4h1.33v-1.4Z" opacity=".66"/><path d="M453.149 510.34h-.84v.89h.84v-.89Zm11.94.06h-.73v.77h.73v-.77Z" opacity=".77"/><path d="M478.887 508.48h-4.36v4.61h4.36v-4.61Z" opacity=".51"/><path d="M491.339 507.99h-5.28v5.58h5.28v-5.58Z" opacity=".64"/><path d="M501.899 509.5h-2.43v2.57h2.43v-2.57Z" opacity=".84"/><path d="M513.141 510.291h-.93v.99h.93v-.99Z" opacity=".7"/><path d="M525.488 509.9h-1.66v1.76h1.66v-1.76Z" opacity=".58"/><path d="M537.099 510.311h-.9v.95h.9v-.95Z" opacity=".5"/><path d="M549.098 510.291h-.93v.99h.93v-.99Z" opacity=".75"/><path d="M561.227 510.15h-1.2v1.26h1.2v-1.26Z" opacity=".54"/><path d="M573.66 509.682h-2.09v2.21h2.09v-2.21Z" opacity=".72"/><path d="M585.319 510.021h-1.44v1.521h1.44v-1.521Z" opacity=".69"/><path d="M597.481 509.852h-1.77v1.87h1.77v-1.87Z" opacity=".51"/><path d="M453.628 522.512h-1.8v1.91h1.8v-1.91Z" opacity=".89"/><path d="M465.659 522.48h-1.87v1.981h1.87v-1.981Z" opacity=".52"/><path d="M489.779 522.32h-2.17v2.3h2.17v-2.3Z" opacity=".86"/><path d="M501.96 522.121h-2.55v2.7h2.55v-2.7Z" opacity=".89"/><path d="M513.971 522.09h-2.6v2.76h2.6v-2.76Z" opacity=".9"/><path d="M525.101 522.99h-.89v.95h.89v-.95Z" opacity=".72"/><path d="M538.138 521.881h-2.99v3.17h2.99v-3.17Z" opacity=".87"/><path d="M548.911 523.182h-.54v.57h.54v-.57Z" opacity=".56"/><path d="M562.461 521.531h-3.66v3.87h3.66v-3.87Z" opacity=".75"/><path d="M574.548 521.41h-3.88v4.11h3.88v-4.11Z" opacity=".7"/><path d="M586.161 521.82h-3.11v3.29h3.11v-3.29Z" opacity=".79"/><path d="M597.721 522.271h-2.26v2.39h2.26v-2.39Z" opacity=".78"/><path d="M443.039 533.721h-4.59v4.86h4.59v-4.86Z" opacity=".53"/><path d="M453.718 535.102h-1.98v2.1h1.98v-2.1Z" opacity=".81"/><path d="M465.59 535.221h-1.75v1.85h1.75v-1.85Z" opacity=".94"/><path d="M476.998 535.84h-.58v.61h.58v-.61Z" opacity=".83"/><path d="M490.138 534.611h-2.9v3.07h2.9v-3.07Z" opacity=".66"/><path d="M501.809 534.961h-2.25v2.38h2.25v-2.38Z" opacity=".64"/><path d="M514.178 534.561h-3.01v3.18h3.01v-3.18Z" opacity=".93"/><path d="M537.89 534.84h-2.48v2.62h2.48v-2.62Z" opacity=".89"/><path d="M551.008 533.641h-4.75v5.02h4.75v-5.02Z" opacity=".78"/><path d="M561.021 535.73h-.791v.84h.791v-.84Z" opacity=".92"/><path d="M572.879 535.881h-.52v.55h.52v-.55Z" opacity=".79"/><path d="M585.639 535.051h-2.08v2.2h2.08v-2.2Z" opacity=".77"/><path d="M455.89 545.49h-6.32v6.69h6.32v-6.69Z" opacity=".7"/><path d="M466.907 546.512h-4.38v4.64h4.38v-4.64Z" opacity=".73"/><path d="M477.789 547.691h-2.16v2.29h2.16v-2.29Z" opacity=".5"/><path d="M489.068 548.441h-.74v.78h.74v-.78Z" opacity=".78"/><path d="M501.628 547.83h-1.89v2h1.89v-2Z" opacity=".91"/><path d="M513.719 547.73h-2.09v2.21h2.09v-2.21Z" opacity=".62"/><path d="M525.35 548.111h-1.37v1.45h1.37v-1.45Z" opacity=".73"/><path d="M537.96 547.441h-2.62v2.78h2.62v-2.78Z" opacity=".69"/><path d="M550.52 546.84h-3.77v3.99h3.77v-3.99Z" opacity=".83"/><path d="M561.057 548.371h-.869v.92h.869v-.92Z" opacity=".72"/><path d="M574.71 546.611h-4.19v4.44h4.19v-4.44Z" opacity=".94"/><path d="M586.241 547.102h-3.28v3.47h3.28v-3.47Z" opacity=".93"/><path d="M597.559 547.811h-1.93v2.04h1.93v-2.04Z" opacity=".55"/><path d="M454.12 560.051h-2.78v2.94h2.78v-2.94Z" opacity=".7"/><path d="M465.891 560.281h-2.34v2.47h2.34v-2.47Z" opacity=".92"/><path d="M478.058 560.08h-2.71v2.86h2.71v-2.86Z" opacity=".71"/><path d="M488.888 561.301h-.4v.43h.4v-.43Z" opacity=".62"/><path d="M514.5 559.58h-3.66v3.87h3.66v-3.87Z" opacity=".71"/><path d="M524.99 561.17h-.65v.68h.65v-.68Z" opacity=".7"/><path d="M537.491 560.621h-1.69v1.79h1.69v-1.79Z" opacity=".73"/><path d="M549.678 560.42h-2.08v2.2h2.08v-2.2Z" opacity=".88"/><path d="M563.531 558.432h-5.82v6.16h5.82v-6.16Z" opacity=".59"/><path d="M572.978 561.121h-.74v.78h.74v-.78Z" opacity=".73"/><path d="M584.768 561.34h-.33v.35h.33v-.35Z" opacity=".59"/><path d="M598.598 559.391h-4.02v4.25h4.02v-4.25Z" opacity=".51"/><path d="M454.2 572.641h-2.95v3.13h2.95v-3.13Z" opacity=".54"/><path d="M466.157 572.67h-2.88v3.05h2.88v-3.05Z" opacity=".81"/><path d="M477.76 573.09h-2.1v2.22h2.1v-2.22Z" opacity=".91"/><path d="M489.56 573.291h-1.72v1.81h1.72v-1.81Z" opacity=".82"/><path d="M501.409 573.432h-1.46v1.54h1.46v-1.54Z" opacity=".92"/><path d="M513.25 573.58h-1.16v1.23h1.16v-1.23Z" opacity=".52"/><path d="M525.921 572.861h-2.53v2.68h2.53v-2.68Z" opacity=".55"/><path d="M549.618 573.15h-1.97v2.09h1.97v-2.09Z" opacity=".66"/><path d="M561.168 573.621h-1.09v1.15h1.09v-1.15Z" opacity=".91"/><path d="M573.07 573.721h-.91v.96h.91v-.96Z" opacity=".56"/><path d="M585.161 573.611h-1.11v1.17h1.11v-1.17Z" opacity=".88"/><path d="M452.87 586.73h-.28v.301h.28v-.301Z" opacity=".9"/><path d="M465.829 585.711h-2.22v2.35h2.22v-2.35Z" opacity=".68"/><path d="M478.258 585.24h-3.11v3.29h3.11v-3.29Z" opacity=".91"/><path d="M489.429 586.102h-1.48v1.57h1.48v-1.57Z" opacity=".87"/><path d="M525.871 585.611h-2.41v2.55h2.41v-2.55Z" opacity=".8"/><path d="M537.05 586.461h-.8v.84h.8v-.84Z" opacity=".85"/><path d="M550.378 585.041h-3.48v3.68h3.48v-3.68Z" opacity=".75"/><path d="M562.848 584.531h-4.45v4.71h4.45v-4.71Z" opacity=".55"/><path d="M574.778 584.58h-4.34v4.6h4.34v-4.6Z" opacity=".82"/><path d="M585.71 585.711h-2.21v2.34h2.21v-2.34Z" opacity=".89"/><path d="M597.26 586.182h-1.33v1.41h1.33v-1.41Z" opacity=".85"/><path d="M454.968 597.201h-4.48v4.74h4.48v-4.74Z" opacity=".57"/><path d="M466.61 597.561h-3.79v4.01h3.79v-4.01Z" opacity=".61"/><path d="M478.008 598.182h-2.61v2.76h2.61v-2.76Z" opacity=".78"/><path d="M488.878 599.371h-.37v.39h.37v-.39Z" opacity=".87"/><path d="M500.87 599.371h-.37v.39h.37v-.39Z" opacity=".61"/><path d="M513.067 599.15h-.79v.83h.79v-.83Z" opacity=".84"/><path d="M526.027 598.111h-2.75v2.91h2.75v-2.91Zm23.364.66h-1.5v1.59h1.5v-1.59Z" opacity=".74"/><path d="M573.24 598.9h-1.26v1.34h1.26v-1.34Z" opacity=".52"/><path d="M586.669 597.381h-4.13v4.37h4.13v-4.37Z" opacity=".57"/><path d="M598.489 597.561h-3.79v4.01h3.79v-4.01Z" opacity=".54"/><path d="M453.319 611.621h-1.19v1.26h1.19v-1.26Z" opacity=".52"/><path d="M501.668 611.201h-1.98v2.1h1.98v-2.1Z" opacity=".71"/><path d="M514.008 610.83h-2.68v2.83h2.68v-2.83Z" opacity=".84"/><path d="M536.979 611.891h-.67v.71h.67v-.71Z" opacity=".69"/><path d="M548.997 611.871h-.72v.76h.72v-.76Z" opacity=".65"/><path d="M560.889 611.971h-.53v.56h.53v-.56Z" opacity=".91"/><path d="M573.681 611.121h-2.13v2.25h2.13v-2.25Z" opacity=".76"/><path d="M586.841 609.891h-4.47v4.72h4.47v-4.72Z" opacity=".75"/><path d="M453.261 624.381h-1.05v1.11h1.05v-1.11Z" opacity=".55"/><path d="M465.619 623.971h-1.81v1.92h1.81v-1.92Z" opacity=".56"/><path d="M478.248 623.301h-3.08v3.26h3.08v-3.26Z" opacity=".6"/><path d="M490.898 622.602h-4.41v4.66h4.41v-4.66Z" opacity=".53"/><path d="M502.798 622.701h-4.22v4.46h4.22v-4.46Z" opacity=".76"/><path d="M525.878 623.641h-2.44v2.58h2.44v-2.58Z" opacity=".83"/><path d="M536.96 624.602h-.62v.65h.62v-.65Z" opacity=".74"/><path d="M548.838 624.721h-.4v.42h.4v-.42Z" opacity=".59"/><path d="M561.838 623.65h-2.42v2.56h2.42v-2.56Z" opacity=".88"/><path d="M574.409 623.031h-3.6v3.81h3.6v-3.81Z" opacity=".8"/><path d="M586.069 623.381h-2.94v3.11h2.94v-3.11Z" opacity=".66"/><path d="M597.11 624.381h-1.04v1.1h1.04v-1.1Z" opacity=".62"/><path d="M454.161 636.102h-2.86v3.03h2.86v-3.03Z" opacity=".86"/><path d="M465.27 637.031h-1.11v1.17h1.11v-1.17Z" opacity=".53"/><path d="M478.41 635.811H475v3.61h3.41v-3.61Z" opacity=".78"/><path d="M489.57 636.691h-1.75v1.85h1.75v-1.85Z" opacity=".5"/><path d="M501.05 637.23h-.73v.77h.73v-.77Z" opacity=".9"/><path d="M513.6 636.641h-1.85v1.96h1.85v-1.96Z" opacity=".61"/><path d="M525.361 636.871h-1.4v1.48h1.4v-1.48Z" opacity=".75"/><path d="M538.081 636.102h-2.87v3.04h2.87v-3.04Z" opacity=".9"/><path d="M550.94 635.182h-4.6v4.87h4.6v-4.87Z" opacity=".74"/><path d="M574.57 635.551h-3.91v4.13h3.91v-4.13Z" opacity=".82"/><path d="M585.27 636.9h-1.34v1.42h1.34v-1.42Z" opacity=".5"/><path d="M597.397 636.762h-1.62v1.72h1.62v-1.72Z" opacity=".73"/><path d="M442.789 648.131h-4.09v4.33h4.09v-4.33Z" opacity=".63"/><path d="M454.65 648.271h-3.83v4.05h3.83v-4.05Z" opacity=".84"/><path d="M466.45 648.461h-3.47v3.67h3.47v-3.67Z" opacity=".92"/><path d="M477.449 649.512h-1.48v1.57h1.48v-1.57Z" opacity=".59"/><path d="M490.207 648.701h-3.019v3.19h3.019v-3.19Z" opacity=".51"/><path d="M501.749 649.182h-2.12v2.24h2.12v-2.24Z" opacity=".76"/><path d="M515.139 647.682h-4.94v5.23h4.94v-5.23Z" opacity=".84"/><path d="M525.959 648.92h-2.6v2.75h2.6v-2.75Zm11.071.971h-.76v.81h.76v-.81Z" opacity=".55"/><path d="M549.448 649.441h-1.62v1.72h1.62v-1.72Z" opacity=".89"/><path d="M561.189 649.701h-1.13v1.19h1.13v-1.19Z" opacity=".57"/><path d="M574.148 648.67h-3.07v3.24h3.07v-3.24Z" opacity=".92"/><path d="M586.329 648.471h-3.45v3.65h3.45v-3.65Z" opacity=".89"/><path d="M597.159 649.691h-1.139v1.21h1.139v-1.21Z" opacity=".6"/><path d="M453.321 662.361h-1.18v1.25h1.18v-1.25Z" opacity=".84"/><path d="M465.891 661.74h-2.34v2.48h2.34v-2.48Z" opacity=".79"/><path d="M477.14 662.521h-.87v.93h.87v-.93Zm11.988 0h-.87v.92h.87v-.92Z" opacity=".83"/><path d="M501.368 662.25h-1.38v1.46h1.38v-1.46Z" opacity=".56"/><path d="M513.26 662.361h-1.17v1.24h1.17v-1.24Z" opacity=".62"/><path d="M524.869 662.762h-.42v.44h.42v-.44Z" opacity=".91"/><path d="M537.06 662.541h-.83v.88h.83v-.88Z" opacity=".73"/><path d="M549.53 662.041h-1.78v1.88h1.78v-1.88Z" opacity=".92"/><path d="M561.211 662.371h-1.16v1.22h1.16v-1.22Z" opacity=".86"/><path d="M585.321 662.221h-1.43v1.51h1.43v-1.51Z" opacity=".51"/><path d="M599.979 659.391h-6.78v7.18h6.78v-7.18Z" opacity=".76"/><path d="M453.089 675.281h-.73v.77h.73v-.77Z" opacity=".89"/><path d="M465.96 674.352h-2.48v2.63h2.48v-2.63Z" opacity=".92"/><path d="M477.828 674.471h-2.25v2.38h2.25v-2.38Z" opacity=".6"/><path d="M488.88 675.471h-.36v.38h.36v-.38Z" opacity=".76"/><path d="M501.499 674.791h-1.64v1.74h1.64v-1.74Z" opacity=".85"/><path d="M513.43 674.861h-1.52v1.6h1.52v-1.6Z" opacity=".91"/><path d="M526.009 674.23h-2.7v2.861h2.7v-2.861Z" opacity=".94"/><path d="M537.239 675.041h-1.18v1.24h1.18v-1.24Z" opacity=".64"/><path d="M548.828 675.451h-.39v.42h.39v-.42Z" opacity=".77"/><path d="M561.74 674.49h-2.22v2.35h2.22v-2.35Zm12.431-.478h-3.12v3.3h3.12v-3.3Z" opacity=".83"/><path d="M585.741 674.461h-2.28v2.41h2.28v-2.41Zm11.746.25h-1.799v1.9h1.799v-1.9Z" opacity=".8"/><path d="M452.96 688.102h-.46v.49h.46v-.49Z" opacity=".69"/><path d="M465.61 687.41h-1.77v1.87h1.77v-1.87Z" opacity=".76"/><path d="M478.299 686.66h-3.19v3.37h3.19v-3.37Z" opacity=".93"/><path d="M501.608 687.371h-1.85v1.95h1.85v-1.95Z" opacity=".86"/><path d="M514.029 686.9h-2.72v2.88h2.72v-2.88Z" opacity=".93"/><path d="M524.859 688.131h-.41v.44h.41v-.44Z" opacity=".5"/><path d="M537.839 687.09h-2.37v2.5h2.37v-2.5Z" opacity=".58"/><path d="M549.391 687.551h-1.5v1.59h1.5v-1.59Z" opacity=".52"/><path d="M561.07 687.871h-.89v.94h.89v-.94Z" opacity=".5"/><path d="M584.968 687.961h-.73v.78h.73v-.78Z" opacity=".64"/><path d="M597.721 687.15h-2.26v2.39h2.26v-2.39Z" opacity=".75"/><path d="M466.119 699.541h-2.81v2.97h2.81v-2.97Z" opacity=".81"/><path d="M478.73 698.881h-4.05v4.29h4.05v-4.29Z" opacity=".84"/><path d="M489.001 700.701h-.61v.65h.61v-.65Z" opacity=".74"/><path d="M501.739 699.91h-2.11v2.23h2.11v-2.23Z" opacity=".89"/><path d="M513.541 700.111h-1.74v1.84h1.74v-1.84Z" opacity=".56"/><path d="M526.498 699.09h-3.67v3.88h3.67v-3.88Z" opacity=".63"/><path d="M537.431 700.201h-1.56v1.65h1.56v-1.65Z" opacity=".94"/><path d="M548.828 700.82h-.39v.41h.39v-.41Z" opacity=".68"/><path d="M561.529 700.07h-1.81v1.91h1.81v-1.91Z" opacity=".94"/><path d="M585.518 700.061h-1.83v1.93h1.83v-1.93Z" opacity=".76"/><path d="M597.788 699.771h-2.39v2.52h2.39v-2.52Z" opacity=".77"/></g><path fill="#1F375B" d="m598.29 356.791-1.72-1.03 1.08-1.46.64 2.49Z"/></g><defs><clipPath id="a"><path fill="#fff" d="M0 0h1080v1080H0z"/></clipPath></defs></svg>