<svg xmlns="http://www.w3.org/2000/svg" width="1080" height="1080" fill="none"><path fill="#000" d="M523.231 224.631c18.524 0 33.54-15.017 33.54-33.54 0-18.524-15.016-33.54-33.54-33.54-18.523 0-33.54 15.016-33.54 33.54 0 18.523 15.017 33.54 33.54 33.54ZM217.339 962.21c19.546 0 35.39-15.845 35.39-35.39 0-19.546-15.844-35.39-35.39-35.39-19.545 0-35.39 15.844-35.39 35.39 0 19.545 15.845 35.39 35.39 35.39Zm738.512-304.659c20.688 0 37.46-16.772 37.46-37.46 0-20.689-16.772-37.46-37.46-37.46-20.689 0-37.46 16.771-37.46 37.46 0 20.688 16.771 37.46 37.46 37.46Z"/><path fill="#000" stroke="#000" stroke-miterlimit="10" d="M955.848 574.89c-22.28 0-40.74 16.25-44.42 37.51h-275.26c-1.64-24.9-11.28-48.121-27.69-66.731l194.66-194.659c7.78 5.49 16.86 8.35 25.99 8.35 11.57 0 23.14-4.41 31.95-13.21 8.54-8.53 13.24-19.88 13.24-31.95s-4.7-23.43-13.24-31.95c-17.63-17.61-46.28-17.61-63.91 0-8.54 8.53-13.24 19.88-13.24 31.95 0 9.49 2.99 18.47 8.38 26.05l-194.64 194.64c-18.62-16.41-41.84-26.05-66.73-27.69V231.88c21.23-3.69 37.47-22.14 37.47-44.41 0-24.92-20.28-45.2-45.2-45.2s-45.2 20.27-45.2 45.2c0 22.33 16.33 40.81 37.65 44.43v275.27c-27 1.77-52.09 12.749-71.25 31.549-20.41 19.72-32.29 45.661-34.14 73.681h-128c-3.67-21.26-22.13-37.51-44.42-37.51-24.92 0-45.2 20.27-45.2 45.2 0 24.93 20.28 45.19 45.2 45.19 22.32 0 40.8-16.311 44.43-37.611h127.99c1.64 25.02 11.29 48.301 27.69 66.911l-194.65 194.649c-17.38-11.969-42.68-10.439-57.96 4.801-17.61 17.62-17.61 46.29 0 63.91 8.54 8.539 19.89 13.229 31.95 13.229 12.06 0 23.43-4.699 31.95-13.229 8.54-8.54 13.24-19.88 13.24-31.95 0-9.47-2.98-18.441-8.35-26.011l194.6-194.599c18.64 16.419 41.91 26.06 66.9 27.69v119.399c-21.32 3.62-37.65 22.091-37.65 44.431 0 24.92 20.28 45.19 45.2 45.19s45.2-20.27 45.2-45.19c0-22.28-16.24-40.731-37.47-44.41V733.06c25.46-1.68 49.14-11.721 68.01-28.831l120.07 120.07c-3.4 5.391-5.29 11.6-5.29 18.131 0 9.13 3.56 17.719 10.02 24.179 6.46 6.461 15.05 10.011 24.17 10.011 9.12 0 17.71-3.56 24.17-10.011 6.46-6.46 10.02-15.049 10.02-24.179 0-9.131-3.56-17.72-10.02-24.18-11.06-11.06-29.13-12.57-42.21-4.68l-120.27-120.271c15.72-18.349 24.95-41.169 26.55-65.619h275.24c3.63 21.299 22.11 37.609 44.43 37.609 24.92 0 45.182-20.269 45.182-45.19 0-24.92-20.262-45.199-45.182-45.199h.04v-.01Zm-362.19 113.409c-14.11 14.61-31.91 24.211-51.36 28.011 7.33-15.951 11.26-40.69 13.05-64.12 23.42-1.79 48.15-5.71 64.1-13.04-3.6 18.55-12.44 35.55-25.79 49.149Zm-139.72 1.11s-.01.001-.02-.009h-.01c-13.95-13.83-23.17-31.22-26.87-50.231 15.95 7.321 40.67 11.241 64.09 13.031 1.79 23.43 5.72 48.18 13.05 64.13-18.98-3.71-36.36-12.921-50.22-26.89l-.02-.031Zm138.62-138.56c13.96 13.84 23.18 31.201 26.88 50.161-15.95-7.32-40.67-11.24-64.09-13.031-1.79-23.4-5.7-48.109-13.01-64.06 18.96 3.701 36.33 12.921 50.17 26.891.01.01.04.029.06.039h-.01Zm28.71 69.031c-2.21 5.14-25.61 13.6-65.01 16.88.23-5.87.34-11.49.34-16.67 0-5.18-.11-10.811-.34-16.681 39.37 3.26 62.76 11.621 65 16.271 0 .07.01.14.01.21v-.01Zm-98.21-97.79c5.14 2.3 13.58 25.66 16.85 64.97-5.87-.24-11.5-.341-16.68-.341s-10.81.11-16.68.341c3.25-39.28 11.57-62.621 16.23-64.961.1 0 .19-.009.28-.009Zm.18 79.889c6.2 0 11.99.201 17.66.44.24 5.68.44 11.461.44 17.671 0 6.21-.2 11.98-.44 17.66-5.68.24-11.46.44-17.67.44-6.21 0-11.99-.2-17.66-.44-.24-5.68-.44-11.46-.44-17.66 0-6.2.2-11.99.44-17.66 5.68-.24 11.46-.44 17.67-.44v-.011Zm-33.03 34.781c-39.35-3.25-62.73-11.61-64.99-16.25 0-.07-.01-.151-.01-.221 2.22-5.14 25.61-13.6 65-16.88-.23 5.87-.34 11.501-.34 16.681 0 5.18.11 10.8.34 16.68v-.01Zm33.28 81.399c-5.13-2.099-13.65-25.55-16.93-65.05 5.87.24 11.5.341 16.68.341s10.81-.11 16.68-.341c-3.27 39.49-11.68 62.93-16.31 65.05h-.12Zm284.49-425.139c5.83-5.83 13.49-8.75 21.16-8.75s15.33 2.92 21.16 8.75 8.77 13.17 8.77 21.16-3.12 15.51-8.77 21.16c-11.66 11.66-30.66 11.66-42.32 0-5.65-5.65-8.77-13.17-8.77-21.16s3.12-15.51 8.77-21.16Zm-314.67-105.54c0-16.5 13.42-29.93 29.93-29.93 16.51 0 29.93 13.43 29.93 29.93s-13.35 29.83-29.79 29.91h-.04s-.07.02-.1.02c-16.5 0-29.91-13.42-29.91-29.92h-.02v-.01Zm-38.2 362.179c13.55-13.3 30.52-22.13 49.03-25.74-7.31 15.951-11.22 40.66-13.01 64.05-23.4 1.79-48.12 5.711-64.07 13.021 3.8-19.43 13.41-37.21 28.05-51.34v.009ZM237.878 650c-16.51 0-29.93-13.42-29.93-29.92s13.42-29.93 29.93-29.93c16.51 0 29.93 13.43 29.93 29.93S254.388 650 237.878 650Zm.61 297.14c-11.3 11.3-31.02 11.3-42.32 0-11.66-11.67-11.66-30.65 0-42.32 5.65-5.651 13.17-8.76 21.16-8.76s15.51 3.109 21.16 8.76c5.65 5.65 8.77 13.17 8.77 21.159 0 7.99-3.12 15.511-8.77 21.161Zm314.67-50.24c0 16.5-13.42 29.92-29.93 29.92-16.51 0-29.93-13.42-29.93-29.92s13.42-29.931 29.93-29.931c16.51 0 29.93 13.431 29.93 29.931Zm208.16-67.861c3.58 3.581 5.55 8.331 5.55 13.38 0 5.05-1.97 9.8-5.55 13.38-7.16 7.141-19.59 7.141-26.75 0-3.58-3.58-5.55-8.33-5.55-13.38 0-5.049 1.97-9.799 5.55-13.38 3.58-3.57 8.32-5.539 13.38-5.539 5.06 0 9.8 1.969 13.38 5.539h-.01ZM955.848 650c-16.45 0-29.82-13.34-29.91-29.76 0-.08.04-.14.04-.21 0-.06-.03-.121-.04-.181.13-16.39 13.48-29.69 29.9-29.69 16.42 0 29.91 13.431 29.91 29.931s-13.42 29.92-29.91 29.92l.01-.01Z"/><mask id="a" width="219" height="219" x="412" y="511" maskUnits="userSpaceOnUse" style="mask-type:luminance"><path fill="#fff" d="M521.878 729.62c60.139 0 108.89-48.752 108.89-108.89s-48.751-108.89-108.89-108.89c-60.138 0-108.89 48.752-108.89 108.89s48.752 108.89 108.89 108.89Z"/></mask><g fill="#1F375B" mask="url(#a)"><path d="M427.786 509.529h-2.45v2.59h2.45v-2.59Z" opacity=".67"/><path d="M504.177 509.77h-1.989v2.11h1.989v-2.11Z" opacity=".58"/><path d="M529.886 509.6h-2.32v2.46h2.32v-2.46Z" opacity=".81"/><path d="M542.998 509.238h-2.99v3.17h2.99v-3.17Z" opacity=".94"/><path d="M587.228 509.738h-2.06v2.18h2.06v-2.18Z" opacity=".89"/><path d="M600.198 509.529h-2.46v2.6h2.46v-2.6Z" opacity=".66"/><path d="M632.288 509.359h-2.78v2.95h2.78v-2.95Z" opacity=".89"/><path d="M414.285 517.049h-1v1.06h1v-1.06Z" opacity=".69"/><path d="M420.848 516.859h-1.36v1.44h1.36v-1.44Z" opacity=".77"/><path d="M427.227 516.869h-1.34v1.42h1.34v-1.42Z" opacity=".85"/><path d="M433.275 517.229h-.67v.71h.67v-.71Z" opacity=".69"/><path d="M439.636 517.248h-.62v.66h.62v-.66Z" opacity=".65"/><path d="M446.869 516.359h-2.31v2.45h2.31v-2.45Z" opacity=".8"/><path d="M452.458 517.209h-.7v.74h.7v-.74Z" opacity=".63"/><path d="M465.186 517.26h-.62v.65h.62v-.65Z" opacity=".93"/><path d="M471.827 516.979h-1.139v1.2h1.139v-1.2Z" opacity=".75"/><path d="M478.157 517.049h-1.02v1.08h1.02v-1.08Z" opacity=".56"/><path d="M491.316 516.629h-1.8v1.91h1.8v-1.91Z" opacity=".81"/><path d="M503.585 517.158h-.8v.85h.8v-.85Z" opacity=".67"/><path d="M510.468 516.629h-1.8v1.91h1.8v-1.91Z" opacity=".57"/><path d="M516.528 516.988h-1.13v1.19h1.13v-1.19Z" opacity=".6"/><path d="M522.547 517.369h-.41v.43h.41v-.43Z" opacity=".65"/><path d="M529.788 516.459h-2.12v2.25h2.12v-2.25Z" opacity=".59"/><path d="M535.525 517.139h-.83v.88h.83v-.88Zm6.713-.34h-1.48v1.56h1.48v-1.56Z" opacity=".93"/><path d="M548.116 517.34h-.46v.49h.46v-.49Z" opacity=".84"/><path d="M555.595 516.18h-2.65v2.81h2.65v-2.81Z" opacity=".79"/><path d="M561.726 516.449h-2.14v2.27h2.14v-2.27Z" opacity=".78"/><path d="M567.947 516.629h-1.81v1.91h1.81v-1.91Z" opacity=".6"/><path d="M573.618 517.379h-.38v.4h.38v-.4Zm6.789-.42h-1.18v1.25h1.18v-1.25Z" opacity=".89"/><path d="M586.517 517.248h-.63v.67h.63v-.67Z" opacity=".53"/><path d="M592.938 517.209h-.7v.74h.7v-.74Z" opacity=".72"/><path d="M599.508 517.02h-1.07v1.13h1.07v-1.13Z" opacity=".86"/><path d="M606.075 516.818h-1.45v1.53h1.45v-1.53Z" opacity=".79"/><path d="M611.988 517.318h-.5v.53h.5v-.53Z" opacity=".5"/><path d="M618.615 517.059h-.99v1.05h.99v-1.05Z" opacity=".8"/><path d="M625.565 516.459h-2.12v2.24h2.12v-2.24Z" opacity=".69"/><path d="M631.128 517.34h-.46v.48h.46v-.48Z" opacity=".57"/><path d="M414.357 523.738h-1.13v1.19h1.13v-1.19Z" opacity=".85"/><path d="M433.257 524.01h-.62v.66h.62v-.66Z" opacity=".81"/><path d="M439.945 523.689h-1.23v1.3h1.23v-1.3Z" opacity=".91"/><path d="M446.325 523.689h-1.22v1.29h1.22v-1.29Z" opacity=".89"/><path d="M452.426 523.988h-.66v.7h.66v-.7Z" opacity=".77"/><path d="M458.896 523.908h-.81v.85h.81v-.85Z" opacity=".64"/><path d="M465.267 523.918h-.79v.84h.79v-.84Z" opacity=".5"/><path d="M471.868 523.689h-1.22v1.29h1.22v-1.29Z" opacity=".81"/><path d="M478.016 523.939h-.75v.79h.75v-.79Z" opacity=".76"/><path d="M484.228 524.129h-.4v.42h.4v-.42Z" opacity=".8"/><path d="M492.068 522.59h-3.31v3.5h3.31v-3.5Z" opacity=".87"/><path d="M497.477 523.619h-1.36v1.44h1.36v-1.44Z" opacity=".62"/><path d="M503.575 523.918h-.79v.84h.79v-.84Z" opacity=".54"/><path d="M510.115 523.77h-1.08v1.139h1.08v-1.139Z" opacity=".51"/><path d="M522.798 523.859h-.9v.95h.9v-.95Z" opacity=".87"/><path d="M529.436 523.59h-1.42v1.5h1.42v-1.5Z" opacity=".6"/><path d="M535.777 523.639h-1.32v1.4h1.32v-1.4Z" opacity=".82"/><path d="M541.625 524.209h-.25v.27h.25v-.27Z" opacity=".62"/><path d="M548.075 524.139h-.38v.4h.38v-.4Z" opacity=".85"/><path d="M554.729 523.85h-.92v.97h.92v-.97Z" opacity=".68"/><path d="M560.865 524.119h-.42v.44h.42v-.44Z" opacity=".69"/><path d="M567.306 524.049h-.54v.58h.54v-.58Z" opacity=".77"/><path d="M574.026 523.699h-1.21v1.28h1.21v-1.28Z" opacity=".88"/><path d="M580.905 523.18h-2.19v2.32h2.19v-2.32Z" opacity=".6"/><path d="M587.248 523.229h-2.1v2.22h2.1v-2.22Z" opacity=".89"/><path d="M592.957 523.939h-.75v.79h.75v-.79Z" opacity=".83"/><path d="M599.928 523.328h-1.92v2.03h1.92v-2.03Z" opacity=".61"/><path d="M605.675 523.998h-.64v.67h.64v-.67Z" opacity=".63"/><path d="M625.126 523.699h-1.22v1.29h1.22v-1.29Z" opacity=".64"/><path d="M632.068 523.109h-2.33v2.46h2.33v-2.46Z" opacity=".86"/><path d="M421.627 529.559h-2.9v3.07h2.9v-3.07Z" opacity=".92"/><path d="M427.487 530.119h-1.85v1.96h1.85v-1.96Z" opacity=".71"/><path d="M433.558 530.439h-1.23v1.3h1.23v-1.3Z" opacity=".54"/><path d="M439.869 530.539h-1.06v1.12h1.06v-1.12Z" opacity=".82"/><path d="M446.606 530.158h-1.77v1.87h1.77v-1.87Z" opacity=".66"/><path d="M453.348 529.77h-2.5v2.649h2.5v-2.649Z" opacity=".78"/><path d="M459.636 529.879h-2.3v2.43h2.3v-2.43Z" opacity=".83"/><path d="M465.027 530.939h-.3v.32h.3v-.32Z" opacity=".87"/><path d="M471.868 530.449h-1.22v1.29h1.22v-1.29Z" opacity=".92"/><path d="M491.467 529.979h-2.1v2.22h2.1v-2.22Z" opacity=".61"/><path d="M497.108 530.77h-.62v.649h.62v-.649Z" opacity=".66"/><path d="M504.376 529.84h-2.38v2.52h2.38v-2.52Z" opacity=".77"/><path d="M510.376 530.238h-1.61v1.71h1.61v-1.71Z" opacity=".85"/><path d="M516.408 530.619h-.9v.95h.9v-.95Z" opacity=".64"/><path d="M529.376 530.408h-1.29v1.36h1.29v-1.36Z" opacity=".71"/><path d="M535.919 530.248h-1.61v1.7h1.61v-1.7Z" opacity=".9"/><path d="M541.877 530.689h-.76v.8h.76v-.8Z" opacity=".75"/><path d="M548.338 530.619h-.9v.96h.9v-.96Z" opacity=".94"/><path d="M554.516 530.828h-.5v.53h.5v-.53Z" opacity=".62"/><path d="M561.775 529.908h-2.24v2.37h2.24v-2.37Z" opacity=".61"/><path d="M573.505 531.02h-.15v.16h.15v-.16Z" opacity=".78"/><path d="M586.597 530.668h-.8v.84h.8v-.84Z" opacity=".62"/><path d="M593.647 529.969h-2.12v2.24h2.12v-2.24Z" opacity=".9"/><path d="M599.876 530.139h-1.81v1.91h1.81v-1.91Z" opacity=".89"/><path d="M606.087 530.318h-1.47v1.56h1.47v-1.56Z" opacity=".53"/><path d="M611.878 530.949h-.28v.29h.28v-.29Z" opacity=".89"/><path d="M618.918 530.248h-1.59v1.68h1.59v-1.68Z" opacity=".74"/><path d="M624.638 530.969h-.24v.25h.24v-.25Z" opacity=".86"/><path d="M631.527 530.439h-1.25v1.32h1.25v-1.32Z" opacity=".92"/><path d="M421.338 536.619h-2.33v2.47h2.33v-2.47Z" opacity=".57"/><path d="M426.995 537.389h-.87v.92h.87v-.92Z" opacity=".52"/><path d="M433.126 537.658h-.36v.38h.36v-.38Z" opacity=".66"/><path d="M440.066 537.068h-1.48v1.57h1.48v-1.57Z" opacity=".71"/><path d="M446.256 537.279h-1.08v1.14h1.08v-1.14Z" opacity=".89"/><path d="M452.327 537.619h-.44v.46h.44v-.46Z" opacity=".65"/><path d="M458.908 537.408h-.83v.88h.83v-.88Z" opacity=".87"/><path d="M465.305 537.398h-.86v.91h.86v-.91Z" opacity=".68"/><path d="M471.946 537.119h-1.38v1.46h1.38v-1.46Z" opacity=".73"/><path d="M478.016 537.449h-.75v.79h.75v-.79Z" opacity=".75"/><path d="M484.607 537.238h-1.15v1.22h1.15v-1.22Z" opacity=".85"/><path d="M490.807 537.439h-.78v.82h.78v-.82Z" opacity=".68"/><path d="M497.387 537.229h-1.18v1.25h1.18v-1.25Z" opacity=".9"/><path d="M516.926 536.828h-1.93v2.04h1.93v-2.04Z" opacity=".77"/><path d="M522.577 537.609h-.46v.48h.46v-.48Z" opacity=".84"/><path d="M529.676 536.84h-1.91v2.03h1.91v-2.03Z" opacity=".72"/><path d="M535.375 537.578h-.52v.55h.52v-.55Z" opacity=".5"/><path d="M541.929 537.389h-.87v.92h.87v-.92Z" opacity=".57"/><path d="M548.198 537.52h-.62v.66h.62v-.66Z" opacity=".9"/><path d="M554.788 537.299h-1.03v1.09h1.03v-1.09Z" opacity=".56"/><path d="M567.535 537.318h-1v1.06h1v-1.06Z" opacity=".9"/><path d="M574.367 536.85h-1.89v2h1.89v-2Z" opacity=".7"/><path d="M580.228 537.408h-.83v.88h.83v-.88Z" opacity=".76"/><path d="M587.538 536.43h-2.69v2.85h2.69v-2.85Z" opacity=".65"/><path d="M599.245 537.559h-.55v.58h.55v-.58Z" opacity=".55"/><path d="M606.105 537.049h-1.5v1.59h1.5v-1.59Z" opacity=".64"/><path d="M612.787 536.738h-2.099v2.22h2.099v-2.22Z" opacity=".81"/><path d="M619.006 536.918h-1.76v1.86h1.76v-1.86Z" opacity=".69"/><path d="M632.126 536.559h-2.45v2.59h2.45v-2.59Z" opacity=".79"/><path d="M420.637 544.109h-.93v.99h.93v-.99Z" opacity=".76"/><path d="M426.956 544.18h-.8v.85h.8v-.85Z" opacity=".75"/><path d="M433.079 544.459h-.27v.29h.27v-.29Z" opacity=".92"/><path d="M446.426 543.85h-1.43v1.51h1.43v-1.51Z" opacity=".58"/><path d="M452.585 544.09h-.98v1.04h.98v-1.04Z" opacity=".72"/><path d="M465.187 544.27h-.64v.68h.64v-.68Z" opacity=".91"/><path d="M471.467 544.379h-.42v.44h.42v-.44Z" opacity=".9"/><path d="M478.116 544.109h-.94v.99h.94v-.99Z" opacity=".84"/><path d="M484.246 544.379h-.43v.45h.43v-.45Z" opacity=".7"/><path d="M490.787 544.209h-.74v.78h.74v-.78Z" opacity=".81"/><path d="M497.436 543.93h-1.28v1.36h1.28v-1.36Z" opacity=".77"/><path d="M504.145 543.578h-1.93v2.05h1.93v-2.05Z" opacity=".72"/><path d="M510.198 543.939h-1.26v1.33h1.26v-1.33Z" opacity=".71"/><path d="M516.068 544.488h-.22v.23h.22v-.23Z" opacity=".72"/><path d="M523.048 543.869h-1.4v1.48h1.4v-1.48Z" opacity=".51"/><path d="M529.058 544.248h-.66v.7h.66v-.7Z" opacity=".67"/><path d="M535.536 544.148h-.86v.92h.86v-.92Z" opacity=".93"/><path d="M541.625 544.459h-.27v.29h.27v-.29Z" opacity=".57"/><path d="M549.057 543.359h-2.35v2.48h2.35v-2.48Z" opacity=".78"/><path d="M561.956 543.229h-2.601v2.75h2.601v-2.75Z" opacity=".6"/><path d="M567.648 543.969h-1.21v1.28h1.21v-1.28Z" opacity=".53"/><path d="M574.348 543.629h-1.84v1.95h1.84v-1.95Z" opacity=".76"/><path d="M579.997 544.398h-.38v.41h.38v-.41Z" opacity=".51"/><path d="M586.966 543.789h-1.54v1.63h1.54v-1.63Z" opacity=".53"/><path d="M593.065 544.1h-.96v1.01h.96v-1.01Z" opacity=".84"/><path d="M599.747 543.779h-1.559v1.65h1.559v-1.65Z" opacity=".69"/><path d="M606.495 543.398h-2.28v2.41h2.28v-2.41Z" opacity=".71"/><path d="M611.865 544.469h-.26v.28h.26v-.28Z" opacity=".65"/><path d="M618.457 544.26h-.66v.69h.66v-.69Z" opacity=".69"/><path d="M624.977 544.109h-.93v.99h.93v-.99Z" opacity=".78"/><path d="M631.325 544.148h-.86v.91h.86v-.91Zm-217.237 6.891h-.6v.63h.6v-.63Z" opacity=".87"/><path d="M420.908 550.578h-1.47v1.55h1.47v-1.55Z" opacity=".79"/><path d="M427.368 550.51h-1.61v1.7h1.61v-1.7Z" opacity=".91"/><path d="M439.555 551.119h-.45v.47h.45v-.47Z" opacity=".87"/><path d="M445.766 551.299h-.11v.12h.11v-.12Z" opacity=".8"/><path d="M452.628 550.809h-1.05v1.11h1.05v-1.11Z" opacity=".71"/><path d="M458.648 551.189h-.32v.34h.32v-.34Z" opacity=".57"/><path d="M465.205 551.01h-.67v.71h.67v-.71Z" opacity=".68"/><path d="M472.057 550.52h-1.6v1.69h1.6v-1.69Z" opacity=".91"/><path d="M477.805 551.18h-.34v.36h.34v-.36Z" opacity=".74"/><path d="M484.638 550.719h-1.22v1.29h1.22v-1.29Z" opacity=".77"/><path d="M490.996 550.748h-1.16v1.23h1.16v-1.23Z" opacity=".91"/><path d="M497.495 550.629h-1.39v1.47h1.39v-1.47Z" opacity=".71"/><path d="M503.827 550.689h-1.28v1.35h1.28v-1.35Z" opacity=".62"/><path d="M509.898 551.01h-.66v.7h.66v-.7Z" opacity=".83"/><path d="M516.195 551.109h-.48v.51h.48v-.51Z" opacity=".58"/><path d="M522.406 551.289h-.14v.15h.14v-.15Z" opacity=".55"/><path d="M529.077 550.998h-.69v.73h.69v-.73Z" opacity=".8"/><path d="M535.357 551.1h-.49v.52h.49v-.52Z" opacity=".83"/><path d="M541.676 551.168h-.36v.38h.36v-.38Z" opacity=".71"/><path d="M548.178 551.049h-.58v.61h.58v-.61Z" opacity=".59"/><path d="M554.908 550.699h-1.26v1.33h1.26v-1.33Z" opacity=".74"/><path d="M561.515 550.449h-1.73v1.83h1.73v-1.83Z" opacity=".84"/><path d="M567.607 550.76h-1.13v1.2h1.13v-1.2Z" opacity=".89"/><path d="M573.618 551.158h-.38v.4h.38v-.4Z" opacity=".79"/><path d="M580.897 550.209h-2.17v2.3h2.17v-2.3Z" opacity=".63"/><path d="M586.877 550.648h-1.35v1.43h1.35v-1.43Z" opacity=".91"/><path d="M593.475 550.418h-1.78v1.88h1.78v-1.88Z" opacity=".68"/><path d="M599.626 550.668h-1.31v1.38h1.31v-1.38Z" opacity=".53"/><path d="M612.107 550.969h-.74v.79h.74v-.79Z" opacity=".8"/><path d="M619.535 549.869h-2.82v2.99h2.82v-2.99Z" opacity=".81"/><path d="M624.807 551.059h-.58v.61h.58v-.61Z" opacity=".83"/><path d="M632.056 550.139h-2.31v2.44h2.31v-2.44Z" opacity=".51"/><path d="M420.405 557.869h-.46v.49h.46v-.49Z" opacity=".91"/><path d="M426.768 557.898h-.42v.44h.42v-.44Z" opacity=".56"/><path d="M433.896 557.109h-1.9v2.01h1.9v-2.01Z" opacity=".82"/><path d="M439.545 557.898h-.42v.44h.42v-.44Z" opacity=".58"/><path d="M452.267 557.939h-.329v.35h.329v-.35Z" opacity=".72"/><path d="M465.027 557.959h-.3v.31h.3v-.31Z" opacity=".62"/><path d="M471.655 557.689h-.8v.85h.8v-.85Z" opacity=".78"/><path d="M478.198 557.529h-1.1v1.17h1.1v-1.17Z" opacity=".71"/><path d="M484.578 557.539h-1.09v1.15h1.09v-1.15Z" opacity=".55"/><path d="M490.836 557.668h-.84v.89h.84v-.89Z" opacity=".65"/><path d="M496.985 557.918h-.38v.4h.38v-.4Z" opacity=".6"/><path d="M503.485 557.789h-.61v.65h.61v-.65Zm6.393 0h-.62v.66h.62v-.66Z" opacity=".87"/><path d="M516.349 557.699h-.79v.84h.79v-.84Z" opacity=".92"/><path d="M523.145 557.27h-1.61v1.699h1.61v-1.699Z" opacity=".88"/><path d="M529.186 557.629h-.92v.97h.92v-.97Z" opacity=".65"/><path d="M535.726 557.459h-1.23v1.3h1.23v-1.3Z" opacity=".8"/><path d="M541.658 557.939h-.33v.35h.33v-.35Z" opacity=".89"/><path d="M548.026 557.969h-.28v.3h.28v-.3Z" opacity=".52"/><path d="M555.507 556.818h-2.46v2.6h2.46v-2.6Z" opacity=".63"/><path d="M561.019 557.738h-.71v.75h.71v-.75Z" opacity=".76"/><path d="M567.826 557.289h-1.56v1.65h1.56v-1.65Z" opacity=".53"/><path d="M574.446 557.039h-2.04v2.16h2.04v-2.16Z" opacity=".94"/><path d="M580.608 557.27h-1.6v1.69h1.6v-1.69Z" opacity=".93"/><path d="M586.597 557.689h-.8v.85h.8v-.85Z" opacity=".89"/><path d="M592.828 557.859h-.48v.5h.48v-.5Z" opacity=".72"/><path d="M599.426 557.629h-.91v.97h.91v-.97Z" opacity=".67"/><path d="M605.616 557.828h-.53v.57h.53v-.57Z" opacity=".75"/><path d="M611.908 557.939h-.33v.35h.33v-.35Z" opacity=".94"/><path d="M618.828 557.369h-1.41v1.49h1.41v-1.49Z" opacity=".54"/><path d="M625.096 557.498h-1.17v1.24h1.17v-1.24Z" opacity=".8"/><path d="M631.538 557.439h-1.28v1.36h1.28v-1.36Z" opacity=".62"/><path d="M414.027 564.619h-.48v.51h.48v-.51Z" opacity=".64"/><path d="M427.018 564.379h-.92v.98h.92v-.98Z" opacity=".6"/><path d="M433.275 564.529h-.65v.68h.65v-.68Z" opacity=".82"/><path d="M439.875 564.299h-1.09v1.15h1.09v-1.15Z" opacity=".56"/><path d="M446.129 564.439h-.82v.86h.82v-.86Z" opacity=".57"/><path d="M452.698 564.238h-1.19v1.26h1.19v-1.26Z" opacity=".58"/><path d="M458.855 564.488h-.73v.77h.73v-.77Z" opacity=".62"/><path d="M464.937 564.799h-.14v.15h.14v-.15Z" opacity=".92"/><path d="M472.506 563.539h-2.51v2.66h2.51v-2.66Z" opacity=".78"/><path d="M478.298 564.18h-1.31v1.39h1.31v-1.39Z" opacity=".88"/><path d="M490.625 564.648h-.43v.45h.43v-.45Z" opacity=".79"/><path d="M503.915 564.09h-1.47v1.56h1.47v-1.56Z" opacity=".69"/><path d="M510.507 563.879h-1.87v1.98h1.87v-1.98Z" opacity=".64"/><path d="M516.346 564.459h-.78v.82h.78v-.82Z" opacity=".8"/><path d="M523.548 563.6h-2.4v2.54h2.4v-2.54Z" opacity=".84"/><path d="M529.558 563.988h-1.66v1.76h1.66v-1.76Z" opacity=".86"/><path d="M536.197 563.729h-2.17v2.29h2.17v-2.29Z" opacity=".53"/><path d="M542.607 563.699h-2.22v2.35h2.22v-2.35Z" opacity=".78"/><path d="M548.698 564.01h-1.62v1.72h1.62v-1.72Z" opacity=".66"/><path d="M554.876 564.238h-1.2v1.26h1.2v-1.26Z" opacity=".81"/><path d="M560.786 564.729h-.27v.29h.27v-.29Z" opacity=".53"/><path d="M567.426 564.469h-.77v.81h.77v-.81Z" opacity=".93"/><path d="M573.917 564.359h-.979v1.03h.979v-1.03Z" opacity=".5"/><path d="M586.656 564.389h-.91v.96h.91v-.96Z" opacity=".91"/><path d="M592.955 564.469h-.76v.81h.76v-.81Z" opacity=".87"/><path d="M599.086 564.748h-.231v.25h.231v-.25Z" opacity=".8"/><path d="M605.507 564.709h-.3v.32h.3v-.32Z" opacity=".74"/><path d="M612.177 564.408h-.88v.93h.88v-.93Z" opacity=".86"/><path d="M619.295 563.629h-2.35v2.49h2.35v-2.49Z" opacity=".5"/><path d="M624.985 564.369h-.95v1h.95v-1Z" opacity=".68"/><path d="M414.758 570.609h-1.93v2.04h1.93v-2.04Z" opacity=".69"/><path d="M420.807 570.959h-1.26v1.33h1.26v-1.33Z" opacity=".6"/><path d="M427.237 570.908h-1.35v1.43h1.35v-1.43Z" opacity=".8"/><path d="M439.438 571.52h-.2v.209h.2v-.209Z" opacity=".81"/><path d="M446.247 571.068h-1.059v1.12h1.059v-1.12Zm6.371.022h-1.02v1.08h1.02v-1.08Z" opacity=".51"/><path d="M472.045 570.789h-1.58v1.67h1.58v-1.67Z" opacity=".84"/><path d="M478.536 570.68h-1.79v1.9h1.79v-1.9Z" opacity=".68"/><path d="M485.507 570.059h-2.96v3.13h2.96v-3.13Z" opacity=".85"/><path d="M497.565 570.818h-1.53v1.62h1.53v-1.62Z" opacity=".81"/><path d="M503.809 570.969h-1.25v1.32h1.25v-1.32Z" opacity=".53"/><path d="M510.876 570.248h-2.61v2.76h2.61v-2.76Z" opacity=".64"/><path d="M516.877 570.658h-1.83v1.93h1.83v-1.93Z" opacity=".63"/><path d="M535.535 571.18h-.84v.89h.84v-.89Z" opacity=".87"/><path d="M542.045 571.049h-1.1v1.16h1.1v-1.16Z" opacity=".89"/><path d="M548.696 570.77h-1.63v1.72h1.63v-1.72Z" opacity=".62"/><path d="M554.528 571.35h-.52v.55h.52v-.55Z" opacity=".92"/><path d="M561.138 571.119h-.97v1.03h.97v-1.03Zm6.34.039h-.88v.93h.88v-.93Z" opacity=".87"/><path d="M580.085 571.34h-.55v.58h.55v-.58Zm6.68-.311h-1.14v1.2h1.14v-1.2Z" opacity=".51"/><path d="M592.736 571.459h-.31v.33h.31v-.33Z" opacity=".67"/><path d="M599.137 571.449h-.34v.36h.34v-.36Z" opacity=".6"/><path d="M605.798 571.158h-.88v.93h.88v-.93Z" opacity=".63"/><path d="M612.337 570.988h-1.2v1.27h1.2v-1.27Z" opacity=".53"/><path d="M625.118 570.979h-1.22v1.29h1.22v-1.29Z" opacity=".9"/><path d="M631.226 571.279h-.66v.69h.66v-.69Z" opacity=".83"/><path d="M415.338 576.738h-3.1v3.28h3.1v-3.28Z" opacity=".5"/><path d="M420.245 578.309h-.14v.15h.14v-.15Z" opacity=".64"/><path d="M427.755 577.109h-2.4v2.54h2.4v-2.54Z" opacity=".86"/><path d="M433.097 578.219h-.3v.32h.3v-.32Z" opacity=".5"/><path d="M439.928 577.76h-1.19v1.26h1.19v-1.26Z" opacity=".89"/><path d="M446.358 577.699h-1.28v1.36h1.28v-1.36Z" opacity=".57"/><path d="M459.027 577.818h-1.07v1.13h1.07v-1.13Z" opacity=".73"/><path d="M464.947 578.309h-.15v.15h.15v-.15Z" opacity=".67"/><path d="M471.446 578.18h-.38v.4h.38v-.4Z" opacity=".55"/><path d="M477.757 578.26h-.23v.25h.23v-.25Z" opacity=".86"/><path d="M484.445 577.939h-.84v.88h.84v-.88Z" opacity=".52"/><path d="M491.088 577.668h-1.35v1.43h1.35v-1.43Z" opacity=".74"/><path d="M497.498 577.639h-1.4v1.48h1.4v-1.48Z" opacity=".9"/><path d="M503.798 577.738h-1.22v1.3h1.22v-1.3Z" opacity=".52"/><path d="M510.576 577.318h-2.01v2.13h2.01v-2.13Z" opacity=".54"/><path d="M516.635 577.668h-1.35v1.42h1.35v-1.42Z" opacity=".66"/><path d="M522.928 577.77h-1.17V579h1.17v-1.23Z" opacity=".94"/><path d="M528.858 578.238h-.26v.28h.26v-.28Z" opacity=".93"/><path d="M536.328 577.1h-2.43v2.57h2.43v-2.57Z" opacity=".67"/><path d="M542.215 577.629h-1.43v1.51h1.43v-1.51Z" opacity=".87"/><path d="M548.307 577.93h-.85v.9h.85v-.9Z" opacity=".5"/><path d="M554.739 577.889h-.93v.98h.93v-.98Z" opacity=".8"/><path d="M561.257 577.738h-1.21v1.28h1.21v-1.28Z" opacity=".6"/><path d="M567.276 578.139h-.46v.48h.46v-.48Z" opacity=".66"/><path d="M573.576 578.219h-.31v.33h.31v-.33Z" opacity=".53"/><path d="M580.216 577.949h-.81v.86h.81v-.86Z" opacity=".74"/><path d="M586.435 578.119h-.49v.52h.49v-.52Z" opacity=".76"/><path d="M592.965 577.979h-.77v.81h.77v-.81Z" opacity=".72"/><path d="M599.686 577.619h-1.44v1.52h1.44v-1.52Z" opacity=".52"/><path d="M612.435 577.639h-1.4v1.48h1.4v-1.48Z" opacity=".89"/><path d="M618.625 577.859h-1v1.05h1v-1.05Z" opacity=".93"/><path d="M625.348 577.488h-1.68v1.78h1.68v-1.78Z" opacity=".75"/><path d="M420.447 584.84h-.56v.6h.56v-.6Z" opacity=".89"/><path d="M434.027 583.998h-2.16v2.28h2.16v-2.28Z" opacity=".64"/><path d="M445.807 585.039h-.19v.2h.19v-.2Z" opacity=".84"/><path d="M459.607 583.959h-2.24v2.37h2.24v-2.37Z" opacity=".93"/><path d="M465.818 584.139h-1.88v1.99h1.88v-1.99Z" opacity=".69"/><path d="M471.397 584.988h-.28v.3h.28v-.3Z" opacity=".79"/><path d="M477.766 585.01h-.25v.26h.25v-.26Z" opacity=".74"/><path d="M484.148 585.02h-.23v.25h.23v-.25Z" opacity=".77"/><path d="M491.307 584.199h-1.78v1.88h1.78v-1.88Z" opacity=".73"/><path d="M497.908 583.959h-2.22v2.35h2.22v-2.35Z" opacity=".59"/><path d="M503.438 584.879h-.5v.53h.5v-.53Z" opacity=".8"/><path d="M509.855 584.84h-.57v.6h.57v-.6Z" opacity=".53"/><path d="M516.896 584.148h-1.88v1.99h1.88v-1.99Z" opacity=".84"/><path d="M522.506 584.969h-.33v.34h.33v-.34Z" opacity=".82"/><path d="M535.297 584.949h-.359v.38h.359v-.38Z" opacity=".69"/><path d="M541.858 584.77h-.71v.75h.71v-.75Z" opacity=".81"/><path d="M554.708 584.668h-.88v.93h.88v-.93Z" opacity=".69"/><path d="M561.746 583.979h-2.18v2.31h2.18v-2.31Z" opacity=".67"/><path d="M567.228 584.939h-.38v.4h.38v-.4Z" opacity=".52"/><path d="M574.026 584.498h-1.21v1.28h1.21v-1.28Z" opacity=".75"/><path d="M586.427 584.889h-.47v.5h.47v-.5Z" opacity=".76"/><path d="M592.826 584.879h-.49v.52h.49v-.52Z" opacity=".67"/><path d="M599.368 584.719h-.79v.84h.79v-.84Z" opacity=".94"/><path d="M605.978 584.479h-1.24v1.31h1.24v-1.31Z" opacity=".54"/><path d="M618.465 584.779h-.68v.72h.68v-.72Z" opacity=".68"/><path d="M631.087 584.939h-.38v.41h.38v-.41Z" opacity=".59"/><path d="M420.526 591.52h-.71v.75h.71v-.75Z" opacity=".72"/><path d="M427.538 590.859h-1.96v2.08h1.96v-2.08Z" opacity=".64"/><path d="M434.035 590.738h-2.18v2.3h2.18v-2.3Z" opacity=".9"/><path d="M440.246 590.918h-1.84v1.95h1.84v-1.95Z" opacity=".78"/><path d="M452.567 591.398h-.93v.98h.93v-.98Z" opacity=".84"/><path d="M458.916 591.449h-.85v.9h.85v-.9Z" opacity=".85"/><path d="M471.537 591.6h-.56v.59h.56v-.59Z" opacity=".8"/><path d="M478.477 590.998h-1.68v1.78h1.68v-1.78Z" opacity=".64"/><path d="M484.478 591.418h-.9v.95h.9v-.95Z" opacity=".54"/><path d="M490.715 591.59h-.59v.62h.59v-.62Z" opacity=".65"/><path d="M497.368 591.289h-1.13v1.2h1.13v-1.2Z" opacity=".67"/><path d="M509.757 591.699h-.37v.39h.37v-.39Z" opacity=".94"/><path d="M516.148 591.689h-.39v.41h.39v-.41Z" opacity=".74"/><path d="M523.038 591.158h-1.39v1.47h1.39v-1.47Z" opacity=".69"/><path d="M529.386 591.199h-1.32v1.39h1.32v-1.39Z" opacity=".85"/><path d="M536.017 590.939h-1.81v1.92h1.81v-1.92Z" opacity=".82"/><path d="M541.777 591.6h-.55v.58h.55v-.58Z" opacity=".84"/><path d="M548.127 591.639h-.49v.52h.49v-.52Z" opacity=".64"/><path d="M554.657 591.488h-.77v.81h.77v-.81Z" opacity=".71"/><path d="M561.445 591.049h-1.59v1.68h1.59v-1.68Z" opacity=".51"/><path d="M567.297 591.619h-.52v.55h.52v-.55Z" opacity=".7"/><path d="M574.635 590.619h-2.42v2.56h2.42v-2.56Z" opacity=".59"/><path d="M586.646 591.418h-.9v.95h.9v-.95Z" opacity=".92"/><path d="M592.768 591.699h-.37v.39h.37v-.39Z" opacity=".88"/><path d="M599.747 591.068h-1.559v1.65h1.559v-1.65Z" opacity=".94"/><path d="M612.386 591.209h-1.3v1.37h1.3v-1.37Z" opacity=".8"/><path d="M618.246 591.76h-.25v.27h.25v-.27Z" opacity=".91"/><path d="M624.936 591.449h-.85v.9h.85v-.9Z" opacity=".94"/><path d="M631.708 591.039h-1.61v1.7h1.61v-1.7Z" opacity=".69"/><path d="M413.908 598.52h-.24v.26h.24v-.26Z" opacity=".62"/><path d="M420.918 597.869h-1.48v1.57h1.48v-1.57Z" opacity=".94"/><path d="M427.087 598.09h-1.06v1.12h1.06v-1.12Z" opacity=".63"/><path d="M433.497 598.059h-1.11v1.18h1.11v-1.18Z" opacity=".81"/><path d="M439.768 598.189h-.87v.92h.87v-.92Z" opacity=".6"/><path d="M445.797 598.568h-.16v.16h.16v-.16Z" opacity=".77"/><path d="M452.216 598.529h-.22v.23h.22v-.23Z" opacity=".82"/><path d="M465.588 597.889h-1.44v1.53h1.44v-1.53Z" opacity=".91"/><path d="M472.118 597.738h-1.72v1.82h1.72v-1.82Z" opacity=".79"/><path d="M477.935 598.34h-.58v.61h.58v-.61Z" opacity=".74"/><path d="M484.837 597.799h-1.61v1.71h1.61v-1.71Z" opacity=".6"/><path d="M490.975 598.059h-1.12v1.19h1.12v-1.19Z" opacity=".78"/><path d="M496.936 598.498h-.28v.3h.28v-.3Z" opacity=".52"/><path d="M503.448 598.369h-.53v.56h.53v-.56Z" opacity=".64"/><path d="M509.857 598.34h-.58v.61h.58v-.61Z" opacity=".61"/><path d="M516.467 598.119h-1.01v1.07h1.01v-1.07Z" opacity=".9"/><path d="M522.838 598.119h-.99v1.05h.99v-1.05Z" opacity=".69"/><path d="M535.648 598.09h-1.07v1.13h1.07v-1.13Z" opacity=".75"/><path d="M542.307 597.789h-1.619v1.71h1.619v-1.71Z" opacity=".59"/><path d="M548.477 598.029h-1.18v1.24h1.18v-1.24Z" opacity=".78"/><path d="M554.905 597.969h-1.28v1.35h1.28v-1.35Z" opacity=".82"/><path d="M561.626 597.619h-1.95v2.06h1.95v-2.06Z" opacity=".76"/><path d="M573.807 598.248h-.76v.8h.76v-.8Z" opacity=".92"/><path d="M579.935 598.52h-.24v.25h.24v-.25Z" opacity=".77"/><path d="M586.638 598.18h-.88v.94h.88v-.94Z" opacity=".7"/><path d="M593.187 598.01h-1.21v1.28h1.21v-1.28Z" opacity=".81"/><path d="M606.245 597.709h-1.78v1.88h1.78v-1.88Z" opacity=".92"/><path d="M612.169 598.189h-.86v.91h.86v-.91Z" opacity=".6"/><path d="M618.508 598.238h-.77v.82h.77v-.82Z" opacity=".72"/><path d="M625.538 597.559h-2.05v2.17h2.05v-2.17Z" opacity=".63"/><path d="M631.087 598.449h-.38v.4h.38v-.4Z" opacity=".73"/><path d="M414.498 604.648h-1.42v1.5h1.42v-1.5Z" opacity=".87"/><path d="M420.408 605.158h-.47v.5h.47v-.5Z" opacity=".72"/><path d="M427.075 604.85h-1.04v1.1h1.04v-1.1Z" opacity=".56"/><path d="M433.107 605.229h-.33v.35h.33v-.35Z" opacity=".81"/><path d="M440.125 604.568h-1.59v1.68h1.59v-1.68Z" opacity=".73"/><path d="M459.206 604.639h-1.44v1.53h1.44v-1.53Z" opacity=".56"/><path d="M465.638 604.59h-1.54v1.63h1.54v-1.63Z" opacity=".5"/><path d="M471.868 604.76h-1.22v1.3h1.22v-1.3Z" opacity=".73"/><path d="M477.766 605.279h-.25v.26h.25v-.26Z" opacity=".79"/><path d="M485.017 604.359h-1.97v2.09h1.97v-2.09Z" opacity=".88"/><path d="M490.687 605.109h-.55v.59h.55v-.59Z" opacity=".55"/><path d="M497.586 604.578h-1.57v1.66h1.57v-1.66Z" opacity=".82"/><path d="M510.107 604.85h-1.06v1.12h1.06v-1.12Z" opacity=".75"/><path d="M516.326 605.01h-.74v.79h.74v-.79Z" opacity=".94"/><path d="M522.798 604.93h-.9v.95h.9v-.95Z" opacity=".65"/><path d="M529.067 605.039h-.68v.72h.68v-.72Z" opacity=".73"/><path d="M535.488 605.01h-.75v.79h.75v-.79Zm13.247-.5h-1.7v1.8h1.7v-1.8Z" opacity=".78"/><path d="M555.306 604.318h-2.06v2.17h2.06v-2.17Z" opacity=".89"/><path d="M561.185 604.84h-1.06v1.12h1.06v-1.12Z" opacity=".64"/><path d="M567.475 604.939h-.87v.92h.87v-.92Z" opacity=".69"/><path d="M574.368 604.408h-1.88v1.99h1.88v-1.99Z" opacity=".84"/><path d="M580.548 604.629h-1.47v1.56h1.47v-1.56Z" opacity=".51"/><path d="M586.386 605.209h-.37v.39h.37v-.39Z" opacity=".7"/><path d="M599.198 605.158h-.46v.49h.46v-.49Z" opacity=".52"/><path d="M605.825 604.898h-.95v1h.95v-1Z" opacity=".61"/><path d="M612.326 604.779h-1.17v1.24h1.17v-1.24Z" opacity=".63"/><path d="M618.518 604.988h-.78v.82h.78v-.82Z" opacity=".86"/><path d="M624.997 604.889h-.97v1.03h.97v-1.03Zm-210.429 6.439h-1.56v1.65h1.56v-1.65Z" opacity=".91"/><path d="M420.768 611.529h-1.19v1.26h1.19v-1.26Z" opacity=".66"/><path d="M427.245 611.439h-1.37v1.44h1.37v-1.44Z" opacity=".5"/><path d="M439.818 611.648h-.97v1.03h.97v-1.03Z" opacity=".53"/><path d="M453.565 610.609h-2.94v3.11h2.94v-3.11Z" opacity=".8"/><path d="M458.998 611.629h-1.01v1.07h1.01v-1.07Z" opacity=".6"/><path d="M465.717 611.27h-1.69v1.779h1.69v-1.779Z" opacity=".74"/><path d="M471.405 611.998h-.3v.31h.3v-.31Z" opacity=".68"/><path d="M484.705 611.449h-1.35v1.43h1.35v-1.43Z" opacity=".64"/><path d="M490.756 611.789h-.69v.73h.69v-.73Z" opacity=".56"/><path d="M503.357 611.988h-.33v.35h.33v-.35Z" opacity=".55"/><path d="M509.857 611.869h-.56v.59h.56v-.59Z" opacity=".88"/><path d="M516.336 611.77h-.75v.79h.75v-.79Z" opacity=".51"/><path d="M523.008 611.449h-1.34v1.42h1.34v-1.42Z" opacity=".83"/><path d="M529.038 611.828h-.62v.66h.62v-.66Z" opacity=".8"/><path d="M536.037 611.18h-1.849v1.96h1.849v-1.96Z" opacity=".78"/><path d="M542.096 611.529h-1.19v1.26h1.19v-1.26Z" opacity=".77"/><path d="M548.045 611.988h-.33v.35h.33v-.35Z" opacity=".94"/><path d="M554.796 611.6h-1.05v1.11h1.05v-1.11Z" opacity=".68"/><path d="M561.828 610.918h-2.34v2.48h2.34v-2.48Z" opacity=".84"/><path d="M567.598 611.568h-1.11v1.17h1.11v-1.17Z" opacity=".92"/><path d="M573.667 611.908h-.479v.51h.479v-.51Z" opacity=".61"/><path d="M580.667 611.26h-1.71v1.8h1.71v-1.8Z" opacity=".78"/><path d="M593.267 611.43h-1.38v1.46h1.38v-1.46Z" opacity=".85"/><path d="M599.647 611.449h-1.35v1.43h1.35v-1.43Z" opacity=".78"/><path d="M606.487 610.969h-2.26v2.39h2.26v-2.39Z" opacity=".65"/><path d="M618.375 611.898h-.5v.53h.5v-.53Z" opacity=".69"/><path d="M626.036 610.549h-3.04v3.21h3.04v-3.21Z" opacity=".5"/><path d="M631.218 611.818h-.64v.68h.64v-.68Z" opacity=".76"/><path d="M414.406 618.27h-1.23v1.3h1.23v-1.3Z" opacity=".72"/><path d="M427.569 617.85h-2.01v2.13h2.01v-2.13Z" opacity=".68"/><path d="M433.777 618.039h-1.66v1.76h1.66v-1.76Z" opacity=".82"/><path d="M440.537 617.629h-2.42v2.56h2.42v-2.56Z" opacity=".92"/><path d="M446.288 618.318h-1.14v1.2h1.14v-1.2Z" opacity=".79"/><path d="M452.606 618.369h-1.02v1.08h1.02v-1.08Z" opacity=".89"/><path d="M459.507 617.85h-2.03v2.14h2.03v-2.14Z" opacity=".84"/><path d="M465.217 618.549h-.69v.73h.69v-.73Z" opacity=".77"/><path d="M472.577 617.52h-2.639v2.79h2.639v-2.79Z" opacity=".93"/><path d="M478.845 617.648h-2.4v2.54h2.4v-2.54Z" opacity=".5"/><path d="M484.218 618.709h-.39v.42h.39v-.42Z" opacity=".82"/><path d="M490.725 618.59h-.62v.65h.62v-.65Z" opacity=".86"/><path d="M496.858 618.85h-.12v.13h.12v-.13Z" opacity=".52"/><path d="M503.895 618.158h-1.43v1.51h1.43v-1.51Z" opacity=".6"/><path d="M510.927 617.488h-2.7v2.85h2.7v-2.85Z" opacity=".79"/><path d="M516.308 618.539h-.71v.76h.71v-.76Z" opacity=".94"/><path d="M522.737 618.498h-.78v.82h.78v-.82Z" opacity=".67"/><path d="M530.187 617.379h-2.91v3.08h2.91v-3.08Z" opacity=".84"/><path d="M535.738 618.26h-1.25v1.32h1.25v-1.32Z" opacity=".83"/><path d="M555.905 617.18h-3.28v3.47h3.28v-3.47Z" opacity=".52"/><path d="M561.009 618.549h-.7v.74h.7v-.74Z" opacity=".6"/><path d="M567.138 618.809h-.2v.21h.2v-.21Z" opacity=".53"/><path d="M574.137 618.168h-1.41v1.49h1.41v-1.49Z" opacity=".61"/><path d="M580.607 618.078h-1.58v1.67h1.58v-1.67Z" opacity=".51"/><path d="M586.556 618.539h-.72v.76h.72v-.76Z" opacity=".68"/><path d="M593.598 617.85h-2.02v2.13h2.02v-2.13Z" opacity=".7"/><path d="M599.126 618.748h-.31v.33h.31v-.33Z" opacity=".58"/><path d="M605.487 618.779h-.26v.27h.26v-.27Z" opacity=".88"/><path d="M612.605 617.998h-1.73v1.83h1.73v-1.83Z" opacity=".65"/><path d="M618.916 618.078h-1.58v1.67h1.58v-1.67Z" opacity=".64"/><path d="M624.977 618.43h-.93v.98h.93v-.98Z" opacity=".77"/><path d="M631.255 618.539h-.72v.76h.72v-.76Z" opacity=".71"/><path d="M414.195 625.238h-.82v.86h.82v-.86Z" opacity=".8"/><path d="M421.225 624.559h-2.1v2.22h2.1v-2.22Z" opacity=".83"/><path d="M427.598 624.559h-2.09v2.22h2.09v-2.22Z" opacity=".53"/><path d="M434.015 624.539h-2.14v2.27h2.14v-2.27Z" opacity=".63"/><path d="M439.937 625.029h-1.21v1.29h1.21v-1.29Z" opacity=".84"/><path d="M446.327 625.029h-1.21v1.28h1.21v-1.28Z" opacity=".93"/><path d="M452.468 625.289h-.73v.77h.73v-.77Z" opacity=".52"/><path d="M459.169 624.949h-1.36v1.43h1.36v-1.43Zm6.419-.031h-1.42v1.5h1.42v-1.5Z" opacity=".92"/><path d="M472.068 624.809h-1.63v1.73h1.63v-1.73Z" opacity=".68"/><path d="M478.405 624.859h-1.53v1.62h1.53v-1.62Z" opacity=".83"/><path d="M484.857 624.799h-1.65v1.75h1.65v-1.75Z" opacity=".7"/><path d="M490.597 625.479h-.37v.39h.37v-.39Z" opacity=".61"/><path d="M497.385 625.049h-1.17v1.24h1.17v-1.24Z" opacity=".83"/><path d="M509.716 625.52h-.29v.31h.29v-.31Z" opacity=".5"/><path d="M516.168 625.439h-.43v.46h.43v-.46Z" opacity=".88"/><path d="M522.698 625.299h-.71v.75h.71v-.75Z" opacity=".75"/><path d="M529.038 625.35h-.62v.65h.62v-.65Z" opacity=".71"/><path d="M535.808 624.939h-1.39v1.47h1.39v-1.47Z" opacity=".89"/><path d="M548.477 625.049h-1.18v1.25h1.18v-1.25Z" opacity=".79"/><path d="M555.085 624.818h-1.62v1.71h1.62v-1.71Z" opacity=".55"/><path d="M561.367 624.908h-1.429v1.51h1.429v-1.51Z" opacity=".64"/><path d="M567.408 625.279h-.74v.79h.74v-.79Z" opacity=".93"/><path d="M574.487 624.549h-2.12v2.24h2.12v-2.24Z" opacity=".84"/><path d="M580.546 624.898h-1.46v1.54h1.46v-1.54Z" opacity=".59"/><path d="M586.675 625.168h-.96v1.01h.96v-1.01Z" opacity=".92"/><path d="M593.586 624.609h-2v2.11h2v-2.11Z" opacity=".73"/><path d="M599.788 624.799h-1.64v1.74h1.64v-1.74Z" opacity=".68"/><path d="M606.318 624.658h-1.92v2.03h1.92v-2.03Z" opacity=".56"/><path d="M612.396 624.979h-1.31v1.38h1.31v-1.38Z" opacity=".61"/><path d="M618.537 625.248h-.81v.85h.81v-.85Z" opacity=".84"/><path d="M625.055 625.09h-1.09v1.16h1.09v-1.16Z" opacity=".66"/><path d="M631.028 625.529h-.27v.29h.27v-.29Z" opacity=".54"/><path d="M414.238 631.959h-.89v.94h.89v-.94Z" opacity=".6"/><path d="M421.618 630.898h-2.88v3.05h2.88v-3.05Z" opacity=".51"/><path d="M427.228 631.729h-1.33v1.4h1.33v-1.4Z" opacity=".79"/><path d="M433.788 631.529h-1.69v1.79h1.69v-1.79Z" opacity=".8"/><path d="M439.496 632.248h-.34v.36h.34v-.36Z" opacity=".84"/><path d="M452.706 631.789h-1.21v1.28h1.21v-1.28Z" opacity=".5"/><path d="M458.976 631.908h-.98v1.04h.98v-1.04Z" opacity=".72"/><path d="M465.277 632.01h-.8v.84h.8v-.84Z" opacity=".62"/><path d="M472.586 631.02h-2.66v2.82h2.66v-2.82Z" opacity=".87"/><path d="M477.767 632.299h-.24v.26h.24v-.26Z" opacity=".62"/><path d="M484.945 631.449h-1.84v1.95h1.84v-1.95Z" opacity=".8"/><path d="M490.617 632.209h-.41v.43h.41v-.43Z" opacity=".67"/><path d="M497.166 632.029h-.74v.79h.74v-.79Z" opacity=".62"/><path d="M503.825 631.738h-1.29v1.37h1.29v-1.37Z" opacity=".63"/><path d="M510.185 631.779h-1.22v1.29h1.22v-1.29Z" opacity=".92"/><path d="M516.859 631.479h-1.8v1.9h1.8v-1.9Z" opacity=".67"/><path d="M523.298 631.418h-1.9v2.01h1.9v-2.01Z" opacity=".73"/><path d="M535.628 631.879h-1.03v1.09h1.03v-1.09Z" opacity=".52"/><path d="M541.996 631.898h-1v1.06h1v-1.06Z" opacity=".54"/><path d="M548.426 631.85h-1.09V633h1.09v-1.15Z" opacity=".61"/><path d="M554.726 631.939h-.91v.97h.91v-.97Z" opacity=".53"/><path d="M561.509 631.529h-1.7v1.8h1.7v-1.8Z" opacity=".7"/><path d="M567.228 632.229h-.38v.4h.38v-.4Z" opacity=".8"/><path d="M573.756 632.068h-.67v.71h.67v-.71Z" opacity=".62"/><path d="M580.208 632.01h-.79v.83h.79v-.83Z" opacity=".6"/><path d="M586.398 632.209h-.41v.44h.41v-.44Z" opacity=".85"/><path d="M592.848 632.148h-.52v.55h.52v-.55Z" opacity=".7"/><path d="M599.407 631.959h-.88v.93h.88v-.93Z" opacity=".56"/><path d="M605.716 632.049h-.72v.76h.72v-.76Z" opacity=".8"/><path d="M618.998 631.51h-1.74v1.84h1.74v-1.84Z" opacity=".7"/><path d="M625.026 631.889h-1.03v1.09h1.03v-1.09Z" opacity=".89"/><path d="M631.636 631.648h-1.48v1.56h1.48v-1.56Z" opacity=".87"/><path d="M413.906 639.049h-.25v.27h.25v-.27Z" opacity=".8"/><path d="M421.248 638.049h-2.15v2.27h2.15v-2.27Z" opacity=".57"/><path d="M427.309 638.389h-1.5v1.59h1.5v-1.59Z" opacity=".58"/><path d="M434.187 637.869h-2.48v2.63h2.48v-2.63Z" opacity=".92"/><path d="M439.877 638.6h-1.1v1.17h1.1v-1.17Z" opacity=".55"/><path d="M446.606 638.229h-1.79v1.9h1.79v-1.9Z" opacity=".57"/><path d="M453.068 638.168h-1.92v2.03h1.92v-2.03Z" opacity=".85"/><path d="M465.057 638.988h-.369v.39h.369v-.39Z" opacity=".72"/><path d="M471.598 638.818h-.68v.72h.68v-.72Z" opacity=".53"/><path d="M478.595 638.18h-1.9v2.01h1.9v-2.01Z" opacity=".83"/><path d="M484.746 638.43h-1.43v1.51h1.43v-1.51Z" opacity=".69"/><path d="M497.176 638.779h-.75v.8h.75v-.8Z" opacity=".54"/><path d="M503.319 639.049h-.26v.27h.26v-.27Z" opacity=".65"/><path d="M509.798 638.939h-.45v.48h.45v-.48Z" opacity=".71"/><path d="M523.567 637.889h-2.45v2.59h2.45v-2.59Z" opacity=".66"/><path d="M529.725 638.119h-2.01v2.13h2.01v-2.13Z" opacity=".62"/><path d="M535.605 638.668h-.98v1.03h.98v-1.03Z" opacity=".67"/><path d="M541.726 638.939h-.46v.49h.46v-.49Z" opacity=".51"/><path d="M549.078 637.918h-2.39v2.53h2.39v-2.53Z" opacity=".81"/><path d="M554.489 638.959h-.43v.45h.43v-.45Z" opacity=".82"/><path d="M561.746 638.029h-2.18v2.3h2.18v-2.3Z" opacity=".59"/><path d="M567.307 638.898h-.53v.56h.53v-.56Z" opacity=".68"/><path d="M574.036 638.539h-1.22v1.29h1.22v-1.29Z" opacity=".78"/><path d="M580.347 638.619h-1.07v1.13h1.07v-1.13Z" opacity=".65"/><path d="M586.798 638.549h-1.2v1.27h1.2v-1.27Z" opacity=".52"/><path d="M593.557 638.158h-1.94v2.05h1.94v-2.05Z" opacity=".53"/><path d="M599.108 639.039h-.28v.29h.28v-.29Zm6.387 0h-.28v.3h.28v-.3Z" opacity=".92"/><path d="M612.177 638.719h-.88v.93h.88v-.93Z" opacity=".64"/><path d="M625.065 638.59h-1.12v1.19h1.12v-1.19Z" opacity=".72"/><path d="M631.688 638.34h-1.59v1.68h1.59v-1.68Z" opacity=".92"/><path d="M414.666 645.01h-1.76v1.86h1.76v-1.86Z" opacity=".54"/><path d="M420.867 645.199h-1.39v1.47h1.39v-1.47Z" opacity=".78"/><path d="M426.946 645.529h-.77v.82h.77v-.82Z" opacity=".51"/><path d="M433.228 645.639h-.56v.59h.56v-.59Z" opacity=".64"/><path d="M439.476 645.779h-.3v.32h.3v-.32Z" opacity=".63"/><path d="M446.235 645.389h-1.04v1.1h1.04v-1.1Z" opacity=".5"/><path d="M452.266 645.76h-.34v.36h.34v-.36Z" opacity=".79"/><path d="M458.788 645.619h-.6v.64h.6v-.64Z" opacity=".53"/><path d="M478.266 645.279h-1.25v1.33h1.25v-1.33Zm6.151.25h-.78v.82h.78v-.82Z" opacity=".6"/><path d="M497.625 645.059h-1.66v1.75h1.66v-1.75Z" opacity=".93"/><path d="M503.905 645.18h-1.44v1.52h1.44v-1.52Z" opacity=".94"/><path d="M510.497 644.949h-1.86v1.97h1.86v-1.97Z" opacity=".8"/><path d="M516.867 644.969h-1.82v1.93h1.82v-1.93Z" opacity=".65"/><path d="M523.268 644.959h-1.85v1.96h1.85v-1.96Z" opacity=".72"/><path d="M535.587 645.439h-.95v1h.95v-1Z" opacity=".83"/><path d="M542.455 644.918h-1.92v2.03h1.92v-2.03Z" opacity=".59"/><path d="M548.219 645.59h-.66v.7h.66v-.7Z" opacity=".75"/><path d="M554.489 645.709h-.43v.45h.43v-.45Z" opacity=".93"/><path d="M561.478 645.059h-1.65v1.75h1.65v-1.75Zm6.057.349h-1v1.06h1v-1.06Z" opacity=".85"/><path d="M580.087 645.639h-.56v.6h.56v-.6Z" opacity=".78"/><path d="M586.839 645.26h-1.28v1.35h1.28v-1.35Z" opacity=".86"/><path d="M593.846 644.6h-2.53v2.68h2.53v-2.68Z" opacity=".74"/><path d="M605.798 645.469h-.88v.93h.88v-.93Z" opacity=".84"/><path d="M618.846 645.18h-1.44v1.52h1.44v-1.52Z" opacity=".57"/><path d="M625.467 644.918h-1.92v2.03h1.92v-2.03Z" opacity=".84"/><path d="M631.368 645.439h-.95v1.01h.95v-1.01Z" opacity=".7"/><path d="M414.416 652.029h-1.26v1.34h1.26v-1.34Z" opacity=".94"/><path d="M420.846 651.979h-1.35v1.43h1.35v-1.43Z" opacity=".72"/><path d="M426.917 652.318h-.71v.75h.71v-.75Z" opacity=".65"/><path d="M433.767 651.818h-1.65v1.75h1.65v-1.75Z" opacity=".55"/><path d="M439.728 652.279h-.79v.84h.79v-.84Z" opacity=".92"/><path d="M446.298 652.09h-1.15v1.21h1.15v-1.21Zm6.279.109h-.94v.99h.94v-.99Z" opacity=".83"/><path d="M458.998 652.158h-1.01v1.07h1.01v-1.07Z" opacity=".79"/><path d="M465.098 652.459h-.45v.48h.45v-.48Z" opacity=".87"/><path d="M472.145 651.76h-1.77v1.87h1.77v-1.87Z" opacity=".86"/><path d="M478.038 652.279h-.78v.82h.78v-.82Z" opacity=".84"/><path d="M491.445 651.6h-2.07v2.19h2.07v-2.19Z" opacity=".5"/><path d="M497.495 651.959h-1.39v1.47h1.39v-1.47Z" opacity=".9"/><path d="M503.768 652.068h-1.17v1.24h1.17v-1.24Zm12.619.17h-.86v.91h.86v-.91Z" opacity=".74"/><path d="M522.426 652.609h-.16v.17h.16v-.17Z" opacity=".69"/><path d="M528.936 652.469h-.42v.44h.42v-.44Z" opacity=".67"/><path d="M542.088 652.078h-1.17v1.23h1.17v-1.23Z" opacity=".76"/><path d="M548.606 651.93h-1.45v1.53h1.45v-1.53Z" opacity=".8"/><path d="M561.126 652.189h-.95v1.01h.95v-1.01Z" opacity=".86"/><path d="M567.326 652.389h-.58v.62h.58v-.62Z" opacity=".94"/><path d="M574.208 651.869h-1.56v1.66h1.56v-1.66Z" opacity=".74"/><path d="M587.546 651.26h-2.71v2.87h2.71v-2.87Z" opacity=".64"/><path d="M593.488 651.729h-1.82v1.93h1.82v-1.93Z" opacity=".67"/><path d="M599.057 652.6h-.17v.18h.17v-.18Z" opacity=".57"/><path d="M605.436 652.6h-.17v.18h.17v-.18Z" opacity=".87"/><path d="M612.017 652.398h-.56v.59h.56v-.59Z" opacity=".93"/><path d="M618.305 652.498h-.36v.39h.36v-.39Z" opacity=".82"/><path d="M625.338 651.818h-1.65v1.75h1.65v-1.75Zm5.81.612h-.5v.52h.5v-.52Z" opacity=".59"/><path d="M420.608 658.988h-.87v.92h.87v-.92Z" opacity=".71"/><path d="M427.718 658.219h-2.32v2.45h2.32v-2.45Z" opacity=".54"/><path d="M439.666 659.09h-.67v.71h.67v-.71Z" opacity=".78"/><path d="M446.528 658.59h-1.63v1.72h1.63v-1.72Z" opacity=".69"/><path d="M453.027 658.479h-1.839v1.94h1.839v-1.94Z" opacity=".57"/><path d="M465.449 658.85h-1.14v1.2h1.14v-1.2Z" opacity=".89"/><path d="M472.368 658.27h-2.22v2.35h2.22v-2.35Z" opacity=".92"/><path d="M478.085 658.979h-.89v.94h.89v-.94Z" opacity=".86"/><path d="M484.275 659.189h-.49v.52h.49v-.52Z" opacity=".89"/><path d="M490.605 659.238h-.39v.42h.39v-.42Z" opacity=".77"/><path d="M497.127 659.109h-.65v.69h.65v-.69Z" opacity=".61"/><path d="M503.827 658.77h-1.28v1.35h1.28v-1.35Z" opacity=".78"/><path d="M509.847 659.158h-.55v.59h.55v-.59Z" opacity=".51"/><path d="M517.146 658.189h-2.38v2.52h2.38v-2.52Z" opacity=".59"/><path d="M522.446 659.35h-.2v.21h.2v-.21Z" opacity=".58"/><path d="M535.828 658.689h-1.43v1.52h1.43v-1.52Z" opacity=".75"/><path d="M542.205 658.699h-1.42v1.5h1.42v-1.5Z" opacity=".82"/><path d="M548.407 658.898h-1.04v1.1h1.04v-1.1Z" opacity=".5"/><path d="M554.739 658.959h-.93v.98h.93v-.98Z" opacity=".67"/><path d="M561.146 658.918h-.99v1.05h.99v-1.05Z" opacity=".53"/><path d="M567.687 658.76h-1.3v1.38h1.3v-1.38Z" opacity=".63"/><path d="M573.617 659.238h-.39v.42h.39v-.42Z" opacity=".56"/><path d="M581.128 658.049h-2.64v2.79h2.64v-2.79Z" opacity=".88"/><path d="M586.728 658.889h-1.06v1.12h1.06v-1.12Z" opacity=".59"/><path d="M605.817 658.959h-.93v.99h.93v-.99Z" opacity=".8"/><path d="M612.677 658.449h-1.88v1.99h1.88v-1.99Z" opacity=".57"/><path d="M631.117 659.219h-.429v.45h.429v-.45Z" opacity=".88"/><path d="M413.978 665.998h-.38v.4h.38v-.4Z" opacity=".84"/><path d="M426.606 666.139h-.11v.12h.11v-.12Z" opacity=".59"/><path d="M433.298 665.84h-.7v.74h.7v-.74Z" opacity=".83"/><path d="M439.916 665.59h-1.17v1.24h1.17v-1.24Z" opacity=".93"/><path d="M452.997 665.26h-1.79v1.9h1.79v-1.9Zm6.412-.031h-1.85v1.96h1.85v-1.96Zm6.226.169h-1.53v1.62h1.53v-1.62Z" opacity=".9"/><path d="M472.307 665.1h-2.1v2.22h2.1v-2.22Z" opacity=".77"/><path d="M484.468 665.748h-.87v.92h.87v-.92Z" opacity=".82"/><path d="M490.566 666.039h-.3v.32h.3v-.32Z" opacity=".74"/><path d="M497.076 665.908h-.56v.59h.56v-.59Z" opacity=".6"/><path d="M503.536 665.84h-.7v.74h.7v-.74Z" opacity=".86"/><path d="M509.707 666.059h-.269v.28h.269v-.28Z" opacity=".93"/><path d="M516.656 665.469h-1.39v1.47h1.39v-1.47Z" opacity=".62"/><path d="M522.795 665.719h-.92v.97h.92v-.97Z" opacity=".55"/><path d="M528.985 665.93h-.52v.55h.52v-.55Z" opacity=".89"/><path d="M535.468 665.828h-.71v.75h.71v-.75Zm6.487-.109h-.92v.97h.92v-.97Z" opacity=".66"/><path d="M547.969 666.119h-.16v.17h.16v-.17Z" opacity=".9"/><path d="M554.995 665.43h-1.46v1.54h1.46v-1.54Z" opacity=".79"/><path d="M561.187 665.639h-1.07v1.14h1.07v-1.14Z" opacity=".69"/><path d="M567.266 665.959h-.45v.48h.45v-.48Z" opacity=".79"/><path d="M573.635 665.988h-.42v.44h.42v-.44Z" opacity=".59"/><path d="M586.855 665.51h-1.32v1.39h1.32v-1.39Z" opacity=".74"/><path d="M593.176 665.578h-1.18v1.25h1.18v-1.25Z" opacity=".85"/><path d="M605.728 665.818h-.74v.78h.74v-.78Z" opacity=".71"/><path d="M612.398 665.52h-1.3v1.37h1.3v-1.37Z" opacity=".58"/><path d="M618.348 665.969h-.45v.48h.45v-.48Z" opacity=".71"/><path d="M624.828 665.859h-.64v.68h.64v-.68Z" opacity=".75"/><path d="M631.317 665.76h-.84v.89h.84v-.89Z" opacity=".91"/><path d="M420.805 672.289h-1.27v1.35h1.27v-1.35Z" opacity=".55"/><path d="M427.728 671.729h-2.33v2.47h2.33v-2.47Z" opacity=".57"/><path d="M434.507 671.309h-3.12v3.3h3.12v-3.3Z" opacity=".71"/><path d="M439.647 672.629h-.62v.65h.62v-.65Z" opacity=".63"/><path d="M446.156 672.488h-.89v.94h.89v-.94Z" opacity=".5"/><path d="M452.368 672.689h-.52v.55h.52v-.55Z" opacity=".73"/><path d="M458.716 672.719h-.45v.47h.45v-.47Zm6.35.041h-.39v.41h.39v-.41Z" opacity=".77"/><path d="M472.418 671.729h-2.32v2.46h2.32v-2.46Z" opacity=".51"/><path d="M479.048 671.469h-2.81v2.97h2.81v-2.97Z" opacity=".64"/><path d="M484.675 672.279h-1.3v1.37h1.3v-1.37Z" opacity=".84"/><path d="M490.668 672.699h-.5v.53h.5v-.53Z" opacity=".7"/><path d="M497.245 672.488h-.89v.94h.89v-.94Z" opacity=".58"/><path d="M503.425 672.709h-.48v.51h.48v-.51Z" opacity=".5"/><path d="M509.828 672.699h-.5v.53h.5v-.53Z" opacity=".75"/><path d="M516.277 672.619h-.64v.67h.64v-.67Z" opacity=".54"/><path d="M522.895 672.369h-1.11v1.18h1.11v-1.18Z" opacity=".72"/><path d="M529.118 672.559h-.77v.81h.77v-.81Z" opacity=".69"/><path d="M535.577 672.459h-.94v1h.94v-1Z" opacity=".51"/><path d="M542.949 671.43h-2.89v3.06h2.89v-3.06Z" opacity=".5"/><path d="M548.227 672.6h-.68v.72h.68v-.72Z" opacity=".63"/><path d="M555.016 672.168h-1.5v1.59h1.5v-1.59Z" opacity=".59"/><path d="M561.115 672.479h-.92v.97h.92v-.97Z" opacity=".61"/><path d="M567.178 672.809h-.28v.3h.28v-.3Z" opacity=".52"/><path d="M574.046 672.309h-1.23v1.3h1.23v-1.3Z" opacity=".86"/><path d="M580.956 671.76h-2.28v2.41h2.28v-2.41Z" opacity=".94"/><path d="M586.705 672.43h-1.01v1.06h1.01v-1.06Z" opacity=".51"/><path d="M593.125 672.389h-1.09v1.15h1.09v-1.15Z" opacity=".55"/><path d="M599.577 672.318h-1.21v1.28h1.21v-1.28Z" opacity=".74"/><path d="M612.367 672.299h-1.25v1.32h1.25v-1.32Z" opacity=".84"/><path d="M619.078 671.949h-1.91v2.02h1.91v-2.02Z" opacity=".77"/><path d="M624.719 672.748h-.41v.43h.41v-.43Z" opacity=".73"/><path d="M631.685 672.129h-1.58v1.67h1.58v-1.67Z" opacity=".58"/><path d="M414.676 678.779h-1.77v1.87h1.77v-1.87Z" opacity=".6"/><path d="M420.828 679.02h-1.32v1.399h1.32v-1.399Z" opacity=".58"/><path d="M426.956 679.289h-.8v.85h.8v-.85Z" opacity=".75"/><path d="M433.198 679.449h-.51v.54h.51v-.54Z" opacity=".71"/><path d="M439.465 679.568h-.27v.28h.27v-.28Z" opacity=".67"/><path d="M446.707 678.668h-1.98v2.09h1.98v-2.09Zm12.261.541h-.96v1.02h.96v-1.02Z" opacity=".89"/><path d="M465.365 679.189h-.99v1.05h.99v-1.05Z" opacity=".52"/><path d="M478.226 679.1h-1.16v1.22h1.16v-1.22Z" opacity=".86"/><path d="M484.708 678.998h-1.36v1.44h1.36v-1.44Z" opacity=".89"/><path d="M491.105 678.979h-1.39v1.47h1.39v-1.47Z" opacity=".9"/><path d="M497.046 679.459h-.48v.5h.48v-.5Z" opacity=".72"/><path d="M503.987 678.869h-1.6v1.69h1.6v-1.69Z" opacity=".87"/><path d="M509.716 679.568h-.29v.3h.29v-.3Z" opacity=".56"/><path d="M516.938 678.689h-1.95v2.06h1.95v-2.06Z" opacity=".75"/><path d="M523.379 678.619h-2.07v2.19h2.07v-2.19Z" opacity=".7"/><path d="M529.558 678.84h-1.66v1.75h1.66v-1.75Z" opacity=".79"/><path d="M535.716 679.078h-1.2v1.27h1.2v-1.27Z" opacity=".78"/><path d="M541.668 679.539h-.34v.36h.34v-.36Z" opacity=".82"/><path d="M548.385 679.18h-1.01v1.07h1.01v-1.07Z" opacity=".93"/><path d="M554.448 679.529h-.35v.37h.35v-.37Z" opacity=".73"/><path d="M567.657 679.068h-1.219v1.29h1.219v-1.29Z" opacity=".91"/><path d="M574.518 678.568h-2.17v2.29h2.17v-2.29Z" opacity=".65"/><path d="M580.106 679.398h-.59v.62h.59v-.62Z" opacity=".8"/><path d="M586.355 679.549h-.32v.34h.32v-.34Z" opacity=".57"/><path d="M599.157 679.51h-.38v.4h.38v-.4Z" opacity=".62"/><path d="M606.436 678.568h-2.17v2.29h2.17v-2.29Z" opacity=".5"/><path d="M612.818 678.578h-2.15v2.28h2.15v-2.28Z" opacity=".67"/><path d="M624.778 679.43h-.54v.57h.54v-.57Z" opacity=".68"/><path d="M631.158 679.449h-.51v.54h.51v-.54Z" opacity=".7"/><path d="M414.318 685.908h-1.06v1.12h1.06v-1.12Z" opacity=".6"/><path d="M420.977 685.619h-1.61v1.7h1.61v-1.7Z" opacity=".59"/><path d="M426.667 686.359h-.21v.22h.21v-.22Z" opacity=".72"/><path d="M433.117 686.289h-.34v.35h.34v-.35Z" opacity=".89"/><path d="M439.588 686.199h-.51v.54h.51v-.54Z" opacity=".82"/><path d="M446.376 685.779h-1.31v1.38h1.31v-1.38Z" opacity=".72"/><path d="M453.315 685.18h-2.44v2.59h2.44v-2.59Z" opacity=".53"/><path d="M459.017 685.908h-1.06v1.12h1.06v-1.12Z" opacity=".81"/><path d="M465.336 685.979h-.93v.99h.93v-.99Z" opacity=".94"/><path d="M471.415 686.309h-.31v.33h.31v-.33Z" opacity=".83"/><path d="M478.417 685.648h-1.55v1.64h1.55v-1.64Z" opacity=".66"/><path d="M484.626 685.84h-1.2v1.27h1.2v-1.27Z" opacity=".64"/><path d="M491.217 685.629h-1.6v1.69h1.6v-1.69Z" opacity=".93"/><path d="M503.847 685.77h-1.32v1.399h1.32v-1.399Z" opacity=".89"/><path d="M510.839 685.129h-2.53v2.68h2.53v-2.68Z" opacity=".78"/><path d="M516.166 686.248h-.42v.45h.42v-.45Z" opacity=".92"/><path d="M522.487 686.328h-.28v.29h.28v-.29Z" opacity=".79"/><path d="M529.286 685.889h-1.11v1.17h1.11v-1.17Z" opacity=".77"/><path d="M541.955 685.988h-.92v.97h.92v-.97Z" opacity=".54"/><path d="M548.459 685.859h-1.15v1.22h1.15v-1.22Z" opacity=".77"/><path d="M555.138 685.549h-1.74v1.84h1.74v-1.84Z" opacity=".92"/><path d="M560.958 686.148h-.61v.65h.61v-.65Z" opacity=".76"/><path d="M568.125 685.318h-2.18v2.31h2.18v-2.31Z" opacity=".92"/><path d="M574.188 685.668h-1.52v1.61h1.52v-1.61Z" opacity=".78"/><path d="M580.417 685.828h-1.21v1.28h1.21v-1.28Z" opacity=".55"/><path d="M586.336 686.328h-.27v.28h.27v-.28Z" opacity=".7"/><path d="M593.137 685.889h-1.11v1.17h1.11v-1.17Z" opacity=".91"/><path d="M599.417 685.998h-.89v.94h.89v-.94Z" opacity=".73"/><path d="M606.026 685.76h-1.35v1.43h1.35v-1.43Z" opacity=".86"/><path d="M612.497 685.668h-1.52v1.61h1.52v-1.61Z" opacity=".89"/><path d="M618.316 686.27h-.39v.41h.39v-.41Z" opacity=".88"/><path d="M625.256 685.68h-1.49v1.58h1.49v-1.58Z" opacity=".9"/><path d="M632.345 684.939h-2.9v3.07h2.9v-3.07Z" opacity=".94"/><path d="M413.896 693.109h-.22v.23h.22v-.23Z" opacity=".69"/><path d="M421.118 692.229h-1.88v1.99h1.88v-1.99Z" opacity=".52"/><path d="M433.285 692.869h-.68v.72h.68v-.72Z" opacity=".64"/><path d="M440.275 692.219h-1.9v2.01h1.9v-2.01Z" opacity=".69"/><path d="M453.087 692.18h-1.97v2.09h1.97v-2.09Z" opacity=".72"/><path d="M460.179 691.449h-3.37v3.56h3.37v-3.56Z" opacity=".7"/><path d="M466.047 691.988h-2.34v2.47h2.34v-2.47Z" opacity=".73"/><path d="M471.837 692.619h-1.149v1.22h1.149v-1.22Z" opacity=".5"/><path d="M477.835 693.02h-.39v.42h.39v-.42Z" opacity=".78"/><path d="M484.537 692.689h-1.01v1.06h1.01v-1.06Z" opacity=".91"/><path d="M490.965 692.639h-1.11v1.18h1.11v-1.18Z" opacity=".62"/><path d="M497.168 692.84h-.73v.77h.73v-.77Z" opacity=".73"/><path d="M503.888 692.488h-1.4v1.48h1.4v-1.48Z" opacity=".69"/><path d="M510.576 692.168h-2.01v2.12h2.01v-2.12Z" opacity=".83"/><path d="M516.187 692.979h-.46v.49h.46v-.49Z" opacity=".72"/><path d="M523.457 692.049h-2.23v2.36h2.23v-2.36Z" opacity=".94"/><path d="M529.605 692.299h-1.75v1.85h1.75v-1.85Z" opacity=".93"/><path d="M535.628 692.68h-1.03v1.09h1.03v-1.09Z" opacity=".55"/><path d="M548.276 692.818h-.78v.82h.78v-.82Z" opacity=".9"/><path d="M554.617 692.869h-.679v.71h.679v-.71Z" opacity=".78"/><path d="M567.797 692.439h-1.5v1.58h1.5v-1.58Z" opacity=".62"/><path d="M573.926 692.699h-1v1.06h1v-1.06Z" opacity=".67"/><path d="M580.415 692.578h-1.22v1.29h1.22v-1.29Z" opacity=".62"/><path d="M586.866 692.51h-1.35v1.43h1.35v-1.43Z" opacity=".72"/><path d="M593.346 692.418h-1.53v1.62h1.53v-1.62Z" opacity=".64"/><path d="M599.495 692.668h-1.05v1.11h1.05v-1.11Z" opacity=".78"/><path d="M605.817 692.738h-.93v.98h.93v-.98Z" opacity=".74"/><path d="M612.007 692.949h-.53v.56h.53v-.56Z" opacity=".5"/><path d="M618.805 692.51h-1.36v1.44h1.36v-1.44Z" opacity=".74"/><path d="M624.635 693.09h-.26v.27h.26v-.27Z" opacity=".85"/><path d="M631.288 692.818h-.78v.82h.78v-.82Z" opacity=".68"/><path d="M414.088 699.658h-.6v.64h.6v-.64Z" opacity=".72"/><path d="M427.346 699.148h-1.58v1.67h1.58v-1.67Z" opacity=".68"/><path d="M434.355 698.488h-2.82v2.99h2.82v-2.99Z" opacity=".51"/><path d="M440.207 699.059h-1.75v1.85h1.75v-1.85Z" opacity=".87"/><path d="M452.399 699.668h-.59v.63h.59v-.63Z" opacity=".85"/><path d="M459.226 699.199h-1.48v1.57h1.48v-1.57Z" opacity=".7"/><path d="M465.486 699.318h-1.24v1.32h1.24v-1.32Z" opacity=".92"/><path d="M471.975 699.219h-1.44v1.52h1.44v-1.52Z" opacity=".71"/><path d="M477.745 699.869h-.21v.23h.21v-.23Z" opacity=".62"/><path d="M491.388 698.949h-1.95v2.06h1.95v-2.06Z" opacity=".71"/><path d="M496.965 699.799h-.34v.36h.34v-.36Z" opacity=".7"/><path d="M503.638 699.51h-.9v.95h.9v-.95Z" opacity=".73"/><path d="M510.126 699.398h-1.11v1.17h1.11v-1.17Z" opacity=".88"/><path d="M517.506 698.34h-3.1v3.28h3.1v-3.28Z" opacity=".59"/><path d="M522.538 699.77h-.39v.42h.39v-.42Z" opacity=".73"/><path d="M528.807 699.889h-.17v.18h.17v-.18Z" opacity=".59"/><path d="M536.187 698.85h-2.14v2.26h2.14v-2.26Z" opacity=".51"/><path d="M548.325 699.52h-.88v.94h.88v-.94Z" opacity=".64"/><path d="M567.768 699.219h-1.44v1.52h1.44v-1.52Z" opacity=".61"/><path d="M573.735 699.648h-.63v.67h.63v-.67Z" opacity=".71"/><path d="M580.677 699.059h-1.739v1.84h1.739v-1.84Z" opacity=".86"/><path d="M586.476 699.68h-.57v.61h.57v-.61Z" opacity=".69"/><path d="M593.359 699.158h-1.55v1.64h1.55v-1.64Z" opacity=".53"/><path d="M599.497 699.418h-1.059v1.12h1.059v-1.12Z" opacity=".55"/><path d="M606.528 698.748h-2.34v2.48h2.34v-2.48Z" opacity=".8"/><path d="M612.087 699.609h-.7v.74h.7v-.74Z" opacity=".52"/><path d="M618.375 699.719h-.5v.53h.5v-.53Z" opacity=".72"/><path d="M624.815 699.648h-.62v.66h.62v-.66Z" opacity=".75"/><path d="M631.016 699.85h-.25v.27h.25v-.27Z" opacity=".84"/><path d="M414.955 705.51h-2.33v2.46h2.33v-2.46Z" opacity=".54"/><path d="M420.877 705.998h-1.4v1.48h1.4v-1.48Z" opacity=".82"/><path d="M427.046 706.219h-.98v1.03h.98v-1.03Z" opacity=".61"/><path d="M433.068 706.609h-.24v.26h.24v-.26Z" opacity=".59"/><path d="M440.326 705.689h-1.99v2.11h1.99v-2.11Z" opacity=".63"/><path d="M446.217 706.199h-1.01v1.07h1.01v-1.07Z" opacity=".71"/><path d="M452.487 706.34h-.76v.8h.76v-.8Z" opacity=".88"/><path d="M459.265 705.908h-1.57v1.66h1.57v-1.66Z" opacity=".54"/><path d="M465.645 705.93h-1.54v1.62h1.54v-1.62Z" opacity=".81"/><path d="M471.815 706.148h-1.12v1.18h1.12v-1.18Z" opacity=".91"/><path d="M478.098 706.26h-.91v.97h.91v-.97Z" opacity=".82"/><path d="M484.417 706.328h-.78v.82h.78v-.82Z" opacity=".92"/><path d="M490.725 706.408h-.62v.65h.62v-.65Z" opacity=".52"/><path d="M497.475 706.029h-1.35v1.43h1.35v-1.43Z" opacity=".55"/><path d="M510.097 706.18h-1.05v1.11h1.05v-1.11Z" opacity=".66"/><path d="M516.248 706.43h-.58v.61h.58v-.61Z" opacity=".91"/><path d="M522.578 706.479h-.48v.51h.48v-.51Z" opacity=".56"/><path d="M529.028 706.43h-.59v.62h.59v-.62Z" opacity=".88"/><path d="M542.336 705.85h-1.68v1.78h1.68v-1.78Z" opacity=".8"/><path d="M548.297 706.299h-.82v.87h.82v-.87Z" opacity=".88"/><path d="M554.845 706.129h-1.15v1.22h1.15v-1.22Z" opacity=".77"/><path d="M561.087 706.279h-.86v.91h.86v-.91Z" opacity=".65"/><path d="M568.396 705.299h-2.72v2.88h2.72v-2.88Z" opacity=".66"/><path d="M573.815 706.328h-.78v.82h.78v-.82Z" opacity=".57"/><path d="M586.376 706.549h-.36v.38h.36v-.38Z" opacity=".91"/><path d="M593.076 706.219h-.99v1.04h.99v-1.04Z" opacity=".66"/><path d="M599.245 706.449h-.55v.59h.55v-.59Z" opacity=".62"/><path d="M605.675 706.398h-.64v.68h.64v-.68Z" opacity=".92"/><path d="M612.086 706.379h-.68v.71h.68v-.71Z" opacity=".77"/><path d="M624.975 706.238h-.94v1h.94v-1Z" opacity=".66"/><path d="M631.837 705.738h-1.88v1.99h1.88v-1.99Z" opacity=".88"/><path d="M420.877 712.738h-1.42v1.51h1.42v-1.51Z" opacity=".91"/><path d="M426.978 713.049h-.83v.88h.83v-.88Z" opacity=".57"/><path d="M433.206 713.219h-.53v.56h.53v-.56Z" opacity=".94"/><path d="M445.938 713.248h-.45v.48h.45v-.48Z" opacity=".79"/><path d="M452.245 713.328h-.3v.32h.3v-.32Z" opacity=".76"/><path d="M458.568 713.418h-.15v.16h.15v-.16Z" opacity=".9"/><path d="M465.457 712.869h-1.18v1.25h1.18v-1.25Z" opacity=".68"/><path d="M472.086 712.619h-1.66v1.75h1.66v-1.75Z" opacity=".91"/><path d="M478.036 713.078h-.79v.84h.79v-.84Z" opacity=".87"/><path d="M497.436 712.818h-1.28v1.36h1.28v-1.36Z" opacity=".8"/><path d="M503.407 713.27h-.43v.449h.43v-.449Z" opacity=".85"/><path d="M510.498 712.51h-1.85v1.96h1.85v-1.96Z" opacity=".75"/><path d="M517.136 712.238h-2.37v2.51h2.37v-2.51Z" opacity=".55"/><path d="M523.497 712.27h-2.309v2.449h2.309v-2.449Z" opacity=".82"/><path d="M529.317 712.869h-1.18v1.25h1.18v-1.25Z" opacity=".89"/><path d="M535.468 713.119h-.71v.75h.71v-.75Z" opacity=".85"/><path d="M542.547 712.389h-2.09v2.21h2.09v-2.21Z" opacity=".55"/><path d="M548.096 713.27h-.42v.44h.42v-.44Z" opacity=".87"/><path d="M554.808 712.93h-1.07v1.13h1.07v-1.13Z" opacity=".71"/><path d="M561.226 712.889h-1.14v1.21h1.14v-1.21Z" opacity=".7"/><path d="M568.426 712.029h-2.77v2.93h2.77v-2.93Z" opacity=".76"/><path d="M574.036 712.85h-1.22v1.29h1.22v-1.29Z" opacity=".8"/><path d="M586.306 713.379h-.22v.24h.22v-.24Z" opacity=".83"/><path d="M593.127 712.918h-1.08v1.14h1.08v-1.14Z" opacity=".64"/><path d="M599.577 712.85h-1.21v1.28h1.21v-1.28Z" opacity=".61"/><path d="M606.126 712.68h-1.54v1.63h1.54v-1.63Z" opacity=".58"/><path d="M612.398 712.789h-1.32v1.4h1.32v-1.4Z" opacity=".92"/><path d="M631.927 712.408h-2.06v2.18h2.06v-2.18Z" opacity=".83"/><path d="M427.075 719.699h-1.04v1.1h1.04v-1.1Z" opacity=".65"/><path d="M446.178 719.76h-.92v.97h.92v-.97Z" opacity=".55"/><path d="M452.717 719.59h-1.24v1.31h1.24v-1.31Zm6.96-.602h-2.38v2.52h2.38v-2.52Z" opacity=".57"/><path d="M465.887 719.18h-2.02v2.14h2.02v-2.14Z" opacity=".61"/><path d="M471.949 719.51h-1.39v1.47h1.39v-1.47Z" opacity=".78"/><path d="M477.737 720.148h-.19v.21h.19v-.21Z" opacity=".87"/><path d="M484.126 720.148h-.2v.21h.2v-.21Z" opacity=".61"/><path d="M490.627 720.029h-.42v.44h.42v-.44Z" opacity=".84"/><path d="M497.536 719.469h-1.47v1.55h1.47v-1.55Zm12.44.359h-.8v.84h.8v-.84Z" opacity=".74"/><path d="M522.678 719.889h-.67v.71h.67v-.71Z" opacity=".52"/><path d="M529.825 719.078h-2.2v2.33h2.2v-2.33Z" opacity=".57"/><path d="M536.125 719.18h-2.02v2.13h2.02v-2.13Z" opacity=".54"/><path d="M541.977 719.748h-.95v1.01h.95v-1.01Z" opacity=".65"/><path d="M549.526 718.51h-3.28v3.47h3.28v-3.47Z" opacity=".54"/><path d="M554.726 719.77h-.91v.959h.91v-.959Z" opacity=".79"/><path d="M568.735 718.459h-3.38v3.57h3.38v-3.57Z" opacity=".75"/><path d="M574.086 719.549h-1.32v1.4h1.32v-1.4Z" opacity=".6"/><path d="M579.997 720.049h-.38v.4h.38v-.4Z" opacity=".58"/><path d="M586.896 719.51h-1.4v1.48h1.4v-1.48Z" opacity=".54"/><path d="M593.508 719.279h-1.84v1.95h1.84v-1.95Z" opacity=".65"/><path d="M599.215 719.979h-.5v.53h.5v-.53Z" opacity=".55"/><path d="M612.607 719.328h-1.74v1.84h1.74v-1.84Z" opacity=".67"/><path d="M619.535 718.76h-2.82v2.98h2.82v-2.98Z" opacity=".68"/><path d="M625.417 719.299h-1.8v1.9h1.8v-1.9Z" opacity=".54"/><path d="M631.458 719.648h-1.13v1.2h1.13v-1.2Z" opacity=".92"/><path d="M414.205 726.568h-.83v.88h.83v-.88Z" opacity=".81"/><path d="M421.127 725.998h-1.9v2.01h1.9v-2.01Z" opacity=".88"/><path d="M426.948 726.59h-.78v.82h.78v-.82Z" opacity=".71"/><path d="M433.396 726.529h-.9v.95h.9v-.95Z" opacity=".88"/><path d="M439.768 726.539h-.87v.92h.87v-.92Z" opacity=".67"/><path d="M458.798 726.668h-.63v.67h.63v-.67Z" opacity=".52"/><path d="M484.556 726.449h-1.06v1.12h1.06v-1.12Z" opacity=".71"/><path d="M491.125 726.248h-1.43v1.51h1.43v-1.51Z" opacity=".84"/><path d="M503.368 726.818h-.36v.38h.36v-.38Z" opacity=".69"/><path d="M509.765 726.799h-.39v.41h.39v-.41Z" opacity=".65"/><path d="M516.096 726.859h-.28v.3h.28v-.3Z" opacity=".91"/><path d="M522.907 726.408h-1.13v1.2h1.13v-1.2Z" opacity=".76"/><path d="M529.915 725.748h-2.38v2.52h2.38v-2.52Z" opacity=".75"/><path d="M542.158 726.309h-1.31v1.39h1.31v-1.39Z" opacity=".94"/><path d="M548.477 726.379h-1.18v1.25h1.18v-1.25Z" opacity=".87"/><path d="M554.696 726.549h-.86v.91h.86v-.91Z" opacity=".55"/><path d="M561.896 725.689h-2.49v2.63h2.49v-2.63Z" opacity=".68"/><path d="M567.486 726.529h-.9v.95h.9v-.95Z" opacity=".75"/><path d="M573.826 726.578h-.81v.86h.81v-.86Z" opacity=".66"/><path d="M580.735 726.02h-1.86v1.97h1.86v-1.97Zm5.751.679h-.58v.61h.58v-.61Z" opacity=".71"/><path d="M593.018 726.549h-.87v.92h.87v-.92Z" opacity=".94"/><path d="M605.436 726.918h-.17v.18h.17v-.18Z" opacity=".7"/><path d="M612.787 725.889h-2.099v2.22h2.099v-2.22Z" opacity=".64"/><path d="M625.137 726.34h-1.25v1.32h1.25v-1.32Z" opacity=".83"/><path d="M631.249 726.639h-.69v.73h.69v-.73Z" opacity=".56"/></g></svg>