<svg xmlns="http://www.w3.org/2000/svg" width="43" height="44" fill="none"><mask id="a" width="8" height="8" x="17" y="18" maskUnits="userSpaceOnUse" style="mask-type:luminance"><path fill="#fff" d="M23.833 23.497c-1.328 1.822-3.5 2.63-4.849 1.807-1.35-.823-1.366-2.969-.038-4.791 1.328-1.822 3.5-2.632 4.849-1.808 1.35.824 1.366 2.97.038 4.792Z"/></mask><g fill="#1F375B" mask="url(#a)"><path d="M18.194 18.305h-.116v.112h.116v-.112Z" opacity=".79"/><path d="M18.888 18.344h-.052v.049h.052v-.05Z" opacity=".87"/><path d="M19.702 18.266H19.5v.195h.202v-.195Z" opacity=".86"/><path d="M20.37 18.32h-.089v.086h.088v-.086Z" opacity=".84"/><path d="M21.909 18.25h-.237v.23h.237v-.23Z" opacity=".5"/><path d="M22.596 18.29h-.159v.153h.16v-.154Z" opacity=".9"/><path d="M23.31 18.297h-.134v.13h.135v-.13Zm1.452.016h-.098v.094h.098v-.095Z" opacity=".74"/><path d="M18.927 19.008h-.13v.126h.13v-.126Z" opacity=".89"/><path d="M19.72 18.953h-.255v.246h.255v-.246Z" opacity=".92"/><path d="M20.376 19.023h-.103v.099h.103v-.099Z" opacity=".86"/><path d="M21.087 19.047h-.056v.054h.056v-.054Z" opacity=".89"/><path d="M21.807 19.055h-.045v.044h.045v-.044Z" opacity=".77"/><path d="M22.559 19.04h-.075v.071h.075v-.072Z" opacity=".61"/><path d="M23.318 19h-.146v.141h.146V19Z" opacity=".78"/><path d="M24.012 19.04h-.063v.06h.063v-.06Z" opacity=".51"/><path d="M24.847 18.945h-.273v.264h.273v-.264Z" opacity=".59"/><path d="M18.235 19.672h-.212v.206h.212v-.206Zm.718.016h-.176v.17h.176v-.17Z" opacity=".9"/><path d="M19.718 19.664h-.241v.232h.24v-.232Z" opacity=".77"/><path d="M21.108 19.734h-.1v.097h.1v-.097Z" opacity=".82"/><path d="M21.801 19.766h-.035v.035h.035v-.035Z" opacity=".74"/><path d="M22.547 19.758h-.063v.062h.063v-.062Z" opacity=".6"/><path d="M23.288 19.742h-.081v.077h.08v-.077Z" opacity=".86"/><path d="M24 19.766h-.031v.03H24v-.03Z" opacity=".93"/><path d="M24.792 19.695h-.16v.154h.16v-.154Z" opacity=".62"/><path d="M18.16 20.453h-.05v.05h.05v-.05Zm.724 0h-.044v.043h.044v-.043Z" opacity=".77"/><path d="M19.727 20.36h-.266v.257h.266v-.258Z" opacity=".51"/><path d="M20.49 20.328h-.322v.312h.322v-.312Z" opacity=".64"/><path d="M21.133 20.414h-.149v.144h.15v-.144Z" opacity=".84"/><path d="M21.81 20.453h-.056v.056h.057v-.056Z" opacity=".7"/><path d="M22.566 20.445h-.101v.099h.1v-.099Z" opacity=".58"/><path d="M23.278 20.453h-.055v.053h.055v-.053Z" opacity=".5"/><path d="M24.01 20.453h-.057v.056h.057v-.056Z" opacity=".75"/><path d="M24.745 20.453h-.073v.07h.073v-.07Z" opacity=".54"/><path d="M18.188 21.14h-.11v.108h.11v-.107Z" opacity=".89"/><path d="M18.926 21.14h-.113v.11h.113v-.11Z" opacity=".52"/><path d="M20.39 21.133h-.132v.129h.132v-.13Z" opacity=".86"/><path d="M21.136 21.117h-.155v.151h.155v-.15Z" opacity=".89"/><path d="M21.87 21.117h-.16v.154h.16v-.154Z" opacity=".9"/><path d="M22.543 21.164h-.055v.053h.055v-.053Z" opacity=".72"/><path d="M23.34 21.11h-.184v.176h.183v-.177Z" opacity=".87"/><path d="M24.003 21.172h-.034v.033h.034v-.033Z" opacity=".56"/><path d="M24.825 21.086h-.223v.216h.223v-.216Z" opacity=".75"/><path d="M18.195 21.828h-.12v.117h.12v-.117Z" opacity=".81"/><path d="M18.92 21.836h-.108v.103h.108v-.103Z" opacity=".94"/><path d="M19.611 21.875h-.037v.036h.037v-.036Z" opacity=".83"/><path d="M20.411 21.82h-.177v.172h.177v-.172Z" opacity=".66"/><path d="M21.126 21.828h-.138v.133h.138v-.133Z" opacity=".64"/><path d="M21.878 21.82h-.183v.178h.183v-.178Z" opacity=".93"/><path d="M23.323 21.828h-.151v.146h.151v-.146Z" opacity=".89"/><path d="M24.125 21.758h-.29v.28h.29v-.28Z" opacity=".78"/><path d="M24.732 21.875h-.048v.047h.047v-.047Z" opacity=".92"/><path d="M18.327 22.422h-.386v.373h.386v-.373Z" opacity=".7"/><path d="M18.998 22.477h-.268v.258h.268v-.258Z" opacity=".73"/><path d="M19.66 22.54h-.133v.127h.133v-.128Z" opacity=".5"/><path d="M20.35 22.586h-.045v.044h.045v-.044Z" opacity=".78"/><path d="M21.116 22.547H21v.112h.116v-.112Z" opacity=".91"/><path d="M21.85 22.547h-.127v.123h.127v-.123Z" opacity=".62"/><path d="M22.56 22.563h-.083v.08h.083v-.08Z" opacity=".73"/><path d="M23.332 22.523h-.16v.156h.16v-.156Z" opacity=".69"/><path d="M24.093 22.508h-.23v.222h.23v-.222Z" opacity=".83"/><path d="M24.737 22.586h-.053v.052h.053v-.052Z" opacity=".72"/><path d="M18.217 23.234h-.17v.164h.17v-.164Z" opacity=".7"/><path d="M18.936 23.242h-.143v.138h.143v-.138Z" opacity=".92"/><path d="M19.673 23.234h-.165v.16h.165v-.16Z" opacity=".71"/><path d="M20.338 23.305h-.026v.025h.026v-.025Z" opacity=".62"/><path d="M21.899 23.203h-.223v.216h.223v-.216Z" opacity=".71"/><path d="M22.537 23.297h-.04v.04h.04v-.04Z" opacity=".7"/><path d="M23.299 23.258h-.104v.1h.104v-.1Z" opacity=".73"/><path d="M24.044 23.25h-.126v.122h.126v-.122Z" opacity=".88"/><path d="M24.887 23.148h-.356v.345h.356v-.345Z" opacity=".59"/><path d="M18.223 23.93h-.18v.174h.18v-.174Z" opacity=".54"/><path d="M18.95 23.938h-.177v.17h.177v-.17Z" opacity=".81"/><path d="M19.656 23.96h-.129v.124h.129v-.123Z" opacity=".91"/><path d="M20.378 23.977h-.105v.1h.105v-.1Z" opacity=".82"/><path d="M21.1 23.977h-.088v.085h.088v-.085Z" opacity=".92"/><path d="M21.82 23.984h-.07v.068h.07v-.068Z" opacity=".52"/><path d="M22.591 23.945h-.154v.15h.154v-.15Z" opacity=".55"/><path d="M24.038 23.969h-.12v.117h.12v-.117Z" opacity=".66"/><path d="M24.743 23.984h-.067v.065h.067v-.065Z" opacity=".91"/><path d="M18.147 24.719h-.018v.017h.018v-.017Z" opacity=".9"/><path d="M18.932 24.664h-.135v.131h.135v-.13Z" opacity=".68"/><path d="M19.693 24.633h-.19v.184h.19v-.184Z" opacity=".91"/><path d="M20.368 24.688h-.09v.088h.09v-.088Z" opacity=".87"/><path d="M22.589 24.664h-.148v.141h.148v-.14Z" opacity=".8"/><path d="M23.272 24.703h-.05v.047h.05v-.047Z" opacity=".85"/><path d="M24.083 24.625h-.212v.206h.212v-.206Z" opacity=".75"/><path d="M24.845 24.602h-.27v.262h.27v-.262Z" opacity=".55"/><path d="M18.268 25.305h-.272v.263h.273v-.263Z" opacity=".57"/><path d="M18.98 25.32h-.23v.225h.23v-.225Z" opacity=".61"/><path d="M19.667 25.36h-.16v.153h.16v-.154Z" opacity=".78"/><path d="M20.335 25.43h-.023v.022h.023v-.022Z" opacity=".87"/><path d="M21.07 25.43h-.023v.022h.022v-.022Z" opacity=".61"/><path d="M21.81 25.406h-.048v.047h.048v-.047Z" opacity=".84"/><path d="M22.597 25.36h-.167v.162h.167v-.163Zm1.427.03h-.09v.089h.09v-.088Z" opacity=".74"/></g><path fill="#000" d="M20.924 37.766V26.1c-.706-.104-1.353-.34-1.947-.776-.283.259-.565.516-.845.775-2.7 2.484-5.397 4.973-8.103 7.45-.226.207-.31.37-.237.705.233 1.064-.415 2.12-1.458 2.493-.997.355-2.128-.094-2.653-1.054-.517-.946-.287-2.076.57-2.801.791-.67 1.875-.671 2.724-.001l.124.096.898-.827c2.692-2.483 5.381-4.967 8.075-7.446.115-.106.115-.17.048-.31-.214-.45-.417-.907-.59-1.375-.063-.172-.16-.16-.284-.16-2.093 0-4.187-.003-6.281-.003-1.577 0-3.152.002-4.729.004h-.27c-.23 1.223-.915 2.05-2.116 2.472.108.344.2.691.327 1.024.264.695.544 1.384.827 2.072.073.18.076.327-.117.413-.186.084-.308-.02-.37-.183-.385-1.01-.764-2.02-1.144-3.032-.021-.058-.038-.118-.055-.174C1.11 25.582.019 23.79 0 22.505c-.024-1.585 1.384-3.22 3.208-3.074.321-.852.636-1.694.958-2.532.085-.219.193-.43.298-.64.077-.154.17-.299.38-.207.18.078.217.23.102.457a15.35 15.35 0 0 0-1.075 2.781c-.022.08-.04.164-.062.252 1.094.389 1.817 1.11 2.12 2.243h11.437c.17-.514.324-1.003.492-1.488.043-.125.106-.25.188-.351.144-.177.087-.285-.062-.426-1.766-1.67-3.525-3.347-5.289-5.02-.636-.605-1.277-1.205-1.917-1.807-.068-.063-.139-.123-.218-.195-.06.054-.111.1-.16.147-.72.688-1.75.833-2.635.37a2.24 2.24 0 0 1-1.17-2.3c.156-.992.901-1.765 1.865-1.933 1.435-.251 2.792 1.056 2.6 2.499-.01.09.028.22.092.28 2.56 2.44 5.126 4.873 7.69 7.308.023.021.048.039.086.068a3.918 3.918 0 0 1 1.99-.853V6.336c-.159-.04-.312-.073-.46-.118-1.7-.516-2.621-2.384-2.024-4.093C19.024.438 20.86-.428 22.491.21c1.241.486 2.092 1.781 2.04 3.102-.051 1.298-1.006 2.539-2.258 2.925-.164.05-.263.094-.263.306.008 3.788.004 7.576.004 11.363 0 .055.005.109.008.183a4.027 4.027 0 0 1 1.93.88c.625-.588 1.234-1.166 1.846-1.738a3848.75 3848.75 0 0 1 5.937-5.532c.116-.108.158-.206.136-.364-.17-1.221.703-2.402 1.888-2.564 1.201-.166 2.382.725 2.547 1.92.173 1.243-.672 2.393-1.903 2.569-.663.094-1.257-.096-1.779-.514-.08-.063-.154-.132-.25-.217l-7.666 7.176c.153.34.326.666.446 1.009.118.338.185.694.28 1.066H36.98c.323-1.154 1.034-1.941 2.241-2.282-.09-.314-.16-.627-.273-.923-.26-.681-.54-1.354-.81-2.03-.023-.058-.075-.12-.065-.172.02-.105.052-.262.12-.288.088-.033.256.006.318.077.111.125.173.295.246.451.419.906.762 1.837.991 2.797.31.043.617.058.91.132 1.445.366 2.427 1.828 2.232 3.305a2.967 2.967 0 0 1-3.004 2.596c-.159-.003-.194.06-.228.19a16.741 16.741 0 0 1-1.05 2.915c-.034.07-.055.164-.112.202-.08.054-.213.118-.28.086-.082-.04-.144-.167-.167-.268-.015-.07.052-.159.081-.24l1.013-2.805c.018-.05.024-.105.04-.176-1.23-.382-1.966-1.212-2.225-2.486h-.357c-3.67 0-7.34 0-11.01-.004-.176 0-.262.038-.302.226-.126.599-.401 1.133-.801 1.636 2.806 2.685 5.602 5.362 8.409 8.046.618-.422 1.275-.495 1.971-.237.907.334 1.524 1.268 1.466 2.223-.058.966-.774 1.823-1.708 2.041-.97.228-1.942-.208-2.446-1.08-.369-.64-.407-1.294-.103-1.959.083-.182.045-.278-.082-.4-.902-.86-1.796-1.729-2.698-2.589a2136.995 2136.995 0 0 0-5.455-5.186c-.057-.055-.193-.105-.242-.075a4.3 4.3 0 0 1-1.576.573c-.003.093-.01.178-.01.261 0 3.733.002 7.466-.003 11.2 0 .202.049.288.253.356 1.261.419 2.027 1.297 2.214 2.609.185 1.3-.345 2.315-1.428 3.03-1.108.732-2.708.587-3.724-.308a3.06 3.06 0 0 1-.737-3.666c.435-.885 1.123-1.473 2.088-1.72l.205-.055c.006 0 .012-.007.038-.026l.003.009Zm.516-12.615c1.66.01 2.997-1.337 3.007-3.028.012-1.71-1.323-3.087-2.998-3.093a3.035 3.035 0 0 0-3.063 3.032 3.036 3.036 0 0 0 3.054 3.09Zm2.172-21.938c.005-1.271-.977-2.276-2.227-2.276-1.255 0-2.208.972-2.21 2.259-.003 1.24.966 2.238 2.18 2.246a2.247 2.247 0 0 0 2.257-2.227v-.002Zm-2.2 39.868a2.16 2.16 0 0 0 2.189-2.17 2.182 2.182 0 0 0-2.18-2.216 2.176 2.176 0 0 0-2.215 2.199c-.002 1.22.966 2.18 2.205 2.187ZM5.08 22.447c.003-1.13-.921-2.053-2.066-2.063-1.157-.01-2.06.898-2.066 2.076-.005 1.132.911 2.083 2.014 2.086a2.12 2.12 0 0 0 2.118-2.099Zm34.815-2.065c-1.14.003-2.034.907-2.035 2.059-.003 1.14.95 2.106 2.069 2.1a2.078 2.078 0 0 0 2.066-2.069 2.095 2.095 0 0 0-2.1-2.09ZM8.822 9.74c-.714-.005-1.283.574-1.287 1.31a1.264 1.264 0 0 0 1.27 1.272 1.286 1.286 0 0 0 1.306-1.265 1.31 1.31 0 0 0-1.29-1.315V9.74Zm26.554 1.296a1.316 1.316 0 0 0-1.296-1.31c-.686 0-1.248.58-1.255 1.292-.008.694.57 1.287 1.257 1.29a1.272 1.272 0 0 0 1.294-1.272ZM34.111 33.36c-.677-.014-1.253.552-1.271 1.248-.018.684.557 1.28 1.252 1.302a1.266 1.266 0 0 0 1.29-1.251 1.278 1.278 0 0 0-1.27-1.3Zm-26.486-.002c-.675-.016-1.24.55-1.254 1.257a1.287 1.287 0 0 0 1.244 1.299c.682.018 1.271-.559 1.286-1.26.016-.7-.552-1.277-1.276-1.294v-.002Z"/><path fill="#000" d="M29.059 37.99c.08-.098.132-.196.214-.255.826-.59 1.659-1.173 2.486-1.762.159-.112.29-.099.407.049.122.153.061.282-.076.38-.842.596-1.683 1.193-2.533 1.776-.083.058-.233.049-.343.026-.058-.013-.094-.125-.155-.214Zm3.129-29.515c-.07.092-.111.2-.182.225-.088.031-.224.03-.298-.02-.291-.196-.56-.428-.85-.627-.484-.332-.977-.65-1.468-.974-.066-.043-.16-.073-.19-.134-.05-.107-.11-.25-.077-.346.049-.15.203-.18.354-.109.043.02.083.044.122.07.795.557 1.591 1.112 2.382 1.673.077.054.126.146.207.242Zm-21.154.159c-.081-.073-.201-.131-.22-.212-.02-.093.018-.243.086-.304.24-.212.495-.409.763-.586.541-.36 1.092-.703 1.64-1.05.152-.096.304-.105.407.067.113.188.004.304-.15.402-.553.357-1.105.712-1.652 1.076-.215.143-.413.31-.622.462-.068.049-.145.083-.252.144Zm2.713 29.286c-.005.272-.194.383-.39.285a6.626 6.626 0 0 1-.674-.377c-.58-.384-1.152-.78-1.727-1.17-.02-.013-.037-.03-.056-.044-.146-.112-.232-.248-.102-.418.131-.173.28-.115.43-.008.427.304.85.613 1.287.903.332.22.685.409 1.02.623.096.06.167.162.215.207l-.003-.001ZM27.273 5.752 27 5.665l-2.206-.715c-.051-.017-.104-.03-.156-.05-.164-.062-.244-.182-.186-.35.056-.159.185-.235.355-.182.568.176 1.135.35 1.698.535.273.091.547.19.803.322.085.043.158.197.153.295-.004.083-.129.161-.19.232h.002Zm.203 33.424c-.043.042-.108.154-.2.183-.812.259-1.628.503-2.442.748-.183.056-.307-.03-.36-.207-.055-.184.075-.263.212-.306.806-.25 1.613-.497 2.422-.736.199-.059.363.065.367.317l.001.001ZM15.625 5.741c-.063-.062-.18-.123-.196-.204-.017-.095.032-.223.094-.305.05-.066.16-.094.248-.123.69-.225 1.38-.451 2.073-.67.209-.068.365.007.41.183.055.209-.069.293-.248.35-.714.227-1.425.462-2.138.694l-.242.075h-.001Zm2.308 34.397c-.54-.157-1.083-.308-1.62-.47-.246-.074-.488-.167-.729-.258-.159-.06-.248-.173-.184-.348.063-.17.2-.209.363-.16.763.229 1.526.459 2.288.69.14.042.239.122.21.288-.026.162-.14.244-.33.258h.002ZM8.826 12.729c.836 0 1.514-.76 1.514-1.697s-.678-1.696-1.514-1.696-1.514.76-1.514 1.696c0 .937.678 1.697 1.514 1.697Zm25.531 0c.836 0 1.514-.76 1.514-1.697s-.678-1.696-1.514-1.696-1.513.76-1.513 1.696c0 .937.677 1.697 1.513 1.697ZM21.483 43.17c1.343 0 2.431-1.03 2.431-2.3 0-1.27-1.088-2.3-2.431-2.3s-2.432 1.03-2.432 2.3c0 1.27 1.089 2.3 2.432 2.3Z"/></svg>