<svg xmlns="http://www.w3.org/2000/svg" width="20" height="16" fill="none"><path fill="#363637" d="M19.8 4.004s-.195-1.38-.796-1.984c-.762-.797-1.613-.801-2.004-.848-2.797-.203-6.996-.203-6.996-.203h-.008s-4.2 0-6.996.203c-.39.047-1.242.05-2.004.848-.601.605-.793 1.984-.793 1.984S0 5.624 0 7.242v1.516c0 1.617.2 3.238.2 3.238s.195 1.379.792 1.985c.762.796 1.762.769 2.207.855 1.602.152 6.801.199 6.801.199s4.203-.008 7-.207c.39-.047 1.242-.051 2.004-.847.601-.606.797-1.985.797-1.985S20 10.379 20 8.758V7.242c0-1.617-.2-3.238-.2-3.238ZM7.935 10.598V4.977l5.402 2.82-5.402 2.8Z"/></svg>