<svg xmlns="http://www.w3.org/2000/svg" width="401" height="400" fill="none"><path fill="#D7FE51" d="M200.969 400c110.457 0 200-89.543 200-200s-89.543-200-200-200-200 89.543-200 200 89.543 200 200 200Z"/><g clip-path="url(#a)"><path fill="#1C2925" d="M230.213 90.94h-58.501a17.542 17.542 0 0 0-15.802 9.916l-29.908 62.011c-3.742 7.755 1.915 16.752 10.539 16.752h40.36c5.614 0 10.73-3.213 13.171-8.267l10.89-22.578 55.797 115.668-75.385-54.504a17.58 17.58 0 0 0-10.291-3.33h-55.182a17.541 17.541 0 0 0-15.802 9.917l-36.53 75.783c-3.742 7.755 1.915 16.751 10.54 16.751h40.359c5.613 0 10.73-3.213 13.171-8.266l29.66-61.485 81.714 62.113a37.456 37.456 0 0 0 22.657 7.638h66.161c8.625 0 14.282-8.996 10.539-16.751l-92.355-191.452a17.542 17.542 0 0 0-15.802-9.916Z"/></g><defs><clipPath id="a"><path fill="#fff" d="M62.398 90.94H339.54v218.12H62.4z"/></clipPath></defs></svg>