<svg xmlns="http://www.w3.org/2000/svg" width="34" height="45" fill="none"><mask id="a" width="33" height="19" x="1" y="1" maskUnits="userSpaceOnUse" style="mask-type:luminance"><path fill="#fff" d="M17.384 19.609c8.888 0 16.092-4.166 16.092-9.305C33.476 5.166 26.272 1 17.385 1 8.496 1 1.293 5.166 1.293 10.304c0 5.139 7.204 9.305 16.091 9.305Z"/></mask><g fill="#1F375B" mask="url(#a)"><path d="M3.286.898h-.204v.209h.204V.898Z" opacity=".54"/><path d="M4.95.969h-.071v.072h.07V.969Z" opacity=".65"/><path d="M6.717.945h-.123v.125h.123V.945Z" opacity=".71"/><path d="M10.456.656h-.667v.678h.667V.656Z" opacity=".66"/><path d="M12.133.719h-.547v.557h.547V.72Z" opacity=".62"/><path d="M13.725.867h-.264v.27h.264v-.27Z" opacity=".67"/><path d="M15.39.945h-.124v.128h.125V.945Z" opacity=".51"/><path d="M17.392.664h-.65v.661h.65v-.66Z" opacity=".81"/><path d="M18.859.945h-.117v.12h.117v-.12Z" opacity=".82"/><path d="M20.825.695h-.59v.602h.59V.695Z" opacity=".59"/><path d="M22.337.93h-.142v.145h.142V.93Z" opacity=".68"/><path d="M24.166.836h-.33v.338h.33V.836Z" opacity=".78"/><path d="M25.884.86h-.29v.294h.29V.859Z" opacity=".65"/><path d="M27.635.836h-.326v.332h.326V.836Z" opacity=".52"/><path d="M29.471.742h-.526v.536h.526V.742Z" opacity=".53"/><path d="M30.982.969h-.076v.076h.076V.969Zm1.735 0h-.076v.076h.076V.969Z" opacity=".92"/><path d="M3.408 2.54h-.451v.457h.451V2.54Z" opacity=".93"/><path d="M5.113 2.57h-.39v.398h.39V2.57Z" opacity=".94"/><path d="M6.904 2.508h-.506v.516h.506v-.516Z" opacity=".8"/><path d="M8.64 2.508h-.495v.504h.495v-.504Z" opacity=".65"/><path d="M10.378 2.508h-.503v.511h.503v-.511Z" opacity=".72"/><path d="M13.718 2.648h-.257v.262h.257v-.262Z" opacity=".83"/><path d="M15.586 2.5h-.52v.53h.52V2.5Z" opacity=".59"/><path d="M17.152 2.68h-.18v.184h.18V2.68Z" opacity=".75"/><path d="M18.859 2.71h-.117v.12h.117v-.12Z" opacity=".93"/><path d="M20.758 2.54h-.45v.456h.45v-.457Zm1.642.085h-.271v.277h.271v-.277Z" opacity=".85"/><path d="M25.813 2.688h-.153v.156h.152v-.156Z" opacity=".78"/><path d="M27.645 2.586h-.348v.355h.348v-.355Z" opacity=".86"/><path d="M29.552 2.422h-.689v.701h.689v-.701Z" opacity=".74"/><path d="M32.796 2.648h-.237v.242h.237v-.242Z" opacity=".84"/><path d="M1.734 4.25h-.562v.57h.562v-.57Z" opacity=".5"/><path d="M3.37 4.336h-.378v.385h.378v-.385Z" opacity=".9"/><path d="M5.08 4.383h-.318v.323h.319v-.323Zm3.428.031h-.235v.237h.235v-.237Z" opacity=".74"/><path d="M10.145 4.508h-.043v.043h.043v-.043Z" opacity=".69"/><path d="M11.914 4.469h-.113v.116h.113V4.47Z" opacity=".67"/><path d="M15.486 4.383h-.318v.322h.318v-.322Z" opacity=".76"/><path d="M17.26 4.336h-.393v.4h.394v-.4Z" opacity=".8"/><path d="M20.661 4.406h-.259v.263h.259v-.263Z" opacity=".86"/><path d="M22.35 4.453h-.159v.161h.158v-.16Z" opacity=".94"/><path d="M24.217 4.313h-.424v.432h.424v-.433Z" opacity=".74"/><path d="M27.843 4.156h-.738v.752h.738v-.752Z" opacity=".64"/><path d="M29.457 4.281h-.496v.505h.496V4.28Z" opacity=".67"/><path d="M30.965 4.508h-.047v.047h.047v-.047Z" opacity=".57"/><path d="M32.7 4.508h-.048v.047h.048v-.047Z" opacity=".87"/><path d="M1.506 6.242h-.108v.11h.108v-.11Z" opacity=".77"/><path d="M3.274 6.203h-.176v.18h.176v-.18Z" opacity=".61"/><path d="M5.094 6.125h-.348v.355h.348v-.355Z" opacity=".78"/><path d="M6.733 6.227h-.151v.153h.15v-.153Z" opacity=".51"/><path d="M8.713 5.96h-.647v.66h.647v-.66Z" opacity=".59"/><path d="M10.15 6.273h-.052v.055h.053v-.055Z" opacity=".58"/><path d="M13.788 6.094h-.39v.396h.39v-.396Z" opacity=".75"/><path d="M15.523 6.102h-.386v.392h.386v-.392Z" opacity=".82"/><path d="M17.203 6.164h-.281v.287h.281v-.287Z" opacity=".5"/><path d="M18.92 6.172h-.252v.256h.253v-.256Z" opacity=".67"/><path d="M20.669 6.172h-.27v.274h.27v-.274Z" opacity=".53"/><path d="M22.445 6.125h-.355v.36h.355v-.36Z" opacity=".63"/><path d="M24.057 6.242h-.108v.108h.108v-.108Z" opacity=".56"/><path d="M26.092 5.938h-.717v.73h.717v-.73Z" opacity=".88"/><path d="M27.616 6.164h-.288v.292h.288v-.292Z" opacity=".59"/><path d="M32.808 6.172h-.253v.257h.253v-.257Z" opacity=".8"/><path d="M1.484 8.031h-.082v.085h.082v-.085Z" opacity=".74"/><path d="M3.26 7.984h-.15v.156h.15v-.156Z" opacity=".6"/><path d="M5.014 7.969h-.19v.192h.19V7.97Z" opacity=".86"/><path d="M6.69 8.031h-.073v.075h.073v-.075Z" opacity=".93"/><path d="M8.576 7.867h-.377v.384h.377v-.384Z" opacity=".62"/><path d="M10.25 7.945H10v.256h.25v-.256Z" opacity=".55"/><path d="M11.93 8h-.14v.144h.14V8Z" opacity=".89"/><path d="M13.693 7.969H13.5v.195h.193V7.97Zm1.764-.024h-.25v.256h.25v-.256Z" opacity=".66"/><path d="M17.087 8.031h-.044v.045h.044V8.03Z" opacity=".9"/><path d="M18.994 7.867h-.396v.405h.396v-.405Z" opacity=".79"/><path d="M20.68 7.914h-.293v.297h.293v-.297Z" opacity=".69"/><path d="M22.33 8h-.123v.125h.124V8Z" opacity=".79"/><path d="M24.061 8.008h-.112v.115h.112v-.115Z" opacity=".59"/><path d="M27.656 7.883h-.36v.365h.36v-.365Z" opacity=".74"/><path d="M29.363 7.906h-.32v.326h.32v-.326Z" opacity=".85"/><path d="M32.775 7.96h-.2v.205h.2V7.96Z" opacity=".71"/><path d="M1.514 9.766h-.135v.138h.135v-.138Z" opacity=".7"/><path d="M3.306 9.71h-.24v.245h.24v-.244Z" opacity=".58"/><path d="M4.986 9.766h-.13v.132h.13v-.132Z" opacity=".5"/><path d="M6.717 9.766h-.135v.138h.135v-.138Z" opacity=".75"/><path d="M8.473 9.742h-.172v.175h.172v-.175Z" opacity=".54"/><path d="M10.274 9.68h-.301v.307h.301V9.68Z" opacity=".72"/><path d="M11.96 9.727h-.206v.21h.207v-.21Z" opacity=".69"/><path d="M13.718 9.695h-.257v.26h.257v-.26Z" opacity=".51"/><path d="M15.718 9.43h-.784v.799h.784v-.8Z" opacity=".5"/><path d="M17.158 9.734h-.185v.19h.185v-.19Z" opacity=".63"/><path d="M19.002 9.625h-.408v.415h.408v-.415Z" opacity=".59"/><path d="M20.659 9.71h-.249v.255h.249v-.254Z" opacity=".61"/><path d="M22.312 9.79h-.078v.077h.078v-.078Z" opacity=".52"/><path d="M24.165 9.656h-.333v.34h.333v-.34Z" opacity=".86"/><path d="M26.045 9.523h-.62v.631h.62v-.63Z" opacity=".94"/><path d="M27.609 9.688h-.273v.278h.273v-.278Z" opacity=".51"/><path d="M29.355 9.68h-.296v.301h.296V9.68Z" opacity=".55"/><path d="M31.105 9.664h-.328V10h.328v-.335Z" opacity=".74"/><path d="M1.638 11.406h-.376v.384h.376v-.384Z" opacity=".9"/><path d="M3.25 11.54h-.129v.131h.13v-.132Z" opacity=".72"/><path d="M5.14 11.375h-.433v.441h.434v-.441Z" opacity=".87"/><path d="M6.687 11.555h-.078v.079h.078v-.08Z" opacity=".56"/><path d="M8.654 11.336h-.529v.537h.529v-.537Z" opacity=".75"/><path d="M10.402 11.313H9.84v.571h.562v-.572Z" opacity=".7"/><path d="M12.084 11.367h-.451v.458h.45v-.458Z" opacity=".79"/><path d="M13.757 11.438h-.327v.333h.327v-.334Z" opacity=".78"/><path d="M15.377 11.547h-.092v.093h.092v-.093Z" opacity=".82"/><path d="M17.199 11.46h-.273v.28h.273v-.28Z" opacity=".93"/><path d="M18.84 11.547h-.094v.096h.095v-.096Z" opacity=".73"/><path d="M22.432 11.438h-.33v.336h.33v-.336Z" opacity=".91"/><path d="M24.296 11.305h-.589v.599h.59v-.6Z" opacity=".65"/><path d="M25.816 11.508h-.16v.162h.16v-.162Z" opacity=".8"/><path d="M27.516 11.547h-.086v.089h.086v-.09Z" opacity=".57"/><path d="M30.994 11.547h-.103v.106h.103v-.106Z" opacity=".62"/><path d="M32.974 11.305h-.587v.599h.587v-.6Z" opacity=".5"/><path d="M1.67 13.14h-.436v.443h.436v-.442Z" opacity=".93"/><path d="M5.097 13.188h-.359v.366h.36v-.367Z" opacity=".89"/><path d="M7 13.016h-.688v.7H7v-.7Z" opacity=".78"/><path d="M8.442 13.297h-.114v.116h.114v-.116Z" opacity=".92"/><path d="M10.157 13.336h-.075v.076h.075v-.076Z" opacity=".79"/><path d="M12.007 13.219h-.3v.306h.3v-.306Z" opacity=".77"/><path d="M15.456 13.242h-.249v.254h.249v-.254Z" opacity=".54"/><path d="M17.223 13.203h-.313v.32h.313v-.32Z" opacity=".77"/><path d="M19.037 13.125h-.474v.483h.474v-.483Z" opacity=".92"/><path d="M20.616 13.281h-.167v.17h.167v-.17Z" opacity=".76"/><path d="M22.565 13.07h-.592v.604h.592v-.604Z" opacity=".92"/><path d="M24.21 13.148h-.413v.421h.414v-.42Z" opacity=".78"/><path d="M25.898 13.195h-.328v.335h.328v-.335Z" opacity=".55"/><path d="M27.515 13.336h-.074v.075h.074v-.075Z" opacity=".7"/><path d="M29.359 13.219h-.3v.306h.3v-.306Z" opacity=".91"/><path d="M31.058 13.242h-.242v.246h.242v-.246Z" opacity=".73"/><path d="M32.862 13.18h-.366v.372h.366v-.372Z" opacity=".86"/><path d="M1.599 14.977h-.302v.307h.302v-.307Z" opacity=".62"/><path d="M3.28 15.031h-.198v.203h.198v-.203Z" opacity=".73"/><path d="M5.106 14.938h-.38v.387h.38v-.387Z" opacity=".69"/><path d="M6.925 14.86h-.546v.554h.546v-.555Z" opacity=".83"/><path d="M8.453 15.07h-.125v.128h.125v-.128Z" opacity=".72"/><path d="M10.432 14.828h-.608v.62h.608v-.62Z" opacity=".94"/><path d="M12.1 14.898h-.475v.485h.476v-.485Z" opacity=".93"/><path d="M13.728 14.984h-.279v.285h.279v-.285Z" opacity=".55"/><path d="M17.168 15.031h-.211v.216h.211v-.216Z" opacity=".9"/><path d="M18.89 15.031h-.183v.187h.184v-.187Z" opacity=".78"/><path d="M22.473 14.922h-.407v.414h.407v-.414Z" opacity=".62"/><path d="M24.136 14.984h-.273v.278h.273v-.278Z" opacity=".67"/><path d="M25.9 14.96h-.33v.339h.33v-.338Z" opacity=".62"/><path d="M27.657 14.938h-.368v.373h.368v-.373Z" opacity=".72"/><path d="M29.413 14.914h-.417v.422h.417v-.422Z" opacity=".64"/><path d="M31.085 14.984h-.284v.29h.284v-.29Z" opacity=".78"/><path d="M32.806 15.008h-.251v.256h.251v-.256Z" opacity=".74"/><path d="M1.714 16.617h-.53v.539h.53v-.539Z" opacity=".71"/><path d="M3.23 16.852h-.093v.094h.093v-.094Z" opacity=".7"/><path d="M5.041 16.766h-.244v.25h.244v-.25Z" opacity=".73"/><path d="M6.8 16.742h-.3v.306h.3v-.306Z" opacity=".88"/><path d="M8.812 16.477H7.97v.857h.843v-.857Z" opacity=".59"/><path d="M10.178 16.844h-.108v.107h.108v-.107Z" opacity=".73"/><path d="M11.887 16.875h-.047v.047h.047v-.047Z" opacity=".59"/><path d="M13.885 16.602h-.58v.591h.58v-.591Z" opacity=".51"/><path d="M17.185 16.766h-.24v.244h.24v-.244Z" opacity=".64"/><path d="M22.456 16.695h-.39v.398h.39v-.398Z" opacity=".61"/><path d="M24.085 16.813h-.17v.173h.17v-.174Z" opacity=".71"/><path d="M25.973 16.656H25.5v.482h.473v-.482Z" opacity=".86"/><path d="M27.555 16.82h-.157v.158h.157v-.158Z" opacity=".69"/><path d="M29.413 16.688h-.42v.428h.42v-.428Z" opacity=".53"/><path d="M31.09 16.75h-.29v.294h.29v-.294Z" opacity=".55"/><path d="M32.992 16.578h-.636v.648h.636v-.648Z" opacity=".8"/><path d="M1.535 18.578h-.168v.171h.168v-.17Z" opacity=".52"/><path d="M3.366 18.477H3v.372h.366v-.372Z" opacity=".55"/><path d="M6.802 18.516h-.286v.29h.286v-.29Z" opacity=".66"/><path d="M8.47 18.594h-.158v.16h.159v-.16Z" opacity=".91"/><path d="M10.19 18.602h-.131v.133h.132v-.133Z" opacity=".56"/><path d="M11.94 18.578h-.159v.163h.16v-.163Z" opacity=".88"/><path d="M15.557 18.445h-.455v.464h.455v-.464Z" opacity=".8"/><path d="M17.173 18.555h-.224v.227h.224v-.227Z" opacity=".88"/><path d="M18.954 18.5h-.313v.319h.313V18.5Z" opacity=".77"/><path d="M20.652 18.547h-.234v.238h.234v-.238Z" opacity=".65"/><path d="M22.638 18.29h-.74v.752h.74v-.753Z" opacity=".66"/><path d="M24.102 18.555h-.211v.215h.21v-.215Z" opacity=".57"/><path d="M27.517 18.61h-.099v.1h.1v-.1Z" opacity=".91"/><path d="M29.337 18.523h-.267v.273h.267v-.273Z" opacity=".66"/><path d="M31.017 18.594h-.15v.153h.15v-.153Z" opacity=".62"/><path d="M32.764 18.57h-.174v.177h.174v-.177Z" opacity=".92"/></g><path fill="#000" stroke="#000" stroke-miterlimit="10" stroke-width=".3" d="M17.235 19.882c-4.3 0-8.354-.973-11.413-2.739C2.712 15.347 1 12.948 1 10.383 1 7.82 2.688 5.467 5.753 3.698 8.766 1.958 12.774 1 17.037 1c4.263 0 8.355.973 11.413 2.738 3.11 1.796 4.822 4.196 4.822 6.76 0 2.565-1.687 4.915-4.753 6.685-3.012 1.74-7.02 2.699-11.284 2.699Zm-.198-18.293c-4.162 0-8.065.93-10.99 2.62-2.875 1.659-4.456 3.851-4.456 6.174 0 2.324 1.607 4.564 4.527 6.249 2.97 1.714 6.919 2.66 11.119 2.66s8.064-.93 10.99-2.62c2.874-1.66 4.457-3.852 4.457-6.175s-1.607-4.563-4.527-6.249c-2.97-1.715-6.919-2.659-11.119-2.659h-.001ZM33.27 34.566v.003c.028 2.563-1.66 4.957-4.75 6.743-3.107 1.793-7.191 2.69-11.285 2.69-4.093 0-8.26-.912-11.413-2.732C2.688 39.463.976 37.043 1 34.46v-.003c0-.01 0-.022.002-.032a.294.294 0 0 1 .296-.26c.162.002.291.13.293.293v.005c-.025 2.363 1.583 4.6 4.526 6.298 6.114 3.53 16.032 3.549 22.108.042 2.9-1.674 4.483-3.887 4.457-6.23v-.003a.295.295 0 0 1 .589-.003Z"/><path fill="#000" stroke="#000" stroke-miterlimit="10" stroke-width=".3" d="M1.667 33.628a4.855 4.855 0 0 0-.077.826v.004a.3.3 0 0 1-.068.186.292.292 0 0 1-.435.019l-.02-.022A.29.29 0 0 1 1 34.455v-.002l.001-.032v-.014c.006-.293.035-.591.087-.883a.294.294 0 1 1 .579.104Zm16.403-8.476a27.84 27.84 0 0 0-1.832-.008.295.295 0 0 0-.286.303.29.29 0 0 0 .303.286 27.645 27.645 0 0 1 1.793.009h.012a.294.294 0 0 0 .01-.59Zm-3.701.404a.295.295 0 0 0-.325-.261 26.16 26.16 0 0 0-1.815.264.295.295 0 0 0-.237.342.295.295 0 0 0 .29.241c.018 0 .035 0 .052-.004a26.17 26.17 0 0 1 1.773-.257.295.295 0 0 0 .262-.325Zm7.707.043a26.176 26.176 0 0 0-1.812-.277.292.292 0 0 0-.328.257.295.295 0 0 0 .257.328c.6.07 1.194.16 1.773.271a.293.293 0 0 0 .343-.234.293.293 0 0 0-.233-.345Zm-11.631.655a.292.292 0 0 0-.362-.204c-.6.169-1.188.36-1.747.57a.294.294 0 1 0 .207.551c.544-.204 1.115-.39 1.698-.553a.295.295 0 0 0 .204-.363Zm15.518.439a21.034 21.034 0 0 0-1.744-.584.294.294 0 1 0-.162.566c.582.167 1.152.358 1.694.568a.294.294 0 0 0 .213-.55Z"/><path fill="#000" stroke="#000" stroke-miterlimit="10" stroke-width=".3" d="M32.685 33.498a.287.287 0 0 0-.077.255c.047.273.074.553.077.827v.003c.026 2.343-1.557 4.556-4.457 6.23C22.152 44.32 12.234 44.3 6.12 40.77c-2.943-1.698-4.55-3.935-4.526-6.298v-.005c.001-.274.027-.553.076-.826a.287.287 0 0 0-.076-.253V22.734c.747 1.576 2.187 3.016 4.231 4.197 3.152 1.82 7.287 2.73 11.414 2.73 4.126 0 8.178-.895 11.284-2.69 2.009-1.16 3.424-2.576 4.162-4.13v10.657Z"/><path fill="#000" stroke="#000" stroke-miterlimit="10" stroke-width=".3" d="M33.269 34.57v.003a.299.299 0 0 1-.085.206.294.294 0 0 1-.49-.118l-.007-.027a.265.265 0 0 1-.007-.059v-.002a5.191 5.191 0 0 0-.078-.828.287.287 0 0 1 .078-.254.293.293 0 0 1 .501.15 5.401 5.401 0 0 1 .088.929Zm.001-14.355v.064a5.91 5.91 0 0 1-.588 2.55c-.739 1.555-2.154 2.972-4.163 4.131-3.106 1.795-7.19 2.69-11.284 2.69-4.093 0-8.261-.91-11.413-2.73-2.045-1.18-3.484-2.62-4.231-4.197a5.948 5.948 0 0 1-.59-2.48L1 20.106v-.003l.001-.03a.296.296 0 0 1 .59.033v.056c0 2.343 1.604 4.56 4.525 6.247 6.115 3.53 16.033 3.549 22.109.04 2.876-1.66 4.457-3.85 4.457-6.172v-.059c0-.162.13-.293.291-.296h.003a.297.297 0 0 1 .295.292Z"/><path fill="#000" stroke="#000" stroke-miterlimit="10" stroke-width=".3" d="M1.296 20.406h-.004A.295.295 0 0 1 1 20.11a5.62 5.62 0 0 1 .086-.928.295.295 0 0 1 .58.103 5.073 5.073 0 0 0-.077.83.295.295 0 0 1-.294.292h.001ZM32.129 17.6c-.1 0-.2-.051-.254-.145a7.765 7.765 0 0 0-1.058-1.386.295.295 0 0 1 .427-.405 8.32 8.32 0 0 1 1.136 1.491.295.295 0 0 1-.254.445h.003Zm-29.983-.107a.295.295 0 0 1-.253-.444 8.234 8.234 0 0 1 1.14-1.489.295.295 0 1 1 .426.407 7.632 7.632 0 0 0-1.06 1.382.294.294 0 0 1-.253.145v-.001Zm27.236-2.744a.296.296 0 0 1-.17-.054 13.903 13.903 0 0 0-1.512-.926.295.295 0 1 1 .277-.52 14.413 14.413 0 0 1 1.575.965.295.295 0 0 1-.17.536v-.001Zm-24.478-.095a.294.294 0 0 1-.17-.536 14.706 14.706 0 0 1 1.582-.957.295.295 0 1 1 .273.521c-.183.097-.364.197-.543.3-.342.196-.67.405-.977.619a.288.288 0 0 1-.168.053h.003Zm20.954-1.752a.273.273 0 0 1-.105-.02c-.543-.208-1.114-.4-1.696-.567a.295.295 0 0 1 .163-.566 21.47 21.47 0 0 1 1.744.583.294.294 0 0 1-.106.57ZM8.44 12.831a.295.295 0 0 1-.103-.57 21.033 21.033 0 0 1 1.745-.571.295.295 0 0 1 .16.567c-.584.163-1.154.35-1.699.555a.287.287 0 0 1-.103.019Zm13.583-1.008a.249.249 0 0 1-.056-.005 25.14 25.14 0 0 0-1.773-.272.295.295 0 0 1 .07-.585c.611.072 1.222.166 1.812.28a.295.295 0 0 1-.055.584l.002-.002Zm-9.74-.04a.295.295 0 0 1-.29-.241.295.295 0 0 1 .237-.342 25.63 25.63 0 0 1 1.815-.263.294.294 0 1 1 .063.586c-.598.065-1.194.152-1.773.257a.316.316 0 0 1-.053.005l.001-.002Zm5.777-.402h-.011c-.598-.022-1.2-.024-1.795-.007a.296.296 0 0 1-.303-.286.296.296 0 0 1 .286-.303 28.918 28.918 0 0 1 1.832.007.294.294 0 0 1-.011.588h.002Zm14.914 9.134a.294.294 0 0 1-.294-.291 5.226 5.226 0 0 0-.078-.83.295.295 0 0 1 .58-.104c.055.306.085.617.088.926a.296.296 0 0 1-.291.298h-.003l-.002.001Z"/><path fill="#000" stroke="#000" stroke-miterlimit="10" stroke-width=".3" d="M1.593 10.444v24.02a.3.3 0 0 1-.069.185c-.006.007-.011.015-.019.02a.292.292 0 0 1-.416-.001l-.019-.022a.301.301 0 0 1-.066-.186V10.444a.294.294 0 1 1 .589 0Zm31.68.086v24.039a.299.299 0 0 1-.085.207.294.294 0 0 1-.504-.204v-24.02c0-.163.132-.294.294-.294a.29.29 0 0 1 .295.271Z"/><path fill="#fff" d="m30.586 30.305-.015.547c.305-.047.622-.003.865.198s.346.503.352.815l-.468.1a.752.752 0 0 0-.127-.361c-.136-.181-.399-.252-.617-.216l-.018 1.694c.397.029.84.09 1.087.437.267.375.19.991.011 1.39-.215.476-.636.808-1.122.975l-.007.521-.313.078-.006-.525c-.489.075-.944-.061-1.16-.533-.031-.069-.152-.474-.096-.508l.48-.111.016.022c.006.418.372.643.761.594l.019-1.803c-.395-.036-.874-.15-1.062-.538a.845.845 0 0 1-.075-.22 5.41 5.41 0 0 1 .056-.8c.02-.144.14-.345.223-.465.211-.3.527-.547.877-.66l.01-.558.327-.073h.002Zm-.354 2.742.01-1.584c-.383.152-.7.528-.707.955-.005.427.318.59.697.63Zm.3 2.29c.486-.156.909-.7.804-1.23-.072-.356-.479-.416-.782-.452l-.023 1.681Z"/></svg>