<svg xmlns="http://www.w3.org/2000/svg" width="240" height="157" fill="none"><path fill="#fff" d="M147.157 57.874c0 14.772-11.986 26.758-26.757 26.758S93.643 72.646 93.643 57.874c0-14.77 11.986-26.757 26.757-26.757s26.757 11.986 26.757 26.757ZM120.132 93.39c-25.665 0-46.689 21.024-46.689 46.689 0 8.737 7.099 16.109 16.11 16.109h61.159c8.737 0 16.109-7.099 16.109-16.109 0-25.665-21.024-46.688-46.662-46.688h-.027ZM220.62 26.757c0 14.771-11.986 26.758-26.757 26.758s-26.757-11.987-26.757-26.758C167.106 11.987 179.092 0 193.863 0s26.757 11.986 26.757 26.757Zm-27.038 35.774c-16.656 0-32.218 9.01-40.409 23.481l-3.004 4.915 5.188 2.457c10.648 5.188 17.747 15.29 19.385 27.03l.546 4.642h48.6c8.737 0 16.109-7.099 16.109-16.109.273-25.665-20.75-46.416-46.415-46.416Zm-120.4-35.774c0 14.771-11.986 26.758-26.757 26.758S19.668 41.528 19.668 26.757C19.668 11.987 31.654 0 46.425 0s26.757 11.986 26.757 26.757Zm-8.473 98.567.546-4.641c1.638-11.741 9.01-21.843 19.385-27.03l5.188-2.458-3.003-4.915C78.634 71.81 63.07 62.8 46.415 62.8 21.025 62.526 0 83.276 0 109.215c0 8.737 7.099 16.109 16.109 16.109h48.6Z"/></svg>