<svg xmlns="http://www.w3.org/2000/svg" width="43" height="32" fill="none"><path fill="#5E59E8" d="M27.842 18.013c-.35.145-.713.262-1.048.276-.524.03-1.106-.189-1.412-.451-.48-.408-.83-.64-.975-1.34-.058-.305-.03-.77.029-1.047.13-.582-.015-.946-.422-1.296-.335-.276-.757-.349-1.223-.349-.466 0-.335-.073-.451-.145-.19-.102-.35-.335-.204-.64.044-.103.291-.336.335-.365.626-.364 1.368-.247 2.038.03.625.247 1.091.727 1.775 1.382.7.8.816 1.019 1.223 1.616.306.466.597.96.786 1.514.117.349-.029.625-.451.8v.015Zm-5.517-2.824a.54.54 0 0 1 .553-.539c.306 0 .131.015.19.03a.612.612 0 0 1 .203.13c.102.102.16.233.16.379a.553.553 0 0 1-.553.553.54.54 0 0 1-.538-.553h-.015ZM20.55 26.615c-3.711-2.911-5.502-3.872-6.244-3.828-.699.044-.568.83-.408 1.354.16.51.364.859.655 1.31.204.29.335.742-.203 1.062-1.194.743-3.275-.247-3.363-.29-2.416-1.427-4.44-3.305-5.851-5.867-1.383-2.474-2.169-5.123-2.3-7.947-.029-.684.16-.932.844-1.048.903-.16 1.82-.204 2.722-.073 3.785.553 7.002 2.242 9.709 4.92 1.543 1.528 2.707 3.348 3.9 5.123 1.282 1.893 2.65 3.698 4.397 5.168.626.524 1.106.917 1.586 1.193-1.426.16-3.799.19-5.414-1.091l-.03.014ZM42.136 2.627c-.452-.218-.64.204-.917.408-.088.073-.16.16-.248.247-.655.699-1.426 1.165-2.445 1.107-1.47-.088-2.722.378-3.843 1.513-.233-1.382-1.019-2.212-2.212-2.75-.626-.277-1.252-.554-1.689-1.15-.305-.423-.393-.903-.538-1.369-.102-.291-.19-.568-.524-.626-.35-.058-.495.248-.626.495-.553 1.019-.772 2.125-.757 3.26.043 2.548 1.12 4.586 3.26 6.027.248.16.306.335.233.567-.145.495-.32.976-.48 1.47-.102.32-.248.393-.582.248-1.18-.495-2.184-1.223-3.086-2.096-1.514-1.47-2.897-3.086-4.6-4.367-.407-.305-.8-.582-1.223-.83-1.746-1.703.233-3.1.685-3.26.48-.175.174-.771-1.383-.757-1.543 0-2.955.524-4.774 1.223a6.905 6.905 0 0 1-.83.247 17.052 17.052 0 0 0-5.11-.174C7.1 2.423 4.423 4.01 2.472 6.717.142 9.95-.41 13.631.273 17.474c.713 4.047 2.78 7.409 5.968 10.03 3.29 2.721 7.089 4.046 11.426 3.798 2.635-.145 5.56-.51 8.865-3.304.83.407 1.703.582 3.159.699 1.12.102 2.197-.059 3.027-.219 1.31-.276 1.223-1.484.742-1.703-3.828-1.79-2.983-1.062-3.74-1.644 1.936-2.3 4.876-4.688 6.011-12.431.087-.611.015-1.005 0-1.5 0-.305.058-.421.408-.45.96-.117 1.892-.38 2.736-.845 2.475-1.354 3.479-3.58 3.712-6.244.029-.408 0-.83-.437-1.048l-.014.014Z"/></svg>