<svg xmlns="http://www.w3.org/2000/svg" width="527" height="289" fill="none"><path fill="#fff" fill-rule="evenodd" d="M203.95 259.766c-2.281-2.47-4.153-4.41-5.93-6.437-6.731-7.68-12.189-16.208-16.224-25.647-.647-1.512-1.441-2.062-3.08-2.032-5.819.107-11.644.058-17.466.036-5.138-.016-7.859-2.627-8.011-7.819-.102-3.477-.106-6.962.005-10.438.164-5.109 2.852-7.665 7.879-7.672 4.199-.008 8.401-.001 12.87-.001-1.051-11.637-.866-22.96 1.593-34.51h-3.265c-51.598 0-103.196.003-154.794-.003-7.026 0-12.233-4.173-13.506-10.777-1.502-7.797 4.353-15.248 12.232-15.553.8-.03 1.601-.01 2.401-.01 54.655 0 109.308-.013 163.963.048 2.017.002 3.079-.652 4.074-2.403 6.715-11.822 15.53-21.761 26.357-29.845.566-.424 1.109-.885 1.602-1.873h-2.658c-41.627 0-83.254.027-124.882-.064-2.543-.006-5.293-.461-7.584-1.519-5.434-2.507-8.13-8.834-6.76-14.697 1.35-5.796 6.625-10.048 12.583-10.054 18.339-.02 36.679-.008 55.017-.008 33.55 0 67.098-.018 100.648.047 1.965.002 2.92-.486 3.579-2.477 3.407-10.302 8.368-19.812 14.58-28.65.576-.821 1.137-1.655 1.974-2.872-1.371-.063-2.339-.149-3.307-.149-48.687-.007-97.372.023-146.059-.081-2.739-.006-5.731-.57-8.158-1.795-5.221-2.635-7.628-8.95-6.144-14.527 1.616-6.078 6.551-9.914 12.857-9.914 58.802-.007 117.605-.011 176.407.027 1.896.002 3.484-.444 5.106-1.44 15.074-9.258 31.389-14.41 48.992-15.582 51.201-3.41 97.038 30.818 111.448 80.47.821 2.83 1.583 5.692 2.125 8.587.286 1.526.897 2.198 2.339 2.712 31.916 11.368 53.113 33.556 62.503 66.494 15.114 53.013-14.563 107.402-65.051 122.555-7.92 2.376-16.017 3.73-24.262 3.776-37.241.208-74.48.407-111.72.441-73.648.066-147.297.029-220.945-.028-2.203-.003-4.556-.313-6.584-1.135-5.724-2.318-8.713-8.381-7.576-14.631 1.069-5.869 6.307-10.33 12.396-10.548.654-.022 1.31-.006 1.965-.006h103.049c.926.004 1.857.004 3.422.004Z" clip-rule="evenodd"/><path fill="#fff" fill-rule="evenodd" d="M66.233 225.688c-14.834 0-29.667.003-44.502-.001-5.999-.003-8.536-2.528-8.561-8.555-.015-3.478-.057-6.957.046-10.432.122-4.087 2.963-6.928 6.993-6.931 30.757-.025 61.515-.027 92.274.003 4.034.003 6.934 2.967 7.061 7.191.117 3.991.12 7.993.004 11.984-.117 3.98-3.335 6.727-7.724 6.736-10.18.019-20.362.007-30.54.007-5.017-.002-10.034-.002-15.051-.002Z" clip-rule="evenodd"/></svg>