<svg xmlns="http://www.w3.org/2000/svg" width="39" height="45" fill="none"><path fill="#000" stroke="#000" stroke-width=".1" d="M38.298 16.12v-4.253a.241.241 0 0 0-.12-.207l-3.682-2.125a.24.24 0 0 0-.238 0l-3.324 1.919V7.615a.241.241 0 0 0-.12-.207l-3.682-2.126a.239.239 0 0 0-.238 0l-3.324 1.92V3.365a.241.241 0 0 0-.12-.208l-3.682-2.125a.24.24 0 0 0-.238 0l-3.682 2.125a.242.242 0 0 0-.12.208v3.838l-3.324-1.92a.24.24 0 0 0-.238 0L8.484 7.41a.242.242 0 0 0-.12.208v3.838L5.04 9.536a.24.24 0 0 0-.238 0L1.12 11.661a.243.243 0 0 0-.12.208v4.252c0 .085.045.164.12.207l3.322 1.92-3.322 1.919a.243.243 0 0 0-.12.207v4.251c0 .085.045.164.12.208l3.322 1.919-3.322 1.92a.243.243 0 0 0-.12.207v4.25c0 .085.045.164.12.208l3.682 2.127a.238.238 0 0 0 .24 0l3.324-1.92v3.839c0 .085.045.164.12.207l3.681 2.126a.238.238 0 0 0 .24 0l3.324-1.92v3.839c0 .085.045.164.12.208l3.682 2.125a.238.238 0 0 0 .24 0l3.682-2.126a.242.242 0 0 0 .12-.207v-3.838l3.323 1.919a.238.238 0 0 0 .24 0l3.682-2.126a.242.242 0 0 0 .12-.207v-3.839l3.324 1.92a.238.238 0 0 0 .24 0l3.682-2.126a.242.242 0 0 0 .12-.207v-4.252a.241.241 0 0 0-.12-.208l-3.324-1.92 3.324-1.918a.243.243 0 0 0 .12-.208v-4.252a.241.241 0 0 0-.12-.207l-3.324-1.92 3.324-1.919a.242.242 0 0 0 .12-.208h-.008ZM1.716 11.866l3.204-1.849 3.206 1.85-3.206 1.85-3.204-1.85ZM4.12 21.76l-2.403-1.387 3.204-1.85 3.206 1.85L4.92 22.22l-.8-.462Zm.801 8.964-.8-.461-2.404-1.388 3.204-1.85 3.206 1.85-3.206 1.85Zm3.444 2.264-3.205 1.85v-3.701l3.205-1.85v3.7Zm0-4.526-2.966-1.713 2.966-1.712v3.425Zm0-3.978-3.205 1.85v-3.699l3.205-1.85v3.7Zm0-4.527-2.966-1.713 2.966-1.711v3.424Zm0-3.975L5.16 17.83v-3.7l3.205-1.85v3.7Zm3.922-10.216 3.204 1.849-3.204 1.85-3.206-1.85 3.206-1.85ZM9.08 16.119l3.206-1.85 3.204 1.85-3.206 1.85-3.204-1.85Zm6.41 8.503-3.206 1.85-.8-.461-2.404-1.389 3.204-1.849 3.206 1.85ZM8.842 12.28l2.966 1.711-2.966 1.713V12.28Zm0 8.504 2.964 1.711-2.964 1.712v-3.425.002Zm0 8.504L11.806 31l-1.482.856-1.482.857v-3.425Zm3.442 5.687-3.204-1.85 3.204-1.85 3.206 1.851-3.206 1.85Zm3.444 2.265-3.205 1.85v-3.7l.8-.461 2.405-1.389v3.7Zm0-4.529L12.762 31l2.966-1.712v3.425-.002Zm0-3.976-3.205 1.851v-3.701l.052-.03 3.152-1.82v3.7h.001Zm0-4.526-2.966-1.712 2.966-1.712v3.425-.002Zm0-3.976-3.205 1.85v-3.7l3.205-1.851v3.7Zm0-4.529-1.482-.856-1.482-.857 2.964-1.711v3.424Zm0-3.976-3.204 1.851v-3.7l.801-.461 2.403-1.389v3.7ZM19.65 1.514l3.204 1.849-3.204 1.85-3.206-1.85 3.206-1.85ZM16.444 20.37l3.206-1.849 3.205 1.85-3.205 1.85-3.206-1.85Zm6.41 8.504-2.403 1.388-.801.461-.801-.461-2.403-1.388 3.205-1.849 3.204 1.85h-.001ZM20.895 18.69l-.769-.444 2.966-1.712v3.425l-2.197-1.267v-.002Zm-1.007-.858v-3.7l3.204-1.851v3.7l-3.204 1.851Zm2.966-5.964-3.204 1.85-3.206-1.85 3.206-1.85 3.204 1.85Zm-2.726-2.126 2.964-1.712v3.425l-1.482-.857-1.482-.856Zm-3.922-1.713 2.966 1.711-2.966 1.713V8.027Zm0 8.504 2.966 1.711-2.966 1.713v-3.424Zm0 8.504 2.966 1.711-2.966 1.714v-3.425Zm0 8.504 2.197 1.267.769.445-2.966 1.711V33.54v.001Zm3.444 5.688-.801-.462-2.403-1.387 3.205-1.85 3.204 1.85-2.403 1.387-.8.462h-.002Zm3.442 2.264-3.204 1.85v-3.7l3.204-1.851v3.7Zm0-4.529-2.966-1.711 2.966-1.713v3.424Zm0-3.976-3.204 1.851v-3.701l3.204-1.85v3.7Zm0-4.526-2.966-1.712 2.966-1.713v3.425Zm.002-3.978-3.206 1.85v-3.699l3.206-1.852v3.701Zm0-17.007-3.206 1.851v-3.7l.25-.144 2.956-1.706v3.7Zm3.92-1.711 3.205 1.849-3.205 1.85-3.206-1.85 3.206-1.85ZM23.808 16.12l3.206-1.85 3.205 1.85-3.205 1.85-3.206-1.85Zm6.41 8.503-2.403 1.387-.801.462-3.204-1.849 3.204-1.849 3.204 1.85ZM23.57 12.28l2.966 1.713-2.966 1.713V12.28Zm2.966 10.217-2.964 1.712v-3.425l2.964 1.713Zm-2.966 6.791L26.536 31l-2.966 1.71v-3.424.001Zm3.444 5.687-3.206-1.849 3.206-1.849 3.204 1.85-3.204 1.848Zm3.444 2.265-3.206 1.85v-3.7l3.206-1.851v3.7Zm0-4.527L27.492 31l2.966-1.713v3.425Zm0-3.978-3.206 1.851v-3.701l3.206-1.85v3.7Zm0-4.526-2.968-1.714 2.968-1.713v3.427Zm0-3.978-3.206 1.852v-3.7l3.206-1.851v3.7Zm0-4.527-2.966-1.711 2.966-1.712v3.425-.002Zm0-3.976-3.206 1.851v-3.7l3.206-1.85v3.7Zm3.92-1.711 3.206 1.849-3.206 1.849-3.204-1.85 3.204-1.848Zm-3.444 6.515 2.964 1.711-2.964 1.712V16.53v.002Zm0 8.504 2.964 1.711-2.964 1.712v-3.425.002Zm6.888 7.951-3.206 1.851v-3.7l3.206-1.852v3.701Zm-.24-4.114-2.403 1.389-.801.461-3.204-1.85 3.204-1.85 3.206 1.85h-.002Zm.24-4.39-3.206 1.85v-3.7l3.206-1.85v3.7Zm-.24-4.113-2.403 1.387-.801.462-3.204-1.849 3.204-1.849 3.206 1.85h-.002Zm.24-4.39-3.206 1.851v-3.7l3.206-1.851v3.7Z"/></svg>