<svg xmlns="http://www.w3.org/2000/svg" width="372" height="164" fill="none"><path fill="#767676" d="M367.736 15.105c-1.145.015-2.14.43-2.977 1.247-.703.73-1.103 1.574-1.199 2.53h-14.308c-.123-2.02-.891-3.762-2.328-5.232-1.602-1.534-3.488-2.31-5.666-2.325-2.189.035-4.064.817-5.627 2.337-1.44 1.481-2.209 3.224-2.324 5.215h-29.838s-.012 0-.016.004c-.027 0-.05-.007-.08-.004-5.297.016-9.231 1.393-11.82 4.134-1.36 1.439-2.335 3.277-2.938 5.503-.384 1.424-.615 2.99-.688 4.686-.019.594-.027.997-.019 1.208v14.718c-1.986.115-3.726.875-5.205 2.306-1.544 1.585-2.332 3.47-2.358 5.645.015 2.176.791 4.06 2.327 5.653 1.487 1.451 3.235 2.222 5.236 2.337 0 .223.011.503.023.849.073 1.7.303 3.262.691 4.685.607 2.23 1.598 4.06 2.962 5.488 2.577 2.733 6.53 4.103 11.854 4.11.027 0 .05-.007.073-.011 2.942.023 5.412.464 7.41 1.312 1.486.633 2.738 1.49 3.76 2.568 1.095 1.159 1.928 2.56 2.505 4.213.603 1.731.925 3.788.971 6.156h-14.688s-.02.008-.031.008l-15.088-.008h-.008s-.019.008-.031.008l-14.681-.008c-.115-1.988-.88-3.734-2.316-5.208-1.587-1.542-3.48-2.325-5.658-2.348-2.182.023-4.064.806-5.658 2.348-1.441 1.478-2.205 3.228-2.32 5.216-5.109.069-8.943 1.431-11.482 4.102-1.356 1.44-2.347 3.27-2.961 5.492-.384 1.416-.615 2.989-.688 4.716-.011.334-.015.607-.019.822-.968.103-1.813.506-2.551 1.216-.814.833-1.229 1.831-1.233 2.974.008 1.152.419 2.146 1.233 2.982.842.81 1.833 1.224 2.985 1.24 1.145-.016 2.143-.43 2.985-1.24.814-.836 1.225-1.83 1.233-2.974-.008-1.151-.419-2.145-1.233-2.982-.734-.706-1.579-1.113-2.547-1.213.046-2.375.365-4.44.976-6.178.576-1.654 1.409-3.055 2.5-4.214 1.022-1.078 2.274-1.934 3.761-2.567 1.909-.814 4.26-1.247 7.041-1.301.115 1.992.879 3.734 2.32 5.211 1.594 1.543 3.476 2.326 5.658 2.349 2.178-.023 4.06-.806 5.658-2.349 1.433-1.477 2.201-3.216 2.32-5.211h44.531v14.663s.004.016.004.027c-.016 2.552-.338 4.744-.98 6.578-.576 1.654-1.409 3.055-2.496 4.206-1.049 1.109-2.313 1.961-3.796 2.583-1.916.813-4.256 1.239-7.01 1.297-.111-1.973-.868-3.703-2.281-5.185-1.591-1.55-3.465-2.341-5.643-2.375-2.178.007-4.068.783-5.674 2.31-1.455 1.481-2.239 3.235-2.354 5.246h-29.839l-.019.008c-.011 0-.019-.004-.031-.008-5.327.015-9.276 1.389-11.85 4.126-1.363 1.446-2.347 3.269-2.946 5.468-.384 1.39-.615 2.944-.688 4.648-.03.721-.034 1.162-.023 1.343-.019 2.544-.341 4.732-.979 6.558-.576 1.654-1.414 3.055-2.497 4.206-.91.96-1.982 1.731-3.219 2.326v-5.599c0-.929-.084-1.785-.249-2.556-.281-1.282-.792-2.349-1.537-3.181-1.329-1.482-3.399-2.226-6.204-2.226h-30.261l-.046.011c-2.973-.027-5.454-.468-7.432-1.324-1.487-.637-2.735-1.5-3.753-2.575-1.072-1.136-1.898-2.533-2.485-4.19-.642-1.839-.965-4.041-.98-6.594.012-2.552.338-4.754.98-6.593.576-1.654 1.413-3.054 2.504-4.213 1.018-1.079 2.274-1.935 3.757-2.568 1.913-.813 4.263-1.247 7.041-1.301.119 2.004.887 3.75 2.339 5.235 1.594 1.535 3.488 2.31 5.666 2.325 2.178-.03 4.064-.821 5.65-2.364 1.425-1.481 2.182-3.216 2.293-5.2 5.144-.076 8.97-1.443 11.474-4.102 1.367-1.439 2.355-3.27 2.962-5.492.384-1.381.614-2.943.687-4.685.023-.61.035-1.025.027-1.255V80.215h14.689c5.316 0 9.284-1.367 11.892-4.11 1.36-1.44 2.347-3.27 2.962-5.5.384-1.408.614-2.978.687-4.716.016-.591.027-.99.019-1.205V49.962c1.994-.115 3.734-.882 5.225-2.314 1.544-1.592 2.32-3.477 2.339-5.653-.023-2.175-.799-4.067-2.339-5.652-1.479-1.44-3.227-2.207-5.225-2.322V19.315l-.003-.02c.015-2.54.342-4.731.979-6.562.58-1.654 1.414-3.054 2.505-4.213 1.021-1.075 2.274-1.935 3.76-2.568 1.994-.848 4.46-1.285 7.398-1.308.012 0 .02.007.035.011h29.861c.096.967.504 1.815 1.21 2.54.842.814 1.84 1.225 2.985 1.24 1.152-.015 2.14-.426 2.985-1.24.814-.832 1.225-1.83 1.233-2.974-.008-1.15-.419-2.149-1.233-2.981-.845-.814-1.833-1.225-2.985-1.24-1.145.015-2.14.426-2.985 1.24-.706.725-1.114 1.577-1.21 2.54h-29.842c-5.316-.008-9.28 1.366-11.888 4.11-.918.971-1.664 2.126-2.244 3.454-.015 0-.027-.008-.042-.008h-.953l-.038.008-7.513-.008h-.016c-2.823.008-4.89.745-6.219 2.226-.733.818-1.24 1.88-1.528 3.166-.169.795-.25 1.662-.25 2.614v7.572s.008.019.008.026c-.027 1.286-.192 2.368-.515 3.24a5.632 5.632 0 0 1-1.087 1.853c-.603.664-1.364 1.159-2.297 1.489-.45.153-.922.272-1.441.353-.518.08-1.11.119-1.763.13-.015 0-.027-.003-.038-.003l-7.122.007c0-.218-.011-.495-.027-.833-.065-1.696-.295-3.254-.687-4.685-.607-2.222-1.594-4.049-2.954-5.488-2.539-2.675-6.373-4.034-11.482-4.106-.115-1.992-.875-3.73-2.316-5.216-1.586-1.542-3.48-2.321-5.658-2.345-2.178.024-4.06.806-5.658 2.338-1.44 1.485-2.201 3.227-2.32 5.215h-44.965c-5.316-.008-9.284 1.366-11.892 4.11-1.356 1.44-2.347 3.27-2.962 5.488-.377 1.39-.607 2.943-.688 4.686-.019.602-.027 1.017-.019 1.243v14.718c-1.993.115-3.734.882-5.22 2.314-1.544 1.596-2.32 3.477-2.343 5.652.015 2.176.799 4.065 2.343 5.653 1.486 1.44 3.227 2.207 5.22 2.322v44.482h-14.274c-.123-2.068-.941-3.853-2.462-5.349-1.632-1.497-3.53-2.238-5.708-2.199h-.008c-2.17.073-4.037.902-5.6 2.479-1.352 1.462-2.071 3.154-2.182 5.069H92.137V79.785s-.004-.016-.004-.027c.016-2.525.338-4.697.964-6.52.553-1.631 1.364-3.024 2.428-4.175 2.393-2.595 6.108-3.927 11.151-3.996.127.043.3.05.522.024 5.186-.058 9.054-1.455 11.597-4.199 1.352-1.462 2.312-3.293 2.9-5.492.369-1.385.592-2.943.665-4.685l.007-1.056.012-.019c.015-.265.008-.767-.031-1.512-.08-1.658-.311-3.181-.684-4.56-.599-2.19-1.59-4.013-2.953-5.46-2.539-2.671-6.361-4.041-11.474-4.102-.123-2.02-.891-3.765-2.339-5.239-1.595-1.535-3.484-2.31-5.666-2.326-2.178.031-4.064.818-5.65 2.36-1.426 1.486-2.182 3.217-2.294 5.197H76.576c-5.316 0-9.284 1.366-11.892 4.11-1.36 1.439-2.347 3.27-2.954 5.488-.392 1.416-.622 2.99-.695 4.72-.02.603-.027 1.006-.02 1.217v14.683H46.324s-.015.003-.023.003c-.02 0-.03-.003-.05-.003-5.331.023-9.276 1.4-11.846 4.148-1.36 1.44-2.332 3.27-2.939 5.5-.384 1.408-.614 2.989-.68 4.75-.023.58-.026.956-.019 1.136v29.83c-2.07.119-3.86.937-5.354 2.453-1.498 1.623-2.24 3.527-2.21 5.702.074 2.176.896 4.038 2.475 5.592 1.475 1.362 3.169 2.088 5.09 2.191v6.728c-.965.099-1.818.499-2.551 1.212-.81.833-1.226 1.831-1.233 2.975.007 1.151.422 2.149 1.233 2.981.84.814 1.832 1.225 2.984 1.24 1.145-.015 2.144-.426 2.985-1.24.814-.832 1.225-1.83 1.233-2.974-.008-1.151-.423-2.149-1.233-2.982-.734-.706-1.579-1.113-2.547-1.212v-6.732c2.07-.119 3.857-.936 5.347-2.452 1.506-1.623 2.247-3.527 2.217-5.703-.073-2.168-.895-4.037-2.474-5.591-1.468-1.362-3.17-2.08-5.09-2.188V79.785s-.004-.02-.004-.027c.016-2.529.338-4.709.965-6.532.568-1.654 1.398-3.062 2.48-4.221 1.023-1.086 2.267-1.95 3.754-2.583 1.963-.86 4.436-1.297 7.417-1.335.012 0 .016.007.027.011.03.008.054.008.07.008h14.676v14.257c-1.993.115-3.733.886-5.224 2.322-1.544 1.584-2.32 3.476-2.339 5.645.023 2.176.799 4.064 2.34 5.653 1.486 1.439 3.23 2.206 5.223 2.321v6.728c-.964.1-1.809.503-2.539 1.205-.814.836-1.225 1.823-1.24 2.974.007 1.144.414 2.141 1.225 2.982.837.817 1.832 1.232 2.977 1.247 1.152-.008 2.151-.418 2.992-1.224.815-.841 1.225-1.831 1.24-2.982-.007-1.144-.414-2.141-1.224-2.982-.73-.717-1.587-1.124-2.555-1.224V95.3c1.994-.115 3.734-.882 5.22-2.314 1.537-1.596 2.32-3.477 2.34-5.652-.023-2.176-.8-4.057-2.34-5.653-1.482-1.44-3.226-2.207-5.22-2.322V65.102h14.666s.02 0 .027-.004c.134.004.338 0 .622-.011 2.608-.104 4.521-.906 5.746-2.399.688-.833 1.153-1.888 1.41-3.174.15-.744.215-1.562.215-2.44V34.88H91.3c.119 2 .887 3.75 2.339 5.231 1.563 1.52 3.442 2.295 5.627 2.322 2.178-.023 4.068-.794 5.658-2.337 1.441-1.485 2.209-3.228 2.324-5.22 2.781.054 5.132.492 7.041 1.302 1.483.633 2.739 1.489 3.761 2.567 1.079 1.136 1.905 2.521 2.489 4.183.649 1.83.983 4.041.995 6.624-.016 2.533-.338 4.709-.964 6.535-.565 1.647-1.368 3.024-2.409 4.156-2.381 2.61-6.107 3.942-11.181 4.015-.116-.046-.265-.054-.454-.023-5.251.057-9.138 1.454-11.662 4.19-1.344 1.459-2.312 3.293-2.9 5.488-.376 1.432-.599 2.998-.664 4.694l-.008 1.094c0 .023-.011.038-.015.06v29.796h-14.69l-.018.008c-.02 0-.035-.008-.058-.008-5.293.016-9.238 1.39-11.823 4.126-1.364 1.447-2.347 3.27-2.946 5.461-.384 1.401-.615 2.943-.688 4.62-.023.653-.035 1.09-.023 1.321 0 .007 0 .015-.004.023v15.112s0 .016.004.023c-.015 2.545-.338 4.74-.98 6.574-.576 1.654-1.41 3.055-2.496 4.214-1.026 1.078-2.282 1.934-3.768 2.567-1.91.814-4.26 1.248-7.038 1.301-.119-2.011-.89-3.761-2.346-5.242-1.602-1.535-3.488-2.302-5.666-2.318h-.008c-2.178.035-4.052.825-5.643 2.376-1.413 1.473-2.174 3.204-2.289 5.181H8.925c-.111-1.048-.565-1.95-1.36-2.695-.887-.767-1.897-1.12-3.042-1.078-1.152.073-2.12.534-2.915 1.389-.769.879-1.13 1.888-1.08 3.04.066 1.143.534 2.118 1.383 2.916.872.76 1.875 1.113 3.027 1.079 1.168-.073 2.143-.534 2.93-1.389.62-.707.969-1.501 1.057-2.384h21.872c.115 2.007.891 3.757 2.347 5.239 1.575 1.519 3.45 2.287 5.635 2.318 2.209-.039 4.106-.825 5.677-2.368 1.418-1.485 2.178-3.216 2.29-5.193 5.1-.065 8.93-1.431 11.47-4.102 1.367-1.431 2.358-3.262 2.961-5.492.392-1.423.622-2.989.695-4.685.02-.603.027-1.014.02-1.244v-15.113s-.008-.019-.008-.03c.015-2.556.346-4.755.987-6.593.584-1.662 1.41-3.055 2.481-4.183 1.018-1.086 2.274-1.942 3.76-2.575 1.964-.841 4.426-1.286 7.368-1.324a.27.27 0 0 0 .077.015H91.27v14.675c-.008.227 0 .629.015 1.232.073 1.7.296 3.254.68 4.686.615 2.222 1.594 4.06 2.954 5.495 2.512 2.675 6.342 4.053 11.493 4.126.119 2.015.895 3.768 2.355 5.261 1.571 1.512 3.457 2.28 5.642 2.303 2.178-.031 4.061-.81 5.651-2.36 1.425-1.482 2.189-3.212 2.301-5.197h14.277c0 .219.012.496.02.829.073 1.697.303 3.262.695 4.686.603 2.23 1.594 4.057 2.958 5.492 2.577 2.728 6.53 4.102 11.854 4.11h14.746c.115 2.007.891 3.761 2.347 5.246 1.602 1.527 3.492 2.295 5.67 2.31 2.178-.038 4.056-.825 5.642-2.375 1.422-1.474 2.178-3.208 2.29-5.181h44.952c5.316.008 9.284-1.366 11.893-4.11 1.367-1.432 2.358-3.262 2.961-5.492.392-1.424.622-2.989.688-4.686.027-.663.038-1.097.027-1.308.019-2.564.349-4.755.987-6.566.584-1.662 1.41-3.055 2.481-4.183 1.026-1.087 2.274-1.939 3.765-2.576 1.97-.852 4.436-1.289 7.39-1.324.031.004.058.016.092.016h29.816c.115 1.972.868 3.699 2.289 5.181 1.579 1.55 3.465 2.341 5.635 2.375 2.178-.008 4.068-.783 5.67-2.31 1.459-1.485 2.243-3.239 2.354-5.254 5.105-.065 8.935-1.431 11.47-4.102 1.368-1.432 2.359-3.262 2.962-5.488.392-1.428.618-2.99.687-4.686.027-.576.031-.979.027-1.232v-14.71c5.132-.076 8.962-1.45 11.47-4.125 1.356-1.44 2.339-3.27 2.946-5.496.384-1.423.615-2.99.688-4.685.011-.338.015-.607.019-.822 1.994-.115 3.734-.886 5.224-2.321 1.544-1.585 2.32-3.47 2.339-5.646-.019-2.176-.799-4.067-2.339-5.653-1.483-1.439-3.23-2.206-5.224-2.321V49.536c.008-.21 0-.606-.019-1.2-.073-1.728-.304-3.305-.688-4.717-.61-2.226-1.602-4.06-2.961-5.496-2.605-2.744-6.573-4.11-11.885-4.11h-29.823c.05-2.337.369-4.379.964-6.125.569-1.654 1.394-3.062 2.489-4.221 1.022-1.086 2.266-1.942 3.753-2.575 1.99-.856 4.467-1.293 7.444-1.324.019 0 .035.011.054.011h29.823c.112 1.984.88 3.727 2.313 5.212 1.594 1.543 3.476 2.322 5.658 2.345 2.178-.023 4.064-.799 5.658-2.341 1.44-1.482 2.208-3.228 2.324-5.216h14.327c.1.971.507 1.82 1.214 2.552.845.806 1.84 1.217 2.992 1.224 1.145-.015 2.136-.425 2.977-1.247.811-.855 1.218-1.85 1.226-2.997-.016-1.151-.427-2.141-1.241-2.974-.841-.814-1.84-1.224-2.992-1.232Zm-122.412 96.302c.642.668.968 1.447.984 2.357a3.365 3.365 0 0 1-.984 2.375c-.664.641-1.448.967-2.354.975-.911 0-1.691-.326-2.363-.967a3.318 3.318 0 0 1-.991-2.353c0-.905.327-1.688.961-2.36a3.352 3.352 0 0 1 2.37-.998h.015c.91.008 1.694.334 2.362.975v-.004Zm25.371-11.494c-1.421 1.374-3.103 2.073-5.035 2.088-1.936-.015-3.619-.71-5.04-2.072-1.383-1.416-2.074-3.101-2.097-5.031.015-1.935.71-3.615 2.082-5.04 1.417-1.373 3.096-2.064 5.032-2.087h.015c1.936.015 3.618.71 5.036 2.08 1.375 1.416 2.066 3.1 2.093 5.031-.015 1.934-.71 3.615-2.082 5.031h-.004ZM304.863 1.87a3.34 3.34 0 0 1 2.37-.998h.015a3.308 3.308 0 0 1 2.37.983c.642.671.968 1.454.976 2.36-.008.91-.334 1.688-.976 2.352-.672.653-1.455.975-2.362.983-.903 0-1.69-.323-2.362-.967-.642-.664-.976-1.447-.991-2.353.007-.902.326-1.688.96-2.36Zm-41.739 35.088c1.376 1.416 2.071 3.097 2.09 5.03-.015 1.935-.711 3.616-2.082 5.032-1.417 1.374-3.1 2.072-5.036 2.088-1.936-.016-3.622-.71-5.039-2.073-1.379-1.423-2.075-3.097-2.098-5.03.016-1.935.711-3.616 2.082-5.04 1.418-1.374 3.096-2.076 5.028-2.087h.016c1.936.015 3.618.71 5.036 2.08h.003Zm-34.855-2.08h7.149c2.804-.008 4.863-.753 6.184-2.219.738-.825 1.249-1.884 1.529-3.15.177-.795.257-1.67.257-2.625V19.31l-.011-.03c.027-1.29.192-2.368.518-3.247a5.547 5.547 0 0 1 1.087-1.846c.6-.664 1.36-1.167 2.29-1.49.445-.16.929-.28 1.456-.36a12.414 12.414 0 0 1 1.77-.13c.008 0 .016.003.023.003h8.205a14.88 14.88 0 0 0-.372 1.167c-.384 1.431-.615 2.99-.688 4.686-.019.602-.027 1.017-.019 1.247v14.715c-1.994.115-3.734.886-5.22 2.321-1.441 1.478-2.201 3.224-2.32 5.208h-21.841v-6.677h.003Zm-.003 14.682v-7.134h21.841c.115 1.992.879 3.734 2.32 5.212 1.486 1.439 3.226 2.206 5.22 2.322v14.679l.008.026c-.016 2.556-.338 4.755-.988 6.59-.568 1.646-1.406 3.055-2.496 4.206-1.026 1.086-2.274 1.942-3.761 2.567-1.997.848-4.467 1.286-7.394 1.309-.008 0-.012 0-.016-.004l-.046-.008h-14.689l.001-14.633v-15.14.008ZM33.559 134.08a3.34 3.34 0 0 1 .983 2.353c-.008.909-.326 1.688-.968 2.36a3.305 3.305 0 0 1-2.37.99c-.91 0-1.69-.326-2.362-.967-.642-.664-.976-1.447-.987-2.353 0-.909.322-1.688.96-2.36a3.324 3.324 0 0 1 2.37-.994h.015c.91.008 1.69.33 2.363.975l-.004-.004Zm2.554-21.683c1.406 1.39 2.144 3.047 2.201 4.982.027 1.941-.622 3.638-1.967 5.084-1.375 1.409-3.042 2.142-5.012 2.207-1.944.015-3.626-.641-5.052-1.961-1.41-1.381-2.147-3.039-2.216-4.974-.03-1.941.626-3.638 1.963-5.084 1.387-1.409 3.042-2.15 4.986-2.215h.008c1.943-.03 3.633.63 5.09 1.961Zm27.691-8.55c.638.652.968 1.424.991 2.341 0 .909-.318 1.689-.937 2.352-.657.657-1.44.994-2.34 1.017a3.329 3.329 0 0 1-2.392-.936c-.665-.664-1.007-1.454-1.018-2.375a3.335 3.335 0 0 1 .968-2.376 3.329 3.329 0 0 1 2.37-.99h.015c.91.015 1.69.33 2.347.967h-.004Zm2.682-21.552c1.375 1.416 2.066 3.1 2.09 5.03-.016 1.935-.711 3.616-2.083 5.032-1.425 1.374-3.103 2.072-5.04 2.088-1.932-.016-3.618-.71-5.035-2.073-1.383-1.423-2.075-3.1-2.097-5.03.015-1.943.71-3.616 2.081-5.04 1.422-1.374 3.096-2.072 5.032-2.087h.016c1.936.015 3.618.706 5.036 2.08Zm16.747-22.013a5.618 5.618 0 0 1-.983 1.792c-.6.722-1.368 1.263-2.328 1.623a8.179 8.179 0 0 1-1.475.384c-.553.096-1.195.138-1.924.146l-14.64-.008V49.544s-.003-.015-.007-.023c.016-2.54.338-4.732.98-6.566.576-1.654 1.41-3.055 2.504-4.214 1.018-1.078 2.274-1.934 3.76-2.567 1.994-.848 4.464-1.29 7.406-1.309.02 0 .035.012.054.012h7.122v22.216l.011.046c-.023 1.255-.184 2.302-.476 3.143h-.004Zm21.088-20.83c-1.417 1.38-3.096 2.08-5.028 2.102-1.936-.008-3.618-.695-5.043-2.06-1.383-1.417-2.082-3.094-2.113-5.028.008-1.934.695-3.615 2.059-5.039 1.417-1.381 3.096-2.087 5.028-2.11h.016c1.935.007 3.618.694 5.043 2.064 1.383 1.416 2.074 3.086 2.105 5.024-.015 1.934-.703 3.615-2.067 5.038v.008ZM7.22 157.558a3.341 3.341 0 0 1-2.313 1.113c-.91.038-1.713-.242-2.416-.848-.68-.63-1.049-1.397-1.106-2.295-.046-.91.234-1.712.833-2.414a3.358 3.358 0 0 1 2.313-1.121h.023c.903-.038 1.705.242 2.408.856a3.325 3.325 0 0 1 1.103 2.295c.042.909-.238 1.712-.842 2.414H7.22Zm36.606 2.782c-1.402 1.382-3.088 2.08-5.05 2.111-1.952-.023-3.62-.702-5.025-2.049-1.383-1.409-2.09-3.086-2.12-5.02.007-1.942.695-3.623 2.054-5.047 1.41-1.381 3.089-2.087 5.025-2.118h.015c1.936.008 3.619.695 5.051 2.057 1.383 1.408 2.082 3.085 2.113 5.02-.008 1.941-.695 3.615-2.059 5.046h-.004Zm166.359-45.307c-1.421 1.374-3.096 2.064-5.04 2.08-1.94-.023-3.618-.706-5.012-2.057-1.383-1.416-2.082-3.086-2.113-5.028.008-1.934.691-3.615 2.059-5.038 1.417-1.382 3.096-2.088 5.032-2.111h.015c1.936.008 3.619.695 5.044 2.065 1.375 1.4 2.082 3.085 2.105 5.054-.016 1.934-.719 3.607-2.09 5.031v.004Zm17.216-50.37V79.34l-29.404-.008c-.119-1.988-.88-3.726-2.32-5.211-1.479-1.44-3.227-2.207-5.22-2.322v-6.724c1.993-.115 3.733-.886 5.22-2.322 1.544-1.585 2.32-3.469 2.343-5.645-.023-2.176-.799-4.064-2.343-5.653-1.479-1.435-3.223-2.206-5.213-2.322.05-1.128.208-2.087.503-2.882a5.654 5.654 0 0 1 1.087-1.845c.6-.664 1.36-1.167 2.29-1.49.445-.16.929-.28 1.456-.36a11.924 11.924 0 0 1 1.77-.13c.008 0 .016 0 .023.003h29.812v22.236h-.004Zm-42.418 20.152c-1.371-1.424-2.067-3.1-2.09-5.031.016-1.942.711-3.615 2.082-5.039 1.418-1.37 3.096-2.072 5.028-2.088h.016c1.936.016 3.618.71 5.035 2.08 1.376 1.416 2.067 3.101 2.09 5.031-.015 1.935-.714 3.616-2.082 5.036-1.425 1.37-3.1 2.072-5.036 2.087-1.943-.015-3.622-.71-5.043-2.072v-.004Zm7.394 11.475c.642.664.976 1.447.991 2.356 0 .898-.322 1.689-.96 2.36a3.337 3.337 0 0 1-2.37.998c-.903 0-1.69-.319-2.362-.959-.65-.664-.984-1.447-.999-2.353 0-.902.319-1.689.96-2.36a3.335 3.335 0 0 1 2.366-1.006h.016c.898 0 1.69.327 2.362.968l-.004-.004Zm-7.386-34.144c-1.379-1.424-2.075-3.1-2.098-5.035.016-1.938.711-3.615 2.082-5.039 1.418-1.374 3.096-2.072 5.028-2.087h.016c1.936.015 3.618.71 5.035 2.08 1.376 1.416 2.067 3.1 2.09 5.03-.015 1.935-.711 3.616-2.082 5.036-1.425 1.373-3.1 2.072-5.036 2.087-1.936-.015-3.622-.71-5.039-2.072h.004Zm15.111-47.852c1.417-1.374 3.092-2.076 5.028-2.091h.015c1.936.015 3.619.71 5.04 2.08 1.371 1.416 2.067 3.1 2.09 5.03-.016 1.935-.711 3.62-2.082 5.036-1.425 1.37-3.1 2.072-5.036 2.088-1.944-.016-3.619-.706-5.04-2.073-1.383-1.423-2.074-3.1-2.097-5.03.015-1.943.707-3.616 2.082-5.04Zm-61.613 13.547c.576-1.654 1.41-3.055 2.504-4.214 1.018-1.078 2.274-1.934 3.761-2.567 1.994-.848 4.463-1.29 7.41-1.312.015 0 .03.011.05.011h44.953c.115 1.988.884 3.726 2.32 5.212 1.587 1.542 3.48 2.321 5.658 2.344 2.178-.023 4.064-.802 5.658-2.34 1.433-1.486 2.201-3.228 2.317-5.22 2.781.054 5.128.491 7.041 1.301 1.486.633 2.738 1.49 3.76 2.568 1.091 1.159 1.928 2.56 2.505 4.213.603 1.731.925 3.788.971 6.156h-44.946c-5.312-.008-9.268 1.366-11.877 4.11-1.367 1.431-2.354 3.262-2.961 5.488-.392 1.424-.619 2.99-.695 4.686-.012.345-.016.63-.02.852-1.993.115-3.733.882-5.22 2.314-1.544 1.596-2.32 3.484-2.343 5.653.019 2.176.795 4.064 2.339 5.652 1.487 1.44 3.231 2.207 5.221 2.322v6.73c-.968.1-1.825.506-2.555 1.224-.81.84-1.217 1.838-1.225 2.982.015 1.151.426 2.141 1.241 2.982.841.806 1.84 1.216 2.992 1.224 1.145-.016 2.143-.43 2.977-1.247.814-.84 1.217-1.839 1.225-2.982-.015-1.151-.43-2.142-1.241-2.974-.729-.703-1.578-1.106-2.542-1.205v-6.728c1.993-.115 3.733-.883 5.224-2.314 1.544-1.593 2.32-3.477 2.343-5.653-.023-2.176-.799-4.064-2.343-5.653-1.479-1.439-3.227-2.206-5.221-2.322.047-2.379.369-4.432.976-6.17.576-1.658 1.402-3.06 2.497-4.214 1.025-1.086 2.282-1.942 3.764-2.575 1.986-.848 4.46-1.29 7.398-1.309.016 0 .027.008.046.012h44.954v6.677H197.59c-2.82.008-4.89.745-6.219 2.23-.73.817-1.249 1.873-1.529 3.166a11.96 11.96 0 0 0-.242 2.183c-1.997.116-3.741.883-5.232 2.315-1.544 1.596-2.32 3.477-2.343 5.652.023 2.176.795 4.065 2.343 5.653 1.487 1.44 3.227 2.207 5.22 2.322V71.8c-1.993.119-3.733.886-5.22 2.322-1.44 1.477-2.201 3.223-2.32 5.211-.1 0-.207.008-.326.015h-.008c-5.09.127-8.862 1.559-11.328 4.302-1.306 1.447-2.255 3.285-2.831 5.488-.368 1.432-.584 3.032-.641 4.82l-.016.875c0 2.51-.311 4.694-.952 6.559-.557 1.631-1.36 3.024-2.424 4.183-2.374 2.602-6.1 3.934-11.186 4.006-.034-.011-.065-.023-.107-.03h-14.712V65.067c1.994-.115 3.734-.882 5.22-2.314 1.544-1.592 2.32-3.477 2.343-5.653-.023-2.175-.799-4.06-2.343-5.652-1.479-1.44-3.226-2.207-5.22-2.322V34.408s0-.011-.004-.019c.019-2.537.342-4.724.98-6.555l-.004.008Zm23.812 34.305c-1.383-1.424-2.075-3.1-2.098-5.035.016-1.934.711-3.615 2.082-5.039 1.421-1.374 3.096-2.072 5.032-2.087h.016c1.935.015 3.618.71 5.035 2.08 1.375 1.416 2.067 3.1 2.09 5.03-.015 1.935-.711 3.616-2.082 5.036-1.417 1.373-3.104 2.072-5.04 2.087-1.932-.015-3.618-.71-5.035-2.072Zm7.382 11.475c.646.663.976 1.446.991 2.352 0 .902-.326 1.689-.96 2.36a3.336 3.336 0 0 1-2.37.994c-.903 0-1.694-.318-2.362-.96a3.313 3.313 0 0 1-.995-2.367 3.33 3.33 0 0 1 .968-2.36c.664-.649 1.448-.975 2.354-.99h.016c.899 0 1.69.326 2.362.967l-.004.004Zm-60.464 31.472c1.383-1.408 3.042-2.149 4.978-2.214h.016c1.943-.031 3.633.618 5.089 1.961 1.41 1.378 2.151 3.039 2.216 4.974.031 1.941-.629 3.63-1.962 5.084-1.383 1.409-3.043 2.146-4.979 2.215-1.939.03-3.633-.622-5.085-1.957-1.41-1.382-2.151-3.04-2.224-4.974-.031-1.942.618-3.638 1.955-5.093l-.004.004Zm10.244 40.127c-1.409 1.377-3.08 2.087-5.024 2.118-1.936 0-3.618-.679-5.051-2.045-1.383-1.409-2.09-3.078-2.128-5.016 0-1.934.688-3.615 2.047-5.047 1.41-1.389 3.081-2.095 5.025-2.126h.042c1.943.016 3.618.699 5.016 2.05 1.387 1.4 2.098 3.077 2.128 5.012-.007 1.941-.687 3.622-2.055 5.054Zm17.178-20.094v14.656h-7.125c-.023 0-.039.008-.05.008l-7.102-.008c-.12-2.026-.903-3.776-2.355-5.246-1.602-1.535-3.496-2.303-5.674-2.311-2.178.039-4.064.833-5.642 2.384-1.414 1.477-2.167 3.204-2.282 5.173-2.808-.062-5.17-.495-7.068-1.317-1.486-.637-2.73-1.5-3.753-2.575-1.071-1.136-1.897-2.532-2.481-4.19-.641-1.831-.964-4.026-.98-6.567 0-.007 0-.011.004-.023v-14.679h14.274c.127 2.073.941 3.853 2.462 5.35 1.633 1.497 3.53 2.234 5.716 2.199 2.174-.077 4.041-.902 5.593-2.471 1.36-1.47 2.082-3.163 2.189-5.078h14.274v14.695Zm.442-60.904c-1.936-.015-3.618-.71-5.036-2.072-1.383-1.424-2.074-3.101-2.097-5.035.015-1.934.711-3.615 2.082-5.039 1.417-1.374 3.096-2.072 5.028-2.088h.015c1.932.016 3.619.71 5.036 2.08 1.375 1.416 2.067 3.101 2.09 5.031-.016 1.935-.711 3.616-2.082 5.035-1.418 1.374-3.104 2.073-5.036 2.088Zm.43 60.896v-14.683h14.255v22.239l.011.035c-.026 1.289-.192 2.379-.518 3.251a5.504 5.504 0 0 1-1.087 1.845c-.599.672-1.368 1.163-2.297 1.497a7.842 7.842 0 0 1-1.456.353c-.522.085-1.102.127-1.744.131-.008 0-.015-.004-.023-.004h-7.141v-14.664Zm42.434 35.237c-1.417 1.382-3.096 2.073-5.032 2.096-1.944-.008-3.618-.702-5.043-2.065-1.383-1.416-2.082-3.093-2.105-5.023.015-1.942.703-3.623 2.07-5.047 1.417-1.374 3.096-2.072 5.036-2.095h.007c1.944.015 3.619.702 5.044 2.072 1.375 1.416 2.074 3.093 2.097 5.024-.015 1.942-.71 3.615-2.074 5.038Zm55.014-12.575v5.936c-1.917.76-4.272 1.159-7.072 1.186h-.011c-.027-.007-.05-.007-.066-.007H182.87c-.119-2.008-.895-3.758-2.347-5.247-1.575-1.512-3.457-2.283-5.643-2.31-2.208.035-4.098.825-5.673 2.376-1.421 1.481-2.174 3.208-2.289 5.181h-14.712l-.046.011c-2.943-.023-5.409-.464-7.406-1.312-1.475-.626-2.739-1.489-3.784-2.599-1.071-1.128-1.897-2.525-2.481-4.183-.603-1.73-.926-3.784-.972-6.155h7.118c2.815 0 4.89-.737 6.219-2.222.737-.825 1.248-1.873 1.529-3.151.176-.79.257-1.669.257-2.625v-22.235c5.174-.069 9.027-1.47 11.566-4.222 1.337-1.47 2.304-3.3 2.881-5.499.376-1.424.599-2.997.664-4.724a47.7 47.7 0 0 0 .012-1.079v-.088c.019-2.448.326-4.574.929-6.374.538-1.616 1.329-3.001 2.355-4.152 2.324-2.618 5.992-3.984 10.997-4.11.112 2.003.876 3.756 2.32 5.242 1.487 1.435 3.227 2.206 5.221 2.321v6.728c-.995.103-1.86.53-2.601 1.266-.807.856-1.202 1.873-1.179 3.055.05 1.174.507 2.168 1.356 2.974.879.783 1.905 1.151 3.088 1.105 1.137-.073 2.097-.529 2.881-1.358a4.181 4.181 0 0 0 1.106-2.982 4.213 4.213 0 0 0-1.29-2.905c-.723-.672-1.548-1.056-2.489-1.155V87.74c1.993-.115 3.733-.886 5.22-2.314 1.44-1.485 2.201-3.223 2.32-5.215h29.404v14.64s0 .02.004.031c-.015 2.556-.338 4.755-.979 6.593-.577 1.654-1.41 3.055-2.505 4.214-1.022 1.078-2.274 1.934-3.76 2.567-1.913.814-4.26 1.248-7.041 1.305-.116-2.003-.888-3.749-2.34-5.238-1.594-1.535-3.487-2.31-5.658-2.322h-.007c-2.178.031-4.064.818-5.651 2.36-1.421 1.489-2.182 3.22-2.297 5.2-5.109.069-8.938 1.432-11.477 4.103-1.36 1.439-2.347 3.269-2.962 5.488-.376 1.385-.607 2.943-.688 4.685-.019.588-.026.998-.019 1.228-.007.169 0 .595.019 1.271.081 1.742.304 3.3.688 4.685.607 2.23 1.586 4.061 2.946 5.496 2.57 2.736 6.523 4.118 11.847 4.133.015 0 .023-.004.034-.004.015 0 .031.004.042.004h30.242s.016-.004.023-.008c.638.008 1.229.054 1.759.131a8.201 8.201 0 0 1 1.456.361c.93.326 1.698.825 2.297 1.489a5.83 5.83 0 0 1 1.08 1.853c.33.891.495 1.984.514 3.278v.015l-.007.012Zm65.957-17.615c-1.402 1.351-3.073 2.037-5.024 2.057-1.963-.023-3.649-.733-5.051-2.103-1.372-1.432-2.059-3.109-2.067-5.047.027-1.934.73-3.607 2.113-5.023 1.425-1.367 3.111-2.054 5.043-2.057h.015c1.933.026 3.611.729 5.021 2.11 1.367 1.432 2.055 3.109 2.063 5.047-.027 1.934-.73 3.607-2.113 5.019v-.003ZM288.2 64.223c-1.944-.061-3.599-.783-4.971-2.157-1.336-1.408-2.009-3.089-2.016-5.03.042-1.943.753-3.608 2.112-4.99 1.402-1.35 3.073-2.038 5.025-2.06h.007c1.971.03 3.657.736 5.059 2.118 1.356 1.416 2.044 3.108 2.051 5.077-.05 1.969-.768 3.646-2.162 5.031-1.433 1.351-3.135 2.023-5.105 2.007v.004Zm45.503.875h.015c1.936.016 3.618.706 5.036 2.08 1.375 1.416 2.066 3.097 2.089 5.031-.011 1.934-.706 3.615-2.081 5.035-1.418 1.37-3.1 2.073-5.036 2.088-1.936-.015-3.619-.706-5.036-2.072-1.383-1.416-2.078-3.097-2.097-5.031.015-1.935.71-3.615 2.082-5.04 1.417-1.373 3.096-2.072 5.032-2.087l-.004-.004ZM290.22 34.877h28.375l.046-.012c2.935.023 5.409.465 7.391 1.309 1.49.633 2.746 1.489 3.764 2.567 1.095 1.151 1.928 2.56 2.505 4.214.641 1.834.964 4.026.979 6.581 0 .012-.004.02-.008.031v14.68c-1.993.118-3.733.886-5.22 2.317-1.544 1.593-2.32 3.477-2.339 5.653.023 2.176.795 4.064 2.339 5.653 1.487 1.439 3.227 2.207 5.22 2.322-.046 2.375-.364 4.44-.971 6.175-.584 1.661-1.41 3.054-2.482 4.182-1.022 1.087-2.266 1.946-3.753 2.583-1.893.818-4.248 1.255-7.048 1.317 0-.22-.012-.495-.019-.83-.077-1.696-.304-3.254-.688-4.685-.615-2.222-1.602-4.053-2.962-5.492-2.608-2.744-6.572-4.11-11.892-4.11-.019 0-.035.008-.054.012-2.938-.023-5.404-.465-7.398-1.313-1.475-.626-2.739-1.489-3.791-2.598-1.064-1.128-1.89-2.525-2.474-4.183-.607-1.739-.926-3.8-.972-6.179 1.982-.115 3.719-.875 5.205-2.306 1.544-1.585 2.328-3.47 2.355-5.638-.016-2.183-.788-4.064-2.324-5.66-1.487-1.45-3.234-2.218-5.236-2.337V34.873h1.448l.004.004Zm56.097-10.516c-1.425 1.374-3.103 2.065-5.039 2.08-1.952-.023-3.619-.706-5.017-2.056-1.379-1.417-2.082-3.094-2.113-5.028.008-1.942.696-3.623 2.067-5.046 1.41-1.382 3.088-2.08 5.024-2.103h.015c1.971.015 3.657.717 5.067 2.091 1.375 1.416 2.067 3.097 2.082 5.031-.023 1.942-.718 3.615-2.09 5.031h.004Zm23.819-2.694a3.338 3.338 0 0 1-2.37.998c-.902 0-1.69-.318-2.362-.96-.649-.663-.979-1.446-.995-2.352 0-.902.315-1.688.953-2.36.657-.648 1.448-.99 2.374-1.005h.015c.899 0 1.69.326 2.362.967.642.664.976 1.447.991 2.352 0 .898-.326 1.689-.96 2.36h-.008Z"/><path fill="#0059FE" d="M1.308 158.478c-.853-.882-1.283-1.919-1.302-3.12.011-1.22.453-2.268 1.302-3.147.88-.848 1.916-1.278 3.119-1.289 1.202 0 2.24.43 3.13 1.282.86.878 1.291 1.915 1.31 3.12 0 1.201-.43 2.237-1.271 3.127-.872.86-1.917 1.301-3.142 1.321h-.02c-1.206-.012-2.239-.442-3.13-1.29l.004-.004Zm26.586-19.015c-.853-.883-1.283-1.919-1.302-3.12.011-1.221.453-2.268 1.302-3.147.88-.848 1.916-1.278 3.119-1.29 1.202 0 2.24.43 3.13 1.282.86.879 1.29 1.915 1.31 3.12 0 1.201-.43 2.237-1.271 3.128-.872.859-1.917 1.301-3.142 1.32h-.02c-1.206-.012-2.239-.441-3.13-1.29l.004-.003Zm30.257-30.227c-.852-.883-1.283-1.919-1.302-3.12.012-1.22.454-2.268 1.303-3.147.88-.848 1.916-1.278 3.118-1.289 1.203 0 2.24.43 3.131 1.281.86.879 1.29 1.915 1.31 3.12 0 1.202-.43 2.238-1.272 3.128-.871.86-1.916 1.301-3.142 1.32h-.019c-1.206-.011-2.24-.441-3.13-1.289l.003-.004Zm105.86-30.25c-.853-.883-1.283-1.919-1.302-3.12.011-1.22.453-2.268 1.302-3.147.879-.848 1.917-1.278 3.119-1.29 1.202 0 2.239.43 3.13 1.282.861.88 1.291 1.915 1.31 3.12 0 1.202-.43 2.238-1.271 3.128-.872.86-1.917 1.301-3.142 1.32h-.019c-1.207-.011-2.24-.441-3.131-1.29l.004-.003Zm200.43-56.641c-.853-.882-1.283-1.918-1.303-3.12.012-1.22.454-2.268 1.303-3.147.879-.848 1.916-1.277 3.119-1.289 1.202 0 2.239.43 3.13 1.282.861.879 1.291 1.915 1.31 3.12 0 1.201-.43 2.237-1.271 3.128-.872.86-1.917 1.3-3.143 1.32h-.019c-1.206-.012-2.239-.442-3.13-1.29l.004-.004Z"/></svg>