<svg xmlns="http://www.w3.org/2000/svg" width="54" height="33" fill="none"><path fill="#fff" d="M15.27 11.692c0 .662.071 1.2.196 1.593.144.394.323.824.573 1.29.09.143.126.286.126.411 0 .18-.108.358-.34.537l-1.129.752a.858.858 0 0 1-.465.162c-.18 0-.358-.09-.537-.251a5.54 5.54 0 0 1-.645-.842 13.773 13.773 0 0 1-.555-1.056c-1.396 1.647-3.151 2.47-5.264 2.47-1.504 0-2.703-.429-3.58-1.288-.878-.86-1.326-2.006-1.326-3.438 0-1.522.537-2.757 1.63-3.688 1.092-.931 2.542-1.397 4.386-1.397.609 0 1.236.054 1.898.143.663.09 1.343.233 2.06.394V6.177c0-1.36-.287-2.31-.842-2.865-.573-.555-1.54-.823-2.919-.823-.626 0-1.271.071-1.934.233-.662.16-1.307.358-1.933.608a5.138 5.138 0 0 1-.627.233 1.098 1.098 0 0 1-.286.054c-.251 0-.376-.18-.376-.555v-.878c0-.286.035-.501.125-.626.09-.126.25-.251.501-.376C4.634.859 5.386.59 6.263.376c.878-.233 1.809-.34 2.793-.34 2.131 0 3.689.483 4.692 1.45.984.967 1.486 2.435 1.486 4.405v5.8h.035ZM8 14.413c.59 0 1.2-.107 1.844-.322.645-.215 1.218-.609 1.701-1.146.287-.34.502-.716.609-1.146a6.45 6.45 0 0 0 .179-1.557V9.49a14.955 14.955 0 0 0-1.647-.305 13.49 13.49 0 0 0-1.683-.107c-1.2 0-2.077.232-2.668.716-.591.483-.877 1.164-.877 2.059 0 .841.214 1.468.662 1.898.43.447 1.056.662 1.88.662Zm14.378 1.934c-.323 0-.538-.054-.68-.179-.144-.107-.27-.358-.377-.698L17.114 1.63c-.108-.359-.162-.592-.162-.717 0-.286.144-.447.43-.447h1.755c.34 0 .573.053.698.179.143.107.25.358.358.698l3.008 11.853 2.793-11.853c.09-.358.197-.591.34-.698.144-.108.394-.18.717-.18h1.432c.34 0 .573.054.716.18.143.107.269.358.34.698l2.83 11.996 3.097-11.996c.107-.358.233-.591.358-.698.143-.108.376-.18.698-.18h1.666c.286 0 .447.144.447.448 0 .09-.018.18-.036.287-.018.107-.053.25-.125.447l-4.315 13.84c-.108.359-.233.591-.376.699-.143.107-.376.179-.68.179h-1.54c-.34 0-.573-.054-.716-.18-.144-.124-.27-.357-.34-.715L27.73 3.92l-2.757 11.53c-.09.359-.197.592-.34.717-.144.125-.394.18-.717.18h-1.54Zm23.007.483c-.93 0-1.862-.107-2.757-.322-.895-.215-1.594-.447-2.06-.716-.286-.161-.483-.34-.554-.501a1.263 1.263 0 0 1-.108-.502v-.913c0-.376.144-.555.412-.555.108 0 .215.018.322.054.108.036.269.107.448.179a9.74 9.74 0 0 0 1.97.627c.716.143 1.414.214 2.13.214 1.128 0 2.006-.197 2.614-.59.61-.394.931-.967.931-1.701 0-.502-.16-.913-.483-1.254-.322-.34-.931-.644-1.808-.93l-2.597-.806c-1.307-.412-2.273-1.021-2.864-1.827-.591-.788-.896-1.665-.896-2.596 0-.752.161-1.414.484-1.987a4.603 4.603 0 0 1 1.289-1.469 5.682 5.682 0 0 1 1.862-.93C44.436.09 45.188 0 45.976 0c.394 0 .806.018 1.2.072.411.053.788.125 1.163.197.359.09.699.179 1.021.286.322.107.573.215.752.322.25.144.43.287.537.448.108.143.161.34.161.59v.842c0 .376-.143.573-.412.573-.143 0-.376-.071-.68-.215-1.02-.465-2.166-.698-3.438-.698-1.02 0-1.826.161-2.38.501-.556.34-.842.86-.842 1.594 0 .501.179.931.537 1.271.358.34 1.02.68 1.97.985l2.542.806c1.289.412 2.22.984 2.775 1.719.555.734.824 1.575.824 2.506 0 .77-.162 1.468-.466 2.077a4.814 4.814 0 0 1-1.307 1.576c-.555.447-1.218.77-1.987 1.002a8.513 8.513 0 0 1-2.56.377Z"/><path fill="#F90" d="M48.769 25.535c-5.891 4.35-14.45 6.66-21.808 6.66-10.314 0-19.606-3.814-26.625-10.152-.555-.501-.054-1.181.609-.788 7.592 4.405 16.956 7.073 26.642 7.073 6.536 0 13.715-1.361 20.322-4.154.985-.448 1.826.644.86 1.36Zm2.453-2.794c-.753-.966-4.978-.465-6.894-.232-.573.071-.662-.43-.143-.806 3.366-2.363 8.899-1.683 9.543-.895.645.805-.179 6.338-3.33 8.988-.484.412-.95.197-.734-.34.716-1.773 2.31-5.766 1.557-6.715Z"/></svg>