<svg xmlns="http://www.w3.org/2000/svg" width="48" height="50" fill="none"><path fill="#000" d="M5.519 17.625a3.24 3.24 0 0 1-.335-.017V32.26a2.782 2.782 0 0 1 .67 0V17.607a3.24 3.24 0 0 1-.335.018Zm33.802-5.912-.327-.19-11.998-6.926-2.877-1.66-.106-.062-.106.06-2.874 1.662-12.434 7.178-.33.191-.336.193c.15.167.286.348.4.543l.329-.19.325-.188 12.38-7.148 2.455-1.417.191-.11.78.45 1.868 1.077 11.979 6.917.327.19.33.19c.1-.2.219-.391.355-.57l-.331-.19ZM21.041 43.87l-.33-.19L10.35 37.7l-2.357-1.36c-.104.2-.233.386-.382.552l2.38 1.374 10.384 5.995.327.19h.002l.33.19c.09-.206.202-.398.334-.578l-.329-.191Zm21.567-26.018c-.147 0-.293-.009-.435-.026v17.276l-.252.146-1.913 1.103-12.69 7.33-.33.189-.33.19c.131.18.245.373.336.58l.33-.191.328-.19 12.706-7.337 2.25-1.298.065-.036.172-.1V17.844c-.078.008-.157.01-.237.01Z"/><path fill="#000" d="m24.79 4.105-.673-1.162-.106-.185-.106.183-.343.595.188.106.07.123.19.33.222.385.581-.335-.023-.04Zm-1.563.01-.67 1.162.581.335.67-1.162-.58-.335Zm1.921.61-.581.336.672 1.16.579-.335-.67-1.16Zm-2.926 1.13-.06.105-.61 1.058.58.335.618-1.071.053-.091-.58-.335Zm3.93.612-.578.335.67 1.16.579-.335-.67-1.16Zm-4.935 1.13-.67 1.162.58.335.67-1.162-.58-.335Zm5.943.611-.581.335.67 1.162.58-.337-.67-1.16Zm-6.948 1.13-.671 1.162.58.335.67-1.16-.579-.337Zm7.953.611-.581.335.67 1.162.58-.335-.67-1.162Zm-8.96 1.132-.67 1.16.582.335.67-1.16-.581-.335Zm9.964.61-.58.334.67 1.162.58-.335-.67-1.162Zm-10.968 1.13-.67 1.16.58.336.67-1.16-.58-.335Zm11.973.61-.58.335.671 1.162.58-.335-.67-1.162Zm-12.978 1.132-.67 1.16.58.335.671-1.16-.581-.335Zm13.983.61-.579.334.67 1.162.579-.335-.67-1.162Zm-14.988 1.13-.67 1.16.58.336.67-1.16-.58-.335Zm15.995.61-.581.337.67 1.16.58-.335-.67-1.162Zm-17.002 1.132-.098.17-.337.583-.235.407.581.335.67-1.16-.58-.335Zm18.088.753-.081-.142-.581.335.049.083.62 1.077.582-.335-.589-1.018Zm-19.092.988-.67 1.16.58.335.67-1.16-.58-.335Zm20.016.611-.581.335.67 1.16.58-.335-.67-1.16Zm-21.021 1.13-.67 1.16.58.335.67-1.16-.58-.335Zm22.025.611-.58.335.671 1.16.58-.335-.67-1.16Zm-23.03 1.13-.443.766-.032.057-.195.337.475.276.104.06.036-.06.636-1.101-.581-.335Zm24.707 1.771-.195-.335-.388-.67-.089-.155-.579.335.282.49.388.668.581-.333Zm-25.182.276-.53-.306-.67 1.162.579.335.653-1.134.017-.028-.05-.029Zm25.517.305-.58.335.67 1.16.58-.335-.67-1.16Zm-13.201.803-.846.384.276.61.57-.258.374.168.277-.61-.651-.294Zm1.262.57-.276.61 1.22.553.277-.611-1.221-.553Zm-2.72.088-1.22.553.276.611 1.22-.553-.276-.61Zm-12.395-.331-.67 1.162.581.335.67-1.162-.58-.335Zm28.059.611-.58.335.669 1.16.581-.335-.67-1.16Zm-11.112.46-.277.611 1.221.553.276-.611-1.22-.553Zm-6.383.089-1.221.553.276.61 1.22-.552-.275-.611Zm8.215.74-.277.611 1.223.55.274-.608-1.22-.553Zm-10.047.089-1.22.552.188.417v.002l.087.19.055-.024 1.166-.528-.276-.61Zm-9.737-.248-.67 1.162.581.335.67-1.162-.58-.335Zm30.069.611-.581.335.67 1.16.58-.335-.67-1.16Zm-8.454.377-.276.61 1.223.552.274-.611-1.22-.551Zm-13.71.087-1.22.553.275.61 1.221-.552-.276-.611Zm16.214 1.044-.613-.278-.059-.026-.276.611 1.223.553.276-.612-.55-.248Zm-18.046-.215-.477.215-.744.337.275.612.806-.366.416-.187-.276-.611Zm-7.078-.163-.67 1.162.581.335.67-1.162-.58-.335Zm26.284.903-.276.611 1.222.55.277-.609-1.223-.552Zm5.795-.292-.58.335.67 1.162.58-.337-.67-1.16Zm-26.833.38-1.222.553.276.61 1.222-.553-.276-.61Zm22.87.74-.276.61 1.222.553.277-.612-1.223-.55Zm-24.702.09-1.12.503-.102.047.276.611.093-.041 1.13-.511-.277-.61Zm-4.419-.08-.338.589c.2.102.386.23.554.378l.365-.63-.58-.337Zm30.953.818-.276.61 1.222.553.276-.61-1.222-.553ZM9.73 32.88l-1.222.552.276.611 1.223-.552-.277-.611Zm31.528-.25-.026-.046-.58.335.056.097.614 1.065.581-.335-.645-1.116Zm-1.124 1.082-.206-.093-.275.612.212.096 1.009.454.276-.609-1.016-.46Zm2.708 1.66-.236-.41-.368-.637-.068.04-.26.15-.15-.067-.093.207-.01.005.004.008-.176.39.434.197.687.31.064.03.407.184-.235-.407Z"/><path fill="#000" d="m9.342 15.61-.344-.156-.21-.095-.277.61.228.102.342.155.653.295.276-.609-.668-.303Zm29.704-.162-.269.121h-.002l-.342.156-.61.276.276.61.616-.279.346-.157.261-.117-.276-.61Zm-28.426.738-.277.612 1.223.552.276-.611-1.222-.553Zm-3.019.687a3.28 3.28 0 0 1-.558.375l.104.18.581-.335-.127-.22Zm29.613-.598-1.223.553.277.611 1.222-.552-.276-.612Zm-24.762.74-.277.611 1.223.553.276-.611-1.223-.553Zm22.93.09-1.222.552.276.611 1.222-.553-.276-.61Zm4.941-.04h-.002l-.19.329-.192.329-.288.5.58.335.274-.475.19-.328.188-.33.017-.027-.577-.334ZM15.09 18.208l-.807-.365-.274.611.744.337.477.214.276-.61-.416-.187Zm18.46-.276-1.222.553.276.609.059-.026.613-.277.55-.25-.276-.609Zm-25.487-.26-.581.336.67 1.16.58-.335-.669-1.16Zm8.054.998-.276.611 1.22.553.277-.611-1.22-.553Zm15.601.09-1.222.552.276.61 1.22-.552-.274-.61Zm7.597.043-.67 1.16.58.335.67-1.16-.58-.335Zm-21.366.696-.276.611 1.22.553.277-.611-1.221-.553Zm11.937.089-1.222.553.276.61 1.22-.552-.274-.611Zm-20.818-.174-.581.335.67 1.16.58-.335-.67-1.16Zm10.713.914-.276.611 1.22.55.276-.608-1.22-.553Zm8.272.089-1.22.552.275.61 1.221-.553-.276-.61Zm10.257.127-.67 1.16.58.335.67-1.16-.58-.335Zm-16.697.613-.276.61 1.22.552.276-.611-1.22-.551Zm4.608.089-1.22.55.275.612 1.221-.553-.276-.61Zm-16.148-.091-.581.335.67 1.16.58-.335-.67-1.16Zm14.316.918-.375.17-.57-.26-.276.612.846.382.651-.293-.276-.611Zm12.916.212-.67 1.162.58.335.67-1.162-.58-.335ZM11.73 24.029l-.652-1.132-.58.335.67 1.16.53-.307.05-.028-.018-.028Zm24.57-.002h-.002l-.386.671-.282.49.579.336.09-.156.387-.67.195-.336-.581-.335Zm-24.182.671-.036-.06-.104.06-.475.275.195.337.032.056.443.767.581-.335-.636-1.1Zm23.177 1.07-.672 1.162.581.335.67-1.162-.579-.335Zm-22.206.611-.58.335.67 1.16.58-.335-.67-1.16Zm21.2 1.13-.67 1.162.58.335.67-1.162-.58-.335Zm-20.195.611-.58.335.67 1.162.58-.337-.67-1.16Zm19.19 1.13-.621 1.077-.05.085.581.335.082-.142.588-1.018-.58-.337Zm-18.185.611-.581.335.235.409.337.583.098.17.58-.335-.669-1.162Zm17.18 1.132-.67 1.16.58.335.67-1.16-.58-.335Zm-16.175.61-.58.334.67 1.162.58-.335-.67-1.162Zm15.17 1.13-.67 1.16.579.336.67-1.16-.58-.335Zm-14.165.61-.58.335.67 1.162.582-.335-.672-1.162Zm13.16 1.132-.672 1.16.58.335.67-1.16-.578-.335Zm-12.153.61-.581.334.67 1.162.58-.335-.67-1.162Zm11.146 1.13-.67 1.16.581.336.67-1.16-.581-.335Zm-10.142.61-.58.337.67 1.16.58-.335-.67-1.162Zm9.137 1.132-.67 1.16.581.335.67-1.16-.581-.335Zm-8.132.611-.58.335.671 1.16.58-.335-.67-1.16Zm7.127 1.13-.67 1.16.581.335.67-1.16-.58-.335Zm-6.122.611-.579.335.67 1.16.58-.335-.67-1.16Zm5.117 1.13-.518.897-.152.263.58.335.15-.263.52-.897-.58-.335Zm-3.565 1.556-.191-.33-.19-.33-.166-.285-.579.335.166.286.19.33.189.328.125.216.58-.335-.124-.215Zm1.33-36.462a3.266 3.266 0 1 0 0-6.533 3.266 3.266 0 0 0 0 6.533Z"/><path fill="#000" d="M24.012 6.533a3.267 3.267 0 0 1 0-6.533v6.535-.002Z" opacity=".5" style="mix-blend-mode:multiply"/><path fill="#000" d="M27.653 44.262a4.07 4.07 0 0 0-1.925-1.925 4 4 0 0 0-3.427 0 4.069 4.069 0 0 0-1.925 1.925A4.027 4.027 0 0 0 24.013 50a4.029 4.029 0 0 0 4.024-4.024 4 4 0 0 0-.384-1.714Zm-3.64 4.98a3.27 3.27 0 0 1-3.264-3.266 3.239 3.239 0 0 1 .62-1.913 3.272 3.272 0 0 1 1.312-1.067 3.262 3.262 0 0 1 4.313 1.646c.184.407.286.86.286 1.334a3.27 3.27 0 0 1-3.266 3.267ZM8.99 12.325a4.013 4.013 0 0 0-3.469-1.989A4.027 4.027 0 0 0 1.5 14.359c0 2.218 1.624 3.838 3.686 4.008.11.012.222.015.335.015a4.026 4.026 0 0 0 4.023-4.023c0-.742-.202-1.436-.554-2.034Zm-1.387 4.55a3.243 3.243 0 0 1-2.417.734 3.27 3.27 0 0 1-2.929-3.25 3.269 3.269 0 0 1 3.264-3.266 3.267 3.267 0 0 1 2.082 5.781Zm31.291-2.727c0-.6.144-1.17.399-1.671l-.33-.191-.327-.19a4.43 4.43 0 0 0-.5 2.052c0 .556.103 1.088.292 1.58.078.212.174.414.282.607a4.522 4.522 0 0 0 1.224 1.391l.192-.329.19-.331a3.707 3.707 0 0 1-1.422-2.918Zm0 0c0-.6.144-1.17.399-1.671l-.33-.191-.327-.19a4.43 4.43 0 0 0-.5 2.052c0 .556.103 1.088.292 1.58.078.212.174.414.282.607a4.522 4.522 0 0 0 1.224 1.391l.192-.329.19-.331a3.707 3.707 0 0 1-1.422-2.918Zm0 0c0-.6.144-1.17.399-1.671l-.33-.191-.327-.19a4.43 4.43 0 0 0-.5 2.052c0 .556.103 1.088.292 1.58.078.212.174.414.282.607a4.522 4.522 0 0 0 1.224 1.391l.192-.329.19-.331a3.707 3.707 0 0 1-1.422-2.918Zm0 0c0-.6.144-1.17.399-1.671l-.33-.191-.327-.19a4.43 4.43 0 0 0-.5 2.052c0 .556.103 1.088.292 1.58.078.212.174.414.282.607a4.522 4.522 0 0 0 1.224 1.391l.192-.329.19-.331a3.707 3.707 0 0 1-1.422-2.918Zm0 0c0-.6.144-1.17.399-1.671l-.33-.191-.327-.19a4.43 4.43 0 0 0-.5 2.052c0 .556.103 1.088.292 1.58.078.212.174.414.282.607a4.522 4.522 0 0 0 1.224 1.391l.192-.329.19-.331a3.707 3.707 0 0 1-1.422-2.918Zm3.71-4.468a4.46 4.46 0 0 0-3.614 1.847 4.43 4.43 0 0 0-.854 2.621c0 .556.103 1.088.292 1.58.078.212.174.414.282.607a4.522 4.522 0 0 0 1.79 1.75 4.434 4.434 0 0 0 2.341.523 4.474 4.474 0 0 0 4.232-4.46c0-2.383-2.004-4.468-4.468-4.468Zm.237 8.167c-.077.008-.157.01-.236.01-.148 0-.294-.01-.435-.027a3.649 3.649 0 0 1-1.291-.4 3.675 3.675 0 0 1-.56-.362h-.002a3.714 3.714 0 0 1-1.423-2.92 3.676 3.676 0 0 1 .755-2.24 3.704 3.704 0 0 1 2.956-1.471 3.716 3.716 0 0 1 3.71 3.71c0 2.046-1.538 3.58-3.474 3.7Zm-3.947-3.7c0-.6.144-1.169.399-1.67l-.33-.191-.327-.19a4.43 4.43 0 0 0-.5 2.052c0 .556.103 1.088.292 1.58.078.212.174.414.282.607a4.522 4.522 0 0 0 1.224 1.391l.192-.329.19-.331a3.707 3.707 0 0 1-1.422-2.918Zm0 0c0-.6.144-1.169.399-1.67l-.33-.191-.327-.19a4.43 4.43 0 0 0-.5 2.052c0 .556.103 1.088.292 1.58.078.212.174.414.282.607a4.522 4.522 0 0 0 1.224 1.391l.192-.329.19-.331a3.707 3.707 0 0 1-1.422-2.918Zm0 0c0-.6.144-1.169.399-1.67l-.33-.191-.327-.19a4.43 4.43 0 0 0-.5 2.052c0 .556.103 1.088.292 1.58.078.212.174.414.282.607a4.522 4.522 0 0 0 1.224 1.391l.192-.329.19-.331a3.707 3.707 0 0 1-1.422-2.918Zm0 0c0-.6.144-1.169.399-1.67l-.33-.191-.327-.19a4.43 4.43 0 0 0-.5 2.052c0 .556.103 1.088.292 1.58.078.212.174.414.282.607a4.522 4.522 0 0 0 1.224 1.391l.192-.329.19-.331a3.707 3.707 0 0 1-1.422-2.918ZM30.808 28.83a7.984 7.984 0 1 0-13.583-8.395 7.984 7.984 0 0 0 13.583 8.396Zm-20.097 4.34a5.511 5.511 0 0 0-5.405-3.641c-.015-.002-.028 0-.043.002-.027 0-.053 0-.08.004a3.013 3.013 0 0 0-.268.023 2.096 2.096 0 0 0-.216.028c-.051.008-.102.015-.151.024a3.943 3.943 0 0 0-.441.097 3.966 3.966 0 0 0-.279.081 5.218 5.218 0 0 0-.891.377l-.144.08a.827.827 0 0 0-.089.05 4.532 4.532 0 0 0-.564.384 4.893 4.893 0 0 0-.29.241c-.024.02-.047.042-.07.063a2.01 2.01 0 0 0-.117.111 3.897 3.897 0 0 0-.291.308 3.764 3.764 0 0 0-.229.278l-.098.131a5.344 5.344 0 0 0-.235.35l-.042.072c-.024.04-.049.082-.07.122l-.05.092c-.075.135-.14.273-.201.415l-.03.075a1.554 1.554 0 0 0-.062.159.055.055 0 0 0-.01.025.374.374 0 0 0-.023.064c-.021.053-.04.106-.055.161a4.448 4.448 0 0 0-.134.492 5.062 5.062 0 0 0-.098.598.765.765 0 0 0-.01.095c-.002.004-.002.007-.002.013-.006.06-.012.123-.014.186l-.001.053a5.518 5.518 0 1 0 10.704-1.612Zm-3.1 3.724a2.796 2.796 0 1 1-4.187-3.708 2.796 2.796 0 0 1 4.187 3.708Z"/><path fill="#000" d="M5.518 38.734a3.692 3.692 0 0 1 0-7.384v-1.827a5.52 5.52 0 0 0 0 11.037v-1.826Z" opacity=".5" style="mix-blend-mode:multiply"/><path fill="#000" d="M43.068 37.983a2.863 2.863 0 1 0-.918-5.653 2.863 2.863 0 0 0 .918 5.653Z"/><path fill="#000" d="M42.61 38.016a2.863 2.863 0 0 1 0-5.727v5.728-.002Z" opacity=".5" style="mix-blend-mode:multiply"/><mask id="a" width="8" height="8" x="2" y="10" maskUnits="userSpaceOnUse" style="mask-type:luminance"><path fill="#fff" d="M5.562 17.865c1.926 0 3.488-1.62 3.488-3.62s-1.562-3.62-3.488-3.62-3.488 1.62-3.488 3.62 1.562 3.62 3.488 3.62Z"/></mask><g fill="#1F375B" mask="url(#a)"><path d="M2.75 10.96h-.395v.417h.394v-.416Z" opacity=".74"/><path d="M4.692 11.016h-.27v.287h.27v-.287Z" opacity=".76"/><path d="M7.735 10.977h-.348v.369h.348v-.37Z" opacity=".78"/><path d="M8.59 11.14h-.047v.052h.047v-.051Z" opacity=".61"/><path d="M2.602 12.172H2.5v.108h.102v-.108Z" opacity=".94"/><path d="M3.661 12.117H3.45v.225h.212v-.225Z" opacity=".82"/><path d="M4.681 12.094h-.247v.263h.247v-.263Z" opacity=".93"/><path d="M5.678 12.102h-.24v.253h.24v-.253Z" opacity=".51"/><path d="M6.608 12.18h-.092v.098h.092v-.098Z" opacity=".66"/><path d="M7.63 12.156H7.5v.136h.13v-.136Z" opacity=".69"/><path d="M3.637 13.195h-.172v.182h.172v-.182Z" opacity=".82"/><path d="M4.634 13.21H4.48v.164h.154v-.163Z" opacity=".57"/><path d="M5.618 13.227h-.11v.117h.11v-.117Z" opacity=".81"/><path d="M6.673 13.172h-.216v.227h.216v-.227Z" opacity=".65"/><path d="M7.614 13.234H7.52v.099h.094v-.099Z" opacity=".61"/><path d="M8.638 13.21H8.5v.147h.138v-.146Z" opacity=".8"/><path d="M3.622 14.273H3.48v.15h.142v-.15Z" opacity=".76"/><path d="M4.614 14.29H4.5v.12h.114v-.12Z" opacity=".67"/><path d="M5.766 14.14H5.36v.432h.407v-.431Z" opacity=".88"/><path d="M8.728 14.18h-.322v.34h.322v-.34Z" opacity=".87"/><path d="M2.591 15.36h-.08v.083h.08v-.084Z" opacity=".61"/><path d="M3.667 15.297h-.222v.234h.222v-.234Z" opacity=".84"/><path d="M4.626 15.328H4.48v.155h.146v-.155Z" opacity=".69"/><path d="M5.638 15.32H5.48v.167h.158v-.167Z" opacity=".54"/><path d="M6.595 15.367h-.072v.078h.072v-.078Z" opacity=".64"/><path d="M7.678 15.29H7.45v.241h.23v-.242Z" opacity=".52"/><path d="M8.686 15.281h-.237v.25h.237v-.25Z" opacity=".57"/><path d="M3.599 16.422h-.095v.098h.095v-.098Z" opacity=".71"/><path d="M5.636 16.383h-.152v.16h.152v-.16Z" opacity=".85"/><path d="M7.7 16.328h-.266v.282H7.7v-.282Z" opacity=".91"/><path d="M8.699 16.336H8.44v.272h.26v-.272Z" opacity=".67"/><path d="M2.615 17.46h-.13v.14h.13v-.14Z" opacity=".59"/><path d="M3.575 17.508H3.53v.045h.044v-.045Z" opacity=".61"/><path d="M4.634 17.453H4.48v.163h.154v-.163Z" opacity=".55"/><path d="M5.654 17.43h-.19v.198h.19v-.198Zm.986.023h-.152v.16h.152v-.16Z" opacity=".59"/><path d="M7.592 17.508h-.049v.05h.05v-.05Z" opacity=".62"/><path d="M8.588 17.508h-.045v.049h.045v-.05Z" opacity=".78"/></g><mask id="b" width="8" height="8" x="39" y="10" maskUnits="userSpaceOnUse" style="mask-type:luminance"><path fill="#fff" d="M42.605 17.865c1.926 0 3.488-1.62 3.488-3.62s-1.562-3.62-3.488-3.62-3.488 1.62-3.488 3.62 1.562 3.62 3.488 3.62Z"/></mask><g fill="#1F375B" mask="url(#b)"><path d="M39.796 10.96h-.394v.417h.394v-.416Z" opacity=".74"/><path d="M41.74 11.016h-.271v.287h.27v-.287Z" opacity=".76"/><path d="M44.782 10.977h-.348v.369h.348v-.37Z" opacity=".78"/><path d="M45.641 11.14h-.047v.052h.047v-.051Z" opacity=".61"/><path d="M39.653 12.172h-.102v.108h.102v-.108Z" opacity=".94"/><path d="M40.708 12.117h-.212v.225h.212v-.225Z" opacity=".82"/><path d="M41.728 12.094h-.248v.263h.248v-.263Z" opacity=".93"/><path d="M42.725 12.102h-.24v.253h.24v-.253Z" opacity=".51"/><path d="M43.655 12.18h-.093v.098h.093v-.098Z" opacity=".66"/><path d="M44.678 12.156h-.131v.136h.13v-.136Z" opacity=".69"/><path d="M40.688 13.195h-.172v.182h.172v-.182Z" opacity=".82"/><path d="M41.68 13.21h-.153v.164h.154v-.163Z" opacity=".57"/><path d="M42.664 13.227h-.11v.117h.11v-.117Z" opacity=".81"/><path d="M43.72 13.172h-.216v.227h.216v-.227Z" opacity=".65"/><path d="M44.661 13.234h-.095v.099h.095v-.099Z" opacity=".61"/><path d="M45.685 13.21h-.138v.147h.138v-.146Z" opacity=".8"/><path d="M40.673 14.273h-.142v.15h.142v-.15Z" opacity=".76"/><path d="M41.664 14.29h-.113v.12h.113v-.12Z" opacity=".67"/><path d="M42.81 14.14h-.408v.432h.407v-.431Z" opacity=".88"/><path d="M45.775 14.18h-.322v.34h.322v-.34Z" opacity=".87"/><path d="M39.638 15.367h-.08v.083h.08v-.083Z" opacity=".61"/><path d="M40.714 15.297h-.222v.234h.222v-.234Z" opacity=".84"/><path d="M41.677 15.328h-.146v.155h.146v-.155Z" opacity=".69"/><path d="M42.684 15.328h-.157v.167h.157v-.167Z" opacity=".54"/><path d="M43.646 15.367h-.072v.078h.072v-.078Z" opacity=".64"/><path d="M44.729 15.29H44.5v.241h.229v-.242Z" opacity=".52"/><path d="M45.733 15.29h-.237v.249h.237v-.25Z" opacity=".57"/><path d="M40.645 16.422h-.094v.098h.094v-.098Z" opacity=".71"/><path d="M42.683 16.383h-.152v.16h.152v-.16Z" opacity=".85"/><path d="M44.747 16.328h-.267v.282h.267v-.282Z" opacity=".91"/><path d="M45.742 16.336h-.258v.272h.258v-.272Z" opacity=".67"/><path d="M39.662 17.46h-.13v.14h.13v-.14Z" opacity=".59"/><path d="M40.626 17.508h-.044v.045h.044v-.045Z" opacity=".61"/><path d="M41.68 17.453h-.153v.163h.154v-.163Z" opacity=".55"/><path d="M42.701 17.43h-.19v.198h.19v-.198Zm.982.023h-.152v.16h.152v-.16Z" opacity=".59"/><path d="M44.635 17.508h-.05v.05h.05v-.05Z" opacity=".62"/><path d="M45.64 17.508h-.046v.049h.045v-.05Z" opacity=".78"/></g><mask id="c" width="8" height="8" x="20" y="42" maskUnits="userSpaceOnUse" style="mask-type:luminance"><path fill="#fff" d="M23.566 49.951c1.926 0 3.488-1.62 3.488-3.62s-1.562-3.62-3.488-3.62-3.488 1.62-3.488 3.62 1.562 3.62 3.488 3.62Z"/></mask><g fill="#1F375B" mask="url(#c)"><path d="M20.75 43.031h-.395v.417h.394v-.417Z" opacity=".74"/><path d="M22.7 43.102h-.27v.287h.27v-.287Z" opacity=".76"/><path d="M25.743 43.055h-.348v.369h.348v-.37Z" opacity=".78"/><path d="M26.594 43.21h-.047v.052h.047v-.051Z" opacity=".61"/><path d="M20.606 44.242h-.102v.108h.102v-.108Z" opacity=".94"/><path d="M21.665 44.188h-.212v.225h.212v-.225Z" opacity=".82"/><path d="M22.685 44.18h-.247v.263h.247v-.263Z" opacity=".93"/><path d="M23.682 44.18h-.24v.253h.24v-.253Z" opacity=".51"/><path d="M24.612 44.258h-.092v.098h.092v-.098Z" opacity=".66"/><path d="M25.638 44.234h-.13v.137h.13v-.137Z" opacity=".69"/><path d="M21.645 45.273h-.172v.182h.172v-.182Z" opacity=".82"/><path d="M22.634 45.281h-.154v.163h.154v-.163Z" opacity=".57"/><path d="M23.618 45.305h-.11v.117h.11v-.117Z" opacity=".81"/><path d="M24.673 45.25h-.216v.227h.216v-.227Z" opacity=".65"/><path d="M25.618 45.313h-.095v.098h.095v-.099Z" opacity=".61"/><path d="M26.642 45.297h-.138v.146h.138v-.146Z" opacity=".8"/><path d="M21.63 46.352h-.142v.15h.142v-.15Z" opacity=".76"/><path d="M22.617 46.367h-.113v.121h.113v-.12Z" opacity=".67"/><path d="M23.766 46.21h-.407v.432h.407v-.431Z" opacity=".88"/><path d="M26.732 46.258h-.322v.34h.322v-.34Z" opacity=".87"/><path d="M20.595 47.453h-.08v.083h.08v-.083Z" opacity=".61"/><path d="M21.67 47.367h-.22v.235h.22v-.235Z" opacity=".84"/><path d="M22.634 47.406h-.146v.155h.146v-.155Z" opacity=".69"/><path d="M23.641 47.398h-.157v.167h.157v-.167Z" opacity=".54"/><path d="M24.603 47.453h-.072v.078h.072v-.078Z" opacity=".64"/><path d="M25.686 47.367h-.229v.242h.229v-.242Z" opacity=".52"/><path d="M26.694 47.36h-.237v.25h.237v-.25Z" opacity=".57"/><path d="M21.606 48.5h-.094v.098h.094V48.5Z" opacity=".71"/><path d="M23.64 48.469h-.152v.16h.152v-.16Z" opacity=".85"/><path d="M25.7 48.406h-.266v.282h.266v-.282Z" opacity=".91"/><path d="M26.703 48.414h-.258v.273h.258v-.273Z" opacity=".67"/><path d="M20.619 49.54h-.13v.137h.13v-.138Z" opacity=".59"/><path d="M21.579 49.586h-.044v.045h.044v-.045Z" opacity=".61"/><path d="M22.634 49.531h-.154v.163h.154v-.163Z" opacity=".55"/><path d="M23.662 49.508h-.19v.198h.19v-.198Zm.982.023h-.152v.16h.152v-.16Z" opacity=".59"/><path d="M25.596 49.586h-.05v.051h.05v-.051Z" opacity=".62"/><path d="M26.592 49.586h-.045v.05h.045v-.05Z" opacity=".78"/></g><path fill="#fff" d="M20.608 26.26H19.5v-3.13h1.118c.314 0 .585.062.812.188.227.124.401.303.524.537.123.233.184.512.184.837 0 .327-.061.607-.184.841a1.271 1.271 0 0 1-.527.54 1.669 1.669 0 0 1-.819.188Zm-.447-.567h.42c.195 0 .36-.035.493-.104a.668.668 0 0 0 .302-.326c.069-.148.103-.338.103-.572 0-.231-.034-.42-.103-.567a.663.663 0 0 0-.3-.324 1.06 1.06 0 0 0-.494-.104h-.42v1.997Zm2.829.567h-.708l1.08-3.131h.852l1.078 3.131h-.709l-.783-2.416h-.025l-.784 2.416Zm-.044-1.23h1.674v.516h-1.674v-.517Zm5.448-.335c0 .341-.064.631-.193.871s-.304.423-.526.549c-.22.125-.469.188-.745.188-.278 0-.527-.063-.748-.19a1.348 1.348 0 0 1-.524-.549c-.128-.239-.192-.529-.192-.87 0-.341.064-.631.192-.871.129-.24.303-.422.524-.547.22-.127.47-.19.748-.19.276 0 .524.063.745.19.222.125.397.307.526.547.129.24.193.53.193.872Zm-.67 0c0-.222-.033-.408-.1-.56a.758.758 0 0 0-.275-.346.742.742 0 0 0-.419-.117c-.16 0-.3.039-.418.117a.767.767 0 0 0-.278.346 1.419 1.419 0 0 0-.098.56c0 .22.033.407.098.56a.767.767 0 0 0 .278.345.744.744 0 0 0 .418.117c.16 0 .3-.039.419-.117a.758.758 0 0 0 .276-.346c.066-.152.1-.338.1-.56Z"/></svg>