<svg xmlns="http://www.w3.org/2000/svg" width="1080" height="1080" fill="none"><g clip-path="url(#a)"><path fill="#fff" stroke="#fff" stroke-miterlimit="10" d="M604.679 549.729c-2.16 5.03-25.04 13.3-63.57 16.51.23-5.74.34-11.24.34-16.3 0-5.06-.11-10.57-.34-16.31 38.51 3.18 61.37 11.36 63.56 15.9v.21l.01-.01Zm-128.508.2c0 5.07.11 10.56.34 16.31-38.48-3.19-61.34-11.35-63.55-15.9v-.22c2.17-5.02 25.04-13.3 63.56-16.51-.23 5.75-.34 11.25-.34 16.31l-.01.01Zm14.001 94.111c-18.56-3.63-35.56-12.63-49.11-26.3 0-.01 0-.01-.02-.01-13.64-13.52-22.66-30.53-26.28-49.13 15.6 7.16 39.77 10.99 62.67 12.74 1.75 22.92 5.58 47.12 12.75 62.71l-.01-.01Zm112.72-112.76c-15.61-7.16-39.78-10.99-62.68-12.74-1.74-22.88-5.57-47.05-12.72-62.64 18.54 3.62 35.53 12.63 49.06 26.3 0 0 .04.03.06.04 13.65 13.53 22.67 30.51 26.29 49.05l-.01-.01ZM490.14 455.899c-7.15 15.6-10.97 39.76-12.72 62.63-22.89 1.75-47.06 5.58-62.65 12.73 3.72-19 13.11-36.39 27.43-50.21 13.24-13.01 29.84-21.63 47.95-25.16l-.01.01ZM602.901 568.58c-3.53 18.13-12.17 34.75-25.22 48.06-13.8 14.29-31.2 23.67-50.22 27.39 7.17-15.61 11-39.79 12.75-62.71 22.91-1.75 47.09-5.58 62.69-12.74Zm-77.771 13.649c-3.2 38.62-11.42 61.54-15.95 63.6h-.12c-5.02-2.05-13.34-24.99-16.56-63.61 5.74.22 11.25.33 16.31.33 5.06 0 10.56-.11 16.31-.33l.01.01Zm1.382-32.299c0 6.06-.2 11.721-.43 17.271-5.55.23-11.21.419-17.27.419-6.06 0-11.73-.189-17.28-.419-.23-5.55-.43-11.211-.43-17.271 0-6.06.2-11.73.43-17.27 5.55-.23 11.21-.43 17.28-.43s11.72.2 17.27.43c.23 5.54.43 11.21.43 17.27Zm-1.392-32.3c-5.74-.22-11.25-.33-16.3-.33-5.05 0-10.57.11-16.32.33 3.18-38.4 11.32-61.24 15.87-63.51.09 0 .19-.02.27-.02 5.03 2.25 13.28 25.1 16.48 63.53Z"/><path fill="#1E1E1E" stroke="#fff" stroke-miterlimit="10" stroke-width="3" d="M392.471 244.68c-.98 0-1.78-.79-1.79-1.77-.01-1.24.03-2.5.13-3.74.08-.99.95-1.72 1.93-1.65a1.8 1.8 0 0 1 1.65 1.93c-.09 1.13-.13 2.28-.12 3.42.01.99-.78 1.8-1.77 1.81h-.03Zm232.659-17.019c-.68 0-1.33-.39-1.63-1.05a47.88 47.88 0 0 0-3.4-6.21c-.53-.83-.29-1.94.54-2.48.83-.54 1.94-.3 2.47.54 1.4 2.18 2.63 4.42 3.66 6.67.41.9 0 1.96-.89 2.37-.24.11-.49.16-.74.16h-.01Zm-229.12-.04c-.24 0-.48-.05-.71-.15a1.786 1.786 0 0 1-.93-2.36c.99-2.27 2.18-4.53 3.55-6.73.52-.84 1.63-1.1 2.47-.57.84.52 1.1 1.63.57 2.47a47.042 47.042 0 0 0-3.3 6.26c-.29.68-.95 1.08-1.65 1.08Zm216.74-17.18c-.45 0-.91-.17-1.26-.51a75.706 75.706 0 0 0-5.35-4.79c-.77-.63-.88-1.75-.26-2.52.63-.77 1.75-.88 2.52-.26a80.54 80.54 0 0 1 5.6 5.01c.71.69.71 1.83.02 2.54-.35.35-.81.53-1.28.53h.01Zm-204.57-.18c-.46 0-.92-.18-1.27-.52-.7-.7-.7-1.84 0-2.53 1.72-1.73 3.6-3.42 5.58-5.05.76-.63 1.89-.52 2.52.25.63.77.52 1.89-.24 2.52a73.27 73.27 0 0 0-5.32 4.82c-.35.35-.81.52-1.26.52l-.01-.01Zm187.65-12.71c-.31 0-.63-.08-.92-.26a114.54 114.54 0 0 0-6.32-3.53 1.79 1.79 0 0 1-.76-2.42c.46-.88 1.54-1.22 2.42-.77 1.62.84 3.22 1.72 4.78 2.62.58.34 1.16.68 1.73 1.02a1.792 1.792 0 0 1-.93 3.33v.01Zm-170.78-.25a1.795 1.795 0 0 1-.93-3.33c.6-.37 1.21-.72 1.83-1.08 1.51-.87 3.09-1.73 4.69-2.56a1.8 1.8 0 0 1 1.66 3.19c-1.55.8-3.08 1.64-4.55 2.49-.6.34-1.19.69-1.77 1.04-.29.18-.61.26-.92.26l-.01-.01Zm151.63-9.09c-.22 0-.44-.04-.65-.12-2.22-.87-4.52-1.71-6.83-2.48a1.798 1.798 0 0 1-1.13-2.27c.31-.94 1.33-1.44 2.27-1.13 2.36.8 4.72 1.65 6.99 2.54.92.36 1.37 1.4 1.02 2.32a1.79 1.79 0 0 1-1.67 1.14Zm-132.49-.24c-.72 0-1.39-.44-1.67-1.14-.36-.92.1-1.96 1.02-2.32 2.27-.89 4.63-1.74 7-2.53.94-.31 1.95.19 2.27 1.13.31.94-.19 1.95-1.13 2.27-2.32.77-4.62 1.6-6.83 2.47-.21.08-.44.12-.65.12h-.01Zm112.17-6.15c-.15 0-.29-.02-.43-.05-2.33-.57-4.72-1.1-7.11-1.58-.97-.2-1.6-1.14-1.41-2.11.2-.97 1.15-1.6 2.11-1.41 2.43.49 4.87 1.03 7.26 1.62.96.24 1.55 1.21 1.31 2.17-.2.82-.93 1.37-1.74 1.37l.01-.01Zm-91.83-.19c-.81 0-1.54-.55-1.74-1.37-.23-.96.36-1.93 1.32-2.16 2.37-.57 4.81-1.11 7.25-1.59.97-.2 1.91.44 2.11 1.41.19.97-.44 1.91-1.41 2.1-2.39.47-4.78 1-7.1 1.56-.14.03-.28.05-.42.05h-.01Zm70.86-3.66c-.07 0-.15 0-.23-.01-2.38-.3-4.82-.56-7.25-.78-.99-.09-1.71-.96-1.63-1.94.09-.99.96-1.71 1.94-1.63 2.47.22 4.95.49 7.38.79.98.12 1.68 1.02 1.55 2-.12.9-.89 1.57-1.78 1.57h.02Zm-49.89-.11a1.8 1.8 0 0 1-1.78-1.57c-.12-.98.58-1.88 1.56-2 2.44-.3 4.92-.55 7.38-.76.99-.08 1.86.65 1.94 1.64a1.8 1.8 0 0 1-1.64 1.94c-2.41.2-4.85.45-7.25.75-.07 0-.15.01-.22.01l.01-.01Zm28.62-1.43h-.04c-2.43-.05-4.86-.05-7.29-.01-.99-.02-1.8-.77-1.82-1.76-.02-.99.77-1.81 1.76-1.82 2.47-.04 4.94-.03 7.42.02.99.02 1.77.84 1.75 1.83-.02.98-.82 1.76-1.79 1.76l.01-.02Zm114.912 68.25c-.98 0-1.78-.79-1.79-1.77-.01-1.13-.08-2.29-.19-3.41-.1-.99.61-1.86 1.6-1.96.98-.1 1.86.62 1.96 1.61.13 1.24.2 2.49.21 3.73.01.99-.78 1.8-1.77 1.81h-.02v-.01Z"/><path fill="#1E1E1E" stroke="#fff" stroke-miterlimit="10" stroke-width="3" d="M511.49 312.912c-30.74 0-61.54-6.78-85.01-20.33-22.88-13.21-35.6-30.85-35.8-49.67 0-.99.78-1.8 1.77-1.81h.02c.98 0 1.78.79 1.79 1.77.19 17.5 12.27 34.05 34.01 46.61 22.98 13.26 53.14 19.9 83.22 19.9 29.84 0 59.61-6.53 82.26-19.6 21.79-12.58 33.68-29.22 33.49-46.87-.01-.99.78-1.8 1.77-1.81h.02c.98 0 1.78.79 1.79 1.77.2 19-12.32 36.76-35.28 50.01-23.13 13.36-53.56 20.03-84.05 20.03Zm-.325 50.048h-.43c-.99 0-1.78-.82-1.77-1.81.01-.99.82-1.81 1.81-1.77 1.14.01 2.28-.03 3.42-.12.99-.08 1.85.66 1.93 1.65.08.99-.66 1.85-1.65 1.93-1.1.09-2.21.13-3.31.13v-.01Z"/><path fill="#1E1E1E" stroke="#fff" stroke-miterlimit="10" stroke-width="3" d="M527.812 359.41c-.69 0-1.35-.4-1.65-1.08-.39-.91.02-1.96.93-2.36 2.11-.91 4.22-2.03 6.26-3.3.84-.52 1.95-.27 2.47.57.52.84.27 1.95-.57 2.47a50.549 50.549 0 0 1-6.73 3.55c-.23.1-.47.15-.71.15Zm17.35-12.16c-.46 0-.92-.18-1.26-.53-.7-.7-.7-1.83 0-2.53 1.64-1.65 3.26-3.44 4.82-5.32a1.79 1.79 0 0 1 2.76 2.28 80.35 80.35 0 0 1-5.05 5.57c-.35.35-.81.53-1.27.53Zm12.96-16.87c-.32 0-.64-.08-.93-.26a1.792 1.792 0 0 1-.61-2.46c.35-.58.7-1.17 1.05-1.77.85-1.47 1.68-3 2.49-4.55a1.79 1.79 0 0 1 2.42-.76c.88.45 1.22 1.54.76 2.42-.83 1.59-1.69 3.17-2.57 4.69-.35.62-.71 1.23-1.07 1.83-.34.56-.93.86-1.54.86Zm9.33-19.14c-.22 0-.44-.04-.65-.12-.92-.36-1.38-1.4-1.02-2.32.86-2.22 1.69-4.52 2.47-6.83a1.794 1.794 0 0 1 3.4 1.14c-.79 2.37-1.64 4.73-2.53 7a1.79 1.79 0 0 1-1.67 1.14v-.01Zm6.34-20.35a1.792 1.792 0 0 1-1.74-2.21c.56-2.33 1.08-4.72 1.56-7.1a1.79 1.79 0 0 1 2.11-1.41c.97.19 1.6 1.13 1.41 2.11-.48 2.43-1.01 4.88-1.59 7.25-.2.82-.93 1.37-1.74 1.37l-.01-.01Zm3.78-20.97c-.07 0-.15 0-.22-.01a1.792 1.792 0 0 1-1.56-2c.29-2.39.54-4.83.75-7.25.08-.98.95-1.71 1.94-1.63.99.08 1.72.95 1.63 1.94-.21 2.46-.46 4.94-.76 7.38-.11.91-.88 1.57-1.78 1.57Zm1.44-21.26h-.03c-.99-.01-1.78-.83-1.77-1.82a184.992 184.992 0 0 0-.01-7.29c-.02-.99.76-1.81 1.75-1.83h.04c.97 0 1.77.78 1.79 1.75.03 1.39.04 2.77.04 4.15 0 1.09 0 2.18-.03 3.26a1.79 1.79 0 0 1-1.79 1.77l.01.01Zm-.77-21.3c-.92 0-1.7-.7-1.78-1.63-.21-2.43-.48-4.87-.77-7.25a1.79 1.79 0 0 1 3.55-.45c.31 2.43.57 4.91.79 7.38.09.99-.64 1.86-1.62 1.94h-.16l-.01.01Zm-3.04-21.11c-.83 0-1.59-.59-1.75-1.44-.48-2.38-1.02-4.78-1.58-7.11-.24-.96.35-1.93 1.31-2.16.97-.23 1.93.35 2.17 1.32.58 2.38 1.13 4.82 1.62 7.25.19.97-.44 1.92-1.41 2.11-.12.02-.24.03-.35.03h-.01Zm-5.47-20.6c-.75 0-1.45-.47-1.7-1.22-.78-2.31-1.62-4.6-2.49-6.83a1.794 1.794 0 0 1 3.34-1.31c.89 2.28 1.75 4.63 2.54 6.99a1.79 1.79 0 0 1-1.7 2.36l.01.01Zm-8.27-19.63c-.65 0-1.27-.35-1.59-.97-.82-1.57-1.67-3.13-2.54-4.64-.33-.57-.66-1.13-.99-1.68a1.8 1.8 0 0 1 .61-2.46 1.79 1.79 0 0 1 2.46.61c.34.57.69 1.15 1.02 1.74.9 1.55 1.78 3.16 2.62 4.78.45.88.11 1.96-.77 2.42-.26.14-.55.2-.82.2Zm-11.58-17.87c-.52 0-1.03-.22-1.39-.66-1.55-1.9-3.16-3.7-4.79-5.35-.69-.7-.69-1.84.02-2.53.7-.69 1.84-.69 2.53.02a80.54 80.54 0 0 1 5.01 5.6c.63.77.51 1.9-.25 2.52-.33.27-.73.4-1.13.4Zm-15.67-14.32c-.33 0-.67-.09-.97-.29a48.544 48.544 0 0 0-6.21-3.4 1.79 1.79 0 1 1 1.48-3.26 51.9 51.9 0 0 1 6.67 3.65c.83.54 1.07 1.65.54 2.48-.34.53-.92.82-1.51.82Zm-19.889-7.23c-.06 0-.12 0-.18-.01-1.13-.11-2.28-.18-3.42-.19a1.79 1.79 0 0 1 .02-3.58h.02c1.24.01 2.5.08 3.74.21a1.788 1.788 0 0 1-.18 3.57Z"/><path fill="#1E1E1E" stroke="#fff" stroke-miterlimit="10" stroke-width="3" d="M510.753 362.961h-.02c-18.82-.2-36.46-12.92-49.67-35.8-27-46.76-27.13-122.6-.3-169.07 13.14-22.77 30.73-35.28 49.55-35.28h.46a1.79 1.79 0 0 1-.02 3.58h-.02c-17.64-.18-34.29 11.7-46.87 33.48-26.26 45.48-26.12 119.71.3 165.48 12.55 21.74 29.1 33.82 46.6 34.01.99.01 1.78.82 1.77 1.81 0 .98-.81 1.77-1.79 1.77l.01.02Z"/><path fill="#1E1E1E" stroke="#fff" stroke-miterlimit="10" stroke-width="3" d="M510.75 362.961c-66.21 0-120.07-53.87-120.07-120.08 0-66.21 53.87-120.07 120.07-120.07 66.2 0 120.07 53.87 120.07 120.07 0 66.2-53.87 120.08-120.07 120.08Zm0-236.56c-64.23 0-116.49 52.26-116.49 116.49 0 64.23 52.26 116.49 116.49 116.49 64.23 0 116.49-52.26 116.49-116.49 0-64.23-52.26-116.49-116.49-116.49Z"/><path stroke="#fff" d="M714.015 244.096 534.238 346.678 345.649 242.499l187.136-99.738 181.23 101.335Z"/><mask id="b" width="236" height="142" x="392" y="174" maskUnits="userSpaceOnUse" style="mask-type:luminance"><path fill="#fff" stroke="#fff" d="M509.891 174.83c32.277 0 61.475 7.861 82.587 20.545 21.121 12.69 34.073 30.152 34.073 49.345 0 19.193-12.952 36.655-34.073 49.344-21.112 12.684-50.31 20.546-82.587 20.546-32.278 0-61.476-7.862-82.587-20.546-21.122-12.689-34.074-30.151-34.074-49.344.001-19.193 12.952-36.655 34.074-49.345 21.111-12.684 50.309-20.545 82.587-20.545Z"/></mask><g mask="url(#b)"><path fill="#1F375B" stroke="#fff" d="M406.713 174.039v.58h-.49v-.58h.49Z" opacity=".54"/><g opacity=".65"><mask id="c" fill="#fff"><path d="M419.354 174.059h-.51v.54h.51v-.54Z"/></mask><path fill="#1F375B" d="M419.354 174.059h-.51v.54h.51v-.54Z"/><path fill="#fff" d="M418.844 174.059v-1h-1v1h1Zm.51 0h1v-1h-1v1Zm0 .54v1h1v-1h-1Zm-.51 0h-1v1h1v-1Zm0-.54v1h.51v-2h-.51v1Zm.51 0h-1v.54h2v-.54h-1Zm0 .54v-1h-.51v2h.51v-1Zm-.51 0h1v-.54h-2v.54h1Z" mask="url(#c)"/></g><g opacity=".71"><mask id="d" fill="#fff"><path d="M432.181 173.85h-.9v.95h.9v-.95Z"/></mask><path fill="#1F375B" d="M432.181 173.85h-.9v.95h.9v-.95Z"/><path fill="#fff" d="M431.281 173.85v-1h-1v1h1Zm.9 0h1v-1h-1v1Zm0 .95v1h1v-1h-1Zm-.9 0h-1v1h1v-1Zm0-.95v1h.9v-2h-.9v1Zm.9 0h-1v.95h2v-.95h-1Zm0 .95v-1h-.9v2h.9v-1Zm-.9 0h1v-.95h-2v.95h1Z" mask="url(#d)"/></g><path fill="#1F375B" stroke="#fff" d="M458.92 172.26v4.13h-3.85v-4.13h3.85Z" opacity=".66"/><path fill="#1F375B" stroke="#fff" d="M471.123 172.719v3.219h-2.99v-3.219h2.99Z" opacity=".62"/><path fill="#1F375B" stroke="#fff" d="M482.723 173.809v1.04h-.93v-1.04h.93Z" opacity=".67"/><g opacity=".51"><mask id="e" fill="#fff"><path d="M495.344 173.85h-.91v.97h.91v-.97Z"/></mask><path fill="#1F375B" d="M495.344 173.85h-.91v.97h.91v-.97Z"/><path fill="#fff" d="M494.434 173.85v-1h-1v1h1Zm.91 0h1v-1h-1v1Zm0 .97v1h1v-1h-1Zm-.91 0h-1v1h1v-1Zm0-.97v1h.91v-2h-.91v1Zm.91 0h-1v.97h2v-.97h-1Zm0 .97v-1h-.91v2h.91v-1Zm-.91 0h1v-.97h-2v.97h1Z" mask="url(#e)"/></g><path fill="#1F375B" stroke="#fff" d="M509.391 172.33v4h-3.731v-4h3.731Z" opacity=".81"/><g opacity=".82"><mask id="f" fill="#fff"><path d="M520.581 173.879h-.851v.9h.851v-.9Z"/></mask><path fill="#1F375B" d="M520.581 173.879h-.851v.9h.851v-.9Z"/><path fill="#fff" d="M519.73 173.879v-1h-1v1h1Zm.851 0h1v-1h-1v1Zm0 .9v1h1v-1h-1Zm-.851 0h-1v1h1v-1Zm0-.9v1h.851v-2h-.851v1Zm.851 0h-1v.9h2v-.9h-1Zm0 .9v-1h-.851v2h.851v-1Zm-.851 0h1v-.9h-2v.9h1Z" mask="url(#f)"/></g><path fill="#1F375B" stroke="#fff" d="M534.433 172.549v3.55h-3.3v-3.55h3.3Z" opacity=".59"/><path fill="#1F375B" stroke="#fff" d="M545.431 174.279v.1h-.04v-.1h.04Z" opacity=".68"/><path fill="#1F375B" stroke="#fff" d="M558.754 173.549v1.55h-1.41v-1.55h1.41Z" opacity=".78"/><path fill="#1F375B" stroke="#fff" d="M571.231 173.709v1.23h-1.11v-1.23h1.11Z" opacity=".65"/><path fill="#1F375B" stroke="#fff" d="M583.991 173.568v1.51h-1.37v-1.51h1.37Z" opacity=".52"/><path fill="#1F375B" stroke="#fff" d="M597.354 172.799v3.05h-2.831v-3.05h2.831Z" opacity=".53"/><g opacity=".92"><mask id="g" fill="#fff"><path d="M608.843 174.039h-.55v.58h.55v-.58Z"/></mask><path fill="#1F375B" d="M608.843 174.039h-.55v.58h.55v-.58Z"/><path fill="#fff" d="M608.293 174.039v-1h-1v1h1Zm.55 0h1v-1h-1v1Zm0 .58v1h1v-1h-1Zm-.55 0h-1v1h1v-1Zm0-.58v1h.55v-2h-.55v1Zm.55 0h-1v.58h2v-.58h-1Zm0 .58v-1h-.55v2h.55v-1Zm-.55 0h1v-.58h-2v.58h1Z" mask="url(#g)"/></g><g opacity=".92"><mask id="h" fill="#fff"><path d="M621.472 174.039h-.55v.58h.55v-.58Z"/></mask><path fill="#1F375B" d="M621.472 174.039h-.55v.58h.55v-.58Z"/><path fill="#fff" d="M620.922 174.039v-1h-1v1h1Zm.55 0h1v-1h-1v1Zm0 .58v1h1v-1h-1Zm-.55 0h-1v1h1v-1Zm0-.58v1h.55v-2h-.55v1Zm.55 0h-1v.58h2v-.58h-1Zm0 .58v-1h-.55v2h.55v-1Zm-.55 0h1v-.58h-2v.58h1Z" mask="url(#h)"/></g><path fill="#1F375B" stroke="#fff" d="M407.612 186.459v2.47h-2.28v-2.47h2.28Z" opacity=".93"/><path fill="#1F375B" stroke="#fff" d="M420.033 186.689v2.01h-1.849v-2.01h1.849Z" opacity=".94"/><path fill="#1F375B" stroke="#fff" d="M433.07 186.238v2.901h-2.679v-2.901h2.679Z" opacity=".8"/><path fill="#1F375B" stroke="#fff" d="M445.673 186.279v2.821h-2.611v-2.821h2.611Z" opacity=".65"/><path fill="#1F375B" stroke="#fff" d="M458.32 186.26v2.87h-2.66v-2.87h2.66Z" opacity=".72"/><path fill="#1F375B" stroke="#fff" d="M482.69 187.199v.981h-.87v-.981h.87Z" opacity=".83"/><path fill="#1F375B" stroke="#fff" d="M496.282 186.189v3.01h-2.79v-3.01h2.79Z" opacity=".59"/><path fill="#1F375B" stroke="#fff" d="M507.673 187.5v.39h-.31v-.39h.31Z" opacity=".75"/><g opacity=".93"><mask id="i" fill="#fff"><path d="M520.581 187.238h-.851v.9h.851v-.9Z"/></mask><path fill="#1F375B" d="M520.581 187.238h-.851v.9h.851v-.9Z"/><path fill="#fff" d="M519.73 187.238v-1h-1v1h1Zm.851 0h1v-1h-1v1Zm0 .9v1h1v-1h-1Zm-.851 0h-1v1h1v-1Zm0-.9v1h.851v-2h-.851v1Zm.851 0h-1v.9h2v-.9h-1Zm0 .9v-1h-.851v2h.851v-1Zm-.851 0h1v-.9h-2v.9h1Z" mask="url(#i)"/></g><path fill="#1F375B" stroke="#fff" d="M533.922 186.459v2.46h-2.27v-2.46h2.27Zm11.98.68v1.099h-.98v-1.099h.98Z" opacity=".85"/><path fill="#1F375B" stroke="#fff" d="M570.731 187.6v.179h-.11v-.179h.11Z" opacity=".78"/><path fill="#1F375B" stroke="#fff" d="M584.073 186.85v1.679h-1.53v-1.679h1.53Z" opacity=".86"/><path fill="#1F375B" stroke="#fff" d="M597.943 185.539v4.3h-4.009v-4.3h4.009Z" opacity=".74"/><path fill="#1F375B" stroke="#fff" d="M621.562 187.27v.83h-.73v-.83h.73Z" opacity=".84"/><path fill="#1F375B" stroke="#fff" d="M395.391 199.389v3.32h-3.09v-3.32h3.09Z" opacity=".5"/><path fill="#1F375B" stroke="#fff" d="M407.344 200.1v1.91h-1.75v-1.91h1.75Z" opacity=".9"/><path fill="#1F375B" stroke="#fff" d="M419.762 200.33v1.45h-1.321v-1.45h1.321Zm24.962.328v.79h-.701v-.79h.701Z" opacity=".74"/><g opacity=".69"><mask id="j" fill="#fff"><path d="M457.154 200.889h-.31v.33h.31v-.33Z"/></mask><path fill="#1F375B" d="M457.154 200.889h-.31v.33h.31v-.33Z"/><path fill="#fff" d="M456.844 200.889v-1h-1v1h1Zm.31 0h1v-1h-1v1Zm0 .33v1h1v-1h-1Zm-.31 0h-1v1h1v-1Zm0-.33v1h.31v-2h-.31v1Zm.31 0h-1v.33h2v-.33h-1Zm0 .33v-1h-.31v2h.31v-1Zm-.31 0h1v-.33h-2v.33h1Z" mask="url(#j)"/></g><g opacity=".67"><mask id="k" fill="#fff"><path d="M470.041 200.619h-.83v.88h.83v-.88Z"/></mask><path fill="#1F375B" d="M470.041 200.619h-.83v.88h.83v-.88Z"/><path fill="#fff" d="M469.211 200.619v-1h-1v1h1Zm.83 0h1v-1h-1v1Zm0 .88v1h1v-1h-1Zm-.83 0h-1v1h1v-1Zm0-.88v1h.83v-2h-.83v1Zm.83 0h-1v.88h2v-.88h-1Zm0 .88v-1h-.83v2h.83v-1Zm-.83 0h1v-.88h-2v.88h1Z" mask="url(#k)"/></g><path fill="#1F375B" stroke="#fff" d="M495.54 200.34v1.44h-1.31v-1.44h1.31Z" opacity=".76"/><path fill="#1F375B" stroke="#fff" d="M508.464 200.039v2.03h-1.87v-2.03h1.87Z" opacity=".8"/><path fill="#1F375B" stroke="#fff" d="M533.224 200.559v.99h-.88v-.99h.88Z" opacity=".86"/><path fill="#1F375B" stroke="#fff" d="M545.494 200.949v.22h-.15v-.22h.15Z" opacity=".94"/><path fill="#1F375B" stroke="#fff" d="M559.094 199.92v2.269h-2.09v-2.269h2.09Z" opacity=".74"/><path fill="#1F375B" stroke="#fff" d="M585.491 198.719v4.679h-4.37v-4.679h4.37Z" opacity=".64"/><path fill="#1F375B" stroke="#fff" d="M597.243 199.648v2.821h-2.61v-2.821h2.61Z" opacity=".67"/><g opacity=".57"><mask id="l" fill="#fff"><path d="M608.742 200.869h-.34v.36h.34v-.36Z"/></mask><path fill="#1F375B" d="M608.742 200.869h-.34v.36h.34v-.36Z"/><path fill="#fff" d="M608.402 200.869v-1h-1v1h1Zm.34 0h1v-1h-1v1Zm0 .36v1h1v-1h-1Zm-.34 0h-1v1h1v-1Zm0-.36v1h.34v-2h-.34v1Zm.34 0h-1v.36h2v-.36h-1Zm0 .36v-1h-.34v2h.34v-1Zm-.34 0h1v-.36h-2v.36h1Z" mask="url(#l)"/></g><g opacity=".87"><mask id="m" fill="#fff"><path d="M621.371 200.879h-.34v.36h.34v-.36Z"/></mask><path fill="#1F375B" d="M621.371 200.879h-.34v.36h.34v-.36Z"/><path fill="#fff" d="M621.031 200.879v-1h-1v1h1Zm.34 0h1v-1h-1v1Zm0 .36v1h1v-1h-1Zm-.34 0h-1v1h1v-1Zm0-.36v1h.34v-2h-.34v1Zm.34 0h-1v.36h2v-.36h-1Zm0 .36v-1h-.34v2h.34v-1Zm-.34 0h1v-.36h-2v.36h1Z" mask="url(#m)"/></g><g opacity=".77"><mask id="n" fill="#fff"><path d="M394.233 214.01h-.78v.83h.78v-.83Z"/></mask><path fill="#1F375B" d="M394.233 214.01h-.78v.83h.78v-.83Z"/><path fill="#fff" d="M393.453 214.01v-1h-1v1h1Zm.78 0h1v-1h-1v1Zm0 .83v1h1v-1h-1Zm-.78 0h-1v1h1v-1Zm0-.83v1h.78v-2h-.78v1Zm.78 0h-1v.83h2v-.83h-1Zm0 .83v-1h-.78v2h.78v-1Zm-.78 0h1v-.83h-2v.83h1Z" mask="url(#n)"/></g><path fill="#1F375B" stroke="#fff" d="M406.622 214.238v.361h-.29v-.361h.29Z" opacity=".61"/><path fill="#1F375B" stroke="#fff" d="M419.874 213.58v1.68h-1.53v-1.68h1.53Z" opacity=".78"/><path fill="#1F375B" stroke="#fff" d="M431.783 214.34v.16h-.099v-.16h.099Z" opacity=".51"/><path fill="#1F375B" stroke="#fff" d="M446.222 212.43v3.99h-3.71v-3.99h3.71Z" opacity=".59"/><g opacity=".58"><mask id="o" fill="#fff"><path d="M457.191 214.209h-.39v.41h.39v-.41Z"/></mask><path fill="#1F375B" d="M457.191 214.209h-.39v.41h.39v-.41Z"/><path fill="#fff" d="M456.801 214.209v-1h-1v1h1Zm.39 0h1v-1h-1v1Zm0 .41v1h1v-1h-1Zm-.39 0h-1v1h1v-1Zm0-.41v1h.39v-2h-.39v1Zm.39 0h-1v.41h2v-.41h-1Zm0 .41v-1h-.39v2h.39v-1Zm-.39 0h1v-.41h-2v.41h1Z" mask="url(#o)"/></g><path fill="#1F375B" stroke="#fff" d="M483.174 213.42v2h-1.83v-2h1.83Z" opacity=".75"/><path fill="#1F375B" stroke="#fff" d="M495.79 213.43v1.969h-1.81v-1.969h1.81Z" opacity=".82"/><path fill="#1F375B" stroke="#fff" d="M508.042 213.83V215h-1.05v-1.17h1.05Z" opacity=".5"/><path fill="#1F375B" stroke="#fff" d="M520.57 213.949v.941h-.84v-.941h.84Z" opacity=".67"/><path fill="#1F375B" stroke="#fff" d="M533.271 213.879v1.08h-.97v-1.08h.97Z" opacity=".53"/><path fill="#1F375B" stroke="#fff" d="M546.201 213.549v1.73h-1.58v-1.73h1.58Z" opacity=".63"/><g opacity=".56"><mask id="p" fill="#fff"><path d="M558.432 214.01h-.78v.82h.78v-.82Z"/></mask><path fill="#1F375B" d="M558.432 214.01h-.78v.82h.78v-.82Z"/><path fill="#fff" d="M557.652 214.01v-1h-1v1h1Zm.78 0h1v-1h-1v1Zm0 .82v1h1v-1h-1Zm-.78 0h-1v1h1v-1Zm0-.82v1h.78v-2h-.78v1Zm.78 0h-1v.82h2v-.82h-1Zm0 .82v-1h-.78v2h.78v-1Zm-.78 0h1v-.82h-2v.82h1Z" mask="url(#p)"/></g><path fill="#1F375B" stroke="#fff" d="M572.782 212.148v4.531h-4.22v-4.531h4.22Z" opacity=".88"/><path fill="#1F375B" stroke="#fff" d="M583.852 213.809v1.21h-1.09v-1.21h1.09Z" opacity=".59"/><path fill="#1F375B" stroke="#fff" d="M621.621 213.939v.951h-.84v-.951h.84Z" opacity=".8"/><g opacity=".74"><mask id="q" fill="#fff"><path d="M394.143 227.459h-.6v.64h.6v-.64Z"/></mask><path fill="#1F375B" d="M394.143 227.459h-.6v.64h.6v-.64Z"/><path fill="#fff" d="M393.543 227.459v-1h-1v1h1Zm.6 0h1v-1h-1v1Zm0 .64v1h1v-1h-1Zm-.6 0h-1v1h1v-1Zm0-.64v1h.6v-2h-.6v1Zm.6 0h-1v.64h2v-.64h-1Zm0 .64v-1h-.6v2h.6v-1Zm-.6 0h1v-.64h-2v.64h1Z" mask="url(#q)"/></g><path fill="#1F375B" stroke="#fff" d="M406.521 227.699v.17h-.099v-.17h.099Z" opacity=".6"/><path fill="#1F375B" stroke="#fff" d="M419.29 227.549v.46h-.38v-.46h.38Z" opacity=".86"/><g opacity=".93"><mask id="r" fill="#fff"><path d="M432.003 227.5h-.53v.56h.53v-.56Z"/></mask><path fill="#1F375B" d="M432.003 227.5h-.53v.56h.53v-.56Z"/><path fill="#fff" d="M431.473 227.5v-1h-1v1h1Zm.53 0h1v-1h-1v1Zm0 .56v1h1v-1h-1Zm-.53 0h-1v1h1v-1Zm0-.56v1h.53v-2h-.53v1Zm.53 0h-1v.56h2v-.56h-1Zm0 .56v-1h-.53v2h.53v-1Zm-.53 0h1v-.56h-2v.56h1Z" mask="url(#r)"/></g><path fill="#1F375B" stroke="#fff" d="M445.232 226.83v1.9h-1.74v-1.9h1.74Z" opacity=".62"/><path fill="#1F375B" stroke="#fff" d="M457.402 227.318v.93h-.82v-.93h.82Z" opacity=".55"/><path fill="#1F375B" stroke="#fff" d="M469.644 227.738v.09h-.031v-.09h.031Z" opacity=".89"/><path fill="#1F375B" stroke="#fff" d="M482.463 227.539v.481h-.401v-.481h.401Zm12.838-.221v.93h-.821v-.93h.821Z" opacity=".66"/><g opacity=".9"><mask id="s" fill="#fff"><path d="M507.683 227.609h-.32v.34h.32v-.34Z"/></mask><path fill="#1F375B" d="M507.683 227.609h-.32v.34h.32v-.34Z"/><path fill="#fff" d="M507.363 227.609v-1h-1v1h1Zm.32 0h1v-1h-1v1Zm0 .34v1h1v-1h-1Zm-.32 0h-1v1h1v-1Zm0-.34v1h.32v-2h-.32v1Zm.32 0h-1v.34h2v-.34h-1Zm0 .34v-1h-.32v2h.32v-1Zm-.32 0h1v-.34h-2v.34h1Z" mask="url(#s)"/></g><path fill="#1F375B" stroke="#fff" d="M521.101 226.75v2.06h-1.89v-2.06h1.89Z" opacity=".79"/><path fill="#1F375B" stroke="#fff" d="M533.353 227.158v1.25h-1.13v-1.25h1.13Z" opacity=".69"/><g opacity=".79"><mask id="t" fill="#fff"><path d="M545.861 227.309h-.9v.95h.9v-.95Z"/></mask><path fill="#1F375B" d="M545.861 227.309h-.9v.95h.9v-.95Z"/><path fill="#fff" d="M544.961 227.309v-1h-1v1h1Zm.9 0h1v-1h-1v1Zm0 .95v1h1v-1h-1Zm-.9 0h-1v1h1v-1Zm0-.95v1h.9v-2h-.9v1Zm.9 0h-1v.95h2v-.95h-1Zm0 .95v-1h-.9v2h.9v-1Zm-.9 0h1v-.95h-2v.95h1Z" mask="url(#t)"/></g><g opacity=".59"><mask id="u" fill="#fff"><path d="M558.453 227.35h-.82v.87h.82v-.87Z"/></mask><path fill="#1F375B" d="M558.453 227.35h-.82v.87h.82v-.87Z"/><path fill="#fff" d="M557.633 227.35v-1h-1v1h1Zm.82 0h1v-1h-1v1Zm0 .87v1h1v-1h-1Zm-.82 0h-1v1h1v-1Zm0-.87v1h.82v-2h-.82v1Zm.82 0h-1v.87h2v-.87h-1Zm0 .87v-1h-.82v2h.82v-1Zm-.82 0h1v-.87h-2v.87h1Z" mask="url(#u)"/></g><path fill="#1F375B" stroke="#fff" d="M584.114 226.898v1.76h-1.61v-1.76h1.61Z" opacity=".74"/><path fill="#1F375B" stroke="#fff" d="M596.604 227.049v1.47h-1.331v-1.47h1.331Z" opacity=".85"/><path fill="#1F375B" stroke="#fff" d="M621.433 227.51v.54h-.46v-.54h.46Z" opacity=".71"/><g opacity=".7"><mask id="v" fill="#fff"><path d="M394.332 240.619h-.98v1.04h.98v-1.04Z"/></mask><path fill="#1F375B" d="M394.332 240.619h-.98v1.04h.98v-1.04Z"/><path fill="#fff" d="M393.352 240.619v-1h-1v1h1Zm.98 0h1v-1h-1v1Zm0 1.04v1h1v-1h-1Zm-.98 0h-1v1h1v-1Zm0-1.04v1h.98v-2h-.98v1Zm.98 0h-1v1.04h2v-1.04h-1Zm0 1.04v-1h-.98v2h.98v-1Zm-.98 0h1v-1.04h-2v1.04h1Z" mask="url(#v)"/></g><path fill="#1F375B" stroke="#fff" d="M406.844 240.719v.849h-.75v-.849h.75Z" opacity=".58"/><g opacity=".5"><mask id="w" fill="#fff"><path d="M419.583 240.639h-.95v1h.95v-1Z"/></mask><path fill="#1F375B" d="M419.583 240.639h-.95v1h.95v-1Z"/><path fill="#fff" d="M418.633 240.639v-1h-1v1h1Zm.95 0h1v-1h-1v1Zm0 1v1h1v-1h-1Zm-.95 0h-1v1h1v-1Zm0-1v1h.95v-2h-.95v1Zm.95 0h-1v1h2v-1h-1Zm0 1v-1h-.95v2h.95v-1Zm-.95 0h1v-1h-2v1h1Z" mask="url(#w)"/></g><g opacity=".75"><mask id="x" fill="#fff"><path d="M432.222 240.619h-.98v1.04h.98v-1.04Z"/></mask><path fill="#1F375B" d="M432.222 240.619h-.98v1.04h.98v-1.04Z"/><path fill="#fff" d="M431.242 240.619v-1h-1v1h1Zm.98 0h1v-1h-1v1Zm0 1.04v1h1v-1h-1Zm-.98 0h-1v1h1v-1Zm0-1.04v1h.98v-2h-.98v1Zm.98 0h-1v1.04h2v-1.04h-1Zm0 1.04v-1h-.98v2h.98v-1Zm-.98 0h1v-1.04h-2v1.04h1Z" mask="url(#x)"/></g><path fill="#1F375B" stroke="#fff" d="M444.49 240.979v.33h-.26v-.33h.26Z" opacity=".54"/><path fill="#1F375B" stroke="#fff" d="M457.591 240.479v1.33h-1.2v-1.33h1.2Z" opacity=".72"/><path fill="#1F375B" stroke="#fff" d="M469.881 240.84v.599h-.51v-.599h.51Z" opacity=".69"/><path fill="#1F375B" stroke="#fff" d="M482.69 240.658v.97h-.87v-.97h.87Z" opacity=".51"/><path fill="#1F375B" stroke="#fff" d="M497.241 238.619v5.04h-4.71v-5.04h4.71Z" opacity=".5"/><path fill="#1F375B" stroke="#fff" d="M507.693 240.93v.429h-.349v-.429h.349Z" opacity=".63"/><path fill="#1F375B" stroke="#fff" d="M521.142 240.068v2.14h-1.97v-2.14h1.97Z" opacity=".59"/><path fill="#1F375B" stroke="#fff" d="M533.181 240.68v.92h-.81v-.92h.81Z" opacity=".61"/><g opacity=".52"><mask id="y" fill="#fff"><path d="M545.693 240.85h-.56v.59h.56v-.59Z"/></mask><path fill="#1F375B" d="M545.693 240.85h-.56v.59h.56v-.59Z"/><path fill="#fff" d="M545.133 240.85v-1h-1v1h1Zm.56 0h1v-1h-1v1Zm0 .59v1h1v-1h-1Zm-.56 0h-1v1h1v-1Zm0-.59v1h.56v-2h-.56v1Zm.56 0h-1v.59h2v-.59h-1Zm0 .59v-1h-.56v2h.56v-1Zm-.56 0h1v-.59h-2v.59h1Z" mask="url(#y)"/></g><path fill="#1F375B" stroke="#fff" d="M558.762 240.359v1.571h-1.43v-1.571h1.43Z" opacity=".86"/><path fill="#1F375B" stroke="#fff" d="M572.432 239.26v3.769h-3.51v-3.769h3.51Z" opacity=".94"/><path fill="#1F375B" stroke="#fff" d="M583.803 240.59v1.11h-.991v-1.11h.991Z" opacity=".51"/><path fill="#1F375B" stroke="#fff" d="M596.514 240.51v1.28h-1.151v-1.28h1.151Z" opacity=".55"/><path fill="#1F375B" stroke="#fff" d="M609.261 240.379v1.53h-1.39v-1.53h1.39Z" opacity=".74"/><path fill="#1F375B" stroke="#fff" d="M394.713 253.559v1.9h-1.74v-1.9h1.74Z" opacity=".9"/><g opacity=".72"><mask id="z" fill="#fff"><path d="M406.944 254.01h-.94v1h.94v-1Z"/></mask><path fill="#1F375B" d="M406.944 254.01h-.94v1h.94v-1Z"/><path fill="#fff" d="M406.004 254.01v-1h-1v1h1Zm.94 0h1v-1h-1v1Zm0 1v1h1v-1h-1Zm-.94 0h-1v1h1v-1Zm0-1v1h.94v-2h-.94v1Zm.94 0h-1v1h2v-1h-1Zm0 1v-1h-.94v2h.94v-1Zm-.94 0h1v-1h-2v1h1Z" mask="url(#z)"/></g><path fill="#1F375B" stroke="#fff" d="M420.184 253.34v2.34h-2.161v-2.34h2.161Z" opacity=".87"/><g opacity=".56"><mask id="A" fill="#fff"><path d="M432.013 254.209h-.56v.6h.56v-.6Z"/></mask><path fill="#1F375B" d="M432.013 254.209h-.56v.6h.56v-.6Z"/><path fill="#fff" d="M431.453 254.209v-1h-1v1h1Zm.56 0h1v-1h-1v1Zm0 .6v1h1v-1h-1Zm-.56 0h-1v1h1v-1Zm0-.6v1h.56v-2h-.56v1Zm.56 0h-1v.6h2v-.6h-1Zm0 .6v-1h-.56v2h.56v-1Zm-.56 0h1v-.6h-2v.6h1Z" mask="url(#A)"/></g><path fill="#1F375B" stroke="#fff" d="M445.791 252.969v3.07h-2.85v-3.07h2.85Z" opacity=".75"/><path fill="#1F375B" stroke="#fff" d="M458.543 252.84v3.33h-3.09v-3.33h3.09Z" opacity=".7"/><path fill="#1F375B" stroke="#fff" d="M470.772 253.27v2.469h-2.28v-2.469h2.28Z" opacity=".79"/><path fill="#1F375B" stroke="#fff" d="M482.95 253.75v1.52h-1.38v-1.52h1.38Z" opacity=".78"/><g opacity=".82"><mask id="B" fill="#fff"><path d="M495.221 254.148h-.67v.71h.67v-.71Z"/></mask><path fill="#1F375B" d="M495.221 254.148h-.67v.71h.67v-.71Z"/><path fill="#fff" d="M494.551 254.148v-1h-1v1h1Zm.67 0h1v-1h-1v1Zm0 .71v1h1v-1h-1Zm-.67 0h-1v1h1v-1Zm0-.71v1h.67v-2h-.67v1Zm.67 0h-1v.71h2v-.71h-1Zm0 .71v-1h-.67v2h.67v-1Zm-.67 0h1v-.71h-2v.71h1Z" mask="url(#B)"/></g><path fill="#1F375B" stroke="#fff" d="M508.014 253.949v1.111h-.991v-1.111h.991Z" opacity=".93"/><g opacity=".73"><mask id="C" fill="#fff"><path d="M520.491 254.139h-.69v.73h.69v-.73Z"/></mask><path fill="#1F375B" d="M520.491 254.139h-.69v.73h.69v-.73Z"/><path fill="#fff" d="M519.801 254.139v-1h-1v1h1Zm.69 0h1v-1h-1v1Zm0 .73v1h1v-1h-1Zm-.69 0h-1v1h1v-1Zm0-.73v1h.69v-2h-.69v1Zm.69 0h-1v.73h2v-.73h-1Zm0 .73v-1h-.69v2h.69v-1Zm-.69 0h1v-.73h-2v.73h1Z" mask="url(#C)"/></g><path fill="#1F375B" stroke="#fff" d="M546.121 253.729v1.54h-1.41v-1.54h1.41Z" opacity=".91"/><path fill="#1F375B" stroke="#fff" d="M559.692 252.738v3.531h-3.29v-3.531h3.29Z" opacity=".65"/><path fill="#1F375B" stroke="#fff" d="M570.754 254.389v.23h-.16v-.23h.16Z" opacity=".8"/><g opacity=".57"><mask id="D" fill="#fff"><path d="M583.622 254.17h-.63v.67h.63v-.67Z"/></mask><path fill="#1F375B" d="M583.622 254.17h-.63v.67h.63v-.67Z"/><path fill="#fff" d="M582.992 254.17v-1h-1v1h1Zm.63 0h1v-1h-1v1Zm0 .67v1h1v-1h-1Zm-.63 0h-1v1h1v-1Zm0-.67v1h.63v-2h-.63v1Zm.63 0h-1v.67h2v-.67h-1Zm0 .67v-1h-.63v2h.63v-1Zm-.63 0h1v-.67h-2v.67h1Z" mask="url(#D)"/></g><g opacity=".62"><mask id="E" fill="#fff"><path d="M608.941 254.109h-.75v.8h.75v-.8Z"/></mask><path fill="#1F375B" d="M608.941 254.109h-.75v.8h.75v-.8Z"/><path fill="#fff" d="M608.191 254.109v-1h-1v1h1Zm.75 0h1v-1h-1v1Zm0 .8v1h1v-1h-1Zm-.75 0h-1v1h1v-1Zm0-.8v1h.75v-2h-.75v1Zm.75 0h-1v.8h2v-.8h-1Zm0 .8v-1h-.75v2h.75v-1Zm-.75 0h1v-.8h-2v.8h1Z" mask="url(#E)"/></g><path fill="#1F375B" stroke="#fff" d="M622.843 252.738v3.531h-3.281v-3.531h3.281Z" opacity=".5"/><path fill="#1F375B" stroke="#fff" d="M394.932 266.689v2.35h-2.17v-2.35h2.17Z" opacity=".93"/><path fill="#1F375B" stroke="#fff" d="M419.903 266.988v1.771h-1.61v-1.771h1.61Z" opacity=".89"/><path fill="#1F375B" stroke="#fff" d="M433.73 265.719v4.29h-4v-4.29h4Z" opacity=".78"/><g opacity=".92"><mask id="F" fill="#fff"><path d="M444.783 267.43h-.83v.88h.83v-.88Z"/></mask><path fill="#1F375B" d="M444.783 267.43h-.83v.88h.83v-.88Z"/><path fill="#fff" d="M443.953 267.43v-1h-1v1h1Zm.83 0h1v-1h-1v1Zm0 .88v1h1v-1h-1Zm-.83 0h-1v1h1v-1Zm0-.88v1h.83v-2h-.83v1Zm.83 0h-1v.88h2v-.88h-1Zm0 .88v-1h-.83v2h.83v-1Zm-.83 0h1v-.88h-2v.88h1Z" mask="url(#F)"/></g><g opacity=".79"><mask id="G" fill="#fff"><path d="M457.263 267.58h-.54v.58h.54v-.58Z"/></mask><path fill="#1F375B" d="M457.263 267.58h-.54v.58h.54v-.58Z"/><path fill="#fff" d="M456.723 267.58v-1h-1v1h1Zm.54 0h1v-1h-1v1Zm0 .58v1h1v-1h-1Zm-.54 0h-1v1h1v-1Zm0-.58v1h.54v-2h-.54v1Zm.54 0h-1v.58h2v-.58h-1Zm0 .58v-1h-.54v2h.54v-1Zm-.54 0h1v-.58h-2v.58h1Z" mask="url(#G)"/></g><path fill="#1F375B" stroke="#fff" d="M470.222 267.209v1.32h-1.191v-1.32h1.191Z" opacity=".77"/><path fill="#1F375B" stroke="#fff" d="M495.29 267.408v.92h-.81v-.92h.81Z" opacity=".54"/><path fill="#1F375B" stroke="#fff" d="M508.163 267.158v1.42h-1.28v-1.42h1.28Z" opacity=".77"/><path fill="#1F375B" stroke="#fff" d="M521.372 266.539v2.65h-2.45v-2.65h2.45Z" opacity=".92"/><path fill="#1F375B" stroke="#fff" d="M532.882 267.729v.28h-.21v-.28h.21Z" opacity=".76"/><path fill="#1F375B" stroke="#fff" d="M547.071 266.09v3.559h-3.309v-3.559h3.309Z" opacity=".92"/><path fill="#1F375B" stroke="#fff" d="M559.053 266.779v2.18h-2.01v-2.18h2.01Z" opacity=".78"/><path fill="#1F375B" stroke="#fff" d="M571.37 267.109v1.531h-1.39v-1.531h1.39Z" opacity=".55"/><g opacity=".7"><mask id="H" fill="#fff"><path d="M583.573 267.59h-.53v.56h.53v-.56Z"/></mask><path fill="#1F375B" d="M583.573 267.59h-.53v.56h.53v-.56Z"/><path fill="#fff" d="M583.043 267.59v-1h-1v1h1Zm.53 0h1v-1h-1v1Zm0 .56v1h1v-1h-1Zm-.53 0h-1v1h1v-1Zm0-.56v1h.53v-2h-.53v1Zm.53 0h-1v.56h2v-.56h-1Zm0 .56v-1h-.53v2h.53v-1Zm-.53 0h1v-.56h-2v.56h1Z" mask="url(#H)"/></g><path fill="#1F375B" stroke="#fff" d="M596.534 267.209v1.31h-1.19v-1.31h1.19Z" opacity=".91"/><path fill="#1F375B" stroke="#fff" d="M608.951 267.439v.861h-.76v-.861h.76Z" opacity=".73"/><path fill="#1F375B" stroke="#fff" d="M622.033 266.959v1.82h-1.67v-1.82h1.67Z" opacity=".86"/><path fill="#1F375B" stroke="#fff" d="M394.442 280.568v1.33h-1.2v-1.33h1.2Z" opacity=".62"/><path fill="#1F375B" stroke="#fff" d="M406.694 280.969v.53h-.44v-.53h.44Z" opacity=".73"/><path fill="#1F375B" stroke="#fff" d="M419.982 280.27v1.929h-1.759v-1.929h1.759Z" opacity=".69"/><path fill="#1F375B" stroke="#fff" d="M433.224 279.629v3.2h-2.97v-3.2h2.97Z" opacity=".83"/><g opacity=".72"><mask id="I" fill="#fff"><path d="M444.82 280.75h-.91v.97h.91v-.97Z"/></mask><path fill="#1F375B" d="M444.82 280.75h-.91v.97h.91v-.97Z"/><path fill="#fff" d="M443.91 280.75v-1h-1v1h1Zm.91 0h1v-1h-1v1Zm0 .97v1h1v-1h-1Zm-.91 0h-1v1h1v-1Zm0-.97v1h.91v-2h-.91v1Zm.91 0h-1v.97h2v-.97h-1Zm0 .97v-1h-.91v2h.91v-1Zm-.91 0h1v-.97h-2v.97h1Z" mask="url(#I)"/></g><path fill="#1F375B" stroke="#fff" d="M458.701 279.389v3.679h-3.42v-3.679h3.42Z" opacity=".94"/><path fill="#1F375B" stroke="#fff" d="M470.862 279.898v2.661h-2.46v-2.661h2.46Z" opacity=".93"/><path fill="#1F375B" stroke="#fff" d="M482.772 280.658v1.151h-1.03v-1.151h1.03Z" opacity=".55"/><path fill="#1F375B" stroke="#fff" d="M507.794 280.92v.63h-.54v-.63h.54Z" opacity=".9"/><path fill="#1F375B" stroke="#fff" d="M520.32 281.029v.41h-.34v-.41h.34Z" opacity=".78"/><path fill="#1F375B" stroke="#fff" d="M546.394 280.17v2.13h-1.96v-2.13h1.96Z" opacity=".62"/><path fill="#1F375B" stroke="#fff" d="M558.541 280.68v1.099h-.99v-1.099h.99Z" opacity=".67"/><path fill="#1F375B" stroke="#fff" d="M571.383 280.459v1.55h-1.41v-1.55h1.41Z" opacity=".62"/><path fill="#1F375B" stroke="#fff" d="M584.152 280.318v1.83h-1.679v-1.83h1.679Z" opacity=".72"/><path fill="#1F375B" stroke="#fff" d="M596.952 280.129v2.2h-2.03v-2.2h2.03Z" opacity=".64"/><path fill="#1F375B" stroke="#fff" d="M609.102 280.639v1.19h-1.071v-1.19h1.071Z" opacity=".78"/><path fill="#1F375B" stroke="#fff" d="M621.611 280.76v.94h-.83v-.94h.83Z" opacity=".74"/><path fill="#1F375B" stroke="#fff" d="M395.271 293.059v3.08h-2.861v-3.08h2.861Z" opacity=".71"/><g opacity=".7"><mask id="J" fill="#fff"><path d="M406.813 294.229h-.68v.72h.68v-.72Z"/></mask><path fill="#1F375B" d="M406.813 294.229h-.68v.72h.68v-.72Z"/><path fill="#fff" d="M406.133 294.229v-1h-1v1h1Zm.68 0h1v-1h-1v1Zm0 .72v1h1v-1h-1Zm-.68 0h-1v1h1v-1Zm0-.72v1h.68v-2h-.68v1Zm.68 0h-1v.72h2v-.72h-1Zm0 .72v-1h-.68v2h.68v-1Zm-.68 0h1v-.72h-2v.72h1Z" mask="url(#J)"/></g><path fill="#1F375B" stroke="#fff" d="M419.491 294.148v.89h-.78v-.89h.78Z" opacity=".73"/><path fill="#1F375B" stroke="#fff" d="M432.331 293.939v1.321h-1.19v-1.321h1.19Z" opacity=".88"/><path fill="#1F375B" stroke="#fff" d="M446.94 291.85v5.49h-5.139v-5.49h5.139Z" opacity=".59"/><g opacity=".73"><mask id="K" fill="#fff"><path d="M457.393 294.18h-.78v.82h.78v-.82Z"/></mask><path fill="#1F375B" d="M457.393 294.18h-.78v.82h.78v-.82Z"/><path fill="#fff" d="M456.613 294.18v-1h-1v1h1Zm.78 0h1v-1h-1v1Zm0 .82v1h1v-1h-1Zm-.78 0h-1v1h1v-1Zm0-.82v1h.78v-2h-.78v1Zm.78 0h-1v.82h2v-.82h-1Zm0 .82v-1h-.78v2h.78v-1Zm-.78 0h1v-.82h-2v.82h1Z" mask="url(#K)"/></g><g opacity=".59"><mask id="L" fill="#fff"><path d="M469.793 294.408h-.34v.36h.34v-.36Z"/></mask><path fill="#1F375B" d="M469.793 294.408h-.34v.36h.34v-.36Z"/><path fill="#fff" d="M469.453 294.408v-1h-1v1h1Zm.34 0h1v-1h-1v1Zm0 .36v1h1v-1h-1Zm-.34 0h-1v1h1v-1Zm0-.36v1h.34v-2h-.34v1Zm.34 0h-1v.36h2v-.36h-1Zm0 .36v-1h-.34v2h.34v-1Zm-.34 0h1v-.36h-2v.36h1Z" mask="url(#L)"/></g><path fill="#1F375B" stroke="#fff" d="M483.871 292.859v3.481h-3.23v-3.481h3.23Z" opacity=".51"/><path fill="#1F375B" stroke="#fff" d="M507.891 294.17v.85h-.75v-.85h.75Z" opacity=".64"/><path fill="#1F375B" stroke="#fff" d="M546.332 293.59v2.01h-1.84v-2.01h1.84Z" opacity=".61"/><path fill="#1F375B" stroke="#fff" d="M558.172 294.43v.32h-.25v-.32h.25Z" opacity=".71"/><path fill="#1F375B" stroke="#fff" d="M571.894 293.27v2.639h-2.441v-2.639h2.441Z" opacity=".86"/><path fill="#1F375B" stroke="#fff" d="M583.382 294.5v.2h-.14v-.2h.14Z" opacity=".69"/><path fill="#1F375B" stroke="#fff" d="M596.962 293.479v2.24h-2.06v-2.24h2.06Z" opacity=".53"/><path fill="#1F375B" stroke="#fff" d="M609.123 293.979v1.23h-1.1v-1.23h1.1Z" opacity=".55"/><path fill="#1F375B" stroke="#fff" d="M623.013 292.648v3.901h-3.63v-3.901h3.63Z" opacity=".8"/><path fill="#1F375B" stroke="#fff" d="M393.95 307.809v.29h-.22v-.29h.22Z" opacity=".52"/><path fill="#1F375B" stroke="#fff" d="M407.311 307.049v1.82h-1.67v-1.82h1.67Z" opacity=".55"/><path fill="#1F375B" stroke="#fff" d="M432.271 307.359v1.201h-1.08v-1.201h1.08Z" opacity=".66"/><path fill="#1F375B" stroke="#fff" d="M444.443 307.85v.21h-.15v-.21h.15Z" opacity=".91"/><g opacity=".56"><mask id="M" fill="#fff"><path d="M457.472 307.449h-.96v1.01h.96v-1.01Z"/></mask><path fill="#1F375B" d="M457.472 307.449h-.96v1.01h.96v-1.01Z"/><path fill="#fff" d="M456.512 307.449v-1h-1v1h1Zm.96 0h1v-1h-1v1Zm0 1.01v1h1v-1h-1Zm-.96 0h-1v1h1v-1Zm0-1.01v1h.96v-2h-.96v1Zm.96 0h-1v1.01h2v-1.01h-1Zm0 1.01v-1h-.96v2h.96v-1Zm-.96 0h1v-1.01h-2v1.01h1Z" mask="url(#M)"/></g><path fill="#1F375B" stroke="#fff" d="M469.703 307.84v.23h-.16v-.23h.16Z" opacity=".88"/><path fill="#1F375B" stroke="#fff" d="M496.051 306.699v2.51h-2.321v-2.51h2.321Z" opacity=".8"/><path fill="#1F375B" stroke="#fff" d="M507.841 307.6v.719h-.63v-.719h.63Z" opacity=".88"/><path fill="#1F375B" stroke="#fff" d="M520.792 307.25v1.41h-1.28v-1.41h1.28Z" opacity=".77"/><path fill="#1F375B" stroke="#fff" d="M533.134 307.559v.799h-.7v-.799h.7Z" opacity=".65"/><path fill="#1F375B" stroke="#fff" d="M547.612 305.609v4.701h-4.389v-4.701h4.389Z" opacity=".66"/><path fill="#1F375B" stroke="#fff" d="M558.313 307.639v.63h-.54v-.63h.54Z" opacity=".57"/><g opacity=".91"><mask id="N" fill="#fff"><path d="M583.661 307.58h-.72v.76h.72v-.76Z"/></mask><path fill="#1F375B" d="M583.661 307.58h-.72v.76h.72v-.76Z"/><path fill="#fff" d="M582.941 307.58v-1h-1v1h1Zm.72 0h1v-1h-1v1Zm0 .76v1h1v-1h-1Zm-.72 0h-1v1h1v-1Zm0-.76v1h.72v-2h-.72v1Zm.72 0h-1v.76h2v-.76h-1Zm0 .76v-1h-.72v2h.72v-1Zm-.72 0h1v-.76h-2v.76h1Z" mask="url(#N)"/></g><path fill="#1F375B" stroke="#fff" d="M596.411 307.43v1.07h-.95v-1.07h.95Z" opacity=".66"/><path fill="#1F375B" stroke="#fff" d="M608.613 307.879v.16h-.09v-.16h.09Z" opacity=".62"/><path fill="#1F375B" stroke="#fff" d="M621.333 307.789v.34h-.271v-.34h.271Z" opacity=".92"/></g><path fill="#1E1E1E" stroke="#fff" stroke-miterlimit="10" stroke-width="3" d="M392.471 858.84c-.98 0-1.78-.79-1.79-1.77-.01-1.24.03-2.5.13-3.74.08-.99.95-1.72 1.93-1.65a1.8 1.8 0 0 1 1.65 1.93c-.09 1.13-.13 2.28-.12 3.42.01.99-.78 1.8-1.77 1.81h-.03Zm232.659-17.019c-.68 0-1.33-.39-1.63-1.05a47.88 47.88 0 0 0-3.4-6.21c-.53-.83-.29-1.94.54-2.48.83-.54 1.94-.3 2.47.54 1.4 2.18 2.63 4.42 3.66 6.67.41.9 0 1.96-.89 2.37-.24.11-.49.16-.74.16h-.01Zm-229.12-.04c-.24 0-.48-.05-.71-.15a1.786 1.786 0 0 1-.93-2.36c.99-2.27 2.18-4.53 3.55-6.73.52-.84 1.63-1.1 2.47-.57.84.52 1.1 1.63.57 2.47a47.042 47.042 0 0 0-3.3 6.26c-.29.68-.95 1.08-1.65 1.08Zm216.74-17.17c-.45 0-.91-.17-1.26-.51a75.706 75.706 0 0 0-5.35-4.79c-.77-.63-.88-1.75-.26-2.52.63-.77 1.75-.88 2.52-.26a80.54 80.54 0 0 1 5.6 5.01c.71.69.71 1.83.02 2.54-.35.35-.81.53-1.28.53h.01Zm-204.57-.19c-.46 0-.92-.18-1.27-.52-.7-.7-.7-1.84 0-2.53 1.72-1.73 3.6-3.42 5.58-5.05.76-.63 1.89-.52 2.52.25.63.77.52 1.89-.24 2.52a73.27 73.27 0 0 0-5.32 4.82c-.35.35-.81.52-1.26.52l-.01-.01Zm187.65-12.71c-.31 0-.63-.08-.92-.26a114.54 114.54 0 0 0-6.32-3.53 1.79 1.79 0 0 1-.76-2.42c.46-.88 1.54-1.22 2.42-.77 1.62.84 3.22 1.72 4.78 2.62.58.34 1.16.68 1.73 1.02a1.792 1.792 0 0 1-.93 3.33v.01Zm-170.78-.24a1.795 1.795 0 0 1-.93-3.33c.6-.37 1.21-.72 1.83-1.08 1.51-.87 3.09-1.73 4.69-2.56a1.8 1.8 0 0 1 1.66 3.19c-1.55.8-3.08 1.64-4.55 2.49-.6.34-1.19.69-1.77 1.04-.29.18-.61.26-.92.26l-.01-.01Zm151.63-9.1c-.22 0-.44-.04-.65-.12-2.22-.87-4.52-1.71-6.83-2.48a1.798 1.798 0 0 1-1.13-2.27c.31-.94 1.33-1.44 2.27-1.13 2.36.8 4.72 1.65 6.99 2.54.92.36 1.37 1.4 1.02 2.32a1.79 1.79 0 0 1-1.67 1.14Zm-132.49-.24c-.72 0-1.39-.44-1.67-1.14-.36-.92.1-1.96 1.02-2.32 2.27-.89 4.63-1.74 7-2.53.94-.31 1.95.19 2.27 1.13.31.94-.19 1.95-1.13 2.27-2.32.77-4.62 1.6-6.83 2.47-.21.08-.44.12-.65.12h-.01Zm112.17-6.15c-.15 0-.29-.02-.43-.05-2.33-.57-4.72-1.1-7.11-1.58-.97-.2-1.6-1.14-1.41-2.11.2-.97 1.15-1.6 2.11-1.41 2.43.49 4.87 1.03 7.26 1.62.96.24 1.55 1.21 1.31 2.17-.2.82-.93 1.37-1.74 1.37l.01-.01Zm-91.83-.18c-.81 0-1.54-.55-1.74-1.37-.23-.96.36-1.93 1.32-2.16 2.37-.57 4.81-1.11 7.25-1.59.97-.2 1.91.44 2.11 1.41.19.97-.44 1.91-1.41 2.1-2.39.47-4.78 1-7.1 1.56-.14.03-.28.05-.42.05h-.01Zm70.86-3.67c-.07 0-.15 0-.23-.01-2.38-.3-4.82-.56-7.25-.78-.99-.09-1.71-.96-1.63-1.94.09-.99.96-1.71 1.94-1.63 2.47.22 4.95.49 7.38.79.98.12 1.68 1.02 1.55 2-.12.9-.89 1.57-1.78 1.57h.02Zm-49.89-.1a1.8 1.8 0 0 1-1.78-1.57c-.12-.98.58-1.88 1.56-2 2.44-.3 4.92-.55 7.38-.76.99-.08 1.86.65 1.94 1.64a1.8 1.8 0 0 1-1.64 1.94c-2.41.2-4.85.45-7.25.75-.07 0-.15.01-.22.01l.01-.01Zm28.62-1.44h-.04c-2.43-.05-4.86-.05-7.29-.01-.99-.02-1.8-.77-1.82-1.76-.02-.99.77-1.81 1.76-1.82 2.47-.04 4.94-.03 7.42.02.99.02 1.77.84 1.75 1.83-.02.98-.82 1.76-1.79 1.76l.01-.02Zm114.912 68.25c-.98 0-1.78-.79-1.79-1.77-.01-1.13-.08-2.29-.19-3.41-.1-.99.61-1.86 1.6-1.96.98-.1 1.86.62 1.96 1.61.13 1.24.2 2.49.21 3.73.01.99-.78 1.8-1.77 1.81h-.02v-.01Z"/><path fill="#1E1E1E" stroke="#fff" stroke-miterlimit="10" stroke-width="3" d="M511.49 927.072c-30.74 0-61.54-6.78-85.01-20.33-22.88-13.21-35.6-30.85-35.8-49.67 0-.99.78-1.8 1.77-1.81h.02c.98 0 1.78.79 1.79 1.77.19 17.5 12.27 34.05 34.01 46.61 22.98 13.26 53.14 19.9 83.22 19.9 29.84 0 59.61-6.53 82.26-19.6 21.79-12.58 33.68-29.22 33.49-46.87-.01-.99.78-1.8 1.77-1.81h.02c.98 0 1.78.79 1.79 1.77.2 19-12.32 36.76-35.28 50.01-23.13 13.36-53.56 20.03-84.05 20.03Zm-.325 50.048h-.43c-.99 0-1.78-.82-1.77-1.81.01-.99.82-1.81 1.81-1.77 1.14.01 2.28-.03 3.42-.12.99-.08 1.85.66 1.93 1.65.08.99-.66 1.85-1.65 1.93-1.1.09-2.21.13-3.31.13v-.01Z"/><path fill="#1E1E1E" stroke="#fff" stroke-miterlimit="10" stroke-width="3" d="M527.812 973.57c-.69 0-1.35-.4-1.65-1.08-.39-.91.02-1.96.93-2.36 2.11-.91 4.22-2.03 6.26-3.3.84-.52 1.95-.27 2.47.57.52.84.27 1.95-.57 2.47a50.549 50.549 0 0 1-6.73 3.55c-.23.1-.47.15-.71.15Zm17.35-12.16c-.46 0-.92-.18-1.26-.53-.7-.7-.7-1.83 0-2.53 1.64-1.65 3.26-3.44 4.82-5.32a1.79 1.79 0 0 1 2.76 2.28 80.35 80.35 0 0 1-5.05 5.57c-.35.35-.81.53-1.27.53Zm12.96-16.87c-.32 0-.64-.08-.93-.26a1.792 1.792 0 0 1-.61-2.46c.35-.58.7-1.17 1.05-1.77.85-1.47 1.68-3 2.49-4.55a1.79 1.79 0 0 1 2.42-.76c.88.45 1.22 1.54.76 2.42-.83 1.59-1.69 3.17-2.57 4.69-.35.62-.71 1.23-1.07 1.83-.34.56-.93.86-1.54.86Zm9.33-19.14c-.22 0-.44-.04-.65-.12-.92-.36-1.38-1.4-1.02-2.32.86-2.22 1.69-4.52 2.47-6.83a1.794 1.794 0 0 1 3.4 1.14c-.79 2.37-1.64 4.73-2.53 7a1.79 1.79 0 0 1-1.67 1.14v-.01Zm6.34-20.34a1.792 1.792 0 0 1-1.74-2.21c.56-2.33 1.08-4.72 1.56-7.1a1.79 1.79 0 0 1 2.11-1.41c.97.19 1.6 1.13 1.41 2.11-.48 2.43-1.01 4.88-1.59 7.25-.2.82-.93 1.37-1.74 1.37l-.01-.01Zm3.78-20.97c-.07 0-.15 0-.22-.01a1.792 1.792 0 0 1-1.56-2c.29-2.39.54-4.83.75-7.25.08-.98.95-1.71 1.94-1.63.99.08 1.72.95 1.63 1.94-.21 2.46-.46 4.94-.76 7.38-.11.91-.88 1.57-1.78 1.57Zm1.44-21.27h-.03c-.99-.01-1.78-.83-1.77-1.82a184.992 184.992 0 0 0-.01-7.29c-.02-.99.76-1.81 1.75-1.83h.04c.97 0 1.77.78 1.79 1.75.03 1.39.04 2.77.04 4.15 0 1.09 0 2.18-.03 3.26a1.79 1.79 0 0 1-1.79 1.77l.01.01Zm-.77-21.3c-.92 0-1.7-.7-1.78-1.63-.21-2.43-.48-4.87-.77-7.25a1.79 1.79 0 0 1 3.55-.45c.31 2.43.57 4.91.79 7.38.09.99-.64 1.86-1.62 1.94h-.16l-.01.01Zm-3.04-21.11c-.83 0-1.59-.59-1.75-1.44-.48-2.38-1.02-4.78-1.58-7.11-.24-.96.35-1.93 1.31-2.16.97-.23 1.93.35 2.17 1.32.58 2.38 1.13 4.82 1.62 7.25.19.97-.44 1.92-1.41 2.11-.12.02-.24.03-.35.03h-.01Zm-5.47-20.6c-.75 0-1.45-.47-1.7-1.22-.78-2.31-1.62-4.6-2.49-6.83a1.794 1.794 0 0 1 3.34-1.31c.89 2.28 1.75 4.63 2.54 6.99a1.79 1.79 0 0 1-1.7 2.36l.01.01Zm-8.27-19.63c-.65 0-1.27-.35-1.59-.97-.82-1.57-1.67-3.13-2.54-4.64-.33-.57-.66-1.13-.99-1.68a1.8 1.8 0 0 1 .61-2.46 1.79 1.79 0 0 1 2.46.61c.34.57.69 1.15 1.02 1.74.9 1.55 1.78 3.16 2.62 4.78.45.88.11 1.96-.77 2.42-.26.14-.55.2-.82.2Zm-11.58-17.87c-.52 0-1.03-.22-1.39-.66-1.55-1.9-3.16-3.7-4.79-5.35-.69-.7-.69-1.84.02-2.53.7-.69 1.84-.69 2.53.02a80.54 80.54 0 0 1 5.01 5.6c.63.77.51 1.9-.25 2.52-.33.27-.73.4-1.13.4Zm-15.67-14.32c-.33 0-.67-.09-.97-.29a48.544 48.544 0 0 0-6.21-3.4 1.79 1.79 0 1 1 1.48-3.26 51.9 51.9 0 0 1 6.67 3.65c.83.54 1.07 1.65.54 2.48-.34.53-.92.82-1.51.82Zm-19.889-7.23c-.06 0-.12 0-.18-.01-1.13-.11-2.28-.18-3.42-.19a1.79 1.79 0 0 1 .02-3.58h.02c1.24.01 2.5.08 3.74.21.98.1 1.7.981 1.6 1.961-.1.93-.87 1.609-1.78 1.609Z"/><path fill="#1E1E1E" stroke="#fff" stroke-miterlimit="10" stroke-width="3" d="M510.753 977.121h-.02c-18.82-.2-36.46-12.92-49.67-35.8-27-46.76-27.13-122.6-.3-169.07 13.14-22.77 30.73-35.28 49.55-35.28h.46a1.79 1.79 0 0 1-.02 3.58h-.02c-17.64-.18-34.29 11.7-46.87 33.48-26.26 45.48-26.12 119.71.3 165.48 12.55 21.74 29.1 33.82 46.6 34.01.99.01 1.78.82 1.77 1.81 0 .98-.81 1.77-1.79 1.77l.01.02Z"/><path fill="#1E1E1E" stroke="#fff" stroke-miterlimit="10" stroke-width="3" d="M510.75 977.121c-66.21 0-120.07-53.87-120.07-120.08 0-66.21 53.87-120.07 120.07-120.07 66.2 0 120.07 53.87 120.07 120.07 0 66.2-53.87 120.08-120.07 120.08Zm0-236.56c-64.23 0-116.49 52.26-116.49 116.49 0 64.23 52.26 116.49 116.49 116.49 64.23 0 116.49-52.26 116.49-116.49 0-64.23-52.26-116.49-116.49-116.49Z"/><path stroke="#fff" d="M714.015 858.256 534.237 960.837 345.649 856.659l187.136-99.728 181.23 101.325Z"/><mask id="O" width="236" height="142" x="392" y="788" maskUnits="userSpaceOnUse" style="mask-type:luminance"><path fill="#fff" stroke="#fff" d="M509.891 788.99c32.277 0 61.475 7.861 82.587 20.545 21.121 12.69 34.073 30.152 34.073 49.345 0 19.193-12.952 36.655-34.073 49.345-21.112 12.684-50.31 20.545-82.587 20.546-32.278 0-61.476-7.862-82.587-20.546-21.122-12.69-34.074-30.152-34.074-49.345.001-19.193 12.952-36.655 34.074-49.345 21.111-12.684 50.309-20.545 82.587-20.545Z"/></mask><g mask="url(#O)"><path fill="#1F375B" stroke="#fff" d="M406.713 788.201v.58h-.49v-.58h.49Z" opacity=".54"/><g opacity=".65"><mask id="P" fill="#fff"><path d="M419.354 788.221h-.51v.54h.51v-.54Z"/></mask><path fill="#1F375B" d="M419.354 788.221h-.51v.54h.51v-.54Z"/><path fill="#fff" d="M418.844 788.221v-1h-1v1h1Zm.51 0h1v-1h-1v1Zm0 .54v1h1v-1h-1Zm-.51 0h-1v1h1v-1Zm0-.54v1h.51v-2h-.51v1Zm.51 0h-1v.54h2v-.54h-1Zm0 .54v-1h-.51v2h.51v-1Zm-.51 0h1v-.54h-2v.54h1Z" mask="url(#P)"/></g><g opacity=".71"><mask id="Q" fill="#fff"><path d="M432.181 788.021h-.9v.95h.9v-.95Z"/></mask><path fill="#1F375B" d="M432.181 788.021h-.9v.95h.9v-.95Z"/><path fill="#fff" d="M431.281 788.021v-1h-1v1h1Zm.9 0h1v-1h-1v1Zm0 .95v1h1v-1h-1Zm-.9 0h-1v1h1v-1Zm0-.95v1h.9v-2h-.9v1Zm.9 0h-1v.95h2v-.95h-1Zm0 .95v-1h-.9v2h.9v-1Zm-.9 0h1v-.95h-2v.95h1Z" mask="url(#Q)"/></g><path fill="#1F375B" stroke="#fff" d="M458.92 786.432v4.13h-3.85v-4.13h3.85Z" opacity=".66"/><path fill="#1F375B" stroke="#fff" d="M471.123 786.881v3.22h-2.99v-3.22h2.99Z" opacity=".62"/><path fill="#1F375B" stroke="#fff" d="M482.723 787.971v1.04h-.93v-1.04h.93Z" opacity=".67"/><g opacity=".51"><mask id="R" fill="#fff"><path d="M495.344 788.01h-.91v.97h.91v-.97Z"/></mask><path fill="#1F375B" d="M495.344 788.01h-.91v.97h.91v-.97Z"/><path fill="#fff" d="M494.434 788.01v-1h-1v1h1Zm.91 0h1v-1h-1v1Zm0 .97v1h1v-1h-1Zm-.91 0h-1v1h1v-1Zm0-.97v1h.91v-2h-.91v1Zm.91 0h-1v.97h2v-.97h-1Zm0 .97v-1h-.91v2h.91v-1Zm-.91 0h1v-.97h-2v.97h1Z" mask="url(#R)"/></g><path fill="#1F375B" stroke="#fff" d="M509.391 786.49v4h-3.731v-4h3.731Z" opacity=".81"/><g opacity=".82"><mask id="S" fill="#fff"><path d="M520.581 788.041h-.851v.9h.851v-.9Z"/></mask><path fill="#1F375B" d="M520.581 788.041h-.851v.9h.851v-.9Z"/><path fill="#fff" d="M519.73 788.041v-1h-1v1h1Zm.851 0h1v-1h-1v1Zm0 .9v1h1v-1h-1Zm-.851 0h-1v1h1v-1Zm0-.9v1h.851v-2h-.851v1Zm.851 0h-1v.9h2v-.9h-1Zm0 .9v-1h-.851v2h.851v-1Zm-.851 0h1v-.9h-2v.9h1Z" mask="url(#S)"/></g><path fill="#1F375B" stroke="#fff" d="M534.433 786.721v3.55h-3.3v-3.55h3.3Z" opacity=".59"/><path fill="#1F375B" stroke="#fff" d="M545.431 788.441v.1h-.04v-.1h.04Z" opacity=".68"/><path fill="#1F375B" stroke="#fff" d="M558.754 787.721v1.55h-1.41v-1.55h1.41Z" opacity=".78"/><path fill="#1F375B" stroke="#fff" d="M571.231 787.881v1.23h-1.11v-1.23h1.11Z" opacity=".65"/><path fill="#1F375B" stroke="#fff" d="M583.991 787.74v1.51h-1.37v-1.51h1.37Z" opacity=".52"/><path fill="#1F375B" stroke="#fff" d="M597.354 786.971v3.05h-2.831v-3.05h2.831Z" opacity=".53"/><g opacity=".92"><mask id="T" fill="#fff"><path d="M608.843 788.201h-.55v.58h.55v-.58Z"/></mask><path fill="#1F375B" d="M608.843 788.201h-.55v.58h.55v-.58Z"/><path fill="#fff" d="M608.293 788.201v-1h-1v1h1Zm.55 0h1v-1h-1v1Zm0 .58v1h1v-1h-1Zm-.55 0h-1v1h1v-1Zm0-.58v1h.55v-2h-.55v1Zm.55 0h-1v.58h2v-.58h-1Zm0 .58v-1h-.55v2h.55v-1Zm-.55 0h1v-.58h-2v.58h1Z" mask="url(#T)"/></g><g opacity=".92"><mask id="U" fill="#fff"><path d="M621.472 788.201h-.55v.58h.55v-.58Z"/></mask><path fill="#1F375B" d="M621.472 788.201h-.55v.58h.55v-.58Z"/><path fill="#fff" d="M620.922 788.201v-1h-1v1h1Zm.55 0h1v-1h-1v1Zm0 .58v1h1v-1h-1Zm-.55 0h-1v1h1v-1Zm0-.58v1h.55v-2h-.55v1Zm.55 0h-1v.58h2v-.58h-1Zm0 .58v-1h-.55v2h.55v-1Zm-.55 0h1v-.58h-2v.58h1Z" mask="url(#U)"/></g><path fill="#1F375B" stroke="#fff" d="M407.612 800.621v2.47h-2.28v-2.47h2.28Z" opacity=".93"/><path fill="#1F375B" stroke="#fff" d="M420.033 800.852v2.009h-1.849v-2.009h1.849Z" opacity=".94"/><path fill="#1F375B" stroke="#fff" d="M433.07 800.41v2.901h-2.679v-2.901h2.679Z" opacity=".8"/><path fill="#1F375B" stroke="#fff" d="M445.673 800.451v2.82h-2.611v-2.82h2.611Z" opacity=".65"/><path fill="#1F375B" stroke="#fff" d="M458.32 800.42v2.87h-2.66v-2.87h2.66Z" opacity=".72"/><path fill="#1F375B" stroke="#fff" d="M482.69 801.361v.981h-.87v-.981h.87Z" opacity=".83"/><path fill="#1F375B" stroke="#fff" d="M496.282 800.352v3.009h-2.79v-3.009h2.79Z" opacity=".59"/><path fill="#1F375B" stroke="#fff" d="M507.673 801.66v.39h-.31v-.39h.31Z" opacity=".75"/><g opacity=".93"><mask id="V" fill="#fff"><path d="M520.581 801.41h-.851v.9h.851v-.9Z"/></mask><path fill="#1F375B" d="M520.581 801.41h-.851v.9h.851v-.9Z"/><path fill="#fff" d="M519.73 801.41v-1h-1v1h1Zm.851 0h1v-1h-1v1Zm0 .9v1h1v-1h-1Zm-.851 0h-1v1h1v-1Zm0-.9v1h.851v-2h-.851v1Zm.851 0h-1v.9h2v-.9h-1Zm0 .9v-1h-.851v2h.851v-1Zm-.851 0h1v-.9h-2v.9h1Z" mask="url(#V)"/></g><path fill="#1F375B" stroke="#fff" d="M533.922 800.621v2.46h-2.27v-2.46h2.27Zm11.98.69v1.099h-.98v-1.099h.98Z" opacity=".85"/><path fill="#1F375B" stroke="#fff" d="M570.731 801.771v.18h-.11v-.18h.11Z" opacity=".78"/><path fill="#1F375B" stroke="#fff" d="M584.073 801.021v1.68h-1.53v-1.68h1.53Z" opacity=".86"/><path fill="#1F375B" stroke="#fff" d="M597.943 799.701v4.3h-4.009v-4.3h4.009Z" opacity=".74"/><path fill="#1F375B" stroke="#fff" d="M621.562 801.441v.83h-.73v-.83h.73Z" opacity=".84"/><path fill="#1F375B" stroke="#fff" d="M395.391 813.561v3.32h-3.09v-3.32h3.09Z" opacity=".5"/><path fill="#1F375B" stroke="#fff" d="M407.344 814.26v1.91h-1.75v-1.91h1.75Z" opacity=".9"/><path fill="#1F375B" stroke="#fff" d="M419.762 814.49v1.45h-1.321v-1.45h1.321Zm24.962.33v.79h-.701v-.79h.701Z" opacity=".74"/><g opacity=".69"><mask id="W" fill="#fff"><path d="M457.154 815.051h-.31v.33h.31v-.33Z"/></mask><path fill="#1F375B" d="M457.154 815.051h-.31v.33h.31v-.33Z"/><path fill="#fff" d="M456.844 815.051v-1h-1v1h1Zm.31 0h1v-1h-1v1Zm0 .33v1h1v-1h-1Zm-.31 0h-1v1h1v-1Zm0-.33v1h.31v-2h-.31v1Zm.31 0h-1v.33h2v-.33h-1Zm0 .33v-1h-.31v2h.31v-1Zm-.31 0h1v-.33h-2v.33h1Z" mask="url(#W)"/></g><g opacity=".67"><mask id="X" fill="#fff"><path d="M470.041 814.781h-.83v.88h.83v-.88Z"/></mask><path fill="#1F375B" d="M470.041 814.781h-.83v.88h.83v-.88Z"/><path fill="#fff" d="M469.211 814.781v-1h-1v1h1Zm.83 0h1v-1h-1v1Zm0 .88v1h1v-1h-1Zm-.83 0h-1v1h1v-1Zm0-.88v1h.83v-2h-.83v1Zm.83 0h-1v.88h2v-.88h-1Zm0 .88v-1h-.83v2h.83v-1Zm-.83 0h1v-.88h-2v.88h1Z" mask="url(#X)"/></g><path fill="#1F375B" stroke="#fff" d="M495.54 814.5v1.44h-1.31v-1.44h1.31Z" opacity=".76"/><path fill="#1F375B" stroke="#fff" d="M508.464 814.201v2.03h-1.87v-2.03h1.87Z" opacity=".8"/><path fill="#1F375B" stroke="#fff" d="M533.224 814.721v.99h-.88v-.99h.88Z" opacity=".86"/><path fill="#1F375B" stroke="#fff" d="M545.494 815.111v.22h-.15v-.22h.15Z" opacity=".94"/><path fill="#1F375B" stroke="#fff" d="M559.094 814.08v2.27h-2.09v-2.27h2.09Z" opacity=".74"/><path fill="#1F375B" stroke="#fff" d="M585.491 812.881v4.68h-4.37v-4.68h4.37Z" opacity=".64"/><path fill="#1F375B" stroke="#fff" d="M597.243 813.811v2.82h-2.61v-2.82h2.61Z" opacity=".67"/><g opacity=".57"><mask id="Y" fill="#fff"><path d="M608.742 815.041h-.34v.36h.34v-.36Z"/></mask><path fill="#1F375B" d="M608.742 815.041h-.34v.36h.34v-.36Z"/><path fill="#fff" d="M608.402 815.041v-1h-1v1h1Zm.34 0h1v-1h-1v1Zm0 .36v1h1v-1h-1Zm-.34 0h-1v1h1v-1Zm0-.36v1h.34v-2h-.34v1Zm.34 0h-1v.36h2v-.36h-1Zm0 .36v-1h-.34v2h.34v-1Zm-.34 0h1v-.36h-2v.36h1Z" mask="url(#Y)"/></g><g opacity=".87"><mask id="Z" fill="#fff"><path d="M621.371 815.041h-.34v.36h.34v-.36Z"/></mask><path fill="#1F375B" d="M621.371 815.041h-.34v.36h.34v-.36Z"/><path fill="#fff" d="M621.031 815.041v-1h-1v1h1Zm.34 0h1v-1h-1v1Zm0 .36v1h1v-1h-1Zm-.34 0h-1v1h1v-1Zm0-.36v1h.34v-2h-.34v1Zm.34 0h-1v.36h2v-.36h-1Zm0 .36v-1h-.34v2h.34v-1Zm-.34 0h1v-.36h-2v.36h1Z" mask="url(#Z)"/></g><g opacity=".77"><mask id="aa" fill="#fff"><path d="M394.233 828.17h-.78v.83h.78v-.83Z"/></mask><path fill="#1F375B" d="M394.233 828.17h-.78v.83h.78v-.83Z"/><path fill="#fff" d="M393.453 828.17v-1h-1v1h1Zm.78 0h1v-1h-1v1Zm0 .83v1h1v-1h-1Zm-.78 0h-1v1h1v-1Zm0-.83v1h.78v-2h-.78v1Zm.78 0h-1v.83h2v-.83h-1Zm0 .83v-1h-.78v2h.78v-1Zm-.78 0h1v-.83h-2v.83h1Z" mask="url(#aa)"/></g><path fill="#1F375B" stroke="#fff" d="M406.622 828.4v.361h-.29v-.361h.29Z" opacity=".61"/><path fill="#1F375B" stroke="#fff" d="M419.874 827.74v1.68h-1.53v-1.68h1.53Z" opacity=".78"/><path fill="#1F375B" stroke="#fff" d="M431.783 828.5v.16h-.099v-.16h.099Z" opacity=".51"/><path fill="#1F375B" stroke="#fff" d="M446.222 826.59v3.99h-3.71v-3.99h3.71Z" opacity=".59"/><g opacity=".58"><mask id="ab" fill="#fff"><path d="M457.191 828.371h-.39v.41h.39v-.41Z"/></mask><path fill="#1F375B" d="M457.191 828.371h-.39v.41h.39v-.41Z"/><path fill="#fff" d="M456.801 828.371v-1h-1v1h1Zm.39 0h1v-1h-1v1Zm0 .41v1h1v-1h-1Zm-.39 0h-1v1h1v-1Zm0-.41v1h.39v-2h-.39v1Zm.39 0h-1v.41h2v-.41h-1Zm0 .41v-1h-.39v2h.39v-1Zm-.39 0h1v-.41h-2v.41h1Z" mask="url(#ab)"/></g><path fill="#1F375B" stroke="#fff" d="M483.174 827.58v2h-1.83v-2h1.83Z" opacity=".75"/><path fill="#1F375B" stroke="#fff" d="M495.79 827.59v1.97h-1.81v-1.97h1.81Z" opacity=".82"/><path fill="#1F375B" stroke="#fff" d="M508.042 827.99v1.17h-1.05v-1.17h1.05Z" opacity=".5"/><path fill="#1F375B" stroke="#fff" d="M520.57 828.111v.941h-.84v-.941h.84Z" opacity=".67"/><path fill="#1F375B" stroke="#fff" d="M533.271 828.041v1.08h-.97v-1.08h.97Z" opacity=".53"/><path fill="#1F375B" stroke="#fff" d="M546.201 827.721v1.73h-1.58v-1.73h1.58Z" opacity=".63"/><g opacity=".56"><mask id="ac" fill="#fff"><path d="M558.432 828.17h-.78v.82h.78v-.82Z"/></mask><path fill="#1F375B" d="M558.432 828.17h-.78v.82h.78v-.82Z"/><path fill="#fff" d="M557.652 828.17v-1h-1v1h1Zm.78 0h1v-1h-1v1Zm0 .82v1h1v-1h-1Zm-.78 0h-1v1h1v-1Zm0-.82v1h.78v-2h-.78v1Zm.78 0h-1v.82h2v-.82h-1Zm0 .82v-1h-.78v2h.78v-1Zm-.78 0h1v-.82h-2v.82h1Z" mask="url(#ac)"/></g><path fill="#1F375B" stroke="#fff" d="M572.782 826.32v4.531h-4.22v-4.531h4.22Z" opacity=".88"/><path fill="#1F375B" stroke="#fff" d="M583.852 827.98v1.21h-1.09v-1.21h1.09Z" opacity=".59"/><path fill="#1F375B" stroke="#fff" d="M621.621 828.111v.951h-.84v-.951h.84Z" opacity=".8"/><g opacity=".74"><mask id="ad" fill="#fff"><path d="M394.143 841.621h-.6v.64h.6v-.64Z"/></mask><path fill="#1F375B" d="M394.143 841.621h-.6v.64h.6v-.64Z"/><path fill="#fff" d="M393.543 841.621v-1h-1v1h1Zm.6 0h1v-1h-1v1Zm0 .64v1h1v-1h-1Zm-.6 0h-1v1h1v-1Zm0-.64v1h.6v-2h-.6v1Zm.6 0h-1v.64h2v-.64h-1Zm0 .64v-1h-.6v2h.6v-1Zm-.6 0h1v-.64h-2v.64h1Z" mask="url(#ad)"/></g><path fill="#1F375B" stroke="#fff" d="M406.521 841.861v.17h-.099v-.17h.099Z" opacity=".6"/><path fill="#1F375B" stroke="#fff" d="M419.29 841.711v.46h-.38v-.46h.38Z" opacity=".86"/><g opacity=".93"><mask id="ae" fill="#fff"><path d="M432.003 841.66h-.53v.56h.53v-.56Z"/></mask><path fill="#1F375B" d="M432.003 841.66h-.53v.56h.53v-.56Z"/><path fill="#fff" d="M431.473 841.66v-1h-1v1h1Zm.53 0h1v-1h-1v1Zm0 .56v1h1v-1h-1Zm-.53 0h-1v1h1v-1Zm0-.56v1h.53v-2h-.53v1Zm.53 0h-1v.56h2v-.56h-1Zm0 .56v-1h-.53v2h.53v-1Zm-.53 0h1v-.56h-2v.56h1Z" mask="url(#ae)"/></g><path fill="#1F375B" stroke="#fff" d="M445.232 840.99v1.901h-1.74v-1.901h1.74Z" opacity=".62"/><path fill="#1F375B" stroke="#fff" d="M457.402 841.48v.93h-.82v-.93h.82Z" opacity=".55"/><path fill="#1F375B" stroke="#fff" d="M469.644 841.9v.09h-.031v-.09h.031Z" opacity=".89"/><path fill="#1F375B" stroke="#fff" d="M482.463 841.701v.481h-.401v-.481h.401Zm12.838-.221v.93h-.821v-.93h.821Z" opacity=".66"/><g opacity=".9"><mask id="af" fill="#fff"><path d="M507.683 841.771h-.32v.34h.32v-.34Z"/></mask><path fill="#1F375B" d="M507.683 841.771h-.32v.34h.32v-.34Z"/><path fill="#fff" d="M507.363 841.771v-1h-1v1h1Zm.32 0h1v-1h-1v1Zm0 .34v1h1v-1h-1Zm-.32 0h-1v1h1v-1Zm0-.34v1h.32v-2h-.32v1Zm.32 0h-1v.34h2v-.34h-1Zm0 .34v-1h-.32v2h.32v-1Zm-.32 0h1v-.34h-2v.34h1Z" mask="url(#af)"/></g><path fill="#1F375B" stroke="#fff" d="M521.101 840.92v2.059h-1.89v-2.059h1.89Z" opacity=".79"/><path fill="#1F375B" stroke="#fff" d="M533.353 841.32v1.25h-1.13v-1.25h1.13Z" opacity=".69"/><g opacity=".79"><mask id="ag" fill="#fff"><path d="M545.861 841.471h-.9v.95h.9v-.95Z"/></mask><path fill="#1F375B" d="M545.861 841.471h-.9v.95h.9v-.95Z"/><path fill="#fff" d="M544.961 841.471v-1h-1v1h1Zm.9 0h1v-1h-1v1Zm0 .95v1h1v-1h-1Zm-.9 0h-1v1h1v-1Zm0-.95v1h.9v-2h-.9v1Zm.9 0h-1v.95h2v-.95h-1Zm0 .95v-1h-.9v2h.9v-1Zm-.9 0h1v-.95h-2v.95h1Z" mask="url(#ag)"/></g><g opacity=".59"><mask id="ah" fill="#fff"><path d="M558.453 841.51h-.82v.87h.82v-.87Z"/></mask><path fill="#1F375B" d="M558.453 841.51h-.82v.87h.82v-.87Z"/><path fill="#fff" d="M557.633 841.51v-1h-1v1h1Zm.82 0h1v-1h-1v1Zm0 .87v1h1v-1h-1Zm-.82 0h-1v1h1v-1Zm0-.87v1h.82v-2h-.82v1Zm.82 0h-1v.87h2v-.87h-1Zm0 .87v-1h-.82v2h.82v-1Zm-.82 0h1v-.87h-2v.87h1Z" mask="url(#ah)"/></g><path fill="#1F375B" stroke="#fff" d="M584.114 841.061v1.759h-1.61v-1.759h1.61Z" opacity=".74"/><path fill="#1F375B" stroke="#fff" d="M596.604 841.211v1.47h-1.331v-1.47h1.331Z" opacity=".85"/><path fill="#1F375B" stroke="#fff" d="M621.433 841.67v.54h-.46v-.54h.46Z" opacity=".71"/><g opacity=".7"><mask id="ai" fill="#fff"><path d="M394.332 854.791h-.98v1.04h.98v-1.04Z"/></mask><path fill="#1F375B" d="M394.332 854.791h-.98v1.04h.98v-1.04Z"/><path fill="#fff" d="M393.352 854.791v-1h-1v1h1Zm.98 0h1v-1h-1v1Zm0 1.04v1h1v-1h-1Zm-.98 0h-1v1h1v-1Zm0-1.04v1h.98v-2h-.98v1Zm.98 0h-1v1.04h2v-1.04h-1Zm0 1.04v-1h-.98v2h.98v-1Zm-.98 0h1v-1.04h-2v1.04h1Z" mask="url(#ai)"/></g><path fill="#1F375B" stroke="#fff" d="M406.844 854.881v.849h-.75v-.849h.75Z" opacity=".58"/><g opacity=".5"><mask id="aj" fill="#fff"><path d="M419.583 854.801h-.95v1h.95v-1Z"/></mask><path fill="#1F375B" d="M419.583 854.801h-.95v1h.95v-1Z"/><path fill="#fff" d="M418.633 854.801v-1h-1v1h1Zm.95 0h1v-1h-1v1Zm0 1v1h1v-1h-1Zm-.95 0h-1v1h1v-1Zm0-1v1h.95v-2h-.95v1Zm.95 0h-1v1h2v-1h-1Zm0 1v-1h-.95v2h.95v-1Zm-.95 0h1v-1h-2v1h1Z" mask="url(#aj)"/></g><g opacity=".75"><mask id="ak" fill="#fff"><path d="M432.222 854.791h-.98v1.04h.98v-1.04Z"/></mask><path fill="#1F375B" d="M432.222 854.791h-.98v1.04h.98v-1.04Z"/><path fill="#fff" d="M431.242 854.791v-1h-1v1h1Zm.98 0h1v-1h-1v1Zm0 1.04v1h1v-1h-1Zm-.98 0h-1v1h1v-1Zm0-1.04v1h.98v-2h-.98v1Zm.98 0h-1v1.04h2v-1.04h-1Zm0 1.04v-1h-.98v2h.98v-1Zm-.98 0h1v-1.04h-2v1.04h1Z" mask="url(#ak)"/></g><path fill="#1F375B" stroke="#fff" d="M444.49 855.141v.33h-.26v-.33h.26Z" opacity=".54"/><path fill="#1F375B" stroke="#fff" d="M457.591 854.641v1.33h-1.2v-1.33h1.2Z" opacity=".72"/><path fill="#1F375B" stroke="#fff" d="M469.881 855v.6h-.51v-.6h.51Z" opacity=".69"/><path fill="#1F375B" stroke="#fff" d="M482.69 854.82v.97h-.87v-.97h.87Z" opacity=".51"/><path fill="#1F375B" stroke="#fff" d="M497.241 852.781v5.04h-4.71v-5.04h4.71Z" opacity=".5"/><path fill="#1F375B" stroke="#fff" d="M507.693 855.09v.43h-.349v-.43h.349Z" opacity=".63"/><path fill="#1F375B" stroke="#fff" d="M521.142 854.24v2.14h-1.97v-2.14h1.97Z" opacity=".59"/><path fill="#1F375B" stroke="#fff" d="M533.181 854.852v.919h-.81v-.919h.81Z" opacity=".61"/><g opacity=".52"><mask id="al" fill="#fff"><path d="M545.693 855.01h-.56v.59h.56v-.59Z"/></mask><path fill="#1F375B" d="M545.693 855.01h-.56v.59h.56v-.59Z"/><path fill="#fff" d="M545.133 855.01v-1h-1v1h1Zm.56 0h1v-1h-1v1Zm0 .59v1h1v-1h-1Zm-.56 0h-1v1h1v-1Zm0-.59v1h.56v-2h-.56v1Zm.56 0h-1v.59h2v-.59h-1Zm0 .59v-1h-.56v2h.56v-1Zm-.56 0h1v-.59h-2v.59h1Z" mask="url(#al)"/></g><path fill="#1F375B" stroke="#fff" d="M558.762 854.521v1.571h-1.43v-1.571h1.43Z" opacity=".86"/><path fill="#1F375B" stroke="#fff" d="M572.432 853.42v3.77h-3.51v-3.77h3.51Z" opacity=".94"/><path fill="#1F375B" stroke="#fff" d="M583.803 854.75v1.11h-.991v-1.11h.991Z" opacity=".51"/><path fill="#1F375B" stroke="#fff" d="M596.514 854.67v1.28h-1.151v-1.28h1.151Z" opacity=".55"/><path fill="#1F375B" stroke="#fff" d="M609.261 854.541v1.53h-1.39v-1.53h1.39Z" opacity=".74"/><path fill="#1F375B" stroke="#fff" d="M394.713 867.721v1.9h-1.74v-1.9h1.74Z" opacity=".9"/><g opacity=".72"><mask id="am" fill="#fff"><path d="M406.944 868.17h-.94v1h.94v-1Z"/></mask><path fill="#1F375B" d="M406.944 868.17h-.94v1h.94v-1Z"/><path fill="#fff" d="M406.004 868.17v-1h-1v1h1Zm.94 0h1v-1h-1v1Zm0 1v1h1v-1h-1Zm-.94 0h-1v1h1v-1Zm0-1v1h.94v-2h-.94v1Zm.94 0h-1v1h2v-1h-1Zm0 1v-1h-.94v2h.94v-1Zm-.94 0h1v-1h-2v1h1Z" mask="url(#am)"/></g><path fill="#1F375B" stroke="#fff" d="M420.184 867.5v2.34h-2.161v-2.34h2.161Z" opacity=".87"/><g opacity=".56"><mask id="an" fill="#fff"><path d="M432.013 868.371h-.56v.6h.56v-.6Z"/></mask><path fill="#1F375B" d="M432.013 868.371h-.56v.6h.56v-.6Z"/><path fill="#fff" d="M431.453 868.371v-1h-1v1h1Zm.56 0h1v-1h-1v1Zm0 .6v1h1v-1h-1Zm-.56 0h-1v1h1v-1Zm0-.6v1h.56v-2h-.56v1Zm.56 0h-1v.6h2v-.6h-1Zm0 .6v-1h-.56v2h.56v-1Zm-.56 0h1v-.6h-2v.6h1Z" mask="url(#an)"/></g><path fill="#1F375B" stroke="#fff" d="M445.791 867.131v3.07h-2.85v-3.07h2.85Z" opacity=".75"/><path fill="#1F375B" stroke="#fff" d="M458.543 867.01v3.33h-3.09v-3.33h3.09Z" opacity=".7"/><path fill="#1F375B" stroke="#fff" d="M470.772 867.432v2.469h-2.28v-2.469h2.28Z" opacity=".79"/><path fill="#1F375B" stroke="#fff" d="M482.95 867.91v1.521h-1.38v-1.521h1.38Z" opacity=".78"/><g opacity=".82"><mask id="ao" fill="#fff"><path d="M495.221 868.32h-.67v.71h.67v-.71Z"/></mask><path fill="#1F375B" d="M495.221 868.32h-.67v.71h.67v-.71Z"/><path fill="#fff" d="M494.551 868.32v-1h-1v1h1Zm.67 0h1v-1h-1v1Zm0 .71v1h1v-1h-1Zm-.67 0h-1v1h1v-1Zm0-.71v1h.67v-2h-.67v1Zm.67 0h-1v.71h2v-.71h-1Zm0 .71v-1h-.67v2h.67v-1Zm-.67 0h1v-.71h-2v.71h1Z" mask="url(#ao)"/></g><path fill="#1F375B" stroke="#fff" d="M508.014 868.111v1.111h-.991v-1.111h.991Z" opacity=".93"/><g opacity=".73"><mask id="ap" fill="#fff"><path d="M520.491 868.301h-.69v.73h.69v-.73Z"/></mask><path fill="#1F375B" d="M520.491 868.301h-.69v.73h.69v-.73Z"/><path fill="#fff" d="M519.801 868.301v-1h-1v1h1Zm.69 0h1v-1h-1v1Zm0 .73v1h1v-1h-1Zm-.69 0h-1v1h1v-1Zm0-.73v1h.69v-2h-.69v1Zm.69 0h-1v.73h2v-.73h-1Zm0 .73v-1h-.69v2h.69v-1Zm-.69 0h1v-.73h-2v.73h1Z" mask="url(#ap)"/></g><path fill="#1F375B" stroke="#fff" d="M546.121 867.9v1.54h-1.41v-1.54h1.41Z" opacity=".91"/><path fill="#1F375B" stroke="#fff" d="M559.692 866.9v3.531h-3.29V866.9h3.29Z" opacity=".65"/><path fill="#1F375B" stroke="#fff" d="M570.754 868.551v.23h-.16v-.23h.16Z" opacity=".8"/><g opacity=".57"><mask id="aq" fill="#fff"><path d="M583.622 868.34h-.63v.67h.63v-.67Z"/></mask><path fill="#1F375B" d="M583.622 868.34h-.63v.67h.63v-.67Z"/><path fill="#fff" d="M582.992 868.34v-1h-1v1h1Zm.63 0h1v-1h-1v1Zm0 .67v1h1v-1h-1Zm-.63 0h-1v1h1v-1Zm0-.67v1h.63v-2h-.63v1Zm.63 0h-1v.67h2v-.67h-1Zm0 .67v-1h-.63v2h.63v-1Zm-.63 0h1v-.67h-2v.67h1Z" mask="url(#aq)"/></g><g opacity=".62"><mask id="ar" fill="#fff"><path d="M608.941 868.271h-.75v.8h.75v-.8Z"/></mask><path fill="#1F375B" d="M608.941 868.271h-.75v.8h.75v-.8Z"/><path fill="#fff" d="M608.191 868.271v-1h-1v1h1Zm.75 0h1v-1h-1v1Zm0 .8v1h1v-1h-1Zm-.75 0h-1v1h1v-1Zm0-.8v1h.75v-2h-.75v1Zm.75 0h-1v.8h2v-.8h-1Zm0 .8v-1h-.75v2h.75v-1Zm-.75 0h1v-.8h-2v.8h1Z" mask="url(#ar)"/></g><path fill="#1F375B" stroke="#fff" d="M622.843 866.9v3.531h-3.281V866.9h3.281Z" opacity=".5"/><path fill="#1F375B" stroke="#fff" d="M394.932 880.861v2.35h-2.17v-2.35h2.17Z" opacity=".93"/><path fill="#1F375B" stroke="#fff" d="M419.903 881.15v1.77h-1.61v-1.77h1.61Z" opacity=".89"/><path fill="#1F375B" stroke="#fff" d="M433.73 879.891v4.29h-4v-4.29h4Z" opacity=".78"/><g opacity=".92"><mask id="as" fill="#fff"><path d="M444.783 881.59h-.83v.88h.83v-.88Z"/></mask><path fill="#1F375B" d="M444.783 881.59h-.83v.88h.83v-.88Z"/><path fill="#fff" d="M443.953 881.59v-1h-1v1h1Zm.83 0h1v-1h-1v1Zm0 .88v1h1v-1h-1Zm-.83 0h-1v1h1v-1Zm0-.88v1h.83v-2h-.83v1Zm.83 0h-1v.88h2v-.88h-1Zm0 .88v-1h-.83v2h.83v-1Zm-.83 0h1v-.88h-2v.88h1Z" mask="url(#as)"/></g><g opacity=".79"><mask id="at" fill="#fff"><path d="M457.263 881.74h-.54v.58h.54v-.58Z"/></mask><path fill="#1F375B" d="M457.263 881.74h-.54v.58h.54v-.58Z"/><path fill="#fff" d="M456.723 881.74v-1h-1v1h1Zm.54 0h1v-1h-1v1Zm0 .58v1h1v-1h-1Zm-.54 0h-1v1h1v-1Zm0-.58v1h.54v-2h-.54v1Zm.54 0h-1v.58h2v-.58h-1Zm0 .58v-1h-.54v2h.54v-1Zm-.54 0h1v-.58h-2v.58h1Z" mask="url(#at)"/></g><path fill="#1F375B" stroke="#fff" d="M470.222 881.371v1.32h-1.191v-1.32h1.191Z" opacity=".77"/><path fill="#1F375B" stroke="#fff" d="M495.29 881.57v.92h-.81v-.92h.81Z" opacity=".54"/><path fill="#1F375B" stroke="#fff" d="M508.163 881.32v1.42h-1.28v-1.42h1.28Z" opacity=".77"/><path fill="#1F375B" stroke="#fff" d="M521.372 880.711v2.65h-2.45v-2.65h2.45Z" opacity=".92"/><path fill="#1F375B" stroke="#fff" d="M532.882 881.891v.28h-.21v-.28h.21Z" opacity=".76"/><path fill="#1F375B" stroke="#fff" d="M547.071 880.25v3.56h-3.309v-3.56h3.309Z" opacity=".92"/><path fill="#1F375B" stroke="#fff" d="M559.053 880.941v2.18h-2.01v-2.18h2.01Z" opacity=".78"/><path fill="#1F375B" stroke="#fff" d="M571.37 881.271v1.531h-1.39v-1.531h1.39Z" opacity=".55"/><g opacity=".7"><mask id="au" fill="#fff"><path d="M583.573 881.75h-.53v.56h.53v-.56Z"/></mask><path fill="#1F375B" d="M583.573 881.75h-.53v.56h.53v-.56Z"/><path fill="#fff" d="M583.043 881.75v-1h-1v1h1Zm.53 0h1v-1h-1v1Zm0 .56v1h1v-1h-1Zm-.53 0h-1v1h1v-1Zm0-.56v1h.53v-2h-.53v1Zm.53 0h-1v.56h2v-.56h-1Zm0 .56v-1h-.53v2h.53v-1Zm-.53 0h1v-.56h-2v.56h1Z" mask="url(#au)"/></g><path fill="#1F375B" stroke="#fff" d="M596.534 881.371v1.31h-1.19v-1.31h1.19Z" opacity=".91"/><path fill="#1F375B" stroke="#fff" d="M608.951 881.602v.86h-.76v-.86h.76Z" opacity=".73"/><path fill="#1F375B" stroke="#fff" d="M622.033 881.121v1.82h-1.67v-1.82h1.67Z" opacity=".86"/><path fill="#1F375B" stroke="#fff" d="M394.442 894.73v1.331h-1.2v-1.331h1.2Z" opacity=".62"/><path fill="#1F375B" stroke="#fff" d="M406.694 895.131v.53h-.44v-.53h.44Z" opacity=".73"/><path fill="#1F375B" stroke="#fff" d="M419.982 894.432v1.929h-1.759v-1.929h1.759Z" opacity=".69"/><path fill="#1F375B" stroke="#fff" d="M433.224 893.791v3.2h-2.97v-3.2h2.97Z" opacity=".83"/><g opacity=".72"><mask id="av" fill="#fff"><path d="M444.82 894.91h-.91v.97h.91v-.97Z"/></mask><path fill="#1F375B" d="M444.82 894.91h-.91v.97h.91v-.97Z"/><path fill="#fff" d="M443.91 894.91v-1h-1v1h1Zm.91 0h1v-1h-1v1Zm0 .97v1h1v-1h-1Zm-.91 0h-1v1h1v-1Zm0-.97v1h.91v-2h-.91v1Zm.91 0h-1v.97h2v-.97h-1Zm0 .97v-1h-.91v2h.91v-1Zm-.91 0h1v-.97h-2v.97h1Z" mask="url(#av)"/></g><path fill="#1F375B" stroke="#fff" d="M458.701 893.561v3.679h-3.42v-3.679h3.42Z" opacity=".94"/><path fill="#1F375B" stroke="#fff" d="M470.862 894.07v2.66h-2.46v-2.66h2.46Z" opacity=".93"/><path fill="#1F375B" stroke="#fff" d="M482.772 894.82v1.151h-1.03v-1.151h1.03Z" opacity=".55"/><path fill="#1F375B" stroke="#fff" d="M507.794 895.08v.63h-.54v-.63h.54Z" opacity=".9"/><path fill="#1F375B" stroke="#fff" d="M520.32 895.191v.411h-.34v-.411h.34Z" opacity=".78"/><path fill="#1F375B" stroke="#fff" d="M546.394 894.33v2.13h-1.96v-2.13h1.96Z" opacity=".62"/><path fill="#1F375B" stroke="#fff" d="M558.541 894.84v1.099h-.99v-1.099h.99Z" opacity=".67"/><path fill="#1F375B" stroke="#fff" d="M571.383 894.621v1.55h-1.41v-1.55h1.41Z" opacity=".62"/><path fill="#1F375B" stroke="#fff" d="M584.152 894.48v1.831h-1.679v-1.831h1.679Z" opacity=".72"/><path fill="#1F375B" stroke="#fff" d="M596.952 894.291v2.2h-2.03v-2.2h2.03Z" opacity=".64"/><path fill="#1F375B" stroke="#fff" d="M609.102 894.801v1.19h-1.071v-1.19h1.071Z" opacity=".78"/><path fill="#1F375B" stroke="#fff" d="M621.611 894.932v.94h-.83v-.94h.83Z" opacity=".74"/><path fill="#1F375B" stroke="#fff" d="M395.271 907.221v3.08h-2.861v-3.08h2.861Z" opacity=".71"/><g opacity=".7"><mask id="aw" fill="#fff"><path d="M406.813 908.4h-.68v.72h.68v-.72Z"/></mask><path fill="#1F375B" d="M406.813 908.4h-.68v.72h.68v-.72Z"/><path fill="#fff" d="M406.133 908.4v-1h-1v1h1Zm.68 0h1v-1h-1v1Zm0 .72v1h1v-1h-1Zm-.68 0h-1v1h1v-1Zm0-.72v1h.68v-2h-.68v1Zm.68 0h-1v.72h2v-.72h-1Zm0 .72v-1h-.68v2h.68v-1Zm-.68 0h1v-.72h-2v.72h1Z" mask="url(#aw)"/></g><path fill="#1F375B" stroke="#fff" d="M419.491 908.311v.889h-.78v-.889h.78Z" opacity=".73"/><path fill="#1F375B" stroke="#fff" d="M432.331 908.102v1.32h-1.19v-1.32h1.19Z" opacity=".88"/><path fill="#1F375B" stroke="#fff" d="M446.94 906.01v5.49h-5.139v-5.49h5.139Z" opacity=".59"/><g opacity=".73"><mask id="ax" fill="#fff"><path d="M457.393 908.352h-.78v.82h.78v-.82Z"/></mask><path fill="#1F375B" d="M457.393 908.352h-.78v.82h.78v-.82Z"/><path fill="#fff" d="M456.613 908.352v-1h-1v1h1Zm.78 0h1v-1h-1v1Zm0 .82v1h1v-1h-1Zm-.78 0h-1v1h1v-1Zm0-.82v1h.78v-2h-.78v1Zm.78 0h-1v.82h2v-.82h-1Zm0 .82v-1h-.78v2h.78v-1Zm-.78 0h1v-.82h-2v.82h1Z" mask="url(#ax)"/></g><g opacity=".59"><mask id="ay" fill="#fff"><path d="M469.793 908.58h-.34v.36h.34v-.36Z"/></mask><path fill="#1F375B" d="M469.793 908.58h-.34v.36h.34v-.36Z"/><path fill="#fff" d="M469.453 908.58v-1h-1v1h1Zm.34 0h1v-1h-1v1Zm0 .36v1h1v-1h-1Zm-.34 0h-1v1h1v-1Zm0-.36v1h.34v-2h-.34v1Zm.34 0h-1v.36h2v-.36h-1Zm0 .36v-1h-.34v2h.34v-1Zm-.34 0h1v-.36h-2v.36h1Z" mask="url(#ay)"/></g><path fill="#1F375B" stroke="#fff" d="M483.871 907.021v3.481h-3.23v-3.481h3.23Z" opacity=".51"/><path fill="#1F375B" stroke="#fff" d="M507.891 908.33v.85h-.75v-.85h.75Z" opacity=".64"/><path fill="#1F375B" stroke="#fff" d="M546.332 907.75v2.01h-1.84v-2.01h1.84Z" opacity=".61"/><path fill="#1F375B" stroke="#fff" d="M558.172 908.602v.32h-.25v-.32h.25Z" opacity=".71"/><path fill="#1F375B" stroke="#fff" d="M571.894 907.441v2.64h-2.441v-2.64h2.441Z" opacity=".86"/><path fill="#1F375B" stroke="#fff" d="M583.382 908.66v.2h-.14v-.2h.14Z" opacity=".69"/><path fill="#1F375B" stroke="#fff" d="M596.962 907.641v2.24h-2.06v-2.24h2.06Z" opacity=".53"/><path fill="#1F375B" stroke="#fff" d="M609.123 908.15v1.231h-1.1v-1.231h1.1Z" opacity=".55"/><path fill="#1F375B" stroke="#fff" d="M623.013 906.811v3.9h-3.63v-3.9h3.63Z" opacity=".8"/><path fill="#1F375B" stroke="#fff" d="M393.95 921.971v.29h-.22v-.29h.22Z" opacity=".52"/><path fill="#1F375B" stroke="#fff" d="M407.311 921.211v1.82h-1.67v-1.82h1.67Z" opacity=".55"/><path fill="#1F375B" stroke="#fff" d="M432.271 921.521v1.201h-1.08v-1.201h1.08Z" opacity=".66"/><path fill="#1F375B" stroke="#fff" d="M444.443 922.01v.21h-.15v-.21h.15Z" opacity=".91"/><g opacity=".56"><mask id="az" fill="#fff"><path d="M457.472 921.611h-.96v1.01h.96v-1.01Z"/></mask><path fill="#1F375B" d="M457.472 921.611h-.96v1.01h.96v-1.01Z"/><path fill="#fff" d="M456.512 921.611v-1h-1v1h1Zm.96 0h1v-1h-1v1Zm0 1.01v1h1v-1h-1Zm-.96 0h-1v1h1v-1Zm0-1.01v1h.96v-2h-.96v1Zm.96 0h-1v1.01h2v-1.01h-1Zm0 1.01v-1h-.96v2h.96v-1Zm-.96 0h1v-1.01h-2v1.01h1Z" mask="url(#az)"/></g><path fill="#1F375B" stroke="#fff" d="M469.703 922v.23h-.16V922h.16Z" opacity=".88"/><path fill="#1F375B" stroke="#fff" d="M496.051 920.861v2.51h-2.321v-2.51h2.321Z" opacity=".8"/><path fill="#1F375B" stroke="#fff" d="M507.841 921.76v.719h-.63v-.719h.63Z" opacity=".88"/><path fill="#1F375B" stroke="#fff" d="M520.792 921.41v1.41h-1.28v-1.41h1.28Z" opacity=".77"/><path fill="#1F375B" stroke="#fff" d="M533.134 921.721v.8h-.7v-.8h.7Z" opacity=".65"/><path fill="#1F375B" stroke="#fff" d="M547.612 919.771v4.701h-4.389v-4.701h4.389Z" opacity=".66"/><path fill="#1F375B" stroke="#fff" d="M558.313 921.811v.629h-.54v-.629h.54Z" opacity=".57"/><g opacity=".91"><mask id="aA" fill="#fff"><path d="M583.661 921.74h-.72v.76h.72v-.76Z"/></mask><path fill="#1F375B" d="M583.661 921.74h-.72v.76h.72v-.76Z"/><path fill="#fff" d="M582.941 921.74v-1h-1v1h1Zm.72 0h1v-1h-1v1Zm0 .76v1h1v-1h-1Zm-.72 0h-1v1h1v-1Zm0-.76v1h.72v-2h-.72v1Zm.72 0h-1v.76h2v-.76h-1Zm0 .76v-1h-.72v2h.72v-1Zm-.72 0h1v-.76h-2v.76h1Z" mask="url(#aA)"/></g><path fill="#1F375B" stroke="#fff" d="M596.411 921.59v1.07h-.95v-1.07h.95Z" opacity=".66"/><path fill="#1F375B" stroke="#fff" d="M608.613 922.041v.16h-.09v-.16h.09Z" opacity=".62"/><path fill="#1F375B" stroke="#fff" d="M621.333 921.951v.34h-.271v-.34h.271Z" opacity=".92"/></g></g><defs><clipPath id="a"><path fill="#fff" d="M0 0h1080v1080H0z"/></clipPath></defs></svg>