<svg xmlns="http://www.w3.org/2000/svg" width="31" height="23" fill="none"><path fill="#5E59E8" d="M19.898 13.28c-.25.103-.51.187-.749.197-.374.02-.79-.135-1.008-.322-.344-.292-.593-.458-.697-.957a2.248 2.248 0 0 1 .02-.749c.094-.416-.01-.676-.3-.925-.24-.198-.542-.25-.874-.25-.333 0-.24-.052-.323-.104-.135-.073-.25-.239-.145-.457.03-.073.208-.24.239-.26.447-.26.977-.177 1.456.02.447.177.78.52 1.268.988.5.572.583.728.874 1.155.218.332.426.686.561 1.081.084.25-.02.447-.322.572v.01Zm-3.941-2.018c0-.218.177-.385.395-.385.218 0 .094.01.135.021.052.02.104.052.146.094a.377.377 0 0 1 .114.27.395.395 0 0 1-.395.395.386.386 0 0 1-.385-.395h-.01Zm-1.269 8.163c-2.651-2.08-3.93-2.766-4.46-2.735-.5.031-.406.593-.292.967.114.364.26.614.468.936.146.208.24.53-.146.76-.852.53-2.34-.178-2.402-.209-1.726-1.019-3.171-2.36-4.18-4.19-.988-1.768-1.55-3.66-1.643-5.678-.02-.489.115-.666.603-.749a6.106 6.106 0 0 1 1.945-.052c2.703.395 5.002 1.602 6.936 3.515 1.102 1.092 1.934 2.392 2.787 3.66.915 1.352 1.892 2.641 3.14 3.692.447.374.79.655 1.133.852-1.019.115-2.714.136-3.868-.78l-.02.01ZM30.11 2.288c-.322-.156-.457.146-.655.291-.062.052-.114.115-.177.177-.468.5-1.019.832-1.747.79-1.05-.062-1.944.27-2.745 1.082-.166-.988-.728-1.58-1.58-1.966-.447-.197-.895-.395-1.206-.821-.219-.302-.281-.645-.385-.978-.073-.208-.136-.405-.375-.447-.25-.041-.353.177-.447.354-.395.728-.55 1.518-.54 2.33.03 1.819.8 3.275 2.329 4.304.177.115.218.24.166.406-.104.353-.229.696-.343 1.05-.073.229-.177.28-.416.177-.842-.354-1.56-.874-2.204-1.498-1.082-1.05-2.07-2.204-3.286-3.12a9.232 9.232 0 0 0-.874-.592c-1.248-1.217.166-2.215.489-2.33.343-.124.125-.55-.988-.54-1.102 0-2.11.374-3.41.874a4.933 4.933 0 0 1-.594.176 12.181 12.181 0 0 0-3.65-.125c-2.391.26-4.304 1.394-5.698 3.328C.11 7.519-.286 10.15.203 12.895c.51 2.89 1.986 5.293 4.263 7.164 2.35 1.945 5.065 2.891 8.163 2.714 1.883-.104 3.973-.364 6.333-2.36.593.29 1.217.416 2.257.499.8.073 1.57-.042 2.162-.156.936-.198.874-1.06.53-1.217-2.734-1.279-2.13-.759-2.672-1.175 1.383-1.643 3.484-3.348 4.295-8.88.062-.437.01-.718 0-1.071 0-.219.042-.302.291-.323.687-.083 1.352-.27 1.955-.603 1.768-.967 2.485-2.558 2.652-4.46.02-.292 0-.593-.312-.75l-.01.011Z"/></svg>