<svg xmlns="http://www.w3.org/2000/svg" width="42" height="41" fill="none"><path fill="#000" d="M33.255 29.39a.396.396 0 0 1-.21-.73l-.519.299-1.152.666-2.339 1.352-4.022 2.321-3.825 2.209.196.113c.121.07.197.199.197.34v.228l3.803-2.195.044-.025h.003l.002-.003 3.973-2.293.01-.005.038-.02 3.619-2.09.38-.218a.38.38 0 0 1-.196.052h-.002Zm8.43-5.114a.43.43 0 0 0-.034-.097.405.405 0 0 0-.075-.102.38.38 0 0 0-.082-.063l-.009-.005a.39.39 0 0 0-.384.005l-4.008 2.313-.01.005-4.015 2.318-.007.004-.005.003-.008.005-.52.299-1.153.666-7.717 4.454-2.47 1.426-.198.113a.394.394 0 0 0-.197.34v4.645a.396.396 0 0 0 .319.385.382.382 0 0 0 .152 0 .389.389 0 0 0 .098-.032s.015-.009.023-.012l4.023-2.32.037-.023c.001 0 .003-.002.005-.006h.002l3.779-2.181.197-.113.59-.34 4.022-2.32 7.456-4.303c.121-.07.197-.2.197-.34v-4.645a.298.298 0 0 0-.008-.078v-.001Zm-.78 4.494-15.892 9.171a.262.262 0 0 0-.042.029l-3.39 1.955V36.19l3.803-2.195.044-.025h.003l.002-.004 3.973-2.293.01-.004.038-.02 3.619-2.09.38-.219 4.022-2.321 3.43-1.98v3.734-.003Z"/><path fill="#000" d="M20.992 40.947a.394.394 0 0 1-.198-.34v-.682l-3.388-1.954a.388.388 0 0 0-.043-.028l-4.023-2.32a.394.394 0 0 1 0 .682l-.197.113 3.78 2.181c.014.012.03.02.045.03l4.022 2.32s.015.009.024.012l-.024-.012.002-.002Zm.395-5.324-.196-.113-6.327-3.653-1.52-.877-2.444-1.41-2.711-1.566-2.89-1.669-4.021-2.32a.396.396 0 0 0-.59.34V29c0 .14.074.271.197.34l7.452 4.299.549.316.044.03.192.111 3.238 1.868.788.455 3.781 2.182c.014.011.029.02.044.03l4.022 2.32.024.012a.382.382 0 0 0 .25.032.506.506 0 0 0 .097-.032l.024-.014a.391.391 0 0 0 .197-.34v-4.645a.389.389 0 0 0-.197-.341h-.003Zm-4.023 2.32-4.022-2.32-3.979-2.294a.377.377 0 0 0-.044-.03l-7.847-4.526v-3.735l.088.05 6.123 3.535 1.243.719 2.975 1.717 1.046.604 1.055.61 2.967 1.713 3.824 2.207v3.736l-3.388-1.954a.404.404 0 0 0-.044-.029l.003-.003Z"/><path fill="#000" d="M4.903 27.01.881 24.69a.394.394 0 0 1 0-.682l20.11-11.611a.39.39 0 0 1 .393 0l4.023 2.325-.393.681-3.825-2.21L1.866 24.35l3.432 1.979-.393.681h-.002Z"/><path fill="#000" d="m25.405 14.716-.393.682 4.022 2.32.393-.682-4.022-2.32Z"/><path fill="#000" d="m29.422 17.037-.395.682 4.022 2.323.394-.682-4.021-2.323Zm4.026 2.327-.393.683 4.022 2.32.393-.683-4.022-2.32Z"/><path fill="#000" d="M21.185 36.344a.398.398 0 0 1-.198-.052l-4.022-2.32.393-.682 3.825 2.207 19.322-11.153-3.431-1.983.393-.681 4.022 2.325a.394.394 0 0 1 0 .682l-20.11 11.608a.388.388 0 0 1-.198.052l.004-.003Z"/><mask id="a" width="41" height="24" x="1" y="12" maskUnits="userSpaceOnUse" style="mask-type:luminance"><path fill="#fff" d="M1.277 24.01 21.03 12.703 41.498 24.01 21.165 35.778 1.277 24.01Z"/></mask><g fill="#1F375B" mask="url(#a)"><path d="M6.01 12.516h-.182v.192h.182v-.192Z" opacity=".65"/><path d="M12.763 12.516h-.189v.199h.19v-.2Z" opacity=".58"/><path d="M20.395 12.477h-.254v.27h.254v-.27Z" opacity=".72"/><path d="M22.893 12.516h-.186v.195h.186v-.195Z" opacity=".51"/><path d="M26.334 12.453h-.31v.33h.31v-.33Z" opacity=".78"/><path d="M28.036 12.43h-.345v.362h.345v-.362Z" opacity=".6"/><path d="M29.677 12.484h-.243v.258h.243v-.258Z" opacity=".76"/><path d="M31.345 12.516h-.204v.216h.204v-.216Z" opacity=".53"/><path d="M33.036 12.508h-.208v.217h.208v-.217Z" opacity=".69"/><path d="M33.93 12.46h-.301v.32h.3v-.32Z" opacity=".71"/><path d="M40.631 12.508h-.21v.22h.21v-.22Z" opacity=".67"/><path d="M1.823 13.375H1.57v.267h.253v-.267Z" opacity=".92"/><path d="M3.448 13.445h-.12v.127h.12v-.127Z" opacity=".76"/><path d="M4.28 13.46h-.096v.102h.096v-.101Z" opacity=".67"/><path d="M5.245 13.328h-.343v.363h.343v-.363Z" opacity=".88"/><path d="M7.74 13.375h-.27v.287h.271v-.287Zm.75.102h-.08v.084h.08v-.084Z" opacity=".87"/><path d="M9.39 13.406h-.195v.206h.194v-.206Z" opacity=".79"/><path d="M10.244 13.398h-.213v.225h.213v-.225Z" opacity=".91"/><path d="M11.86 13.484h-.06v.063h.06v-.063Z" opacity=".87"/><path d="M12.675 13.492h-.015v.017h.015v-.017Z" opacity=".8"/><path d="M13.584 13.438h-.139v.146h.139v-.146Z" opacity=".71"/><path d="M14.383 13.492h-.043v.044h.043v-.044Z" opacity=".57"/><path d="M15.248 13.469h-.088v.093h.088v-.093Z" opacity=".68"/><path d="M16.152 13.398h-.21v.223h.21v-.223Z" opacity=".91"/><path d="M16.913 13.492h-.046v.05h.046v-.05Z" opacity=".74"/><path d="M17.817 13.43h-.16v.17h.16v-.17Z" opacity=".77"/><path d="M18.657 13.43h-.153v.163h.153v-.163Z" opacity=".91"/><path d="M19.516 13.414h-.184v.194h.184v-.194Z" opacity=".71"/><path d="M20.348 13.422h-.168v.179h.168v-.18Z" opacity=".62"/><path d="M21.154 13.469h-.088v.093h.088v-.093Z" opacity=".83"/><path d="M21.99 13.484h-.064v.069h.065v-.069Z" opacity=".58"/><path d="M22.812 13.492h-.019v.02h.019v-.02Z" opacity=".55"/><path d="M23.689 13.46h-.091v.097h.09v-.096Z" opacity=".8"/><path d="M24.522 13.484h-.065v.07h.065v-.07Z" opacity=".83"/><path d="M25.36 13.484h-.047v.052h.047v-.052Z" opacity=".71"/><path d="M26.214 13.477h-.077v.08h.077v-.08Z" opacity=".59"/><path d="M27.103 13.422h-.166v.175h.166v-.175Z" opacity=".74"/><path d="M27.978 13.383h-.228v.241h.228v-.241Z" opacity=".84"/><path d="M28.783 13.43h-.15v.158h.15v-.158Z" opacity=".89"/><path d="M29.582 13.484h-.05v.053h.05v-.053Z" opacity=".79"/><path d="M30.545 13.36h-.287v.303h.287v-.304Z" opacity=".63"/><path d="M31.331 13.414h-.179v.189h.18v-.189Z" opacity=".91"/><path d="M32.203 13.383h-.234v.248h.234v-.248Z" opacity=".68"/><path d="M33.016 13.422h-.172v.184h.172v-.184Z" opacity=".53"/><path d="M34.668 13.46h-.098v.105h.098v-.104Z" opacity=".8"/><path d="M35.646 13.313h-.373v.394h.373v-.395Z" opacity=".81"/><path d="M36.346 13.477h-.076v.08h.075v-.08Z" opacity=".83"/><path d="M37.305 13.352H37v.322h.305v-.322Z" opacity=".51"/><path d="M38.074 13.43h-.152v.16h.152v-.16Z" opacity=".9"/><path d="M38.967 13.375h-.26v.275h.26v-.275Z" opacity=".74"/><path d="M39.767 13.422h-.165v.175h.165v-.175Z" opacity=".82"/><path d="M40.596 13.43h-.143v.152h.143v-.152Z" opacity=".57"/><path d="M41.513 13.367h-.279v.294h.279v-.294Z" opacity=".59"/><path d="M1.793 14.297h-.195v.207h.195v-.207Z" opacity=".57"/><path d="M2.572 14.36h-.068v.071h.068v-.072Z" opacity=".61"/><path d="M3.475 14.305h-.186v.197h.186v-.197Z" opacity=".84"/><path d="M4.287 14.336h-.123v.131h.123v-.131Z" opacity=".69"/><path d="M5.137 14.336h-.133v.14h.133v-.14Z" opacity=".54"/><path d="M5.952 14.367h-.061v.065h.061v-.065Z" opacity=".64"/><path d="M6.856 14.297h-.192v.204h.192v-.204Z" opacity=".52"/><path d="M7.703 14.29h-.2v.21h.2v-.21Z" opacity=".57"/><path d="M9.323 14.367h-.061v.065h.061v-.065Z" opacity=".91"/><path d="M10.162 14.367h-.057v.06h.057v-.06Z" opacity=".56"/><path d="M11.11 14.266h-.25v.264h.25v-.264Z" opacity=".82"/><path d="M11.857 14.367h-.056v.058h.056v-.058Z" opacity=".58"/><path d="M13.537 14.375h-.045v.048h.044v-.048Z" opacity=".72"/><path d="M15.223 14.383h-.04v.043h.04v-.043Z" opacity=".62"/><path d="M16.099 14.344h-.107v.113h.107v-.113Z" opacity=".78"/><path d="M16.962 14.328h-.146v.154h.146v-.154Z" opacity=".71"/><path d="M17.804 14.328h-.144v.152h.144v-.152Z" opacity=".55"/><path d="M18.63 14.344h-.11v.118h.11v-.118Z" opacity=".65"/><path d="M19.453 14.375h-.05v.053h.05v-.053Z" opacity=".6"/><path d="M20.311 14.352h-.08v.084h.08v-.084Zm.842 0h-.083v.087h.083v-.087Z" opacity=".87"/><path d="M22.007 14.344h-.105v.111h.105v-.111Z" opacity=".92"/><path d="M22.908 14.281h-.213v.225h.213v-.225Z" opacity=".88"/><path d="M23.703 14.336h-.121v.128h.121v-.128Z" opacity=".65"/><path d="M24.574 14.313h-.164v.172h.164v-.172Z" opacity=".8"/><path d="M25.357 14.375h-.044v.048h.044v-.048Z" opacity=".89"/><path d="M26.194 14.383h-.038v.039h.038v-.04Z" opacity=".52"/><path d="M27.183 14.219h-.324v.344h.324v-.344Z" opacity=".63"/><path d="M27.91 14.344h-.094v.1h.093v-.1Z" opacity=".76"/><path d="M28.811 14.29h-.206v.217h.206v-.218Z" opacity=".53"/><path d="M29.686 14.258h-.268v.285h.268v-.285Z" opacity=".94"/><path d="M30.504 14.281h-.211v.225h.21v-.225Z" opacity=".93"/><path d="M31.294 14.344h-.107v.113h.107v-.113Z" opacity=".89"/><path d="M32.118 14.367h-.063v.068h.063v-.068Z" opacity=".72"/><path d="M32.993 14.336h-.122v.128h.122v-.128Z" opacity=".67"/><path d="M33.814 14.36h-.072v.074h.072v-.075Z" opacity=".75"/><path d="M34.646 14.375h-.044v.048h.044v-.048Z" opacity=".94"/><path d="M35.558 14.297h-.187v.197h.187v-.197Z" opacity=".54"/><path d="M36.386 14.32h-.156v.164h.156v-.164Z" opacity=".8"/><path d="M37.24 14.313h-.17v.178h.17v-.178Z" opacity=".62"/><path d="M38.037 14.36h-.076v.08h.076v-.08Z" opacity=".84"/><path d="M38.866 14.375h-.05v.051h.05v-.051Z" opacity=".5"/><path d="M39.837 14.234h-.302v.32h.302v-.32Z" opacity=".75"/><path d="M40.546 14.383h-.034v.037h.034v-.037Z" opacity=".58"/><path d="M41.398 14.367h-.054v.058h.054v-.058Z" opacity=".68"/><path d="M3.427 15.25h-.08v.083h.08v-.083Z" opacity=".71"/><path d="M5.136 15.227h-.128v.134h.128v-.134Z" opacity=".85"/><path d="M6.877 15.18h-.225v.236h.225v-.236Z" opacity=".91"/><path d="M7.716 15.188H7.5v.229h.216v-.23Z" opacity=".67"/><path d="M8.483 15.258h-.065v.068h.065v-.068Z" opacity=".64"/><path d="M10.196 15.234h-.122v.129h.122v-.129Z" opacity=".6"/><path d="M11.026 15.25h-.085v.09h.085v-.09Z" opacity=".82"/><path d="M11.897 15.219h-.143v.152h.143v-.152Z" opacity=".56"/><path d="M12.725 15.242h-.108v.115h.108v-.115Z" opacity=".57"/><path d="M13.594 15.21h-.156v.168h.156v-.167Z" opacity=".58"/><path d="M14.409 15.25h-.097v.101h.097v-.101Z" opacity=".62"/><path d="M15.21 15.29h-.019v.02h.02v-.02Z" opacity=".92"/><path d="M16.215 15.117h-.332v.351h.332v-.35Z" opacity=".78"/><path d="M16.979 15.195h-.174v.184h.174v-.184Z" opacity=".88"/><path d="M18.607 15.266h-.056v.06h.056v-.06Z" opacity=".79"/><path d="M20.366 15.195h-.194v.206h.194v-.206Z" opacity=".69"/><path d="M21.236 15.164h-.248v.262h.248v-.262Z" opacity=".64"/><path d="M22.01 15.242h-.104v.108h.103v-.108Z" opacity=".8"/><path d="M22.958 15.133h-.317v.336h.317v-.336Z" opacity=".84"/><path d="M23.756 15.18h-.22v.232h.22v-.232Z" opacity=".86"/><path d="M24.634 15.14h-.286v.304h.287v-.303Z" opacity=".53"/><path d="M25.477 15.133h-.293v.31h.293v-.31Z" opacity=".78"/><path d="M26.288 15.188h-.214v.227h.214v-.227Z" opacity=".66"/><path d="M27.1 15.21h-.159v.168h.159v-.167Z" opacity=".81"/><path d="M27.881 15.281h-.037v.04h.037v-.04Z" opacity=".53"/><path d="M28.761 15.242h-.1v.108h.1v-.108Z" opacity=".93"/><path d="M29.62 15.227h-.128v.136h.128v-.136Z" opacity=".5"/><path d="M31.3 15.234h-.12v.127h.12v-.127Z" opacity=".91"/><path d="M32.136 15.242h-.1v.106h.1v-.106Z" opacity=".87"/><path d="M32.949 15.281h-.031v.033h.03v-.033Z" opacity=".8"/><path d="M33.79 15.273h-.04v.043h.04v-.043Z" opacity=".74"/><path d="M34.679 15.234h-.117v.123h.117v-.123Z" opacity=".86"/><path d="M35.615 15.133h-.31v.329h.31v-.33Z" opacity=".5"/><path d="M36.367 15.227h-.125v.133h.125v-.133Z" opacity=".68"/><path d="M38.084 15.195h-.174v.184h.174v-.184Z" opacity=".69"/><path d="M38.875 15.258h-.07v.075h.07v-.075Z" opacity=".88"/><path d="M39.776 15.195h-.178v.19h.178v-.19Z" opacity=".76"/><path d="M40.674 15.14h-.283v.3h.283v-.3Z" opacity=".86"/><path d="M41.42 15.25h-.088v.093h.088v-.093Z" opacity=".65"/><path d="M1.853 16.016h-.314v.332h.314v-.332Z" opacity=".94"/><path d="M2.594 16.125h-.11v.116h.11v-.116Z" opacity=".59"/><path d="M3.405 16.164h-.038v.04h.038v-.04Z" opacity=".61"/><path d="M4.292 16.117h-.128v.137h.128v-.137Z" opacity=".55"/><path d="M5.15 16.102h-.158v.167h.159v-.167Zm.828.015h-.126v.135h.126v-.135Z" opacity=".59"/><path d="M6.785 16.164h-.043v.044h.043v-.044Z" opacity=".62"/><path d="M7.625 16.164h-.04v.041h.04v-.04Z" opacity=".78"/><path d="M8.575 16.047H8.32v.27h.255v-.27Z" opacity=".69"/><path d="M9.378 16.102h-.167v.177h.167v-.177Z" opacity=".6"/><path d="M10.226 16.094h-.18v.189h.18v-.19Z" opacity=".8"/><path d="M11.838 16.164h-.025v.027h.025v-.027Z" opacity=".81"/><path d="M12.738 16.11h-.14v.148h.14v-.149Zm.846 0h-.135v.141h.135v-.142Z" opacity=".51"/><path d="M16.15 16.07h-.209v.221h.21v-.22Z" opacity=".84"/><path d="M17.01 16.055h-.237v.251h.237v-.251Z" opacity=".68"/><path d="M17.934 15.984h-.391v.415h.391v-.415Z" opacity=".85"/><path d="M19.523 16.078h-.203v.214h.203v-.214Z" opacity=".81"/><path d="M20.349 16.102h-.165v.175h.165v-.175Z" opacity=".53"/><path d="M21.282 16h-.345v.364h.345V16Z" opacity=".64"/><path d="M22.081 16.055h-.241v.254h.241v-.254Z" opacity=".63"/><path d="M24.545 16.125h-.111v.116h.111v-.116Z" opacity=".87"/><path d="M25.41 16.102h-.144v.153h.145v-.153Z" opacity=".89"/><path d="M26.29 16.07h-.216v.228h.216v-.228Z" opacity=".62"/><path d="M27.062 16.156h-.07v.074h.07v-.074Z" opacity=".92"/><path d="M27.929 16.117h-.128v.135h.128v-.135Zm.836.008h-.117v.123h.117v-.123Z" opacity=".87"/><path d="M30.437 16.148h-.074v.077h.074v-.077Zm.881-.046h-.15v.158h.15v-.158Z" opacity=".51"/><path d="M32.11 16.164h-.044v.044h.043v-.044Z" opacity=".67"/><path d="M32.956 16.164h-.046v.048h.046v-.048Z" opacity=".6"/><path d="M33.835 16.125h-.116v.123h.116v-.123Z" opacity=".63"/><path d="M34.702 16.102h-.159v.168h.159v-.168Z" opacity=".53"/><path d="M36.385 16.102h-.162v.17h.162v-.17Z" opacity=".9"/><path d="M37.201 16.14h-.088v.092h.088v-.091Z" opacity=".83"/><path d="M38.052 16.125h-.118v.125h.118v-.125Z" opacity=".62"/><path d="M38.875 16.156h-.07v.074h.07v-.074Z" opacity=".88"/><path d="M39.7 16.164h-.036v.038h.036v-.038Z" opacity=".55"/><path d="M40.636 16.07h-.214v.226h.214v-.226Z" opacity=".91"/><path d="M41.452 16.102h-.155v.165h.155v-.165Z" opacity=".76"/><path d="M1.723 17.055h-.051v.053h.051v-.053Z" opacity=".87"/><path d="M4.258 17.047h-.063v.068h.063v-.068Z" opacity=".62"/><path d="M5.118 17.031h-.095v.1h.095v-.1Z" opacity=".89"/><path d="M6.774 17.07H6.75v.024h.024v-.024Z" opacity=".56"/><path d="M7.625 17.063h-.043v.044h.043v-.044Zm1.031-.196h-.41v.434h.41v-.434Z" opacity=".5"/><path d="M9.304 17.07h-.019v.02h.019v-.02Z" opacity=".64"/><path d="M10.302 16.906h-.318v.336h.318v-.336Z" opacity=".86"/><path d="M10.996 17.063h-.039v.042h.04v-.043Z" opacity=".5"/><path d="M11.907 17h-.157v.165h.157V17Z" opacity=".89"/><path d="M12.756 16.992h-.17v.179h.17v-.179Z" opacity=".57"/><path d="M14.43 17.008h-.14v.15h.14v-.15Z" opacity=".73"/><path d="M15.21 17.07h-.019v.02h.02v-.02Z" opacity=".67"/><path d="M16.07 17.055h-.05v.054h.05v-.054Z" opacity=".55"/><path d="M16.91 17.063h-.031v.032h.03v-.032Z" opacity=".86"/><path d="M17.79 17.016h-.11v.116h.11v-.116Z" opacity=".52"/><path d="M18.671 16.992h-.179v.19h.179v-.19Z" opacity=".74"/><path d="M19.518 16.984h-.186v.196h.186v-.196Z" opacity=".9"/><path d="M20.35 17h-.163v.17h.162V17Z" opacity=".52"/><path d="M21.247 16.938h-.267v.281h.267v-.282Z" opacity=".54"/><path d="M22.046 16.992h-.179v.19h.179v-.19Z" opacity=".66"/><path d="M22.876 17.008h-.153v.164h.153v-.164Z" opacity=".94"/><path d="M23.66 17.063h-.035v.037h.034v-.038Z" opacity=".93"/><path d="M24.649 16.906h-.32v.34h.32v-.34Z" opacity=".67"/><path d="M25.427 16.984h-.189v.2h.19v-.2Z" opacity=".87"/><path d="M26.234 17.016h-.113v.12h.113v-.12Z" opacity=".5"/><path d="M27.084 17.016h-.123v.13h.123v-.13Z" opacity=".8"/><path d="M27.945 17h-.16v.17h.16V17Z" opacity=".6"/><path d="M28.74 17.047h-.06v.065h.06v-.065Z" opacity=".66"/><path d="M29.578 17.063h-.043v.044h.043v-.044Z" opacity=".53"/><path d="M30.456 17.023h-.108v.114h.108v-.114Z" opacity=".74"/><path d="M31.274 17.047h-.067v.07h.067v-.07Z" opacity=".76"/><path d="M32.136 17.023h-.1v.108h.1v-.108Z" opacity=".72"/><path d="M33.027 16.977h-.191v.2h.19v-.2Z" opacity=".52"/><path d="M34.711 16.984h-.184v.196h.184v-.196Z" opacity=".89"/><path d="M35.53 17.008h-.132v.14h.132v-.14Z" opacity=".93"/><path d="M36.418 16.96h-.223v.235h.223v-.234Z" opacity=".75"/><path d="M38.9 17.016h-.119v.125h.118v-.125Z" opacity=".56"/><path d="M39.753 17.008h-.14v.148h.14v-.148Z" opacity=".9"/><path d="M40.64 16.96h-.222v.235h.223v-.234Z" opacity=".56"/><path d="M41.398 17.055h-.046v.05h.046v-.05Z" opacity=".79"/><path d="M1.762 17.898H1.63v.142h.133v-.142Z" opacity=".72"/><path d="M2.684 17.82h-.286v.302h.286v-.302Z" opacity=".94"/><path d="M3.508 17.852h-.246v.261h.246v-.261Z" opacity=".66"/><path d="M4.437 17.75h-.425v.45h.425v-.45Z" opacity=".79"/><path d="M5.137 17.898h-.133v.142h.133v-.142Z" opacity=".74"/><path d="M5.975 17.914h-.112v.116h.112v-.116Zm.953-.117h-.334v.354h.334v-.354Z" opacity=".56"/><path d="M7.704 17.875h-.196v.207h.196v-.207Z" opacity=".9"/><path d="M9.333 17.93h-.075v.08h.075v-.08Z" opacity=".89"/><path d="M11.121 17.82h-.285v.302h.285v-.302Z" opacity=".64"/><path d="M12.682 17.96h-.026v.028h.026v-.027Z" opacity=".84"/><path d="M14.506 17.82h-.295v.312h.295v-.312Z" opacity=".93"/><path d="M15.326 17.852h-.248v.263h.248v-.263Z" opacity=".69"/><path d="M16.065 17.953h-.038v.04h.038v-.04Z" opacity=".79"/><path d="M16.91 17.953h-.035v.036h.034v-.036Z" opacity=".74"/><path d="M17.75 17.96h-.031v.033h.03v-.032Z" opacity=".77"/><path d="M18.697 17.86h-.236v.25h.236v-.25Z" opacity=".73"/><path d="M19.57 17.82h-.293v.31h.294v-.31Z" opacity=".59"/><path d="M20.297 17.938h-.067v.07h.067v-.07Z" opacity=".8"/><path d="M21.15 17.93h-.076v.08h.075v-.08Z" opacity=".53"/><path d="M22.084 17.852h-.248v.261h.248v-.261Z" opacity=".84"/><path d="M22.822 17.953h-.045V18h.045v-.046Z" opacity=".82"/><path d="M24.517 17.945h-.048v.052h.047v-.052Z" opacity=".69"/><path d="M25.378 17.922h-.093v.1h.093v-.1Z" opacity=".81"/><path d="M27.081 17.906h-.116v.123h.116v-.123Z" opacity=".69"/><path d="M28.007 17.82h-.288v.306h.288v-.306Z" opacity=".67"/><path d="M28.739 17.945h-.052v.053h.052v-.053Z" opacity=".52"/><path d="M29.637 17.883h-.16v.17h.16v-.17Z" opacity=".75"/><path d="M31.27 17.938h-.063v.068h.063v-.069Z" opacity=".76"/><path d="M32.12 17.938h-.065v.07h.065v-.07Z" opacity=".67"/><path d="M32.983 17.914h-.104v.11h.105v-.11Z" opacity=".94"/><path d="M33.855 17.875h-.164v.174h.164v-.174Z" opacity=".54"/><path d="M35.507 17.922h-.089v.094h.09v-.094Z" opacity=".68"/><path d="M37.176 17.945h-.051V18h.051v-.055Z" opacity=".59"/><path d="M38.067 17.898h-.133v.142h.133v-.142Z" opacity=".94"/><path d="M38.889 17.922h-.1v.104h.1v-.104Z" opacity=".76"/><path d="M39.762 17.883h-.157v.165h.157v-.165Z" opacity=".55"/><path d="M40.722 17.766h-.39v.411h.39v-.411Z" opacity=".86"/><path d="M41.415 17.922h-.083v.088h.083v-.088Z" opacity=".84"/><path d="M1.718 18.836h-.042v.046h.042v-.046Z" opacity=".64"/><path d="M2.572 18.828h-.068v.072h.068v-.072Z" opacity=".65"/><path d="M3.519 18.727h-.265v.28h.265v-.28Z" opacity=".85"/><path d="M4.416 18.664h-.373v.395h.373v-.395Z" opacity=".68"/><path d="M5.092 18.836H5.05v.043h.04v-.043Z" opacity=".54"/><path d="M5.99 18.79h-.138v.146h.138v-.147Z" opacity=".6"/><path d="M6.786 18.836h-.048v.051h.048v-.051Z" opacity=".52"/><path d="M7.631 18.836h-.053v.056h.053v-.056Z" opacity=".83"/><path d="M9.34 18.82h-.094v.1h.095v-.1Z" opacity=".72"/><path d="M10.268 18.727h-.26v.275h.26v-.275Z" opacity=".64"/><path d="M11.123 18.71h-.287v.305h.287v-.304Z" opacity=".9"/><path d="M11.946 18.734h-.243v.258h.243v-.258Z" opacity=".78"/><path d="M13.58 18.805h-.123v.13h.123v-.13Z" opacity=".84"/><path d="M14.414 18.813H14.3v.118h.113v-.119Z" opacity=".85"/><path d="M16.083 18.828h-.075v.079h.075v-.079Z" opacity=".8"/><path d="M17 18.742h-.223v.236H17v-.236Z" opacity=".64"/><path d="M17.794 18.805h-.118v.125h.118v-.125Z" opacity=".54"/><path d="M18.617 18.828h-.078v.083h.078v-.083Z" opacity=".65"/><path d="M19.502 18.79h-.15v.158h.15v-.159Z" opacity=".67"/><path d="M21.135 18.836h-.05v.051h.05v-.051Z" opacity=".94"/><path d="M21.983 18.836h-.053v.055h.053v-.055Z" opacity=".74"/><path d="M22.89 18.773h-.183v.195h.184v-.195Z" opacity=".69"/><path d="M23.732 18.773h-.173v.184h.173v-.184Z" opacity=".85"/><path d="M24.607 18.734h-.24v.253h.24v-.253Z" opacity=".82"/><path d="M25.366 18.828h-.073v.079h.073v-.079Z" opacity=".84"/><path d="M26.21 18.836h-.066v.07h.065v-.07Z" opacity=".64"/><path d="M27.074 18.813h-.101v.108h.1v-.108Z" opacity=".71"/><path d="M27.969 18.75h-.211v.223h.21v-.223Z" opacity=".51"/><path d="M28.746 18.828h-.07v.073h.07v-.073Z" opacity=".7"/><path d="M29.713 18.695h-.319v.338h.32v-.338Z" opacity=".59"/><path d="M31.298 18.805h-.118v.125h.118v-.125Z" opacity=".92"/><path d="M32.112 18.836h-.05v.053h.05v-.053Z" opacity=".88"/><path d="M33.034 18.758h-.206v.217h.206v-.217Z" opacity=".94"/><path d="M34.707 18.773h-.172v.183h.172v-.183Z" opacity=".8"/><path d="M35.483 18.844h-.034v.036h.034v-.036Z" opacity=".91"/><path d="M36.363 18.813h-.113v.12h.113v-.12Z" opacity=".94"/><path d="M37.26 18.75h-.213v.224h.213v-.224Z" opacity=".69"/><path d="M38.052 18.805h-.114v.12h.114v-.12Z" opacity=".8"/><path d="M38.962 18.734h-.243v.258h.243v-.258Z" opacity=".88"/><path d="M39.788 18.758h-.206v.217h.206v-.217Z" opacity=".5"/><path d="M41.452 18.781h-.155v.166h.155v-.166Z" opacity=".84"/><path d="M2.56 19.742h-.037v.038h.036v-.038Z" opacity=".62"/><path d="M3.446 19.695h-.118v.125h.118v-.125Z" opacity=".91"/><path d="M4.245 19.742h-.034v.036h.034v-.036Zm1.037-.195h-.415v.438h.415v-.438Z" opacity=".89"/><path d="M5.958 19.719h-.083v.087h.083v-.087Z" opacity=".66"/><path d="M6.843 19.68H6.68v.172h.163v-.172Z" opacity=".6"/><path d="M7.683 19.68h-.152v.16h.152v-.16Z" opacity=".69"/><path d="M8.462 19.742H8.43v.034h.032v-.034Z" opacity=".62"/><path d="M9.391 19.664h-.196v.208h.196v-.208Z" opacity=".94"/><path d="M10.206 19.688h-.14v.148h.14v-.148Z" opacity=".63"/><path d="M11.057 19.68h-.147v.155h.147v-.155Z" opacity=".81"/><path d="M11.884 19.695h-.114v.122h.114v-.122Z" opacity=".6"/><path d="M12.68 19.75h-.02v.022h.02v-.022Z" opacity=".77"/><path d="M13.529 19.742H13.5v.03h.029v-.03Z" opacity=".82"/><path d="M15.3 19.664h-.19v.202h.19v-.202Z" opacity=".91"/><path d="M16.165 19.64h-.227v.242h.227v-.241Z" opacity=".79"/><path d="M16.927 19.719h-.075v.08h.075v-.08Z" opacity=".74"/><path d="M17.843 19.648h-.214v.227h.214v-.227Z" opacity=".6"/><path d="M18.656 19.68h-.148v.157h.148v-.157Z" opacity=".78"/><path d="M19.444 19.742h-.038v.04h.038v-.04Z" opacity=".52"/><path d="M20.302 19.727h-.072v.075h.072v-.075Z" opacity=".64"/><path d="M21.15 19.719h-.076v.08h.076v-.08Z" opacity=".61"/><path d="M22.024 19.688h-.133v.141h.133v-.142Z" opacity=".9"/><path d="M22.866 19.695h-.132v.139h.132v-.139Z" opacity=".69"/><path d="M24.56 19.688h-.142v.15h.142v-.15Z" opacity=".75"/><path d="M25.44 19.648h-.213v.227h.214v-.227Z" opacity=".59"/><path d="M26.253 19.68h-.155v.163h.155v-.163Z" opacity=".78"/><path d="M27.106 19.68h-.169v.178h.17v-.178Z" opacity=".82"/><path d="M27.996 19.617h-.258v.272h.258v-.272Z" opacity=".76"/><path d="M29.609 19.703h-.101v.106h.101v-.106Z" opacity=".92"/><path d="M30.42 19.742h-.033v.034h.032v-.034Z" opacity=".77"/><path d="M31.3 19.695h-.116v.123h.116v-.123Z" opacity=".7"/><path d="M32.168 19.68h-.16v.168h.16v-.168Z" opacity=".81"/><path d="M33.89 19.633h-.234v.248h.235v-.248Z" opacity=".92"/><path d="M34.675 19.695h-.112v.12h.112v-.12Z" opacity=".6"/><path d="M35.517 19.703h-.103v.108h.103v-.108Z" opacity=".72"/><path d="M36.447 19.617h-.271v.287h.271v-.287Z" opacity=".63"/><path d="M37.176 19.734h-.051v.053h.051v-.053Z" opacity=".73"/><path d="M38.06 19.695h-.126v.134h.126v-.134Z" opacity=".71"/><path d="M39.008 19.586h-.332v.35h.332v-.35Z" opacity=".64"/><path d="M39.744 19.695h-.115v.122h.115v-.122Z" opacity=".51"/><path d="M40.55 19.742h-.038v.041h.039v-.04Z" opacity=".87"/><path d="M41.41 19.719h-.078v.082h.078v-.082Z" opacity=".71"/><path d="M1.717 20.633H1.68v.039h.037v-.04Z" opacity=".81"/><path d="M3.404 20.64h-.029v.031h.029v-.03Z" opacity=".52"/><path d="M4.296 20.586h-.132v.14h.132v-.14Z" opacity=".92"/><path d="M5.122 20.594H5.02v.108h.102v-.108Z" opacity=".82"/><path d="M6.047 20.523h-.25v.265h.25v-.265Z" opacity=".55"/><path d="M6.918 20.477h-.32v.339h.32v-.34Z" opacity=".93"/><path d="M7.739 20.508h-.27v.285h.27v-.285Z" opacity=".85"/><path d="M8.544 20.547h-.189v.199h.19v-.2Z" opacity=".87"/><path d="M9.325 20.617h-.063v.067h.063v-.067Z" opacity=".72"/><path d="M10.209 20.578h-.139v.145h.139v-.145Z" opacity=".56"/><path d="M11.001 20.633h-.044v.046h.044v-.046Z" opacity=".81"/><path d="M11.928 20.54h-.21v.222h.21v-.223Z" opacity=".73"/><path d="M14.452 20.547h-.19v.202h.19v-.202Z" opacity=".56"/><path d="M15.306 20.54h-.204v.215h.204v-.216Z" opacity=".5"/><path d="M16.13 20.563h-.161v.172h.162v-.172Z" opacity=".73"/><path d="M16.907 20.64h-.032v.035h.032v-.034Z" opacity=".79"/><path d="M17.861 20.516h-.26v.275h.26v-.275Z" opacity=".88"/><path d="M18.614 20.61h-.075v.078h.075v-.079Z" opacity=".55"/><path d="M19.528 20.54h-.208v.218h.208v-.219Z" opacity=".82"/><path d="M21.183 20.578h-.14v.147h.14v-.147Z" opacity=".75"/><path d="M22.008 20.594h-.098v.103h.098v-.103Z" opacity=".94"/><path d="M22.86 20.594h-.118v.125h.118v-.125Z" opacity=".65"/><path d="M23.689 20.602h-.091v.096h.09v-.096Z" opacity=".73"/><path d="M24.541 20.594h-.1v.104h.1v-.104Zm1.749-.063h-.224v.238h.225v-.238Z" opacity=".78"/><path d="M27.158 20.508h-.271v.287h.271v-.287Z" opacity=".89"/><path d="M27.933 20.578h-.14v.149h.14v-.149Z" opacity=".64"/><path d="M28.763 20.594h-.115v.121h.115v-.121Z" opacity=".69"/><path d="M29.678 20.523h-.248v.262h.248v-.262Z" opacity=".84"/><path d="M30.495 20.547H30.3v.206h.194v-.206Z" opacity=".51"/><path d="M31.268 20.625h-.05v.051h.05v-.051Z" opacity=".7"/><path d="M32.964 20.617h-.062v.065h.062v-.065Z" opacity=".52"/><path d="M33.836 20.586h-.125v.133h.125v-.133Z" opacity=".61"/><path d="M34.698 20.57h-.155v.164h.155v-.164Z" opacity=".63"/><path d="M35.513 20.594h-.103v.11h.103v-.11Z" opacity=".86"/><path d="M36.37 20.586h-.128v.137h.128v-.137Z" opacity=".91"/><path d="M37.165 20.64h-.032v.035h.032v-.034Z" opacity=".62"/><path d="M38.06 20.586h-.126v.133h.126v-.133Z" opacity=".84"/><path d="M38.898 20.594h-.113v.12h.113v-.12Z" opacity=".81"/><path d="M39.702 20.633h-.038v.039h.038v-.04Z" opacity=".84"/><path d="M40.74 20.43h-.424v.447h.424v-.447Z" opacity=".79"/><path d="M41.403 20.617h-.063v.067h.063v-.067Z" opacity=".51"/><path d="M1.753 21.492h-.108v.115h.108v-.115Z" opacity=".71"/><path d="M3.42 21.516h-.068v.071h.068v-.071Z" opacity=".58"/><path d="M4.244 21.531h-.03v.031h.03v-.03Z" opacity=".79"/><path d="M5.116 21.5H5.03v.09h.085v-.09Z" opacity=".64"/><path d="M5.956 21.508h-.073v.077h.073v-.077Z" opacity=".75"/><path d="M6.84 21.46h-.16v.17h.16v-.17Z" opacity=".64"/><path d="M7.663 21.484h-.12v.127h.12v-.127Z" opacity=".76"/><path d="M8.555 21.438h-.207v.219h.207v-.22Z" opacity=".91"/><path d="M9.376 21.46h-.157v.166h.157v-.165Z" opacity=".66"/><path d="M10.227 21.445h-.18v.191h.18v-.19Z" opacity=".5"/><path d="M11.89 21.477h-.128v.136h.128v-.136Z" opacity=".53"/><path d="M13.708 21.336h-.388v.412h.388v-.412Z" opacity=".8"/><path d="M14.422 21.477h-.133v.141h.133v-.141Z" opacity=".6"/><path d="M15.313 21.43h-.223v.236h.223v-.236Z" opacity=".74"/><path d="M16.067 21.523h-.04v.043h.04v-.043Z" opacity=".68"/><path d="M17.827 21.453h-.179v.19h.18v-.19Z" opacity=".64"/><path d="M18.628 21.5h-.093v.096h.093V21.5Z" opacity=".56"/><path d="M20.29 21.523h-.044v.047h.044v-.047Z" opacity=".55"/><path d="M21.15 21.508h-.076v.078h.075v-.078Z" opacity=".88"/><path d="M22.006 21.5h-.1v.105h.1V21.5Z" opacity=".51"/><path d="M22.888 21.453h-.177v.187h.177v-.187Z" opacity=".83"/><path d="M23.688 21.5h-.082v.088h.082V21.5Z" opacity=".8"/><path d="M24.612 21.414h-.245v.26h.245v-.26Z" opacity=".78"/><path d="M25.41 21.46h-.156v.168h.157v-.167Z" opacity=".77"/><path d="M26.2 21.523h-.044v.047h.045v-.047Z" opacity=".94"/><path d="M27.093 21.477h-.14v.146h.14v-.146Z" opacity=".68"/><path d="M28.021 21.383h-.31v.327h.31v-.327Z" opacity=".84"/><path d="M28.784 21.469h-.147v.155h.146v-.155Z" opacity=".92"/><path d="M29.588 21.516h-.065v.068h.065v-.068Z" opacity=".61"/><path d="M30.51 21.43h-.225v.24h.225v-.24Z" opacity=".78"/><path d="M32.176 21.445h-.184v.194h.184v-.194Z" opacity=".85"/><path d="M33.023 21.453h-.18v.19h.18v-.19Z" opacity=".78"/><path d="M33.928 21.39h-.3v.316h.3v-.315Z" opacity=".65"/><path d="M35.496 21.516h-.066v.07h.066v-.07Z" opacity=".69"/><path d="M36.51 21.328h-.4v.425h.4v-.425Z" opacity=".5"/><path d="M37.198 21.5h-.085v.09h.085v-.09Z" opacity=".76"/><path d="M38.07 21.469h-.144v.152h.143v-.152Z" opacity=".79"/><path d="M1.712 22.414H1.68v.034h.032v-.034Z" opacity=".85"/><path d="M2.654 22.32H2.43v.238h.224v-.238Z" opacity=".88"/><path d="M3.451 22.367h-.135v.144h.135v-.144Z" opacity=".63"/><path d="M4.292 22.367h-.128v.135h.128v-.135Z" opacity=".74"/><path d="M5.082 22.422h-.027v.03h.027v-.03Z" opacity=".87"/><path d="M5.95 22.406h-.063v.069h.063v-.069Z" opacity=".64"/><path d="M7.689 22.352h-.166v.175h.166v-.175Z" opacity=".83"/><path d="M8.533 22.352h-.162v.172h.162v-.172Z" opacity=".72"/><path d="M10.27 22.29h-.266v.28h.267v-.28Z" opacity=".68"/><path d="M11.092 22.32h-.22v.233h.22v-.233Z" opacity=".82"/><path d="M11.985 22.273h-.32v.34h.32v-.34Z" opacity=".92"/><path d="M12.744 22.36h-.15v.158h.15v-.159Z" opacity=".79"/><path d="M13.584 22.367h-.135v.144h.135v-.144Z" opacity=".89"/><path d="M14.495 22.29h-.268v.283h.268v-.284Z" opacity=".84"/><path d="M15.247 22.39h-.09v.097h.09v-.096Z" opacity=".77"/><path d="M16.224 22.258h-.349v.37h.35v-.37Z" opacity=".93"/><path d="M17.052 22.273h-.318v.336h.318v-.336Z" opacity=".5"/><path d="M17.76 22.406h-.053v.056h.053v-.056Z" opacity=".82"/><path d="M18.618 22.39h-.083v.087h.083v-.086Z" opacity=".86"/><path d="M19.431 22.43h-.017v.017h.017v-.017Z" opacity=".52"/><path d="M20.36 22.336h-.188v.199h.189v-.2Z" opacity=".6"/><path d="M21.286 22.25h-.356v.378h.356v-.378Z" opacity=".79"/><path d="M22.005 22.383h-.095v.1h.095v-.1Z" opacity=".94"/><path d="M22.849 22.383h-.103v.108h.103v-.108Z" opacity=".67"/><path d="M23.834 22.234h-.385v.407h.385v-.407Z" opacity=".84"/><path d="M24.576 22.352h-.166v.175h.166v-.175Z" opacity=".83"/><path d="M27.238 22.21h-.433v.46h.433v-.46Z" opacity=".52"/><path d="M27.913 22.383h-.093v.098h.093v-.098Z" opacity=".6"/><path d="M28.725 22.422h-.026v.027h.026v-.027Z" opacity=".53"/><path d="M29.646 22.344h-.185v.197h.186v-.197Z" opacity=".61"/><path d="M30.506 22.328h-.21v.221h.21v-.22Z" opacity=".51"/><path d="M31.29 22.383h-.095v.1h.095v-.1Z" opacity=".68"/><path d="M32.22 22.29h-.267v.28h.267v-.28Z" opacity=".7"/><path d="M32.951 22.414h-.04v.044h.04v-.044Z" opacity=".58"/><path d="M33.788 22.414h-.034v.038h.034v-.038Z" opacity=".88"/><path d="M34.737 22.313h-.23v.242h.23v-.242Z" opacity=".65"/><path d="M35.569 22.328h-.21v.221h.21v-.22Z" opacity=".64"/><path d="M36.37 22.375h-.124v.13h.123v-.13Z" opacity=".77"/><path d="M37.2 22.383h-.095v.101h.095v-.101Z" opacity=".71"/><path d="M38.016 22.414h-.035v.038h.035v-.038Z" opacity=".74"/><path d="M38.904 22.375h-.127v.133h.127v-.133Z" opacity=".68"/><path d="M39.708 22.406h-.048v.05h.048v-.05Z" opacity=".81"/><path d="M40.54 22.422h-.024v.026h.023v-.026Z" opacity=".59"/><path d="M41.41 22.398h-.078v.083h.078v-.083Z" opacity=".63"/><path d="M2.576 23.297h-.072v.075h.072v-.075Z" opacity=".58"/><path d="M3.462 23.25H3.31v.164h.153v-.164Z" opacity=".84"/><path d="M4.339 23.219H4.12v.23h.218v-.23Z" opacity=".67"/><path d="M5.28 23.117h-.413v.437h.414v-.437Z" opacity=".77"/><path d="M6.01 23.234h-.182v.193h.182v-.193Z" opacity=".83"/><path d="M8.506 23.273h-.108v.115h.108v-.115Z" opacity=".8"/><path d="M9.433 23.188h-.277v.293h.277v-.294Z" opacity=".83"/><path d="M10.273 23.188h-.277v.293h.277v-.294Z" opacity=".53"/><path d="M11.12 23.18h-.284v.3h.283v-.3Z" opacity=".63"/><path d="M11.906 23.25h-.16v.17h.16v-.17Z" opacity=".84"/><path d="M12.752 23.25h-.158v.169h.158v-.169Z" opacity=".93"/><path d="M13.565 23.281h-.096v.102h.096v-.102Z" opacity=".52"/><path d="M14.448 23.234h-.178v.19h.178v-.19Zm.849 0h-.188v.198h.188v-.198Z" opacity=".92"/><path d="M16.154 23.219h-.216v.227h.216v-.227Z" opacity=".68"/><path d="M16.995 23.227h-.202v.214h.202v-.214Z" opacity=".83"/><path d="M17.843 23.219h-.218v.23h.218v-.23Z" opacity=".7"/><path d="M18.608 23.313h-.05v.052h.05v-.052Z" opacity=".61"/><path d="M19.505 23.25h-.153v.164h.153v-.164Z" opacity=".83"/><path d="M21.13 23.313h-.04v.04h.04v-.04Z" opacity=".5"/><path d="M21.988 23.305h-.058v.061h.058v-.061Z" opacity=".88"/><path d="M22.843 23.281h-.093v.1h.093v-.1Z" opacity=".75"/><path d="M23.686 23.29h-.08v.085h.08v-.086Z" opacity=".71"/><path d="M24.582 23.234h-.184v.194h.184v-.194Z" opacity=".89"/><path d="M26.253 23.25h-.155v.165h.155v-.165Z" opacity=".79"/><path d="M27.128 23.219h-.214v.226h.214v-.226Z" opacity=".55"/><path d="M27.962 23.234h-.189v.2h.19v-.2Z" opacity=".64"/><path d="M28.758 23.281h-.098v.103h.098v-.103Z" opacity=".93"/><path d="M29.694 23.188h-.28v.295h.28v-.296Z" opacity=".84"/><path d="M30.493 23.234h-.192v.204h.192v-.204Z" opacity=".59"/><path d="M31.302 23.258h-.126v.133h.126v-.133Z" opacity=".92"/><path d="M32.222 23.195h-.265v.28h.265v-.28Z" opacity=".73"/><path d="M33.038 23.219h-.218v.23h.218v-.23Z" opacity=".68"/><path d="M33.901 23.195h-.253v.269h.253v-.269Z" opacity=".56"/><path d="M34.707 23.242h-.172v.182h.172v-.182Z" opacity=".61"/><path d="M35.517 23.273h-.107v.114h.107v-.114Z" opacity=".84"/><path d="M36.383 23.258h-.145v.152h.145v-.152Z" opacity=".66"/><path d="M37.169 23.32h-.036v.038h.036v-.038Z" opacity=".54"/><path d="M39.063 23.094h-.442v.469h.442v-.47Z" opacity=".7"/><path d="M39.771 23.242h-.173v.184h.173v-.184Z" opacity=".76"/><path d="M40.577 23.281h-.096v.102h.096v-.102Z" opacity=".58"/><path d="M1.714 24.203H1.68v.036h.034v-.036Z" opacity=".74"/><path d="M2.567 24.195h-.051v.055h.05v-.055Z" opacity=".83"/><path d="M3.412 24.195H3.36v.057h.053v-.057Z" opacity=".55"/><path d="M4.331 24.117H4.13v.214h.202v-.214Z" opacity=".57"/><path d="M5.208 24.094h-.267v.281h.267v-.281Z" opacity=".67"/><path d="M5.962 24.172h-.09v.096h.09v-.096Z" opacity=".78"/><path d="M6.846 24.133h-.17v.18h.17v-.18Z" opacity=".69"/><path d="M8.507 24.164h-.116v.125h.116v-.125Z" opacity=".6"/><path d="M9.487 24.023h-.382v.404h.382v-.404Z" opacity=".51"/><path d="M10.222 24.133h-.175v.185h.175v-.185Z" opacity=".79"/><path d="M11.095 24.11h-.224v.236h.224v-.237Z" opacity=".8"/><path d="M11.85 24.195h-.045v.05h.046v-.05Z" opacity=".84"/><path d="M13.598 24.14h-.16v.17h.16v-.17Z" opacity=".5"/><path d="M14.423 24.156h-.13v.137h.13v-.137Z" opacity=".72"/><path d="M15.255 24.172h-.107v.111h.107v-.111Z" opacity=".62"/><path d="M16.224 24.04h-.353v.372h.353v-.373Z" opacity=".87"/><path d="M16.907 24.203h-.032v.034h.032v-.034Z" opacity=".62"/><path d="M17.856 24.094h-.243v.258h.243v-.258Z" opacity=".8"/><path d="M18.61 24.195h-.055v.058h.054v-.058Z" opacity=".67"/><path d="M19.473 24.172h-.098v.104h.098v-.104Z" opacity=".62"/><path d="M20.35 24.133h-.17v.182h.17v-.182Z" opacity=".63"/><path d="M21.195 24.14h-.16v.171h.16v-.17Z" opacity=".92"/><path d="M22.078 24.102h-.238v.25h.238v-.25Z" opacity=".67"/><path d="M22.927 24.094h-.251v.265h.251v-.265Z" opacity=".73"/><path d="M24.555 24.156h-.137v.145h.137v-.145Z" opacity=".52"/><path d="M25.401 24.156h-.131v.14h.131v-.14Z" opacity=".54"/><path d="M26.249 24.156h-.143v.152h.143v-.152Z" opacity=".61"/><path d="M27.082 24.164h-.121v.128h.121v-.128Z" opacity=".53"/><path d="M27.974 24.11h-.224v.237h.224v-.238Z" opacity=".7"/><path d="M28.739 24.195h-.052v.053h.052v-.053Z" opacity=".8"/><path d="M29.597 24.172h-.09v.094h.09v-.094Z" opacity=".62"/><path d="M30.45 24.172h-.102v.11h.103v-.11Z" opacity=".6"/><path d="M31.27 24.195h-.055v.058h.054v-.058Z" opacity=".85"/><path d="M32.125 24.188h-.07v.073h.07v-.073Z" opacity=".7"/><path d="M32.987 24.164h-.116v.123h.116v-.123Z" opacity=".56"/><path d="M33.821 24.172h-.094v.1h.094v-.1Z" opacity=".8"/><path d="M35.581 24.11h-.23v.242h.23v-.243Z" opacity=".7"/><path d="M36.373 24.156h-.135v.144h.135v-.144Z" opacity=".89"/><path d="M37.25 24.117h-.195v.208h.195v-.208Z" opacity=".87"/><path d="M38.116 24.102h-.241v.254h.241v-.254Z" opacity=".7"/><path d="M39.77 24.14h-.168v.18h.168v-.18Z" opacity=".78"/><path d="M41.438 24.156h-.133v.14h.133v-.14Z" opacity=".82"/><path d="M1.76 25.047h-.135v.143h.135v-.143Z" opacity=".66"/><path d="M2.62 25.031h-.163v.172h.164v-.172Z" opacity=".91"/><path d="M3.455 25.047h-.139v.147h.139v-.147Z" opacity=".74"/><path d="M5.158 25.023h-.174v.184h.174v-.184Z" opacity=".66"/><path d="M5.967 25.063h-.1v.106h.1v-.107Z" opacity=".76"/><path d="M6.833 25.047h-.142v.15h.142v-.15Z" opacity=".88"/><path d="M7.7 25.016h-.192v.204H7.7v-.204Z" opacity=".89"/><path d="M8.464 25.094H8.43v.036h.034v-.036Z" opacity=".8"/><path d="M9.436 24.96h-.284v.301h.284v-.3Z" opacity=".57"/><path d="M10.234 25.016h-.199v.209h.2v-.21Z" opacity=".58"/><path d="M11.15 24.945h-.33v.348h.33v-.348Z" opacity=".92"/><path d="M11.897 25.04h-.147v.153h.147v-.154Z" opacity=".55"/><path d="M12.79 24.992h-.235v.252h.236v-.252Z" opacity=".57"/><path d="M13.64 24.984h-.253v.269h.253v-.269Z" opacity=".85"/><path d="M15.23 25.086h-.05v.053h.05v-.053Z" opacity=".72"/><path d="M16.09 25.07H16v.096h.09v-.096Z" opacity=".53"/><path d="M17.015 24.984h-.25v.265h.25v-.265Z" opacity=".83"/><path d="M17.83 25.016h-.19v.199h.19v-.2Z" opacity=".69"/><path d="M19.474 25.063h-.099v.106h.1v-.107Z" opacity=".54"/><path d="M20.288 25.094h-.034v.037h.034v-.037Z" opacity=".65"/><path d="M21.142 25.078h-.06v.065h.06v-.065Z" opacity=".71"/><path d="M22.965 24.953h-.324v.343h.324v-.343Z" opacity=".66"/><path d="M23.778 24.977h-.266v.281h.266v-.281Z" opacity=".62"/><path d="M24.55 25.055h-.128v.136h.128v-.136Z" opacity=".67"/><path d="M25.366 25.078h-.061v.065h.061v-.065Z" opacity=".51"/><path d="M26.339 24.953h-.316v.334h.316v-.334Z" opacity=".81"/><path d="M27.05 25.086h-.058v.06h.058v-.06Z" opacity=".82"/><path d="M28.01 24.96h-.287v.305h.287v-.304Z" opacity=".59"/><path d="M28.746 25.078h-.07v.075h.07v-.075Z" opacity=".68"/><path d="M29.637 25.031h-.16v.17h.16v-.17Z" opacity=".78"/><path d="M30.468 25.047h-.14v.15h.14v-.15Z" opacity=".65"/><path d="M31.323 25.031h-.159v.167h.159v-.167Z" opacity=".52"/><path d="M32.217 24.977h-.256v.271h.256v-.271Z" opacity=".53"/><path d="M32.952 25.094h-.038v.039h.038v-.04Zm.839 0h-.037v.039h.037v-.04Z" opacity=".92"/><path d="M34.679 25.055h-.117v.123h.117v-.123Z" opacity=".64"/><path d="M36.383 25.04h-.149v.156h.149v-.157Z" opacity=".72"/><path d="M37.258 25.008h-.211v.223h.21v-.223Z" opacity=".92"/><path d="M38.124 24.984h-.253v.267h.253v-.267Z" opacity=".81"/><path d="M38.952 25h-.221v.235h.22V25Z" opacity=".71"/><path d="M39.753 25.055h-.132v.138h.132v-.138Z" opacity=".61"/><path d="M40.598 25.04h-.145v.153h.145v-.154Z" opacity=".89"/><path d="M41.398 25.086h-.046v.05h.046v-.05Z" opacity=".67"/><path d="M1.864 25.828h-.34v.361h.34v-.36Zm.698.164H2.52v.044h.042v-.044Z" opacity=".71"/><path d="M4.268 25.969h-.08v.084h.08v-.084Z" opacity=".81"/><path d="M5.101 25.984h-.058v.062h.058v-.062Z" opacity=".82"/><path d="M5.95 25.984h-.063v.067h.063v-.067Z" opacity=".57"/><path d="M6.927 25.828H6.59v.358h.337v-.358Z" opacity=".75"/><path d="M7.704 25.914h-.196v.206h.196v-.206Z" opacity=".94"/><path d="M8.565 25.89h-.233v.247h.233v-.246Z" opacity=".54"/><path d="M9.383 25.922H9.2v.196h.184v-.196Z" opacity=".78"/><path d="M10.187 25.96h-.101v.109h.101v-.108Z" opacity=".51"/><path d="M11.02 25.977h-.075v.078h.075v-.078Z" opacity=".64"/><path d="M11.846 25.992h-.041v.043h.04v-.043Z" opacity=".63"/><path d="M12.738 25.938h-.136v.145h.136v-.145Z" opacity=".5"/><path d="M13.538 25.984h-.046v.048h.046v-.048Z" opacity=".79"/><path d="M14.4 25.969h-.08v.084h.08v-.084Z" opacity=".53"/><path d="M16.97 25.922h-.165v.175h.165v-.175Zm.817.038h-.103v.11h.102v-.11Z" opacity=".6"/><path d="M19.536 25.898h-.22v.233h.22v-.233Z" opacity=".93"/><path d="M20.363 25.922h-.191v.2h.19v-.2Z" opacity=".94"/><path d="M21.235 25.883h-.247v.26h.247v-.26Z" opacity=".8"/><path d="M22.081 25.883h-.241v.255h.241v-.255Z" opacity=".65"/><path d="M22.924 25.883h-.244v.258h.244v-.258Z" opacity=".72"/><path d="M24.55 25.945h-.124v.134h.125v-.134Z" opacity=".83"/><path d="M25.46 25.875h-.253v.268h.253v-.268Z" opacity=".59"/><path d="M26.22 25.969h-.087v.092h.088v-.092Z" opacity=".75"/><path d="M27.05 25.984h-.058v.06h.058v-.06Z" opacity=".93"/><path d="M27.972 25.898h-.218v.232h.218v-.232Zm.806.04h-.133v.14h.133v-.14Z" opacity=".85"/><path d="M30.438 25.977h-.075v.078h.075v-.078Z" opacity=".78"/><path d="M31.325 25.922h-.169v.179h.169v-.18Z" opacity=".86"/><path d="M32.258 25.828h-.336v.354h.336v-.354Z" opacity=".74"/><path d="M33.835 25.945h-.116v.123h.116v-.123Z" opacity=".84"/><path d="M35.558 25.922h-.19v.202h.19v-.202Z" opacity=".57"/><path d="M36.43 25.875h-.254v.268h.255v-.268Z" opacity=".84"/><path d="M37.212 25.945h-.126v.134h.127v-.134Z" opacity=".7"/><path d="M38.01 26h-.022v.024h.023V26Z" opacity=".94"/><path d="M38.951 25.898h-.224v.237h.224v-.237Z" opacity=".75"/><path d="M39.722 25.977h-.078v.082h.078v-.082Z" opacity=".69"/><path d="M40.57 25.969h-.082v.086h.081v-.086Z" opacity=".54"/><path d="M41.429 25.945h-.117v.123h.117v-.123Z" opacity=".89"/><path d="M1.734 26.867h-.07v.073h.07v-.073Z" opacity=".9"/><path d="M2.6 26.836h-.127v.137H2.6v-.137Z" opacity=".65"/><path d="M3.437 26.852h-.101v.106h.101v-.106Z" opacity=".83"/><path d="M4.318 26.797h-.185v.197h.185v-.197Z" opacity=".68"/><path d="M5.092 26.883H5.05v.043h.04v-.043Z" opacity=".65"/><path d="M5.996 26.82h-.152v.16h.152v-.16Z" opacity=".58"/><path d="M6.85 26.805h-.178v.19h.179v-.19Z" opacity=".82"/><path d="M7.684 26.813h-.16v.17h.16v-.17Z" opacity=".51"/><path d="M8.538 26.813h-.167v.177h.167v-.177Z" opacity=".94"/><path d="M9.382 26.805h-.179v.189h.179v-.19Z" opacity=".72"/><path d="M10.184 26.852h-.094v.1h.094v-.1Z" opacity=".65"/><path d="M11.089 26.781h-.218v.231h.218v-.23Z" opacity=".55"/><path d="M11.878 26.844h-.105v.11h.105v-.11Z" opacity=".92"/><path d="M12.746 26.82h-.152v.16h.152v-.16Zm.832.016h-.125v.132h.125v-.132Z" opacity=".83"/><path d="M14.422 26.836h-.133v.14h.133v-.14Z" opacity=".79"/><path d="M15.232 26.875h-.06v.063h.06v-.063Z" opacity=".87"/><path d="M16.166 26.773h-.232v.247h.232v-.247Z" opacity=".86"/><path d="M16.943 26.852h-.103v.107h.103v-.107Z" opacity=".84"/><path d="M18.715 26.758h-.274v.288h.274v-.288Z" opacity=".5"/><path d="M19.516 26.805h-.184V27h.184v-.195Z" opacity=".9"/><path d="M20.347 26.82h-.156v.164h.156v-.164Zm1.665.024h-.114v.12h.114v-.12Z" opacity=".74"/><path d="M22.813 26.89h-.02v.023h.02v-.022Z" opacity=".69"/><path d="M23.674 26.875h-.057v.06h.056v-.06Z" opacity=".67"/><path d="M25.411 26.82h-.153v.164h.153v-.164Z" opacity=".76"/><path d="M26.273 26.797h-.191v.202h.19v-.202Z" opacity=".8"/><path d="M27.931 26.836h-.126v.133h.126v-.133Z" opacity=".86"/><path d="M28.75 26.867h-.078v.081h.078v-.08Z" opacity=".94"/><path d="M29.66 26.79h-.207v.218h.208v-.219Z" opacity=".74"/><path d="M31.424 26.71h-.358v.38h.358v-.38Z" opacity=".64"/><path d="M32.206 26.773h-.241v.255h.241v-.255Z" opacity=".67"/><path d="M32.946 26.89h-.024v.024h.024v-.023Z" opacity=".57"/><path d="M33.786 26.89h-.024v.024h.024v-.023Z" opacity=".87"/><path d="M34.661 26.867h-.075v.079h.075v-.079Z" opacity=".93"/><path d="M35.49 26.883h-.049v.051h.05v-.051Z" opacity=".82"/><path d="M36.417 26.781h-.218v.231h.218v-.23Zm.767.086h-.067v.07h.067v-.07Z" opacity=".59"/><path d="M38.046 26.844h-.105v.111h.105v-.111Z" opacity=".69"/><path d="M39.744 26.844h-.115v.121h.115v-.121Z" opacity=".64"/><path d="M40.567 26.867h-.075v.079h.075v-.079Z" opacity=".87"/><path d="M41.498 26.773h-.248v.264h.248v-.264Z" opacity=".8"/><path d="M1.756 27.742h-.123v.13h.123v-.13Z" opacity=".93"/><path d="M2.62 27.719h-.16v.168h.16v-.168Z" opacity=".58"/><path d="M4.334 27.688h-.209v.22h.21v-.22Z" opacity=".53"/><path d="M5.268 27.594h-.385V28h.385v-.406Z" opacity=".84"/><path d="M6.025 27.68h-.224v.236h.224v-.236Z" opacity=".9"/><path d="M6.827 27.734h-.132v.14h.132v-.14Z" opacity=".65"/><path d="M7.619 27.781h-.03v.031h.03v-.03Z" opacity=".66"/><path d="M9.35 27.742h-.116v.122h.115v-.122Z" opacity=".71"/><path d="M10.29 27.625h-.306v.324h.306v-.324Z" opacity=".54"/><path d="M11.87 27.75h-.089v.095h.09v-.095Z" opacity=".78"/><path d="M12.778 27.688h-.216v.227h.216v-.227Z" opacity=".69"/><path d="M13.637 27.672h-.242v.258h.242v-.258Z" opacity=".57"/><path d="M15.28 27.719h-.151v.158h.15v-.158Z" opacity=".89"/><path d="M16.192 27.633h-.294v.31h.294v-.31Z" opacity=".92"/><path d="M16.954 27.742h-.118v.125h.118v-.125Z" opacity=".86"/><path d="M17.772 27.758h-.065v.07h.065v-.07Z" opacity=".89"/><path d="M18.608 27.766h-.053v.056h.053v-.056Z" opacity=".77"/><path d="M19.469 27.75h-.086v.091h.086v-.091Z" opacity=".61"/><path d="M20.348 27.71h-.168v.18h.168v-.18Z" opacity=".78"/><path d="M21.153 27.758h-.075v.078h.075v-.078Z" opacity=".51"/><path d="M22.112 27.625h-.315v.332h.315v-.332Z" opacity=".59"/><path d="M22.815 27.79h-.026v.026h.026v-.027Z" opacity=".58"/><path d="M24.584 27.695h-.19v.201h.19v-.2Z" opacity=".75"/><path d="M25.426 27.695h-.188v.2h.188v-.2Z" opacity=".82"/><path d="M26.248 27.727h-.139v.145h.139v-.145Z" opacity=".5"/><path d="M27.084 27.742h-.123v.13h.123v-.13Z" opacity=".67"/><path d="M27.932 27.734h-.131v.139h.131v-.139Z" opacity=".53"/><path d="M28.797 27.71h-.172v.183h.172v-.182Z" opacity=".63"/><path d="M29.584 27.766h-.053v.056h.053v-.056Z" opacity=".56"/><path d="M30.572 27.617h-.35v.37h.35v-.37Z" opacity=".88"/><path d="M31.312 27.727h-.14v.146h.14v-.146Z" opacity=".59"/><path d="M33.838 27.742h-.123v.13h.123v-.13Z" opacity=".8"/><path d="M34.746 27.664h-.25v.263h.25v-.263Z" opacity=".57"/><path d="M37.177 27.766h-.056v.06h.056v-.06Z" opacity=".88"/><path d="M38.047 27.742h-.102v.107h.102v-.107Z" opacity=".79"/><path d="M39.756 27.734h-.135v.144h.135v-.144Z" opacity=".93"/><path d="M41.448 27.727H41.3v.155h.147v-.155Zm-38.002.898h-.118v.125h.118v-.125Z" opacity=".77"/><path d="M4.28 28.64h-.096v.102h.096v-.101Z" opacity=".93"/><path d="M5.09 28.664h-.04v.043h.04v-.043Z" opacity=".89"/><path d="M5.979 28.617h-.124v.13h.124v-.13Z" opacity=".88"/><path d="M7.728 28.555h-.251v.266h.251v-.266Z" opacity=".71"/><path d="M8.473 28.656h-.051v.053h.051v-.053Z" opacity=".84"/><path d="M10.148 28.68h-.015v.017h.015v-.017Z" opacity=".59"/><path d="M11.03 28.64h-.092v.098h.092v-.097Z" opacity=".83"/><path d="M11.903 28.602h-.153v.163h.153v-.163Z" opacity=".93"/><path d="M13.636 28.563h-.238v.25h.238v-.25Zm.843-.008h-.245v.26h.245v-.26Zm.825.031h-.202v.214h.202v-.214Z" opacity=".9"/><path d="M16.189 28.54h-.279v.293h.279v-.294Z" opacity=".77"/><path d="M17.794 28.625h-.114v.122h.114v-.122Z" opacity=".82"/><path d="M18.603 28.664h-.04v.043h.04v-.043Z" opacity=".74"/><path d="M19.462 28.648h-.075v.079h.075v-.079Z" opacity=".6"/><path d="M20.316 28.64h-.093v.098h.093v-.097Z" opacity=".86"/><path d="M21.13 28.664h-.036v.038h.036v-.038Z" opacity=".93"/><path d="M22.051 28.594h-.184v.194h.184v-.194Z" opacity=".62"/><path d="M22.864 28.617h-.122v.128h.122v-.128Z" opacity=".55"/><path d="M23.68 28.656h-.07v.074h.07v-.074Z" opacity=".89"/><path d="M24.54 28.64h-.095v.1h.095v-.1Zm.851-.023h-.121v.128h.121v-.128Z" opacity=".66"/><path d="M26.19 28.68h-.022v.024h.022v-.024Z" opacity=".9"/><path d="M27.122 28.594h-.192v.204h.192v-.204Z" opacity=".79"/><path d="M27.935 28.61h-.142v.15h.142v-.15Z" opacity=".69"/><path d="M28.74 28.656h-.06v.065h.06v-.065Z" opacity=".79"/><path d="M29.584 28.656h-.057v.058h.057v-.058Z" opacity=".59"/><path d="M31.33 28.594h-.174v.184h.174v-.184Z" opacity=".74"/><path d="M32.169 28.602h-.157v.165h.157v-.165Z" opacity=".85"/><path d="M33.824 28.64h-.097v.104h.097v-.103Z" opacity=".71"/><path d="M34.707 28.594h-.172v.182h.172v-.182Z" opacity=".58"/><path d="M35.493 28.656h-.06v.063h.06v-.063Z" opacity=".71"/><path d="M36.354 28.648h-.084v.09h.084v-.09Z" opacity=".75"/><path d="M37.209 28.625h-.111v.116h.111v-.116Z" opacity=".91"/><path d="M38.872 28.656h-.063v.067h.063v-.067Z" opacity=".54"/><path d="M39.755 28.61h-.142v.151h.142v-.152Z" opacity=".93"/><path d="M40.641 28.57h-.22v.233h.22v-.233Z" opacity=".52"/><path d="M41.406 28.656h-.07v.074h.07v-.074Z" opacity=".89"/><path d="M1.734 29.547h-.07v.075h.07v-.075Z" opacity=".64"/><path d="M2.575 29.547H2.5v.08h.075v-.08Z" opacity=".52"/><path d="M3.421 29.547h-.073v.077h.073v-.077Z" opacity=".72"/><path d="M5.19 29.453h-.237v.25h.236v-.25Z" opacity=".51"/><path d="M6.855 29.484h-.19v.201h.19v-.2Z" opacity=".78"/><path d="M7.639 29.555H7.57v.071h.069v-.071Z" opacity=".85"/><path d="M9.38 29.5h-.17v.179h.17V29.5Z" opacity=".55"/><path d="M10.293 29.422h-.309v.325h.31v-.325Z" opacity=".57"/><path d="M11.189 29.36h-.412v.436h.412v-.437Z" opacity=".71"/><path d="M11.866 29.54h-.08v.085h.08v-.086Z" opacity=".63"/><path d="M12.726 29.523h-.117v.125h.117v-.125Z" opacity=".5"/><path d="M13.546 29.547h-.07v.073h.07v-.073Z" opacity=".73"/><path d="M14.388 29.555h-.06v.063h.06v-.063Zm.842.008h-.05v.054h.05v-.055Z" opacity=".77"/><path d="M16.202 29.422h-.308v.324h.308v-.324Z" opacity=".51"/><path d="M17.074 29.383h-.37v.393h.37v-.393Z" opacity=".64"/><path d="M17.824 29.492h-.172v.182h.172v-.182Z" opacity=".84"/><path d="M18.613 29.555h-.066v.07h.066v-.07Z" opacity=".7"/><path d="M19.484 29.523h-.117v.125h.117v-.125Z" opacity=".58"/><path d="M20.3 29.555h-.066v.068h.065v-.068Z" opacity=".5"/><path d="M21.149 29.555h-.067v.07h.067v-.07Z" opacity=".75"/><path d="M22.002 29.54h-.084v.088h.084v-.089Z" opacity=".54"/><path d="M22.873 29.508h-.146v.157h.146v-.157Z" opacity=".72"/><path d="M23.695 29.531h-.101v.108h.101v-.108Z" opacity=".69"/><path d="M24.55 29.516h-.124v.131h.125v-.131Z" opacity=".51"/><path d="M25.522 29.383h-.381v.405h.38v-.405Z" opacity=".5"/><path d="M26.22 29.54h-.091v.095h.091v-.096Z" opacity=".63"/><path d="M27.123 29.477h-.197v.209h.197v-.21Z" opacity=".59"/><path d="M27.926 29.516h-.121v.128h.121v-.128Z" opacity=".61"/><path d="M28.729 29.563h-.038v.039h.038v-.04Z" opacity=".52"/><path d="M29.639 29.5h-.162v.172h.162V29.5Z" opacity=".86"/><path d="M30.55 29.422h-.3v.319h.3v-.32Z" opacity=".94"/><path d="M31.31 29.508h-.134v.14h.133v-.14Z" opacity=".51"/><path d="M32.163 29.508h-.143v.152h.143v-.152Z" opacity=".55"/><path d="M33.012 29.5h-.16v.169h.16V29.5Z" opacity=".74"/><path d="M34.704 29.5h-.165v.174h.165V29.5Z" opacity=".84"/><path d="M35.589 29.445h-.253v.267h.253v-.267Z" opacity=".77"/><path d="M36.332 29.563h-.055v.058h.055v-.058Z" opacity=".73"/><path d="M37.26 29.469h-.21v.22h.21v-.22Z" opacity=".58"/><path d="M38.031 29.555h-.066v.071h.066v-.071Z" opacity=".54"/><path d="M38.882 29.54h-.089v.094h.09v-.095Z" opacity=".51"/><path d="M39.765 29.5h-.163v.172h.163V29.5Z" opacity=".75"/><path d="M41.427 29.523h-.114v.122h.114v-.122Z" opacity=".61"/><path d="M1.839 30.328h-.28v.295h.28v-.295Z" opacity=".79"/><path d="M2.632 30.375h-.19v.203h.19v-.203Z" opacity=".5"/><path d="M3.486 30.375h-.2v.213h.2v-.213Z" opacity=".8"/><path d="M4.274 30.422h-.087v.091h.087v-.091Z" opacity=".86"/><path d="M5.218 30.32h-.292v.309h.292v-.309Z" opacity=".54"/><path d="M6.035 30.352h-.234v.248h.234v-.248Z" opacity=".73"/><path d="M6.786 30.445h-.048v.05h.048v-.05Z" opacity=".9"/><path d="M7.655 30.422h-.096v.103h.096v-.103Z" opacity=".87"/><path d="M8.567 30.352h-.235v.248h.235v-.248Z" opacity=".6"/><path d="M9.379 30.39h-.176v.186h.176v-.185Z" opacity=".58"/><path d="M10.192 30.422h-.106v.113h.106v-.113Z" opacity=".75"/><path d="M11.014 30.438h-.069v.071h.069v-.072Z" opacity=".71"/><path d="M11.844 30.453h-.035v.038h.035v-.038Z" opacity=".67"/><path d="M12.8 30.344h-.26v.276h.26v-.276Zm1.62.07h-.127v.135h.127v-.135Z" opacity=".89"/><path d="M15.268 30.414h-.131v.138h.131v-.138Z" opacity=".52"/><path d="M16.966 30.398h-.154v.162h.154v-.162Z" opacity=".86"/><path d="M17.827 30.383h-.179v.19h.18v-.19Z" opacity=".89"/><path d="M18.676 30.383h-.184v.194h.184v-.194Z" opacity=".9"/><path d="M19.458 30.438h-.063v.068h.063v-.069Z" opacity=".72"/><path d="M20.375 30.367h-.21v.223h.21v-.223Z" opacity=".87"/><path d="M21.127 30.453h-.037v.041h.037v-.04Z" opacity=".56"/><path d="M22.086 30.344h-.258v.271h.258v-.271Z" opacity=".75"/><path d="M22.937 30.328h-.273v.29h.273v-.29Z" opacity=".7"/><path d="M23.755 30.36h-.22v.232h.22v-.233Z" opacity=".79"/><path d="M24.573 30.398h-.159v.168h.159v-.168Z" opacity=".78"/><path d="M25.357 30.445h-.044v.048h.044v-.048Z" opacity=".82"/><path d="M26.247 30.414h-.134v.142h.134v-.142Z" opacity=".93"/><path d="M27.046 30.445H27v.05h.046v-.05Z" opacity=".73"/><path d="M28.79 30.398h-.161v.17h.16v-.17Z" opacity=".91"/><path d="M29.697 30.32h-.287v.304h.287v-.304Z" opacity=".65"/><path d="M30.437 30.43h-.078v.082h.078v-.082Z" opacity=".8"/><path d="M31.265 30.453h-.042v.044h.042v-.044Z" opacity=".57"/><path d="M32.957 30.445h-.05v.053h.05v-.053Z" opacity=".62"/><path d="M33.92 30.32h-.287v.304h.287v-.304Z" opacity=".5"/><path d="M34.766 30.328h-.285v.3h.285v-.3Z" opacity=".67"/><path d="M36.341 30.43h-.072v.076h.072v-.076Z" opacity=".68"/><path d="M37.185 30.438h-.068v.071h.068v-.072Z" opacity=".7"/><path d="M38.036 30.43h-.071v.075h.071v-.075Z" opacity=".83"/><path d="M38.886 30.422h-.093v.098h.093v-.098Z" opacity=".92"/><path d="M39.76 30.398h-.158v.17h.158v-.17Z" opacity=".78"/><path d="M40.62 30.383h-.186v.199h.187v-.2Z" opacity=".71"/><path d="M41.398 30.445h-.046v.05h.046v-.05Z" opacity=".58"/><path d="M1.72 31.344h-.048v.05h.048v-.05Z" opacity=".9"/><path d="M2.676 31.227h-.27v.285h.27v-.285Z" opacity=".76"/><path d="M3.468 31.273h-.163v.172h.163v-.172Z" opacity=".53"/><path d="M4.265 31.328h-.077v.081h.077v-.08Z" opacity=".62"/><path d="M5.29 31.14h-.427v.453h.427v-.452Z" opacity=".82"/><path d="M6.004 31.273h-.172v.183h.172v-.183Z" opacity=".79"/><path d="M6.791 31.328h-.064v.07h.064v-.07Z" opacity=".74"/><path d="M7.632 31.336h-.058v.061h.058v-.061Z" opacity=".58"/><path d="M8.519 31.297h-.14v.148h.14v-.148Z" opacity=".6"/><path d="M9.4 31.258h-.213v.224H9.4v-.224Z" opacity=".59"/><path d="M10.152 31.36h-.027v.028h.027v-.029Z" opacity=".72"/><path d="M11.001 31.344h-.044v.047h.044v-.047Z" opacity=".89"/><path d="M11.861 31.328h-.068v.072h.068v-.072Z" opacity=".82"/><path d="M12.758 31.273h-.172v.183h.172v-.183Z" opacity=".72"/><path d="M13.675 31.195h-.323v.343h.323v-.343Z" opacity=".53"/><path d="M14.43 31.297h-.14v.147h.14v-.147Z" opacity=".81"/><path d="M15.26 31.305h-.123v.13h.123v-.13Z" opacity=".94"/><path d="M16.068 31.352h-.04v.044h.04v-.044Z" opacity=".83"/><path d="M16.997 31.266h-.204v.216h.204v-.216Z" opacity=".66"/><path d="M17.815 31.281h-.159v.167h.159v-.167Z" opacity=".64"/><path d="M18.684 31.258h-.211v.224h.21v-.224Z" opacity=".93"/><path d="M20.351 31.273h-.175v.186h.175v-.186Z" opacity=".89"/><path d="M21.28 31.188h-.335v.354h.334v-.355Z" opacity=".78"/><path d="M21.986 31.336h-.056v.06h.056v-.06Z" opacity=".92"/><path d="M22.819 31.352h-.038v.039h.038v-.04Z" opacity=".79"/><path d="M23.717 31.29h-.147v.154h.147v-.155Z" opacity=".77"/><path d="M25.391 31.305h-.121v.128h.121v-.128Z" opacity=".54"/><path d="M26.253 31.281h-.151v.162h.151v-.162Z" opacity=".77"/><path d="M27.137 31.25h-.23v.243h.23v-.243Z" opacity=".92"/><path d="M27.91 31.328h-.082v.086h.081v-.086Z" opacity=".76"/><path d="M28.855 31.21h-.289v.306h.289v-.305Z" opacity=".92"/><path d="M29.658 31.266h-.201v.212h.2v-.212Z" opacity=".78"/><path d="M30.48 31.281h-.16v.169h.16v-.169Z" opacity=".55"/><path d="M31.262 31.352h-.035v.037h.035v-.037Z" opacity=".7"/><path d="M32.162 31.29h-.146v.154h.146v-.155Z" opacity=".91"/><path d="M32.99 31.305h-.119v.125h.118v-.125Z" opacity=".73"/><path d="M33.866 31.273h-.178v.19h.178v-.19Z" opacity=".86"/><path d="M34.72 31.266h-.2v.212h.2v-.212Z" opacity=".89"/><path d="M35.493 31.336h-.052v.055h.052v-.055Z" opacity=".88"/><path d="M36.404 31.266h-.197v.209h.197v-.21Z" opacity=".9"/><path d="M37.348 31.164h-.383v.407h.383v-.407Z" opacity=".94"/><path d="M38.038 31.328h-.085v.09h.084v-.09Z" opacity=".84"/><path d="M38.872 31.336h-.063v.065h.063v-.065Z" opacity=".5"/><path d="M39.843 31.203h-.312v.33h.312v-.33Z" opacity=".75"/><path d="M41.459 31.273h-.174v.184h.174v-.184Z" opacity=".93"/><path d="M1.751 32.203h-.114v.122h.114v-.122Z" opacity=".66"/><path d="M2.616 32.18h-.155v.165h.155v-.165Z" opacity=".8"/><path d="M3.416 32.234h-.064v.07h.064v-.07Z" opacity=".67"/><path d="M4.248 32.242h-.037v.04h.037v-.04Zm.989-.148H4.91v.347h.327v-.347Z" opacity=".86"/><path d="M5.947 32.234H5.89v.06h.056v-.06Z" opacity=".64"/><path d="M6.82 32.203h-.113v.12h.113v-.12Z" opacity=".83"/><path d="M7.668 32.195h-.133v.14h.133v-.14Z" opacity=".56"/><path d="M8.463 32.242h-.03v.03h.03v-.03Z" opacity=".69"/><path d="M9.416 32.133h-.248v.261h.248v-.261Z" opacity=".52"/><path d="M11.03 32.219h-.089v.096h.09v-.096Z" opacity=".64"/><path d="M11.95 32.133h-.25v.266h.25v-.266Z" opacity=".69"/><path d="M13.644 32.125h-.261v.275h.261v-.275Z" opacity=".72"/><path d="M14.582 32.031h-.445v.471h.445v-.47Z" opacity=".7"/><path d="M15.356 32.102h-.31v.325h.31v-.325Z" opacity=".73"/><path d="M16.125 32.18h-.152v.16h.152v-.16Z" opacity=".5"/><path d="M16.92 32.242h-.053v.056h.053v-.056Z" opacity=".78"/><path d="M17.801 32.195h-.133v.14h.133v-.14Z" opacity=".91"/><path d="M18.655 32.188h-.147v.156h.147v-.157Z" opacity=".62"/><path d="M19.471 32.21h-.096v.104h.096v-.103Z" opacity=".73"/><path d="M20.356 32.172h-.184v.196h.184v-.196Z" opacity=".69"/><path d="M21.245 32.125h-.265v.28h.265v-.28Z" opacity=".83"/><path d="M21.991 32.234h-.061v.065h.061v-.065Z" opacity=".72"/><path d="M22.948 32.11h-.296v.312h.296v-.313Z" opacity=".94"/><path d="M23.762 32.14h-.23v.245h.23v-.244Z" opacity=".93"/><path d="M24.553 32.188h-.135v.143h.135v-.144Z" opacity=".55"/><path d="M26.232 32.21h-.103v.109h.103v-.108Z" opacity=".9"/><path d="M27.07 32.219h-.09v.094h.09v-.094Z" opacity=".78"/><path d="M28.807 32.156h-.198v.21h.198v-.21Z" opacity=".62"/><path d="M29.622 32.195h-.134v.14h.134v-.14Z" opacity=".67"/><path d="M30.478 32.172h-.162v.17h.162v-.17Z" opacity=".62"/><path d="M31.331 32.172h-.179v.189h.18v-.19Z" opacity=".72"/><path d="M32.187 32.156h-.203v.215h.203v-.215Z" opacity=".64"/><path d="M33.002 32.188h-.139v.146h.139v-.147Z" opacity=".78"/><path d="M33.836 32.195h-.121v.13h.121v-.13Z" opacity=".74"/><path d="M34.658 32.234h-.072v.075h.072v-.075Z" opacity=".5"/><path d="M35.556 32.172h-.181v.19h.18v-.19Z" opacity=".74"/><path d="M36.323 32.242h-.034v.038h.034v-.038Z" opacity=".85"/><path d="M37.205 32.21h-.103v.109h.103v-.108Z" opacity=".68"/><path d="M38.223 32.023h-.453v.481h.453v-.48Z" opacity=".53"/><path d="M38.862 32.242h-.038v.04h.038v-.04Z" opacity=".77"/><path d="M39.711 32.242h-.05v.055h.05v-.055Z" opacity=".81"/><path d="M40.639 32.14h-.221v.235h.221v-.234Z" opacity=".87"/><path d="M41.46 32.172h-.179v.189h.18v-.19Z" opacity=".61"/><path d="M1.732 33.117H1.66v.077h.072v-.077Z" opacity=".69"/><path d="M2.59 33.094h-.102v.108h.102v-.108Z" opacity=".74"/><path d="M3.406 33.133h-.043v.044h.043v-.044Z" opacity=".61"/><path d="M4.332 33.047h-.2v.21h.2v-.21Z" opacity=".79"/><path d="M6.013 33.055h-.189v.199h.19v-.2Z" opacity=".55"/><path d="M6.856 33.055h-.192v.204h.192v-.204Z" opacity=".53"/><path d="M7.663 33.094h-.116v.125h.116v-.125Z" opacity=".81"/><path d="M8.49 33.11h-.08v.084h.08v-.085Z" opacity=".72"/><path d="M10.24 33.04h-.209v.22h.21v-.22Z" opacity=".68"/><path d="M11.166 32.96h-.373v.396h.373v-.395Z" opacity=".51"/><path d="M11.942 33.023h-.231v.245h.231v-.245Z" opacity=".87"/><path d="M13.55 33.11h-.077v.082h.077v-.083Z" opacity=".85"/><path d="M14.454 33.047h-.196v.207h.196v-.207Z" opacity=".7"/><path d="M15.286 33.07h-.165v.174h.165v-.174Z" opacity=".92"/><path d="M16.144 33.055h-.19v.202h.19v-.202Z" opacity=".71"/><path d="M16.908 33.14h-.03v.031h.03v-.03Z" opacity=".62"/><path d="M18.711 33.016h-.258v.273h.258v-.273Z" opacity=".71"/><path d="M19.448 33.133h-.046v.05h.046v-.05Z" opacity=".7"/><path d="M20.327 33.094h-.12v.126h.12v-.126Z" opacity=".73"/><path d="M21.182 33.078h-.147v.155h.147v-.155Z" opacity=".88"/><path d="M22.16 32.938h-.41v.433h.41v-.434Z" opacity=".59"/><path d="M22.83 33.125h-.053v.056h.053v-.056Z" opacity=".73"/><path d="M23.653 33.14h-.024v.024h.024v-.023Z" opacity=".59"/><path d="M24.635 33h-.283v.299h.283V33Z" opacity=".51"/><path d="M26.234 33.094h-.117v.123h.117v-.123Z" opacity=".64"/><path d="M28.804 33.055h-.19v.2h.19v-.2Z" opacity=".61"/><path d="M29.596 33.11h-.084v.087h.084v-.088Z" opacity=".71"/><path d="M30.515 33.031h-.23v.243h.23v-.243Z" opacity=".86"/><path d="M31.283 33.11h-.076v.08h.076v-.08Z" opacity=".69"/><path d="M32.188 33.047h-.204v.216h.204v-.216Z" opacity=".53"/><path d="M33 33.086h-.14v.148H33v-.148Z" opacity=".55"/><path d="M33.934 32.992h-.309v.328h.309v-.328Z" opacity=".8"/><path d="M34.667 33.102h-.093v.097h.093v-.097Z" opacity=".52"/><path d="M35.496 33.117h-.066v.07h.066v-.07Z" opacity=".72"/><path d="M36.352 33.11h-.082v.087h.082v-.088Z" opacity=".75"/><path d="M37.167 33.14h-.034v.036h.034v-.035Z" opacity=".84"/><path d="M38.07 33.086h-.136v.143h.136v-.143Z" opacity=".61"/><path d="M38.972 33.016h-.265v.28h.265v-.28Z" opacity=".85"/><path d="M39.874 32.953h-.378v.4h.378v-.4Z" opacity=".9"/><path d="M40.651 33.023h-.253v.267h.253v-.267Z" opacity=".82"/><path d="M41.427 33.094h-.114v.121h.114v-.121Z" opacity=".87"/><path d="M1.77 33.969h-.15v.157h.149v-.157Z" opacity=".86"/><path d="M2.626 33.96H2.45v.188h.177v-.187Z" opacity=".76"/><path d="M3.488 33.945h-.203v.215h.203v-.215Z" opacity=".75"/><path d="M4.268 34h-.08v.084h.08V34Z" opacity=".73"/><path d="M5.155 33.96h-.17v.18h.17v-.18Z" opacity=".91"/><path d="M5.995 33.969H5.84v.163h.155v-.163Z" opacity=".71"/><path d="M6.85 33.96h-.178v.19h.179v-.19Z" opacity=".76"/><path d="M7.747 33.898H7.47v.294h.278v-.294Z" opacity=".66"/><path d="M8.606 33.883h-.31v.325h.31v-.325Z" opacity=".54"/><path d="M9.385 33.953h-.186v.196h.186v-.196Z" opacity=".82"/><path d="M10.202 33.984h-.128v.137h.128v-.137Z" opacity=".61"/><path d="M10.993 34.031h-.032v.034h.032v-.034Z" opacity=".59"/><path d="M11.959 33.914h-.264v.278h.264v-.278Z" opacity=".63"/><path d="M12.735 33.977h-.133v.141h.133v-.141Z" opacity=".71"/><path d="M13.568 33.992h-.1v.107h.1v-.107Z" opacity=".88"/><path d="M14.465 33.938h-.207v.22h.207v-.22Z" opacity=".54"/><path d="M15.304 33.945h-.202v.215h.202v-.215Z" opacity=".81"/><path d="M16.123 33.969h-.146v.157h.146v-.157Z" opacity=".91"/><path d="M16.953 33.984h-.121v.129h.121v-.129Z" opacity=".82"/><path d="M17.787 33.992h-.103v.108h.102v-.108Z" opacity=".92"/><path d="M18.616 34h-.08v.086h.08V34Z" opacity=".52"/><path d="M19.515 33.96h-.18v.19h.18v-.19Z" opacity=".55"/><path d="M21.181 33.977h-.138v.146h.138v-.146Z" opacity=".66"/><path d="M21.998 34.008h-.076v.08h.076v-.08Z" opacity=".91"/><path d="M22.834 34.016h-.064v.068h.064v-.068Z" opacity=".56"/><path d="M23.683 34.008h-.078v.082h.078v-.082Z" opacity=".88"/><path d="M25.442 33.93h-.223v.234h.223v-.234Z" opacity=".8"/><path d="M26.233 33.992h-.108v.115h.108v-.115Z" opacity=".88"/><path d="M27.097 33.969h-.152v.16h.152v-.16Z" opacity=".77"/><path d="M27.922 33.992h-.113v.12h.113v-.12Z" opacity=".65"/><path d="M28.892 33.86h-.36v.38h.36v-.38Z" opacity=".66"/><path d="M29.61 33.992h-.102v.11h.103v-.11Z" opacity=".57"/><path d="M31.268 34.023h-.05v.052h.05v-.052Z" opacity=".91"/><path d="M32.155 33.977h-.132v.138h.132v-.138Z" opacity=".66"/><path d="M32.97 34.008h-.075v.078h.075v-.078Z" opacity=".62"/><path d="M33.815 34h-.084v.09h.084V34Z" opacity=".92"/><path d="M34.664 34h-.09v.094h.09V34Z" opacity=".77"/><path d="M36.367 33.984h-.125v.132h.125v-.132Z" opacity=".66"/><path d="M37.275 33.922h-.248v.263h.248v-.263Z" opacity=".88"/><path d="M38.043 33.992h-.098v.103h.098v-.103Z" opacity=".9"/><path d="M38.932 33.953h-.186v.196h.186v-.196Z" opacity=".81"/><path d="M40.565 34.016H40.5v.07h.065v-.07Z" opacity=".71"/><path d="M41.429 33.992h-.117v.123h.117v-.123Z" opacity=".59"/><path d="M1.793 34.836h-.2v.21h.2v-.21Z" opacity=".92"/><path d="M2.552 34.922h-.029v.03h.03v-.03Z" opacity=".86"/><path d="M3.41 34.914h-.043v.044h.043v-.044Z" opacity=".6"/><path d="M5.233 34.781h-.319v.338h.319v-.338Z" opacity=".89"/><path d="M5.926 34.922h-.028v.03h.028v-.03Z" opacity=".83"/><path d="M6.807 34.89h-.096v.102h.096v-.101Z" opacity=".53"/><path d="M7.651 34.89H7.56v.1h.092v-.1Z" opacity=".88"/><path d="M9.388 34.844H9.2v.199h.19v-.2Z" opacity=".91"/><path d="M10.192 34.883h-.11v.116h.11v-.116Z" opacity=".57"/><path d="M11.015 34.906h-.07v.075h.07v-.075Z" opacity=".94"/><path d="M12.7 34.906h-.06v.063h.06v-.063Z" opacity=".79"/><path d="M13.533 34.922h-.04v.043h.04v-.043Z" opacity=".76"/><path d="M14.372 34.922h-.02v.02h.02v-.02Z" opacity=".9"/><path d="M15.286 34.852h-.157v.165h.157v-.165Z" opacity=".68"/><path d="M16.157 34.82h-.22v.231h.22v-.23Z" opacity=".91"/><path d="M16.945 34.883h-.105v.11h.105v-.11Z" opacity=".87"/><path d="M19.51 34.844h-.17v.179h.17v-.18Z" opacity=".8"/><path d="M20.295 34.906h-.057v.06h.057v-.06Z" opacity=".85"/><path d="M21.233 34.82h-.245v.26h.245v-.26Z" opacity=".75"/><path d="M22.115 34.781H21.8v.33h.314v-.33Z" opacity=".55"/><path d="M22.95 34.781h-.305v.324h.305v-.324Z" opacity=".82"/><path d="M23.722 34.852h-.156v.165h.156v-.165Z" opacity=".89"/><path d="M24.54 34.89h-.095v.1h.095v-.1Z" opacity=".85"/><path d="M25.47 34.797h-.275v.292h.275v-.292Z" opacity=".55"/><path d="M26.205 34.906h-.057v.058h.057v-.058Z" opacity=".87"/><path d="M27.095 34.86h-.142v.15h.142v-.15Z" opacity=".71"/><path d="M27.945 34.852h-.152v.16h.152v-.16Z" opacity=".7"/><path d="M28.897 34.75h-.366v.386h.366v-.386Z" opacity=".76"/><path d="M29.637 34.852h-.16v.17h.16v-.17Z" opacity=".8"/><path d="M31.257 34.922h-.03v.032h.03v-.032Z" opacity=".83"/><path d="M32.163 34.86h-.143v.151h.143v-.152Z" opacity=".64"/><path d="M33.012 34.852h-.16v.168h.16v-.168Z" opacity=".61"/><path d="M33.874 34.828h-.202v.214h.202v-.214Z" opacity=".58"/><path d="M34.71 34.844h-.175v.185h.176v-.185Z" opacity=".92"/><path d="M37.291 34.805h-.271v.287h.271v-.287Z" opacity=".83"/><path d="M38.015 34.922h-.035v.036h.035v-.036Z" opacity=".72"/><path d="M38.93 34.844h-.18v.19h.18v-.19Z" opacity=".76"/><path d="M39.722 34.906h-.078v.083h.078v-.083Z" opacity=".87"/><path d="M40.565 34.906H40.5v.069h.065v-.069Z" opacity=".56"/><path d="M41.396 34.922h-.04v.043h.04v-.043Z" opacity=".89"/><path d="M2.616 35.758h-.147v.155h.147v-.155Z" opacity=".93"/><path d="M6.83 35.766h-.135v.141h.135v-.141Z" opacity=".54"/><path d="M10.209 35.766h-.139v.146h.139v-.146Z" opacity=".65"/><path d="M12.73 35.773h-.12v.129h.12v-.129Z" opacity=".55"/><path d="M13.597 35.75h-.163v.174h.163v-.174Zm.918-.078h-.316v.332h.316v-.332Z" opacity=".57"/><path d="M15.337 35.688h-.267v.283h.267v-.283Z" opacity=".61"/><path d="M16.14 35.742h-.183v.196h.184v-.196Z" opacity=".78"/><path d="M19.518 35.734h-.194v.204h.194v-.204Z" opacity=".74"/><path d="M23.796 35.68h-.292v.307h.292v-.307Z" opacity=".57"/><path d="M24.622 35.688h-.267v.281h.267v-.282Z" opacity=".54"/><path d="M25.396 35.773h-.127v.134h.127v-.134Z" opacity=".65"/><path d="M26.395 35.602h-.434v.459h.434v-.46Z" opacity=".54"/><path d="M27.08 35.773h-.12v.127h.12v-.127Z" opacity=".79"/><path d="M28.935 35.594h-.447v.472h.447v-.472Z" opacity=".75"/><path d="M29.644 35.742h-.175v.186h.175v-.186Z" opacity=".6"/><path d="M31.332 35.742h-.184v.196h.184v-.196Z" opacity=".54"/><path d="M32.208 35.703h-.243v.258h.243v-.258Z" opacity=".65"/><path d="M34.733 35.71h-.23v.244h.23v-.243Z" opacity=".67"/><path d="M35.65 35.633h-.373v.395h.373v-.395Z" opacity=".68"/><path d="M36.425 35.703h-.237v.252h.237v-.252Z" opacity=".54"/><path d="M37.228 35.75h-.15v.159h.15v-.159Z" opacity=".92"/><path d="M40.616 35.75h-.167v.175h.167v-.175Z" opacity=".62"/><path d="M41.452 35.75h-.155v.164h.155v-.164Z" opacity=".57"/></g><path fill="#000" d="M33.279 16.995a.373.373 0 0 1-.196.054.402.402 0 0 1-.342-.199.392.392 0 0 1 .13-.528l.003-.003-.204.118-1.467.847-7.717 4.455-2.47 1.426.196.113c.121.07.197.2.197.34v.228l11.87-6.85Zm8.232-5.061h.002a.548.548 0 0 0-.014-.05c-.007-.016-.012-.033-.02-.048l-.007-.01a.503.503 0 0 0-.042-.063c-.002-.003-.003-.008-.007-.011a.167.167 0 0 0-.018-.017l-.02-.019c-.006-.005-.012-.012-.02-.017a.377.377 0 0 0-.043-.028l-.01-.007a.392.392 0 0 0-.383.007l-.592.34-7.463 4.308-.204.118-1.467.847-7.717 4.455-2.47 1.426h-.002l-.195.113a.396.396 0 0 0-.198.34v4.645c0 .142.076.27.198.341.006.005.015.008.023.012a.378.378 0 0 0 .174.04.39.39 0 0 0 .174-.038l.022-.014 4.022-2.32a.404.404 0 0 0 .035-.023c0-.002.006-.002.007-.005h.002l3.78-2.182.197-.115.592-.34 4.02-2.32 7.455-4.302a.393.393 0 0 0 .197-.341v-4.645a.294.294 0 0 0-.008-.077Zm-.78 4.494-15.89 9.17a.256.256 0 0 0-.042.028l-3.39 1.956v-3.736l11.87-6.85 7.452-4.303v3.735Z"/><path fill="#000" d="M40.729 12.695v3.735l-15.89 9.17a.269.269 0 0 0-.043.029l-3.39 1.955v-3.735l11.87-6.852 7.453-4.302Z"/><path fill="#000" d="m21.213 23.278-.196-.113h-.002l-6.325-3.653-1.52-.877-2.444-1.41-2.713-1.566-2.888-1.669-3.432-1.979-.59-.34a.392.392 0 0 0-.59.34v4.645c-.001.14.075.27.196.34l7.453 4.3.548.315.044.03.192.111 3.238 1.866.788.456 3.781 2.181.044.029 4.022 2.32.024.012a.34.34 0 0 0 .174.04.382.382 0 0 0 .174-.039l.022-.013a.394.394 0 0 0 .197-.341v-4.645c0-.14-.076-.27-.197-.34Zm-4.021 2.32-4.023-2.32-3.978-2.295c-.014-.012-.029-.02-.044-.029L1.3 16.428v-3.735l3.43 1.979h.002l2.777 1.604 1.245.719 2.975 1.717 1.046.604 1.056.61 2.968 1.713 3.823 2.207v3.735l-3.388-1.955a.655.655 0 0 0-.042-.029Zm3.43 2.665v-.682l-3.388-1.955a.655.655 0 0 0-.042-.029l-4.023-2.32a.396.396 0 0 1 0 .684l-.197.113 3.781 2.181.044.029 4.022 2.32a.394.394 0 0 1-.197-.341Z"/><path fill="#000" d="M20.62 23.849v3.735l-3.389-1.955a.656.656 0 0 0-.042-.03l-4.022-2.319-3.979-2.294c-.013-.012-.029-.02-.044-.029L1.297 16.43v-3.735l3.43 1.98h.002l2.777 1.604 1.245.718 2.975 1.718 1.046.604 1.056.609 2.968 1.714h-.002l3.825 2.207Zm4.216-20.793h.004l-.002.005-3.825-2.21L1.691 12.008l-.59-.34a.39.39 0 0 0-.394 0L20.817.052a.39.39 0 0 1 .393 0l4.018 2.32-.392.681v.002Zm.4-.676-.393.678h-.003l.391-.683.005.005Z"/><path fill="#000" d="m5.125 13.99-.393.683H4.73l-3.43-1.98-.59-.341a.392.392 0 0 1 0-.682.39.39 0 0 1 .392 0l.59.341 3.433 1.98Zm24.13-9.295-.391.683-.002.002-4.019-2.32h-.003l.391-.683.002-.002 4.019 2.318.003.002Z"/><path fill="#000" d="m29.254 4.685-.395.682 4.022 2.324.395-.682-4.022-2.324Zm4.022 2.335-.393.683 4.022 2.32.394-.682-4.023-2.32Z"/><path fill="#000" d="M41.514 12.01a.39.39 0 0 1-.195.34l-.59.341-7.453 4.302-11.87 6.851-.197.115a.398.398 0 0 1-.394 0l-.197-.113-3.825-2.207h.002l.391-.683 3.825 2.207h.002l2.47-1.426 7.717-4.455 1.467-.847.2-.115.004-.003 7.462-4.308-3.43-1.984.393-.681 4.013 2.318.01.007c.015.008.03.018.044.028l.018.017a.41.41 0 0 1 .088.11c.029.057.045.12.045.185Z"/><path fill="#000" fill-opacity=".1" d="M.945 11.9 20.877 0l19.932 11.9L21.08 23.919.945 11.901Z"/></svg>