<svg xmlns="http://www.w3.org/2000/svg" width="240" height="270" fill="none"><path fill="#fff" d="M226.667 57.657 133.333 3.542a26.867 26.867 0 0 0-26.666 0L13.333 57.657C5.08 62.379 0 71.313 0 80.885v108.23c0 9.572 5.08 18.378 13.333 23.228l93.334 54.115a26.864 26.864 0 0 0 26.666 0l93.334-54.115c8.254-4.722 13.333-13.656 13.333-23.228V80.885c0-9.572-5.079-18.379-13.333-23.228ZM120 186.052c-28.064 0-50.794-22.846-50.794-51.052S91.936 83.948 120 83.948c28.063 0 50.794 22.846 50.794 51.052S148.063 186.052 120 186.052Z"/></svg>