<svg xmlns="http://www.w3.org/2000/svg" width="46" height="52" fill="none"><path fill="#000" d="m11.776 9.725-6.19 3.517c-1.351-1.973-4.357-.993-4.379 1.306a2.356 2.356 0 0 0 .516 1.49l-.201.052c.044.049.092.096.14.143l.006.007c.052.048.104.094.16.137l.165-.043a2.36 2.36 0 0 0 1.456.618l-.074 6.325-.12.03v.365l.113-.03-.123 11.055A2.38 2.38 0 0 0 1 37.05a2.395 2.395 0 0 0 4.356 1.386l15.474 9.122c-.152.316-.25.66-.248 1.034A2.38 2.38 0 0 0 22.948 51a2.378 2.378 0 0 0 2.409-2.366 2.294 2.294 0 0 0-.233-1.044l15.518-8.827a2.369 2.369 0 0 0 1.964 1.056 2.39 2.39 0 0 0 2.41-2.366c.013-1.317-.95-2.288-2.186-2.398l.203-17.756a2.376 2.376 0 0 0 2.19-2.348 2.393 2.393 0 0 0-2.365-2.409 2.39 2.39 0 0 0-1.964 1 849.04 849.04 0 0 1-2.618-1.53c-2.62-1.54-6.65-3.904-12.872-7.587.152-.306.24-.65.243-1.01.017-1.762-1.822-2.965-3.445-2.16l.067.139a2.228 2.228 0 0 1 3.224 2.02c-.003.327-.08.645-.227.944l-.063.127.123.072c5.475 3.241 9.321 5.5 11.867 6.996l1.006.59c1.096.645 1.954 1.145 2.618 1.53l.12.07.081-.113a2.249 2.249 0 0 1 1.818-.934h.02a2.236 2.236 0 0 1 2.214 2.254 2.214 2.214 0 0 1-2.05 2.195l-.14.013-.205 18.036.141.014c1.197.108 2.058 1.051 2.047 2.243a2.237 2.237 0 0 1-2.235 2.214h-.02a2.218 2.218 0 0 1-1.837-.986l-.08-.12-15.769 8.969.063.128c.152.32.226.646.218.976a2.21 2.21 0 0 1-.666 1.578 2.205 2.205 0 0 1-1.59.636 2.216 2.216 0 0 1-1.575-.665 2.22 2.22 0 0 1-.637-1.592c-.001-.32.075-.636.233-.966l.062-.128-15.718-9.264-.082.116a2.265 2.265 0 0 1-1.862.96 2.24 2.24 0 0 1-2.214-2.256 2.236 2.236 0 0 1 2.1-2.2l.143-.01.126-11.399-.115.03v-.045l.12-.03.076-6.59-.146-.008a2.197 2.197 0 0 1-1.36-.577l-.062-.057-.172.044c-.014-.012-.03-.024-.043-.038l.167-.043-.146-.184a2.204 2.204 0 0 1-.481-1.395c.009-.99.633-1.821 1.592-2.113.758-.231 1.816-.118 2.507.892l.08.117 6.366-3.619.072-.259.054-.03-.07.259 9.055-5.154.054-.03.115-.398-.018-.048a2.183 2.183 0 0 1 .684-2.5l-.096-.12a2.33 2.33 0 0 0-.732 2.675l-.082.289-8.735 4.97m30.61 6.406c-.705-.048-1.454.868-1.836.296l-.078-.118-4.281 2.429-.175 15.267 4.26 2.511.08-.116a2.2 2.2 0 0 1 1.698-.945l.144-.008.206-18.034-.019-1.282Zm-.34 19.17a2.364 2.364 0 0 0-1.815 1.011l-4.061-2.395.173-15.089 4.08-2.315a2.378 2.378 0 0 0 1.826 1.043l-.203 17.745Zm-1.88-20.141c.002-.326.08-.645.238-.975l.06-.127-15.718-9.265-.081.117a2.237 2.237 0 0 1-1.653.945l-.138.012-.055 4.935 13.29 7.837.077.046 4.266-2.425-.063-.13a2.15 2.15 0 0 1-.224-.97Zm-3.978 3.348-13.216-7.794.054-4.706a2.404 2.404 0 0 0 1.765-1.01l15.474 9.121c-.152.318-.25.66-.253 1.039-.008.374.089.724.239 1.039l-4.063 2.31Zm3.772 19.142a2.18 2.18 0 0 1 .236-.962l.064-.127-4.25-2.504-13.308 7.569-.076.044-.043 4.74-.045.043-.003-.017.045-4.75-13.302-7.85-.077-.045-4.29 2.441.062.13c.15.31.227.647.224.97a2.2 2.2 0 0 1-.237.972l-.064.129 15.72 9.264.082-.116a2.224 2.224 0 0 1 1.697-.945l.059-.003.015-.014.243.02a2.242 2.242 0 0 1 1.686.972l.08.117 15.762-8.971-.061-.13a2.191 2.191 0 0 1-.22-.977Zm-17.58 8.817c0 .01.01.01.006.017a2.376 2.376 0 0 0-1.813 1.01L5.528 38.127a2.35 2.35 0 0 0 .253-1.039 2.36 2.36 0 0 0-.24-1.04l4.09-2.326 13.225 7.804-.045 4.695Zm2.145 1.059a2.4 2.4 0 0 0-1.8-1.04c.005-.005.01-.01.01-.02l.043-4.707 13.23-7.524 1.756 1.032 2.295 1.352c-.156.313-.25.661-.253 1.031-.003.378.083.728.235 1.044L24.956 47.28Zm-1.68-36.654-.017 1.116L23.1 25.8v.089l13.3 7.84.177-15.262-13.3-7.84ZM36.25 33.464l-12.996-7.662.16-14.056.012-.853 12.996 7.661-.172 14.91Zm-13.17-7.516L9.72 33.551l13.302 7.84 13.357-7.602-13.3-7.84Zm-13.052 7.605 13.05-7.427 12.994 7.661-13.048 7.428-12.996-7.663Zm-.07-15.373-.078.043-.18 15.23 13.329-7.585.174-15.224L9.956 18.18Zm12.919 7.6L9.855 33.186l.176-14.874 13.015-7.403-.17 14.87Z"/><path stroke="#000" stroke-miterlimit="10" stroke-width=".2" d="m11.776 9.725-6.19 3.517c-1.351-1.973-4.357-.993-4.379 1.306a2.356 2.356 0 0 0 .516 1.49l-.201.052c.044.049.092.096.14.143l.006.007c.052.048.104.094.16.137l.165-.043a2.36 2.36 0 0 0 1.456.618l-.074 6.325-.12.03v.365l.113-.03-.123 11.055A2.38 2.38 0 0 0 1 37.05a2.395 2.395 0 0 0 4.356 1.386l15.474 9.122c-.152.316-.25.66-.248 1.034A2.38 2.38 0 0 0 22.948 51a2.378 2.378 0 0 0 2.409-2.366 2.294 2.294 0 0 0-.233-1.044l15.518-8.827a2.369 2.369 0 0 0 1.964 1.056 2.39 2.39 0 0 0 2.41-2.366c.013-1.317-.95-2.288-2.186-2.398l.203-17.756a2.376 2.376 0 0 0 2.19-2.348 2.393 2.393 0 0 0-2.365-2.409 2.39 2.39 0 0 0-1.964 1 849.04 849.04 0 0 1-2.618-1.53c-2.62-1.54-6.65-3.904-12.872-7.587.152-.306.24-.65.243-1.01.017-1.762-1.822-2.965-3.445-2.16l.067.139a2.228 2.228 0 0 1 3.224 2.02c-.003.327-.08.645-.227.944l-.063.127.123.072c5.475 3.241 9.321 5.5 11.867 6.996l1.006.59c1.096.645 1.954 1.145 2.618 1.53l.12.07.081-.113a2.249 2.249 0 0 1 1.818-.934h.02a2.236 2.236 0 0 1 2.214 2.254 2.214 2.214 0 0 1-2.05 2.195l-.14.013-.205 18.036.141.014c1.197.108 2.058 1.051 2.047 2.243a2.237 2.237 0 0 1-2.235 2.214h-.02a2.218 2.218 0 0 1-1.837-.986l-.08-.12-15.769 8.969.063.128c.152.32.226.646.218.976a2.21 2.21 0 0 1-.666 1.578 2.205 2.205 0 0 1-1.59.636 2.216 2.216 0 0 1-1.575-.665 2.22 2.22 0 0 1-.637-1.592c-.001-.32.075-.636.233-.966l.062-.128-15.718-9.264-.082.116a2.265 2.265 0 0 1-1.862.96 2.24 2.24 0 0 1-2.214-2.256 2.236 2.236 0 0 1 2.1-2.2l.143-.01.126-11.399-.115.03v-.045l.12-.03.076-6.59-.146-.008a2.197 2.197 0 0 1-1.36-.577l-.062-.057-.172.044c-.014-.012-.03-.024-.043-.038l.167-.043-.146-.184a2.204 2.204 0 0 1-.481-1.395c.009-.99.633-1.821 1.592-2.113.758-.231 1.816-.118 2.507.892l.08.117 6.366-3.619.072-.259.054-.03-.07.259 9.055-5.154.054-.03.115-.398-.018-.048a2.183 2.183 0 0 1 .684-2.5l-.096-.12a2.33 2.33 0 0 0-.732 2.675l-.082.289-8.735 4.97m29.547 4.46 1.062 1.946m0 0c-.704-.048-1.453.868-1.835.296l-.078-.118-4.281 2.429-.175 15.267 4.26 2.511.08-.116a2.2 2.2 0 0 1 1.698-.945l.144-.008.206-18.034-.019-1.282Zm-.339 19.17a2.364 2.364 0 0 0-1.815 1.011l-4.061-2.395.173-15.089 4.08-2.315a2.378 2.378 0 0 0 1.826 1.043l-.203 17.745Zm-1.88-20.141c.002-.326.08-.645.238-.975l.06-.127-15.718-9.265-.081.117a2.237 2.237 0 0 1-1.653.945l-.138.012-.055 4.935 13.29 7.837.077.046 4.266-2.425-.063-.13a2.15 2.15 0 0 1-.224-.97Zm-3.978 3.348-13.216-7.794.054-4.706a2.404 2.404 0 0 0 1.765-1.01l15.474 9.121c-.152.318-.25.66-.253 1.039-.008.374.089.724.239 1.039l-4.063 2.31Zm3.772 19.142a2.18 2.18 0 0 1 .236-.962l.064-.127-4.25-2.504-13.308 7.569-.076.044-.043 4.74-.045.043-.003-.017.045-4.75-13.302-7.85-.077-.045-4.29 2.441.062.13c.15.31.227.647.224.97a2.2 2.2 0 0 1-.237.972l-.064.129 15.72 9.264.082-.116a2.224 2.224 0 0 1 1.697-.945l.059-.003.015-.014.243.02a2.242 2.242 0 0 1 1.686.972l.08.117 15.762-8.971-.061-.13a2.191 2.191 0 0 1-.22-.977Zm-17.58 8.817c0 .01.01.01.006.017a2.376 2.376 0 0 0-1.813 1.01L5.528 38.127a2.35 2.35 0 0 0 .253-1.039 2.36 2.36 0 0 0-.24-1.04l4.09-2.326 13.225 7.804-.045 4.695Zm2.145 1.059a2.4 2.4 0 0 0-1.8-1.04c.005-.005.01-.01.01-.02l.043-4.707 13.23-7.524 1.756 1.032 2.295 1.352c-.156.313-.25.661-.253 1.031-.003.378.083.728.235 1.044L24.956 47.28Zm-1.68-36.654-.017 1.116L23.1 25.8v.089l13.3 7.84.177-15.262-13.3-7.84ZM36.25 33.464l-12.996-7.662.16-14.056.012-.853 12.996 7.661-.172 14.91Zm-13.17-7.516L9.72 33.551l13.302 7.84 13.357-7.602-13.3-7.84Zm-13.052 7.605 13.05-7.427 12.994 7.661-13.048 7.428-12.996-7.663Zm-.07-15.373-.078.043-.18 15.23 13.329-7.585.174-15.224L9.956 18.18Zm12.919 7.6L9.855 33.186l.176-14.874 13.015-7.403-.17 14.87Z"/><path fill="#000" d="M40.597 14.913c.003-.325.081-.644.24-.974l.06-.128-15.719-9.264-.081.116a2.237 2.237 0 0 1-1.653.946l-.138.012-.055 4.934 13.29 7.838.078.046 4.265-2.426-.063-.129a2.15 2.15 0 0 1-.224-.97Zm-3.977 3.172L23.56 10.38l.05-4.482a2.548 2.548 0 0 0 1.654-.946L40.5 13.934a2.533 2.533 0 0 0-.21.975c-.006.323.059.652.197.977l-3.867 2.199Zm-26.663.093-.077.043-.18 15.23 13.329-7.584.174-15.224-13.246 7.535Zm.055 14.742.174-14.52 12.704-7.226-.167 14.513-12.71 7.233Zm13.265-22.294-.017 1.116-.16 14.057v.09l13.3 7.84.177-15.262-13.3-7.84Zm.132 15.088.158-13.968.01-.59 12.692 7.484-.17 14.555-12.69-7.482Zm19.282-8.558a2.213 2.213 0 0 1-1.709-.976l-.078-.118-4.28 2.43-.176 15.266 4.26 2.512.08-.117a2.2 2.2 0 0 1 1.698-.945l.144-.008.206-18.033-.145-.01Zm-5.934 16.427.171-14.91 3.882-2.206a2.512 2.512 0 0 0 1.716.982l-.2 17.465a2.5 2.5 0 0 0-1.704.95l-3.865-2.28Zm-13.678-7.636L9.721 33.55l13.301 7.84 13.357-7.603-13.3-7.84Zm-.003.354 12.69 7.482-12.74 7.253-12.693-7.482 12.743-7.253Zm17.316 11.103a2.18 2.18 0 0 1 .236-.962l.064-.127-4.25-2.505-13.308 7.57-.076.044-.043 4.74-.045.043-.003-.017.045-4.75L9.71 33.59l-.077-.045-4.29 2.441.062.129c.15.311.227.648.224.971a2.2 2.2 0 0 1-.237.972l-.064.128 15.72 9.265.083-.117a2.224 2.224 0 0 1 1.697-.945l.058-.003.015-.014.243.02a2.242 2.242 0 0 1 1.686.973l.08.117 15.762-8.972-.061-.129a2.192 2.192 0 0 1-.22-.977Zm-34.665.661a2.466 2.466 0 0 0 .014-1.953l3.89-2.213 13.072 7.714-.043 4.483a2.527 2.527 0 0 0-1.697.948L5.727 38.065Zm19.275 9.012a2.557 2.557 0 0 0-1.68-.975l.041-4.498 13.076-7.44 3.854 2.27a2.483 2.483 0 0 0-.018 1.948l-15.273 8.695ZM1.553 16.34l4.079-3.302a2.51 2.51 0 0 0-2.767-.896c-1.09.331-1.8 1.275-1.81 2.403-.005.5.136.979.413 1.4"/><path stroke="#000" stroke-miterlimit="10" stroke-width=".2" d="m1.553 16.34 4.079-3.302a2.51 2.51 0 0 0-2.767-.896c-1.09.331-1.8 1.275-1.81 2.403-.005.5.136.979.413 1.4m39.13-1.032c.002-.325.08-.644.238-.974l.06-.128-15.718-9.264-.081.116a2.237 2.237 0 0 1-1.653.946l-.138.012-.055 4.934 13.29 7.838.078.046 4.265-2.426-.063-.129a2.15 2.15 0 0 1-.224-.97Zm-3.978 3.172L23.56 10.38l.05-4.482a2.548 2.548 0 0 0 1.654-.946L40.5 13.934a2.533 2.533 0 0 0-.21.975c-.006.323.059.652.197.977l-3.867 2.199Zm-26.663.093-.077.043-.18 15.23 13.329-7.584.174-15.224-13.246 7.535Zm.055 14.742.174-14.52 12.704-7.226-.167 14.513-12.71 7.233Zm13.265-22.294-.017 1.116-.16 14.057v.09l13.3 7.84.177-15.262-13.3-7.84Zm.132 15.088.158-13.968.01-.59 12.692 7.484-.17 14.555-12.69-7.482Zm19.282-8.558a2.213 2.213 0 0 1-1.709-.976l-.078-.118-4.28 2.43-.176 15.266 4.26 2.512.08-.117a2.2 2.2 0 0 1 1.698-.945l.144-.008.206-18.033-.145-.01Zm-5.934 16.427.171-14.91 3.882-2.206a2.512 2.512 0 0 0 1.716.982l-.2 17.465a2.5 2.5 0 0 0-1.704.95l-3.865-2.28Zm-13.678-7.636L9.721 33.55l13.301 7.84 13.357-7.603-13.3-7.84Zm-.003.354 12.69 7.482-12.74 7.253-12.693-7.482 12.743-7.253Zm17.316 11.103a2.18 2.18 0 0 1 .236-.962l.064-.127-4.25-2.505-13.308 7.57-.076.044-.043 4.74-.045.043-.003-.017.045-4.75L9.71 33.59l-.077-.045-4.29 2.441.062.129c.15.311.227.648.224.971a2.2 2.2 0 0 1-.237.972l-.064.128 15.72 9.265.083-.117a2.224 2.224 0 0 1 1.697-.945l.058-.003.015-.014.243.02a2.242 2.242 0 0 1 1.686.973l.08.117 15.762-8.972-.061-.129a2.192 2.192 0 0 1-.22-.977Zm-34.665.661a2.466 2.466 0 0 0 .014-1.953l3.89-2.213 13.072 7.714-.043 4.483a2.527 2.527 0 0 0-1.697.948L5.727 38.065Zm19.275 9.012a2.557 2.557 0 0 0-1.68-.975l.041-4.498 13.076-7.44 3.854 2.27a2.483 2.483 0 0 0-.018 1.948l-15.273 8.695Z"/><path fill="#000" stroke="#000" stroke-miterlimit="10" stroke-width=".2" d="m42.815 35.209-.141-.014.206-18.037.14-.012a2.214 2.214 0 0 0 2.05-2.196 2.236 2.236 0 0 0-2.215-2.254h-.02a2.25 2.25 0 0 0-1.818.935l-.081.113-.12-.07a468.81 468.81 0 0 1-2.618-1.53l-1.006-.59c-2.546-1.497-6.393-3.755-11.867-6.996l-.123-.072.063-.127c.147-.3.224-.617.227-.944a2.228 2.228 0 0 0-3.224-2.02l-.067-.139-.447.29.097.12a2.183 2.183 0 0 0-.684 2.5l.018.048-.115.398-.054.03-9.055 5.154.07-.259-.054.03-.072.26-6.366 3.618-.08-.117c-.692-1.01-1.749-1.123-2.507-.891-.959.292-1.583 1.122-1.592 2.113-.005.505.16.986.481 1.395l.146.184-.167.043c.014.014.029.026.043.038l.172-.044.061.056c.377.345.847.545 1.361.577l.146.01-.077 6.588-.12.03v.045l.115-.029-.125 11.399-.143.01a2.236 2.236 0 0 0-2.1 2.2 2.24 2.24 0 0 0 2.214 2.255 2.262 2.262 0 0 0 1.862-.96l.082-.116 15.718 9.265-.062.127a2.18 2.18 0 0 0-.233.967c-.008.6.22 1.164.637 1.591.419.425.979.663 1.576.666a2.206 2.206 0 0 0 1.59-.637 2.21 2.21 0 0 0 .665-1.577 2.136 2.136 0 0 0-.218-.976l-.063-.129 15.77-8.968.079.12a2.218 2.218 0 0 0 1.836.986h.02c1.225 0 2.225-.99 2.236-2.214.01-1.192-.85-2.136-2.047-2.243ZM23.305 5.623l.137-.012a2.237 2.237 0 0 0 1.653-.946l.081-.116 15.718 9.264-.06.128a2.15 2.15 0 0 0-.015 1.946l.063.128-4.266 2.426-.076-.046-13.291-7.838.055-4.934Zm-.047 6.12.017-1.115 13.3 7.84-.177 15.263-13.3-7.84v-.09l.16-14.057ZM36.377 33.79 23.02 41.392l-13.3-7.84 13.358-7.603 13.3 7.84ZM9.955 18.18l13.246-7.535-.175 15.224-13.329 7.584.181-15.23.077-.043Zm30.67 18.264a2.181 2.181 0 0 0-.016 1.94l.061.128-15.763 8.972-.08-.117a2.242 2.242 0 0 0-1.686-.973l-.242-.02-.015.014-.059.003a2.224 2.224 0 0 0-1.697.945l-.082.117-15.72-9.265.064-.129a2.2 2.2 0 0 0 .237-.97 2.203 2.203 0 0 0-.224-.972l-.062-.129 4.29-2.441.077.044 13.301 7.85-.044 4.75.003.017.045-.042.043-4.74.076-.045 13.308-7.569 4.25 2.504-.064.128Zm1.859-1.234a2.2 2.2 0 0 0-1.697.945l-.082.117-4.259-2.512.175-15.267 4.28-2.429.08.118a2.213 2.213 0 0 0 1.708.976l.145.011-.206 18.034-.144.007Z"/><path fill="#000" stroke="#000" stroke-miterlimit="10" stroke-width=".2" d="m10.027 33.553 13.05-7.428 12.996 7.661-13.05 7.428-12.996-7.661Z"/><path fill="#000" stroke="#000" stroke-miterlimit="10" stroke-width=".2" d="m22.932 41.367.088.05 13.396-7.624-13.254-7.814-.086-.05L9.68 33.555l13.254 7.813h-.002Zm.09-.348L10.37 33.56l12.703-7.231 12.653 7.458-12.703 7.232Z"/><mask id="a" width="28" height="24" x="9" y="10" maskUnits="userSpaceOnUse" style="mask-type:luminance"><path fill="#fff" d="m36.773 18.58-.525 14.881-13.173-7.337-13.221 7.061-.178-14.822 13.75-7.472 13.347 7.69Z"/></mask><g mask="url(#a)"><mask id="b" width="55" height="53" x="-6" y="1" maskUnits="userSpaceOnUse" style="mask-type:luminance"><path fill="#fff" d="M48.346 1.305 36.804 42.272-5.32 53.995 6.392 11.659 48.346 1.305Z"/></mask><g fill="#1F375B" stroke="#000" stroke-miterlimit="10" stroke-width=".2" mask="url(#b)"><path d="m36.645 33.834.523-.514-.543-.553-.523.514.543.553Z" opacity=".85"/><path d="m36.591 31.049.042-.041-.043-.044-.042.04.043.045Z" opacity=".86"/><path d="m35.47 32.27.147-.145-.152-.155-.148.145.152.155Z" opacity=".52"/><path d="m34.344 33.46.238-.233-.247-.252-.238.233.247.252Z" opacity=".74"/><path d="m36.548 28.76.05-.05-.05-.05-.05.048.05.051Z" opacity=".79"/><path d="m35.424 29.864.045-.044-.047-.047-.044.044.046.047Z" opacity=".74"/><path d="m34.294 30.963.042-.041-.043-.044-.042.04.043.045Z" opacity=".77"/><path d="m33.174 32.355.314-.308-.327-.333-.314.309.327.332Z" opacity=".73"/><path d="m32.05 33.533.391-.385-.407-.415-.392.385.407.415Z" opacity=".59"/><path d="m35.383 27.62.097-.097-.102-.104-.097.096.102.104Z" opacity=".8"/><path d="m34.258 28.932.297-.291-.309-.315-.297.292.309.314Z" opacity=".64"/><path d="m33.127 29.89.158-.156-.164-.167-.158.155.164.167Z" opacity=".54"/><path d="m32.002 30.945.103-.101-.107-.11-.103.101.107.11Z" opacity=".65"/><path d="m30.878 32.15.2-.197-.207-.211-.2.197.207.21Z" opacity=".67"/><path d="m35.34 25.476.254-.25-.265-.269-.254.25.265.269Z" opacity=".91"/><path d="m34.212 26.642.304-.298-.316-.322-.304.298.316.322Z" opacity=".79"/><path d="m33.086 27.538.102-.1-.107-.109-.102.1.107.109Z" opacity=".74"/><path d="m31.961 28.826.285-.28-.296-.3-.284.28.295.3Z" opacity=".6"/><path d="m30.837 29.85.198-.194-.206-.21-.198.195.206.21Z" opacity=".78"/><path d="m29.703 30.8.05-.05-.05-.053-.051.05.051.052Z" opacity=".52"/><path d="m28.574 31.952.094-.093-.098-.1-.094.093.098.1Z" opacity=".64"/><path d="m27.449 33.069.102-.1-.107-.109-.101.1.106.109Z" opacity=".61"/><path d="m35.3 23.18.255-.25-.265-.27-.254.25.265.27Z" opacity=".56"/><path d="m34.17 24.306.271-.267-.281-.287-.272.267.282.287Z" opacity=".5"/><path d="m33.046 25.36.216-.212-.225-.228-.216.211.225.23Z" opacity=".73"/><path d="m31.913 26.285.044-.043-.045-.046-.044.043.045.046Z" opacity=".79"/><path d="m30.79 27.7.347-.34-.361-.369-.348.341.362.368Z" opacity=".88"/><path d="m29.66 28.549.098-.096-.101-.103-.098.096.101.103Z" opacity=".55"/><path d="m28.535 29.842.277-.272-.288-.293-.277.272.288.293Z" opacity=".82"/><path d="m26.283 31.964.186-.183-.194-.197-.186.183.194.197Z" opacity=".75"/><path d="m25.158 33.004.131-.129-.135-.138-.132.129.136.138Z" opacity=".94"/><path d="m35.258 21.158.52-.51-.54-.55-.52.51.54.55Z" opacity=".8"/><path d="m34.127 21.916.178-.174-.185-.188-.178.174.185.188Z" opacity=".6"/><path d="m33.004 23.143.297-.291-.309-.315-.296.292.308.314Z" opacity=".74"/><path d="m31.865 23.997.053-.052-.054-.054-.052.051.053.055Z" opacity=".68"/><path d="m29.622 26.397.237-.233-.246-.25-.237.233.246.25Z" opacity=".64"/><path d="m28.49 27.386.123-.12-.127-.13-.122.12.127.13Z" opacity=".56"/><path d="m26.239 29.534.058-.057-.06-.062-.058.057.06.061Z" opacity=".55"/><path d="m25.113 30.682.098-.096-.102-.104-.098.096.102.104Z" opacity=".88"/><path d="m23.986 31.824.131-.129-.136-.139-.132.13.137.138Z" opacity=".51"/><path d="m22.86 33.03.238-.233-.246-.25-.238.232.246.251Z" opacity=".83"/><path d="m36.339 17.654.427-.42-.444-.452-.427.42.444.452Z" opacity=".92"/><path d="m35.206 18.533.2-.197-.208-.212-.2.196.208.213Z" opacity=".79"/><path d="m34.081 19.623.18-.178-.186-.19-.181.177.187.19Z" opacity=".89"/><path d="m32.96 20.905.356-.35-.37-.378-.357.35.37.378Z" opacity=".84"/><path d="m31.824 21.768.121-.12-.125-.128-.122.12.126.128Z" opacity=".77"/><path d="m30.71 23.224.466-.458-.484-.493-.466.458.483.492Z" opacity=".93"/><path d="m29.58 24.283.424-.416-.44-.448-.424.416.44.448Z" opacity=".5"/><path d="m28.45 25.038.07-.07-.072-.073-.07.07.072.073Z" opacity=".82"/><path d="m27.32 26.178.11-.108-.113-.115-.11.108.113.115Z" opacity=".86"/><path d="m26.189 27.193.022-.021-.023-.023-.021.021.022.023Z" opacity=".52"/><path d="m25.072 28.544.252-.247-.262-.267-.252.247.262.267Z" opacity=".6"/><path d="m23.95 29.874.476-.468-.495-.503-.476.467.495.504Z" opacity=".79"/><path d="m22.816 30.624.125-.124-.13-.134-.127.124.131.134Z" opacity=".94"/><path d="m21.694 31.737.138-.135-.142-.145-.138.136.142.144Z" opacity=".67"/><path d="m20.572 33.23.514-.503-.533-.543-.514.504.533.543Z" opacity=".84"/><path d="m19.439 34.037.221-.217-.229-.233-.221.217.229.233Z" opacity=".83"/><path d="m36.294 15.308.378-.37-.392-.4-.378.37.392.4Z" opacity=".63"/><path d="m35.164 16.25.215-.21-.223-.228-.214.211.222.227Z" opacity=".84"/><path d="m34.038 17.35.212-.21-.22-.224-.213.209.22.224Z" opacity=".93"/><path d="m32.907 18.376.128-.126-.132-.135-.128.126.132.135Z" opacity=".52"/><path d="m31.789 19.594.238-.235-.248-.253-.239.235.249.253Zm-1.129 1.113.25-.246-.259-.264-.25.246.258.264Z" opacity=".92"/><path d="m29.536 21.853.288-.283-.299-.304-.288.283.3.304Z" opacity=".68"/><path d="m28.405 22.937.27-.265-.28-.286-.27.266.28.285Z" opacity=".83"/><path d="m27.28 24.074.29-.285-.302-.308-.29.285.302.308Z" opacity=".7"/><path d="m26.153 24.94.066-.065-.068-.069-.066.064.068.07Z" opacity=".61"/><path d="m25.029 26.194.205-.202-.214-.218-.205.202.213.218Z" opacity=".83"/><path d="m22.769 28.246.051-.05-.053-.055-.052.05.054.055Z" opacity=".5"/><path d="m21.646 29.372.077-.075-.08-.081-.076.075.079.081Z" opacity=".88"/><path d="m20.52 30.537.125-.123-.13-.131-.124.122.129.132Z" opacity=".75"/><path d="m19.392 31.63.108-.107-.113-.114-.108.106.113.115Z" opacity=".71"/><path d="m18.27 32.874.246-.241-.255-.26-.245.241.254.26Z" opacity=".89"/><path d="m37.379 12.038.508-.499-.528-.538-.508.5.528.537Z" opacity=".51"/><path d="m36.25 12.863.234-.23-.242-.248-.235.23.243.248Z" opacity=".79"/><path d="m35.123 14.036.299-.294-.31-.316-.3.293.311.317Z" opacity=".8"/><path d="m33.99 14.904.06-.06-.063-.065-.061.06.063.065Z" opacity=".84"/><path d="m31.74 17.272.213-.21-.221-.225-.214.21.222.225Z" opacity=".5"/><path d="m30.616 18.326.173-.17-.18-.183-.172.17.18.183Z" opacity=".72"/><path d="m29.488 19.404.14-.138-.145-.15-.142.14.147.148Z" opacity=".62"/><path d="m28.37 20.844.47-.461-.488-.497-.47.46.488.498Z" opacity=".87"/><path d="m27.235 21.51.042-.041-.044-.045-.042.042.044.045Z" opacity=".62"/><path d="m26.112 22.913.326-.32-.338-.343-.325.32.337.343Z" opacity=".8"/><path d="m24.983 23.757.072-.07-.076-.076-.07.07.075.076Z" opacity=".67"/><path d="m23.853 24.934.131-.13-.136-.138-.131.129.136.139Z" opacity=".62"/><path d="m22.733 26.13.228-.224-.238-.242-.227.224.237.242Z" opacity=".63"/><path d="m21.606 27.226.214-.21-.223-.228-.215.21.224.228Z" opacity=".92"/><path d="m20.483 28.437.318-.312-.33-.336-.318.312.33.336Z" opacity=".67"/><path d="m19.352 29.555.335-.328-.347-.354-.335.329.347.353Z" opacity=".73"/><path d="m17.1 31.608.181-.178-.189-.193-.182.178.19.193Z" opacity=".52"/><path d="m15.972 32.712.176-.173-.182-.186-.177.173.183.186Z" opacity=".54"/><path d="m14.844 33.837.191-.189-.2-.203-.191.188.2.203Z" opacity=".61"/><path d="m35.079 11.705.265-.26-.275-.28-.265.26.275.28Z" opacity=".58"/><path d="m33.953 12.992.438-.43-.455-.463-.438.43.455.463Z" opacity=".92"/><path d="m32.82 13.848.196-.192-.203-.206-.194.192.202.206Z" opacity=".55"/><path d="m31.7 15.076.316-.31-.33-.335-.316.31.33.335Z" opacity=".57"/><path d="m30.573 16.206.337-.331-.35-.357-.337.331.35.357Z" opacity=".85"/><path d="m28.313 18.135.066-.065-.069-.07-.066.065.07.07Z" opacity=".72"/><path d="m27.188 19.298.12-.118-.125-.128-.12.118.125.128Z" opacity=".53"/><path d="m26.064 20.625.334-.328-.347-.354-.334.328.348.354Z" opacity=".83"/><path d="m24.944 21.646.251-.248-.26-.266-.253.248.262.266Z" opacity=".69"/><path d="m22.684 23.732.132-.13-.138-.142-.133.13.139.142Z" opacity=".54"/><path d="m21.56 24.748.046-.045-.048-.048-.046.045.047.048Z" opacity=".65"/><path d="m20.436 25.891.08-.078-.083-.085-.08.079.083.084Z" opacity=".71"/><path d="m18.189 28.464.432-.425-.45-.458-.432.425.45.458Z" opacity=".66"/><path d="m17.058 29.49.356-.35-.37-.376-.356.35.37.376Z" opacity=".62"/><path d="m15.926 30.41.172-.168-.179-.182-.172.17.179.18Z" opacity=".67"/><path d="m14.802 31.423.08-.08-.084-.086-.081.08.085.086Z" opacity=".51"/><path d="m13.68 32.883.422-.414-.439-.447-.421.414.438.447Z" opacity=".81"/><path d="m12.55 33.637.075-.075-.079-.08-.075.075.078.08Z" opacity=".82"/><path d="m32.776 11.448.099-.096-.103-.106-.099.097.103.105Z" opacity=".64"/><path d="m31.65 12.514.053-.053-.055-.056-.053.053.055.056Z" opacity=".63"/><path d="m30.528 13.742.183-.18-.19-.193-.183.18.19.193Z" opacity=".5"/><path d="m29.4 14.731.06-.06-.061-.063-.06.06.062.063Z" opacity=".79"/><path d="m28.277 15.886.106-.105-.11-.113-.107.105.11.113Z" opacity=".53"/><path d="m24.9 19.319.221-.217-.23-.235-.221.217.23.235Zm-1.132 1.027.138-.135-.143-.146-.138.136.143.145Z" opacity=".6"/><path d="m21.516 22.717.293-.287-.305-.31-.292.287.304.31Z" opacity=".93"/><path d="m20.39 23.765.255-.25-.264-.268-.254.25.264.268Z" opacity=".94"/><path d="m19.27 24.948.328-.323-.341-.347-.329.322.341.348Z" opacity=".8"/><path d="m18.139 26.05.322-.316-.334-.34-.322.316.334.34Z" opacity=".65"/><path d="m17.014 27.164.326-.32-.339-.345-.326.32.338.345Z" opacity=".72"/><path d="m14.758 29.211.168-.164-.174-.178-.168.165.174.177Z" opacity=".83"/><path d="m13.634 30.496.339-.332-.352-.358-.338.332.351.358Z" opacity=".59"/><path d="m12.508 31.373.117-.115-.123-.125-.117.115.123.125Z" opacity=".75"/><path d="m11.374 32.434.075-.075-.078-.08-.076.075.079.08Z" opacity=".93"/><path d="m10.256 33.763.29-.286-.302-.31-.291.287.303.309Z" opacity=".85"/><path d="m30.478 11.41.14-.137-.146-.147-.139.136.145.148Z" opacity=".92"/><path d="m29.357 12.573.202-.198-.211-.215-.202.198.211.215Zm-1.124 1.074.165-.163-.171-.175-.166.163.172.175Z" opacity=".83"/><path d="m27.1 14.76.177-.174-.184-.187-.177.174.184.187Z" opacity=".79"/><path d="m25.975 15.766.08-.079-.083-.084-.08.079.083.084Z" opacity=".87"/><path d="m24.853 17.11.311-.305-.324-.33-.31.305.323.33Z" opacity=".86"/><path d="m23.726 18.04.137-.134-.142-.144-.137.134.142.145Z" opacity=".84"/><path d="m21.475 20.483.365-.358-.378-.385-.365.358.378.385Z" opacity=".5"/><path d="m20.345 21.467.245-.24-.256-.261-.245.24.256.261Z" opacity=".9"/><path d="m19.219 22.531.207-.203-.215-.219-.207.203.215.22Zm-2.253 2.156.151-.148-.157-.16-.15.148.156.16Z" opacity=".74"/><path d="m15.835 25.669.028-.028-.029-.03-.028.028.029.03Z" opacity=".69"/><path d="m14.71 26.823.075-.073-.076-.078-.075.073.077.078Z" opacity=".67"/><path d="m12.462 29.17.206-.201-.214-.218-.206.202.214.218Z" opacity=".76"/><path d="m11.339 30.32.255-.25-.266-.27-.255.25.266.27Z" opacity=".8"/><path d="m28.19 11.47.287-.283-.298-.303-.287.282.298.303Z" opacity=".69"/><path d="m27.067 12.615.324-.318-.338-.344-.324.318.338.344Z" opacity=".57"/><path d="m24.807 14.704.2-.196-.208-.213-.2.197.208.212Z" opacity=".89"/><path d="m23.686 15.994.392-.385-.407-.415-.392.385.407.415Z" opacity=".92"/><path d="m22.553 16.873.158-.154-.163-.167-.158.155.163.166Z" opacity=".86"/><path d="m21.43 17.897.086-.084-.09-.091-.086.084.09.091Z" opacity=".89"/><path d="m20.298 18.982.07-.068-.073-.073-.069.067.072.074Z" opacity=".77"/><path d="m19.174 20.144.115-.113-.12-.121-.114.113.12.121Z" opacity=".61"/><path d="m18.048 21.362.225-.221-.234-.24-.225.222.234.24Z" opacity=".78"/><path d="m16.926 22.33.097-.096-.102-.104-.097.096.102.104Z" opacity=".51"/><path d="m15.798 23.772.42-.413-.436-.444-.42.413.436.444Z" opacity=".59"/><path d="m14.668 24.48.035-.035-.036-.037-.035.034.036.038Z" opacity=".58"/><path d="m12.419 26.912.253-.248-.262-.267-.253.248.262.267Z" opacity=".75"/><path d="m11.292 28.02.251-.247-.26-.264-.25.246.26.265Z" opacity=".82"/><path d="m10.164 29.056.184-.181-.19-.194-.185.18.19.195Z" opacity=".5"/><path d="m25.893 11.413.318-.311-.329-.335-.318.311.33.335Zm-1.127 1.111.328-.32-.34-.347-.327.322.34.345Zm-1.126 1.054.27-.265-.28-.286-.27.265.28.286Z" opacity=".9"/><path d="m22.517 14.785.37-.363-.385-.392-.37.363.385.392Z" opacity=".77"/><path d="m20.257 16.776.153-.151-.159-.162-.153.15.159.163Z" opacity=".82"/><path d="m19.13 17.787.054-.053-.056-.057-.054.053.056.057Z" opacity=".74"/><path d="m18.004 18.94.098-.096-.103-.104-.097.095.102.104Z" opacity=".6"/><path d="m16.877 20.073.123-.12-.128-.13-.122.12.127.13Z" opacity=".86"/><path d="m15.75 21.093.047-.046-.05-.05-.047.046.05.05Z" opacity=".93"/><path d="m14.63 22.404.245-.24-.254-.258-.244.24.254.258Z" opacity=".62"/><path d="m13.506 23.425.162-.16-.169-.171-.162.159.169.172Z" opacity=".55"/><path d="m12.378 24.456.09-.089-.095-.097-.09.089.095.097Z" opacity=".89"/><path d="m11.246 25.591.125-.122-.129-.132-.125.123.13.131Zm-1.119 1.154.162-.16-.169-.171-.162.16.169.171Z" opacity=".66"/><path d="m23.593 11.093.079-.077-.082-.084-.079.078.082.083Zm-1.126 1.083.068-.067-.07-.072-.069.067.071.072Z" opacity=".77"/><path d="m21.344 13.636.41-.402-.426-.433-.41.402.426.433Z" opacity=".51"/><path d="m20.219 14.83.496-.486-.515-.525-.496.487.515.525Z" opacity=".64"/><path d="m19.091 15.662.23-.225-.238-.242-.23.225.238.242Z" opacity=".84"/><path d="m17.96 16.625.087-.086-.091-.093-.088.086.091.093Z" opacity=".7"/><path d="m16.832 17.802.156-.154-.162-.165-.157.154.163.165Z" opacity=".58"/><path d="m15.709 18.833.084-.083-.088-.09-.085.083.089.09Z" opacity=".5"/><path d="m14.58 19.945.088-.086-.091-.093-.088.086.091.093Z" opacity=".75"/><path d="m13.459 21.078.111-.11-.116-.117-.112.11.117.117Z" opacity=".54"/><path d="m12.334 22.264.197-.194-.204-.208-.197.194.204.208Z" opacity=".72"/><path d="m11.201 23.312.135-.132-.14-.144-.136.133.141.143Z" opacity=".69"/><path d="m10.08 24.445.166-.164-.173-.176-.166.163.173.177Z" opacity=".51"/><path d="m21.294 11.094.175-.172-.182-.185-.175.172.182.185Z" opacity=".52"/><path d="m19.046 13.348.204-.2-.212-.215-.203.2.211.215Z" opacity=".86"/><path d="m17.916 14.485.24-.235-.25-.254-.239.235.25.254Z" opacity=".89"/><path d="m16.791 15.591.244-.24-.253-.258-.245.24.254.258Z" opacity=".9"/><path d="m15.662 16.528.084-.083-.087-.088-.084.082.087.09Z" opacity=".72"/><path d="m14.543 17.847.281-.277-.292-.297-.282.276.293.298Z" opacity=".87"/><path d="m13.407 18.713.05-.049-.053-.054-.05.05.053.053Z" opacity=".56"/><path d="m12.289 20.127.344-.338-.357-.364-.344.338.357.364Z" opacity=".75"/><path d="m11.163 21.249.364-.358-.38-.387-.364.358.38.387Z" opacity=".7"/><path d="m10.04 22.287.292-.287-.304-.31-.293.287.305.31Z" opacity=".79"/><path d="m19 10.89.055-.054-.057-.058-.055.054.057.058Z" opacity=".83"/><path d="m17.88 12.22.272-.267-.283-.289-.273.268.284.289Z" opacity=".66"/><path d="m16.75 13.27.21-.207-.22-.225-.21.208.22.224Z" opacity=".64"/><path d="m15.624 14.434.282-.278-.293-.299-.283.278.294.299Z" opacity=".93"/><path d="m13.372 16.604.233-.229-.242-.247-.234.229.243.247Z" opacity=".89"/><path d="m12.249 17.93.446-.438-.463-.472-.447.439.464.472Z" opacity=".78"/><path d="m11.117 18.651.074-.073-.076-.078-.074.073.076.078Z" opacity=".92"/><path d="m9.99 19.735.05-.047-.051-.052-.049.047.05.052Z" opacity=".79"/><path d="m16.704 10.825.07-.067-.073-.073-.069.067.072.073Z" opacity=".78"/><path d="m15.576 12.041.178-.174-.184-.187-.177.174.183.187Z" opacity=".91"/><path d="m14.451 13.162.197-.193-.204-.208-.197.193.204.208Z" opacity=".62"/><path d="m13.324 14.197.13-.127-.135-.137-.13.127.135.137Z" opacity=".73"/><path d="m12.203 15.43.246-.242-.256-.261-.246.242.256.26Z" opacity=".69"/><path d="m11.08 16.636.354-.347-.368-.374-.354.347.368.374Z" opacity=".83"/><path d="m9.946 17.47.081-.08-.085-.086-.08.08.084.086Z" opacity=".72"/><path d="m13.281 12.119.344-.338-.357-.363-.344.337.357.364Z" opacity=".71"/><path d="m12.153 12.943.062-.06-.064-.065-.06.06.063.065Z" opacity=".7"/><path d="m11.033 14.148.158-.156-.164-.167-.159.155.165.168Z" opacity=".73"/><path d="m9.903 15.285.195-.191-.204-.207-.194.191.203.207Z" opacity=".88"/><path d="m10.989 11.92.238-.232-.248-.252-.237.233.247.252Z" opacity=".55"/></g><path stroke="#000" stroke-miterlimit="10" stroke-width=".2" d="M48.346 1.305 36.804 42.272-5.32 53.995 6.392 11.659 48.346 1.305Z"/></g><path stroke="#000" stroke-miterlimit="10" stroke-width=".2" d="m36.773 18.58-.525 14.881-13.173-7.337-13.221 7.061-.178-14.822 13.75-7.472 13.347 7.69Z"/></svg>