<svg xmlns="http://www.w3.org/2000/svg" width="84" height="50" fill="none"><g clip-path="url(#a)"><path fill="#2741E7" fill-rule="evenodd" d="M33.152 37.722H21.067c-.722 0-1.47-.465-1.91-1.234l-5.6-10.417c-.282-.768-.282-1.536 0-2.143l5.6-10.416c.44-.769 1.188-1.234 1.91-1.234h6.93c.748 0 1.47-.465 1.937-1.234l4.992-9.323c.445-.769-.141-1.7-.863-1.7H15.467c-1.606 0-2.936.931-3.825 2.306L.588 22.863a5.018 5.018 0 0 0-.402 1.066 4.811 4.811 0 0 0 0 2.278c.094.375.228.732.402 1.071l11.053 20.395c.189.343.422.653.7.93.265.279.568.528.912.748.326.202.684.348 1.075.438.372.108.752.162 1.14.162h23.75c.885 0 1.33-.903.885-1.672l-5.177-9.486c-.141-.768-.863-1.093-1.747-1.093l-.027.022Z" clip-rule="evenodd"/><path fill="#fff" d="M65.88 9.07 61.17.79c-.444-.768-1.47-.768-1.915 0L39.357 37.56c-.304.768-.304 1.53 0 2.137l5.155 9.654c.445.763 1.47.763 1.91 0L65.88 13.51c.188-.342.327-.706.418-1.092a4.636 4.636 0 0 0 0-2.278 4.362 4.362 0 0 0-.418-1.072Z"/><path fill="#fff" fill-rule="evenodd" d="m41.855 25.91 5.898-10.861c.304-.628.304-1.537 0-2.306L40.965.65c-.44-.763-1.465-.763-1.91 0l-5.741 10.558c-.304.606-.304 1.536 0 2.143l6.625 12.418c.445.904 1.612.904 1.916.141Z" clip-rule="evenodd"/><path fill="#fff" d="M83.263 9.07 78.547.79c-.439-.768-1.465-.768-1.91 0L56.74 37.56c-.282.768-.282 1.53 0 2.137l5.318 9.654c.445.763 1.47.763 1.91 0l19.459-35.84c.721-1.395.721-3.067-.163-4.442Z"/></g><defs><clipPath id="a"><path fill="#fff" d="M0 0h84v50H0z"/></clipPath></defs></svg>