<svg xmlns="http://www.w3.org/2000/svg" viewBox="0 0 683.04 399.05"><defs><style>.cls-1{fill:#53608c}.cls-2{mix-blend-mode:multiply;opacity:.5}.cls-4{fill:#000001}.cls-6,.cls-7{fill:#fff}.cls-9{fill:#95acd2}.cls-7{stroke-width:.25px;stroke:#000;stroke-miterlimit:10}.cls-10{fill:#c3c7cd}.cls-11{fill:#36487c}</style></defs><g style="isolation:isolate"><g id="Layer_1" data-name="Layer 1"><path d="M683.04 190.08v16.88c0 1.52-.37 2.92-1.76 3.69L350.93 396.33c-6.47 3.61-14.51 3.63-20.99.04L23.09 226.62 1.76 214.64C.38 213.87 0 212.47 0 210.95L.58 191c0-.14.2-.18.26-.05.24 1.2.08 2.71.87 4.37a19.7 19.7 0 0 0 2.25 3.65c.74.41 1.48.82 2.23 1.22l331.95 183.6c1.43.79 3.2.78 4.61-.01l334.44-185.96c.95-.58 2.83-1.9 4.08-4.26.75-1.43 1.02-2.75 1.12-3.66.21.06.43.13.64.19Z" style="fill:#aaadb2"/><path d="M677.11 180.48c6.99 3.77 7.06 13.26.13 17.13l-.05.03-331.41 184.98c-3.29 1.84-7.38 1.84-10.67.02L6.2 200.7c-6.92-3.83-6.92-13.27 0-17.09l329-182c3.25-1.8 7.27-1.82 10.54-.05l331.37 178.92Z" style="stroke-width:.5px;stroke:#000;stroke-miterlimit:10;fill:#fff"/><path d="M348.7 295.7c-1.12 0-2.2-.22-3-.67l-73.8-39.81c-.8-.45-1.23-1.07-1.23-1.76 0-.82.63-1.64 1.72-2.25l65.1-35.11c2.04-1.14 5.13-1.26 6.89-.27l73.79 39.81c.79.44 1.23 1.06 1.23 1.75 0 .82-.62 1.64-1.71 2.26l-65.1 35.11c-1.11.62-2.53.94-3.89.94Zm-7.33-80.29c-1.31 0-2.69.31-3.76.91l-65.1 35.11c-1.01.56-1.58 1.3-1.58 2.03 0 .59.39 1.14 1.1 1.54l73.8 39.81c1.69.95 4.67.83 6.63-.27l65.1-35.11c1-.56 1.58-1.31 1.58-2.04 0-.59-.39-1.14-1.1-1.53l-73.79-39.81c-.77-.43-1.8-.64-2.87-.64Zm151.75 23.65c-1.12 0-2.2-.22-3-.67l-73.8-39.81c-.8-.45-1.23-1.07-1.23-1.76 0-.82.63-1.64 1.72-2.25l65.1-35.11c2.04-1.14 5.13-1.26 6.89-.27L562.59 199c.79.44 1.23 1.06 1.23 1.75 0 .82-.62 1.64-1.71 2.26l-65.1 35.11c-1.11.62-2.53.94-3.89.94Zm-7.32-80.29c-1.31 0-2.69.31-3.76.91l-65.1 35.11c-1.01.56-1.58 1.3-1.58 2.03 0 .59.39 1.14 1.1 1.54l73.8 39.81c1.69.95 4.67.83 6.63-.27l65.1-35.11c1-.56 1.58-1.31 1.58-2.04 0-.59-.39-1.14-1.1-1.53l-73.79-39.81c-.77-.43-1.8-.64-2.87-.64Zm-281.54 56.05c-1.12 0-2.2-.22-3-.67l-73.8-39.81c-.8-.45-1.23-1.07-1.23-1.76 0-.82.63-1.64 1.72-2.25l65.1-35.11c2.04-1.14 5.13-1.26 6.89-.27l73.79 39.81c.79.44 1.23 1.06 1.23 1.75 0 .82-.62 1.64-1.71 2.26l-65.1 35.11c-1.11.62-2.53.94-3.89.94Zm-7.33-80.29c-1.31 0-2.69.31-3.76.91l-65.1 35.11c-1.01.56-1.58 1.3-1.58 2.03 0 .59.39 1.14 1.1 1.54l73.8 39.81c1.69.95 4.67.83 6.63-.27l65.1-35.11c1-.56 1.58-1.31 1.58-2.04 0-.59-.39-1.14-1.1-1.53l-73.79-39.81c-.77-.43-1.8-.64-2.87-.64Z"/><path d="M275.35 306.86v10.92l32.93-18.04v-11.43l-32.93 18.55z" class="cls-11"/><path d="M242.08 288.31v11.3l33.27 18.17v-10.92l-33.27-18.55z" class="cls-1"/><path d="M242.08 288.31 274.97 270l33.31 18.31-32.89 18.72-33.31-18.72z" class="cls-9"/><path d="m288.44 307.46 6.78-3.71v-4.91l-6.78 3.82v4.8zm10.22-5.6 6.75-3.7v-5.06l-6.75 3.8v4.96zM285 304.6l-6.78 3.82v4.64l6.78-3.71v-4.75z" class="cls-4"/><path d="m261.96 307.46-6.78-3.71v-4.91l6.78 3.82v4.8zm-10.22-5.6-6.75-3.7v-5.06l6.75 3.8v4.96zm13.66 2.74 6.78 3.82v4.64l-6.78-3.71v-4.75zm9.95-19.19v10.92l32.93-18.04v-11.43l-32.93 18.55z" class="cls-11"/><path d="M242.08 266.86v11.29l33.27 18.18v-10.92l-33.27-18.55z" class="cls-1"/><path d="m242.08 266.86 32.89-18.31 33.31 18.31-32.89 18.72-33.31-18.72z" class="cls-7"/><path d="m288.44 286.01 6.78-3.72v-4.9l-6.78 3.82v4.8zm10.22-5.6 6.75-3.7v-5.06l-6.75 3.8v4.96zM285 283.14l-6.78 3.82v4.65l6.78-3.72v-4.75z" class="cls-4"/><path d="m261.96 286.01-6.78-3.72v-4.9l6.78 3.82v4.8zm-10.22-5.6-6.75-3.7v-5.06l6.75 3.8v4.96zm13.66 2.73 6.78 3.82v4.65l-6.78-3.72v-4.75zm11.54-46.83v7.23l21.79-11.94v-7.56l-21.79 12.27z" class="cls-11"/><path d="M254.92 224.04v7.47l22.02 12.03v-7.23l-22.02-12.27z" class="cls-1"/><path d="m254.92 224.04 21.76-12.12 22.05 12.12-21.76 12.39-22.05-12.39z" class="cls-9"/><path d="m285.6 236.71 4.49-2.46v-3.24l-4.49 2.53v3.17zm6.76-3.7 4.47-2.45v-3.35l-4.47 2.52v3.28zm-9.04 1.81-4.48 2.53v3.07l4.48-2.46v-3.14z" class="cls-4"/><path d="m268.07 236.71-4.49-2.46v-3.24l4.49 2.53v3.17zm-6.76-3.7-4.47-2.45v-3.35l4.47 2.52v3.28zm9.04 1.81 4.49 2.53v3.07l-4.49-2.46v-3.14zm6.59-12.7v7.22l21.79-11.94v-7.56l-21.79 12.28z" class="cls-11"/><path d="M254.92 209.84v7.47l22.02 12.03v-7.22l-22.02-12.28z" class="cls-1"/><path d="m254.92 209.84 21.76-12.12 22.05 12.12-21.76 12.39-22.05-12.39z" class="cls-7"/><path d="m285.6 222.51 4.49-2.46v-3.24l-4.49 2.53v3.17zm6.76-3.7 4.47-2.45v-3.35l-4.47 2.52v3.28zm-9.04 1.81-4.48 2.53v3.07l4.48-2.46v-3.14z" class="cls-4"/><path d="m268.07 222.51-4.49-2.46v-3.24l4.49 2.53v3.17zm-6.76-3.7-4.47-2.45v-3.35l4.47 2.52v3.28zm9.04 1.81 4.49 2.53v3.07l-4.49-2.46v-3.14zM351.1 54.99v7.23l21.79-11.94v-7.56L351.1 54.99z" class="cls-11"/><path d="M329.07 42.72v7.47l22.03 12.03v-7.23l-22.03-12.27z" class="cls-1"/><path d="m329.07 42.72 21.77-12.12 22.05 12.12-21.77 12.39-22.05-12.39z" class="cls-9"/><path d="m359.75 55.39 4.49-2.46v-3.24l-4.49 2.52v3.18zm6.77-3.7 4.47-2.45v-3.35l-4.47 2.51v3.29zm-9.04 1.81-4.49 2.53v3.07l4.49-2.46V53.5z" class="cls-4"/><path d="m342.23 55.39-4.49-2.46v-3.24l4.49 2.52v3.18zm-6.77-3.7-4.47-2.45v-3.35l4.47 2.51v3.29zm9.04 1.81 4.49 2.53v3.07l-4.49-2.46V53.5zm6.6-12.71v7.23l21.79-11.94v-7.56L351.1 40.79z" class="cls-11"/><path d="M329.07 28.52v7.47l22.03 12.03v-7.23l-22.03-12.27z" class="cls-1"/><path d="m329.07 28.52 21.77-12.12 22.05 12.12-21.77 12.39-22.05-12.39z" class="cls-7"/><path d="m359.75 41.19 4.49-2.46v-3.24l-4.49 2.53v3.17zm6.77-3.7 4.47-2.45v-3.35l-4.47 2.52v3.28zm-9.04 1.81-4.49 2.53v3.07l4.49-2.46V39.3z" class="cls-4"/><path d="m342.23 41.19-4.49-2.46v-3.24l4.49 2.53v3.17zm-6.77-3.7-4.47-2.45v-3.35l4.47 2.52v3.28zm9.04 1.81 4.49 2.53v3.07l-4.49-2.46V39.3zm171.81 142.62v7.23l21.79-11.94v-7.57l-21.79 12.28z" class="cls-11"/><path d="M494.29 169.64v7.48l22.02 12.03v-7.23l-22.02-12.28z" class="cls-1"/><path d="m494.29 169.64 21.76-12.12 22.05 12.12-21.77 12.39-22.04-12.39z" class="cls-9"/><path d="m524.97 182.32 4.49-2.46v-3.25l-4.49 2.53v3.18zm6.76-3.71 4.47-2.45v-3.35l-4.47 2.52v3.28zm-9.04 1.81-4.49 2.53v3.07l4.49-2.46v-3.14z" class="cls-4"/><path d="m507.44 182.32-4.49-2.46v-3.25l4.49 2.53v3.18zm-6.76-3.71-4.47-2.45v-3.35l4.47 2.52v3.28zm9.04 1.81 4.48 2.53v3.07l-4.48-2.46v-3.14zm6.59-12.7v7.23l21.79-11.94v-7.57l-21.79 12.28z" class="cls-11"/><path d="M494.29 155.44v7.48l22.02 12.03v-7.23l-22.02-12.28z" class="cls-1"/><path d="m494.29 155.44 21.76-12.12 22.05 12.12-21.77 12.39-22.04-12.39z" class="cls-7"/><path d="m524.97 168.12 4.49-2.46v-3.25l-4.49 2.53v3.18zm6.76-3.71 4.47-2.45v-3.35l-4.47 2.52v3.28zm-9.04 1.81-4.49 2.53v3.07l4.49-2.46v-3.14z" class="cls-4"/><path d="m507.44 168.12-4.49-2.46v-3.25l4.49 2.53v3.18zm-6.76-3.71-4.47-2.45v-3.35l4.47 2.52v3.28zm9.04 1.81 4.48 2.53v3.07l-4.48-2.46v-3.14zm-13.4-38.25v7.23l21.79-11.94v-7.56l-21.79 12.27z" class="cls-11"/><path d="M474.3 115.7v7.47l22.02 12.03v-7.23L474.3 115.7z" class="cls-1"/><path d="m474.3 115.7 21.77-12.12 22.04 12.12-21.76 12.39-22.05-12.39z" class="cls-9"/><path d="m504.98 128.37 4.49-2.46v-3.24l-4.49 2.52v3.18zm6.77-3.7 4.47-2.45v-3.35l-4.47 2.51v3.29zm-9.04 1.81-4.49 2.52v3.08l4.49-2.46v-3.14z" class="cls-4"/><path d="m487.46 128.37-4.49-2.46v-3.24l4.49 2.52v3.18zm-6.77-3.7-4.47-2.45v-3.35l4.47 2.51v3.29zm9.04 1.81 4.49 2.52v3.08l-4.49-2.46v-3.14zm6.59-12.71V121l21.79-11.94v-7.56l-21.79 12.27z" class="cls-11"/><path d="M474.3 101.5v7.47L496.32 121v-7.23L474.3 101.5z" class="cls-1"/><path d="m474.3 101.5 21.77-12.12 22.04 12.12-21.76 12.39-22.05-12.39z" class="cls-7"/><path d="m504.98 114.17 4.49-2.46v-3.24l-4.49 2.52v3.18zm6.77-3.7 4.47-2.45v-3.35l-4.47 2.51v3.29zm-9.04 1.81-4.49 2.52v3.08l4.49-2.46v-3.14z" class="cls-4"/><path d="m487.46 114.17-4.49-2.46v-3.24l4.49 2.52v3.18zm-6.77-3.7-4.47-2.45v-3.35l4.47 2.51v3.29zm9.04 1.81 4.49 2.52v3.08l-4.49-2.46v-3.14zM99.12 215.95v10.92l32.92-18.04V197.4l-32.92 18.55z" class="cls-11"/><path d="M65.85 197.4v11.3l33.27 18.17v-10.92L65.85 197.4z" class="cls-1"/><path d="m65.85 197.4 32.88-18.31 33.31 18.31-32.88 18.72-33.31-18.72z" class="cls-9"/><path d="m112.2 216.55 6.78-3.71v-4.91l-6.78 3.82v4.8zm10.22-5.6 6.75-3.7v-5.06l-6.75 3.8v4.96zm-13.66 2.74-6.78 3.82v4.64l6.78-3.71v-4.75z" class="cls-4"/><path d="m85.72 216.55-6.78-3.71v-4.91l6.78 3.82v4.8zm-10.22-5.6-6.75-3.7v-5.06l6.75 3.8v4.96zm13.66 2.74 6.78 3.82v4.64l-6.78-3.71v-4.75zm9.96-19.19v10.92l32.92-18.04v-11.43L99.12 194.5z" class="cls-11"/><path d="M65.85 175.95v11.29l33.27 18.18V194.5l-33.27-18.55z" class="cls-1"/><path d="m65.85 175.95 32.88-18.31 33.31 18.31-32.88 18.72-33.31-18.72z" class="cls-7"/><path d="m112.2 195.1 6.78-3.72v-4.9l-6.78 3.82v4.8zm10.22-5.6 6.75-3.7v-5.06l-6.75 3.8v4.96zm-13.66 2.73-6.78 3.82v4.65l6.78-3.72v-4.75z" class="cls-4"/><path d="m85.72 195.1-6.78-3.72v-4.9l6.78 3.82v4.8zm-10.22-5.6-6.75-3.7v-5.06l6.75 3.8v4.96zm13.66 2.73 6.78 3.82v4.65l-6.78-3.72v-4.75zm104.96-31.87v10.92l32.93-18.04v-11.42l-32.93 18.54z" class="cls-11"/><path d="M160.86 141.82v11.29l33.26 18.17v-10.92l-33.26-18.54z" class="cls-1"/><path d="m160.86 141.82 32.88-18.32 33.31 18.32-32.89 18.72-33.3-18.72z" class="cls-9"/><path d="m207.21 160.97 6.78-3.72v-4.91l-6.78 3.82v4.81zm10.22-5.6 6.75-3.71v-5.06l-6.75 3.81v4.96zm-13.66 2.73-6.78 3.82v4.64l6.78-3.71v-4.75z" class="cls-4"/><path d="m180.73 160.97-6.78-3.72v-4.91l6.78 3.82v4.81zm-10.22-5.6-6.75-3.71v-5.06l6.75 3.81v4.96zm13.66 2.73 6.78 3.82v4.64l-6.78-3.71v-4.75zm9.95-19.19v10.92l32.93-18.04v-11.43l-32.93 18.55z" class="cls-11"/><path d="M160.86 120.36v11.3l33.26 18.17v-10.92l-33.26-18.55z" class="cls-1"/><path d="m160.86 120.36 32.88-18.31 33.31 18.31-32.89 18.72-33.3-18.72z" class="cls-7"/><path d="m207.21 139.51 6.78-3.71v-4.91l-6.78 3.82v4.8zm10.22-5.6 6.75-3.7v-5.06l-6.75 3.8v4.96zm-13.66 2.74-6.78 3.82v4.64l6.78-3.71v-4.75z" class="cls-4"/><path d="m180.73 139.51-6.78-3.71v-4.91l6.78 3.82v4.8zm-10.22-5.6-6.75-3.7v-5.06l6.75 3.8v4.96zm13.66 2.74 6.78 3.82v4.64l-6.78-3.71v-4.75zm138.74 44.57v10.92l32.92-18.04v-11.43l-32.92 18.55z" class="cls-11"/><path d="M289.64 162.67v11.29l33.27 18.18v-10.92l-33.27-18.55z" class="cls-1"/><path d="m289.64 162.67 32.88-18.31 33.31 18.31-32.88 18.72-33.31-18.72z" class="cls-9"/><path d="m335.99 181.82 6.78-3.72v-4.9l-6.78 3.82v4.8zm10.22-5.6 6.76-3.7v-5.06l-6.76 3.8v4.96zm-13.66 2.73-6.78 3.82v4.65l6.78-3.72v-4.75z" class="cls-4"/><path d="m309.51 181.82-6.78-3.72v-4.9l6.78 3.82v4.8zm-10.22-5.6-6.75-3.7v-5.06l6.75 3.8v4.96zm13.66 2.73 6.78 3.82v4.65l-6.78-3.72v-4.75zm9.96-19.19v10.93l32.92-18.05v-11.42l-32.92 18.54z" class="cls-11"/><path d="M289.64 141.22v11.29l33.27 18.18v-10.93l-33.27-18.54z" class="cls-1"/><path d="m289.64 141.22 32.88-18.32 33.31 18.32-32.88 18.72-33.31-18.72z" class="cls-7"/><path d="m335.99 160.37 6.78-3.72v-4.91l-6.78 3.82v4.81zm10.22-5.6 6.76-3.71V146l-6.76 3.81v4.96zm-13.66 2.73-6.78 3.82v4.65l6.78-3.72v-4.75z" class="cls-4"/><path d="m309.51 160.37-6.78-3.72v-4.91l6.78 3.82v4.81zm-10.22-5.6-6.75-3.71V146l6.75 3.81v4.96zm13.66 2.73 6.78 3.82v4.65l-6.78-3.72v-4.75zm127.87 149.28v10.92l32.92-18.04v-11.43l-32.92 18.55z" class="cls-11"/><path d="M407.55 288.23v11.29l33.27 18.18v-10.92l-33.27-18.55z" class="cls-1"/><path d="m407.55 288.23 32.88-18.31 33.31 18.31-32.88 18.72-33.31-18.72z" class="cls-9"/><path d="m453.91 307.38 6.78-3.72v-4.9l-6.78 3.82v4.8zm10.21-5.6 6.76-3.7v-5.07l-6.76 3.81v4.96zm-13.65 2.73-6.78 3.82v4.65l6.78-3.72v-4.75z" class="cls-4"/><path d="m427.43 307.38-6.79-3.72v-4.9l6.79 3.82v4.8zm-10.22-5.6-6.76-3.7v-5.07l6.76 3.81v4.96zm13.65 2.73 6.78 3.82v4.65l-6.78-3.72v-4.75zm9.96-19.19v10.92l32.92-18.04v-11.42l-32.92 18.54z" class="cls-11"/><path d="M407.55 266.78v11.29l33.27 18.17v-10.92l-33.27-18.54z" class="cls-1"/><path d="m407.55 266.78 32.88-18.32 33.31 18.32-32.88 18.72-33.31-18.72z" class="cls-7"/><path d="m453.91 285.92 6.78-3.71v-4.91l-6.78 3.82v4.8zm10.21-5.59 6.76-3.71v-5.06l-6.76 3.81v4.96zm-13.65 2.73-6.78 3.82v4.64l6.78-3.71v-4.75z" class="cls-4"/><path d="m427.43 285.92-6.79-3.71v-4.91l6.79 3.82v4.8zm-10.22-5.59-6.76-3.71v-5.06l6.76 3.81v4.96zm13.65 2.73 6.78 3.82v4.64l-6.78-3.71v-4.75zm93.9-33.77v10.92l32.92-18.04v-11.43l-32.92 18.55z" class="cls-11"/><path d="M491.49 230.74v11.29l33.27 18.18v-10.92l-33.27-18.55z" class="cls-1"/><path d="m491.49 230.74 32.88-18.31 33.31 18.31-32.88 18.72-33.31-18.72z" class="cls-9"/><path d="m537.84 249.89 6.79-3.72v-4.9l-6.79 3.82v4.8zm10.22-5.6 6.76-3.7v-5.07l-6.76 3.81v4.96zm-13.65 2.73-6.78 3.82v4.65l6.78-3.72v-4.75z" class="cls-4"/><path d="m511.37 249.89-6.79-3.72v-4.9l6.79 3.82v4.8zm-10.22-5.6-6.76-3.7v-5.07l6.76 3.81v4.96zm13.65 2.73 6.78 3.82v4.65l-6.78-3.72v-4.75zm9.96-19.19v10.92l32.92-18.04v-11.42l-32.92 18.54z" class="cls-11"/><path d="M491.49 209.29v11.29l33.27 18.17v-10.92l-33.27-18.54z" class="cls-1"/><path d="m491.49 209.29 32.88-18.32 33.31 18.32-32.88 18.72-33.31-18.72z" class="cls-7"/><path d="m537.84 228.43 6.79-3.71v-4.91l-6.79 3.82v4.8zm10.22-5.59 6.76-3.71v-5.06l-6.76 3.81v4.96zm-13.65 2.73-6.78 3.82v4.64l6.78-3.71v-4.75z" class="cls-4"/><path d="m511.37 228.43-6.79-3.71v-4.91l6.79 3.82v4.8zm-10.22-5.59-6.76-3.71v-5.06l6.76 3.81v4.96zm13.65 2.73 6.78 3.82v4.64l-6.78-3.71v-4.75zm80.77-21.45v10.92L628.49 197v-11.43l-32.92 18.55z" class="cls-11"/><path d="M562.3 185.57v11.29l33.27 18.18v-10.92l-33.27-18.55z" class="cls-1"/><path d="m562.3 185.57 32.88-18.31 33.31 18.31-32.88 18.72-33.31-18.72z" class="cls-9"/><path d="m608.65 204.72 6.78-3.72v-4.9l-6.78 3.82v4.8zm10.22-5.6 6.76-3.7v-5.06l-6.76 3.8v4.96zm-13.65 2.73-6.78 3.82v4.65l6.78-3.72v-4.75z" class="cls-4"/><path d="m582.17 204.72-6.78-3.72v-4.9l6.78 3.82v4.8zm-10.21-5.6-6.76-3.7v-5.06l6.76 3.8v4.96zm13.65 2.73 6.78 3.82v4.65l-6.78-3.72v-4.75zm9.96-19.19v10.92l32.92-18.04v-11.42l-32.92 18.54z" class="cls-11"/><path d="M562.3 164.12v11.29l33.27 18.17v-10.92l-33.27-18.54z" class="cls-1"/><path d="m562.3 164.12 32.88-18.32 33.31 18.32-32.88 18.72-33.31-18.72z" class="cls-7"/><path d="m608.65 183.27 6.78-3.72v-4.91l-6.78 3.82v4.81zm10.22-5.6 6.76-3.71v-5.06l-6.76 3.81v4.96zm-13.65 2.73-6.78 3.82v4.65l6.78-3.72v-4.75z" class="cls-4"/><path d="m582.17 183.27-6.78-3.72v-4.91l6.78 3.82v4.81zm-10.21-5.6-6.76-3.71v-5.06l6.76 3.81v4.96zm13.65 2.73 6.78 3.82v4.65l-6.78-3.72v-4.75z" class="cls-11"/><g class="cls-2"><path d="m376.41 335.32-49.06 28.02-43.99-24.24 49.61-27.34 43.44 23.56z" class="cls-10"/></g><g class="cls-2"><path d="m221.26 245.07-49.07 28.02-43.99-24.23 49.61-27.35 43.45 23.56z" class="cls-10"/></g><g class="cls-2"><path d="m382.67 250.23-49.06 28.02-44-24.23 49.61-27.35 43.45 23.56z" class="cls-10"/></g><g class="cls-2"><path d="m463.57 199.51-49.07 28.03-43.99-24.24 49.61-27.35 43.45 23.56z" class="cls-10"/></g><path d="m395.25 293.04-.08 34.9-53.96 29.89.09-34.91 53.95-29.88z" class="cls-10"/><path d="M340.87 358.39v-.56l.09-35.1.17-.09 54.47-30.16v.56l-.09 35.08-.17.09-54.47 30.17Zm.76-35.28-.08 34.15 53.28-29.52.08-34.14-53.28 29.5Z"/><path d="m341.21 357.83-34.32-18.89v-34.95l34.41 18.93-.09 34.91z" class="cls-10"/><path d="m341.55 358.39-.51-.28-34.49-18.98v-35.7l.51.28 34.58 19.02v.19l-.09 35.47Zm-34.33-19.64 33.65 18.52.08-34.15-33.73-18.55v34.19Z"/><path d="m395.25 293.04-53.95 29.88-34.59-19.03L360.67 274l34.58 19.04z" class="cls-6"/><path d="m341.3 323.29-.17-.1-35.1-19.31.51-.28 54.13-29.98.17.09 35.09 19.32-.51.28-54.13 29.97Zm-33.92-19.4 33.91 18.65 53.28-29.5-33.91-18.67-53.29 29.52Z"/><path d="m238.23 204.05-.09 34.9-53.96 29.88.09-34.9 53.96-29.88z" class="cls-10"/><path d="M183.84 269.4v-.56l.09-35.1.17-.09 54.47-30.16v.56l-.09 35.08-.17.09-54.47 30.17Zm.76-35.28-.08 34.15 53.28-29.52.08-34.14-53.28 29.5Z"/><path d="m184.18 268.83-34.32-18.88V215l34.41 18.93-.09 34.9z" class="cls-10"/><path d="m184.52 269.4-.51-.28-34.49-18.98v-35.7l.51.28 34.58 19.02v.19l-.09 35.47Zm-34.33-19.64 33.65 18.52.08-34.15-33.73-18.55v34.19Z"/><path d="m238.23 204.05-53.96 29.88-34.59-19.03 53.96-29.89 34.59 19.04z" class="cls-6"/><path d="m184.27 234.3-.17-.1-35.1-19.31.51-.28 54.13-29.98.17.09 35.09 19.32-.51.28-54.13 29.97Zm-33.92-19.4 33.91 18.65 53.28-29.5-33.91-18.67-53.29 29.52Z"/><path d="m396.28 209.09-.09 34.89-53.96 29.89.09-34.9 53.96-29.88z" class="cls-10"/><path d="M341.89 274.44v-.56l.09-35.1.17-.09 54.47-30.16v.56l-.09 35.08-.17.09-54.47 30.17Zm.77-35.28-.08 34.15 53.28-29.52.08-34.14-53.28 29.5Z"/><path d="m342.23 273.87-34.32-18.89v-34.94l34.41 18.93-.09 34.9z" class="cls-10"/><path d="m342.57 274.44-.51-.28-34.49-18.98v-35.7l.51.28 34.58 19.02v.19l-.09 35.47Zm-34.32-19.64 33.65 18.52.08-34.15-33.73-18.55v34.19Z"/><path d="m396.28 209.09-53.96 29.88-34.59-19.03 53.96-29.89 34.59 19.04z" class="cls-6"/><path d="m342.32 239.34-.17-.1-35.1-19.31.51-.28 54.13-29.98.17.09 35.09 19.32-.51.28-54.13 29.97Zm-33.92-19.4 33.91 18.65 53.28-29.5-33.91-18.67-53.29 29.52Z"/><path d="m485.98 163.88-.08 34.9-53.96 29.89.08-34.91 53.96-29.88z" class="cls-10"/><path d="M431.6 229.23v-.56l.09-35.1.17-.09 54.47-30.16v.56l-.09 35.08-.17.09-54.47 30.17Zm.76-35.28-.08 34.15 53.28-29.52.08-34.14-53.28 29.5Z"/><path d="m431.94 228.67-34.33-18.89v-34.95l34.41 18.93-.08 34.91z" class="cls-10"/><path d="m432.28 229.23-.51-.28-34.49-18.98v-35.7l.51.28 34.58 19.02v.19l-.09 35.47Zm-34.33-19.64 33.65 18.52.08-34.15-33.73-18.55v34.19Z"/><path d="m485.98 163.88-53.96 29.88-34.59-19.03 53.97-29.89 34.58 19.04z" class="cls-6"/><path d="m432.02 194.13-.17-.1-35.1-19.31.51-.28 54.13-29.98.17.09 35.09 19.32-.51.28-54.13 29.97Zm-33.91-19.4 33.91 18.65 53.28-29.5-33.91-18.67-53.29 29.52Z"/><g class="cls-2"><path d="m435.32 117.27-49.06 28.02-43.99-24.23 49.61-27.35 43.44 23.56z" class="cls-10"/></g><path d="m457.74 81.64-.09 34.89-53.96 29.89.09-34.91 53.96-29.87z" class="cls-10"/><path d="M403.35 146.98v-.56l.09-35.1.17-.09 54.47-30.16v.56l-.09 35.08-.17.09-54.47 30.17Zm.77-35.28-.08 34.15 53.28-29.52.08-34.14-53.28 29.5Z"/><path d="m403.69 146.42-34.32-18.89V92.58l34.41 18.93-.09 34.91z" class="cls-10"/><path d="m404.03 146.98-.51-.28-34.49-18.98v-35.7l.51.28 34.58 19.02v.19l-.09 35.47Zm-34.32-19.64 33.65 18.52.08-34.15-33.73-18.55v34.19Z"/><path d="m457.74 81.64-53.96 29.87-34.59-19.03 53.96-29.88 34.59 19.04z" class="cls-6"/><path d="m403.78 111.89-.17-.1-35.1-19.31.51-.28 54.13-29.98.17.09 35.09 19.32-.51.28-54.13 29.97Zm-33.91-19.41 33.91 18.65 53.28-29.5-33.91-18.67-53.29 29.52Z"/><g class="cls-2"><path d="m303.05 97.87-49.06 28.02L210 101.66l49.61-27.35 43.44 23.56z" class="cls-10"/></g><path d="m325.47 62.24-.09 34.9-53.95 29.89.08-34.91 53.96-29.88z" class="cls-10"/><path d="M271.08 127.59v-.56l.09-35.1.17-.09 54.47-30.16v.56l-.09 35.08-.17.09-54.47 30.17Zm.77-35.28-.08 34.15 53.28-29.52.08-34.14-53.28 29.5Z"/><path d="m271.43 127.03-34.33-18.89V73.19l34.41 18.93-.08 34.91z" class="cls-10"/><path d="m271.76 127.59-.51-.28-34.49-18.98v-35.7l.51.28 34.58 19.02v.19l-.09 35.47Zm-34.32-19.64 33.65 18.52.08-34.15-33.73-18.55v34.19Z"/><path d="m325.47 62.24-53.96 29.88-34.59-19.03 53.96-29.89 34.59 19.04z" class="cls-6"/><path d="m271.51 92.49-.17-.1-35.1-19.31.51-.28 54.13-29.98.17.09 35.09 19.32-.51.28-54.13 29.97Zm-33.91-19.4 33.91 18.65 53.28-29.5-33.91-18.67-53.29 29.52Z"/></g></g></svg>