<svg xmlns="http://www.w3.org/2000/svg" width="22" height="22" fill="none"><path fill="#000" fill-rule="evenodd" d="M11.001 0C17.076 0 22 4.924 22 10.999 22 17.075 17.076 22 11.001 22 4.925 22 0 17.075 0 10.999 0 4.924 4.925 0 11.001 0Zm1.191.941c.513.06 1.013.159 1.5.292.582.812 1.05 1.866 1.404 3.07a19 19 0 0 1 .485 2.103c.736.128 1.443.29 2.102.484 1.21.356 2.27.827 3.083 1.415.135.489.234.992.293 1.508-.688-.88-1.997-1.564-3.634-2.046a18.003 18.003 0 0 0-1.7-.405c.156 1.17.232 2.396.232 3.624h.003c0 1.226-.079 2.452-.235 3.623a17.405 17.405 0 0 0 1.699-.405c1.64-.482 2.95-1.167 3.638-2.05a9.975 9.975 0 0 1-.288 1.507c-.814.59-1.875 1.062-3.093 1.421-.658.193-1.365.355-2.102.485-.129.736-.29 1.442-.484 2.102-.36 1.221-.836 2.287-1.429 3.103-.49.135-.998.231-1.516.29.892-.682 1.583-2.001 2.068-3.652.16-.535.293-1.104.405-1.698-1.17.155-2.398.234-3.623.234-1.227 0-2.455-.079-3.625-.234.113.594.247 1.162.405 1.698.486 1.651 1.178 2.97 2.068 3.652a9.914 9.914 0 0 1-1.516-.29c-.594-.817-1.068-1.883-1.428-3.103a19.105 19.105 0 0 1-.485-2.102 19.57 19.57 0 0 1-2.102-.485c-1.216-.359-2.277-.831-3.093-1.421-.132-.489-.23-.992-.287-1.506.687.88 1.998 1.567 3.638 2.048a17.02 17.02 0 0 0 1.698.405 27.683 27.683 0 0 1-.234-3.623c0-1.227.078-2.455.234-3.624a18.05 18.05 0 0 0-1.698.405C2.938 8.248 1.628 8.93.94 9.81c.06-.515.159-1.019.293-1.508.813-.586 1.872-1.059 3.083-1.414a19.047 19.047 0 0 1 2.102-.485c.13-.736.29-1.443.485-2.102.354-1.204.822-2.258 1.404-3.07a9.996 9.996 0 0 1 1.5-.292c-.87.69-1.55 1.995-2.028 3.62a17.41 17.41 0 0 0-.405 1.698A27.877 27.877 0 0 1 11 6.026c1.226 0 2.452.079 3.623.232a17.555 17.555 0 0 0-.405-1.698c-.478-1.625-1.156-2.928-2.026-3.619ZM7.22 7.205a26.656 26.656 0 0 0-.262 3.782c0 1.286.087 2.572.262 3.782 1.21.174 2.494.261 3.782.261 1.286 0 2.572-.087 3.781-.26a26.67 26.67 0 0 0 .262-3.783h.002c0-1.286-.087-2.57-.263-3.782a26.814 26.814 0 0 0-3.782-.262 26.478 26.478 0 0 0-3.782.262Z" clip-rule="evenodd"/></svg>