<svg xmlns="http://www.w3.org/2000/svg" width="24" height="24" fill="none"><path fill="#c9f4ff" d="M8.436 2.458a1.17 1.17 0 0 0-.99-.56H1.424A1.175 1.175 0 0 0 .429 3.7l1.55 2.278 7.75-1.679-1.293-1.84Z"/><path fill="#51b9ff" d="M9.762 4.344a1.18 1.18 0 0 0-.996-.56H2.768a1.17 1.17 0 0 0-1.03 1.813l1.73 2.742 8.006-1.254-1.712-2.741Z"/><path fill="#007bfc" d="M3.394 8.227a1.197 1.197 0 0 1-.106-1.052 1.18 1.18 0 0 1 1.12-.75h5.997c.407.002.783.214.996.56l5.389 8.544a1.186 1.186 0 0 1 0 1.253l-3.01 4.773a1.18 1.18 0 0 1-1.993 0L3.394 8.227Zm15.175 2.73a1.18 1.18 0 0 0 1.992 0l1.035-1.639 1.975-3.133a1.186 1.186 0 0 0 0-1.254l-1.567-2.473a1.18 1.18 0 0 0-.996-.56h-6.02a1.175 1.175 0 0 0-1.175 1.176c-.002.222.062.44.184.626l4.572 7.257Z"/></svg>