<svg xmlns="http://www.w3.org/2000/svg" width="250" height="153" fill="none"><path fill="#7A7A7A" d="M105.954 127.58v-5.428a.452.452 0 0 0-.906 0v5.428c0 .133.058.254.151.337h-5.131a.452.452 0 1 0 0 .904h5.433a.452.452 0 0 0 .221-.847.452.452 0 0 0 .232-.394Zm-11.319.337h-5.433a.452.452 0 1 0 0 .904h5.433a.452.452 0 1 0 0-.904Zm-10.865 0h-4.514v.904h4.514a.452.452 0 1 0 0-.904Zm-27.616.452c0 .15.073.283.185.365v-.73a.45.45 0 0 0-.185.365Zm-26.71-.452H24.01a.452.452 0 1 0 0 .904h5.432a.452.452 0 1 0 0-.904Zm-10.866 0h-5.433a.453.453 0 1 0 0 .904h5.433a.452.452 0 1 0 0-.904Zm-10.864 0h-.99v-3.536a.452.452 0 1 0-.904 0v3.988c0 .25.203.452.452.452h1.442a.452.452 0 0 0 0-.904Zm-1.442-14.844a.453.453 0 0 0-.452.453v5.427a.452.452 0 1 0 .905 0v-5.427a.453.453 0 0 0-.453-.453Zm99.229-2.228a.452.452 0 0 0-.453.452v5.428a.452.452 0 0 0 .906 0v-5.428a.452.452 0 0 0-.453-.452Zm-99.229-8.626a.453.453 0 0 0-.452.453v5.427a.452.452 0 0 0 .905 0v-5.427a.453.453 0 0 0-.453-.453Zm99.229-13.084a.452.452 0 0 0-.453.453v5.427a.452.452 0 1 0 .906 0v-5.427a.453.453 0 0 0-.453-.453Zm0 0a.452.452 0 0 0-.453.453v5.427a.452.452 0 1 0 .906 0v-5.427a.453.453 0 0 0-.453-.453Zm0 10.855a.452.452 0 0 0-.453.452v5.428a.452.452 0 0 0 .906 0v-5.428a.452.452 0 0 0-.453-.452Zm0-10.855a.452.452 0 0 0-.453.453v5.427a.452.452 0 1 0 .906 0v-5.427a.453.453 0 0 0-.453-.453Zm0 0a.452.452 0 0 0-.453.453v5.427a.452.452 0 1 0 .906 0v-5.427a.453.453 0 0 0-.453-.453ZM6.272 80.51a.452.452 0 0 0-.452.453v5.427a.452.452 0 1 0 .905 0v-5.427a.452.452 0 0 0-.453-.453Zm0 0a.452.452 0 0 0-.452.453v5.427a.452.452 0 1 0 .905 0v-5.427a.452.452 0 0 0-.453-.453Zm0 10.855a.452.452 0 0 0-.452.453v5.427a.453.453 0 0 0 .905 0v-5.427a.452.452 0 0 0-.453-.453Zm0-10.855a.452.452 0 0 0-.452.453v5.427a.452.452 0 1 0 .905 0v-5.427a.452.452 0 0 0-.453-.453Zm0 0a.452.452 0 0 0-.452.453v5.427a.452.452 0 1 0 .905 0v-5.427a.452.452 0 0 0-.453-.453Zm99.229 8.626a.452.452 0 0 0-.453.453v5.427a.452.452 0 1 0 .906 0v-5.427a.453.453 0 0 0-.453-.453ZM6.272 80.51a.452.452 0 0 0-.452.453v5.427a.452.452 0 1 0 .905 0v-5.427a.452.452 0 0 0-.453-.453Zm99.229-2.229a.453.453 0 0 0-.453.453v5.427a.452.452 0 1 0 .906 0v-5.427a.453.453 0 0 0-.453-.453ZM6.272 69.654a.452.452 0 0 0-.452.453v5.427a.452.452 0 1 0 .905 0v-5.427a.452.452 0 0 0-.453-.453Zm99.229-2.228a.452.452 0 0 0-.453.451v5.428a.453.453 0 0 0 .906 0v-5.428a.452.452 0 0 0-.453-.45ZM6.272 58.8a.453.453 0 0 0-.452.453v5.427a.452.452 0 1 0 .905 0v-5.427a.453.453 0 0 0-.453-.453Zm99.229-2.228a.452.452 0 0 0-.453.453v5.427a.453.453 0 0 0 .906 0v-5.427a.453.453 0 0 0-.453-.453ZM6.272 47.946a.452.452 0 0 0-.452.452v5.426a.452.452 0 1 0 .905 0v-5.426a.452.452 0 0 0-.453-.453Zm99.229-2.23a.452.452 0 0 0-.453.453v5.427a.453.453 0 0 0 .906 0V46.17a.453.453 0 0 0-.453-.453ZM6.272 37.09a.452.452 0 0 0-.452.453v5.427a.453.453 0 0 0 .905 0v-5.427a.452.452 0 0 0-.453-.453Zm99.229-2.229a.452.452 0 0 0-.453.453v5.427a.452.452 0 1 0 .906 0v-5.427a.453.453 0 0 0-.453-.453ZM8.593 28.555H6.272a.452.452 0 0 0-.452.452v3.108a.453.453 0 0 0 .905 0v-2.657h1.868a.452.452 0 1 0 0-.903Zm96.908 0h-4.552a.453.453 0 1 0 0 .903h4.099v.428a.452.452 0 1 0 .906 0v-.879a.453.453 0 0 0-.453-.452Zm-9.985 0h-5.433a.452.452 0 1 0 0 .903h5.433a.452.452 0 1 0 0-.903Zm-10.865 0h-5.433a.452.452 0 1 0 0 .903h5.433a.452.452 0 1 0 0-.903Zm-54.327 0h-5.432a.452.452 0 1 0 0 .903h5.432a.452.452 0 1 0 0-.903Zm-10.865 0h-5.433a.452.452 0 1 0 0 .903h5.433a.452.452 0 1 0 0-.903Z"/><path fill="#767676" d="M55.899 22.8v27.71l-.453-.215-23.368-11.072V11.516l.453.215v27.205l22.915 10.857V22.801c0-.07.015-.136.043-.194l.41.194Z"/><path fill="#767676" d="M56.352 22.816v27.708c0 .154-.08.299-.211.382-.008.005-.015.01-.024.014l-.024.012h-.003l-.04.017-.005.001a.213.213 0 0 1-.045.013.369.369 0 0 1-.164.008c-.012 0-.026-.004-.04-.008a.213.213 0 0 1-.044-.013h-.004l-.041-.017-.003-.001a.228.228 0 0 1-.024-.012L31.884 39.646a.452.452 0 0 1-.259-.409V11.53a.452.452 0 1 1 .906 0v27.42l22.915 10.858V22.816a.45.45 0 0 1 .453-.453.448.448 0 0 1 .41.259.45.45 0 0 1 .043.194Z"/><path fill="#767676" d="M79.72 11.516v27.706L56.351 50.294l-.453.215V22.8l.41-.194a.448.448 0 0 1 .043.194v26.992l22.917-10.857V11.731l.452-.215Z"/><path fill="#767676" d="M80.165 11.53v27.707c0 .176-.1.335-.259.41L56.11 50.92l-.024.012h-.003l-.04.017-.005.001a.213.213 0 0 1-.045.013.369.369 0 0 1-.164.008.142.142 0 0 1-.04-.008.213.213 0 0 1-.044-.013h-.005l-.04-.017-.003-.001-.024-.012-.024-.014a.454.454 0 0 1-.21-.382V22.816a.45.45 0 0 1 .452-.453.448.448 0 0 1 .41.259.45.45 0 0 1 .043.194v26.992L79.26 38.951V11.53c0-.008 0-.014.002-.022a.45.45 0 0 1 .451-.43c.25 0 .453.201.453.451Z"/><path fill="#7A7A7A" d="m79.72 11.286-.45.214-23.1 10.944-.271.129-.272-.129L32.53 11.5l-.452-.214.27-.128L55.898 0l23.553 11.158.27.128Z"/><path fill="#767676" d="M55.899 124.318v27.708l-.453-.216-23.368-11.071v-27.708l.453.215v27.207l22.915 10.857v-26.992c0-.069.015-.136.043-.194l.41.194Z"/><path fill="#767676" d="M79.72 113.031v27.708L56.351 151.81l-.453.216v-27.708l.41-.194a.447.447 0 0 1 .043.194v26.992l22.917-10.857v-27.207l.452-.215Z"/><path fill="#7A7A7A" d="m79.72 112.794-.45.214-23.1 10.943-.271.128-.27-.128-23.1-10.943-.45-.214.27-.128 23.55-11.158 23.552 11.158.27.128Zm164.234 14.786v-5.428a.452.452 0 0 0-.906 0v5.428c0 .133.058.254.151.337h-5.131a.452.452 0 1 0 0 .904h5.433a.452.452 0 0 0 .221-.847.452.452 0 0 0 .232-.394Zm-11.319.337h-5.433a.452.452 0 1 0 0 .904h5.433a.452.452 0 1 0 0-.904Zm-10.865 0h-4.515v.904h4.515a.452.452 0 1 0 0-.904Zm-27.616.452c0 .15.073.283.185.365v-.73a.452.452 0 0 0-.185.365Zm-26.711-.452h-5.432a.452.452 0 1 0 0 .904h5.432a.452.452 0 1 0 0-.904Zm-10.865 0h-5.433a.453.453 0 0 0 0 .904h5.433a.452.452 0 1 0 0-.904Zm-10.864 0h-.989v-3.536a.453.453 0 0 0-.905 0v3.988c0 .25.203.452.452.452h1.442a.451.451 0 0 0 0-.904Zm-1.442-14.844a.454.454 0 0 0-.452.453v5.427a.452.452 0 0 0 .905 0v-5.427a.454.454 0 0 0-.453-.453Zm99.229-2.228a.452.452 0 0 0-.453.452v5.428a.452.452 0 0 0 .906 0v-5.428a.452.452 0 0 0-.453-.452Zm-99.229-8.626a.453.453 0 0 0-.452.453v5.427a.452.452 0 0 0 .905 0v-5.427a.453.453 0 0 0-.453-.453Zm99.229-13.084a.452.452 0 0 0-.453.453v5.427a.452.452 0 1 0 .906 0v-5.427a.453.453 0 0 0-.453-.453Zm0 0a.452.452 0 0 0-.453.453v5.427a.452.452 0 1 0 .906 0v-5.427a.453.453 0 0 0-.453-.453Zm0 10.855a.452.452 0 0 0-.453.452v5.428a.452.452 0 0 0 .906 0v-5.428a.452.452 0 0 0-.453-.452Zm0-10.855a.452.452 0 0 0-.453.453v5.427a.452.452 0 1 0 .906 0v-5.427a.453.453 0 0 0-.453-.453Zm0 0a.452.452 0 0 0-.453.453v5.427a.452.452 0 1 0 .906 0v-5.427a.453.453 0 0 0-.453-.453Zm-99.229-8.626a.452.452 0 0 0-.452.453v5.427a.452.452 0 1 0 .905 0v-5.427a.453.453 0 0 0-.453-.453Zm0 0a.452.452 0 0 0-.452.453v5.427a.452.452 0 1 0 .905 0v-5.427a.453.453 0 0 0-.453-.453Zm0 10.855a.452.452 0 0 0-.452.453v5.427a.453.453 0 0 0 .905 0v-5.427a.453.453 0 0 0-.453-.453Zm0-10.855a.452.452 0 0 0-.452.453v5.427a.452.452 0 1 0 .905 0v-5.427a.453.453 0 0 0-.453-.453Zm0 0a.452.452 0 0 0-.452.453v5.427a.452.452 0 1 0 .905 0v-5.427a.453.453 0 0 0-.453-.453Zm99.229 8.626a.452.452 0 0 0-.453.453v5.427a.452.452 0 1 0 .906 0v-5.427a.453.453 0 0 0-.453-.453Zm-99.229-8.626a.452.452 0 0 0-.452.453v5.427a.452.452 0 1 0 .905 0v-5.427a.453.453 0 0 0-.453-.453Zm99.229-2.229a.453.453 0 0 0-.453.453v5.427a.452.452 0 1 0 .906 0v-5.427a.453.453 0 0 0-.453-.453Zm-99.229-8.626a.452.452 0 0 0-.452.453v5.427a.452.452 0 1 0 .905 0v-5.427a.453.453 0 0 0-.453-.453Zm99.229-2.228a.452.452 0 0 0-.453.451v5.428a.453.453 0 0 0 .906 0v-5.428a.452.452 0 0 0-.453-.45ZM144.272 58.8a.453.453 0 0 0-.452.453v5.427a.452.452 0 0 0 .905 0v-5.427a.453.453 0 0 0-.453-.453Zm99.229-2.228a.452.452 0 0 0-.453.453v5.427a.453.453 0 0 0 .906 0v-5.427a.453.453 0 0 0-.453-.453Zm-99.229-8.625a.452.452 0 0 0-.452.452v5.426a.452.452 0 0 0 .905 0v-5.426a.453.453 0 0 0-.453-.453Zm99.229-2.23a.452.452 0 0 0-.453.453v5.427a.453.453 0 0 0 .906 0V46.17a.453.453 0 0 0-.453-.453Zm-99.229-8.626a.452.452 0 0 0-.452.453v5.427a.453.453 0 0 0 .905 0v-5.427a.453.453 0 0 0-.453-.453Zm99.229-2.229a.452.452 0 0 0-.453.453v5.427a.452.452 0 1 0 .906 0v-5.427a.453.453 0 0 0-.453-.453Zm-96.908-6.306h-2.321a.452.452 0 0 0-.452.452v3.108a.453.453 0 0 0 .905 0v-2.657h1.868a.452.452 0 1 0 0-.903Zm96.908 0h-4.552a.453.453 0 1 0 0 .903h4.099v.428a.452.452 0 1 0 .906 0v-.879a.453.453 0 0 0-.453-.452Zm-9.985 0h-5.432a.452.452 0 1 0 0 .903h5.432a.452.452 0 1 0 0-.903Zm-10.865 0h-5.433a.453.453 0 1 0 0 .903h5.433a.452.452 0 1 0 0-.903Zm-54.327 0h-5.432a.452.452 0 1 0 0 .903h5.432a.452.452 0 1 0 0-.903Zm-10.865 0h-5.433a.453.453 0 1 0 0 .903h5.433a.452.452 0 1 0 0-.903Z"/><path fill="#767676" d="M193.899 22.8v27.71l-.453-.215-23.368-11.072V11.516l.453.215v27.205l22.915 10.857V22.801a.45.45 0 0 1 .043-.194l.41.194Z"/><path fill="#767676" d="M194.351 22.816v27.708a.453.453 0 0 1-.21.382c-.008.005-.015.01-.024.014l-.024.012h-.002l-.041.017-.005.001a.201.201 0 0 1-.045.013.37.37 0 0 1-.163.008.142.142 0 0 1-.04-.008.237.237 0 0 1-.045-.013h-.004l-.041-.017-.003-.001a.22.22 0 0 1-.024-.012l-23.796-11.274a.452.452 0 0 1-.259-.409V11.53a.452.452 0 1 1 .906 0v27.42l22.915 10.858V22.816a.45.45 0 0 1 .724-.363.44.44 0 0 1 .181.363Z"/><path fill="#767676" d="M217.72 11.516v27.706l-23.369 11.072-.453.215V22.8l.41-.194a.45.45 0 0 1 .043.194v26.992l22.917-10.857V11.731l.452-.215Z"/><path fill="#767676" d="M218.165 11.53v27.707a.453.453 0 0 1-.258.41L194.109 50.92l-.024.012h-.003a.356.356 0 0 1-.041.017l-.004.001a.237.237 0 0 1-.045.013.37.37 0 0 1-.164.008.129.129 0 0 1-.039-.008.201.201 0 0 1-.045-.013h-.005l-.041-.017-.002-.001a.22.22 0 0 1-.024-.012l-.024-.014a.453.453 0 0 1-.21-.382V22.816a.45.45 0 0 1 .724-.363.46.46 0 0 1 .181.363v26.992l22.916-10.857V11.53c0-.008 0-.014.002-.022a.448.448 0 0 1 .451-.43.45.45 0 0 1 .453.451Z"/><path fill="#7A7A7A" d="m217.721 11.286-.452.214-23.099 10.944-.271.129-.272-.129L170.53 11.5l-.452-.214.27-.128L193.899 0l23.552 11.158.27.128Z"/><path fill="#767676" d="M193.899 124.318v27.708l-.453-.216-23.368-11.071v-27.708l.453.215v27.207l22.915 10.857v-26.992c0-.069.015-.136.043-.194l.41.194Z"/><path fill="#767676" d="M217.72 113.031v27.708l-23.369 11.071-.453.216v-27.708l.41-.194a.448.448 0 0 1 .043.194v26.992l22.917-10.857v-27.207l.452-.215Z"/><path fill="#7A7A7A" d="m217.721 112.794-.452.214-23.1 10.943-.27.128-.27-.128-23.099-10.943-.452-.214.27-.128 23.551-11.158 23.552 11.158.27.128Z"/><path fill="#0058FF" d="m106 73 5.196 9h-10.392L106 73Zm138 0 5.196 9h-10.392L244 73ZM6 85 .804 76h10.392L6 85Zm138 0-5.196-9h10.392L144 85Z"/></svg>