<svg xmlns="http://www.w3.org/2000/svg" width="25" height="25" fill="none"><path fill="#222" d="M12.499 2.086a7.292 7.292 0 0 1 7.292 7.292c0 5.244-5.372 8.393-6.895 9.18a.855.855 0 0 1-.794 0c-1.523-.787-6.895-3.936-6.895-9.18a7.292 7.292 0 0 1 7.292-7.292Zm0 4.167a3.125 3.125 0 1 0 0 6.25 3.125 3.125 0 0 0 0-6.25Z"/><path stroke="#222" stroke-linecap="round" stroke-width="2" d="M18.814 17.188c.64.475.976 1.013.976 1.562 0 .549-.337 1.087-.976 1.563-.64.475-1.561.87-2.67 1.143-1.108.275-2.365.419-3.645.419-1.28 0-2.538-.144-3.646-.419-1.109-.274-2.03-.668-2.67-1.143-.64-.476-.976-1.014-.976-1.563 0-.549.337-1.087.977-1.563"/></svg>