<svg xmlns="http://www.w3.org/2000/svg" width="22" height="22" fill="none"><path fill="#000" d="M2.037 0h6.111c1.126 0 2.037 1.125 2.037 2.037v4.482a2.036 2.036 0 0 1-2.037 2.037H2.037C.912 8.556 0 7.43 0 6.519V2.037C0 .912.912 0 2.037 0Zm11.816 13.445h6.112c1.125 0 2.037 1.126 2.037 2.037v4.482A2.036 2.036 0 0 1 19.965 22h-6.112c-1.125 0-2.037-1.126-2.037-2.037v-4.482c0-1.125.912-2.037 2.037-2.037Zm0-13.445h6.112c1.125 0 2.037 1.125 2.037 2.037v7.74a2.037 2.037 0 0 1-2.037 2.038h-6.112c-1.125 0-2.037-1.126-2.037-2.037V2.037C11.816.912 12.728 0 13.853 0ZM2.037 10.188h6.111c1.126 0 2.037 1.125 2.037 2.037v7.74a2.037 2.037 0 0 1-2.037 2.037H2.037C.912 22.002 0 20.877 0 19.965v-7.74c0-1.126.912-2.037 2.037-2.037Z"/></svg>