<svg xmlns="http://www.w3.org/2000/svg" width="590" height="498"><path fill="#F6F6F6" d="M0 0h590v498H0V0Z"/><path fill="#020202" d="M374.188 87.438A757.536 757.536 0 0 1 379 92l2.121 1.895c12.56 11.63 21.874 30.818 23.079 47.945.525 13.824.159 27.148-4.95 40.16l-.804 2.07c-9.607 24.162-27.007 39.114-50.489 49.243-18.216 7.15-40.926 7.418-59.048-.19-21.195-9.508-37.528-23.473-47.784-44.56l-1.12-2.274c-5.021-10.826-6.552-21.816-6.442-33.664l.027-3.583c.381-19.279 7.693-35.877 19.41-51.042l2.25-3.063c13.808-15.914 34.707-25.76 55.488-27.808 23.721-1.352 45.417 4.359 63.45 20.308Zm-86.813 177.164a4483.429 4483.429 0 0 1 23.514.007c6.08.016 12.16.01 18.24-.006a4362.57 4362.57 0 0 1 17.723-.004c2.487.002 4.975 0 7.463-.008 16.665-.037 32.388.422 48.123 6.534l2.383.91C437.796 284.997 461.335 308.98 476 341c2.076 4.887 3.644 9.867 5 15l.96 3.605c1.92 8.5 2.342 16.814 2.415 25.52l.042 3.271c-.034 5.59-.179 9.824-3.417 14.604-3.613 3.423-6.982 5.791-12.035 6.14-5.824-.2-9.056-2.228-13.336-6.058-3.245-4.147-3.868-8.8-4.05-13.941-1.33-28.089-9.034-49.362-29.704-69.266-16.166-14.165-36.303-22.224-57.81-22.134l-3.163-.01a2263.4 2263.4 0 0 0-10.265.003l-7.195-.005a6135.24 6135.24 0 0 0-15.052.01c-6.402.012-12.803.005-19.205-.007a5917.49 5917.49 0 0 0-14.853 0c-2.359.002-4.718 0-7.077-.005-29.193-.045-53.936 4.985-75.321 26.183-8.86 9.157-14.863 19.511-19.934 31.09l-1.316 2.96c-3.287 8.855-3.475 18.126-3.914 27.485-.409 7.766-.996 13.27-6.145 19.368-3.692 3.076-6.238 4.033-11 4.562-5.69-.589-9.144-2.777-13-6.938-6.293-9.44-3.51-28.289-1.438-39.062.56-2.469 1.162-4.929 1.813-7.375l.926-3.566C162.996 335.342 172.04 319.198 184 306l1.523-1.686c27.475-29.898 62.283-39.824 101.852-39.712Z"/><path fill="#F5F5F5" d="m318.313 99.563 3.08.025c14.2.32 25.472 5.416 35.857 15.162 10.565 11.257 15.334 23.528 15.087 38.809-.184 5.338-.6 10.359-2.337 15.441l-.777 2.438c-4.789 13.482-15.834 24.182-28.598 30.312-12.942 5.513-27.197 6.218-40.55 1.586-14.446-6.277-25.473-17.169-31.575-31.711-4.76-12.475-4.062-28.308.953-40.508 6.99-14.087 17.952-24.233 32.719-29.789 5.365-1.706 10.547-1.824 16.14-1.766Z"/></svg>