<svg xmlns="http://www.w3.org/2000/svg" width="314" height="154" fill="none"><path fill="#0058FF" d="M289.969 127.58v-5.428a.452.452 0 1 0-.905 0v5.428c0 .133.058.254.15.337h-5.13a.452.452 0 1 0 0 .904h5.432a.452.452 0 0 0 .221-.847.45.45 0 0 0 .232-.394Zm-11.318.337h-5.433a.452.452 0 1 0 0 .904h5.433a.452.452 0 1 0 0-.904Zm-10.866 0h-4.514v.904h4.514a.452.452 0 1 0 0-.904Zm-27.615.452c0 .15.072.283.185.365v-.73a.449.449 0 0 0-.185.365Zm-26.711-.452h-5.433a.452.452 0 1 0 0 .904h5.433a.452.452 0 1 0 0-.904Zm-10.866 0h-5.432a.453.453 0 0 0 0 .904h5.432a.452.452 0 1 0 0-.904Zm-10.864 0h-.989v-3.536a.453.453 0 0 0-.904 0v3.988c0 .25.202.452.452.452h1.441a.452.452 0 0 0 0-.904Zm-1.441-14.844a.453.453 0 0 0-.452.453v5.427a.452.452 0 1 0 .904 0v-5.427a.453.453 0 0 0-.452-.453Zm99.228-2.228a.452.452 0 0 0-.452.452v5.428a.452.452 0 0 0 .905 0v-5.428a.452.452 0 0 0-.453-.452Zm-99.228-8.626a.452.452 0 0 0-.452.453v5.427a.451.451 0 0 0 .904 0v-5.427a.452.452 0 0 0-.452-.453Zm99.228-13.084a.452.452 0 0 0-.452.453v5.427a.452.452 0 1 0 .905 0v-5.427a.452.452 0 0 0-.453-.453Zm0 0a.452.452 0 0 0-.452.453v5.427a.452.452 0 1 0 .905 0v-5.427a.452.452 0 0 0-.453-.453Zm0 10.855a.451.451 0 0 0-.452.452v5.428a.452.452 0 0 0 .905 0v-5.428a.452.452 0 0 0-.453-.452Zm0-10.855a.452.452 0 0 0-.452.453v5.427a.452.452 0 1 0 .905 0v-5.427a.452.452 0 0 0-.453-.453Zm0 0a.452.452 0 0 0-.452.453v5.427a.452.452 0 1 0 .905 0v-5.427a.452.452 0 0 0-.453-.453Zm-99.228-8.626a.452.452 0 0 0-.452.453v5.427a.452.452 0 1 0 .904 0v-5.427a.452.452 0 0 0-.452-.453Zm0 0a.452.452 0 0 0-.452.453v5.427a.452.452 0 1 0 .904 0v-5.427a.452.452 0 0 0-.452-.453Zm0 10.855a.452.452 0 0 0-.452.453v5.427a.453.453 0 0 0 .904 0v-5.427a.452.452 0 0 0-.452-.453Zm0-10.855a.452.452 0 0 0-.452.453v5.427a.452.452 0 1 0 .904 0v-5.427a.452.452 0 0 0-.452-.453Zm0 0a.452.452 0 0 0-.452.453v5.427a.452.452 0 1 0 .904 0v-5.427a.452.452 0 0 0-.452-.453Zm99.228 8.626a.452.452 0 0 0-.452.453v5.427a.452.452 0 1 0 .905 0v-5.427a.452.452 0 0 0-.453-.453Zm-99.228-8.626a.452.452 0 0 0-.452.453v5.427a.452.452 0 1 0 .904 0v-5.427a.452.452 0 0 0-.452-.453Zm99.228-2.229a.453.453 0 0 0-.452.453v5.427a.452.452 0 1 0 .905 0v-5.427a.453.453 0 0 0-.453-.453Zm-99.228-8.626a.452.452 0 0 0-.452.453v5.427a.452.452 0 1 0 .904 0v-5.427a.452.452 0 0 0-.452-.453Zm99.228-2.228a.451.451 0 0 0-.452.451v5.428a.454.454 0 0 0 .905 0v-5.428a.452.452 0 0 0-.453-.45ZM190.288 58.8a.453.453 0 0 0-.452.453v5.427a.452.452 0 1 0 .904 0v-5.427a.453.453 0 0 0-.452-.453Zm99.228-2.228a.452.452 0 0 0-.452.453v5.427a.453.453 0 0 0 .905 0v-5.427a.452.452 0 0 0-.453-.453Zm-99.228-8.625a.452.452 0 0 0-.452.452v5.426a.452.452 0 1 0 .904 0v-5.426a.452.452 0 0 0-.452-.453Zm99.228-2.23a.452.452 0 0 0-.452.453v5.427a.453.453 0 0 0 .905 0V46.17a.452.452 0 0 0-.453-.453Zm-99.228-8.626a.452.452 0 0 0-.452.453v5.427a.452.452 0 0 0 .904 0v-5.427a.452.452 0 0 0-.452-.453Zm99.228-2.229a.452.452 0 0 0-.452.453v5.427a.452.452 0 1 0 .905 0v-5.427a.452.452 0 0 0-.453-.453Zm-96.907-6.306h-2.321a.452.452 0 0 0-.452.452v3.108a.452.452 0 0 0 .904 0v-2.657h1.869a.452.452 0 1 0 0-.903Zm96.907 0h-4.551a.452.452 0 1 0 0 .903h4.099v.428a.452.452 0 1 0 .905 0v-.879a.452.452 0 0 0-.453-.452Zm-9.984 0h-5.433a.453.453 0 1 0 0 .903h5.433a.452.452 0 1 0 0-.903Zm-10.866 0h-5.432a.452.452 0 1 0 0 .903h5.432a.452.452 0 1 0 0-.903Zm-54.326 0h-5.433a.453.453 0 1 0 0 .903h5.433a.452.452 0 1 0 0-.903Zm-10.865 0h-5.433a.452.452 0 1 0 0 .903h5.433a.451.451 0 1 0 0-.903Z"/><path fill="#767676" d="M239.915 22.8v27.71l-.453-.215-23.368-11.072V11.516l.453.215v27.205l22.915 10.857V22.801a.45.45 0 0 1 .043-.194l.41.194Z"/><path fill="#767676" d="M240.367 22.816v27.708a.452.452 0 0 1-.211.382l-.023.014-.025.012h-.002a.356.356 0 0 1-.041.017l-.004.001a.237.237 0 0 1-.045.013.37.37 0 0 1-.164.008.142.142 0 0 1-.04-.008.21.21 0 0 1-.044-.013h-.005l-.041-.017-.002-.001a.383.383 0 0 1-.025-.012l-23.796-11.274a.452.452 0 0 1-.258-.409V11.53a.452.452 0 1 1 .905 0v27.42l22.915 10.858V22.816a.451.451 0 0 1 .453-.453.449.449 0 0 1 .453.453Z"/><path fill="#767676" d="M263.736 11.516v27.706l-23.369 11.072-.453.215V22.8l.41-.194a.45.45 0 0 1 .043.194v26.992l22.916-10.857V11.731l.453-.215Z"/><path fill="#767676" d="M264.181 11.53v27.707a.452.452 0 0 1-.259.41L240.125 50.92l-.025.012h-.002a.356.356 0 0 1-.041.017l-.005.001a.21.21 0 0 1-.044.013.37.37 0 0 1-.164.008.142.142 0 0 1-.04-.008.21.21 0 0 1-.044-.013h-.005l-.041-.017-.002-.001c-.008-.004-.017-.007-.025-.012l-.023-.014a.454.454 0 0 1-.211-.382V22.816a.45.45 0 0 1 .724-.363.44.44 0 0 1 .138.169.437.437 0 0 1 .044.194v26.992l22.916-10.857V11.53l.001-.022a.449.449 0 0 1 .452-.43c.25 0 .453.201.453.451Z"/><path fill="#0058FF" d="m263.737 11.286-.452.214-23.099 10.944-.271.129-.272-.129L216.545 11.5l-.451-.214.27-.128L239.915 0l23.551 11.158.271.128Z"/><path fill="#767676" d="M239.915 124.318v27.708l-.453-.216-23.368-11.071v-27.708l.453.215v27.207l22.915 10.857v-26.992c0-.069.015-.136.043-.194l.41.194Z"/><path fill="#767676" d="M240.367 124.316v27.708a.452.452 0 0 1-.211.382l-.048.026-.002.001c-.009.003-.017.008-.027.01a.125.125 0 0 1-.029.011c-.006.002-.012.005-.019.006a.468.468 0 0 1-.18.01.564.564 0 0 1-.054-.01c-.006 0-.011-.004-.017-.006a.163.163 0 0 1-.031-.011c-.009-.002-.017-.007-.027-.01l-.002-.001-23.821-11.286a.452.452 0 0 1-.258-.409v-27.708a.451.451 0 0 1 .904-.02l.001.02v27.422l22.915 10.857v-26.992a.449.449 0 0 1 .183-.364.455.455 0 0 1 .68.17.448.448 0 0 1 .043.194Z"/><path fill="#767676" d="M263.736 113.031v27.708l-23.369 11.071-.453.216v-27.708l.41-.194a.448.448 0 0 1 .043.194v26.992l22.916-10.857v-27.207l.453-.215Z"/><path fill="#767676" d="M264.181 113.029v27.708a.453.453 0 0 1-.259.409L240.1 152.432l-.002.001c-.01.003-.018.008-.027.01a.145.145 0 0 1-.029.011c-.006.002-.012.005-.019.006-.018.004-.036.008-.054.01a.335.335 0 0 1-.063.005.468.468 0 0 1-.117-.015c-.006 0-.012-.004-.018-.006-.01-.003-.021-.006-.03-.011-.009-.002-.018-.007-.027-.01l-.002-.001-.048-.026a.454.454 0 0 1-.211-.382v-27.708a.448.448 0 0 1 .183-.364.453.453 0 0 1 .723.364v26.992l22.916-10.857v-27.422l.001-.02a.448.448 0 0 1 .452-.431c.25 0 .453.202.453.451Z"/><path fill="#0058FF" d="m263.737 112.794-.452.214-23.1 10.943-.27.128-.271-.128-23.099-10.943-.451-.214.27-.128 23.551-11.158 23.551 11.158.271.128Z"/><path fill="#767676" d="M190.282 73.559v27.708l-.452-.214-23.369-11.073V62.273l.453.215v27.206l22.916 10.857V73.559a.45.45 0 0 1 .043-.194l.409.194Zm23.829-11.286V89.98l-23.369 11.071-.453.216V73.559l.41-.194a.45.45 0 0 1 .043.194v26.992l22.916-10.857V62.488l.453-.215Z"/><path fill="#767676" d="M190.742 73.566v27.708a.452.452 0 0 1-.211.382l-.023.014-.025.012-.002.001a.693.693 0 0 1-.041.016l-.004.001a.206.206 0 0 1-.045.013.19.19 0 0 1-.04.008.318.318 0 0 1-.062.005.314.314 0 0 1-.061-.005.207.207 0 0 1-.042-.008.225.225 0 0 1-.047-.014.666.666 0 0 1-.04-.016l-.003-.001-.024-.012-23.798-11.274a.451.451 0 0 1-.258-.409V62.281a.452.452 0 1 1 .905 0V89.7l22.917 10.857V73.566a.45.45 0 0 1 .723-.363.46.46 0 0 1 .181.363Z"/><path fill="#767676" d="M214.562 62.28v27.707c0 .176-.1.335-.258.41l-23.798 11.273-.024.012-.003.001a.666.666 0 0 1-.04.016l-.005.001a.178.178 0 0 1-.045.013.318.318 0 0 1-.101.013.314.314 0 0 1-.061-.005.207.207 0 0 1-.042-.008.225.225 0 0 1-.042-.013l-.005-.001a.693.693 0 0 1-.041-.016l-.002-.001-.025-.012-.023-.014a.454.454 0 0 1-.211-.382V73.566a.45.45 0 0 1 .723-.363.44.44 0 0 1 .181.363v26.992l22.917-10.857V62.28l.001-.021a.451.451 0 0 1 .904.02Z"/><path fill="#0058FF" d="m190.282 50.758-23.821 11.286 23.821 11.287 23.822-11.287-23.822-11.286Z"/><path fill="#767676" d="M289.524 101.727a.458.458 0 0 1-.195-.043l-23.82-11.286a.452.452 0 0 1-.259-.41V62.282a.452.452 0 1 1 .906 0v27.421l22.916 10.857V73.567a.452.452 0 1 1 .906 0v27.708a.453.453 0 0 1-.453.452h-.001Z"/><path fill="#767676" d="M289.515 101.727a.45.45 0 0 1-.453-.452V73.567a.453.453 0 0 1 .906 0v26.992l22.916-10.857V62.281a.453.453 0 0 1 .906 0v27.708a.454.454 0 0 1-.258.409l-23.822 11.286a.458.458 0 0 1-.195.043Z"/><path fill="#0058FF" d="m289.517 50.758-23.822 11.286 23.822 11.287 23.822-11.287-23.822-11.286Zm-165.563 77.728v-5.427a.453.453 0 0 0-.906 0v5.427c0 .133.058.254.151.337h-5.131a.452.452 0 1 0 0 .905h5.433a.453.453 0 0 0 .221-.848.45.45 0 0 0 .232-.394Zm-11.319.337h-5.433a.452.452 0 1 0 0 .905h5.433a.453.453 0 1 0 0-.905Zm-10.865 0h-4.514v.905h4.514a.453.453 0 0 0 0-.905Zm-27.616.452c0 .15.073.283.185.365v-.729a.449.449 0 0 0-.185.364Zm-26.71-.452H42.01a.452.452 0 1 0 0 .905h5.432a.453.453 0 0 0 0-.905Zm-10.866 0h-5.433a.453.453 0 1 0 0 .905h5.433a.453.453 0 0 0 0-.905Zm-10.865 0h-.988v-3.536a.453.453 0 1 0-.904 0v3.988c0 .25.202.453.451.453h1.442a.453.453 0 0 0 0-.905Zm-1.441-14.844a.453.453 0 0 0-.452.453v5.427a.453.453 0 1 0 .905 0v-5.427a.453.453 0 0 0-.453-.453Zm99.229-2.228a.453.453 0 0 0-.453.453v5.427a.453.453 0 0 0 .906 0v-5.427a.453.453 0 0 0-.453-.453Zm-99.229-8.625a.452.452 0 0 0-.452.452v5.427a.452.452 0 0 0 .905 0v-5.427a.452.452 0 0 0-.453-.452Zm99.229-13.085a.452.452 0 0 0-.453.453v5.427a.452.452 0 1 0 .906 0v-5.427a.453.453 0 0 0-.453-.453Zm0 0a.452.452 0 0 0-.453.453v5.427a.452.452 0 1 0 .906 0v-5.427a.453.453 0 0 0-.453-.453Zm0 10.855a.453.453 0 0 0-.453.453v5.427a.453.453 0 0 0 .906 0v-5.427a.453.453 0 0 0-.453-.453Zm0-10.855a.452.452 0 0 0-.453.453v5.427a.452.452 0 1 0 .906 0v-5.427a.453.453 0 0 0-.453-.453Zm0 0a.452.452 0 0 0-.453.453v5.427a.452.452 0 1 0 .906 0v-5.427a.453.453 0 0 0-.453-.453Zm-99.229-8.625a.452.452 0 0 0-.452.452v5.427a.452.452 0 1 0 .905 0v-5.427a.452.452 0 0 0-.453-.452Zm0 0a.452.452 0 0 0-.452.452v5.427a.452.452 0 1 0 .905 0v-5.427a.452.452 0 0 0-.453-.452Zm0 10.855a.452.452 0 0 0-.452.452v5.427a.453.453 0 0 0 .905 0v-5.427a.452.452 0 0 0-.453-.452Zm0-10.855a.452.452 0 0 0-.452.452v5.427a.452.452 0 1 0 .905 0v-5.427a.452.452 0 0 0-.453-.452Zm0 0a.452.452 0 0 0-.452.452v5.427a.452.452 0 1 0 .905 0v-5.427a.452.452 0 0 0-.453-.452Zm99.229 8.625a.452.452 0 0 0-.453.453v5.427a.452.452 0 1 0 .906 0v-5.427a.453.453 0 0 0-.453-.453Zm-99.229-8.625a.452.452 0 0 0-.452.452v5.427a.452.452 0 1 0 .905 0v-5.427a.452.452 0 0 0-.453-.452Zm99.229-2.23a.453.453 0 0 0-.453.453v5.427a.452.452 0 1 0 .906 0V79.64a.453.453 0 0 0-.453-.453ZM24.272 70.56a.452.452 0 0 0-.452.453v5.427a.452.452 0 1 0 .905 0v-5.427a.452.452 0 0 0-.453-.453Zm99.229-2.228a.452.452 0 0 0-.453.452v5.427a.453.453 0 0 0 .906 0v-5.427a.452.452 0 0 0-.453-.452Zm-99.229-8.626a.453.453 0 0 0-.452.452v5.427a.452.452 0 1 0 .905 0v-5.427a.453.453 0 0 0-.453-.453Zm99.229-2.229a.452.452 0 0 0-.453.453v5.427a.453.453 0 0 0 .906 0V57.93a.453.453 0 0 0-.453-.453Zm-99.229-8.625a.452.452 0 0 0-.452.452v5.426a.452.452 0 1 0 .905 0v-5.426a.452.452 0 0 0-.453-.452Zm99.229-2.23a.452.452 0 0 0-.453.453v5.427a.453.453 0 0 0 .906 0v-5.427a.453.453 0 0 0-.453-.453Zm-99.229-8.625a.452.452 0 0 0-.452.452v5.428a.453.453 0 0 0 .905 0v-5.428a.452.452 0 0 0-.453-.452Zm99.229-2.23a.452.452 0 0 0-.453.453v5.427a.452.452 0 1 0 .906 0V36.22a.453.453 0 0 0-.453-.453Zm-96.908-6.306h-2.321a.452.452 0 0 0-.452.452v3.109a.453.453 0 0 0 .905 0v-2.657h1.868a.452.452 0 1 0 0-.904Zm96.908 0h-4.552a.453.453 0 1 0 0 .904h4.099v.427a.452.452 0 1 0 .906 0v-.879a.453.453 0 0 0-.453-.452Zm-9.985 0h-5.432a.452.452 0 1 0 0 .904h5.432a.452.452 0 1 0 0-.904Zm-10.865 0h-5.433a.452.452 0 1 0 0 .904h5.433a.452.452 0 1 0 0-.904Zm-54.327 0h-5.432a.452.452 0 1 0 0 .904h5.432a.452.452 0 1 0 0-.904Zm-10.865 0h-5.433a.452.452 0 1 0 0 .904h5.433a.452.452 0 1 0 0-.904Z"/><path fill="#767676" d="M73.899 23.707v27.708l-.453-.215-23.368-11.071V12.422l.453.215v27.205L73.446 50.7V23.707a.45.45 0 0 1 .043-.194l.41.194Z"/><path fill="#767676" d="M74.352 23.714v27.708c0 .154-.08.3-.211.382-.008.005-.015.01-.024.014l-.024.012-.002.001-.041.017h-.005a.213.213 0 0 1-.045.014.37.37 0 0 1-.164.008c-.012 0-.026-.005-.04-.008a.212.212 0 0 1-.044-.013l-.004-.001a.356.356 0 0 1-.041-.017h-.003a.25.25 0 0 1-.024-.013L49.884 40.545a.452.452 0 0 1-.259-.41V12.43a.452.452 0 1 1 .906 0v27.42l22.915 10.858V23.714a.449.449 0 0 1 .453-.452.448.448 0 0 1 .41.258.45.45 0 0 1 .043.194Z"/><path fill="#767676" d="M97.72 12.422v27.707l-23.369 11.07-.453.216V23.707l.41-.194a.45.45 0 0 1 .043.194V50.7l22.917-10.858V12.637l.452-.215Z"/><path fill="#767676" d="M98.165 12.429v27.707c0 .175-.1.334-.259.409L74.11 51.818l-.024.012-.003.001-.04.017h-.005a.213.213 0 0 1-.045.014.37.37 0 0 1-.164.008c-.013 0-.027-.005-.04-.008a.212.212 0 0 1-.044-.013l-.005-.001-.04-.017h-.003a.25.25 0 0 1-.025-.013l-.023-.014a.454.454 0 0 1-.21-.382V23.714a.449.449 0 0 1 .452-.452.448.448 0 0 1 .41.258.45.45 0 0 1 .043.194v26.993L97.26 39.849V12.43c0-.007 0-.014.002-.021a.45.45 0 0 1 .451-.431c.25 0 .453.202.453.452Z"/><path fill="#0058FF" d="m97.72 12.193-.45.213-23.1 10.944-.271.129-.272-.129L50.53 12.406l-.452-.213.27-.129L73.898.906l23.553 11.158.27.129Z"/><path fill="#767676" d="M73.899 125.224v27.708l-.453-.215-23.368-11.072v-27.707l.453.215v27.206l22.915 10.857v-26.992c0-.069.015-.136.043-.194l.41.194Z"/><path fill="#767676" d="M74.352 125.214v27.708c0 .154-.08.299-.211.382-.015.01-.032.018-.048.026l-.002.001-.027.011a.176.176 0 0 1-.03.01.058.058 0 0 1-.018.006c-.018.005-.037.008-.054.011a.447.447 0 0 1-.127 0c-.017-.003-.036-.006-.053-.011a.04.04 0 0 1-.018-.006.151.151 0 0 1-.03-.01l-.027-.011-.003-.001-23.82-11.285a.454.454 0 0 1-.259-.409v-27.708a.452.452 0 0 1 .904-.02.068.068 0 0 1 .002.02v27.421l22.915 10.858v-26.993a.45.45 0 0 1 .453-.452.448.448 0 0 1 .41.258.452.452 0 0 1 .043.194Z"/><path fill="#767676" d="M97.72 113.938v27.707l-23.369 11.072-.453.215v-27.708l.41-.194a.447.447 0 0 1 .043.194v26.992l22.917-10.857v-27.206l.452-.215Z"/><path fill="#767676" d="M98.165 113.928v27.708c0 .174-.1.334-.259.409L74.085 153.33l-.003.001-.027.011a.14.14 0 0 1-.029.01.058.058 0 0 1-.019.006c-.017.005-.036.008-.053.011a.446.446 0 0 1-.127 0c-.017-.003-.036-.006-.054-.011a.04.04 0 0 1-.017-.006.151.151 0 0 1-.03-.01l-.028-.011-.002-.001a.454.454 0 0 1-.259-.408v-27.708a.45.45 0 0 1 .453-.452.448.448 0 0 1 .41.258.452.452 0 0 1 .043.194v26.993l22.916-10.858v-27.421c0-.007 0-.013.002-.02a.453.453 0 0 1 .904.02Z"/><path fill="#0058FF" d="m97.72 113.7-.45.214-23.1 10.943-.271.129-.27-.129-23.1-10.943-.45-.214.27-.128 23.55-11.158 23.552 11.158.27.128Z"/><path fill="#767676" d="M24.266 74.465v27.708l-.451-.214L.444 90.886V63.18l.453.215V90.6l22.916 10.857V74.465a.45.45 0 0 1 .044-.194l.408.194ZM48.095 63.18v27.706l-23.369 11.072-.453.215V74.465l.41-.194a.45.45 0 0 1 .043.194v26.992L47.643 90.6V63.395l.452-.215Z"/><path fill="#767676" d="M24.726 74.464v27.708c0 .154-.08.299-.21.382-.008.005-.015.01-.024.014l-.024.012-.003.001-.04.017a.25.25 0 0 1-.05.014c-.012.003-.026.007-.04.008a.42.42 0 0 1-.122 0c-.014-.001-.028-.005-.042-.008-.014-.004-.028-.007-.043-.013l-.004-.001-.041-.017-.002-.001c-.009-.003-.017-.008-.025-.012L.259 91.295a.452.452 0 0 1-.259-.41V63.18a.452.452 0 1 1 .906 0V90.6l22.916 10.858V74.464a.449.449 0 0 1 .452-.452.45.45 0 0 1 .452.452Z"/><path fill="#767676" d="M48.547 63.179v27.707c0 .175-.1.334-.259.409l-23.797 11.273-.025.012-.002.001-.041.017a.248.248 0 0 1-.05.014c-.012.003-.026.007-.039.008a.42.42 0 0 1-.123 0c-.014-.001-.028-.005-.042-.008-.014-.004-.028-.007-.042-.013l-.005-.001-.04-.017-.003-.001-.025-.012a.454.454 0 0 1-.234-.396V74.464a.449.449 0 0 1 .452-.452.45.45 0 0 1 .453.452v26.993L47.64 90.599V63.18l.001-.021a.45.45 0 0 1 .452-.431c.25 0 .453.202.453.452Z"/><path fill="#0058FF" d="M24.266 51.664.446 62.95l23.82 11.287L48.088 62.95 24.266 51.664Z"/><path fill="#767676" d="M123.508 102.626a.44.44 0 0 1-.194-.044L99.493 91.296a.452.452 0 0 1-.259-.41V63.18a.452.452 0 1 1 .906 0V90.6l22.916 10.858V74.465a.453.453 0 0 1 .906 0v27.708a.453.453 0 0 1-.453.453h-.001Z"/><path fill="#767676" d="M123.508 102.626a.452.452 0 0 1-.453-.453V74.465a.452.452 0 1 1 .905 0v26.993L146.877 90.6V63.18a.452.452 0 1 1 .905 0v27.708c0 .174-.1.334-.258.41l-23.822 11.285a.443.443 0 0 1-.194.044Z"/><path fill="#0058FF" d="M123.509 51.664 99.687 62.95l23.822 11.287 23.822-11.287-23.822-11.286Z"/></svg>