<svg xmlns="http://www.w3.org/2000/svg" width="1080" height="1080" fill="none"><g clip-path="url(#a)"><path fill="#fff" stroke="#fff" stroke-miterlimit="10" stroke-width="3" d="M678.451 270.961c.91 0 1.65-.74 1.65-1.65l.08-75.61c0-.91-.74-1.65-1.65-1.65-.91 0-1.65.74-1.65 1.65l-.08 75.61c0 .91.74 1.65 1.65 1.65Zm-9.793 283.54c.91 0 1.65-.74 1.65-1.65l.05-53.83c0-.91-.74-1.65-1.65-1.65-.91 0-1.65.74-1.65 1.65l-.05 53.83c0 .91.74 1.65 1.65 1.65Z"/><path fill="#fff" stroke="#fff" stroke-miterlimit="10" stroke-width="3" d="M952.409 863.261c-3.04-1.72-6.87-2.78-10.78-3.11l-.26-48.19c-.06-.59-.33-1.12-.86-1.45l-84.01-48.52 46.4-26.97c7.87-4.56 12.29-10.78 12.36-17.52l.13-64.25v-.33c0-6.74-4.43-13.02-12.49-17.72l-46.47-26.84 84.08-48.52c.53-.33.79-.86.86-1.45l.26-51.49c4.43-.2 8.79-1.26 12.23-3.24 7.54-4.43 7.4-11.57-.13-15.86-7.6-4.43-19.9-4.49-27.5-.07-7.6 4.36-7.54 11.57.07 16 3.37 1.92 7.67 2.91 12.03 3.17l-.26 50.57-84.94 48.98-60.61-34.97 41.64-24.06c7.6 3.5 18.77 3.24 25.78-.86 7.6-4.36 7.47-11.5-.07-15.86-7.67-4.43-19.96-4.5-27.56-.07-6.94 4.03-7.4 10.44-1.45 14.87l-41.64 24.06-51.95-30.01v-4.03c-.07-18.9-7.73-37.02-22.08-53.34l.33-339.49c0-.92-.73-1.65-1.65-1.65-.92 0-1.65.73-1.65 1.65l-.33 335.92c-23.03-23.87-56.05-39.25-88.31-48.12 1.52-7.67 2.38-15.34 2.38-22.67-.07-22.67-7.8-39.66-21.88-47.92-.07 0-.07-.07-.13-.13l-28.29-16.46c-14.28-8.33-33.25-6.48-53.41 5.09-26.18 15.14-49.11 44.15-62.07 75.35v.07c-.66 1.45-1.26 2.91-1.78 4.43-18.29 4.3-42.08 12.66-62.4 24.39-13.55 7.87-24.79 16.66-33.78 26.11l.33-337.04c0-.93-.73-1.65-1.65-1.65-.92 0-1.65.73-1.65 1.65l-.33 340.74c-13.88 15.93-21.28 33.71-21.35 52.15v3.24l-54.27 31.53-41.25-23.86c5.95-4.43 5.42-10.77-1.59-14.81-7.6-4.43-19.96-4.5-27.5-.07-7.6 4.43-7.53 11.57.07 16 7.01 4.03 18.05 4.3 25.71.79l41.25 23.86-60.42 35.1-84.74-48.91-.26-47.19c4.43-.2 8.73-1.26 12.1-3.17 7.54-4.43 7.47-11.57-.06-15.93-7.67-4.36-19.96-4.43-27.56 0-7.53 4.36-7.53 11.57.13 15.93 3.3 1.98 7.67 2.97 12.1 3.17l.26 48.12c0 .59.33 1.12.79 1.45l83.95 48.45-46.34 26.9c-8.13 4.76-12.23 11.11-12.29 17.45v.26l-.2 64.31c0 6.81 4.49 13.15 12.56 17.78l46.53 26.9-84.21 48.58c-.46.33-.79.86-.79 1.45l-.26 48.25c-4.49.2-8.79 1.19-12.23 3.17-7.53 4.43-7.53 11.57.13 16 7.53 4.36 19.9 4.36 27.5-.07 7.54-4.36 7.47-11.5-.06-15.86-3.37-1.98-7.67-2.97-12.03-3.24l.26-47.33 84.94-48.98c0-.07 0-.13.07-.13l60.61 35.03-41.78 24.13c-7.67-3.5-18.71-3.24-25.71.79-7.6 4.43-7.53 11.63.07 16 7.54 4.36 19.96 4.36 27.5-.07 7.01-4.03 7.4-10.44 1.45-14.81l41.64-24.06c.06 0 .06-.07.13-.13l155.8 89.96-84.14 48.58-47.46-27.56c5.42-4.43 4.69-10.58-2.12-14.48-7.6-4.43-19.9-4.43-27.5-.07-7.54 4.43-7.54 11.57.07 16 7.2 4.16 18.77 4.3 26.37.53l49.84 28.95c.26.13.53.2.79.2.33 0 .6-.07.86-.2l85.73-49.51c.26-.2.4-.46.53-.73l66.23 38.27c16.01 9.26 42.01 9.05 57.51.07.047-.047.09-.07.13-.07l64.58-37.54 85.66 49.51c.2.13.53.2.79.2s.6-.07.86-.2l49.77-28.95c7.6 3.77 19.23 3.63 26.5-.6 7.54-4.36 7.47-11.5-.13-15.86-7.6-4.43-19.89-4.43-27.5-.07-6.74 3.96-7.4 10.11-1.98 14.54l-47.53 27.56-83.22-48.05 155.27-90.23 41.38 23.93c-5.95 4.36-5.49 10.84 1.58 14.87 7.54 4.36 19.96 4.36 27.5-.07 7.6-4.36 7.47-11.5-.07-15.86-7.07-4.1-18.11-4.36-25.71-.93l-41.38-23.86 60.42-35.1 84.87 48.98.26 47.06c-4.89.07-9.78 1.12-13.48 3.3-7.53 4.36-7.53 11.57.13 16 7.54 4.3 19.9 4.3 27.5-.07 7.53-4.43 7.47-11.57-.07-15.93v.07Zm-401.56-350.99c-14.34 8.33-27.76 9.72-37.74 3.97-33.46-19.28-9.31-100.75 39.06-128.7 30.09-17.26 53.07-3.18 53.21 30.27.13 34.7-24.32 77.07-54.53 94.46Zm-63.79 16.46c.2.26.26.53.46.73l-15-8.66c-11.96-7.07-18.97-21.09-20.09-39.66l24.79 14.48c.75 12.46 3 23.16 9.85 33.12l-.01-.01Zm-16.26-5.09 28.03 16.19c.13.07.26.2.4.26 16.77 9.5 36.66 4.5 53.34-5.16 19.43-11.24 37.08-30.21 50.24-52.02 3.1 1.39 6.15 2.84 9.05 4.5 19.76 11.44 30.67 26.51 30.67 42.5.07 15.86-10.71 30.8-30.21 42.17-41.05 23.86-108.07 23.8-149.39 0-19.76-11.44-30.67-26.51-30.67-42.5-.06-12.43 6.74-24.26 18.97-34.31 3.3 12.82 9.91 22.61 19.57 28.36v.01Zm118.26-168.68c-6.34-1.06-17.98.28-28.89 5.02l-24.52-14.21c28.62-11.23 39.62 2.21 53.41 9.19Zm-57.31-7.67 24.79 14.41c-15.77 7.62-29.09 19.37-40.32 32.72l-17.98-10.44c-.73-.46-1.78-.2-2.25.6-.46.79-.2 1.78.6 2.25l17.52 10.24c-10.1 12.42-18.68 26.62-25.12 41.64l-25.38-14.81c13.22-31 37.66-62.54 68.15-76.61h-.01Zm-69.34 79.65 25.38 14.87c-5.46 12.27-10.71 32.09-10.71 49.84l-24.86-14.48c0-.53-.06-1.06-.06-1.65-.07-15.6 3.7-32.32 10.24-48.58h.01Zm-100.21 56.71c9.05-10.25 20.95-19.76 35.43-28.16 17.58-10.25 37.81-18.05 59.36-23.53-5.22 14.67-8.2 29.61-8.13 43.56 0 5.82.53 11.24 1.52 16.26-13.82 10.84-21.48 23.93-21.42 37.81 0 17.19 11.5 33.31 32.32 45.34 21.15 12.16 48.78 18.31 76.48 18.31 27.7 0 55.26-6.15 76.21-18.31 20.56-11.96 31.92-27.96 31.86-45.01 0-17.19-11.5-33.31-32.32-45.34-2.84-1.65-5.88-3.11-8.99-4.49 8.53-14.74 14.94-30.67 18.38-46.34 30.99 7.98 66.98 25.35 88.97 49.71l-.07 39.92c-.06 26.51-17.98 51.49-50.5 70.33-68.08 39.59-179.33 39.59-247.87 0-33.18-19.1-51.36-44.42-51.29-71.32l.07-38.73-.01-.01Zm-3.3 3.9-.07 34.83c-.07 28.09 18.71 54.47 52.95 74.23 34.7 20.03 80.24 30.07 125.79 30.07 45.55 0 90.89-10.05 125.46-30.07 33.51-19.5 52.02-45.48 52.09-73.24l.07-36.16c31.48 38.46 26.05 90.06-38.01 127.77-76.61 44.48-201.54 44.48-278.61 0-30.49-17.63-57.7-44.86-57.7-80.18 0-16.59 6.28-32.65 18.05-47.26l-.02.01Zm-18.11 68.35c.07.26.2.53.26.79 9.3 27.19 31 46.73 55.85 61.14 32.3 19.03 82.32 33.78 141.12 33.78 58.8 0 108.07-14.51 140.79-33.78 23.39-13.37 45.73-33.51 54.86-60.22.07-.13.13-.26.13-.4l-.33 79.58c-.07 29.81-20.23 57.97-56.78 79.19-76.54 44.48-201.54 44.48-278.61 0-37.28-21.48-57.77-50.04-57.7-80.31l.4-79.78.01.01Zm55.65 162.93c39 22.54 90.09 33.78 141.12 33.78s102.06-11.24 140.79-33.78c37.61-21.81 58.36-50.96 58.43-82.03l.26-52.42 99.94 57.7c8.34 4.87 8.54 16.79.07 21.81l-285.88 166.11c-8.26 4.83-18.57 4.83-26.9.07l-288.26-166.5c-8.37-4.74-8.41-16.94-.06-21.75l101.4-58.89-.26 52.75c-.07 31.53 21.02 61.01 59.36 83.15h-.01Zm111.51 207.49-336.31-194.13c-7.01-4.03-10.91-9.32-10.91-14.94l.2-54.73c.07.13.26.26.33.4 2.23 3.02 5.29 5.36 8.46 7.34.2.07.26.2.4.26l337.97 195.13-.13 60.68-.01-.01Zm56.91-63.06c-14.94 8.66-39.26 8.66-54.27 0l-338.76-195.65c-13.35-7.5-15.45-20.64-.26-29.55l165.98-96.44-.2 37.48-103.05 59.89c-10.45 5.99-10.6 21.24.06 27.5l288.26 166.44c9.5 5.48 21.06 5.29 30.21-.07l285.88-166.11c10.83-6.35 10.32-21.62-.07-27.5l-101.6-58.7.13-37.15 164.06 94.72c7.01 4.03 10.84 9.25 10.84 14.81-.48 1.81.68 7.95-10.64 14.74l-336.58 195.59h.01Zm2.32 63.06c0-.69.14-64.64.13-60.68l335.79-195.13.07-.07c3.41-2 6.56-4.48 8.92-7.73l-.13 54.73c-.07 5.55-3.9 10.77-10.71 14.74l-334.07 194.13v.01Z"/><path fill="#fff" stroke="#fff" stroke-miterlimit="10" stroke-width="3" d="M400.67 324.091c22.96 13.31 22.27 12.69 22.94 13.35 39.26 22.47 102.98-47.46 102.85-107.15-.06-19.04-6.87-32.59-17.84-39-.07 0-.07-.07-.07-.07l-22.87-13.29c-11.63-6.81-27.1-5.35-43.49 4.1-21.22 12.23-39.72 35.69-50.23 60.94v.07c-5.82 13.95-9.25 28.49-9.19 41.91 0 18.44 6.35 32.32 17.91 39.13l-.01.01Zm64.65-9.72c-23.7 13.76-42.5 2.93-42.5-24.19-.13-27.89 19.57-62 43.89-76.01 24.31-13.92 42.5-2.35 42.5 24.19.07 27.89-19.63 62-43.89 76.01Zm4.1-137.35c11.95 0 16.87 5.78 25.52 10.11-1.35.11-8.31-1.08-20.36 3.64-.53.2-1.06.33-1.52.53-9.52-5.49-15.6-9.06-19.1-11.11 5.42-2.05 10.64-3.17 15.47-3.17h-.01Zm-25.59 7.86c2.05-1.19 4.1-2.18 6.15-3.11 2.11 1.32 7.27 4.03 19.5 11.24-12.16 5.76-23.27 15.71-32.06 26.04l-14.28-8.33c-.79-.46-1.78-.2-2.25.6-.46.79-.2 1.85.59 2.31l13.82 8c-8 9.98-14.87 21.35-19.96 33.12l-19.96-11.63c10.31-24.13 28.16-46.47 48.45-58.23v-.01Zm-49.7 61.34 19.96 11.63c-5.29 13.22-8.46 26.9-8.53 39.59l-19.43-11.3c0-12.32 1.86-24.3 8-39.92Zm11.57 55.13c.48 11.5 3.56 20.18 7.47 26.04 0 .046.024.09.07.13l-10.91-6.28c-9.39-5.55-15-16.52-16.06-31.2l19.43 11.3v.01Z"/><mask id="b" width="401" height="266" x="337" y="487" maskUnits="userSpaceOnUse" style="mask-type:luminance"><path fill="#fff" d="M715.181 487.221s25.51 26.64 22.08 48.32c-3.43 21.68-3.37 109.59-3.37 109.59s-3.37 97.69-196.32 107.48c0 0-202.26-14.03-197.18-116.93l-2.84-101s23.97 116.4 185.87 113.99c0 0 57.29-1.43 107.06-15 70.13-19.12 134.71-61.12 84.7-146.45Z"/></mask><g fill="#1F375B" mask="url(#b)"><path d="M345.072 486.92h-1.9v2.01h1.9v-2.01Z" opacity=".6"/><path d="M360.881 484.67h-6.17v6.53h6.17v-6.53Z" opacity=".51"/><path d="M372.902 486.42h-2.84v3.01h2.84v-3.01Z" opacity=".79"/><path d="M386.982 486.01h-3.63v3.84h3.63v-3.84Z" opacity=".8"/><path d="M399.213 487.541h-.74v.78h.74v-.78Z" opacity=".84"/><path d="M427.5 486.561h-2.59v2.74h2.59v-2.74Z" opacity=".5"/><path d="M440.944 486.82h-2.1v2.22h2.1v-2.22Z" opacity=".72"/><path d="M454.421 487.02h-1.71v1.81h1.71v-1.81Z" opacity=".62"/><path d="M470.101 484.91h-5.71v6.04h5.71v-6.04Z" opacity=".87"/><path d="M481.192 487.65h-.52v.55h.52v-.55Z" opacity=".62"/><path d="M496.591 485.84h-3.95v4.18h3.95v-4.18Z" opacity=".8"/><path d="M508.722 487.471h-.87v.93h.87v-.93Z" opacity=".67"/><path d="M522.762 487.09h-1.59v1.69h1.59v-1.69Z" opacity=".62"/><path d="M537.032 486.461h-2.77v2.94h2.77v-2.94Z" opacity=".63"/><path d="M550.641 486.551h-2.61v2.76h2.61v-2.76Z" opacity=".92"/><path d="M564.944 485.891h-3.85v4.08h3.85v-4.08Z" opacity=".67"/><path d="M578.73 485.781h-4.07v4.3h4.07v-4.3Z" opacity=".73"/><path d="M605.163 486.76h-2.21v2.34h2.21v-2.34Z" opacity=".52"/><path d="M618.812 486.801h-2.14v2.26h2.14v-2.26Z" opacity=".54"/><path d="M632.58 486.691h-2.33v2.47h2.33v-2.47Z" opacity=".61"/><path d="M646.081 486.891h-1.96v2.07h1.96v-2.07Z" opacity=".53"/><path d="M660.611 486h-3.65v3.86h3.65V486Z" opacity=".7"/><path d="M672.872 487.5h-.81v.86h.81v-.86Z" opacity=".8"/><path d="M686.862 487.17h-1.44v1.52h1.44v-1.52Z" opacity=".62"/><path d="M700.66 487.041h-1.68v1.78h1.68v-1.78Z" opacity=".6"/><path d="M713.943 487.461h-.881v.94h.881v-.94Z" opacity=".85"/><path d="M727.753 487.34h-1.12v1.18h1.12v-1.18Z" opacity=".7"/><path d="M344.384 502.121h-.54v.57h.54v-.57Z" opacity=".8"/><path d="M360.1 499.971h-4.6v4.87h4.6v-4.87Z" opacity=".57"/><path d="M373.091 500.701h-3.22v3.4h3.22v-3.4Z" opacity=".58"/><path d="M387.82 499.59h-5.32v5.63h5.32v-5.63Z" opacity=".92"/><path d="M400.03 501.15h-2.37v2.5h2.37v-2.5Z" opacity=".55"/><path d="M414.442 500.371h-3.84v4.07h3.84v-4.07Z" opacity=".57"/><path d="M428.252 500.23h-4.1v4.34h4.1v-4.34Z" opacity=".85"/><path d="M453.972 501.98h-.8v.85h.8v-.85Z" opacity=".72"/><path d="M467.972 501.631h-1.46v1.55h1.46v-1.55Z" opacity=".53"/><path d="M482.962 500.25h-4.06v4.3h4.06v-4.3Z" opacity=".83"/><path d="M496.142 500.791h-3.06v3.23h3.06v-3.23Z" opacity=".69"/><path d="M522.77 501.551h-1.61v1.71h1.61v-1.71Z" opacity=".54"/><path d="M535.931 502.111h-.56v.59h.56v-.59Z" opacity=".65"/><path d="M549.822 501.891h-.97v1.03h.97v-1.03Z" opacity=".71"/><path d="M579.32 499.621h-5.25v5.56h5.25v-5.56Z" opacity=".66"/><path d="M592.543 500.121h-4.32v4.57h4.32v-4.57Z" opacity=".62"/><path d="M605.102 501.301h-2.09v2.21h2.09v-2.21Z" opacity=".67"/><path d="M618.232 501.881h-.99v1.05h.99v-1.05Z" opacity=".51"/><path d="M633.983 499.691h-5.12v5.42h5.12v-5.42Z" opacity=".81"/><path d="M645.561 501.92h-.92v.97h.92v-.97Z" opacity=".82"/><path d="M661.113 499.941h-4.66v4.93h4.66v-4.93Z" opacity=".59"/><path d="M673.032 501.801h-1.13v1.19h1.13v-1.19Z" opacity=".68"/><path d="M687.454 501.02h-2.61v2.76h2.61v-2.76Z" opacity=".78"/><path d="M700.964 501.191h-2.28v2.42h2.28v-2.42Z" opacity=".65"/><path d="M714.793 501.041h-2.57v2.72h2.57v-2.72Z" opacity=".52"/><path d="M729.263 500.211h-4.15v4.39h4.15v-4.39Z" opacity=".53"/><path d="M346 514.881h-3.77v3.98H346v-3.98Z" opacity=".54"/><path d="M359.281 515.301h-2.98v3.16h2.98v-3.16Z" opacity=".78"/><path d="M372.302 516h-1.65v1.75h1.65V516Z" opacity=".51"/><path d="M385.763 516.24h-1.201v1.27h1.201v-1.27Z" opacity=".64"/><path d="M399.173 516.531h-.65v.68h.65v-.68Z" opacity=".63"/><path d="M413.63 515.701h-2.22v2.35h2.22v-2.35Z" opacity=".5"/><path d="M426.574 516.49h-.73v.77h.73v-.77Z" opacity=".79"/><path d="M440.532 516.191h-1.29v1.37h1.29v-1.37Z" opacity=".53"/><path d="M482.274 515.461h-2.68v2.84h2.68v-2.84Zm13.169.529h-1.67v1.77h1.67v-1.77Z" opacity=".6"/><path d="M523.741 515h-3.55v3.76h3.55V515Z" opacity=".93"/><path d="M537.193 515.25h-3.08v3.26h3.08v-3.26Z" opacity=".94"/><path d="M551.334 514.77h-3.99v4.22h3.99v-4.22Z" opacity=".8"/><path d="M564.972 514.811h-3.91v4.13h3.91v-4.13Z" opacity=".65"/><path d="M578.671 514.781h-3.96v4.19h3.96v-4.19Z" opacity=".72"/><path d="M605.073 515.801h-2.03v2.15h2.03v-2.15Z" opacity=".83"/><path d="M619.794 514.701h-4.11v4.35h4.11v-4.35Z" opacity=".59"/><path d="M632.131 516.121h-1.42v1.51h1.42v-1.51Z" opacity=".75"/><path d="M645.561 516.391h-.92v.97h.92v-.97Z" opacity=".93"/><path d="M660.552 515h-3.54v3.75h3.54V515Zm12.989.74h-2.15v2.27h2.15v-2.27Z" opacity=".85"/><path d="M700.423 516.24h-1.2v1.27h1.2v-1.27Z" opacity=".78"/><path d="M714.881 515.43h-2.74v2.9h2.74v-2.9Z" opacity=".86"/><path d="M729.903 514.01h-5.43v5.74h5.43v-5.74Z" opacity=".74"/><path d="M345.472 529.92h-2.71v2.87h2.71v-2.87Z" opacity=".94"/><path d="M359.252 529.82h-2.9v3.07h2.9v-3.07Z" opacity=".72"/><path d="M372.243 530.551h-1.52v1.6h1.52v-1.6Z" opacity=".65"/><path d="M386.931 529.48h-3.54v3.74h3.54v-3.74Z" opacity=".55"/><path d="M399.682 530.451h-1.69v1.79h1.69v-1.79Z" opacity=".92"/><path d="M413.743 530.051h-2.45v2.6h2.45v-2.6Zm13.47.24h-2.01v2.13h2.01v-2.13Z" opacity=".83"/><path d="M440.961 530.211h-2.16v2.28h2.16v-2.28Z" opacity=".79"/><path d="M454.052 530.84h-.97v1.02h.97v-1.02Z" opacity=".87"/><path d="M469.132 529.35h-3.78v4h3.78v-4Z" opacity=".86"/><path d="M481.762 530.471h-1.66v1.76h1.66v-1.76Z" opacity=".84"/><path d="M510.512 529.01h-4.43v4.68h4.43v-4.68Z" opacity=".5"/><path d="M523.461 529.77h-2.981v3.16h2.981v-3.16Z" opacity=".9"/><path d="M536.912 530.02h-2.51v2.66h2.51v-2.66Zm27.03.361h-1.84v1.94h1.84v-1.94Z" opacity=".74"/><path d="M576.871 531.17h-.34v.36h.34v-.36Z" opacity=".69"/><path d="M590.834 530.871h-.9v.95h.9v-.95Z" opacity=".67"/><path d="M618.992 530.031h-2.5v2.64h2.5v-2.64Z" opacity=".76"/><path d="M632.971 529.711h-3.1v3.28h3.1v-3.28Z" opacity=".8"/><path d="M659.802 530.27h-2.04v2.16h2.04v-2.16Z" opacity=".86"/><path d="M673.094 530.691h-1.25v1.32h1.25v-1.32Z" opacity=".94"/><path d="M687.823 529.58h-3.35v3.55h3.35v-3.55Z" opacity=".74"/><path d="M716.412 528.281h-5.81v6.15h5.81v-6.15Z" opacity=".64"/><path d="M729.141 529.281h-3.911v4.13h3.911v-4.13Z" opacity=".67"/><path d="M358.733 544.83h-1.87v1.98h1.87v-1.98Z" opacity=".71"/><path d="M373.96 543.201H369v5.25h4.96v-5.25Z" opacity=".54"/><path d="M399.571 545.061h-1.45v1.53h1.45v-1.53Z" opacity=".78"/><path d="M414.271 543.98h-3.49v3.69h3.49v-3.69Z" opacity=".69"/><path d="M428.17 543.74h-3.94v4.17h3.94v-4.17Z" opacity=".57"/><path d="M454.792 544.531h-2.44v2.58h2.44v-2.58Z" opacity=".89"/><path d="M469.623 543.301h-4.76v5.04h4.76v-5.04Z" opacity=".92"/><path d="M481.883 544.82h-1.91v2.02h1.91v-2.02Z" opacity=".86"/><path d="M495.132 545.27h-1.05v1.11h1.05v-1.11Z" opacity=".89"/><path d="M508.711 545.381h-.84v.89h.84v-.89Z" opacity=".77"/><path d="M522.663 545.09h-1.39v1.47h1.39v-1.47Z" opacity=".61"/><path d="M537.021 544.371h-2.74v2.9h2.74v-2.9Z" opacity=".78"/><path d="M549.932 545.201h-1.19v1.26h1.19v-1.26Z" opacity=".51"/><path d="M565.561 543.121h-5.1v5.4h5.1v-5.4Z" opacity=".59"/><path d="M576.901 545.6h-.421v.45h.421v-.45Z" opacity=".58"/><path d="M605.593 544.201h-3.07v3.25h3.07v-3.25Z" opacity=".75"/><path d="M619.263 544.211h-3.04v3.22h3.04v-3.22Z" opacity=".82"/><path d="M632.542 544.65h-2.23V547h2.23v-2.35Z" opacity=".5"/><path d="M646.103 544.77h-1.99v2.1h1.99v-2.1Z" opacity=".67"/><path d="M659.853 544.701h-2.13v2.25h2.13v-2.25Z" opacity=".53"/><path d="M673.86 544.35h-2.79v2.95h2.79v-2.95Z" opacity=".63"/><path d="M686.563 545.381h-.84v.89h.84v-.89Z" opacity=".56"/><path d="M702.66 542.83H697v5.99h5.66v-5.99Z" opacity=".88"/><path d="M714.643 544.631h-2.26v2.39h2.26v-2.39Z" opacity=".59"/><path d="M344.521 559.871h-.81v.86h.81v-.86Z" opacity=".84"/><path d="M371.613 560.17h-.25v.26h.25v-.26Z" opacity=".59"/><path d="M385.9 559.51h-1.49v1.58h1.49v-1.58Z" opacity=".83"/><path d="M400.094 558.971h-2.5v2.65h2.5v-2.65Z" opacity=".93"/><path d="M428.131 558.26h-3.85v4.07h3.85v-4.07Zm13.741-.059h-3.97v4.2h3.97v-4.2Zm13.342.36h-3.28v3.47h3.28v-3.47Z" opacity=".9"/><path d="M469.5 557.92H465v4.76h4.5v-4.76Z" opacity=".77"/><path d="M495.544 559.311h-1.86v1.97h1.86v-1.97Z" opacity=".82"/><path d="M508.611 559.951h-.65v.69h.65v-.69Z" opacity=".74"/><path d="M522.561 559.67h-1.19v1.26h1.19v-1.26Z" opacity=".6"/><path d="M536.4 559.51h-1.49v1.58h1.49v-1.58Z" opacity=".86"/><path d="M549.621 559.99h-.57v.61h.57v-.61Z" opacity=".93"/><path d="M564.501 558.73h-2.97v3.14h2.97v-3.14Z" opacity=".62"/><path d="M577.681 559.25h-1.97v2.09h1.97v-2.09Z" opacity=".55"/><path d="M590.93 559.711h-1.11v1.18h1.11v-1.18Z" opacity=".89"/><path d="M604.821 559.5h-1.52v1.6h1.52v-1.6Zm13.899-.25h-1.97v2.09h1.97v-2.09Z" opacity=".66"/><path d="M631.592 560.111h-.35v.37h.35v-.37Z" opacity=".9"/><path d="M646.673 558.641h-3.13v3.31h3.13v-3.31Z" opacity=".79"/><path d="M659.933 559.08h-2.3v2.44h2.3v-2.44Z" opacity=".69"/><path d="M672.951 559.781h-.971v1.03h.971v-1.03Z" opacity=".79"/><path d="M686.593 559.83h-.89v.94h.89v-.94Z" opacity=".59"/><path d="M714.922 558.801h-2.82v2.99h2.82v-2.99Z" opacity=".74"/><path d="M728.452 558.961h-2.53v2.67h2.53v-2.67Z" opacity=".85"/><path d="M359.164 573.33h-2.73v2.89h2.73v-2.89Z" opacity=".55"/><path d="M373.98 572.131h-5v5.29h5v-5.29Z" opacity=".57"/><path d="M388.5 571.24h-6.68v7.07h6.68v-7.07Z" opacity=".71"/><path d="M399.504 574.07h-1.32v1.4h1.32v-1.4Z" opacity=".63"/><path d="M413.47 573.76h-1.9v2.01h1.9v-2.01Z" opacity=".5"/><path d="M426.762 574.191h-1.11v1.17h1.11v-1.17Z" opacity=".73"/><path d="M440.362 574.26h-.96v1.01h.96v-1.01Zm13.62.07h-.83v.88h.83v-.88Z" opacity=".77"/><path d="M469.742 572.141h-4.98v5.26h4.98v-5.26Z" opacity=".51"/><path d="M483.942 571.59h-6.02v6.37h6.02v-6.37Z" opacity=".64"/><path d="M496.003 573.301h-2.78v2.94h2.78v-2.94Z" opacity=".84"/><path d="M508.832 574.211h-1.07v1.13h1.07v-1.13Z" opacity=".7"/><path d="M522.923 573.77h-1.9v2.01h1.9v-2.01Z" opacity=".58"/><path d="M536.171 574.23h-1.03v1.09h1.03v-1.09Z" opacity=".5"/><path d="M549.861 574.211h-1.06v1.13h1.06v-1.13Z" opacity=".75"/><path d="M563.692 574.051h-1.36v1.44h1.36v-1.44Z" opacity=".54"/><path d="M577.89 573.51h-2.39v2.53h2.39v-2.53Z" opacity=".72"/><path d="M591.203 573.9h-1.641v1.74h1.641v-1.74Z" opacity=".69"/><path d="M605.071 573.701h-2.02v2.14h2.02v-2.14Z" opacity=".51"/><path d="M620.831 571.5h-6.19v6.55h6.19v-6.55Z" opacity=".5"/><path d="M632.161 574h-1.47v1.55h1.47V574Z" opacity=".63"/><path d="M646.702 573.07h-3.21v3.4h3.21v-3.4Z" opacity=".59"/><path d="M659.761 573.73h-1.96v2.08h1.96v-2.08Z" opacity=".61"/><path d="M672.76 574.451h-.6v.64h.6v-.64Z" opacity=".52"/><path d="M687.462 573.381h-2.63v2.78h2.63v-2.78Z" opacity=".86"/><path d="M702.263 572.191h-4.88v5.17h4.88v-5.17Z" opacity=".94"/><path d="M714.594 573.631h-2.16v2.28h2.16v-2.28Z" opacity=".51"/><path d="M728.353 573.541h-2.33v2.47h2.33v-2.47Z" opacity=".55"/><path d="M346.013 587.24h-3.79v4.01h3.79v-4.01Z" opacity=".6"/><path d="M359.223 587.74h-2.84v3h2.84v-3Z" opacity=".58"/><path d="M372.341 588.34h-1.72v1.82h1.72v-1.82Z" opacity=".75"/><path d="M385.711 588.67h-1.09v1.15h1.09v-1.15Z" opacity=".71"/><path d="M399.131 588.941h-.58v.61h.58v-.61Z" opacity=".67"/><path d="M414.642 587h-4.24v4.49h4.24V587Zm26.281 1.16h-2.06v2.18h2.06v-2.18Z" opacity=".89"/><path d="M454.63 588.121h-2.13v2.25h2.13v-2.25Z" opacity=".52"/><path d="M482.171 587.93h-2.48v2.62h2.48v-2.62Z" opacity=".86"/><path d="M496.062 587.701h-2.91v3.08h2.91v-3.08Z" opacity=".89"/><path d="M509.771 587.67h-2.97v3.14h2.97v-3.14Z" opacity=".9"/><path d="M522.481 588.711h-1.02v1.08h1.02v-1.08Z" opacity=".72"/><path d="M537.361 587.441h-3.42v3.62h3.42v-3.62Z" opacity=".87"/><path d="M549.641 588.92h-.61v.65h.61v-.65Z" opacity=".56"/><path d="M565.104 587.041h-4.17v4.41h4.17v-4.41Z" opacity=".75"/><path d="M578.91 586.9h-4.43v4.69h4.43v-4.69Z" opacity=".7"/><path d="M592.152 587.371h-3.55v3.76h3.55v-3.76Z" opacity=".79"/><path d="M605.353 587.881h-2.58v2.72h2.58v-2.72Z" opacity=".78"/><path d="M618.103 588.861h-.72v.76h.72v-.76Z" opacity=".82"/><path d="M632.504 588.1h-2.16v2.29h2.16v-2.29Z" opacity=".93"/><path d="M645.48 588.85h-.75v.79h.75v-.79Z" opacity=".73"/><path d="M673.77 587.871h-2.61v2.76h2.61v-2.76Z" opacity=".91"/><path d="M688.46 586.791h-4.64v4.91h4.64v-4.91Z" opacity=".65"/><path d="M700.451 588.58h-1.26v1.33h1.26v-1.33Z" opacity=".8"/><path d="M713.852 588.891h-.68v.72h.68v-.72Z" opacity=".57"/><path d="M345.25 602.52h-2.27v2.399h2.27v-2.399Z" opacity=".6"/><path d="M359.522 601.9h-3.44v3.64h3.44v-3.64Z" opacity=".59"/><path d="M371.7 603.48h-.45v.471h.45v-.471Z" opacity=".72"/><path d="M385.521 603.34h-.72v.76h.72v-.76Z" opacity=".89"/><path d="M399.391 603.141h-1.09v1.15h1.09v-1.15Z" opacity=".82"/><path d="M413.921 602.24h-2.8v2.96h2.8v-2.96Z" opacity=".72"/><path d="M428.822 600.951h-5.24v5.54h5.24v-5.54Z" opacity=".53"/><path d="M441.01 602.52h-2.26v2.389h2.26v-2.389Z" opacity=".81"/><path d="M454.56 602.66h-1.99v2.11h1.99v-2.11Z" opacity=".94"/><path d="M467.582 603.371h-.66v.7h.66v-.7Z" opacity=".83"/><path d="M482.583 601.971h-3.31v3.51h3.31v-3.51Z" opacity=".66"/><path d="M495.89 602.361h-2.57v2.72h2.57v-2.72Z" opacity=".64"/><path d="M510 601.9h-3.43v3.63H510v-3.63Z" opacity=".93"/><path d="M537.072 602.221h-2.83v3h2.83v-3Z" opacity=".89"/><path d="M552.041 600.85h-5.42v5.73h5.42v-5.73Z" opacity=".78"/><path d="M563.463 603.24h-.901v.95h.901v-.95Z" opacity=".92"/><path d="M576.992 603.41h-.59v.62h.59v-.62Z" opacity=".79"/><path d="M591.571 602.461h-2.38v2.51h2.38v-2.51Z" opacity=".77"/><path d="M618.722 602.68h-1.96v2.07h1.96v-2.07Z" opacity=".54"/><path d="M632.654 602.41h-2.47v2.62h2.47v-2.62Z" opacity=".77"/><path d="M646.97 601.74h-3.74v3.95h3.74v-3.95Z" opacity=".92"/><path d="M659.443 603.02h-1.31v1.389h1.31v-1.389Z" opacity=".76"/><path d="M674.803 601.25h-4.67v4.94h4.67v-4.94Z" opacity=".92"/><path d="M687.772 601.99h-3.26v3.45h3.26v-3.45Z" opacity=".78"/><path d="M701.121 602.35h-2.59v2.74h2.59v-2.74Z" opacity=".55"/><path d="M713.793 603.42h-.57v.61h.57v-.61Z" opacity=".7"/><path d="M728.37 602.471H726v2.51h2.37v-2.51Z" opacity=".91"/><path d="M344.343 617.951h-.46v.49h.46v-.49Z" opacity=".69"/><path d="M359.813 616.07h-4.02v4.25h4.02v-4.25Z" opacity=".52"/><path d="M385.894 617.42h-1.46v1.55h1.46v-1.55Z" opacity=".64"/><path d="M400.883 616.041h-4.071v4.31h4.071v-4.31Z" opacity=".69"/><path d="M428.324 615.961h-4.23v4.47h4.23v-4.47Z" opacity=".72"/><path d="M443.501 614.381h-7.22v7.63h7.22v-7.63Z" opacity=".7"/><path d="M456.062 615.551h-5v5.29h5v-5.29Z" opacity=".73"/><path d="M468.482 616.891h-2.47v2.61h2.47v-2.61Z" opacity=".5"/><path d="M481.352 617.75h-.84v.89h.84v-.89Z" opacity=".78"/><path d="M495.691 617.051h-2.16v2.28h2.16v-2.28Z" opacity=".91"/><path d="M509.492 616.93h-2.39v2.53h2.39v-2.53Z" opacity=".62"/><path d="M522.761 617.371h-1.57v1.66h1.57v-1.66Z" opacity=".73"/><path d="M537.142 616.611h-2.99v3.17h2.99v-3.17Z" opacity=".69"/><path d="M551.484 615.92h-4.3v4.55h4.3v-4.55Z" opacity=".83"/><path d="M563.513 617.67h-.99v1.05h.99v-1.05Z" opacity=".72"/><path d="M579.091 615.66h-4.79v5.06h4.79v-5.06Z" opacity=".94"/><path d="M592.252 616.211h-3.74v3.96h3.74v-3.96Z" opacity=".93"/><path d="M605.161 617.031h-2.2v2.33h2.2v-2.33Z" opacity=".55"/><path d="M632.264 617.311h-1.67v1.76h1.67v-1.76Z" opacity=".9"/><path d="M645.833 617.43h-1.45v1.53h1.45v-1.53Z" opacity=".78"/><path d="M674.073 616.5h-3.21v3.39h3.21v-3.39Z" opacity=".62"/><path d="M687.22 617.051h-2.15v2.28h2.15v-2.28Z" opacity=".67"/><path d="M701.143 616.811h-2.62v2.77h2.62v-2.77Z" opacity=".62"/><path d="M714.963 616.66h-2.901v3.07h2.901v-3.07Z" opacity=".72"/><path d="M728.831 616.461h-3.28v3.47h3.28v-3.47Z" opacity=".64"/><path d="M344.763 631.99h-1.29v1.36h1.29v-1.36Z" opacity=".72"/><path d="M373.173 630.881h-3.38v3.58h3.38v-3.58Z" opacity=".68"/><path d="M388.183 629.471h-6.05v6.4h6.05v-6.4Z" opacity=".51"/><path d="M400.723 630.691h-3.75v3.96h3.75v-3.96Z" opacity=".87"/><path d="M426.84 631.99h-1.27v1.35h1.27v-1.35Z" opacity=".85"/><path d="M441.471 630.99h-3.17v3.36h3.17v-3.36Z" opacity=".7"/><path d="M454.9 631.26h-2.67v2.82h2.67v-2.82Z" opacity=".92"/><path d="M468.793 631.031h-3.09v3.27h3.09v-3.27Z" opacity=".71"/><path d="M481.163 632.42h-.46v.49h.46v-.49Z" opacity=".62"/><path d="M510.383 630.461h-4.18v4.42h4.18v-4.42Z" opacity=".71"/><path d="M522.342 632.281h-.74v.78h.74v-.78Z" opacity=".7"/><path d="M536.621 631.641h-1.93v2.04h1.93v-2.04Z" opacity=".73"/><path d="M550.522 631.41h-2.37v2.51h2.37v-2.51Z" opacity=".88"/><path d="M566.341 629.15h-6.65v7.03h6.65v-7.03Z" opacity=".59"/><path d="M577.113 632.221h-.84v.89h.84v-.89Z" opacity=".73"/><path d="M590.561 632.471h-.37v.39h.37v-.39Z" opacity=".59"/><path d="M606.352 630.24h-4.59v4.85h4.59v-4.85Z" opacity=".51"/><path d="M632.363 631.66h-1.89v2h1.89v-2Z" opacity=".64"/><path d="M674.002 631.041h-3.08v3.26h3.08v-3.26Z" opacity=".61"/><path d="M686.833 631.951h-1.36v1.43h1.36v-1.43Z" opacity=".71"/><path d="M701.691 630.691h-3.73v3.95h3.73v-3.95Z" opacity=".86"/><path d="M714.121 632.02h-1.23v1.3h1.23v-1.3Z" opacity=".69"/><path d="M728.851 630.91h-3.32v3.51h3.32v-3.51Z" opacity=".53"/><path d="M346.611 644.5h-4.99v5.28h4.99v-5.28Z" opacity=".54"/><path d="M359.301 645.551h-3v3.17h3v-3.17Z" opacity=".82"/><path d="M372.524 646.031h-2.09v2.22h2.09v-2.22Z" opacity=".61"/><path d="M385.422 646.861h-.52v.55h.52v-.55Z" opacity=".59"/><path d="M400.981 644.881h-4.27v4.51h4.27v-4.51Z" opacity=".63"/><path d="M413.611 645.99h-2.17v2.3h2.17v-2.3Z" opacity=".71"/><path d="M427.011 646.281h-1.62v1.71h1.62v-1.71Z" opacity=".88"/><path d="M441.573 645.361h-3.37v3.57h3.37v-3.57Z" opacity=".54"/><path d="M455.212 645.4h-3.29v3.48h3.29v-3.48Z" opacity=".81"/><path d="M468.441 645.871h-2.39v2.53h2.39v-2.53Z" opacity=".91"/><path d="M481.913 646.111h-1.96v2.07h1.96v-2.07Z" opacity=".82"/><path d="M495.441 646.26h-1.66v1.76h1.66v-1.76Z" opacity=".92"/><path d="M508.953 646.441h-1.32v1.4h1.32v-1.4Z" opacity=".52"/><path d="M523.421 645.611h-2.89v3.06h2.89v-3.06Z" opacity=".55"/><path d="M550.461 645.951h-2.25v2.38h2.25v-2.38Z" opacity=".66"/><path d="M563.631 646.48h-1.24v1.31h1.24v-1.31Z" opacity=".91"/><path d="M577.224 646.59h-1.04v1.1h1.04v-1.1Z" opacity=".56"/><path d="M591.01 646.471h-1.26v1.33h1.26v-1.33Z" opacity=".88"/><path d="M619.541 645.24h-3.6v3.81h3.6v-3.81Z" opacity=".8"/><path d="M632.303 646.211h-1.76v1.86h1.76v-1.86Z" opacity=".88"/><path d="M646.341 645.83h-2.47v2.61h2.47v-2.61Z" opacity=".77"/><path d="M659.703 646.17h-1.84v1.95h1.84v-1.95Z" opacity=".65"/><path d="M675.391 644.051h-5.84v6.17h5.84v-6.17Z" opacity=".66"/><path d="M686.982 646.26h-1.67v1.77h1.67v-1.77Z" opacity=".57"/><path d="M713.901 646.73h-.78v.82h.78v-.82Z" opacity=".91"/><path d="M728.253 646.02h-2.12v2.24h2.12v-2.24Z" opacity=".66"/><path d="M359.323 660h-3.05v3.23h3.05V660Z" opacity=".91"/><path d="M372.374 660.67h-1.78v1.89h1.78v-1.89Z" opacity=".57"/><path d="M385.732 661.02h-1.13v1.19h1.13v-1.19Z" opacity=".94"/><path d="M413.013 661.1h-.97v1.02h.97v-1.02Z" opacity=".79"/><path d="M426.533 661.27h-.65v.69h.65v-.69Z" opacity=".76"/><path d="M440.043 661.451h-.32v.34h.32v-.34Z" opacity=".9"/><path d="M454.831 660.281h-2.53v2.68h2.53v-2.68Z" opacity=".68"/><path d="M469.023 659.74h-3.55v3.75h3.55v-3.75Z" opacity=".91"/><path d="M481.772 660.721h-1.69v1.79h1.69v-1.79Z" opacity=".87"/><path d="M523.352 660.16h-2.75v2.91h2.75v-2.91Z" opacity=".8"/><path d="M536.113 661.131h-.91v.96h.91v-.96Z" opacity=".85"/><path d="M551.322 659.51h-3.97v4.2h3.97v-4.2Z" opacity=".75"/><path d="M565.553 658.93h-5.08v5.37h5.08v-5.37Z" opacity=".55"/><path d="M579.183 658.99h-4.96v5.25h4.96v-5.25Z" opacity=".82"/><path d="M591.633 660.281h-2.52v2.67h2.52v-2.67Z" opacity=".89"/><path d="M604.821 660.811h-1.52v1.61h1.52v-1.61Z" opacity=".85"/><path d="M619.97 659.25h-4.47v4.73h4.47v-4.73Z" opacity=".55"/><path d="M631.863 661.141h-.89v.94h.89v-.94Z" opacity=".87"/><path d="M646.251 660.41h-2.29v2.42h2.29v-2.42Z" opacity=".71"/><path d="M660.013 660.32h-2.451v2.6h2.451v-2.6Z" opacity=".7"/><path d="M675.42 658.48h-5.92v6.27h5.92v-6.27Z" opacity=".76"/><path d="M687.454 660.23h-2.61v2.76h2.61v-2.76Z" opacity=".8"/><path d="M713.753 661.361h-.48v.51h.48v-.51Z" opacity=".83"/><path d="M728.351 660.391h-2.32v2.45h2.32v-2.45Z" opacity=".64"/><path d="M372.603 674.9h-2.24v2.37h2.24v-2.37Z" opacity=".65"/><path d="M413.503 675.051h-1.96v2.08h1.96v-2.08Z" opacity=".55"/><path d="M427.533 674.68h-2.65v2.81h2.65v-2.81Zm14.909-1.289h-5.11v5.4h5.11v-5.4Z" opacity=".57"/><path d="M455.732 673.801h-4.33v4.58h4.33v-4.58Z" opacity=".61"/><path d="M468.73 674.51h-2.98v3.16h2.98v-3.16Z" opacity=".78"/><path d="M481.143 675.871h-.42v.44h.42v-.44Z" opacity=".87"/><path d="M494.822 675.871h-.42v.44h.42v-.44Z" opacity=".61"/><path d="M508.744 675.611h-.9v.95h.9v-.95Z" opacity=".84"/><path d="M523.542 674.43h-3.14v3.32h3.14v-3.32Zm26.648.75h-1.71v1.81h1.71v-1.81Z" opacity=".74"/><path d="M577.413 675.33h-1.44v1.52h1.44v-1.52Z" opacity=".52"/><path d="M592.743 673.59h-4.72v4.99h4.72v-4.99Z" opacity=".57"/><path d="M606.222 673.801h-4.32v4.57h4.32v-4.57Z" opacity=".54"/><path d="M618.763 675.01h-2.04v2.16h2.04v-2.16Z" opacity=".65"/><path d="M634.932 672.371h-7.03v7.44h7.03v-7.44Z" opacity=".54"/><path d="M646.083 675.061h-1.95v2.06h1.95v-2.06Z" opacity=".79"/><path d="M676.092 672.26h-7.24v7.66h7.24v-7.66Z" opacity=".75"/><path d="M687.57 674.59h-2.84v3h2.84v-3Z" opacity=".6"/><path d="M700.242 675.66h-.82v.86h.82v-.86Z" opacity=".58"/><path d="M715.002 674.51h-2.99v3.17h2.99v-3.17Z" opacity=".54"/><path d="M729.163 674h-3.94v4.17h3.94V674Z" opacity=".65"/><path d="M345.01 689.621h-1.78v1.88h1.78v-1.88Z" opacity=".81"/><path d="M359.832 688.41h-4.07v4.31h4.07v-4.31Z" opacity=".88"/><path d="M372.312 689.68h-1.66v1.76h1.66v-1.76Z" opacity=".71"/><path d="M386.123 689.551h-1.92v2.03h1.92v-2.03Z" opacity=".88"/><path d="M399.78 689.57h-1.87v1.98h1.87v-1.98Z" opacity=".67"/><path d="M440.563 689.84h-1.36v1.44h1.36v-1.44Z" opacity=".52"/><path d="M495.74 689.371h-2.26v2.39h2.26v-2.39Z" opacity=".71"/><path d="M509.822 688.951h-3.06v3.23h3.06v-3.23Z" opacity=".84"/><path d="M536.043 690.16h-.77v.81h.77v-.81Z" opacity=".69"/><path d="M549.742 690.131h-.82v.87h.82v-.87Z" opacity=".65"/><path d="M563.311 690.24h-.6v.64h.6v-.64Z" opacity=".91"/><path d="M577.91 689.281h-2.43v2.57h2.43v-2.57Z" opacity=".76"/><path d="M592.932 687.871h-5.1v5.39h5.1v-5.39Z" opacity=".75"/><path d="M619.142 689.07h-2.81v2.98h2.81v-2.98Z" opacity=".94"/><path d="M632.69 689.23h-2.53v2.671h2.53v-2.671Z" opacity=".87"/><path d="M646.014 689.59h-1.83v1.94h1.83v-1.94Z" opacity=".55"/><path d="M661.451 687.74h-5.33v5.64h5.33v-5.64Z" opacity=".68"/><path d="M673.43 689.541h-1.93v2.04h1.93v-2.04Z" opacity=".75"/><path d="M687.021 689.641h-1.74v1.84h1.74v-1.84Z" opacity=".66"/><path d="M701.822 688.451h-3.99v4.22h3.99v-4.22Zm12.309 1.449h-1.24v1.32h1.24v-1.32Z" opacity=".71"/><path d="M728.122 689.58h-1.86v1.97h1.86v-1.97Z" opacity=".94"/><path d="M345.091 704.01h-1.95v2.06h1.95v-2.06Z" opacity=".61"/><path d="M358.102 704.711h-.61v.64h.61v-.64Z" opacity=".63"/><path d="M371.771 704.73h-.58v.611h.58v-.611Z" opacity=".5"/><path d="M386.203 703.941h-2.07v2.19h2.07v-2.19Z" opacity=".92"/><path d="M399.192 704.67h-.7v.74h.7v-.74Z" opacity=".9"/><path d="M426.502 704.721h-.6v.64h.6v-.64Z" opacity=".58"/><path d="M440.481 704.4h-1.2v1.27h1.2v-1.27Z" opacity=".55"/><path d="M454.601 703.941h-2.07v2.19h2.07v-2.19Z" opacity=".56"/><path d="M469.012 703.18h-3.52v3.72h3.52v-3.72Z" opacity=".6"/><path d="M483.44 702.371h-5.03v5.32h5.03v-5.32Z" opacity=".53"/><path d="M497.013 702.49h-4.81v5.09h4.81v-5.09Z" opacity=".76"/><path d="M523.372 703.561h-2.79v2.95h2.79v-2.95Z" opacity=".83"/><path d="M536.001 704.66h-.7v.74h.7v-.74Z" opacity=".74"/><path d="M549.562 704.791h-.46v.48h.46v-.48Z" opacity=".59"/><path d="M564.401 703.58h-2.76v2.92h2.76v-2.92Z" opacity=".88"/><path d="M578.751 702.861h-4.11v4.35h4.11v-4.35Z" opacity=".8"/><path d="M592.053 703.26h-3.35v3.55h3.35v-3.55Z" opacity=".66"/><path d="M604.663 704.41h-1.19v1.25h1.19v-1.25Z" opacity=".62"/><path d="M618.331 704.41h-1.19v1.26h1.19v-1.26Z" opacity=".89"/><path d="M632.52 703.871h-2.2v2.33h2.2v-2.33Z" opacity=".53"/><path d="M645.63 704.48h-1.06v1.12h1.06v-1.12Z" opacity=".69"/><path d="M659.371 704.41h-1.18v1.25h1.18v-1.25Z" opacity=".88"/><path d="M675.432 701.891h-5.94v6.29h5.94v-6.29Z" opacity=".56"/><path d="M701.012 703.791h-2.36v2.49h2.36v-2.49Z" opacity=".57"/><path d="M714.012 704.49h-1.02v1.08h1.02v-1.08Z" opacity=".92"/><path d="M727.704 704.5h-1.02v1.08h1.02v-1.08Z" opacity=".87"/><path d="M344.461 719.15h-.68v.72h.68v-.72Z" opacity=".64"/><path d="M358.77 718.48h-1.95v2.07h1.95v-2.07Z" opacity=".82"/><path d="M372.034 718.93h-1.1v1.17h1.1v-1.17Z" opacity=".83"/><path d="M386.66 717.93h-3v3.17h3v-3.17Z" opacity=".51"/><path d="M400.131 718.15h-2.58v2.73h2.58v-2.73Z" opacity=".68"/><path d="M441.52 717.781h-3.27v3.45h3.27v-3.45Z" opacity=".86"/><path d="M454.204 718.84h-1.27v1.34h1.27v-1.34Z" opacity=".53"/><path d="M469.191 717.451h-3.89v4.11h3.89v-4.11Z" opacity=".78"/><path d="M481.934 718.451h-2v2.12h2v-2.12Z" opacity=".5"/><path d="M495.021 719.07h-.83v.88h.83v-.88Z" opacity=".9"/><path d="M509.34 718.391h-2.11v2.23h2.11v-2.23Z" opacity=".61"/><path d="M522.772 718.67h-1.6v1.69h1.6v-1.69Z" opacity=".75"/><path d="M537.282 717.781h-3.27v3.46h3.27v-3.46Z" opacity=".9"/><path d="M551.961 716.73h-5.25v5.56h5.25v-5.56Z" opacity=".74"/><path d="M578.933 717.15h-4.46v4.72h4.46v-4.72Z" opacity=".82"/><path d="M591.143 718.701h-1.53v1.62h1.53v-1.62Z" opacity=".5"/><path d="M604.983 718.531h-1.85v1.96h1.85v-1.96Z" opacity=".73"/><path d="M618.863 718.32h-2.25v2.38h2.25v-2.38Z" opacity=".76"/><path d="M632.654 718.201h-2.47v2.62h2.47v-2.62Z" opacity=".9"/><path d="M648.23 716.201h-6.25v6.61h6.25v-6.61Z" opacity=".67"/><path d="M660.023 718.201h-2.48v2.62h2.48v-2.62Z" opacity=".8"/><path d="M672.891 719.051h-.86v.91h.86v-.91Z" opacity=".92"/><path d="M687.122 718.48h-1.95v2.06h1.95v-2.06Z" opacity=".87"/><path d="M714.461 718.5h-1.91v2.02h1.91v-2.02Z" opacity=".73"/><path d="M344.41 733.67h-.59v.62h.59v-.62Z" opacity=".87"/><path d="M357.932 733.84h-.26v.28h.26v-.28Z" opacity=".7"/><path d="M372.341 733.07h-1.72v1.82h1.72v-1.82Z" opacity=".85"/><path d="M385.803 733.311h-1.28v1.35h1.28v-1.35Z" opacity=".89"/><path d="M415.671 730.65h-6.3v6.66h6.3v-6.66Z" opacity=".53"/><path d="M428.541 731.52h-4.67v4.94h4.67v-4.94Z" opacity=".63"/><path d="M442.073 731.67h-4.37v4.62h4.37v-4.62Z" opacity=".84"/><path d="M455.542 731.891h-3.96v4.19h3.96v-4.19Z" opacity=".92"/><path d="M468.092 733.09h-1.69v1.79h1.69v-1.79Z" opacity=".59"/><path d="M482.653 732.16h-3.45v3.65h3.45v-3.65Z" opacity=".51"/><path d="M495.812 732.711h-2.41v2.55h2.41v-2.55Z" opacity=".76"/><path d="M511.113 731h-5.64v5.96h5.64V731Z" opacity=".84"/><path d="M523.462 732.42h-2.97v3.14h2.97v-3.14Zm12.631 1.1h-.87v.92h.87v-.92Z" opacity=".55"/><path d="M550.26 733h-1.85v1.96h1.85V733Z" opacity=".89"/><path d="M563.661 733.301h-1.29v1.36h1.29v-1.36Z" opacity=".57"/><path d="M578.453 732.131h-3.5v3.7h3.5v-3.7Z" opacity=".92"/><path d="M592.34 731.9h-3.93v4.16h3.93v-4.16Z" opacity=".89"/><path d="M604.71 733.301h-1.3v1.38h1.3v-1.38Z" opacity=".6"/><path d="M619.072 732.58h-2.65v2.8h2.65v-2.8Z" opacity=".73"/><path d="M632.961 732.35h-3.09v3.27h3.09v-3.27Z" opacity=".81"/><path d="M647.001 731.971h-3.81v4.04h3.81v-4.04Z" opacity=".67"/><path d="M660.023 732.67h-2.48v2.63h2.48v-2.63Z" opacity=".6"/><path d="M674.481 731.85h-4.04v4.28h4.04v-4.28Z" opacity=".62"/><path d="M700.324 733.471h-.98v1.03h.98v-1.03Z" opacity=".89"/><path d="M728.171 732.951h-1.96v2.08h1.96v-2.08Z" opacity=".86"/><path d="M359.123 747.061h-2.65v2.8h2.65v-2.8Z" opacity=".89"/><path d="M373.852 745.941h-4.75v5.03h4.75v-5.03Z" opacity=".62"/><path d="M386.984 746.531h-3.64v3.85h3.64v-3.85Z" opacity=".79"/><path d="M401.182 745.99h-4.67v4.94h4.67v-4.94Z" opacity=".61"/><path d="M427.471 747.121h-2.53v2.68h2.53v-2.68Z" opacity=".7"/><path d="M440.551 747.75h-1.34v1.42h1.34v-1.42Z" opacity=".84"/><path d="M454.9 747.041h-2.67v2.83h2.67v-2.83Z" opacity=".79"/><path d="M467.75 747.93h-1v1.06h1v-1.06Zm13.684 0h-1v1.05h1v-1.05Z" opacity=".83"/><path d="M495.4 747.621h-1.58v1.67h1.58v-1.67Z" opacity=".56"/><path d="M508.961 747.75h-1.34v1.42h1.34v-1.42Z" opacity=".62"/><path d="M522.211 748.201h-.481v.51h.481v-.51Z" opacity=".91"/><path d="M536.134 747.951h-.95v1.01h.95v-1.01Z" opacity=".73"/><path d="M550.35 747.391h-2.03v2.15h2.03v-2.15Z" opacity=".92"/><path d="M563.672 747.76h-1.32v1.4h1.32v-1.4Z" opacity=".86"/><path d="M591.193 747.59h-1.631v1.73h1.631v-1.73Z" opacity=".51"/><path d="M607.931 744.361h-7.74v8.19h7.74v-8.19Z" opacity=".76"/><path d="M618.613 747.541h-1.73v1.83h1.73v-1.83Z" opacity=".75"/><path d="M631.711 748.16h-.57v.6h.57v-.6Z" opacity=".51"/><path d="M645.852 747.67h-1.5v1.58h1.5v-1.58Z" opacity=".79"/><path d="M659.713 747.48h-1.85v1.96h1.85v-1.96Z" opacity=".92"/><path d="M673.381 747.49h-1.83v1.94h1.83v-1.94Z" opacity=".8"/><path d="M687.173 747.381h-2.04v2.15h2.04v-2.15Z" opacity=".87"/><path d="M700.602 747.641h-1.54v1.63h1.54v-1.63Z" opacity=".64"/><path d="M715.412 746.441h-3.81v4.03h3.81v-4.03Z" opacity=".93"/><path d="M727.46 748.17h-.55v.58h.55v-.58Z" opacity=".74"/></g><mask id="c" width="130" height="149" x="490" y="373" maskUnits="userSpaceOnUse" style="mask-type:luminance"><path fill="#fff" d="M600.726 477.714c24.864-37.268 24.544-81.141-.715-97.993-25.259-16.852-65.892-.302-90.756 36.967-24.864 37.268-24.544 81.141.715 97.993 25.259 16.852 65.892.302 90.756-36.967Z"/></mask><g fill="#1F375B" mask="url(#c)"><path d="M495.133 371.668h-2.16v2.28h2.16v-2.28Z" opacity=".79"/><path d="M508.212 372.299h-.97v1.02h.97v-1.02Z" opacity=".87"/><path d="M523.303 370.809h-3.78v4h3.78v-4Z" opacity=".86"/><path d="M535.922 371.93h-1.66v1.76h1.66v-1.76Z" opacity=".84"/><path d="M564.672 370.469h-4.43v4.68h4.43v-4.68Z" opacity=".5"/><path d="M577.621 371.238h-2.98v3.16h2.98v-3.16Z" opacity=".9"/><path d="M591.073 371.479h-2.511v2.66h2.511v-2.66Zm27.029.359h-1.84v1.94h1.84v-1.94Z" opacity=".74"/><path d="M508.952 385.998h-2.44v2.58h2.44v-2.58Z" opacity=".89"/><path d="M523.791 384.77h-4.76v5.04h4.76v-5.04Z" opacity=".92"/><path d="M536.051 386.279h-1.91v2.02h1.91v-2.02Z" opacity=".86"/><path d="M549.304 386.729h-1.05v1.11h1.05v-1.11Z" opacity=".89"/><path d="M562.871 386.838h-.84v.89h.84v-.89Z" opacity=".77"/><path d="M576.831 386.549h-1.39v1.47h1.39v-1.47Z" opacity=".61"/><path d="M591.181 385.838h-2.74v2.9h2.74v-2.9Z" opacity=".78"/><path d="M604.092 386.658h-1.19v1.26h1.19v-1.26Z" opacity=".51"/><path d="M619.721 384.588h-5.1v5.4h5.1v-5.4Z" opacity=".59"/><path d="M496.033 399.658h-3.971v4.2h3.971v-4.2Zm13.341.371h-3.28v3.47h3.28v-3.47Z" opacity=".9"/><path d="M523.66 399.379h-4.5v4.76h4.5v-4.76Z" opacity=".77"/><path d="M549.704 400.779h-1.86v1.97h1.86v-1.97Z" opacity=".82"/><path d="M562.783 401.418h-.65v.69h.65v-.69Z" opacity=".74"/><path d="M576.733 401.129h-1.19v1.26h1.19v-1.26Z" opacity=".6"/><path d="M590.56 400.969h-1.49v1.58h1.49v-1.58Z" opacity=".86"/><path d="M603.781 401.459h-.57v.61h.57v-.61Z" opacity=".93"/><path d="M618.661 400.189h-2.97v3.14h2.97v-3.14Z" opacity=".62"/><path d="M494.53 415.729h-.96v1.009h.96v-1.009Zm13.613.07h-.831v.88h.831v-.88Z" opacity=".77"/><path d="M523.902 413.6h-4.98v5.26h4.98v-5.26Z" opacity=".51"/><path d="M538.102 413.049h-6.02v6.37h6.02v-6.37Z" opacity=".64"/><path d="M550.163 414.77h-2.78v2.94h2.78v-2.94Z" opacity=".84"/><path d="M562.992 415.668h-1.07v1.13h1.07v-1.13Z" opacity=".7"/><path d="M577.084 415.229h-1.9v2.009h1.9v-2.009Z" opacity=".58"/><path d="M590.331 415.689h-1.03v1.09h1.03v-1.09Z" opacity=".5"/><path d="M604.021 415.668h-1.06v1.13h1.06v-1.13Z" opacity=".75"/><path d="M617.852 415.51h-1.36v1.44h1.36v-1.44Z" opacity=".54"/><path d="M495.083 429.619h-2.06v2.18h2.06v-2.18Z" opacity=".89"/><path d="M508.79 429.578h-2.13v2.25h2.13v-2.25Z" opacity=".52"/><path d="M536.332 429.398h-2.48v2.62h2.48v-2.62Z" opacity=".86"/><path d="M550.222 429.168h-2.91v3.08h2.91v-3.08Z" opacity=".89"/><path d="M563.943 429.139h-2.97v3.14h2.97v-3.14Z" opacity=".9"/><path d="M576.641 430.168h-1.02v1.08h1.02v-1.08Z" opacity=".72"/><path d="M591.533 428.898h-3.42v3.62h3.42v-3.62Z" opacity=".87"/><path d="M603.801 430.389h-.61v.65h.61v-.65Z" opacity=".56"/><path d="M619.264 428.498h-4.17v4.41h4.17v-4.41Z" opacity=".75"/><path d="M495.182 443.988h-2.26v2.39h2.26v-2.39Z" opacity=".81"/><path d="M508.72 444.129h-1.99v2.11h1.99v-2.11Z" opacity=".94"/><path d="M521.742 444.828h-.66v.7h.66v-.7Z" opacity=".83"/><path d="M536.744 443.43h-3.31v3.51h3.31v-3.51Z" opacity=".66"/><path d="M550.062 443.818h-2.57v2.72h2.57v-2.72Z" opacity=".64"/><path d="M564.172 443.369h-3.43v3.63h3.43v-3.63Z" opacity=".93"/><path d="M591.232 443.689h-2.83v3h2.83v-3Z" opacity=".89"/><path d="M606.213 442.318h-5.42v5.73h5.42v-5.73Z" opacity=".78"/><path d="M617.63 444.709h-.9v.95h.9v-.95Z" opacity=".92"/><path d="M497.661 455.838h-7.22v7.63h7.22v-7.63Z" opacity=".7"/><path d="M510.23 457.01h-5v5.29h5v-5.29Z" opacity=".73"/><path d="M522.642 458.35h-2.47v2.61h2.47v-2.61Z" opacity=".5"/><path d="M535.512 459.209h-.84v.89h.84v-.89Z" opacity=".78"/><path d="M549.851 458.52h-2.16v2.28h2.16v-2.28Z" opacity=".91"/><path d="M563.652 458.389h-2.39v2.53h2.39v-2.53Z" opacity=".62"/><path d="M576.922 458.828h-1.57v1.66h1.57v-1.66Z" opacity=".73"/><path d="M591.31 458.068h-2.99v3.17h2.99v-3.17Z" opacity=".69"/><path d="M605.652 457.379h-4.3v4.55h4.3v-4.55Z" opacity=".83"/><path d="M617.674 459.129h-.99v1.05h.99v-1.05Z" opacity=".72"/><path d="M495.631 472.449h-3.17v3.36h3.17v-3.36Z" opacity=".7"/><path d="M509.061 472.719h-2.67v2.82h2.67v-2.82Z" opacity=".92"/><path d="M522.953 472.498h-3.09v3.27h3.09v-3.27Z" opacity=".71"/><path d="M535.323 473.889h-.46v.49h.46v-.49Z" opacity=".62"/><path d="M564.543 471.918h-4.18v4.42h4.18v-4.42Z" opacity=".71"/><path d="M576.502 473.738h-.74v.78h.74v-.78Z" opacity=".7"/><path d="M590.782 473.109h-1.93v2.04h1.93v-2.04Z" opacity=".73"/><path d="M604.682 472.879h-2.37v2.51h2.37v-2.51Z" opacity=".88"/><path d="M620.502 470.609h-6.65v7.03h6.65v-7.03Z" opacity=".59"/><path d="M495.733 486.818h-3.37v3.57h3.37v-3.57Z" opacity=".54"/><path d="M509.372 486.859h-3.29v3.48h3.29v-3.48Z" opacity=".81"/><path d="M522.601 487.338h-2.39v2.53h2.39v-2.53Z" opacity=".91"/><path d="M536.073 487.568h-1.96v2.07h1.96v-2.07Z" opacity=".82"/><path d="M549.601 487.719h-1.66v1.76h1.66v-1.76Z" opacity=".92"/><path d="M563.113 487.898h-1.32v1.4h1.32v-1.4Z" opacity=".52"/><path d="M577.581 487.078h-2.89v3.06h2.89v-3.06Z" opacity=".55"/><path d="M604.621 487.408h-2.25v2.38h2.25v-2.38Z" opacity=".66"/><path d="M617.802 487.949h-1.24v1.31h1.24v-1.31Z" opacity=".91"/><path d="M494.211 502.908h-.32v.34h.32v-.34Z" opacity=".9"/><path d="M508.991 501.738h-2.53v2.68h2.53v-2.68Z" opacity=".68"/><path d="M523.191 501.199h-3.55v3.75h3.55v-3.75Z" opacity=".91"/><path d="M535.932 502.18h-1.69v1.79h1.69v-1.79Z" opacity=".87"/><path d="M577.512 501.629h-2.75v2.91h2.75v-2.91Z" opacity=".8"/><path d="M590.273 502.6h-.91v.96h.91v-.96Z" opacity=".85"/><path d="M605.482 500.979h-3.97v4.199h3.97v-4.199Z" opacity=".75"/><path d="M619.721 500.389h-5.08v5.37h5.08v-5.37Z" opacity=".55"/><path d="M496.602 514.85h-5.11v5.4h5.11v-5.4Z" opacity=".57"/><path d="M509.893 515.26h-4.331v4.58h4.331v-4.58Z" opacity=".61"/><path d="M522.902 515.969h-2.98v3.16h2.98v-3.16Z" opacity=".78"/><path d="M535.303 517.328h-.42v.44h.42v-.44Z" opacity=".87"/><path d="M548.982 517.328h-.42v.44h.42v-.44Z" opacity=".61"/><path d="M562.904 517.078h-.9v.95h.9v-.95Z" opacity=".84"/><path d="M577.703 515.889h-3.141v3.32h3.141v-3.32Zm26.648.759h-1.71v1.81h1.71v-1.81Z" opacity=".74"/></g><mask id="d" width="89" height="131" x="422" y="193" maskUnits="userSpaceOnUse" style="mask-type:luminance"><path fill="#fff" d="M497.53 285.181c-16.9 32.64-44.53 47.13-61.7 32.37-17.17-14.76-17.38-53.18-.48-85.81s44.53-47.13 61.7-32.37c17.17 14.76 17.38 53.18.48 85.81Z"/></mask><g fill="#1F375B" mask="url(#d)"><path d="M425.751 192.289h-1.47v2h1.47v-2Z" opacity=".79"/><path d="M434.64 192.84h-.66v.89h.66v-.89Z" opacity=".87"/><path d="M444.89 191.539h-2.57v3.51h2.57v-3.51Z" opacity=".86"/><path d="M453.47 192.52h-1.13v1.54h1.13v-1.54Z" opacity=".84"/><path d="M473.01 191.24H470v4.1h3.01v-4.1Z" opacity=".5"/><path d="M481.831 191.91h-2.03v2.76h2.03v-2.76Z" opacity=".9"/><path d="M490.968 192.129h-1.71v2.33h1.71v-2.33Zm18.36.31h-1.25v1.7h1.25v-1.7Z" opacity=".74"/><path d="M435.14 204.83h-1.66v2.26h1.66v-2.26Z" opacity=".89"/><path d="M445.228 203.76h-3.24v4.41h3.24v-4.41Z" opacity=".92"/><path d="M453.558 205.08h-1.3v1.77h1.3v-1.77Z" opacity=".86"/><path d="M462.558 205.48h-.71v.97h.71v-.97Z" opacity=".89"/><path d="M471.789 205.57h-.57v.78h.57v-.78Z" opacity=".77"/><path d="M481.29 205.32h-.95v1.29h.95v-1.29Z" opacity=".61"/><path d="M491.04 204.689h-1.86v2.54h1.86v-2.54Z" opacity=".78"/><path d="M499.818 205.41h-.81v1.1h.81v-1.1Z" opacity=".51"/><path d="M510.439 203.6h-3.47v4.73h3.47v-4.73Z" opacity=".59"/><path d="M426.36 216.801h-2.7v3.68h2.7v-3.68Zm9.061.318h-2.23v3.04h2.23v-3.04Z" opacity=".9"/><path d="M445.138 216.561h-3.06v4.16h3.06v-4.16Z" opacity=".77"/><path d="M462.848 217.779h-1.27v1.73h1.27v-1.73Z" opacity=".82"/><path d="M471.729 218.34h-.44v.6h.44v-.6Z" opacity=".74"/><path d="M481.208 218.09h-.81v1.11h.81v-1.11Z" opacity=".6"/><path d="M490.618 217.949h-1.02v1.38h1.02v-1.38Z" opacity=".86"/><path d="M499.601 218.369h-.39v.53h.39v-.53Z" opacity=".93"/><path d="M509.719 217.26h-2.02v2.75h2.02v-2.75Z" opacity=".62"/><path d="M425.33 230.869h-.65v.89h.65v-.89Zm9.261.061h-.56v.77h.56v-.77Z" opacity=".77"/><path d="M445.298 229.01h-3.38v4.61h3.38v-4.61Z" opacity=".51"/><path d="M454.949 228.52h-4.09v5.58h4.09v-5.58Z" opacity=".64"/><path d="M463.16 230.029h-1.89v2.57h1.89v-2.57Z" opacity=".84"/><path d="M471.868 230.82h-.72v.99h.72v-.99Z" opacity=".7"/><path d="M481.45 230.43h-1.29v1.76h1.29v-1.76Z" opacity=".58"/><path d="M490.458 230.84h-.7v.95h.7v-.95Z" opacity=".5"/><path d="M499.771 230.82h-.72v.99h.72v-.99Z" opacity=".75"/><path d="M509.18 230.68h-.93v1.26h.93v-1.26Z" opacity=".54"/><path d="M425.709 243.029h-1.4v1.91h1.4v-1.91Z" opacity=".89"/><path d="M435.028 243h-1.45v1.97h1.45V243Z" opacity=".52"/><path d="M453.76 242.84h-1.69v2.3h1.69v-2.3Z" opacity=".86"/><path d="M463.199 242.641h-1.98v2.7h1.98v-2.7Z" opacity=".89"/><path d="M472.52 242.609h-2.02v2.75h2.02v-2.75Z" opacity=".9"/><path d="M481.151 243.52h-.69v.95h.69v-.95Z" opacity=".72"/><path d="M491.269 242.4h-2.32v3.17h2.32v-3.17Z" opacity=".87"/><path d="M499.619 243.699h-.42v.57h.42v-.57Z" opacity=".56"/><path d="M510.129 242.061h-2.84v3.87h2.84v-3.87Z" opacity=".75"/><path d="M425.778 255.609h-1.54v2.1h1.54v-2.1Z" opacity=".81"/><path d="M434.989 255.74h-1.36v1.85h1.36v-1.85Z" opacity=".94"/><path d="M443.829 256.359h-.45v.61h.45v-.61Z" opacity=".83"/><path d="M454.031 255.129h-2.25v3.07h2.25v-3.07Z" opacity=".66"/><path d="M463.078 255.471h-1.75v2.38h1.75v-2.38Z" opacity=".64"/><path d="M472.67 255.07h-2.33v3.18h2.33v-3.18Z" opacity=".93"/><path d="M491.068 255.35h-1.92v2.62h1.92v-2.62Z" opacity=".89"/><path d="M501.25 254.15h-3.68v5.02h3.68v-5.02Z" opacity=".78"/><path d="M509.008 256.24h-.61v.84h.61v-.84Z" opacity=".92"/><path d="M427.469 265.99h-4.91v6.69h4.91v-6.69Z" opacity=".7"/><path d="M436.009 267.02h-3.4v4.64h3.4v-4.64Z" opacity=".73"/><path d="M444.45 268.189h-1.68v2.29h1.68v-2.29Z" opacity=".5"/><path d="M453.191 268.949h-.57v.78h.57v-.78Z" opacity=".78"/><path d="M462.95 268.34h-1.47v2h1.47v-2Z" opacity=".91"/><path d="M472.319 268.23h-1.62v2.21h1.62v-2.21Z" opacity=".62"/><path d="M481.341 268.609h-1.06v1.45h1.06v-1.45Z" opacity=".73"/><path d="M491.13 267.949h-2.04v2.77h2.04v-2.77Z" opacity=".69"/><path d="M500.869 267.35h-2.92v3.98h2.92v-3.98Z" opacity=".83"/><path d="M509.041 268.879h-.67v.92h.67v-.92Z" opacity=".72"/><path d="M426.09 280.539h-2.16v2.94h2.16v-2.94Z" opacity=".7"/><path d="M435.208 280.779h-1.81v2.47h1.81v-2.47Z" opacity=".92"/><path d="M444.659 280.58h-2.1v2.86h2.1v-2.86Z" opacity=".71"/><path d="M453.06 281.801h-.31v.42h.31v-.42Z" opacity=".62"/><path d="M472.93 280.08h-2.84v3.87h2.84v-3.87Z" opacity=".71"/><path d="M481.059 281.67h-.5v.68h.5v-.68Z" opacity=".7"/><path d="M490.759 281.119h-1.31v1.79h1.31v-1.79Z" opacity=".73"/><path d="M500.208 280.91h-1.61v2.2h1.61v-2.2Z" opacity=".88"/><path d="M510.969 278.93h-4.52v6.16h4.52v-6.16Z" opacity=".59"/><path d="M426.149 293.129h-2.29v3.12h2.29v-3.12Z" opacity=".54"/><path d="M435.431 293.16h-2.24v3.05h2.24v-3.05Z" opacity=".81"/><path d="M444.431 293.58h-1.63v2.22h1.63v-2.22Z" opacity=".91"/><path d="M453.568 293.779h-1.33v1.81h1.33v-1.81Z" opacity=".82"/><path d="M462.771 293.92h-1.13v1.54h1.13v-1.54Z" opacity=".92"/><path d="M471.959 294.07h-.9v1.23h.9v-1.23Z" opacity=".52"/><path d="M481.788 293.35h-1.96v2.68h1.96v-2.68Z" opacity=".55"/><path d="M500.171 293.641h-1.53v2.09h1.53v-2.09Z" opacity=".66"/><path d="M509.139 294.109h-.85v1.15h.85v-1.15Z" opacity=".91"/><path d="M425.118 307.209h-.22v.3h.22v-.3Z" opacity=".9"/><path d="M435.169 306.189h-1.72v2.35h1.72v-2.35Z" opacity=".68"/><path d="M444.808 305.721h-2.41v3.29h2.41v-3.29Z" opacity=".91"/><path d="M453.478 306.58h-1.15v1.57h1.15v-1.57Z" opacity=".87"/><path d="M481.749 306.09h-1.87v2.54h1.87v-2.54Z" opacity=".8"/><path d="M490.421 306.939h-.62v.84h.62v-.84Z" opacity=".85"/><path d="M500.759 305.52h-2.7v3.68h2.7v-3.68Z" opacity=".75"/><path d="M510.43 305.01h-3.45v4.7h3.45v-4.7Z" opacity=".55"/><path d="M426.74 317.67h-3.47v4.73h3.47v-4.73Z" opacity=".57"/><path d="M435.78 318.029h-2.94v4.01h2.94v-4.01Z" opacity=".61"/><path d="M444.628 318.65h-2.03v2.76h2.03v-2.76Z" opacity=".78"/><path d="M453.05 319.84h-.28v.39h.28v-.39Z" opacity=".87"/><path d="M462.35 319.84h-.28v.39h.28v-.39Z" opacity=".61"/><path d="M471.809 319.619h-.61v.83h.61v-.83Z" opacity=".84"/><path d="M481.878 318.58h-2.14v2.91h2.14v-2.91Zm18.11.66h-1.16v1.58h1.16v-1.58Z" opacity=".74"/></g></g><defs><clipPath id="a"><path fill="#fff" d="M0 0h1080v1080H0z"/></clipPath></defs></svg>