<svg xmlns="http://www.w3.org/2000/svg" width="25" height="25" fill="none"><path fill="#000" d="M12.543 7.378c0 .443-.002.876.046 1.23.051.383.177.82.54 1.184.363.363.8.49 1.184.541.354.048.787.045 1.23.045h5.291v6.292c0 2.946 0 4.419-.915 5.334s-2.389.916-5.335.916h-4.166c-2.946 0-4.42 0-5.335-.916-.915-.915-.915-2.388-.915-5.334V8.336c0-2.946 0-4.419.915-5.334s2.389-.916 5.335-.916h2.125v5.292ZM9.376 16.71a1 1 0 0 0 0 2h4.167a1 1 0 0 0 0-2H9.376Zm0-4.166a1 1 0 1 0 0 2h6.25a1 1 0 0 0 0-2h-6.25Zm5.167-10.453c.452.01.746.04 1.018.153.382.159.684.46 1.286 1.062l2.767 2.767c.602.602.903.904 1.062 1.286.112.272.144.566.153 1.018h-5.286c-.5 0-.774-.002-.964-.027l-.008-.002v-.007c-.026-.19-.028-.465-.028-.964V2.092Z"/></svg>