<svg xmlns="http://www.w3.org/2000/svg" width="103" height="103" fill="none"><path fill="#fff" fill-rule="evenodd" d="M74.61 48.196a19.806 19.806 0 1 0 0-39.612 19.806 19.806 0 0 0 0 39.612Zm0 46.22a19.806 19.806 0 1 0 0-39.612 19.806 19.806 0 0 0 0 39.613Zm-46.222 0a19.806 19.806 0 1 0 0-39.612 19.806 19.806 0 0 0 0 39.613Z" clip-rule="evenodd"/><path fill="#0F6FFF" d="M28.388 48.196c10.939 0 19.806-8.868 19.806-19.807 0-10.938-8.867-19.806-19.806-19.806S8.582 17.451 8.582 28.39c0 10.939 8.867 19.807 19.806 19.807Z"/></svg>