<svg xmlns="http://www.w3.org/2000/svg" width="878" height="746"><path fill="#F6F6F6" d="M0 0h878v746H0V0Z"/><path d="m348.832 397.602 2.98 2.023c21.561 13.953 48.832 18.903 74.063 14.188 14.175-3.332 29.404-8.163 41.152-17.122 3.987-2.268 5.556-1.86 9.973-.691 3.769 1.256 7.445 2.694 11.125 4.188l3.276 1.322c94.14 38.722 94.14 38.722 110.76 75.674C606.167 487.02 607.92 497.63 610 508c.52 2.48 1.041 4.961 1.563 7.441 2.776 13.485 5.068 26.969 6.812 40.621l.508 3.905C621.92 585.155 621.92 585.155 616 593l-1.402 1.86C596.625 615.424 547.01 614.778 522 617l-2.646.236C435.312 624.668 346.709 625.494 263 614l-3.542-.472a344.39 344.39 0 0 1-34.396-6.466l-2.925-.692c-9.313-2.369-18.898-5.724-24.285-14.17-3.15-5.395-4.046-8.9-4.04-15.075l.003-2.334c.057-5.385.598-10.475 1.626-15.768.613-3.313.997-6.612 1.371-9.96 9.218-76.758 9.218-76.758 34.234-96.693 30.208-22.971 65.862-41.936 101.454-55.058l2.05-.777c5.537-1.938 9.174-1.822 14.282 1.067Z"/><path d="M468 161c28.142 20.363 44.048 49.683 49.574 83.677 5.039 39.348-6.763 79.89-30.574 111.323-3.436 4.23-7.168 8.126-11 12l-1.973 2.156c-16.146 17.278-40.087 28.103-63.62 29.082-28.374.648-51.61-11.056-71.991-30.358-19.901-19.502-33.16-45.865-39.416-72.88l-.902-3.805c-4.015-18.894-4.345-40.559.902-59.195l.844-3.656c6.881-28.712 24.826-55.457 50.144-71.059C362.344 151.065 375 146.708 389 144l2.386-.53c26.208-4.708 54.73 2.96 76.614 17.53Z"/></svg>