<svg xmlns="http://www.w3.org/2000/svg" width="34" height="35" fill="none"><path fill="#fff" d="M31.773 14.328a8.788 8.788 0 0 0-.743-7.164c-1.885-3.325-5.665-5.031-9.349-4.233a8.557 8.557 0 0 0-6.483-2.93c-3.77 0-7.12 2.46-8.283 6.102a8.598 8.598 0 0 0-5.74 4.233C-.722 13.65-.292 17.828 2.24 20.672a8.788 8.788 0 0 0 .744 7.164c1.885 3.325 5.665 5.03 9.349 4.233a8.498 8.498 0 0 0 6.473 2.93c3.78 0 7.13-2.46 8.282-6.113a8.598 8.598 0 0 0 5.741-4.233 8.937 8.937 0 0 0-1.066-10.336l.01.011ZM18.817 32.714a6.402 6.402 0 0 1-4.136-1.52c.053-.033.14-.077.204-.12l6.861-4.026c.356-.208.57-.58.56-.995V16.23l2.897 1.706a.082.082 0 0 1 .054.077v8.137c0 3.62-2.886 6.552-6.451 6.563h.01ZM4.933 26.698a6.648 6.648 0 0 1-.775-4.397c.054.033.14.088.204.12l6.861 4.026c.345.207.776.207 1.131 0l8.38-4.911v3.401a.1.1 0 0 1-.043.088l-6.937 4.069c-3.09 1.804-7.033.732-8.82-2.396ZM3.134 11.484a6.414 6.414 0 0 1 3.36-2.876v8.29c0 .405.216.788.561.996l8.38 4.91-2.898 1.707a.08.08 0 0 1-.097 0l-6.936-4.069c-3.08-1.816-4.147-5.819-2.37-8.958Zm23.825 5.633-8.38-4.91 2.898-1.696a.08.08 0 0 1 .097 0l6.936 4.069c3.091 1.815 4.147 5.83 2.359 8.957a6.51 6.51 0 0 1-3.36 2.877v-8.29a1.17 1.17 0 0 0-.56-.996l.01-.01Zm2.887-4.419c-.054-.032-.14-.087-.205-.12l-6.86-4.025a1.104 1.104 0 0 0-1.132 0l-8.38 4.911v-3.402a.1.1 0 0 1 .044-.087l6.936-4.069c3.091-1.804 7.044-.733 8.821 2.406a6.612 6.612 0 0 1 .765 4.386h.01Zm-18.149 6.06L8.8 17.05a.082.082 0 0 1-.054-.076V8.837c0-3.62 2.897-6.562 6.462-6.551 1.508 0 2.973.536 4.126 1.52-.054.033-.14.077-.205.12l-6.861 4.026a1.1 1.1 0 0 0-.56.995v9.822l-.01-.011Zm1.573-3.446 3.737-2.187 3.737 2.187v4.375l-3.726 2.188-3.738-2.188v-4.375h-.01Z"/></svg>