<svg xmlns="http://www.w3.org/2000/svg" width="22" height="21" fill="none"><path fill="#000" d="M19.409 7.639a3.528 3.528 0 1 1-7.056 0 3.528 3.528 0 0 1 7.056 0Zm-3.563 4.681c-3.384 0-6.159 2.773-6.159 6.159 0 1.152.937 2.124 2.125 2.124h8.065a2.128 2.128 0 0 0 2.124-2.124c.003-3.386-2.77-6.159-6.155-6.159ZM9.652 3.53a3.529 3.529 0 1 1-7.057 0 3.529 3.529 0 0 1 7.057 0ZM8.534 16.527l.072-.611a4.724 4.724 0 0 1 2.557-3.565l.684-.323-.397-.649a6.142 6.142 0 0 0-5.33-3.097C2.772 8.245 0 10.98 0 14.402c0 1.152.937 2.124 2.124 2.124l6.41.002Z"/></svg>