<svg xmlns="http://www.w3.org/2000/svg" width="240" height="245" fill="none"><path fill="#fff" d="M120 0c-3.573 0-7.177.913-10.436 2.772L6.111 61.134C2.851 62.992 0 66.299 0 70.52c0 4.22 2.852 7.527 6.111 9.354l27.11 15.307 76.343 43.087c6.519 3.685 14.322 3.685 20.872 0l76.344-43.087 27.109-15.307c3.259-1.858 6.111-5.165 6.111-9.354 0-4.19-2.852-7.528-6.111-9.386L130.436 2.772A21.059 21.059 0 0 0 120 0ZM23.693 103.213 6.11 113.134C2.851 114.992 0 118.299 0 122.52c0 4.22 2.852 7.527 6.111 9.354l27.11 15.307 76.343 43.087c6.519 3.685 14.322 3.685 20.872 0l76.344-43.087 27.109-15.307c3.259-1.858 6.111-5.165 6.111-9.354 0-4.189-2.852-7.528-6.111-9.386l-17.582-9.921-3.855 2.173-76.343 43.086c-11.189 6.331-21.029 6.331-32.218 0l-76.343-43.086-3.855-2.173Zm0 51.968L6.11 165.102C2.851 166.961 0 170.268 0 174.488c0 4.221 2.852 7.528 6.111 9.355l27.11 15.307 76.343 43.086c6.519 3.685 14.322 3.685 20.872 0l76.344-43.086 27.109-15.307c3.259-1.859 6.111-5.166 6.111-9.355s-2.852-7.527-6.111-9.386l-17.582-9.921-3.855 2.173-76.343 43.087c-11.189 6.331-21.029 6.331-32.218 0l-76.343-43.087-3.855-2.173Z"/></svg>