<svg xmlns="http://www.w3.org/2000/svg" width="1080" height="1080" fill="none"><g clip-path="url(#a)"><path fill="#fff" d="M811.66 426.54c-.25-8.93-2.31-11.49-11.04-14.22-15.58-4.88-29.839-12.23-43.089-21.75-32.4-23.27-54.021-54.19-64.541-92.5-3.18-11.56-9.61-17.359-20.68-20.679-34.43-10.32-69.469-17.361-105.229-20.561-45.07-4.04-89.961-2.22-134.541 5.62-23.11 4.07-45.92 9.4-68.2 16.91-7.23 2.44-11.82 6.75-13.67 14.33-1.42 5.83-3.46 11.54-5.6 17.16-18.93 49.78-53.09 84.11-103.73 101.33-7.08 2.41-10.33 6.3-10.79 13.58-.99 15.85-.76 31.7-.82 52.65 1.51 39.92 4.92 84.79 11.59 129.34 7.29 48.67 24.02 93.82 52.47 134.26 34.62 49.21 78.08 88.941 129.49 120.071 29.38 17.79 61.221 30.52 92.361 44.69 4.48 2.04 8.499 1.069 12.739-.861 17.3-7.88 34.781-15.37 52.011-23.41 55.1-25.72 102.289-61.949 142.369-107.599 39.82-45.36 65.891-97.32 76.261-157 4.62-26.58 7-53.391 9.63-80.2 3.63-37.01 4.049-74.061 3.019-111.161h-.01ZM680.271 302.86c17.6 57.06 53.819 97.24 110.43 119.5-8.7 7.62-17.941 12.93-26.601 19.01-3.01 2.11-5.43-.2-7.75-1.68-9.64-6.14-18.77-12.99-27.55-20.29-28.83-23.98-50.17-53.47-64.76-87.99-2.22-5.26-2.26-9.239 2.06-13.489 4.27-4.2 7.8-9.16 11.7-13.75.37-.44 1.09-.591 2.49-1.311h-.019Zm-7.211-12.35c-6.28 7.41-11.56 13.58-16.77 19.8-2.44 2.91-5.049 1.501-7.759.611-19.3-6.3-39.071-10.711-58.971-14.611-50.83-9.96-101.42-8.39-151.82 2.97-14.83 3.34-29.71 6.57-44.04 11.71-4.33 1.55-7.02.83-9.77-2.71-4.4-5.67-9.2-11.04-14.86-17.77 101.91-29.55 202.07-29.55 304 0h-.01Zm-310.95 11.12c6.29 7.46 11.48 13.62 16.68 19.78 2.26 2.68 1 5.34-.04 8-4.04 10.33-8.98 20.22-14.53 29.83-19.1 33.03-45.58 58.87-77.21 79.79-4.45 2.94-8.01 3.77-12.67.1-7.14-5.62-14.86-10.52-23.44-16.5 56.71-22.48 93.24-62.28 111.21-121.01v.01ZM515.72 890.5c-2.4 0-3.099.19-3.629-.03-50.64-20.81-99.121-45.269-140.481-82.019-26.41-23.47-50.38-49.051-70.13-78.471-25.37-37.78-40.57-79.469-46.99-124.269-7.69-53.69-12.17-107.671-11.98-161.971.01-3.11-.51-6.29.72-9.52 3.7-.81 5.63 2.291 8.08 3.921 6.06 4.04 11.6 8.989 17.97 12.419 5.17 2.78 6.24 6.23 5.57 11.44-2.47 19.24-2.29 38.61-1.77 57.92 1.41 52.14 11.15 102.69 32.37 150.46 18.19 40.93 46.85 74.25 79.89 104.06 33.93 30.61 73.701 51.241 115.551 68.391 14.54 5.95 14.61 5.899 14.82 21.429.11 8.53.019 17.05.019 26.25l-.01-.01Zm-12.75-61.049c-43.13-17.73-83.51-39.851-117.37-72.631-31.3-30.3-58.31-63.58-73.72-104.97-15.39-41.33-23.93-84.059-25.37-128.149-.7-21.25-.34-42.481 1.62-63.691.52-5.61 2.37-9.09 7.18-12.11 34.19-21.45 61.97-49.19 81.8-84.59 6.06-10.81 11.63-21.87 15.52-33.62 1.58-4.76 3.86-7.31 8.76-8.63 30.98-8.36 62.36-14.26 94.37-16.94 49.08-4.11 96.621 4.39 143.761 16.7 4.4 1.15 7.72 2.48 9.62 7.68 18.23 50.01 50.189 89.22 95.119 117.54 7.24 4.56 9.76 9.91 10.11 17.54.63 13.94 1.35 27.88 1.8 36.95-.22 56.09-8.48 105.87-26.92 153.77-16.1 41.82-43.94 75.26-76.07 105.61-33.05 31.21-72.259 52.26-113.839 69.45-12.18 5.034-24.307 5.064-36.381.091h.01ZM795.86 531.04c-2.05 24.94-4.64 49.83-8.2 74.63-9.96 69.42-41.52 127.64-90.22 177.32-35.88 36.61-76.68 66.221-123.19 87.851-12.93 6.01-25.99 11.73-39.03 17.49-1.93.85-3.81 2.489-6.85 1.159 0-12.63-.02-25.53.01-38.44 0-3.77 3.22-4.35 5.78-5.36 13.87-5.45 27.4-11.64 40.88-17.97 66.02-30.99 117.1-78.269 153.68-141.199 13.49-23.2 21.14-48.751 27.7-74.601 12.53-49.35 15.58-99.43 10.96-150.02-.5-5.46.62-8.44 5.47-11.36 8.62-5.19 16.611-11.43 24.671-17.1 3.26 2.24 2.249 5.03 2.269 7.37.32 30.14-1.479 60.21-3.949 90.23h.019Z"/><mask id="b" width="481" height="546" x="280" y="298" maskUnits="userSpaceOnUse" style="mask-type:luminance"><path fill="#fff" d="M394.59 321.29s108.74-50.39 258.57-2.4c0 0 55.891 115.65 97.921 131.85 0 0 82.129 267.1-231.421 392.7 0 0-108.56-38.99-178.2-133.03-48.34-65.27-69.829-167.53-56.889-258.24 0 0 67.81-22.61 110.03-130.88h-.011Z"/></mask><g fill="#fff" mask="url(#b)"><path d="M300.401 305.148h-2.26v2.39h2.26v-2.39Z" opacity=".53"/><path d="M326.838 306.119h-.42v.44h.42v-.44Z" opacity=".75"/><path d="M341.53 305.049h-2.44v2.58h2.44v-2.58Z" opacity=".83"/><path d="M355.84 304.398h-3.68v3.89h3.68v-3.89Z" opacity=".55"/><path d="M367.879 306.129h-.41v.43h.41v-.43Z" opacity=".94"/><path d="M384.21 303.318h-5.71v6.05h5.71v-6.05Zm11.979 1.801h-2.31v2.45h2.31v-2.45Z" opacity=".93"/><path d="M410.358 304.609h-3.28v3.47h3.28v-3.47Z" opacity=".51"/><path d="M424.058 304.59h-3.32v3.52h3.32v-3.52Z" opacity=".79"/><path d="M437.179 305.17h-2.21v2.34h2.21v-2.34Z" opacity=".91"/><path d="M464.198 305.539h-1.51v1.6h1.51v-1.6Z" opacity=".94"/><path d="M477.441 306h-.64v.68h.64V306Z" opacity=".55"/><path d="M491.321 305.809h-1.02v1.08h1.02v-1.08Z" opacity=".6"/><path d="M505.74 305.02h-2.51v2.65h2.51v-2.65Z" opacity=".64"/><path d="M518.721 305.76h-1.1v1.16h1.1v-1.16Z" opacity=".76"/><path d="M559.68 305.85h-.93v.98h.93v-.98Z" opacity=".91"/><path d="M573.688 305.51h-1.59v1.68h1.59v-1.68Z" opacity=".94"/><path d="M586.948 305.939h-.76v.81h.76v-.81Z" opacity=".93"/><path d="M602.26 304.219h-4.01v4.25h4.01v-4.25Z" opacity=".5"/><path d="M614.278 305.988h-.68v.72h.68v-.72Z" opacity=".66"/><path d="M628.369 305.549h-1.51v1.6h1.51v-1.6Z" opacity=".5"/><path d="M655.888 305.389h-1.81v1.91h1.81v-1.91Z" opacity=".65"/><path d="M669.361 305.6h-1.4v1.48h1.4v-1.48Z" opacity=".76"/><path d="M682.59 306.08h-.5v.53h.5v-.53Z" opacity=".7"/><path d="M696.421 305.92h-.8v.84h.8v-.84Z" opacity=".84"/><path d="M711.24 304.709h-3.08v3.26h3.08v-3.26Z" opacity=".92"/><path d="M724.381 305.289h-1.99v2.1h1.99v-2.1Z" opacity=".77"/><path d="M738.421 304.908h-2.71v2.87h2.71v-2.87Z" opacity=".78"/><path d="M751.229 305.84h-.959v1.01h.959v-1.01Z" opacity=".82"/><path d="M286.289 320.068h-1.41v1.49h1.41v-1.49Z" opacity=".76"/><path d="M301.548 318.408h-4.56v4.82h4.56v-4.82Z" opacity=".87"/><path d="M313.431 320.299h-.97v1.03h.97v-1.03Z" opacity=".7"/><path d="M327.188 320.229h-1.11v1.169h1.11v-1.169Z" opacity=".86"/><path d="M342.028 319h-3.43v3.63h3.43V319Z" opacity=".76"/><path d="M369.95 318.42h-4.54v4.8h4.54v-4.8Z" opacity=".89"/><path d="M382.228 319.898h-1.74v1.84h1.74v-1.84Z" opacity=".58"/><path d="M395.49 320.34h-.9v.95h.9v-.95Z" opacity=".57"/><path d="M409.649 319.83h-1.86v1.97h1.86v-1.97Z" opacity=".69"/><path d="M422.671 320.529h-.55v.58h.55v-.58Z" opacity=".63"/><path d="M436.711 320.158h-1.25v1.32h1.25v-1.32Z" opacity=".76"/><path d="M451.151 319.35h-2.78v2.95h2.78v-2.95Z" opacity=".69"/><path d="M478.449 319.42h-2.64v2.79h2.64v-2.79Z" opacity=".76"/><path d="M491.678 319.889h-1.76v1.86h1.76v-1.86Z" opacity=".93"/><path d="M505.761 319.469h-2.55v2.7h2.55v-2.7Z" opacity=".73"/><path d="M520.609 318.229h-4.89v5.169h4.89v-5.169Z" opacity=".66"/><path d="M532.161 320.479h-.63v.669h.63v-.669Z" opacity=".71"/><path d="M546.23 320.068h-1.41v1.49h1.41v-1.49Z" opacity=".75"/><path d="M560.159 319.818h-1.889v1.99h1.889v-1.99Z" opacity=".59"/><path d="M587.64 319.68h-2.14v2.27h2.14v-2.27Z" opacity=".73"/><path d="M656.798 318.889h-3.65v3.86h3.65v-3.86Z" opacity=".87"/><path d="M670.029 319.369h-2.74v2.9h2.74v-2.9Z" opacity=".78"/><path d="M682.969 320.158h-1.25v1.32h1.25v-1.32Z" opacity=".87"/><path d="M697.439 319.318h-2.83v2.99h2.83v-2.99Z" opacity=".78"/><path d="M723.879 320.289h-1v1.06h1v-1.06Z" opacity=".5"/><path d="M737.57 320.289h-1v1.06h1v-1.06Z" opacity=".88"/><path d="M751.871 319.629h-2.25v2.38h2.25v-2.38Z" opacity=".67"/><path d="M287.561 333.209h-3.94v4.17h3.94v-4.17Z" opacity=".58"/><path d="M301.02 333.439h-3.5v3.7h3.5v-3.7Z" opacity=".67"/><path d="M329.438 332.33h-5.61v5.93h5.61v-5.93Z" opacity=".83"/><path d="M342.249 333.229h-3.89v4.12h3.89v-4.12Z" opacity=".53"/><path d="M355.728 333.449h-3.47v3.68h3.47v-3.68Z" opacity=".88"/><path d="M370.301 332.52h-5.25v5.55h5.25v-5.55Z" opacity=".67"/><path d="M395.449 334.859h-.82v.87h.82v-.87Z" opacity=".62"/><path d="M438.011 333.238h-3.87v4.1h3.87v-4.1Z" opacity=".55"/><path d="M451.59 333.359h-3.66v3.87h3.66v-3.87Z" opacity=".74"/><path d="M464.16 334.539h-1.43v1.51h1.43v-1.51Z" opacity=".85"/><path d="M478.408 333.93h-2.58v2.73h2.58v-2.73Z" opacity=".72"/><path d="M505.777 333.92h-2.589v2.74h2.589v-2.74Z" opacity=".63"/><path d="M533.981 333.029h-4.27v4.52h4.27v-4.52Z" opacity=".58"/><path d="M546.37 334.398h-1.69v1.79h1.69v-1.79Z" opacity=".86"/><path d="M573.61 334.539h-1.43v1.51h1.43v-1.51Z" opacity=".94"/><path d="M589.06 332.658h-4.97v5.26h4.97v-5.26Z" opacity=".81"/><path d="M600.631 334.889h-.76v.81h.76v-.81Z" opacity=".75"/><path d="M617.141 331.898h-6.411v6.79h6.411v-6.79Z" opacity=".94"/><path d="M628.228 334.648h-1.22v1.29h1.22v-1.29Z" opacity=".56"/><path d="M641.811 334.75h-1.03v1.09h1.03v-1.09Z" opacity=".67"/><path d="M655.651 334.58h-1.35v1.43h1.35v-1.43Z" opacity=".56"/><path d="M669.589 334.299h-1.87v1.98h1.87v-1.98Z" opacity=".68"/><path d="M683.19 334.389h-1.71v1.81h1.71v-1.81Z" opacity=".67"/><path d="M696.589 334.689h-1.14v1.21h1.14v-1.21Z" opacity=".72"/><path d="M711.908 332.959h-4.42v4.67h4.42v-4.67Z" opacity=".89"/><path d="M724.309 334.309h-1.86v1.97h1.86v-1.97Z" opacity=".84"/><path d="M739.7 332.5h-5.27v5.58h5.27v-5.58Z" opacity=".66"/><path d="M285.791 349.549h-.4v.42h.4v-.42Z" opacity=".92"/><path d="M300.198 348.779h-1.87v1.98h1.87v-1.98Z" opacity=".62"/><path d="M328.09 348.229h-2.91v3.08h2.91v-3.08Z" opacity=".77"/><path d="M341.388 348.629h-2.15v2.27h2.15v-2.27Z" opacity=".69"/><path d="M355.451 348.219h-2.92v3.09h2.92v-3.09Z" opacity=".77"/><path d="M369.108 348.25h-2.87v3.04h2.87v-3.04Z" opacity=".85"/><path d="M382.071 349.01h-1.43v1.52h1.43v-1.52Z" opacity=".69"/><path d="M395.711 349.059h-1.34v1.41h1.34v-1.41Z" opacity=".65"/><path d="M411.188 347.148h-4.95v5.24h4.95v-5.24Z" opacity=".8"/><path d="M423.138 348.979h-1.49v1.58h1.49v-1.58Z" opacity=".63"/><path d="M450.418 349.068h-1.32v1.4h1.32v-1.4Z" opacity=".93"/><path d="M464.659 348.479h-2.44v2.58h2.44v-2.58Z" opacity=".75"/><path d="M478.211 348.609h-2.18v2.31h2.18v-2.31Z" opacity=".56"/><path d="M506.419 347.719h-3.86v4.08h3.86v-4.08Z" opacity=".81"/><path d="M532.708 348.859h-1.72v1.82h1.72v-1.82Z" opacity=".67"/><path d="M547.458 347.719h-3.86v4.08h3.86v-4.08Z" opacity=".57"/><path d="M560.42 348.488H558v2.56h2.42v-2.56Z" opacity=".6"/><path d="M573.319 349.299h-.87v.92h.87v-.92Z" opacity=".65"/><path d="M588.851 347.359h-4.55v4.81h4.55v-4.81Z" opacity=".59"/><path d="M601.149 348.818h-1.79v1.89h1.79v-1.89Zm14.369-.728h-3.17v3.35h3.17v-3.35Z" opacity=".93"/><path d="M628.111 349.238h-.99v1.05h.99v-1.05Z" opacity=".84"/><path d="M644.129 346.76h-5.68v6.01h5.68v-6.01Z" opacity=".79"/><path d="M657.27 347.34h-4.59v4.85h4.59v-4.85Z" opacity=".78"/><path d="M670.599 347.709h-3.88v4.1h3.88v-4.1Z" opacity=".6"/><path d="M682.75 349.33h-.82v.86h.82v-.86Zm14.528-.9h-2.52v2.67h2.52v-2.67Z" opacity=".89"/><path d="M710.381 349.049h-1.35v1.43h1.35v-1.43Z" opacity=".53"/><path d="M724.141 348.969h-1.5v1.58h1.5v-1.58Z" opacity=".72"/><path d="M738.208 348.549h-2.29v2.42h2.29v-2.42Z" opacity=".86"/><path d="M752.299 348.129h-3.1v3.28h3.1v-3.28Z" opacity=".79"/><path d="M286.487 363.289h-1.799v1.91h1.799v-1.91Z" opacity=".55"/><path d="M300.829 362.59h-3.13v3.31h3.13v-3.31Z" opacity=".79"/><path d="M313.99 363.139h-2.08v2.2h2.08v-2.2Z" opacity=".63"/><path d="M328.17 362.609h-3.08v3.26h3.08v-3.26Z" opacity=".72"/><path d="M341.519 362.969h-2.41v2.55h2.41v-2.55Z" opacity=".85"/><path d="M382.017 363.539h-1.329v1.41h1.329v-1.41Z" opacity=".81"/><path d="M396.359 362.84h-2.64v2.79h2.64v-2.79Z" opacity=".91"/><path d="M410.03 362.859h-2.62v2.77h2.62v-2.77Z" opacity=".89"/><path d="M423.107 363.488h-1.419v1.5h1.419v-1.5Z" opacity=".77"/><path d="M436.941 363.318h-1.73v1.83h1.73v-1.83Z" opacity=".64"/><path d="M450.608 363.34h-1.69v1.79h1.69v-1.79Z" opacity=".5"/><path d="M464.751 362.859h-2.61v2.76h2.61v-2.76Z" opacity=".81"/><path d="M477.928 363.398h-1.6v1.69h1.6v-1.69Z" opacity=".76"/><path d="M491.229 363.789h-.85v.9h.85v-.9Z" opacity=".8"/><path d="M508.027 360.488h-7.089v7.5h7.089v-7.5Z" opacity=".87"/><path d="M519.631 362.699h-2.92v3.09h2.92v-3.09Z" opacity=".62"/><path d="M532.69 363.34H531v1.79h1.69v-1.79Z" opacity=".54"/><path d="M546.679 363.02h-2.3v2.44h2.3v-2.44Z" opacity=".51"/><path d="M573.85 363.219h-1.92v2.04h1.92v-2.04Z" opacity=".87"/><path d="M588.091 362.629h-3.04v3.22h3.04v-3.22Z" opacity=".6"/><path d="M601.67 362.738h-2.83v2.99h2.83v-2.99Z" opacity=".82"/><path d="M614.2 363.949h-.54v.57h.54v-.57Z" opacity=".62"/><path d="M628.031 363.809h-.82v.86h.82v-.86Z" opacity=".85"/><path d="M642.28 363.199h-1.96v2.08h1.96v-2.08Z" opacity=".68"/><path d="M655.431 363.76h-.9v.95h.9v-.95Z" opacity=".69"/><path d="M669.248 363.619h-1.17v1.23h1.17v-1.23Z" opacity=".77"/><path d="M683.639 362.869h-2.6v2.75h2.6v-2.75Z" opacity=".88"/><path d="M698.368 361.75h-4.7v4.97h4.7v-4.97Z" opacity=".6"/><path d="M711.951 361.869h-4.49v4.75h4.49v-4.75Z" opacity=".89"/><path d="M724.188 363.389h-1.61v1.7h1.61v-1.7Z" opacity=".83"/><path d="M739.108 362.068h-4.1v4.34h4.1v-4.34Z" opacity=".61"/><path d="M751.419 363.52h-1.36v1.44h1.36v-1.44Z" opacity=".63"/><path d="M315.33 376.199h-4.76v5.04h4.76v-5.04Z" opacity=".78"/><path d="M326.951 378.369h-.65v.69h.65v-.69Z" opacity=".61"/><path d="M357.101 375.43h-6.21V382h6.21v-6.57Z" opacity=".92"/><path d="M369.647 376.619h-3.959v4.19h3.959v-4.19Z" opacity=".71"/><path d="M382.669 377.318h-2.63v2.79h2.63v-2.79Z" opacity=".54"/><path d="M396.17 377.52h-2.26v2.39h2.26v-2.39Z" opacity=".82"/><path d="M410.608 376.709h-3.78v4h3.78v-4Z" opacity=".66"/><path d="M425.079 375.879h-5.36v5.67h5.36v-5.67Z" opacity=".78"/><path d="M438.541 376.109h-4.92v5.2h4.92v-5.2Z" opacity=".83"/><path d="M450.077 378.369h-.639v.68h.639v-.68Z" opacity=".87"/><path d="M464.751 377.33h-2.61v2.76h2.61v-2.76Z" opacity=".92"/><path d="M506.73 376.33h-4.5v4.76h4.5v-4.76Z" opacity=".61"/><path d="M518.82 378.01h-1.32v1.4h1.32v-1.4Z" opacity=".66"/><path d="M534.401 376.02h-5.1v5.39h5.1v-5.39Z" opacity=".77"/><path d="M547.251 376.889h-3.45v3.65h3.45v-3.65Z" opacity=".85"/><path d="M560.17 377.699h-1.92v2.04h1.92v-2.04Z" opacity=".64"/><path d="M587.949 377.26h-2.75v2.91h2.75v-2.91Z" opacity=".71"/><path d="M601.971 376.889h-3.44v3.64h3.44v-3.64Z" opacity=".9"/><path d="M614.751 377.85h-1.63v1.72h1.63v-1.72Z" opacity=".75"/><path d="M628.588 377.689h-1.94v2.05h1.94v-2.05Z" opacity=".94"/><path d="M641.838 378.139h-1.08v1.14h1.08v-1.14Z" opacity=".62"/><path d="M657.378 376.18h-4.8v5.08h4.8v-5.08Z" opacity=".61"/><path d="M682.5 378.549h-.32v.34h.32v-.34Z" opacity=".78"/><path d="M710.558 377.809h-1.71v1.81h1.71v-1.81Z" opacity=".62"/><path d="M725.659 376.309h-4.55v4.81h4.55v-4.81Z" opacity=".9"/><path d="M738.999 376.658h-3.87v4.1h3.87v-4.1Z" opacity=".89"/><path d="M752.328 377.039h-3.16v3.34h3.16v-3.34Z" opacity=".53"/><path d="M287.219 391.459h-3.27v3.46h3.27v-3.46Z" opacity=".51"/><path d="M299.901 392.52h-1.26v1.33h1.26v-1.33Z" opacity=".66"/><path d="M313.829 392.25h-1.77v1.87h1.77v-1.87Z" opacity=".69"/><path d="M356.5 390.539h-5v5.29h5v-5.29Z" opacity=".57"/><path d="M368.6 392.209h-1.85v1.96h1.85v-1.96Z" opacity=".52"/><path d="M381.739 392.779h-.77v.82h.77v-.82Z" opacity=".66"/><path d="M396.629 391.51h-3.18v3.36h3.18v-3.36Z" opacity=".71"/><path d="M409.869 391.969h-2.31v2.44h2.31v-2.44Z" opacity=".89"/><path d="M422.86 392.689h-.93v.99h.93v-.99Z" opacity=".65"/><path d="M436.967 392.25h-1.779v1.88h1.779v-1.88Z" opacity=".87"/><path d="M450.68 392.219h-1.84v1.94h1.84v-1.94Z" opacity=".68"/><path d="M464.921 391.619h-2.96v3.14h2.96v-3.14Z" opacity=".73"/><path d="M477.93 392.34h-1.61v1.7h1.61v-1.7Z" opacity=".75"/><path d="M492.04 391.879h-2.47v2.61h2.47v-2.61Z" opacity=".85"/><path d="M505.318 392.299h-1.67v1.77h1.67v-1.77Z" opacity=".68"/><path d="M519.43 391.85h-2.52v2.67h2.52v-2.67Z" opacity=".9"/><path d="M561.278 391h-4.13v4.37h4.13V391Z" opacity=".77"/><path d="M573.378 392.67h-.98v1.04h.98v-1.04Z" opacity=".84"/><path d="M588.62 391.02h-4.1v4.34h4.1v-4.34Z" opacity=".72"/><path d="M600.809 392.6h-1.11v1.17h1.11v-1.17Z" opacity=".5"/><path d="M614.87 392.199H613v1.98h1.87v-1.98Z" opacity=".57"/><path d="M628.289 392.479h-1.34v1.41h1.34v-1.41Z" opacity=".9"/><path d="M642.398 392.02h-2.21v2.34h2.21v-2.34Z" opacity=".56"/><path d="M669.74 392.049h-2.15v2.27h2.15v-2.27Z" opacity=".9"/><path d="M684.369 391.039h-4.06v4.29h4.06v-4.29Z" opacity=".7"/><path d="M696.909 392.238h-1.78v1.89h1.78v-1.89Z" opacity=".76"/><path d="M712.59 390.139h-5.77v6.1h5.77v-6.1Z" opacity=".65"/><path d="M737.649 392.559h-1.18v1.25h1.18v-1.25Z" opacity=".55"/><path d="M752.361 391.479h-3.22v3.41h3.22v-3.41Z" opacity=".64"/><path d="M286.34 406.869h-1.5v1.59h1.5v-1.59Z" opacity=".81"/><path d="M300.741 406.109h-2.94v3.11h2.94v-3.11Z" opacity=".65"/><path d="M313.589 406.988h-1.28v1.35h1.28v-1.35Z" opacity=".61"/><path d="M327.57 406.658h-1.89v2h1.89v-2Z" opacity=".8"/><path d="M354.99 406.609H353v2.11h1.99v-2.11Z" opacity=".76"/><path d="M368.54 406.75h-1.72v1.82h1.72v-1.82Z" opacity=".75"/><path d="M381.649 407.35h-.59v.62h.59v-.62Z" opacity=".92"/><path d="M410.247 406.039h-3.059v3.24h3.059v-3.24Z" opacity=".58"/><path d="M423.448 406.549h-2.1v2.22h2.1v-2.22Z" opacity=".72"/><path d="M450.45 406.93h-1.38v1.46h1.38v-1.46Z" opacity=".91"/><path d="M463.888 407.189h-.9v.95h.9v-.95Z" opacity=".9"/><path d="M478.131 406.6h-2.01v2.13h2.01v-2.13Z" opacity=".84"/><path d="M491.258 407.18h-.91v.97h.91v-.97Z" opacity=".7"/><path d="M505.277 406.818h-1.589v1.68h1.589v-1.68Z" opacity=".81"/><path d="M519.539 406.209h-2.75v2.91h2.75v-2.91Z" opacity=".77"/><path d="M533.921 405.469h-4.14v4.38h4.14v-4.38Z" opacity=".72"/><path d="M546.88 406.229h-2.7v2.86h2.7v-2.86Z" opacity=".71"/><path d="M559.451 407.408h-.471v.49h.471v-.49Z" opacity=".72"/><path d="M574.391 406.08h-3v3.17h3v-3.17Z" opacity=".51"/><path d="M587.279 406.908h-1.42v1.51h1.42v-1.51Z" opacity=".67"/><path d="M601.178 406.68h-1.85v1.96h1.85v-1.96Z" opacity=".93"/><path d="M614.231 407.35h-.59v.62h.59v-.62Z" opacity=".57"/><path d="M630.128 405h-5.03v5.32h5.03V405Z" opacity=".78"/><path d="M657.769 404.719h-5.57v5.89h5.57v-5.89Z" opacity=".6"/><path d="M669.961 406.289h-2.59v2.74h2.59v-2.74Z" opacity=".53"/><path d="M684.311 405.58h-3.94v4.17h3.94v-4.17Z" opacity=".76"/><path d="M696.429 407.229h-.82v.87h.82v-.87Z" opacity=".51"/><path d="M711.351 405.92h-3.3v3.49h3.3v-3.49Z" opacity=".53"/><path d="M724.409 406.58h-2.05v2.17h2.05v-2.17Z" opacity=".84"/><path d="M738.741 405.889h-3.35v3.54h3.35v-3.54Z" opacity=".69"/><path d="M753.189 405.08h-4.88v5.16h4.88v-5.16Z" opacity=".71"/><path d="M288.369 419.189h-5.56v5.89h5.56v-5.89Z" opacity=".88"/><path d="M328.82 419.809h-4.39v4.65h4.39v-4.65Zm12.128 1.65h-1.28v1.36h1.28v-1.36Z" opacity=".87"/><path d="M355.568 420.469h-3.15v3.33h3.15v-3.33Z" opacity=".79"/><path d="M369.399 420.309h-3.45v3.65h3.45v-3.65Z" opacity=".91"/><path d="M395.519 421.629h-.96v1.02h.96v-1.02Z" opacity=".87"/><path d="M408.838 422.01h-.24v.26h.24v-.26Z" opacity=".8"/><path d="M423.531 420.949h-2.25v2.38h2.25v-2.38Z" opacity=".71"/><path d="M436.418 421.77h-.68v.72h.68v-.72Z" opacity=".57"/><path d="M450.481 421.379h-1.43v1.51h1.43v-1.51Z" opacity=".68"/><path d="M465.15 420.318h-3.42v3.62h3.42v-3.62Z" opacity=".91"/><path d="M477.498 421.75h-.74v.78h.74v-.78Z" opacity=".74"/><path d="M492.1 420.76h-2.6v2.76h2.6v-2.76Z" opacity=".77"/><path d="M505.728 420.818h-2.49v2.64h2.49v-2.64Z" opacity=".91"/><path d="M519.65 420.559h-2.97v3.15h2.97v-3.15Z" opacity=".71"/><path d="M533.211 420.689h-2.731v2.89h2.731v-2.89Z" opacity=".62"/><path d="M546.24 421.379h-1.42v1.51h1.42v-1.51Z" opacity=".83"/><path d="M559.727 421.59h-1.039v1.1h1.039v-1.1Z" opacity=".58"/><path d="M573.038 421.969h-.3v.32h.3v-.32Z" opacity=".55"/><path d="M587.31 421.359h-1.47v1.56h1.47v-1.56Z" opacity=".8"/><path d="M600.781 421.58h-1.051v1.11h1.051v-1.11Z" opacity=".83"/><path d="M614.311 421.729h-.76v.81h.76v-.81Z" opacity=".71"/><path d="M628.238 421.479h-1.25v1.319h1.25v-1.319Z" opacity=".59"/><path d="M642.639 420.709h-2.69v2.84h2.69v-2.84Z" opacity=".74"/><path d="M656.829 420.18h-3.7v3.92h3.7v-3.92Z" opacity=".84"/><path d="M669.869 420.85h-2.42v2.56h2.42v-2.56Z" opacity=".89"/><path d="M682.74 421.699h-.81v.86h.81v-.86Z" opacity=".79"/><path d="M698.349 419.68h-4.65v4.92h4.65v-4.92Z" opacity=".63"/><path d="M711.148 420.609h-2.89v3.05h2.89v-3.05Z" opacity=".91"/><path d="M725.29 420.119h-3.81v4.03h3.81v-4.03Z" opacity=".68"/><path d="M738.46 420.648h-2.8v2.97h2.8v-2.97Z" opacity=".53"/><path d="M286.658 435.469h-2.15v2.28h2.15v-2.28Z" opacity=".54"/><path d="M299.76 436.08h-.99v1.05h.99v-1.05Z" opacity=".64"/><path d="M314.511 434.959h-3.12v3.31h3.12v-3.31Z" opacity=".52"/><path d="M328.25 434.898h-3.23v3.41h3.23v-3.41Z" opacity=".57"/><path d="M354.49 436.09h-.99v1.05h.99v-1.05Z" opacity=".91"/><path d="M368.13 436.129h-.9v.95h.9v-.95Z" opacity=".56"/><path d="M383.38 434.459h-4.06v4.3h4.06v-4.3Z" opacity=".82"/><path d="M395.48 436.139h-.89v.94h.89v-.94Z" opacity=".58"/><path d="M422.759 436.229h-.72v.759h.72v-.759Z" opacity=".72"/><path d="M450.077 436.27h-.639v.67h.639v-.67Z" opacity=".62"/><path d="M464.298 435.699h-1.72v1.82h1.72v-1.82Z" opacity=".78"/><path d="M478.297 435.359h-2.359v2.5h2.359v-2.5Z" opacity=".71"/><path d="M491.971 435.379h-2.33v2.47h2.33v-2.47Z" opacity=".55"/><path d="M505.388 435.648h-1.81v1.91h1.81v-1.91Z" opacity=".65"/><path d="M518.568 436.18h-.81v.86h.81v-.86Z" opacity=".6"/><path d="M532.497 435.92h-1.309v1.38h1.309v-1.38Zm13.692-.022h-1.33v1.41h1.33v-1.41Z" opacity=".87"/><path d="M560.059 435.709h-1.7v1.8h1.7v-1.8Z" opacity=".92"/><path d="M574.618 434.789h-3.45v3.65h3.45v-3.65Z" opacity=".88"/><path d="M587.55 435.568h-1.96v2.08h1.96v-2.08Z" opacity=".65"/><path d="M601.57 435.209h-2.64v2.79h2.64v-2.79Z" opacity=".8"/><path d="M614.298 436.229h-.72v.759h.72v-.759Z" opacity=".89"/><path d="M627.92 436.289h-.6v.63h.6v-.63Z" opacity=".52"/><path d="M643.928 433.83h-5.26v5.57h5.26v-5.57Z" opacity=".63"/><path d="M655.729 435.809h-1.51v1.6h1.51v-1.6Z" opacity=".76"/><path d="M670.328 434.84h-3.34v3.53h3.34v-3.53Z" opacity=".53"/><path d="M684.52 434.299h-4.36v4.62h4.36v-4.62Z" opacity=".94"/><path d="M697.739 434.789h-3.43v3.63h3.43v-3.63Z" opacity=".93"/><path d="M710.56 435.699h-1.72v1.82h1.72v-1.82Z" opacity=".89"/><path d="M723.891 436.068h-1.02v1.08h1.02v-1.08Z" opacity=".72"/><path d="M738.05 435.568h-1.96v2.07h1.96v-2.07Z" opacity=".67"/><path d="M751.318 436h-1.15v1.21h1.15V436Z" opacity=".75"/><path d="M286.621 449.988h-2.07v2.19h2.07v-2.19Z" opacity=".85"/><path d="M314.759 449.158h-3.63v3.84h3.63v-3.84Z" opacity=".91"/><path d="M328.389 449.229h-3.51v3.71h3.51v-3.71Z" opacity=".67"/><path d="M340.831 450.539h-1.03v1.09h1.03v-1.09Z" opacity=".64"/><path d="M368.668 450.039h-1.98v2.09h1.98v-2.09Z" opacity=".6"/><path d="M382.04 450.35h-1.38v1.46h1.38v-1.46Z" opacity=".82"/><path d="M396.201 449.85h-2.33v2.47h2.33v-2.47Z" opacity=".56"/><path d="M409.59 450.158h-1.75v1.85h1.75v-1.85Z" opacity=".57"/><path d="M423.671 449.729h-2.55v2.699h2.55v-2.699Z" opacity=".58"/><path d="M436.861 450.26h-1.56v1.65h1.56v-1.65Z" opacity=".62"/><path d="M449.909 450.92h-.3v.32h.3v-.32Z" opacity=".92"/><path d="M466.14 448.229h-5.39v5.699h5.39v-5.699Z" opacity=".78"/><path d="M478.529 449.6h-2.81v2.97h2.81v-2.97Z" opacity=".88"/><path d="M504.941 450.6h-.91v.97h.91v-.97Z" opacity=".79"/><path d="M533.419 449.42h-3.149v3.33h3.149v-3.33Z" opacity=".69"/><path d="M547.53 448.959h-4.01v4.24h4.01v-4.24Z" opacity=".64"/><path d="M560.049 450.199h-1.67v1.76h1.67v-1.76Z" opacity=".8"/><path d="M575.46 448.359h-5.14v5.44h5.14v-5.44Z" opacity=".84"/><path d="M588.359 449.199h-3.57v3.77h3.57v-3.77Z" opacity=".86"/><path d="M602.57 448.629h-4.64v4.91h4.64v-4.91Z" opacity=".53"/><path d="M616.311 448.568h-4.76v5.04h4.76v-5.04Z" opacity=".78"/><path d="M629.359 449.238h-3.48v3.68h3.48v-3.68Z" opacity=".66"/><path d="M642.58 449.729h-2.56v2.71h2.56v-2.71Z" opacity=".81"/><path d="M655.278 450.77h-.59v.62h.59v-.62Z" opacity=".53"/><path d="M669.48 450.209h-1.64v1.74h1.64v-1.74Z" opacity=".93"/><path d="M683.379 449.979h-2.09v2.21h2.09v-2.21Z" opacity=".5"/><path d="M710.68 450.049h-1.95v2.06h1.95v-2.06Z" opacity=".91"/><path d="M724.21 450.219h-1.64v1.73h1.64v-1.73Z" opacity=".87"/><path d="M737.32 450.818h-.5v.53h.5v-.53Z" opacity=".8"/><path d="M751.068 450.738h-.65v.68h.65v-.68Z" opacity=".74"/><path d="M286.871 464.199h-2.57v2.72h2.57v-2.72Zm13.427.27h-2.06v2.18h2.06v-2.18Z" opacity=".59"/><path d="M313.291 465.199h-.67v.71h.67v-.71Z" opacity=".62"/><path d="M326.94 465.229h-.62v.66h.62v-.66Z" opacity=".78"/><path d="M342.38 463.369h-4.13v4.37h4.13v-4.37Z" opacity=".69"/><path d="M355.341 464.129h-2.7v2.86h2.7v-2.86Z" opacity=".6"/><path d="M369.13 464.02h-2.9v3.07h2.9v-3.07Z" opacity=".8"/><path d="M395.248 465.34h-.42v.44h.42v-.44Z" opacity=".81"/><path d="M409.848 464.359h-2.27v2.4h2.27v-2.4Zm13.641.039h-2.18v2.3h2.18v-2.3Z" opacity=".51"/><path d="M465.14 463.76h-3.39v3.59h3.39v-3.59Z" opacity=".84"/><path d="M479.039 463.52h-3.84v4.07h3.84v-4.07Z" opacity=".68"/><path d="M493.979 462.199h-6.35v6.72h6.35v-6.72Z" opacity=".85"/><path d="M519.801 463.83h-3.27v3.46h3.27v-3.46Z" opacity=".81"/><path d="M533.188 464.139h-2.68v2.84h2.68v-2.84Z" opacity=".53"/><path d="M548.32 462.6h-5.59v5.91h5.59v-5.91Z" opacity=".64"/><path d="M561.168 463.488h-3.91v4.14h3.91v-4.14Z" opacity=".63"/><path d="M601.148 464.609h-1.8v1.9h1.8v-1.9Z" opacity=".87"/><path d="M615.108 464.309h-2.35v2.49h2.35v-2.49Z" opacity=".89"/><path d="M629.361 463.709h-3.49v3.69h3.49v-3.69Z" opacity=".62"/><path d="M641.848 464.969h-1.11v1.18h1.11v-1.18Z" opacity=".92"/><path d="M656.018 464.459h-2.08v2.2h2.08v-2.2Zm13.591.1h-1.89v2h1.89v-2Z" opacity=".87"/><path d="M696.607 464.939h-1.169v1.24h1.169v-1.24Zm14.311-.669h-2.43v2.58h2.43v-2.58Z" opacity=".51"/><path d="M723.721 465.199h-.67v.71h.67v-.71Z" opacity=".67"/><path d="M737.429 465.17h-.73v.77h.73v-.77Z" opacity=".6"/><path d="M751.691 464.559h-1.89v2h1.89v-2Z" opacity=".63"/><path d="M286.348 479.219h-1.52v1.61h1.52v-1.61Z" opacity=".89"/><path d="M313.14 479.84h-.37v.39h.37v-.39Z" opacity=".56"/><path d="M326.969 479.67h-.68v.72h.68v-.72Zm16.669-3.16h-6.65v7.03h6.65v-7.03Z" opacity=".5"/><path d="M354.138 479.869h-.29v.31h.29v-.31Z" opacity=".64"/><path d="M370.238 477.309h-5.14v5.44h5.14v-5.44Z" opacity=".86"/><path d="M381.671 479.689h-.64v.68h.64v-.68Z" opacity=".5"/><path d="M396.31 478.689h-2.54v2.69h2.54v-2.69Z" opacity=".89"/><path d="M410.09 478.568h-2.75v2.91h2.75v-2.91Z" opacity=".57"/><path d="M437.228 478.818h-2.29v2.42h2.29v-2.42Z" opacity=".73"/><path d="M449.908 479.859h-.31v.33h.31v-.33Z" opacity=".67"/><path d="M463.851 479.6h-.82v.87h.82v-.87Z" opacity=".55"/><path d="M477.379 479.77h-.5v.53h.5v-.53Z" opacity=".86"/><path d="M491.7 479.08h-1.79v1.89h1.79v-1.89Z" opacity=".52"/><path d="M505.929 478.5h-2.89v3.06h2.89v-3.06Z" opacity=".74"/><path d="M519.668 478.449h-3v3.17h3v-3.17Z" opacity=".9"/><path d="M533.159 478.639h-2.62v2.77h2.62v-2.77Z" opacity=".52"/><path d="M547.681 477.75h-4.31v4.56h4.31v-4.56Z" opacity=".54"/><path d="M560.659 478.5h-2.889v3.05h2.889v-3.05Z" opacity=".66"/><path d="M574.141 478.709h-2.5v2.64h2.5v-2.64Z" opacity=".94"/><path d="M586.849 479.729h-.56v.59h.56v-.59Z" opacity=".93"/><path d="M602.848 477.279h-5.2v5.5h5.2v-5.5Z" opacity=".67"/><path d="M615.458 478.408h-3.06v3.24h3.06v-3.24Z" opacity=".87"/><path d="M628.519 479.068h-1.82v1.93h1.82v-1.93Z" opacity=".5"/><path d="M642.291 478.979h-1.99v2.099h1.99v-2.099Z" opacity=".8"/><path d="M656.28 478.658h-2.6v2.75h2.6v-2.75Z" opacity=".6"/><path d="M669.138 479.51h-.97v1.03h.97v-1.03Z" opacity=".66"/><path d="M682.678 479.68h-.67v.7h.67v-.7Z" opacity=".53"/><path d="M696.888 479.109h-1.74v1.84h1.74v-1.84Z" opacity=".74"/><path d="M710.228 479.469h-1.06v1.12h1.06v-1.12Z" opacity=".76"/><path d="M724.209 479.158h-1.65v1.74h1.65v-1.74Z" opacity=".72"/><path d="M738.599 478.398h-3.079v3.26h3.079v-3.26Z" opacity=".52"/><path d="M286.668 493.359h-2.16v2.29h2.16v-2.29Z" opacity=".74"/><path d="M300.171 493.549h-1.8v1.9h1.8v-1.9Zm15.487-1.91h-5.42v5.74h5.42v-5.74Z" opacity=".56"/><path d="M328.211 492.83h-3.16v3.35h3.16v-3.35Z" opacity=".9"/><path d="M354.601 493.859h-1.21v1.28h1.21v-1.28Z" opacity=".89"/><path d="M383.659 492.059h-4.62v4.89h4.62v-4.89Z" opacity=".64"/><path d="M408.918 494.289h-.41v.43h.41v-.43Z" opacity=".84"/><path d="M438.47 491.969h-4.79v5.07h4.79v-5.07Z" opacity=".93"/><path d="M451.78 492.369h-4.03v4.26h4.03v-4.26Z" opacity=".69"/><path d="M463.741 494.189h-.6v.63h.6v-.63Z" opacity=".79"/><path d="M477.399 494.219h-.54v.57h.54v-.57Z" opacity=".74"/><path d="M491.051 494.238h-.5v.53h.5v-.53Z" opacity=".77"/><path d="M506.398 492.488h-3.82v4.04h3.82v-4.04Z" opacity=".73"/><path d="M520.549 491.988h-4.76v5.04h4.76v-5.04Z" opacity=".59"/><path d="M532.379 493.939h-1.07v1.13h1.07v-1.13Z" opacity=".8"/><path d="M546.128 493.859h-1.21v1.28h1.21v-1.28Z" opacity=".53"/><path d="M561.219 492.379h-4.02v4.25h4.02v-4.25Z" opacity=".84"/><path d="M573.239 494.139h-.7v.74h.7v-.74Z" opacity=".82"/><path d="M600.641 494.1h-.77v.81h.77v-.81Z" opacity=".69"/><path d="M614.69 493.699h-1.51v1.6h1.51v-1.6Z" opacity=".81"/><path d="M642.238 493.5h-1.89v2h1.89v-2Z" opacity=".69"/><path d="M657.321 492.029h-4.68v4.95h4.68v-4.95Z" opacity=".67"/><path d="M669.07 494.068h-.82v.86h.82v-.86Z" opacity=".52"/><path d="M683.629 493.129h-2.59v2.75h2.59v-2.75Z" opacity=".75"/><path d="M710.208 493.969h-1.02v1.08h1.02v-1.08Z" opacity=".76"/><path d="M723.909 493.949h-1.05v1.11h1.05v-1.11Z" opacity=".67"/><path d="M737.919 493.609h-1.7v1.79h1.7v-1.79Z" opacity=".94"/><path d="M752.078 493.1h-2.66v2.81h2.66v-2.81Zm-466.17 15.529h-.65v.69h.65v-.69Z" opacity=".54"/><path d="M300.391 507.789h-2.25v2.38h2.25v-2.38Z" opacity=".6"/><path d="M313.329 508.568h-.77v.82h.77v-.82Z" opacity=".52"/><path d="M327.051 508.529h-.84v.89h.84v-.89Z" opacity=".83"/><path d="M354.75 508.17h-1.52v1.61h1.52v-1.61Z" opacity=".72"/><path d="M369.78 506.75h-4.21v4.45h4.21v-4.45Z" opacity=".64"/><path d="M383.68 506.51h-4.66v4.93h4.66v-4.93Z" opacity=".9"/><path d="M397.009 506.889h-3.95v4.17h3.95v-4.17Z" opacity=".78"/><path d="M423.388 507.93h-1.99v2.11h1.99v-2.11Z" opacity=".84"/><path d="M436.988 508.02h-1.82v1.92h1.82v-1.92Z" opacity=".85"/><path d="M464.038 508.35h-1.19v1.26h1.19v-1.26Z" opacity=".8"/><path d="M478.93 507.068h-3.61v3.82h3.61v-3.82Z" opacity=".64"/><path d="M491.76 507.959h-1.92v2.03h1.92v-2.03Z" opacity=".54"/><path d="M505.109 508.318h-1.25v1.33h1.25v-1.33Z" opacity=".65"/><path d="M519.379 507.689h-2.43v2.57h2.43v-2.57Z" opacity=".67"/><path d="M545.931 508.559h-.79v.83h.79v-.83Z" opacity=".94"/><path d="M559.629 508.539h-.84v.88h.84v-.88Z" opacity=".74"/><path d="M574.378 507.398h-2.98v3.15h2.98v-3.15Z" opacity=".69"/><path d="M587.98 507.488h-2.82v2.98h2.82v-2.98Z" opacity=".85"/><path d="M602.189 506.92h-3.88v4.11h3.88v-4.11Z" opacity=".82"/><path d="M614.52 508.35h-1.18v1.25h1.18v-1.25Z" opacity=".84"/><path d="M628.14 508.42h-1.05v1.11h1.05v-1.11Z" opacity=".64"/><path d="M642.119 508.109h-1.65v1.74h1.65v-1.74Z" opacity=".71"/><path d="M656.68 507.17h-3.41v3.61h3.41v-3.61Z" opacity=".51"/><path d="M669.218 508.389h-1.12v1.18h1.12v-1.18Z" opacity=".7"/><path d="M684.93 506.238h-5.18v5.48h5.18v-5.48Z" opacity=".59"/><path d="M710.658 507.959h-1.92v2.03h1.92v-2.03Z" opacity=".92"/><path d="M723.781 508.559h-.801v.84h.801v-.84Z" opacity=".88"/><path d="M738.731 507.209h-3.34v3.54h3.34v-3.54Z" opacity=".94"/><path d="M288.95 519.898h-6.72v7.1h6.72v-7.1Z" opacity=".89"/><path d="M299.94 522.738h-1.35v1.43h1.35v-1.43Z" opacity=".66"/><path d="M314.279 522.049h-2.65v2.8h2.65v-2.8Z" opacity=".6"/><path d="M327.868 522.148h-2.47v2.61h2.47v-2.61Z" opacity=".69"/><path d="M340.571 523.18h-.52v.55h.52v-.55Z" opacity=".62"/><path d="M355.58 521.77h-3.17v3.36h3.17v-3.36Z" opacity=".94"/><path d="M368.799 522.25h-2.26v2.4h2.26v-2.4Z" opacity=".63"/><path d="M382.54 522.189h-2.38v2.52h2.38v-2.52Z" opacity=".81"/><path d="M395.959 522.469h-1.85v1.96h1.85v-1.96Z" opacity=".6"/><path d="M408.881 523.279h-.33v.35h.33v-.35Z" opacity=".77"/><path d="M422.638 523.199h-.47v.5h.47v-.5Z" opacity=".82"/><path d="M451.301 521.818h-3.09v3.27h3.09v-3.27Z" opacity=".91"/><path d="M465.288 521.5h-3.69v3.91h3.69v-3.91Z" opacity=".79"/><path d="M477.74 522.789h-1.24v1.31h1.24v-1.31Z" opacity=".74"/><path d="M492.538 521.619h-3.46v3.66h3.46v-3.66Z" opacity=".6"/><path d="M505.691 522.18h-2.41v2.55h2.41v-2.55Z" opacity=".78"/><path d="M518.469 523.129h-.61v.64h.61v-.64Z" opacity=".52"/><path d="M532.421 522.85h-1.14v1.21h1.14v-1.21Z" opacity=".64"/><path d="M546.15 522.799h-1.24v1.31h1.24v-1.31Z" opacity=".61"/><path d="M560.289 522.309h-2.16v2.29h2.16v-2.29Z" opacity=".9"/><path d="M573.958 522.33h-2.13v2.25h2.13v-2.25Z" opacity=".69"/><path d="M601.399 522.238h-2.29v2.42h2.29v-2.42Z" opacity=".75"/><path d="M615.669 521.619h-3.47v3.67h3.47v-3.67Z" opacity=".59"/><path d="M628.879 522.119h-2.52v2.66h2.52v-2.66Z" opacity=".78"/><path d="M642.67 522h-2.74v2.9h2.74V522Z" opacity=".82"/><path d="M657.061 521.25h-4.17v4.41h4.17v-4.41Z" opacity=".76"/><path d="M683.161 522.59h-1.63v1.72h1.63v-1.72Z" opacity=".92"/><path d="M696.28 523.18h-.51v.54h.51v-.54Z" opacity=".77"/><path d="M710.658 522.449h-1.9v2h1.9v-2Z" opacity=".7"/><path d="M724.68 522.08h-2.59v2.74h2.59v-2.74Z" opacity=".81"/><path d="M752.65 521.439h-3.81v4.03h3.81v-4.03Z" opacity=".92"/><path d="M286.418 537.049h-1.66v1.76h1.66v-1.76Z" opacity=".82"/><path d="M301.298 535.779h-4.06v4.3h4.06v-4.3Z" opacity=".55"/><path d="M315.548 535.18h-5.2v5.5h5.2v-5.5Z" opacity=".93"/><path d="M328.819 535.619h-4.37v4.62h4.37v-4.62Z" opacity=".85"/><path d="M341.839 536.309h-3.05v3.22h3.05v-3.22Z" opacity=".87"/><path d="M354.498 537.389h-1.01v1.06h1.01v-1.06Z" opacity=".72"/><path d="M368.789 536.75h-2.23v2.36h2.23v-2.36Z" opacity=".56"/><path d="M381.71 537.549H381v.75h.71v-.75Z" opacity=".81"/><path d="M396.74 536.129h-3.4v3.6h3.4v-3.6Z" opacity=".73"/><path d="M437.621 536.289h-3.09v3.27h3.09v-3.27Z" opacity=".56"/><path d="M451.409 536.18h-3.3v3.49h3.3v-3.49Z" opacity=".5"/><path d="M464.749 536.539h-2.62v2.78h2.62v-2.78Z" opacity=".73"/><path d="M477.389 537.648h-.53v.56h.53v-.56Z" opacity=".79"/><path d="M492.908 535.689h-4.22v4.47h4.22v-4.47Z" opacity=".88"/><path d="M505.081 537.299h-1.19v1.25h1.19v-1.25Z" opacity=".55"/><path d="M519.848 536.148h-3.36v3.56h3.36v-3.56Z" opacity=".82"/><path d="M546.658 536.729h-2.26v2.39h2.26v-2.39Z" opacity=".75"/><path d="M560 537.08h-1.59v1.68H560v-1.68Z" opacity=".94"/><path d="M573.85 536.908h-1.92v2.03h1.92v-2.03Z" opacity=".65"/><path d="M587.31 537.148h-1.47v1.55h1.47v-1.55Z" opacity=".73"/><path d="M601.049 537.08h-1.6v1.69h1.6v-1.69Zm28.39-1.08h-3.65v3.86h3.65V536Z" opacity=".78"/><path d="M643.49 535.6h-4.4v4.66h4.4v-4.66Z" opacity=".89"/><path d="M656.11 536.719h-2.27v2.4h2.27v-2.4Z" opacity=".64"/><path d="M669.589 536.939h-1.87v1.98h1.87v-1.98Z" opacity=".69"/><path d="M684.348 535.799h-4.02v4.25h4.02v-4.25Z" opacity=".84"/><path d="M697.599 536.26h-3.15v3.33h3.15v-3.33Z" opacity=".51"/><path d="M710.089 537.51h-.78v.83h.78v-.83Z" opacity=".7"/><path d="M737.56 537.398h-.99v1.05h.99v-1.05Z" opacity=".52"/><path d="M751.76 536.85h-2.03V539h2.03v-2.15Z" opacity=".61"/><path d="M286.278 551.67h-1.38v1.46h1.38v-1.46Z" opacity=".64"/><path d="M299.85 551.779h-1.17v1.24h1.17v-1.24Z" opacity=".75"/><path d="M314.238 551.029h-2.59v2.74h2.59v-2.74Z" opacity=".64"/><path d="M327.6 551.379h-1.94v2.05h1.94v-2.05Z" opacity=".76"/><path d="M341.991 550.629h-3.35v3.55h3.35v-3.55Z" opacity=".91"/><path d="M355.269 551.049h-2.55v2.69h2.55v-2.69Z" opacity=".66"/><path d="M369.131 550.85h-2.92v3.09h2.92v-3.09Z" opacity=".5"/><path d="M396.078 551.299h-2.09v2.21h2.09v-2.21Z" opacity=".53"/><path d="M425.55 549.068h-6.3v6.67h6.3v-6.67Z" opacity=".8"/><path d="M437.16 551.26H435v2.29h2.16v-2.29Z" opacity=".6"/><path d="M451.559 550.488h-3.61v3.82h3.61v-3.82Z" opacity=".74"/><path d="M463.761 552.059h-.64v.67h.64v-.67Z" opacity=".68"/><path d="M492.249 550.869h-2.89v3.05h2.89v-3.05Z" opacity=".64"/><path d="M505.228 551.609h-1.49v1.57h1.49v-1.57Z" opacity=".56"/><path d="M532.2 552.029h-.7v.74h.7v-.74Z" opacity=".55"/><path d="M546.12 551.77h-1.19v1.26h1.19v-1.26Z" opacity=".88"/><path d="M560.01 551.549h-1.6v1.69h1.6v-1.69Z" opacity=".51"/><path d="M574.329 550.879h-2.88v3.04h2.88v-3.04Z" opacity=".83"/><path d="M587.24 551.699h-1.33v1.41h1.33v-1.41Z" opacity=".8"/><path d="M602.24 550.299h-3.97v4.2h3.97v-4.2Z" opacity=".78"/><path d="M615.21 551.049h-2.55v2.7h2.55v-2.7Z" opacity=".77"/><path d="M627.969 552.029h-.699v.74h.699v-.74Z" opacity=".94"/><path d="M642.428 551.209h-2.26v2.39h2.26v-2.39Z" opacity=".68"/><path d="M657.489 549.738h-5.02v5.31h5.02v-5.31Z" opacity=".84"/><path d="M669.839 551.139h-2.37v2.51h2.37v-2.51Z" opacity=".92"/><path d="M682.86 551.85h-1.04v1.1h1.04v-1.1Z" opacity=".61"/><path d="M697.838 550.469h-3.65v3.87h3.65v-3.87Z" opacity=".78"/><path d="M724.868 550.83h-2.97v3.14h2.97v-3.14Z" opacity=".85"/><path d="M738.521 550.869h-2.9v3.06h2.9v-3.06Z" opacity=".78"/><path d="M753.168 549.84h-4.84v5.12h4.84v-5.12Z" opacity=".65"/><path d="M285.809 566.629h-.45v.48h.45v-.48Z" opacity=".87"/><path d="M299.778 566.33h-1.02v1.08h1.02v-1.08Z" opacity=".64"/><path d="M327.969 565.449h-2.68v2.84h2.68v-2.84Z" opacity=".83"/><path d="M341.63 565.479H339v2.79h2.63v-2.79Z" opacity=".72"/><path d="M369.83 564.59h-4.31v4.56h4.31v-4.56Z" opacity=".68"/><path d="M383.14 564.988h-3.57v3.77h3.57v-3.77Z" opacity=".82"/><path d="M397.628 564.129h-5.19v5.49h5.19v-5.49Z" opacity=".92"/><path d="M409.93 565.59h-2.43v2.58h2.43v-2.58Z" opacity=".79"/><path d="M423.491 565.709h-2.19v2.32h2.19v-2.32Z" opacity=".89"/><path d="M438.25 564.58h-4.34v4.59h4.34v-4.59Z" opacity=".84"/><path d="M450.5 566.09h-1.48v1.56h1.48v-1.56Z" opacity=".77"/><path d="M466.269 563.879h-5.66v5.99h5.66v-5.99Z" opacity=".93"/><path d="M479.701 564.148h-5.15v5.44h5.15v-5.44Z" opacity=".5"/><path d="M491.229 566.43h-.85v.89h.85v-.89Z" opacity=".82"/><path d="M505.15 566.17h-1.33v1.4h1.33v-1.4Z" opacity=".86"/><path d="M518.301 566.729h-.27v.28h.27v-.28Z" opacity=".52"/><path d="M533.38 565.25h-3.06v3.24h3.06v-3.24Z" opacity=".6"/><path d="M548.421 563.818h-5.78v6.12h5.78v-6.12Z" opacity=".79"/><path d="M559.979 566.059h-1.53v1.62h1.53v-1.62Z" opacity=".94"/><path d="M573.729 565.988h-1.67v1.76h1.67v-1.76Z" opacity=".67"/><path d="M589.689 563.58h-6.24v6.6h6.24v-6.6Z" opacity=".84"/><path d="M601.598 565.459h-2.68v2.83h2.68v-2.83Z" opacity=".83"/><path d="M644.811 563.158h-7.03v7.44h7.03v-7.44Z" opacity=".52"/><path d="M655.72 566.08h-1.49v1.58h1.49v-1.58Z" opacity=".6"/><path d="M668.869 566.648h-.42v.45h.42v-.45Z" opacity=".53"/><path d="M683.848 565.279h-3.02v3.19h3.02v-3.19Z" opacity=".61"/><path d="M697.708 565.08h-3.38v3.58h3.38v-3.58Z" opacity=".51"/><path d="M710.467 566.059h-1.529v1.62h1.529v-1.62Z" opacity=".68"/><path d="M725.539 564.59h-4.32v4.57h4.32v-4.57Z" opacity=".7"/><path d="M737.398 566.52h-.66v.699h.66v-.699Z" opacity=".58"/><path d="M751.029 566.58h-.56v.59h.56v-.59Z" opacity=".88"/><path d="M288.948 577.799h-6.71v7.09h6.71v-7.09Z" opacity=".77"/><path d="M300.741 579.789h-2.94v3.11h2.94v-3.11Z" opacity=".83"/><path d="M341.188 580.42h-1.75v1.85h1.75v-1.85Z" opacity=".8"/><path d="M356.24 578.969h-4.49v4.75h4.49v-4.75Z" opacity=".83"/><path d="M369.92 578.969h-4.49v4.75h4.49v-4.75Z" opacity=".53"/><path d="M383.649 578.92h-4.59v4.86h4.59v-4.86Z" opacity=".63"/><path d="M396.338 579.969h-2.6v2.75h2.6v-2.75Z" opacity=".84"/><path d="M410.01 579.979h-2.58v2.73h2.58v-2.73Z" opacity=".93"/><path d="M423.171 580.529h-1.55v1.64h1.55v-1.64Z" opacity=".52"/><path d="M437.529 579.809h-2.9v3.07h2.9v-3.07Zm13.749-.071h-3.04v3.21h3.04v-3.21Z" opacity=".92"/><path d="M465.188 579.5h-3.5v3.7h3.5v-3.7Z" opacity=".68"/><path d="M478.76 579.609h-3.28v3.47h3.28v-3.47Z" opacity=".83"/><path d="M492.569 579.479h-3.53v3.74h3.53v-3.74Z" opacity=".7"/><path d="M504.89 580.93h-.8v.84h.8v-.84Z" opacity=".61"/><path d="M519.418 580.02h-2.5v2.649h2.5v-2.649Z" opacity=".83"/><path d="M545.839 581.02h-.62v.66h.62v-.66Z" opacity=".5"/><path d="M559.68 580.859h-.93v.98h.93v-.98Z" opacity=".88"/><path d="M573.639 580.549h-1.51v1.6h1.51v-1.6Z" opacity=".75"/><path d="M587.23 580.648h-1.32v1.4h1.32v-1.4Z" opacity=".71"/><path d="M601.75 579.77h-2.98v3.149h2.98v-3.149Z" opacity=".89"/><path d="M628.868 580.01h-2.52v2.67h2.52v-2.67Z" opacity=".79"/><path d="M643.03 579.52h-3.46v3.66h3.46v-3.66Z" opacity=".55"/><path d="M656.508 579.729h-3.07v3.24h3.07v-3.24Z" opacity=".64"/><path d="M669.449 580.51h-1.59v1.68h1.59v-1.68Z" opacity=".93"/><path d="M684.6 578.949h-4.53v4.79h4.53v-4.79Z" opacity=".84"/><path d="M697.581 579.689h-3.12v3.31h3.12v-3.31Z" opacity=".59"/><path d="M710.73 580.26h-2.05v2.17h2.05v-2.17Z" opacity=".92"/><path d="M725.518 579.08h-4.28v4.53h4.28v-4.53Z" opacity=".73"/><path d="M738.821 579.479h-3.52v3.73h3.52v-3.73Z" opacity=".68"/><path d="M752.797 579.17h-4.109v4.35h4.109v-4.35Z" opacity=".56"/><path d="M287.75 593.529h-4.32v4.57h4.32v-4.57Z" opacity=".67"/><path d="M300.009 595.049h-1.47v1.55h1.47v-1.55Z" opacity=".78"/><path d="M314.34 594.359h-2.77v2.93h2.77v-2.93Z" opacity=".69"/><path d="M341.259 594.818h-1.9v2.01h1.9v-2.01Z" opacity=".6"/><path d="M357.08 592.559h-6.17v6.53h6.17v-6.53Z" opacity=".51"/><path d="M369.09 594.318h-2.84v3.01h2.84v-3.01Z" opacity=".79"/><path d="M383.169 593.898h-3.63v3.84h3.63v-3.84Z" opacity=".8"/><path d="M395.408 595.43h-.74v.78h.74v-.78Z" opacity=".84"/><path d="M423.699 594.449h-2.59v2.74h2.59v-2.74Z" opacity=".5"/><path d="M437.131 594.709h-2.1v2.22h2.1v-2.22Z" opacity=".72"/><path d="M450.62 594.92h-1.71v1.81h1.71v-1.81Z" opacity=".62"/><path d="M466.3 592.799h-5.71v6.04h5.71v-6.04Z" opacity=".87"/><path d="M477.379 595.549h-.52v.55h.52v-.55Z" opacity=".62"/><path d="M492.778 593.729h-3.95v4.18h3.95v-4.18Z" opacity=".8"/><path d="M504.921 595.359h-.87v.93h.87v-.93Z" opacity=".67"/><path d="M518.961 594.979h-1.59v1.69h1.59v-1.69Z" opacity=".62"/><path d="M533.231 594.35h-2.77v2.94h2.77v-2.94Z" opacity=".63"/><path d="M546.841 594.439h-2.611v2.76h2.611v-2.76Z" opacity=".92"/><path d="M561.131 593.779h-3.85v4.08h3.85v-4.08Z" opacity=".67"/><path d="M574.929 593.67h-4.07v4.3h4.07v-4.3Z" opacity=".73"/><path d="M601.358 594.648h-2.21v2.34h2.21v-2.34Z" opacity=".52"/><path d="M615.011 594.689h-2.14v2.26h2.14v-2.26Z" opacity=".54"/><path d="M628.779 594.59h-2.33v2.47h2.33v-2.47Z" opacity=".61"/><path d="M642.28 594.779h-1.96v2.07h1.96v-2.07Z" opacity=".53"/><path d="M656.798 593.889h-3.65v3.86h3.65v-3.86Z" opacity=".7"/><path d="M669.06 595.389h-.81v.86h.81v-.86Z" opacity=".8"/><path d="M683.061 595.059h-1.44v1.52h1.44v-1.52Z" opacity=".62"/><path d="M696.86 594.93h-1.68v1.78h1.68v-1.78Z" opacity=".6"/><path d="M710.138 595.35h-.88v.94h.88v-.94Z" opacity=".85"/><path d="M723.94 595.229h-1.12v1.18h1.12v-1.18Z" opacity=".7"/><path d="M738.011 594.818h-1.89v2h1.89v-2Z" opacity=".56"/><path d="M751.51 595.01h-1.53v1.62h1.53v-1.62Z" opacity=".8"/><path d="M286.99 608.809h-2.81v2.97h2.81v-2.97Z" opacity=".66"/><path d="M300.081 609.439h-1.62v1.71h1.62v-1.71Z" opacity=".76"/><path d="M314.101 609.08h-2.3v2.43h2.3v-2.43Z" opacity=".88"/><path d="M328.2 608.639h-3.13v3.31h3.13v-3.31Z" opacity=".89"/><path d="M340.579 610.01h-.54v.57h.54v-.57Z" opacity=".8"/><path d="M356.288 607.859h-4.6v4.87h4.6v-4.87Z" opacity=".57"/><path d="M369.29 608.59h-3.22v3.4h3.22v-3.4Z" opacity=".58"/><path d="M384.008 607.479h-5.32v5.63h5.32v-5.63Z" opacity=".92"/><path d="M396.218 609.039h-2.37v2.5h2.37v-2.5Z" opacity=".55"/><path d="M410.641 608.26h-3.84v4.07h3.84v-4.07Z" opacity=".57"/><path d="M424.448 608.119h-4.1v4.34h4.1v-4.34Z" opacity=".85"/><path d="M450.159 609.869h-.8v.85h.8v-.85Z" opacity=".72"/><path d="M464.171 609.52h-1.46v1.55h1.46v-1.55Z" opacity=".53"/><path d="M479.15 608.148h-4.06v4.3h4.06v-4.3Z" opacity=".83"/><path d="M492.341 608.68h-3.06v3.23h3.06v-3.23Z" opacity=".69"/><path d="M518.969 609.439h-1.61v1.71h1.61v-1.71Z" opacity=".54"/><path d="M532.13 610h-.56v.59h.56V610Z" opacity=".65"/><path d="M546.009 609.779h-.97v1.03h.97v-1.03Z" opacity=".71"/><path d="M575.508 607.52h-5.25v5.56h5.25v-5.56Z" opacity=".66"/><path d="M588.73 608.01h-4.32v4.57h4.32v-4.57Z" opacity=".62"/><path d="M601.301 609.189h-2.09v2.21h2.09v-2.21Z" opacity=".67"/><path d="M614.427 609.77h-.989v1.05h.989v-1.05Z" opacity=".51"/><path d="M630.179 607.59h-5.12v5.42h5.12v-5.42Z" opacity=".81"/><path d="M641.76 609.809h-.92v.97h.92v-.97Z" opacity=".82"/><path d="M657.308 607.83h-4.66v4.93h4.66v-4.93Z" opacity=".59"/><path d="M669.22 609.699h-1.13v1.19h1.13v-1.19Z" opacity=".68"/><path d="M683.641 608.908h-2.61v2.76h2.61v-2.76Z" opacity=".78"/><path d="M697.159 609.09h-2.28v2.42h2.28v-2.42Z" opacity=".65"/><path d="M710.988 608.939h-2.57v2.72h2.57v-2.72Z" opacity=".52"/><path d="M725.459 608.1h-4.15v4.39h4.15v-4.39Z" opacity=".53"/><path d="M737.37 609.979h-.6v.63h.6v-.63Zm13.679 0h-.6v.63h.6v-.63Z" opacity=".92"/><path d="M286.051 624.279h-.93v.98h.93v-.98Z" opacity=".82"/><path d="M299.778 624.229h-1.02v1.07h1.02v-1.07Z" opacity=".57"/><path d="M315.691 621.869h-5.48v5.8h5.48v-5.8Z" opacity=".75"/><path d="M328.211 623.1h-3.16v3.34h3.16v-3.34Z" opacity=".94"/><path d="M342.2 622.779h-3.77v3.98h3.77v-3.98Z" opacity=".54"/><path d="M355.48 623.189h-2.98v3.16h2.98v-3.16Z" opacity=".78"/><path d="M368.498 623.889h-1.65v1.75h1.65v-1.75Z" opacity=".51"/><path d="M381.958 624.129h-1.2v1.27h1.2v-1.27Z" opacity=".64"/><path d="M395.361 624.43h-.65v.68h.65v-.68Z" opacity=".63"/><path d="M409.829 623.59h-2.22v2.35h2.22v-2.35Z" opacity=".5"/><path d="M422.761 624.379h-.73v.77h.73v-.77Z" opacity=".79"/><path d="M436.72 624.09h-1.29v1.37h1.29v-1.37Z" opacity=".53"/><path d="M478.461 623.35h-2.68v2.84h2.68v-2.84Zm13.178.539h-1.67v1.77h1.67v-1.77Z" opacity=".6"/><path d="M519.941 622.889h-3.55v3.76h3.55v-3.76Z" opacity=".93"/><path d="M533.389 623.139h-3.08v3.26h3.08v-3.26Z" opacity=".94"/><path d="M547.521 622.658h-3.99v4.22h3.99v-4.22Z" opacity=".8"/><path d="M561.168 622.699h-3.91v4.13h3.91v-4.13Z" opacity=".65"/><path d="M574.87 622.67h-3.96v4.19h3.96v-4.19Z" opacity=".72"/><path d="M601.268 623.699h-2.03v2.15h2.03v-2.15Z" opacity=".83"/><path d="M615.989 622.6h-4.11v4.35h4.11v-4.35Z" opacity=".59"/><path d="M628.318 624.02h-1.42v1.51h1.42v-1.51Z" opacity=".75"/><path d="M641.76 624.279h-.92v.97h.92v-.97Z" opacity=".93"/><path d="M656.751 622.898h-3.54v3.75h3.54v-3.75Zm12.989.731h-2.15v2.27h2.15v-2.27Z" opacity=".85"/><path d="M696.618 624.129h-1.2v1.27h1.2v-1.27Z" opacity=".78"/><path d="M711.068 623.318h-2.74v2.9h2.74v-2.9Z" opacity=".86"/><path d="M726.098 621.898h-5.43v5.74h5.43v-5.74Z" opacity=".74"/><path d="M751.689 623.779h-1.88v1.99h1.88v-1.99Z" opacity=".84"/><path d="M285.908 638.898h-.65v.69h.65v-.69Z" opacity=".65"/><path d="M300.489 637.949h-2.45v2.59h2.45v-2.59Z" opacity=".58"/><path d="M314.41 637.699h-2.91v3.08h2.91v-3.08Z" opacity=".82"/><path d="M327.938 637.859h-2.61v2.76h2.61v-2.76Z" opacity=".51"/><path d="M341.671 637.809h-2.71v2.87h2.71v-2.87Z" opacity=".94"/><path d="M355.439 637.709h-2.9v3.07h2.9v-3.07Z" opacity=".72"/><path d="M368.438 638.439h-1.52v1.6h1.52v-1.6Z" opacity=".65"/><path d="M383.13 637.369h-3.54v3.74h3.54v-3.74Z" opacity=".55"/><path d="M395.878 638.35h-1.69v1.79h1.69v-1.79Z" opacity=".92"/><path d="M409.938 637.939h-2.45v2.6h2.45v-2.6Zm13.463.241h-2.01v2.13h2.01v-2.13Z" opacity=".83"/><path d="M437.16 638.1H435v2.28h2.16v-2.28Z" opacity=".79"/><path d="M450.251 638.729h-.97v1.02h.97v-1.02Z" opacity=".87"/><path d="M465.331 637.238h-3.78v4h3.78v-4Z" opacity=".86"/><path d="M477.949 638.359h-1.66v1.76h1.66v-1.76Z" opacity=".84"/><path d="M506.7 636.898h-4.43v4.68h4.43v-4.68Z" opacity=".5"/><path d="M519.66 637.658h-2.98v3.16h2.98v-3.16Z" opacity=".9"/><path d="M533.1 637.908h-2.51v2.66h2.51v-2.66Zm27.029.362h-1.84v1.94h1.84v-1.94Z" opacity=".74"/><path d="M573.059 639.068h-.34v.36h.34v-.36Z" opacity=".69"/><path d="M587.021 638.77h-.9v.949h.9v-.949Z" opacity=".67"/><path d="M615.188 637.92h-2.5v2.64h2.5v-2.64Z" opacity=".76"/><path d="M629.159 637.6h-3.1v3.28h3.1v-3.28Z" opacity=".8"/><path d="M656.001 638.158h-2.04v2.16h2.04v-2.16Z" opacity=".86"/><path d="M669.289 638.58h-1.25v1.32h1.25v-1.32Z" opacity=".94"/><path d="M684.01 637.469h-3.35v3.55h3.35v-3.55Z" opacity=".74"/><path d="M712.611 636.17h-5.81v6.15h5.81v-6.15Z" opacity=".64"/><path d="M725.34 637.18h-3.91v4.13h3.91v-4.13Z" opacity=".67"/><path d="M737.249 639.049h-.37v.39h.37v-.39Z" opacity=".57"/><path d="M750.929 639.049h-.37v.39h.37v-.39Z" opacity=".87"/><path d="M288.709 650.42h-6.24v6.6h6.24v-6.6Z" opacity=".84"/><path d="M301.079 651.799h-3.63v3.84h3.63v-3.84Z" opacity=".9"/><path d="M314.019 652.59h-2.14v2.26h2.14v-2.26Z" opacity=".65"/><path d="M326.858 653.469h-.46v.48h.46v-.48Z" opacity=".66"/><path d="M354.929 652.729h-1.87v1.98h1.87v-1.98Z" opacity=".71"/><path d="M370.147 651.09h-4.959v5.25h4.959v-5.25Z" opacity=".54"/><path d="M395.759 652.949h-1.45v1.53h1.45v-1.53Z" opacity=".78"/><path d="M410.459 651.869h-3.49v3.69h3.49v-3.69Z" opacity=".69"/><path d="M424.37 651.629h-3.94v4.17h3.94v-4.17Z" opacity=".57"/><path d="M450.979 652.43h-2.44v2.58h2.44v-2.58Z" opacity=".89"/><path d="M465.819 651.199h-4.76v5.04h4.76v-5.04Z" opacity=".92"/><path d="M478.078 652.709h-1.91v2.02h1.91v-2.02Z" opacity=".86"/><path d="M491.331 653.158h-1.05v1.11h1.05v-1.11Z" opacity=".89"/><path d="M504.899 653.27h-.84v.889h.84v-.889Z" opacity=".77"/><path d="M518.859 652.979h-1.39v1.47h1.39v-1.47Z" opacity=".61"/><path d="M533.22 652.27h-2.74v2.899h2.74v-2.899Z" opacity=".78"/><path d="M546.128 653.09h-1.19v1.26h1.19v-1.26Z" opacity=".51"/><path d="M561.76 651.02h-5.1v5.399h5.1v-5.399Z" opacity=".59"/><path d="M573.1 653.488h-.42v.45h.42v-.45Z" opacity=".58"/><path d="M601.789 652.09h-3.07v3.25h3.07v-3.25Z" opacity=".75"/><path d="M615.45 652.109h-3.04v3.22h3.04v-3.22Z" opacity=".82"/><path d="M628.73 652.539h-2.23v2.35h2.23v-2.35Z" opacity=".5"/><path d="M642.291 652.658h-1.99v2.1h1.99v-2.1Z" opacity=".67"/><path d="M656.04 652.59h-2.13v2.25h2.13v-2.25Z" opacity=".53"/><path d="M670.048 652.238h-2.79v2.95h2.79v-2.95Z" opacity=".63"/><path d="M682.758 653.27h-.84v.889h.84v-.889Z" opacity=".56"/><path d="M698.847 650.719h-5.659v5.99h5.659v-5.99Z" opacity=".88"/><path d="M710.83 652.52h-2.26v2.389h2.26v-2.389Z" opacity=".59"/><path d="M751.75 652.658h-2v2.11h2v-2.11Z" opacity=".8"/><path d="M285.91 667.85h-.64v.68h.64v-.68Z" opacity=".89"/><path d="M300.271 667.139h-1.99v2.1h1.99v-2.1Z" opacity=".88"/><path d="M328.67 666.029h-4.08v4.32h4.08v-4.32Z" opacity=".71"/><path d="M340.72 667.76h-.81v.86h.81v-.86Z" opacity=".84"/><path d="M367.801 668.059h-.25v.26h.25v-.26Z" opacity=".59"/><path d="M382.099 667.398h-1.49v1.58h1.49v-1.58Z" opacity=".83"/><path d="M396.281 666.869h-2.5v2.65h2.5v-2.65Z" opacity=".93"/><path d="M424.33 666.158h-3.85v4.07h3.85v-4.07Zm13.738-.068h-3.97v4.2h3.97v-4.2Zm13.333.369h-3.28v3.47h3.28v-3.47Z" opacity=".9"/><path d="M465.688 665.809h-4.5v4.76h4.5v-4.76Z" opacity=".77"/><path d="M491.731 667.199h-1.86v1.97h1.86v-1.97Z" opacity=".82"/><path d="M504.81 667.85h-.65v.69h.65v-.69Z" opacity=".74"/><path d="M518.76 667.559h-1.19v1.26h1.19v-1.26Z" opacity=".6"/><path d="M532.588 667.398h-1.49v1.58h1.49v-1.58Z" opacity=".86"/><path d="M545.808 667.889h-.57v.61h.57v-.61Z" opacity=".93"/><path d="M560.689 666.619h-2.97v3.14h2.97v-3.14Z" opacity=".62"/><path d="M573.868 667.148h-1.97v2.09h1.97v-2.09Z" opacity=".55"/><path d="M587.13 667.6h-1.11v1.18h1.11v-1.18Z" opacity=".89"/><path d="M601.02 667.389h-1.52v1.6h1.52v-1.6Zm13.899-.241h-1.97v2.09h1.97v-2.09Z" opacity=".66"/><path d="M627.787 668h-.349v.37h.349V668Z" opacity=".9"/><path d="M642.86 666.539h-3.13v3.31h3.13v-3.31Z" opacity=".79"/><path d="M656.128 666.969h-2.3v2.44h2.3v-2.44Z" opacity=".69"/><path d="M669.138 667.68h-.97v1.03h.97v-1.03Z" opacity=".79"/><path d="M682.788 667.719h-.89v.94h.89v-.94Z" opacity=".59"/><path d="M711.109 666.699h-2.82v2.99h2.82v-2.99Z" opacity=".74"/><path d="M724.651 666.85h-2.53v2.67h2.53v-2.67Z" opacity=".85"/><path d="M751.541 667.359h-1.58v1.67h1.58v-1.67Z" opacity=".71"/><path d="M287.5 680.639h-3.82v4.04h3.82v-4.04Z" opacity=".51"/><path d="M314.49 681.029h-3.08v3.26h3.08v-3.26Z" opacity=".78"/><path d="M327.178 682.08h-1.1v1.16h1.1v-1.16Z" opacity=".85"/><path d="M355.359 681.219h-2.73v2.89h2.73v-2.89Z" opacity=".55"/><path d="M370.168 680.02h-5v5.29h5v-5.29Z" opacity=".57"/><path d="M384.688 679.129h-6.68v7.07h6.68v-7.07Z" opacity=".71"/><path d="M395.699 681.969h-1.32v1.4h1.32v-1.4Z" opacity=".63"/><path d="M409.67 681.658h-1.9v2.01h1.9v-2.01Z" opacity=".5"/><path d="M422.95 682.08h-1.11v1.17h1.11v-1.17Z" opacity=".73"/><path d="M436.558 682.158h-.96v1.01h.96v-1.01Zm13.62.071h-.83v.88h.83v-.88Z" opacity=".77"/><path d="M465.929 680.029h-4.98v5.26h4.98v-5.26Z" opacity=".51"/><path d="M480.129 679.479h-6.02v6.37h6.02v-6.37Z" opacity=".64"/><path d="M492.198 681.199h-2.78v2.94h2.78v-2.94Z" opacity=".84"/><path d="M505.019 682.1h-1.07v1.13h1.07v-1.13Z" opacity=".7"/><path d="M519.119 681.658h-1.9v2.01h1.9v-2.01Z" opacity=".58"/><path d="M532.358 682.119h-1.03v1.09h1.03v-1.09Z" opacity=".5"/><path d="M546.06 682.1H545v1.13h1.06v-1.13Z" opacity=".75"/><path d="M559.891 681.939h-1.36v1.44h1.36v-1.44Z" opacity=".54"/><path d="M574.089 681.398h-2.39v2.53h2.39v-2.53Z" opacity=".72"/><path d="M587.39 681.799h-1.64v1.74h1.64v-1.74Z" opacity=".69"/><path d="M601.258 681.6h-2.02v2.14h2.02v-2.14Z" opacity=".51"/><path d="M617.03 679.389h-6.19v6.55h6.19v-6.55Z" opacity=".5"/><path d="M628.349 681.889h-1.47v1.55h1.47v-1.55Z" opacity=".63"/><path d="M642.898 680.959h-3.21v3.4h3.21v-3.4Z" opacity=".59"/><path d="M655.96 681.629H654v2.08h1.96v-2.08Z" opacity=".61"/><path d="M668.959 682.35h-.6v.64h.6v-.64Z" opacity=".52"/><path d="M683.661 681.27h-2.63v2.779h2.63v-2.779Z" opacity=".86"/><path d="M698.458 680.08h-4.88v5.17h4.88v-5.17Z" opacity=".94"/><path d="M710.781 681.52h-2.16v2.279h2.16v-2.279Z" opacity=".51"/><path d="M724.549 681.43h-2.33v2.47h2.33v-2.47Z" opacity=".55"/><path d="M738.359 681.289h-2.589v2.74h2.589v-2.74Z" opacity=".74"/><path d="M287.949 694.639h-4.73v5.01h4.73v-5.01Z" opacity=".54"/><path d="M301.169 695.119h-3.81v4.03h3.81v-4.03Z" opacity=".73"/><path d="M313.33 696.738h-.76v.8h.76v-.8Z" opacity=".9"/><path d="M327.418 696.309h-1.57v1.66h1.57v-1.66Z" opacity=".87"/><path d="M342.208 695.129h-3.79v4.01h3.79v-4.01Z" opacity=".6"/><path d="M355.41 695.639h-2.84v3h2.84v-3Z" opacity=".58"/><path d="M368.529 696.229h-1.72v1.82h1.72v-1.82Z" opacity=".75"/><path d="M381.899 696.559h-1.09v1.15h1.09v-1.15Z" opacity=".71"/><path d="M395.33 696.83h-.58v.61h.58v-.61Z" opacity=".67"/><path d="M410.838 694.889h-4.24v4.49h4.24v-4.49Zm26.273 1.16h-2.06v2.18h2.06v-2.18Z" opacity=".89"/><path d="M450.829 696.01h-2.13v2.25h2.13v-2.25Z" opacity=".52"/><path d="M478.359 695.83h-2.48v2.62h2.48v-2.62Z" opacity=".86"/><path d="M492.258 695.6h-2.91v3.08h2.91v-3.08Z" opacity=".89"/><path d="M505.97 695.568H503v3.14h2.97v-3.14Z" opacity=".9"/><path d="M518.68 696.6h-1.02v1.08h1.02v-1.08Z" opacity=".72"/><path d="M533.561 695.33h-3.42v3.62h3.42v-3.62Z" opacity=".87"/><path d="M545.829 696.809h-.61v.65h.61v-.65Z" opacity=".56"/><path d="M561.291 694.93h-4.17v4.41h4.17v-4.41Z" opacity=".75"/><path d="M575.11 694.789h-4.43v4.69h4.43v-4.69Z" opacity=".7"/><path d="M588.351 695.26h-3.55v3.76h3.55v-3.76Z" opacity=".79"/><path d="M601.549 695.779h-2.58v2.72h2.58v-2.72Z" opacity=".78"/><path d="M614.29 696.76h-.72v.76h.72v-.76Z" opacity=".82"/><path d="M628.699 696h-2.16v2.29h2.16V696Z" opacity=".93"/><path d="M641.668 696.738h-.75v.79h.75v-.79Z" opacity=".73"/><path d="M669.969 695.76h-2.61v2.76h2.61v-2.76Z" opacity=".91"/><path d="M684.659 694.68h-4.639v4.91h4.639v-4.91Z" opacity=".65"/><path d="M696.651 696.469h-1.26v1.33h1.26v-1.33Z" opacity=".8"/><path d="M710.039 696.779h-.68v.72h.68v-.72Z" opacity=".57"/><path d="M737.48 696.709h-.82v.86h.82v-.86Z" opacity=".62"/><path d="M753.07 694.68h-4.64v4.91h4.64v-4.91Z" opacity=".5"/><path d="M289.051 707.949h-6.93v7.33h6.93v-7.33Z" opacity=".82"/><path d="M300.671 710.129h-2.8v2.96h2.8v-2.96Z" opacity=".79"/><path d="M313.468 711.059h-1.05v1.11h1.05v-1.11Z" opacity=".74"/><path d="M327.098 711.119h-.93v.98h.93v-.98Z" opacity=".58"/><path d="M341.45 710.408h-2.27v2.4h2.27v-2.4Z" opacity=".6"/><path d="M355.71 709.789h-3.44v3.64h3.44v-3.64Z" opacity=".59"/><path d="M367.899 711.379h-.45v.47h.45v-.47Z" opacity=".72"/><path d="M381.72 711.229H381v.76h.72v-.76Z" opacity=".89"/><path d="M395.578 711.039h-1.09v1.15h1.09v-1.15Z" opacity=".82"/><path d="M410.12 710.129h-2.8v2.96h2.8v-2.96Z" opacity=".72"/><path d="M425.021 708.84h-5.24v5.54h5.24v-5.54Z" opacity=".53"/><path d="M437.209 710.42h-2.26v2.39h2.26v-2.39Z" opacity=".81"/><path d="M450.748 710.559h-1.99v2.11h1.99v-2.11Z" opacity=".94"/><path d="M463.769 711.26h-.66v.7h.66v-.7Z" opacity=".83"/><path d="M478.779 709.859h-3.31v3.51h3.31v-3.51Z" opacity=".66"/><path d="M492.09 710.25h-2.57v2.72h2.57v-2.72Z" opacity=".64"/><path d="M506.2 709.799h-3.43v3.63h3.43v-3.63Z" opacity=".93"/><path d="M533.26 710.109h-2.83v3h2.83v-3Z" opacity=".89"/><path d="M548.24 708.75h-5.42v5.73h5.42v-5.73Z" opacity=".78"/><path d="M559.658 711.129h-.9v.95h.9v-.95Z" opacity=".92"/><path d="M573.188 711.299h-.59v.62h.59v-.62Z" opacity=".79"/><path d="M587.759 710.35h-2.38v2.51h2.38v-2.51Z" opacity=".77"/><path d="M614.909 710.568h-1.96v2.07h1.96v-2.07Z" opacity=".54"/><path d="M628.849 710.299h-2.47v2.62h2.47v-2.62Z" opacity=".77"/><path d="M643.17 709.639h-3.74v3.95h3.74v-3.95Z" opacity=".92"/><path d="M655.63 710.92h-1.31v1.39h1.31v-1.39Z" opacity=".76"/><path d="M670.99 709.139h-4.67v4.94h4.67v-4.94Z" opacity=".92"/><path d="M683.971 709.889h-3.26v3.45h3.26v-3.45Z" opacity=".78"/><path d="M697.32 710.238h-2.59v2.74h2.59v-2.74Z" opacity=".55"/><path d="M709.988 711.309h-.57v.61h.57v-.61Z" opacity=".7"/><path d="M724.569 710.359h-2.37v2.51h2.37v-2.51Z" opacity=".91"/><path d="M738.019 710.6h-1.91v2.02h1.91v-2.02Z" opacity=".73"/><path d="M752.191 710.08h-2.89v3.06h2.89v-3.06ZM288.24 723.279h-5.31v5.62h5.31v-5.62Z" opacity=".86"/><path d="M299.72 725.609h-.9v.95h.9v-.95Z" opacity=".64"/><path d="M313.871 725.109h-1.84v1.94h1.84v-1.94Z" opacity=".83"/><path d="M327.711 724.949h-2.16v2.28h2.16v-2.28Z" opacity=".56"/><path d="M340.538 725.84h-.46v.49h.46v-.49Z" opacity=".69"/><path d="M356 723.959h-4.02v4.25H356v-4.25Z" opacity=".52"/><path d="M382.081 725.309h-1.46v1.55h1.46v-1.55Z" opacity=".64"/><path d="M397.07 723.93H393v4.31h4.07v-4.31Z" opacity=".69"/><path d="M424.519 723.85h-4.23v4.47h4.23v-4.47Z" opacity=".72"/><path d="M439.689 722.27h-7.22v7.63h7.22v-7.63Z" opacity=".7"/><path d="M452.258 723.439h-5v5.29h5v-5.29Z" opacity=".73"/><path d="M464.681 724.779h-2.47v2.61h2.47v-2.61Z" opacity=".5"/><path d="M477.539 725.639h-.84v.89h.84v-.89Z" opacity=".78"/><path d="M491.89 724.949h-2.16v2.28h2.16v-2.28Z" opacity=".91"/><path d="M505.679 724.818h-2.39v2.53h2.39v-2.53Z" opacity=".62"/><path d="M518.949 725.26h-1.57v1.66h1.57v-1.66Z" opacity=".73"/><path d="M533.338 724.5h-2.99v3.17h2.99v-3.17Z" opacity=".69"/><path d="M547.679 723.809h-4.3v4.55h4.3v-4.55Z" opacity=".83"/><path d="M559.709 725.559h-.99v1.05h.99v-1.05Z" opacity=".72"/><path d="M575.29 723.549h-4.79v5.06h4.79v-5.06Z" opacity=".94"/><path d="M588.439 724.109h-3.74v3.96h3.74v-3.96Z" opacity=".93"/><path d="M601.348 724.92h-2.2v2.33h2.2v-2.33Z" opacity=".55"/><path d="M628.451 725.199h-1.67v1.76h1.67v-1.76Z" opacity=".9"/><path d="M642.02 725.318h-1.45v1.53h1.45v-1.53Z" opacity=".78"/><path d="M670.269 724.389h-3.21v3.39h3.21v-3.39Z" opacity=".62"/><path d="M683.408 724.949h-2.15v2.28h2.15v-2.28Z" opacity=".67"/><path d="M697.331 724.699h-2.62v2.77h2.62v-2.77Z" opacity=".62"/><path d="M711.15 724.549h-2.9v3.07h2.9v-3.07Z" opacity=".72"/><path d="M725.018 724.35h-3.28v3.47h3.28v-3.47Z" opacity=".64"/><path d="M738.188 724.898h-2.25v2.38h2.25v-2.38Z" opacity=".78"/><path d="M751.73 725.039h-1.98v2.1h1.98v-2.1Z" opacity=".74"/><path d="M300.788 738.949h-3.05v3.23h3.05v-3.23Z" opacity=".55"/><path d="M314.511 738.908h-3.12v3.3h3.12v-3.3Z" opacity=".53"/><path d="M327.58 739.559h-1.9v2.01h1.9v-2.01Z" opacity=".81"/><path d="M340.958 739.879h-1.29v1.36h1.29v-1.36Z" opacity=".72"/><path d="M369.36 738.77h-3.38v3.579h3.38v-3.579Z" opacity=".68"/><path d="M384.378 737.359h-6.05v6.4h6.05v-6.4Z" opacity=".51"/><path d="M396.91 738.58h-3.75v3.96h3.75v-3.96Z" opacity=".87"/><path d="M423.028 739.889h-1.27v1.35h1.27v-1.35Z" opacity=".85"/><path d="M437.658 738.879h-3.17v3.36h3.17v-3.36Z" opacity=".7"/><path d="M451.1 739.148h-2.67v2.82h2.67v-2.82Z" opacity=".92"/><path d="M464.988 738.93h-3.09v3.27h3.09v-3.27Z" opacity=".71"/><path d="M477.351 740.318h-.46v.49h.46v-.49Z" opacity=".62"/><path d="M506.578 738.35h-4.18v4.42h4.18v-4.42Z" opacity=".71"/><path d="M518.541 740.17h-.74v.78h.74v-.78Z" opacity=".7"/><path d="M532.809 739.539h-1.93v2.04h1.93v-2.04Z" opacity=".73"/><path d="M546.71 739.309h-2.37v2.51h2.37v-2.51Z" opacity=".88"/><path d="M562.541 737.039h-6.65v7.03h6.65v-7.03Z" opacity=".59"/><path d="M573.309 740.109h-.84v.89h.84v-.89Z" opacity=".73"/><path d="M586.761 740.359h-.37v.39h.37v-.39Z" opacity=".59"/><path d="M602.551 738.129h-4.59v4.85h4.59v-4.85Z" opacity=".51"/><path d="M628.558 739.559h-1.89v2h1.89v-2Z" opacity=".64"/><path d="M670.201 738.93h-3.08v3.26h3.08v-3.26Z" opacity=".61"/><path d="M683.02 739.84h-1.36v1.43h1.36v-1.43Z" opacity=".71"/><path d="M697.89 738.59h-3.73v3.95h3.73v-3.95Z" opacity=".86"/><path d="M710.32 739.908h-1.23v1.3h1.23v-1.3Z" opacity=".69"/><path d="M725.05 738.809h-3.32v3.51h3.32v-3.51Z" opacity=".53"/><path d="M738.21 739.35h-2.28v2.41h2.28v-2.41Z" opacity=".55"/><path d="M753.248 737.908h-5.01v5.3h5.01v-5.3Z" opacity=".8"/><path d="M286.961 753.58h-2.75v2.91h2.75v-2.91Z" opacity=".91"/><path d="M300.518 753.709h-2.51v2.65h2.51v-2.65Z" opacity=".71"/><path d="M314.4 753.5h-2.9v3.06h2.9v-3.06Z" opacity=".76"/><path d="M328.889 752.648h-4.51v4.77h4.51v-4.77Z" opacity=".66"/><path d="M342.81 752.398h-4.99v5.28h4.99v-5.28Z" opacity=".54"/><path d="M355.488 753.449h-3v3.17h3v-3.17Z" opacity=".82"/><path d="M368.719 753.93h-2.09v2.22h2.09v-2.22Z" opacity=".61"/><path d="M381.61 754.76h-.52v.55h.52v-.55Z" opacity=".59"/><path d="M397.168 752.779h-4.27v4.51h4.27v-4.51Z" opacity=".63"/><path d="M409.799 753.879h-2.17v2.3h2.17v-2.3Z" opacity=".71"/><path d="M423.21 754.18h-1.62v1.71h1.62v-1.71Z" opacity=".88"/><path d="M437.761 753.25h-3.37v3.57h3.37v-3.57Z" opacity=".54"/><path d="M451.411 753.289h-3.29v3.48h3.29v-3.48Z" opacity=".81"/><path d="M464.64 753.77h-2.39v2.529h2.39v-2.529Z" opacity=".91"/><path d="M478.101 754h-1.96v2.07h1.96V754Z" opacity=".82"/><path d="M491.629 754.148h-1.66v1.76h1.66v-1.76Z" opacity=".92"/><path d="M505.14 754.33h-1.32v1.4h1.32v-1.4Z" opacity=".52"/><path d="M519.609 753.51h-2.89v3.06h2.89v-3.06Z" opacity=".55"/><path d="M546.648 753.84h-2.25v2.38h2.25v-2.38Z" opacity=".66"/><path d="M559.83 754.379h-1.24v1.31h1.24v-1.31Z" opacity=".91"/><path d="M573.411 754.479h-1.04v1.1h1.04v-1.1Z" opacity=".56"/><path d="M587.198 754.369h-1.26v1.33h1.26v-1.33Z" opacity=".88"/><path d="M615.741 753.129h-3.6v3.81h3.6v-3.81Z" opacity=".8"/><path d="M628.498 754.1h-1.76v1.86h1.76v-1.86Z" opacity=".88"/><path d="M642.529 753.729h-2.47v2.61h2.47v-2.61Z" opacity=".77"/><path d="M655.899 754.059h-1.84v1.95h1.84v-1.95Z" opacity=".65"/><path d="M671.578 751.949h-5.84v6.17h5.84v-6.17Z" opacity=".66"/><path d="M683.178 754.148h-1.67v1.77h1.67v-1.77Z" opacity=".57"/><path d="M710.089 754.619h-.78v.82h.78v-.82Z" opacity=".91"/><path d="M724.448 753.908h-2.12v2.24h2.12v-2.24Z" opacity=".66"/><path d="M737.659 754.408h-1.19v1.25h1.19v-1.25Z" opacity=".62"/><path d="M751.439 754.309h-1.38v1.46h1.38v-1.46Z" opacity=".92"/><path d="M288.168 766.779h-5.16v5.46h5.16v-5.46Z" opacity=".89"/><path d="M299.489 769.27h-.45v.48h.45v-.48Z" opacity=".83"/><path d="M313.718 768.68h-1.55v1.65h1.55v-1.65Z" opacity=".53"/><path d="M327.389 768.709h-1.51v1.6h1.51v-1.6Z" opacity=".88"/><path d="M355.519 767.889h-3.05v3.23h3.05v-3.23Z" opacity=".91"/><path d="M368.561 768.559h-1.78v1.89h1.78v-1.89Z" opacity=".57"/><path d="M381.919 768.908h-1.13v1.19h1.13v-1.19Z" opacity=".94"/><path d="M409.2 769h-.97v1.02h.97V769Z" opacity=".79"/><path d="M422.72 769.158h-.65v.69h.65v-.69Z" opacity=".76"/><path d="M436.238 769.34h-.32v.34h.32v-.34Z" opacity=".9"/><path d="M451.03 768.17h-2.53v2.68h2.53v-2.68Z" opacity=".68"/><path d="M465.218 767.629h-3.55v3.75h3.55v-3.75Z" opacity=".91"/><path d="M477.971 768.609h-1.69v1.79h1.69v-1.79Z" opacity=".87"/><path d="M519.539 768.049h-2.75v2.91h2.75v-2.91Z" opacity=".8"/><path d="M532.301 769.029h-.91v.96h.91v-.96Z" opacity=".85"/><path d="M547.509 767.408h-3.97v4.2h3.97v-4.2Z" opacity=".75"/><path d="M561.748 766.818h-5.08v5.37h5.08v-5.37Z" opacity=".55"/><path d="M575.37 766.879h-4.96v5.25h4.96v-5.25Z" opacity=".82"/><path d="M587.829 768.17h-2.52v2.67h2.52v-2.67Z" opacity=".89"/><path d="M601.008 768.699h-1.52v1.61h1.52v-1.61Z" opacity=".85"/><path d="M616.169 767.139h-4.47v4.73h4.47v-4.73Z" opacity=".55"/><path d="M628.058 769.039h-.89v.94h.89v-.94Z" opacity=".87"/><path d="M642.438 768.299h-2.29v2.42h2.29v-2.42Z" opacity=".71"/><path d="M656.2 768.209h-2.45v2.6h2.45v-2.6Z" opacity=".7"/><path d="M671.619 766.369h-5.92v6.27h5.92v-6.27Z" opacity=".76"/><path d="M683.641 768.129h-2.61v2.76h2.61v-2.76Z" opacity=".8"/><path d="M709.941 769.25h-.48v.51h.48v-.51Z" opacity=".83"/><path d="M724.55 768.279h-2.32v2.45h2.32v-2.45Z" opacity=".64"/><path d="M738.359 768.139h-2.589v2.74h2.589v-2.74Z" opacity=".61"/><path d="M752.388 767.77h-3.29v3.48h3.29v-3.48Z" opacity=".58"/><path d="M286.188 783.35h-1.2v1.27h1.2v-1.27Z" opacity=".56"/><path d="M299.579 783.658h-.61v.64h.61v-.64Z" opacity=".53"/><path d="M314.049 782.83h-2.19v2.31h2.19v-2.31Z" opacity=".54"/><path d="M327.471 783.1h-1.67v1.76h1.67v-1.76Z" opacity=".5"/><path d="M368.799 782.799h-2.24v2.37h2.24v-2.37Z" opacity=".65"/><path d="M409.698 782.939h-1.96v2.08h1.96v-2.08Z" opacity=".55"/><path d="M423.72 782.58h-2.65v2.81h2.65v-2.81Zm14.921-1.301h-5.11v5.4h5.11v-5.4Z" opacity=".57"/><path d="M451.928 781.689h-4.33v4.58h4.33v-4.58Z" opacity=".61"/><path d="M464.929 782.398h-2.98v3.16h2.98v-3.16Z" opacity=".78"/><path d="M477.338 783.76h-.42v.44h.42v-.44Z" opacity=".87"/><path d="M491.018 783.76h-.42v.44h.42v-.44Z" opacity=".61"/><path d="M504.939 783.51h-.9v.95h.9v-.95Z" opacity=".84"/><path d="M519.738 782.318h-3.14v3.32h3.14v-3.32Zm26.64.762h-1.71v1.81h1.71v-1.81Z" opacity=".74"/><path d="M573.608 783.219h-1.44v1.52h1.44v-1.52Z" opacity=".52"/><path d="M588.931 781.488h-4.72v4.99h4.72v-4.99Z" opacity=".57"/><path d="M602.41 781.699h-4.32v4.57h4.32v-4.57Z" opacity=".54"/><path d="M614.958 782.898h-2.04v2.16h2.04v-2.16Z" opacity=".65"/><path d="M631.128 780.26h-7.03v7.44h7.03v-7.44Z" opacity=".54"/><path d="M642.27 782.949h-1.95v2.06h1.95v-2.06Z" opacity=".79"/><path d="M672.279 780.148h-7.24v7.66h7.24v-7.66Z" opacity=".75"/><path d="M683.758 782.479h-2.84v3h2.84v-3Z" opacity=".6"/><path d="M696.429 783.549h-.82v.86h.82v-.86Z" opacity=".58"/><path d="M711.201 782.398h-2.99v3.17h2.99v-3.17Z" opacity=".54"/><path d="M725.35 781.898h-3.94v4.17h3.94v-4.17Z" opacity=".65"/><path d="M737.611 783.408h-1.08v1.14h1.08v-1.14Z" opacity=".55"/><path d="M287.99 795.908h-4.81v5.09h4.81v-5.09Z" opacity=".91"/><path d="M299.448 798.26h-.37v.39h.37v-.39Z" opacity=".68"/><path d="M327.58 797.449h-1.9v2.01h1.9v-2.01Z" opacity=".7"/><path d="M341.198 797.51h-1.78v1.88h1.78v-1.88Z" opacity=".81"/><path d="M356.031 796.299h-4.07v4.31h4.07v-4.31Z" opacity=".88"/><path d="M368.5 797.58h-1.66v1.76h1.66v-1.76Z" opacity=".71"/><path d="M382.318 797.439h-1.92v2.03h1.92v-2.03Z" opacity=".88"/><path d="M395.968 797.469h-1.87v1.98h1.87v-1.98Z" opacity=".67"/><path d="M436.758 797.738h-1.36v1.44h1.36v-1.44Z" opacity=".52"/><path d="M491.928 797.26h-2.26v2.39h2.26v-2.39Z" opacity=".71"/><path d="M506.021 796.84h-3.06v3.23h3.06v-3.23Z" opacity=".84"/><path d="M532.231 798.049h-.77v.81h.77v-.81Z" opacity=".69"/><path d="M545.941 798.02h-.82v.87h.82v-.87Z" opacity=".65"/><path d="M559.51 798.139h-.6v.64h.6v-.64Z" opacity=".91"/><path d="M574.11 797.17h-2.43v2.57h2.43v-2.57Z" opacity=".76"/><path d="M589.12 795.76h-5.1v5.39h5.1v-5.39Z" opacity=".75"/><path d="M615.341 796.969h-2.81v2.98h2.81v-2.98Z" opacity=".94"/><path d="M628.878 797.119h-2.53v2.67h2.53v-2.67Z" opacity=".87"/><path d="M642.209 797.479h-1.83v1.94h1.83v-1.94Z" opacity=".55"/><path d="M657.639 795.639h-5.33v5.64h5.33v-5.64Z" opacity=".68"/><path d="M669.617 797.43h-1.929v2.04h1.929v-2.04Z" opacity=".75"/><path d="M683.209 797.539h-1.74v1.84h1.74v-1.84Z" opacity=".66"/><path d="M698.021 796.34h-3.99v4.22h3.99v-4.22Zm12.297 1.459h-1.24v1.32h1.24v-1.32Z" opacity=".71"/><path d="M724.309 797.469h-1.86v1.97h1.86v-1.97Z" opacity=".94"/><path d="M750.919 798.26h-.36v.39h.36v-.39Z" opacity=".7"/><path d="M286.129 812.35h-1.09v1.16h1.09v-1.16Z" opacity=".93"/><path d="M300.268 811.859h-2.01v2.13h2.01v-2.13Z" opacity=".56"/><path d="M313.318 812.539h-.74v.78h.74v-.78Z" opacity=".68"/><path d="M341.29 811.898h-1.95v2.06h1.95v-2.06Z" opacity=".61"/><path d="M354.297 812.609h-.609v.64h.609v-.64Z" opacity=".63"/><path d="M367.959 812.619h-.58v.61h.58v-.61Z" opacity=".5"/><path d="M382.39 811.84h-2.07v2.19h2.07v-2.19Z" opacity=".92"/><path d="M395.388 812.559h-.7v.74h.7v-.74Z" opacity=".9"/><path d="M422.698 812.609h-.6v.64h.6v-.64Z" opacity=".58"/><path d="M436.68 812.299h-1.2v1.27h1.2v-1.27Z" opacity=".55"/><path d="M450.8 811.83h-2.07v2.19h2.07v-2.19Z" opacity=".56"/><path d="M465.2 811.068h-3.52v3.72h3.52v-3.72Z" opacity=".6"/><path d="M479.639 810.27h-5.03v5.32h5.03v-5.32Z" opacity=".53"/><path d="M493.208 810.379h-4.81v5.09h4.81v-5.09Z" opacity=".76"/><path d="M519.56 811.449h-2.79v2.95h2.79v-2.95Z" opacity=".83"/><path d="M532.2 812.559h-.7v.74h.7v-.74Z" opacity=".74"/><path d="M545.761 812.689h-.46v.48h.46v-.48Z" opacity=".59"/><path d="M560.588 811.469h-2.76v2.92h2.76v-2.92Z" opacity=".88"/><path d="M574.95 810.76h-4.11v4.35h4.11v-4.35Z" opacity=".8"/><path d="M588.248 811.148h-3.35v3.55h3.35v-3.55Z" opacity=".66"/><path d="M600.85 812.299h-1.19v1.25h1.19v-1.25Z" opacity=".62"/><path d="M614.53 812.299h-1.19v1.26h1.19v-1.26Z" opacity=".89"/><path d="M628.719 811.76h-2.199v2.33h2.199v-2.33Z" opacity=".53"/><path d="M641.83 812.369h-1.06v1.12h1.06v-1.12Z" opacity=".69"/><path d="M655.571 812.299h-1.18v1.25h1.18v-1.25Z" opacity=".88"/><path d="M671.628 809.789h-5.94v6.29h5.94v-6.29Z" opacity=".56"/><path d="M697.2 811.68h-2.36v2.49h2.36v-2.49Z" opacity=".57"/><path d="M710.208 812.389h-1.02v1.08h1.02v-1.08Z" opacity=".92"/><path d="M723.891 812.389h-1.02v1.08h1.02v-1.08Z" opacity=".87"/><path d="M287.168 825.729h-3.16v3.34h3.16v-3.34Z" opacity=".73"/><path d="M299.989 826.629h-1.45v1.54h1.45v-1.54Z" opacity=".75"/><path d="M314.658 825.59h-3.42v3.62h3.42v-3.62Z" opacity=".55"/><path d="M327.801 826.158h-2.34v2.48h2.34v-2.48Z" opacity=".71"/><path d="M340.649 827.039h-.68v.72h.68v-.72Z" opacity=".64"/><path d="M354.97 826.369h-1.95v2.07h1.95v-2.07Z" opacity=".82"/><path d="M368.221 826.818h-1.1v1.17h1.1v-1.17Z" opacity=".83"/><path d="M382.859 825.818h-3v3.17h3v-3.17Z" opacity=".51"/><path d="M396.33 826.039h-2.58v2.73h2.58v-2.73Z" opacity=".68"/><path d="M437.719 825.68h-3.27v3.45h3.27v-3.45Z" opacity=".86"/><path d="M450.399 826.729h-1.27v1.34h1.27v-1.34Z" opacity=".53"/><path d="M465.39 825.35h-3.89v4.11h3.89v-4.11Z" opacity=".78"/><path d="M478.121 826.34h-2v2.12h2v-2.12Z" opacity=".5"/><path d="M491.221 826.959h-.83v.88h.83v-.88Z" opacity=".9"/><path d="M505.54 826.289h-2.11v2.23h2.11v-2.23Z" opacity=".61"/><path d="M518.971 826.559h-1.6v1.69h1.6v-1.69Z" opacity=".75"/><path d="M533.481 825.67h-3.27v3.46h3.27v-3.46Z" opacity=".9"/><path d="M548.148 824.619h-5.25v5.56h5.25v-5.56Z" opacity=".74"/><path d="M575.12 825.039h-4.46v4.72h4.46v-4.72Z" opacity=".82"/><path d="M587.339 826.59h-1.53v1.62h1.53v-1.62Z" opacity=".5"/><path d="M601.178 826.42h-1.85v1.96h1.85v-1.96Z" opacity=".73"/><path d="M615.059 826.209h-2.25v2.38h2.25v-2.38Z" opacity=".76"/><path d="M628.849 826.1h-2.47v2.62h2.47v-2.62Z" opacity=".9"/><path d="M644.418 824.1h-6.25v6.61h6.25v-6.61Z" opacity=".67"/><path d="M656.218 826.09h-2.48v2.62h2.48v-2.62Z" opacity=".8"/><path d="M669.091 826.949h-.861v.91h.861v-.91Z" opacity=".92"/><path d="M683.321 826.369h-1.95v2.06h1.95v-2.06Z" opacity=".87"/><path d="M710.66 826.389h-1.91v2.02h1.91v-2.02Z" opacity=".73"/><path d="M739.529 824.799h-4.92v5.2h4.92v-5.2Z" opacity=".64"/><path d="M286.609 840.789h-2.05v2.16h2.05v-2.16Z" opacity=".93"/><path d="M300.809 840.238h-3.09v3.27h3.09v-3.27Z" opacity=".51"/><path d="M313.538 841.25h-1.19v1.26h1.19v-1.26Z" opacity=".92"/><path d="M327.84 840.6h-2.41v2.55h2.41v-2.55Z" opacity=".77"/><path d="M340.61 841.559h-.59v.62h.59v-.62Z" opacity=".87"/><path d="M354.119 841.738h-.26v.28h.26v-.28Z" opacity=".7"/><path d="M368.529 840.959h-1.72v1.82h1.72v-1.82Z" opacity=".85"/><path d="M381.999 841.199h-1.28v1.35h1.28v-1.35Z" opacity=".89"/><path d="M411.87 838.549h-6.3v6.66h6.3v-6.66Z" opacity=".53"/><path d="M424.74 839.408h-4.67v4.94h4.67v-4.94Z" opacity=".63"/><path d="M438.268 839.568h-4.37v4.62h4.37v-4.62Z" opacity=".84"/><path d="M451.741 839.779h-3.96v4.19h3.96v-4.19Z" opacity=".92"/><path d="M464.288 840.979h-1.69v1.79h1.69v-1.79Z" opacity=".59"/><path d="M478.848 840.049h-3.45v3.65h3.45v-3.65Z" opacity=".51"/><path d="M492.008 840.6h-2.41v2.55h2.41v-2.55Z" opacity=".76"/><path d="M507.308 838.889h-5.64v5.96h5.64v-5.96Z" opacity=".84"/><path d="M519.65 840.309h-2.97v3.14h2.97v-3.14Zm12.63 1.111h-.87v.92h.87v-.92Z" opacity=".55"/><path d="M546.448 840.898h-1.85v1.96h1.85v-1.96Z" opacity=".89"/><path d="M559.86 841.189h-1.29v1.36h1.29v-1.36Z" opacity=".57"/><path d="M574.641 840.029h-3.5v3.7h3.5v-3.7Z" opacity=".92"/><path d="M588.539 839.799h-3.93v4.16h3.93v-4.16Z" opacity=".89"/><path d="M600.898 841.189h-1.3v1.38h1.3v-1.38Z" opacity=".6"/><path d="M615.259 840.479h-2.65v2.8h2.65v-2.8Z" opacity=".73"/><path d="M629.16 840.238h-3.09v3.27h3.09v-3.27Z" opacity=".81"/><path d="M643.201 839.859h-3.81v4.04h3.81v-4.04Z" opacity=".67"/><path d="M656.218 840.559h-2.48v2.63h2.48v-2.63Z" opacity=".6"/><path d="M670.681 839.738h-4.04v4.28h4.04v-4.28Z" opacity=".62"/><path d="M696.511 841.359h-.98v1.03h.98v-1.03Z" opacity=".89"/><path d="M724.358 840.84h-1.96v2.08h1.96v-2.08Z" opacity=".86"/><path d="M738.718 840.119h-3.32v3.51h3.32v-3.51Z" opacity=".74"/></g><path fill="#fff" d="M355.082 609.29c7.72 0 13.98-6.259 13.98-13.98s-6.26-13.98-13.98-13.98c-7.721 0-13.98 6.259-13.98 13.98s6.259 13.98 13.98 13.98Zm325.957-102.18c7.721 0 13.98-6.259 13.98-13.98s-6.259-13.98-13.98-13.98-13.98 6.259-13.98 13.98 6.259 13.98 13.98 13.98ZM559.501 752.451c5.909 0 10.7-4.791 10.7-10.7 0-5.91-4.791-10.7-10.7-10.7-5.91 0-10.7 4.79-10.7 10.7 0 5.909 4.79 10.7 10.7 10.7ZM464.549 462.56c5.793 0 10.49-4.696 10.49-10.49 0-5.793-4.697-10.49-10.49-10.49-5.794 0-10.49 4.697-10.49 10.49 0 5.794 4.696 10.49 10.49 10.49Z"/></g><defs><clipPath id="a"><path fill="#fff" d="M0 0h1080v1080H0z"/></clipPath></defs></svg>