<svg xmlns="http://www.w3.org/2000/svg" width="40" height="45" fill="none"><path fill="#000" d="M38.826 11.216 19.66.15a.249.249 0 0 0-.248 0L.245 11.217a.25.25 0 0 0-.124.216v22.131c0 .088.048.17.124.216l19.167 11.066a.245.245 0 0 0 .248 0l19.166-11.067a.25.25 0 0 0 .124-.216V11.432a.252.252 0 0 0-.124-.216ZM19.536 22.21l-4.667-2.695L.867 11.432 19.537.652l18.67 10.779-14.002 8.084-4.668 2.695-.001.001Zm18.917 11.21L19.783 44.2V22.641l18.67-10.781v21.558Z"/><path fill="#000" d="M19.534 45a.364.364 0 0 1-.184-.049L.184 33.885A.371.371 0 0 1 0 33.568V11.436c0-.13.07-.253.184-.318L19.35.05a.364.364 0 0 1 .367 0l19.167 11.065a.37.37 0 0 1 .184.319v22.13a.37.37 0 0 1-.184.32L19.717 44.95a.365.365 0 0 1-.183.049V45Zm0-44.76a.125.125 0 0 0-.064.017L.302 11.323a.13.13 0 0 0-.065.112v22.131c0 .046.025.09.066.112L19.47 44.743a.13.13 0 0 0 .128 0l19.167-11.067a.13.13 0 0 0 .065-.112V11.432a.13.13 0 0 0-.065-.112L19.598.256a.128.128 0 0 0-.064-.018v.001Zm.129 44.169V22.577l.06-.035L38.57 11.658V33.49l-.06.035-18.848 10.883Zm.238-21.695v21.281l18.431-10.642V12.07L19.901 22.714Zm-.367-.363L.626 11.435 19.534.518l18.908 10.915-18.908 10.918ZM1.103 11.435l18.43 10.641 18.432-10.643L19.534.793 1.103 11.435Z"/><path fill="#000" d="M31.282 11.428a.252.252 0 0 0-.123-.215l-11.501-6.64a.243.243 0 0 0-.248 0l-11.5 6.64a.25.25 0 0 0 0 .432l11.5 6.64a.245.245 0 0 0 .248 0l11.5-6.64a.25.25 0 0 0 .124-.217Zm-11.996 6.21L8.53 11.43l10.755-6.21v12.419Z"/><mask id="a" width="20" height="34" x="19" y="11" maskUnits="userSpaceOnUse" style="mask-type:luminance"><path fill="#fff" d="m19.784 22.64 18.67-10.78.373 21.916L19.66 44.843l.124-22.203Z"/></mask><g mask="url(#a)"><mask id="b" width="43" height="42" x="8" y="7" maskUnits="userSpaceOnUse" style="mask-type:luminance"><path fill="#fff" d="M50.646 7.563 41.679 39.39 8.953 48.498l9.099-32.89 32.594-8.046Z"/></mask><g fill="#1F375B" mask="url(#b)"><path d="m38.216 44.899.12-.118-.124-.127-.12.118.124.127Z" opacity=".57"/><path d="m38.186 43.116.119-.116-.123-.125-.118.116.122.125Z" opacity=".93"/><path d="m37.306 43.896.038-.037-.04-.04-.037.037.04.04Z" opacity=".57"/><path d="m36.436 45.034.322-.315-.334-.34-.322.315.334.34Z" opacity=".78"/><path d="m38.148 41.32.094-.093-.097-.1-.095.093.098.1Z" opacity=".8"/><path d="m37.273 42.136.067-.066-.07-.07-.067.066.07.07Z" opacity=".83"/><path d="m36.405 42.985.048-.047-.05-.052-.05.047.052.052Z" opacity=".71"/><path d="m35.526 43.875.08-.078-.083-.084-.08.078.083.084Z" opacity=".59"/><path d="m34.652 44.825.172-.169-.178-.182-.172.169.178.182Z" opacity=".74"/><path d="m38.116 39.654.22-.217-.229-.233-.22.217.229.233Z" opacity=".88"/><path d="m37.242 40.412.125-.123-.13-.133-.125.123.13.133Z" opacity=".65"/><path d="m36.366 41.322.17-.166-.176-.178-.17.166.176.178Z" opacity=".8"/><path d="m35.493 42.053.046-.045-.047-.049-.046.045.047.049Z" opacity=".89"/><path d="m34.614 42.905.038-.038-.039-.04-.038.038.04.04Z" opacity=".52"/><path d="m33.745 44.057.337-.33-.35-.357-.337.33.35.357Z" opacity=".63"/><path d="m32.868 44.681.097-.095-.1-.102-.097.095.1.102Z" opacity=".76"/><path d="m38.958 37.041.257-.252-.267-.271-.256.252.266.271Z" opacity=".64"/><path d="m38.08 37.754.108-.106-.11-.112-.108.105.11.113Z" opacity=".8"/><path d="m37.214 38.839.329-.323-.342-.348-.329.323.342.348Z" opacity=".84"/><path d="m36.33 39.583.229-.224-.238-.241-.227.224.237.241Z" opacity=".86"/><path d="m35.46 40.518.298-.291-.308-.314-.297.291.308.314Z" opacity=".53"/><path d="m34.586 41.385.305-.3-.317-.322-.304.3.316.322Z" opacity=".78"/><path d="m33.707 42.164.223-.219-.232-.235-.223.218.232.236Z" opacity=".66"/><path d="m32.828 42.966.164-.161-.17-.174-.164.161.17.174Z" opacity=".81"/><path d="m31.955 43.685.037-.037-.04-.04-.037.037.04.04Z" opacity=".53"/><path d="m31.083 44.626.105-.103-.11-.111-.104.103.109.111Z" opacity=".93"/><path d="m38.922 35.169.172-.169-.179-.182-.172.169.179.182Z" opacity=".53"/><path d="m38.057 36.226.357-.351-.37-.378-.358.351.37.378Z" opacity=".64"/><path d="m37.176 36.98.25-.246-.26-.264-.25.245.26.265Z" opacity=".63"/><path d="m34.55 39.41.114-.113-.12-.122-.114.113.12.122Z" opacity=".87"/><path d="m33.67 40.304.15-.148-.156-.159-.15.148.156.16Z" opacity=".89"/><path d="m32.804 41.242.223-.219-.231-.235-.223.219.231.235Z" opacity=".62"/><path d="m31.925 41.952.071-.07-.074-.075-.07.07.073.075Z" opacity=".92"/><path d="m31.047 42.857.133-.13-.138-.14-.133.13.138.14Zm-.875.848.121-.12-.125-.127-.121.119.125.128Z" opacity=".87"/><path d="m38.89 33.407.192-.188-.199-.203-.192.189.199.203Z" opacity=".9"/><path d="m38.012 34.243.168-.165-.174-.177-.168.165.174.177Z" opacity=".52"/><path d="m37.142 35.208.276-.27-.286-.292-.276.27.286.292Z" opacity=".54"/><path d="m36.265 35.986.184-.181-.191-.195-.185.181.192.195Z" opacity=".66"/><path d="m35.395 36.805.16-.157-.166-.169-.16.157.166.17Z" opacity=".94"/><path d="m34.515 37.543.036-.035-.037-.038-.036.035.037.038Z" opacity=".93"/><path d="m33.644 38.702.333-.327-.346-.352-.333.326.346.353Z" opacity=".67"/><path d="m32.765 39.426.196-.192-.204-.207-.195.192.203.207Z" opacity=".87"/><path d="m31.891 40.2.117-.114-.121-.123-.117.114.121.123Z" opacity=".5"/><path d="m31.02 41.078.128-.125-.131-.134-.128.125.132.134Z" opacity=".8"/><path d="m30.146 41.968.166-.163-.172-.176-.167.163.173.176Z" opacity=".6"/><path d="m29.266 42.725.062-.06-.064-.066-.062.06.064.066Z" opacity=".66"/><path d="m28.391 43.557.043-.041-.045-.045-.042.041.044.045Z" opacity=".53"/><path d="m27.514 44.492.111-.11-.115-.117-.112.11.116.117Z" opacity=".74"/><path d="m38.861 31.67.245-.24-.254-.259-.244.24.253.258Z" opacity=".73"/><path d="m37.984 32.596.305-.3-.316-.322-.305.3.316.322Z" opacity=".59"/><path d="m37.1 33.215.068-.067-.071-.072-.068.067.07.072Z" opacity=".8"/><path d="m36.227 34.076.078-.076-.08-.082-.078.076.08.082Z" opacity=".53"/><path d="m35.356 35.12.257-.253-.267-.272-.257.252.267.272Z" opacity=".84"/><path d="m34.478 35.763.045-.044-.046-.048-.045.044.046.048Z" opacity=".82"/><path d="m32.732 37.486.05-.048-.052-.052-.049.048.05.052Z" opacity=".69"/><path d="m31.856 38.4.097-.095-.1-.102-.097.095.1.102Z" opacity=".81"/><path d="m30.106 40.134.12-.118-.125-.128-.12.119.125.127Z" opacity=".69"/><path d="m29.236 41.177.3-.294-.312-.317-.299.294.31.317Z" opacity=".67"/><path d="m28.354 41.786.052-.052-.054-.055-.053.052.055.055Z" opacity=".52"/><path d="m27.483 42.764.165-.162-.172-.176-.166.162.173.176Z" opacity=".75"/><path d="m25.731 44.377.066-.065-.068-.068-.065.064.067.069Z" opacity=".76"/><path d="m38.819 29.769.122-.12-.127-.13-.123.12.128.13Z" opacity=".54"/><path d="m37.944 30.594.08-.078-.084-.085-.08.078.084.085Z" opacity=".65"/><path d="m37.075 31.512.155-.153-.16-.164-.156.153.16.164Z" opacity=".67"/><path d="m35.32 33.127.051-.049-.052-.053-.05.05.052.052Z" opacity=".94"/><path d="m34.446 33.99.054-.053-.055-.056-.054.053.055.056Z" opacity=".74"/><path d="m33.571 35 .19-.188-.197-.201-.19.187.197.202Z" opacity=".69"/><path d="m32.699 35.841.18-.177-.187-.19-.18.177.187.19Z" opacity=".85"/><path d="m31.822 36.775.248-.244-.258-.263-.248.244.258.263Z" opacity=".82"/><path d="m30.948 37.457.075-.074-.078-.08-.076.074.079.08Z" opacity=".84"/><path d="m30.073 38.3.068-.066-.07-.07-.067.066.07.07Z" opacity=".64"/><path d="m29.2 39.19.105-.104-.11-.111-.105.103.11.111Z" opacity=".71"/><path d="m28.325 40.167.218-.214-.226-.23-.218.213.226.23Z" opacity=".51"/><path d="m27.444 40.875.072-.07-.075-.076-.071.07.074.076Z" opacity=".7"/><path d="m26.578 42.013.332-.325-.344-.351-.332.326.344.35Z" opacity=".59"/><path d="m24.823 43.51.122-.12-.128-.13-.122.12.128.13Z" opacity=".92"/><path d="m23.949 44.308.051-.05-.053-.054-.05.05.052.054Z" opacity=".88"/><path d="m38.792 27.937.08-.078-.084-.084-.079.078.083.084Z" opacity=".74"/><path d="m37.92 28.944.22-.217-.229-.234-.221.217.23.234Z" opacity=".6"/><path d="m37.041 29.73.154-.152-.16-.163-.154.15.16.164Z" opacity=".78"/><path d="m36.16 30.46.04-.038-.04-.041-.04.038.04.041Z" opacity=".52"/><path d="m35.282 31.369.074-.072-.077-.078-.073.072.076.078Z" opacity=".64"/><path d="m34.413 32.226.08-.078-.084-.084-.079.078.083.084Z" opacity=".61"/><path d="m33.538 33.143.138-.135-.144-.147-.138.136.144.146Z" opacity=".9"/><path d="m32.665 34.009.136-.134-.141-.144-.136.134.14.144Z" opacity=".69"/><path d="m30.916 35.737.146-.143-.152-.155-.146.144.152.154Z" opacity=".75"/><path d="m30.044 36.671.222-.218-.23-.235-.223.218.23.235Z" opacity=".59"/><path d="m29.163 37.471.161-.158-.167-.17-.161.158.167.17Z" opacity=".78"/><path d="m28.286 38.344.175-.172-.182-.186-.175.172.182.186Z" opacity=".82"/><path d="m27.416 39.301.268-.262-.278-.282-.267.262.277.282Z" opacity=".76"/><path d="m25.661 40.853.105-.103-.108-.11-.105.103.108.11Z" opacity=".92"/><path d="m24.788 41.633.032-.031-.034-.035-.032.031.034.035Z" opacity=".77"/><path d="m23.917 42.58.122-.12-.125-.127-.122.12.125.127Z" opacity=".7"/><path d="m23.037 43.491.166-.163-.172-.175-.166.163.172.175Z" opacity=".81"/><path d="m21.291 45.294.244-.24-.253-.257-.244.24.253.257Z" opacity=".92"/><path d="m38.75 26.243.168-.165-.175-.178-.167.165.174.178Z" opacity=".73"/><path d="m37.872 26.97.034-.032-.035-.036-.034.033.035.036Z" opacity=".79"/><path d="m37.012 28.054.27-.265-.281-.286-.27.265.28.286Z" opacity=".88"/><path d="m36.127 28.715.076-.074-.078-.08-.076.074.078.08Z" opacity=".55"/><path d="m35.257 29.727.216-.211-.224-.228-.215.21.223.229Z" opacity=".82"/><path d="m33.504 31.369.144-.142-.15-.154-.145.142.15.154Z" opacity=".75"/><path d="m32.628 32.178.102-.1-.105-.107-.102.1.105.107Z" opacity=".94"/><path d="m31.753 33.073.122-.12-.128-.13-.122.12.128.13Z" opacity=".65"/><path d="m30.882 33.897.095-.092-.098-.1-.095.093.098.1Z" opacity=".73"/><path d="m30.003 34.78.102-.1-.106-.108-.102.1.106.108Zm-1.748 1.84.233-.23-.242-.246-.233.229.242.246Z" opacity=".78"/><path d="m27.383 37.51.281-.276-.292-.297-.282.276.293.298Z" opacity=".89"/><path d="m26.51 38.252.146-.143-.15-.153-.146.143.15.153Z" opacity=".64"/><path d="m25.626 39.07.12-.117-.124-.127-.12.118.124.127Z" opacity=".69"/><path d="m24.759 40.08.257-.252-.268-.272-.257.252.268.272Z" opacity=".84"/><path d="m23.88 40.893.202-.198-.209-.212-.201.198.208.212Z" opacity=".51"/><path d="m23 41.588.05-.049-.051-.053-.05.05.052.052Z" opacity=".7"/><path d="m21.253 43.312.063-.062-.066-.067-.063.062.066.067Z" opacity=".52"/><path d="m20.382 44.253.13-.128-.136-.138-.13.128.136.138Z" opacity=".61"/><path d="m19.506 45.135.162-.158-.167-.17-.162.158.167.17Z" opacity=".63"/><path d="m38.723 24.531.23-.226-.24-.244-.23.226.24.244Z" opacity=".74"/><path d="m37.846 25.189.04-.04-.041-.043-.04.04.04.043Z" opacity=".68"/><path d="m36.093 27.048.184-.18-.19-.196-.186.182.192.194Z" opacity=".64"/><path d="m35.217 27.82.096-.093-.099-.1-.095.093.098.1Z" opacity=".56"/><path d="m33.467 29.482.045-.044-.047-.048-.045.044.047.048Z" opacity=".55"/><path d="m32.592 30.379.076-.074-.08-.081-.075.074.08.081Z" opacity=".88"/><path d="m31.718 31.272.102-.1-.106-.108-.102.1.106.108Z" opacity=".51"/><path d="m30.847 32.205.184-.182-.191-.194-.185.18.192.196Z" opacity=".83"/><path d="m29.974 32.959.085-.084-.089-.09-.085.083.088.09Z" opacity=".8"/><path d="m29.097 33.992.255-.25-.264-.269-.255.25.264.269Z" opacity=".78"/><path d="m28.22 34.762.163-.16-.17-.173-.163.16.17.173Z" opacity=".77"/><path d="m27.342 35.505.045-.044-.047-.048-.045.045.047.047Z" opacity=".94"/><path d="m26.473 36.455.144-.142-.15-.154-.145.142.15.154Z" opacity=".68"/><path d="m25.6 37.503.322-.316-.333-.339-.322.316.333.34Z" opacity=".84"/><path d="m24.724 38.196.151-.15-.158-.16-.151.149.158.16Z" opacity=".92"/><path d="m23.844 38.964.066-.066-.07-.07-.066.065.07.07Z" opacity=".61"/><path d="m22.978 39.979.233-.229-.243-.248-.233.23.243.247Z" opacity=".78"/><path d="m21.22 41.663.19-.186-.197-.201-.19.186.198.2Z" opacity=".85"/><path d="m20.346 42.518.185-.182-.192-.196-.185.182.192.196Z" opacity=".78"/><path d="m19.476 43.507.31-.304-.322-.327-.31.304.322.327Z" opacity=".65"/><path d="m38.688 22.772.277-.272-.288-.294-.278.273.288.293Z" opacity=".84"/><path d="m37.816 23.452.094-.093-.097-.1-.095.093.098.1Z" opacity=".77"/><path d="m36.942 24.59.363-.356-.376-.382-.363.355.376.383Z" opacity=".93"/><path d="m36.065 25.417.33-.323-.342-.348-.33.323.342.348Z" opacity=".5"/><path d="m35.188 25.99.054-.052-.056-.057-.054.053.056.057Z" opacity=".82"/><path d="m34.31 26.88.084-.083-.087-.09-.085.084.087.09Z" opacity=".86"/><path d="m33.436 27.673.017-.017-.017-.018-.017.017.017.018Z" opacity=".52"/><path d="m32.558 28.723.196-.192-.204-.207-.195.192.203.207Z" opacity=".6"/><path d="m31.689 29.762.37-.364-.384-.39-.37.362.384.392Z" opacity=".79"/><path d="m30.808 30.33.098-.096-.102-.103-.098.096.102.103Z" opacity=".94"/><path d="m29.932 31.207.107-.105-.11-.113-.107.105.11.113Z" opacity=".67"/><path d="m29.07 32.353.399-.392-.414-.422-.4.392.415.422Z" opacity=".84"/><path d="m28.188 32.981.171-.169-.178-.18-.171.168.177.181Z" opacity=".83"/><path d="m25.566 35.84.45-.442-.467-.475-.45.442.467.475Z" opacity=".52"/><path d="m24.682 36.343.095-.093-.099-.101-.095.093.1.102Z" opacity=".6"/><path d="m23.805 37.128.027-.026-.028-.03-.028.027.029.03Z" opacity=".53"/><path d="m22.94 38.166.193-.19-.2-.204-.194.19.2.204Z" opacity=".61"/><path d="m22.065 39.048.216-.212-.224-.229-.216.212.224.229Z" opacity=".51"/><path d="m21.191 39.791.098-.096-.102-.103-.098.096.102.103Z" opacity=".68"/><path d="m20.321 40.834.277-.272-.288-.292-.276.271.287.293Z" opacity=".7"/><path d="m38.654 20.817.1-.098-.103-.105-.1.098.103.105Z" opacity=".52"/><path d="m37.776 21.76.185-.182-.193-.196-.185.182.193.196Zm-.873.869.195-.192-.202-.204-.194.19.2.206Z" opacity=".92"/><path d="m36.03 23.532.224-.22-.232-.236-.224.22.232.236Z" opacity=".68"/><path d="m35.161 24.363.21-.207-.218-.222-.21.206.218.223Z" opacity=".83"/><path d="m34.279 25.253.225-.222-.235-.239-.225.221.235.24Z" opacity=".7"/><path d="m33.402 25.925.051-.05-.053-.054-.05.05.052.054Z" opacity=".61"/><path d="m32.535 26.891.16-.157-.166-.169-.16.157.166.17Z" opacity=".83"/><path d="m30.773 28.492.04-.039-.042-.042-.04.039.041.042Z" opacity=".5"/><path d="m29.901 29.371.06-.058-.062-.063-.06.058.062.063Z" opacity=".88"/><path d="m29.028 30.267.097-.095-.1-.102-.097.095.1.102Z" opacity=".75"/><path d="m28.15 31.114.084-.083-.087-.09-.084.084.087.089Z" opacity=".71"/><path d="m27.274 32.078.19-.187-.197-.202-.19.187.197.202Z" opacity=".89"/><path d="m25.526 33.768.162-.159-.168-.17-.162.158.168.171Z" opacity=".79"/><path d="m24.654 34.694.221-.217-.23-.234-.22.217.229.234Z" opacity=".55"/><path d="m23.78 35.529.197-.193-.204-.208-.197.193.204.208Z" opacity=".64"/><path d="m22.902 36.288.102-.1-.105-.108-.102.1.105.108Z" opacity=".93"/><path d="m22.03 37.332.29-.285-.3-.306-.29.284.3.307Z" opacity=".84"/><path d="m21.156 38.11.2-.196-.209-.212-.2.197.209.211Z" opacity=".59"/><path d="m20.28 38.886.13-.128-.136-.139-.131.129.136.138Z" opacity=".92"/><path d="m19.406 39.894.274-.269-.285-.29-.274.269.285.29Z" opacity=".73"/><path d="m37.744 19.96.166-.163-.172-.175-.166.163.172.175Z" opacity=".5"/><path d="m36.87 20.788.134-.132-.14-.142-.134.132.14.142Z" opacity=".72"/><path d="m35.992 21.623.11-.107-.114-.116-.11.108.114.115Z" opacity=".62"/><path d="m35.12 22.741.364-.358-.379-.386-.365.358.38.386Z" opacity=".87"/><path d="m34.24 23.267.033-.033-.034-.035-.033.033.034.035Z" opacity=".62"/><path d="m33.368 24.342.253-.248-.262-.267-.253.248.262.267Z" opacity=".8"/><path d="m32.488 25 .055-.055-.059-.06-.055.055.059.06Z" opacity=".67"/><path d="m31.617 25.92.102-.1-.106-.108-.102.1.106.108Z" opacity=".62"/><path d="m30.741 26.853.177-.173-.185-.188-.177.173.185.188Z" opacity=".63"/><path d="m29.868 27.687.167-.164-.174-.177-.166.164.173.177Z" opacity=".92"/><path d="m28.995 28.633.247-.242-.256-.261-.247.242.256.26Z" opacity=".67"/><path d="m28.119 29.506.26-.256-.27-.275-.26.256.27.274Z" opacity=".73"/><path d="m26.37 31.1.142-.14-.147-.149-.141.139.146.15Z" opacity=".52"/><path d="m25.492 31.963.137-.135-.142-.145-.137.135.142.145Z" opacity=".54"/><path d="m24.617 32.826.149-.146-.156-.158-.149.146.156.158Z" opacity=".61"/><path d="m23.742 33.662.125-.123-.13-.133-.125.123.13.133Z" opacity=".53"/><path d="m22.872 34.635.233-.229-.242-.246-.233.228.242.247Z" opacity=".7"/><path d="m21.991 35.309.052-.051-.054-.056-.052.052.054.055Z" opacity=".8"/><path d="m21.12 36.207.09-.09-.094-.097-.092.09.095.097Z" opacity=".62"/><path d="m20.244 37.082.108-.105-.112-.114-.107.105.111.114Z" opacity=".6"/><path d="m38.583 17.305.151-.149-.157-.16-.151.149.157.16Z" opacity=".55"/><path d="m37.711 18.257.246-.241-.255-.26-.246.24.255.261Z" opacity=".57"/><path d="m36.836 19.14.262-.257-.273-.277-.262.257.273.277Z" opacity=".85"/><path d="m35.082 20.628.05-.05-.053-.054-.05.05.053.054Z" opacity=".72"/><path d="m34.203 21.545.094-.092-.098-.1-.093.092.097.1Z" opacity=".53"/><path d="m33.342 22.56.26-.255-.27-.275-.26.255.27.274Z" opacity=".83"/><path d="m32.46 23.356.196-.192-.203-.207-.195.192.203.207Z" opacity=".69"/><path d="m30.713 24.984.103-.101-.107-.11-.103.101.107.11Z" opacity=".54"/><path d="m29.835 25.785.036-.035-.037-.037-.035.035.036.037Z" opacity=".65"/><path d="m28.961 26.655.062-.061-.064-.066-.062.061.064.066Z" opacity=".71"/><path d="m27.215 28.674.336-.33-.35-.356-.335.33.349.356Z" opacity=".66"/><path d="m26.333 29.459.276-.271-.287-.293-.276.271.287.293Z" opacity=".62"/><path d="m25.46 30.17.134-.13-.139-.142-.133.131.138.141Z" opacity=".67"/><path d="m24.582 30.952.063-.061-.066-.068-.063.062.066.067Z" opacity=".51"/><path d="m23.712 32.095.327-.322-.34-.347-.328.322.34.347Z" opacity=".81"/><path d="m22.836 32.667.059-.058-.061-.062-.06.058.062.062Z" opacity=".82"/><path d="m21.964 33.777.298-.293-.31-.315-.298.292.31.316Z" opacity=".59"/><path d="m21.08 34.4.072-.072-.074-.076-.072.071.074.076Z" opacity=".68"/><path d="m20.212 35.359.167-.164-.174-.177-.166.164.173.177Z" opacity=".78"/><path d="m38.552 15.442.077-.075-.08-.082-.077.076.08.081Z" opacity=".64"/><path d="m37.673 16.26.042-.041-.043-.044-.041.041.042.044Z" opacity=".63"/><path d="m36.8 17.225.141-.14-.147-.15-.142.14.147.15Z" opacity=".5"/><path d="m35.926 17.991.047-.046-.049-.049-.047.046.049.05Z" opacity=".79"/><path d="m35.05 18.886.083-.081-.086-.088-.083.081.086.088Z" opacity=".53"/><path d="m32.426 21.544.172-.169-.179-.182-.172.169.179.182Zm-.881.803.107-.105-.11-.113-.108.105.111.113Z" opacity=".6"/><path d="m29.8 24.176.227-.223-.236-.24-.227.222.236.241Z" opacity=".93"/><path d="m28.924 25.022.197-.194-.204-.208-.198.194.205.208Z" opacity=".94"/><path d="m28.053 25.93.256-.25-.265-.27-.255.25.264.27Z" opacity=".8"/><path d="m27.18 26.777.25-.246-.26-.264-.25.245.26.265Z" opacity=".65"/><path d="m26.305 27.655.254-.249-.264-.268-.253.25.263.267Z" opacity=".72"/><path d="m24.55 29.245.13-.128-.136-.138-.13.128.135.138Z" opacity=".83"/><path d="m23.679 30.227.262-.258-.273-.278-.262.258.273.278Z" opacity=".59"/><path d="m22.803 30.918.091-.09-.095-.097-.09.09.095.096Z" opacity=".75"/><path d="m21.922 31.745.058-.058-.06-.062-.06.058.062.062Z" opacity=".93"/><path d="m21.055 32.785.226-.222-.235-.24-.226.222.235.24Zm-.88.756.137-.135-.142-.145-.138.135.143.145Z" opacity=".85"/><path d="m38.516 13.673.097-.095-.1-.102-.097.095.1.102Z" opacity=".65"/><path d="m37.645 14.66.226-.223-.235-.239-.226.223.235.239Z" opacity=".55"/><path d="m36.767 15.395.108-.106-.113-.115-.108.106.113.115Z" opacity=".92"/><path d="m35.894 16.31.157-.154-.164-.166-.156.153.163.167Zm-.878.832.129-.126-.134-.136-.129.126.134.136Z" opacity=".83"/><path d="m34.143 18.003.138-.136-.142-.145-.138.135.142.146Z" opacity=".79"/><path d="m33.262 18.795.062-.06-.064-.066-.062.06.064.066Z" opacity=".87"/><path d="m32.395 19.839.242-.237-.252-.256-.241.237.251.256Z" opacity=".86"/><path d="m31.519 20.55.106-.105-.11-.112-.107.104.11.113Z" opacity=".84"/><path d="m29.771 22.458.284-.278-.294-.3-.284.278.294.3Z" opacity=".5"/><path d="m28.888 23.226.19-.187-.199-.202-.19.187.199.202Z" opacity=".9"/><path d="m28.015 24.049.16-.158-.166-.17-.161.157.167.17Zm-1.745 1.676.117-.116-.122-.124-.118.115.122.125Z" opacity=".74"/><path d="m25.396 26.483.022-.022-.023-.023-.022.022.023.023Z" opacity=".69"/><path d="m24.516 27.385.058-.057-.06-.06-.057.056.06.06Z" opacity=".67"/><path d="m22.766 29.212.16-.157-.166-.17-.16.157.166.17Z" opacity=".76"/><path d="m21.895 30.1.199-.194-.207-.21-.198.195.206.21Z" opacity=".8"/><path d="m20.14 31.753.13-.128-.136-.138-.13.128.135.138Z" opacity=".86"/><path d="m38.482 11.915.12-.118-.125-.127-.12.118.125.127Z" opacity=".71"/><path d="m37.616 12.983.318-.311-.33-.336-.318.311.33.336Z" opacity=".54"/><path d="m35.853 14.458.092-.09-.096-.099-.092.091.096.098Z" opacity=".78"/><path d="m34.984 15.453.223-.219-.231-.235-.223.218.231.236Z" opacity=".69"/><path d="m34.111 16.349.252-.247-.262-.268-.252.248.263.267Z" opacity=".57"/><path d="m32.36 17.965.156-.152-.162-.165-.156.152.162.165Z" opacity=".89"/><path d="m31.485 18.986.304-.299-.316-.322-.305.3.317.322Z" opacity=".92"/><path d="m30.608 19.66.122-.12-.127-.13-.122.12.127.13Z" opacity=".86"/><path d="m29.73 20.457.067-.066-.07-.071-.067.066.07.07Z" opacity=".89"/><path d="m28.857 21.295.053-.053-.056-.057-.053.053.056.057Z" opacity=".77"/><path d="m27.977 22.19.09-.088-.093-.095-.09.088.093.094Z" opacity=".61"/><path d="m27.106 23.14.175-.171-.182-.186-.175.172.182.186Z" opacity=".78"/><path d="m26.229 23.902.076-.074-.08-.08-.075.074.079.08Z" opacity=".51"/><path d="m25.365 25.008.326-.32-.339-.346-.326.32.339.346Z" opacity=".59"/><path d="m24.485 25.566.027-.027-.029-.029-.027.027.029.029Z" opacity=".58"/><path d="m22.737 27.466.197-.193-.204-.207-.197.193.204.207Z" opacity=".75"/><path d="m21.86 28.308.195-.19-.202-.207-.195.192.202.205Z" opacity=".82"/><path d="m20.986 29.125.143-.14-.148-.151-.143.14.148.15Z" opacity=".5"/><path d="m20.107 29.969.127-.125-.132-.135-.127.126.132.134Z" opacity=".67"/><path d="m35.823 12.687.095-.093-.1-.101-.095.093.1.101Z" opacity=".83"/><path d="m34.95 13.602.16-.157-.167-.169-.16.157.166.17Z" opacity=".93"/><path d="m33.199 15.422.246-.242-.255-.26-.247.242.256.26Zm-.875.851.254-.25-.264-.268-.254.25.264.268Zm-.874.824.21-.206-.218-.222-.21.206.218.222Z" opacity=".9"/><path d="m30.58 18.032.287-.282-.299-.305-.287.283.299.304Z" opacity=".77"/><path d="m28.822 19.578.12-.117-.124-.126-.12.117.124.126Z" opacity=".82"/><path d="m27.95 20.353.042-.04-.043-.045-.042.041.044.044Z" opacity=".74"/><path d="m27.073 21.254.075-.074-.079-.081-.076.074.08.081Z" opacity=".6"/><path d="m26.194 22.133.095-.094-.1-.101-.095.093.1.102Z" opacity=".86"/><path d="m25.319 22.927.037-.036-.039-.04-.037.036.039.04Z" opacity=".93"/><path d="m24.447 23.944.19-.186-.197-.2-.19.185.197.201Z" opacity=".62"/><path d="m23.577 24.74.126-.123-.131-.133-.126.123.131.134Z" opacity=".55"/><path d="m22.695 25.538.07-.07-.074-.075-.07.07.074.075Z" opacity=".89"/><path d="m21.825 26.431.097-.095-.1-.102-.097.095.1.102Zm-.877.888.126-.124-.13-.133-.127.123.131.134Z" opacity=".66"/><path d="m20.072 28.076.022-.021-.024-.024-.022.022.024.023Z" opacity=".9"/><path d="m34.92 12.099.428-.42-.445-.452-.427.42.445.452Z" opacity=".71"/><path d="m34.037 12.598.084-.082-.088-.09-.084.083.088.09Z" opacity=".63"/><path d="m33.167 13.502.122-.12-.126-.128-.122.12.126.128Z" opacity=".5"/><path d="m32.285 14.304.07-.07-.073-.075-.07.07.073.075Z" opacity=".73"/><path d="m31.415 15.162.062-.06-.064-.065-.061.06.063.065Zm-.878.851.053-.052-.055-.056-.053.052.055.056Z" opacity=".77"/><path d="m29.67 17.14.318-.312-.33-.337-.319.313.331.336Z" opacity=".51"/><path d="m28.794 18.074.386-.379-.4-.407-.386.378.4.408Z" opacity=".64"/><path d="m27.916 18.714.178-.175-.185-.188-.178.175.185.188Z" opacity=".84"/><path d="m27.037 19.465.069-.067-.072-.072-.068.067.071.072Z" opacity=".7"/><path d="m26.167 20.362.122-.12-.126-.128-.122.12.126.128Z" opacity=".58"/><path d="m25.282 21.174.066-.065-.069-.07-.065.065.068.07Z" opacity=".5"/><path d="m24.409 22.028.068-.067-.071-.072-.069.066.072.073Z" opacity=".75"/><path d="m23.542 22.913.087-.085-.09-.092-.087.085.09.092Z" opacity=".54"/><path d="m22.663 23.853.153-.15-.158-.162-.153.15.158.162Z" opacity=".72"/><path d="m21.794 24.657.104-.102-.109-.112-.105.103.11.111Z" opacity=".69"/><path d="m20.914 25.525.129-.127-.134-.136-.13.126.135.137Z" opacity=".51"/><path d="m20.042 26.67.395-.389-.411-.42-.396.39.412.419Z" opacity=".5"/><path d="m32.26 12.727.271-.266-.282-.288-.271.267.282.287Zm-1.755 1.583.132-.13-.137-.14-.132.13.137.14Z" opacity=".89"/><path d="m29.63 15.173.136-.134-.141-.144-.137.134.142.144Z" opacity=".52"/><path d="m27.88 16.905.16-.155-.165-.168-.159.156.165.167Z" opacity=".86"/><path d="m27.009 17.8.186-.183-.193-.197-.187.183.194.197Z" opacity=".89"/><path d="m26.13 18.663.19-.186-.197-.201-.19.186.198.2Z" opacity=".9"/><path d="m25.255 19.392.065-.064-.067-.069-.066.064.068.07Z" opacity=".72"/><path d="m24.379 20.402.219-.215-.227-.23-.22.214.228.231Z" opacity=".87"/><path d="m23.504 21.085.039-.038-.04-.042-.04.039.04.041Z" opacity=".56"/><path d="m22.635 22.176.267-.262-.277-.282-.267.262.277.282Z" opacity=".75"/><path d="m21.76 23.06.283-.279-.295-.3-.283.278.295.3Z" opacity=".7"/><path d="m20.878 23.864.227-.223-.236-.241-.227.223.236.24Z" opacity=".79"/><path d="m20.007 24.646.165-.162L20 24.31l-.165.162.17.174Z" opacity=".78"/><path d="m30.473 12.727.336-.329-.349-.354-.335.329.348.354Z" opacity=".53"/><path d="m29.602 13.384.144-.142-.15-.153-.145.142.15.153Z" opacity=".81"/><path d="m28.72 14.242.128-.125-.133-.135-.128.125.133.135Z" opacity=".94"/><path d="m27.844 15.01.043-.041-.044-.045-.043.041.044.046Z" opacity=".83"/><path d="m26.972 16.036.212-.208-.22-.224-.213.208.22.224Z" opacity=".66"/><path d="m26.094 16.849.164-.162-.171-.174-.165.161.172.175Z" opacity=".64"/><path d="m25.222 17.762.22-.215-.229-.232-.219.215.228.232Z" opacity=".93"/><path d="m23.471 19.436.181-.178-.188-.192-.182.177.19.193Z" opacity=".89"/><path d="m22.598 20.474.347-.341-.36-.367-.347.34.36.367Z" opacity=".78"/><path d="m21.72 21.041.057-.057-.059-.06-.058.057.06.06Z" opacity=".92"/><path d="m20.85 21.873.037-.037-.04-.04-.037.037.04.04Z" opacity=".79"/><path d="m19.977 22.853.152-.15-.158-.16-.152.149.158.16Z" opacity=".77"/><path d="m28.694 12.797.462-.453-.48-.489-.461.454.48.488Z" opacity=".7"/><path d="m27.817 13.51.32-.315-.333-.338-.32.314.333.338Z" opacity=".73"/><path d="m26.936 14.202.158-.155-.164-.167-.158.155.164.167Z" opacity=".5"/><path d="m26.06 14.951.053-.053-.056-.057-.053.053.056.057Z" opacity=".78"/><path d="m25.186 15.893.138-.135-.143-.146-.137.136.142.145Z" opacity=".91"/><path d="m24.312 16.767.153-.15-.159-.161-.153.15.159.161Z" opacity=".62"/><path d="m23.435 17.567.1-.098-.104-.107-.1.099.104.106Z" opacity=".73"/><path d="m22.566 18.524.192-.188-.199-.202-.191.187.198.203Z" opacity=".69"/><path d="m21.698 19.48.275-.27-.286-.29-.275.27.286.29Z" opacity=".83"/><path d="m20.808 20.116.063-.061-.066-.067-.063.061.066.067Z" opacity=".72"/><path d="m19.944 21.23.306-.3-.318-.324-.306.3.318.324Z" opacity=".94"/><path d="m26.903 12.426.171-.168-.177-.18-.17.167.176.18Z" opacity=".92"/><path d="m26.03 13.319.197-.194-.206-.21-.197.195.205.209Z" opacity=".71"/><path d="m25.154 13.998.03-.03-.031-.03-.03.028.03.032Z" opacity=".62"/><path d="m23.409 15.957.267-.262-.277-.282-.268.262.278.282Z" opacity=".71"/><path d="m22.527 16.594.047-.047-.049-.05-.048.047.05.05Z" opacity=".7"/><path d="m21.654 17.535.123-.12-.127-.131-.124.121.128.13Z" opacity=".73"/><path d="m20.782 18.43.152-.149-.158-.16-.152.148.158.16Z" opacity=".88"/><path d="m19.91 19.558.426-.417-.442-.45-.425.417.442.45Z" opacity=".59"/><path d="m25.116 12.338.154-.15-.16-.162-.152.15.158.162Z" opacity=".91"/><path d="m24.25 13.17.125-.123-.13-.133-.125.123.13.133Z" opacity=".82"/><path d="m23.37 14.01.107-.104-.11-.112-.107.104.11.113Z" opacity=".92"/><path d="m22.494 14.856.084-.083-.088-.089-.084.083.088.09Z" opacity=".52"/><path d="m21.624 15.806.185-.181-.193-.196-.184.182.192.195Z" opacity=".55"/><path d="m19.872 17.5.144-.14-.15-.153-.144.141.15.152Z" opacity=".66"/><path d="m23.337 12.239.108-.106-.112-.115-.108.106.112.115Z" opacity=".87"/><path d="m20.715 14.876.176-.173-.183-.186-.176.173.183.186Z" opacity=".8"/><path d="m19.829 15.62.058-.057-.06-.062-.058.057.06.061Z" opacity=".85"/><path d="m21.547 12.074.027-.027-.027-.028-.028.027.028.028Z" opacity=".61"/><path d="m20.68 12.963.058-.057-.059-.06-.058.057.06.06Z" opacity=".84"/><path d="m19.803 13.978.2-.197-.208-.212-.2.197.208.212Z" opacity=".74"/><path d="m19.77 12.192.195-.192-.203-.207-.196.192.203.207Z" opacity=".84"/></g></g></svg>