<svg xmlns="http://www.w3.org/2000/svg" width="22" height="22" fill="none"><path fill="#000" d="M8.922 5.986c5.258 0 8.922-1.577 8.922-2.993C17.844 1.578 14.179 0 8.922 0 3.664 0 0 1.577 0 2.993s3.664 2.993 8.922 2.993ZM0 15.453v3.556c0 1.415 3.664 2.993 8.922 2.993 1.13.003 2.259-.076 3.377-.235a6.852 6.852 0 0 1-2.882-4.144c-.165.003-.33.007-.495.007-3.53 0-7.22-.754-8.922-2.177Z"/><path fill="#000" d="M8.922 12.294c-3.53 0-7.22-.754-8.922-2.177v3.557c.002 1.415 3.665 2.992 8.922 2.992.115 0 .229-.002.343-.003a6.794 6.794 0 0 1 1.148-4.415c-.497.03-.995.046-1.491.046Z"/><path fill="#000" d="M16.07 9.236c.396 0 .791.035 1.18.104.385-.33.593-.675.593-1.011V4.773C16.142 6.197 12.451 6.95 8.922 6.95c-3.53 0-7.22-.753-8.922-2.176V8.33c.002 1.416 3.665 2.992 8.922 2.992.824 0 1.61-.039 2.348-.11a6.81 6.81 0 0 1 4.8-1.976Z"/><path fill="#000" d="M16.07 10.14a5.929 5.929 0 1 0 0 11.858 5.929 5.929 0 0 0 0-11.857Zm0 10.865a4.935 4.935 0 1 1 0-9.871 4.935 4.935 0 0 1 0 9.87Z"/><path fill="#000" d="M19.114 15.572H16.57v-2.546a.496.496 0 0 0-.993 0v2.546H13.03a.497.497 0 0 0 0 .993h2.546v2.545a.496.496 0 0 0 .993 0v-2.545h2.545a.497.497 0 0 0 0-.993Z"/></svg>