<svg xmlns="http://www.w3.org/2000/svg" width="1080" height="1080" fill="none"><path fill="#000" d="m195.848 672.32-.03-.021s-.03-.009-.05-.019c.03.02.07.04.1.06 0 0-.01 0-.02-.02Zm-.12-.06c.11.06-.01-.01-.34-.2.11.07.22.13.34.2Zm-1.39-.8c.08.05.17.1.28.16l-.14-.09-.14-.07Zm658.31-37.87-224.78-129.78 67.88-67.63c8.12 7.08 20.41 6.84 28.17-.92 8.06-8.07 8.06-21.2 0-29.27a20.709 20.709 0 0 0-18.52-5.74l-40.32-150.37c2.87-1.03 5.56-2.56 7.82-4.88 8.12-8.07 8.12-21.2 0-29.27-8.07-8.13-21.2-8.13-29.27 0-2.32 2.26-3.91 5.01-4.89 7.88l-149.57-39.65c1.22-6.48-.67-13.44-5.74-18.45-8.07-8.07-21.2-8.07-29.27 0s-8 19.92-1.04 28.1l-109.06 108.58c-8.12-6.79-20.16-6.42-27.8 1.22-8.06 8.06-8.06 21.2 0 29.26 4.95 4.95 11.79 6.85 18.21 5.75 1.77 6.41 4.03 14.72 6.9 25.35 6.85 25.42 17.42 64.52 33.55 125.07-2.81.98-5.44 2.57-7.64 4.77-10.8 10.8-6.74 29.4 8.19 34.28l-181.83 105.7c-8.37 4.95-13.08 11.48-13.08 18.57v.06l-.12 76.189c-.06 7.031 4.76 13.93 13.32 18.94l86.39 49.861-37.94 21.94-36.17-.25 14.6-21.75c.18-.37.31-.791.18-1.22-.06-.37-.36-.74-.73-.98l-17.17-9.96c2.51-2.021 2.32-4.76-.79-6.6-3.48-2.01-9.11-2.01-12.59.06-3.48 1.96-3.54 5.259-.06 7.269 2.75 1.591 6.9 1.901 10.2.921l17.48 10.14-15.22 22.79c-.3.49-.36 1.099-.12 1.589.31.49.8.801 1.35.801l39.41.24h.06c.24 0 .49-.06.73-.24l39.84-22.981 50.53 29.151-73.2 42.279-26.03-15.149c-.49-.25-1.04-.25-1.53 0l-29.93 17.289c-4.83-1.9-11.31-1.779-15.52.731-4.65 2.81-4.59 7.21.12 9.96h.12c4.83 2.75 12.59 2.75 17.23-.06 4.16-2.451 4.52-6.23 1.22-8.92l27.5-15.89 26.03 15.09c.48.31 1.03.31 1.52 0l75.52-43.56 34.03 19.67-71.79 41.43c-.55.299-.85.91-.73 1.53l3.18 24.56c.06.36.3.73.61.97.3.25.73.37 1.16.31l45.7-6.54 31.83 18.519c-2.93 2.5-2.56 5.921 1.29 8.181 4.33 2.51 11.48 2.51 15.82 0 4.34-2.5 4.4-6.66.06-9.22-3.85-2.201-9.65-2.32-13.99-.67l-33.91-19.74c-.31-.12-.67-.241-.98-.181l-44.72 6.411-2.87-21.99 72.4-41.8 119.45 68.92v.07c17.33 9.9 44.87 9.82 61.83-.07l118.04-68.61 71.86 41.49-2.88 21.99-44.78-6.411c-.31-.06-.67.061-.98.241l-33.91 19.68c-4.34-1.65-10.14-1.531-13.93.73-4.34 2.5-4.34 6.66 0 9.16 4.4 2.51 11.49 2.51 15.89 0 3.84-2.26 4.21-5.681 1.28-8.181l31.77-18.519 45.76 6.54c.37.06.8-.06 1.16-.31.31-.24.49-.61.55-.97l3.24-24.56c.06-.62-.24-1.231-.79-1.53l-71.18-41.12 33.91-19.68 75.03 43.26c.49.31 1.1.31 1.53 0l26.02-15.09 27.5 15.89c-3.3 2.69-2.87 6.469 1.22 8.92 4.7 2.81 12.4 2.81 17.23.06h.12c4.71-2.75 4.77-7.15.12-9.96-4.15-2.44-10.69-2.631-15.51-.731l-29.88-17.289a1.78 1.78 0 0 0-1.59 0l-25.97 15.149-72.77-41.979 50.35-29.261 39.53 22.851c.24.12.49.18.79.18l39.41-.24c.55 0 1.1-.311 1.35-.801.24-.49.24-1.099-.06-1.589l-15.28-22.79 17.48-10.14c3.36.98 7.45.67 10.26-.921 3.42-2.01 3.36-5.309-.06-7.269-3.48-2.07-9.17-2.07-12.65-.06-3.11 1.84-3.24 4.579-.79 6.6l-17.17 10.02c-.37.18-.61.55-.74.92-.06.429 0 .85.25 1.22l14.54 21.75-36.17.25-37.64-21.76 86.09-50.041c8.43-4.88 13.14-11.479 13.26-18.63l.06-76.189v-.12c-.06-7.15-4.76-13.87-13.38-18.82Zm-227.53-131.37-45.83-26.45 69.84-69.53 39.78 10.57c-1.1 5.99.48 12.34 4.7 17.23l-68.49 68.18Zm41.06 138.09c-3.79-2.26-10.02-2.26-13.81-.06-3.79 2.2-3.79 5.8.06 8 3.24 1.9 8.19 2.08 11.97.73l46.13 26.64-168.02 97.64c-10.2 5.93-26.88 5.93-37.15 0l-15.94-9.23 37.94-22.111c3.73 1.22 8.49.971 11.61-.859 3.79-2.201 3.73-5.74-.06-7.94-3.79-2.201-9.96-2.261-13.81-.06-3.36 2.01-3.67 5.07-1.04 7.27l-37.52 21.81c-.06.06-.06.12-.12.12l-152.81-88.161 18.82-10.939c3.73 1.16 8.43.98 11.61-.86 3.79-2.2 3.73-5.8-.06-7.94-3.79-2.26-10.02-2.26-13.81-.06-3.36 1.96-3.66 5.01-1.04 7.27l-18.57 10.75-17.41-10.08c-9.3-5.31-10.09-13.97-.13-19.73l178.35-103.69 59.63 15.83c-3.62 20.41 20.93 32.6 35.01 18.51 3.49-3.48 5.38-7.88 5.87-12.34l141.51 81.69c9.72 5.56 9.78 14.14.12 19.73l-19.92 11.609-46.01-26.579c2.32-2.2 1.83-5.07-1.4-6.96Zm-268.9-145.78 29.14-28.97 38.68 10.27-62.26 36.17-.55-.12c1.04-6.05-.61-12.47-5.01-17.35Zm123.79-125.75-33.85-126.29 125.8 33.3 33.85 126.29-125.8-33.3Zm124.64 36.6-91.41 90.92-125.43-33.24 91.34-90.92 125.5 33.24Zm-127.7-35.68-86.33 85.97-5.26 5.19-33.85-126.29 91.59-91.16 33.85 126.29Zm-48.76 107.23 84.75 22.42 10.57 39.66c-.86.3-1.65.67-2.51 1.03l-19.36-11.18c-11.12-6.41-29.21-6.41-40.27 0l-11.24 6.54-84.2-22.3 62.26-36.17Zm89.88 64.95c-3.13 2.23-5.56 5.2-7.21 9.65l-56.58-15.03c5.47-2.51 11.77-9.41 27.19-9.41 6.78 0 13.51 1.47 18.64 4.46l17.96 10.33Zm25.42.73c-4.89-4.03-11.12-5.56-16.99-4.46l-10.75-40.02 20.28-20.16 45.77 26.45-38.31 38.19Zm60.18-296.51c.06-.06 0-.13.06-.13 4.89 4.28 11.3 5.87 17.35 4.77l40.33 150.36c-2.87.98-5.56 2.57-7.88 4.89-2.26 2.26-3.85 5.01-4.83 7.88l-39.41-10.44-34.4-128.56 28.78-28.77Zm-161.3-51.27c2.32-2.32 3.91-5.01 4.89-7.88l149.57 39.59c-1.1 6.05.55 12.41 4.82 17.36-.06 0-.12 0-.18.06l-28.84 28.84-127.51-33.79-4.58-17.05-5.99-22.3c2.87-.98 5.56-2.57 7.82-4.83Zm-28.11.92c4.89 4.28 11.31 5.93 17.36 4.77l10.57 39.47-92.69 92.26-39.29-10.45c1.16-6.11-.55-12.59-4.95-17.54l109-108.51Zm-117.61 141.81c2.87-1.04 5.56-2.56 7.88-4.89 2.32-2.26 3.85-5.01 4.83-7.88l39.16 10.39 34.4 128.43-28.9 28.78c-4.89-4.04-11.18-5.56-17.05-4.46l-40.32-150.37Zm154.88 578.729-297.3-171.62c-7.58-4.4-11.86-10.27-11.8-16.26l.13-66.409c.7.7 2.61 4.64 10.26 9.19.02 0 .03.01.05.03-.07-.04.06.03.06.03.02.01.04.02.06.04.15.08.3.16.43.24.11.06.21.12.3.18.05.02.09.04.12.07 0 .01.01.009.02.009l.04.031c.05.02.1.05.15.08.14.08.24.139.28.16.11.07.22.13.34.2.03.02.04.02.03.02 0 0 .07.04.1.06.13.08.11.069.11.069h.01c10.24 5.92 63.67 36.771 296.65 171.301l-.06 72.579h.02Zm61.1-74.839c-14.69 8.61-41.5 9.98-58.71 0l-299.51-172.91c-.25-.13-.49-.31-.74-.43-14.72-8.92-15.12-22.71.43-31.9l184.83-107.41c9 .93 17.26-3.98 20.77-12.1l2.26-1.28 84.2 22.3-175.72 102.16c-11.79 6.79-11.47 18.32.12 25.05l192.22 110.96c10.94 6.37 28.96 6.49 40.2 0l170.22-98.921c.06 0 .12-.06.12-.06l20.66-11.979c11.63-6.83 11.73-18.23-.13-25.11l-142.91-82.48c-.24-4.59-2.01-9.05-5.25-12.65l38.86-38.68 225.51 130.2c15.4 8.87 16.14 22.99.19 32.33l-297.62 172.91Zm309.23-112.791c-.13 6.05-4.28 11.73-11.74 16.01L709.738 826.9c-.18 0-.31.19-.49.31l-153.36 89.079.12-72.579 296.82-172.49c2.87-1.73 8.57-5.96 10.15-9.1l-.06 66.539Zm-668.3-57.039-.14-.09-.14-.07c.08.05.17.1.28.16Z"/><path stroke="#000" stroke-miterlimit="10" stroke-width="3" d="M195.728 672.26c.11.06-.01-.01-.34-.2m.34.2c-.12-.07-.23-.13-.34-.2m.34.2c.03.02.04.02.03.02 0 0 .07.04.1.06.13.08.11.069.11.069h.01c10.24 5.92 63.67 36.771 296.65 171.301l-.06 72.579h.02l-297.3-171.62c-7.58-4.4-11.86-10.27-11.8-16.26l.13-66.409c.7.7 2.61 4.64 10.26 9.19.02 0 .03.01.05.03-.07-.04.06.03.06.03.02.01.04.02.06.04.15.08.3.16.43.24m.91.53c-.04-.02-.14-.08-.28-.16-.05-.03-.1-.06-.15-.08l-.04-.031c-.01 0-.02.001-.02-.009a.346.346 0 0 0-.12-.07c-.09-.06-.19-.12-.3-.18m0 0 .14.09c-.11-.06-.2-.11-.28-.16l.14.07Zm1.37.79-.03-.021s-.03-.009-.05-.019c.03.02.07.04.1.06 0 0-.01 0-.02-.02Zm656.8-38.73-224.78-129.78 67.88-67.63c8.12 7.08 20.41 6.84 28.17-.92 8.06-8.07 8.06-21.2 0-29.27a20.709 20.709 0 0 0-18.52-5.74l-40.32-150.37c2.87-1.03 5.56-2.56 7.82-4.88 8.12-8.07 8.12-21.2 0-29.27-8.07-8.13-21.2-8.13-29.27 0-2.32 2.26-3.91 5.01-4.89 7.88l-149.57-39.65c1.22-6.48-.67-13.44-5.74-18.45-8.07-8.07-21.2-8.07-29.27 0s-8 19.92-1.04 28.1l-109.06 108.58c-8.12-6.79-20.16-6.42-27.8 1.22-8.06 8.06-8.06 21.2 0 29.26 4.95 4.95 11.79 6.85 18.21 5.75 1.77 6.41 4.03 14.72 6.9 25.35 6.85 25.42 17.42 64.52 33.55 125.07-2.81.98-5.44 2.57-7.64 4.77-10.8 10.8-6.74 29.4 8.19 34.28l-181.83 105.7c-8.37 4.95-13.08 11.48-13.08 18.57v.06l-.12 76.189c-.06 7.03 4.76 13.93 13.32 18.94l86.39 49.861-37.94 21.94-36.17-.25 14.6-21.75c.18-.37.31-.79.18-1.22-.06-.37-.36-.74-.73-.98l-17.17-9.96c2.51-2.02 2.32-4.76-.79-6.6-3.48-2.01-9.11-2.01-12.59.06-3.48 1.96-3.54 5.259-.06 7.269 2.75 1.59 6.9 1.901 10.2.921l17.48 10.14-15.22 22.79c-.3.49-.36 1.099-.12 1.589.31.49.8.801 1.35.801l39.41.24h.06c.24 0 .49-.06.73-.24l39.84-22.981 50.53 29.151-73.2 42.279-26.03-15.149c-.49-.25-1.04-.25-1.53 0l-29.93 17.289c-4.83-1.9-11.31-1.779-15.52.731-4.65 2.81-4.59 7.21.12 9.96h.12c4.83 2.75 12.59 2.75 17.23-.06 4.16-2.45 4.52-6.23 1.22-8.92l27.5-15.89 26.03 15.09c.48.31 1.03.31 1.52 0l75.52-43.56 34.03 19.67-71.79 41.43c-.55.3-.85.91-.73 1.53l3.18 24.56c.06.36.3.73.61.97.3.25.73.37 1.16.31l45.7-6.54 31.83 18.519c-2.93 2.5-2.56 5.921 1.29 8.181 4.33 2.51 11.48 2.51 15.82 0 4.34-2.5 4.4-6.66.06-9.22-3.85-2.2-9.65-2.32-13.99-.67l-33.91-19.74c-.31-.12-.67-.241-.98-.181l-44.72 6.411-2.87-21.99 72.4-41.8 119.45 68.92v.07c17.33 9.9 44.87 9.82 61.83-.07l118.04-68.61 71.86 41.49-2.88 21.99-44.78-6.411c-.31-.06-.67.061-.98.241l-33.91 19.68c-4.34-1.65-10.14-1.53-13.93.73-4.34 2.5-4.34 6.66 0 9.16 4.4 2.51 11.49 2.51 15.89 0 3.84-2.26 4.21-5.681 1.28-8.181l31.77-18.519 45.76 6.54c.37.06.8-.06 1.16-.31.31-.24.49-.61.55-.97l3.24-24.56c.06-.62-.24-1.23-.79-1.53l-71.18-41.12 33.91-19.68 75.03 43.26c.49.31 1.1.31 1.53 0l26.02-15.09 27.5 15.89c-3.3 2.69-2.87 6.47 1.22 8.92 4.7 2.81 12.4 2.81 17.23.06h.12c4.71-2.75 4.77-7.15.12-9.96-4.15-2.44-10.69-2.631-15.51-.731l-29.88-17.289a1.78 1.78 0 0 0-1.59 0l-25.97 15.149-72.77-41.979 50.35-29.261 39.53 22.851c.24.12.49.18.79.18l39.41-.24c.55 0 1.1-.311 1.35-.801.24-.49.24-1.099-.06-1.589l-15.28-22.79 17.48-10.14c3.36.98 7.45.669 10.26-.921 3.42-2.01 3.36-5.309-.06-7.269-3.48-2.07-9.17-2.07-12.65-.06-3.11 1.84-3.24 4.58-.79 6.6l-17.17 10.02c-.37.18-.61.55-.74.92-.06.43 0 .85.25 1.22l14.54 21.75-36.17.25-37.64-21.76 86.09-50.041c8.43-4.88 13.14-11.48 13.26-18.63l.06-76.189v-.12c-.06-7.15-4.76-13.87-13.38-18.82Zm-227.53-131.37-45.83-26.45 69.84-69.53 39.78 10.57c-1.1 5.99.48 12.34 4.7 17.23l-68.49 68.18Zm41.06 138.09c-3.79-2.26-10.02-2.26-13.81-.06-3.79 2.2-3.79 5.8.06 8 3.24 1.9 8.19 2.08 11.97.73l46.13 26.64-168.02 97.64c-10.2 5.93-26.88 5.93-37.15 0l-15.94-9.23 37.94-22.111c3.73 1.22 8.49.971 11.61-.859 3.79-2.2 3.73-5.74-.06-7.94s-9.96-2.26-13.81-.06c-3.36 2.01-3.67 5.07-1.04 7.27l-37.52 21.81c-.06.06-.06.12-.12.12l-152.81-88.161 18.82-10.939c3.73 1.16 8.43.98 11.61-.86 3.79-2.2 3.73-5.8-.06-7.94-3.79-2.26-10.02-2.26-13.81-.06-3.36 1.96-3.66 5.01-1.04 7.27l-18.57 10.75-17.41-10.08c-9.3-5.31-10.09-13.97-.13-19.73l178.35-103.69 59.63 15.83c-3.62 20.41 20.93 32.6 35.01 18.51 3.49-3.48 5.38-7.88 5.87-12.34l141.51 81.69c9.72 5.56 9.78 14.14.12 19.73l-19.92 11.609-46.01-26.579c2.32-2.2 1.83-5.07-1.4-6.96Zm-268.9-145.78 29.14-28.97 38.68 10.27-62.26 36.17-.55-.12c1.04-6.05-.61-12.47-5.01-17.35Zm123.79-125.75-33.85-126.29 125.8 33.3 33.85 126.29-125.8-33.3Zm124.64 36.6-91.41 90.92-125.43-33.24 91.34-90.92 125.5 33.24Zm-127.7-35.68-86.33 85.97-5.26 5.19-33.85-126.29 91.59-91.16 33.85 126.29Zm-48.76 107.23 84.75 22.42 10.57 39.66c-.86.3-1.65.67-2.51 1.03l-19.36-11.18c-11.12-6.41-29.21-6.41-40.27 0l-11.24 6.54-84.2-22.3 62.26-36.17Zm89.88 64.95c-3.13 2.23-5.56 5.2-7.21 9.65l-56.58-15.03c5.47-2.51 11.77-9.41 27.19-9.41 6.78 0 13.51 1.47 18.64 4.46l17.96 10.33Zm25.42.73c-4.89-4.03-11.12-5.56-16.99-4.46l-10.75-40.02 20.28-20.16 45.77 26.45-38.31 38.19Zm60.18-296.51c.06-.06 0-.13.06-.13 4.89 4.28 11.3 5.87 17.35 4.77l40.33 150.36c-2.87.98-5.56 2.57-7.88 4.89-2.26 2.26-3.85 5.01-4.83 7.88l-39.41-10.44-34.4-128.56 28.78-28.77Zm-161.3-51.27c2.32-2.32 3.91-5.01 4.89-7.88l149.57 39.59c-1.1 6.05.55 12.41 4.82 17.36-.06 0-.12 0-.18.06l-28.84 28.84-127.51-33.79-4.58-17.05-5.99-22.3c2.87-.98 5.56-2.57 7.82-4.83Zm-28.11.92c4.89 4.28 11.31 5.93 17.36 4.77l10.57 39.47-92.69 92.26-39.29-10.45c1.16-6.11-.55-12.59-4.95-17.54l109-108.51Zm-117.61 141.81c2.87-1.04 5.56-2.56 7.88-4.89 2.32-2.26 3.85-5.01 4.83-7.88l39.16 10.39 34.4 128.43-28.9 28.78c-4.89-4.04-11.18-5.56-17.05-4.46l-40.32-150.37Zm215.98 503.89c-14.69 8.61-41.5 9.98-58.71 0l-299.51-172.91c-.25-.13-.49-.31-.74-.43-14.72-8.92-15.12-22.71.43-31.9l184.83-107.41c9 .93 17.26-3.98 20.77-12.1l2.26-1.28 84.2 22.3-175.72 102.16c-11.79 6.79-11.47 18.32.12 25.05l192.22 110.96c10.94 6.37 28.96 6.49 40.2 0l170.22-98.921c.06 0 .12-.06.12-.06l20.66-11.979c11.63-6.83 11.73-18.23-.13-25.11l-142.91-82.48c-.24-4.59-2.01-9.05-5.25-12.65l38.86-38.68 225.51 130.2c15.4 8.87 16.14 22.99.19 32.33l-297.62 172.91Zm309.23-112.791c-.13 6.05-4.28 11.73-11.74 16.01L709.738 826.9c-.18 0-.31.19-.49.31l-153.36 89.079.12-72.579 296.82-172.49c2.87-1.73 8.57-5.96 10.15-9.1l-.06 66.539Z"/><path fill="#000" stroke="#000" stroke-miterlimit="10" stroke-width="3" d="m646.869 402.08-125.8-33.3-33.85-126.29 125.8 33.3 33.85 126.29ZM354.878 776.93c-.43.31-.73.79-.73 1.34v45.34c0 .55.31 1.04.73 1.28l122.44 70.69c.24.12.49.18.73.18.31 0 .55-.06.79-.18.43-.24.73-.79.73-1.28l.12-45.34c0-.55-.31-1.04-.8-1.28l-122.5-70.75c-.43-.24-1.04-.24-1.53 0h.02Zm106.13 94.76c-.24.49-.79.79-1.28.79-.31 0-.55-.06-.79-.24l-51.32-29.63c-.73-.37-.98-1.34-.55-2.08a1.51 1.51 0 0 1 2.08-.55l51.32 29.63c.73.43.98 1.34.55 2.08h-.01Zm-16.99-26.09c.43-.73 1.41-.98 2.14-.55l14.3 8.25c.73.43.98 1.34.55 2.08-.24.49-.79.79-1.28.79-.31 0-.55-.06-.79-.24l-14.3-8.25c-.73-.43-1.04-1.34-.61-2.08h-.01Zm-71.79-41.48a1.51 1.51 0 0 1 2.08-.55l56.46 32.63c.73.43 1.04 1.34.61 2.08-.31.49-.79.73-1.34.73-.24 0-.55-.06-.79-.18l-56.46-32.63a1.51 1.51 0 0 1-.55-2.08h-.01Zm0 16.31a1.51 1.51 0 0 1 2.08-.55l14.85 8.55c.73.43.98 1.34.55 2.08-.31.49-.8.79-1.34.79-.24 0-.49-.06-.73-.24l-14.85-8.55a1.51 1.51 0 0 1-.55-2.08h-.01Zm211.881-179.16-50.07-28.91 13.32-7.74-11.31-6.53-39.94 23.21 11.31 6.53 13.3-7.73 50.07 28.91-13.29 7.73 11.33 6.54 39.94-23.21-11.34-6.54-13.32 7.74Zm-88.28-3.41c-7.64-1.34-15.21-1.34-22.55-.06-7.39 1.34-14.3 3.85-20.77 7.64-6.48 3.73-10.81 7.76-13.08 12.04-2.26 4.28-2.2 8.68.18 13.08 2.38 4.46 7.09 8.74 14.24 12.83l40.32 23.28 13.2-7.64-18.7-10.81 37.58-21.87 18.7 10.81 13.38-7.76-40.32-23.28c-7.09-4.15-14.48-6.84-22.18-8.25v-.01Zm-18.51 43.81-11.49-6.66c-6.72-3.91-10.14-7.76-10.26-11.67-.12-3.91 2.75-7.58 8.68-11s12.28-5.13 18.94-5.07c6.72.06 13.5 2.02 20.22 5.93l11.49 6.6-37.58 21.87Z"/><mask id="a" width="256" height="256" x="390" y="243" maskUnits="userSpaceOnUse" style="mask-type:luminance"><path fill="#fff" d="m390.559 332.25 93.6-88.84 36.91 125.37 124.64 36.6-88.9 92.75-130.39-37.27-35.86-128.61Z"/></mask><g mask="url(#a)"><mask id="b" width="652" height="375" x="214" y="185" maskUnits="userSpaceOnUse" style="mask-type:luminance"><path fill="#fff" d="m214.09 368.811 320.12-183.27 331.7 183.27-329.49 190.72-322.33-190.72Z"/></mask><g fill="#1F375B" mask="url(#b)"><path d="M455.167 240.221h-3.39v3.59h3.39v-3.59Z" opacity=".84"/><path d="M469.078 239.98h-3.84v4.07h3.84v-4.07Z" opacity=".68"/><path d="M484.018 238.65h-6.35v6.72h6.35v-6.72Z" opacity=".85"/><path d="M509.84 240.279h-3.27v3.46h3.27v-3.46Z" opacity=".81"/><path d="M523.219 240.59h-2.68v2.84h2.68v-2.84Z" opacity=".53"/><path d="M538.359 239.051h-5.589v5.91h5.589v-5.91Z" opacity=".64"/><path d="M551.199 239.939h-3.91v4.14h3.91v-4.14Z" opacity=".63"/><path d="M619.4 240.17h-3.49v3.69h3.49v-3.69Z" opacity=".62"/><path d="M400.129 255.029h-2.75v2.91h2.75v-2.91Z" opacity=".57"/><path d="M427.259 255.279h-2.29v2.42h2.29v-2.42Z" opacity=".73"/><path d="M439.947 256.32h-.31v.33h.31v-.33Z" opacity=".67"/><path d="M453.89 256.051h-.82v.87h.82v-.87Z" opacity=".55"/><path d="M467.41 256.221h-.5v.53h.5v-.53Z" opacity=".86"/><path d="M481.728 255.541h-1.79v1.89h1.79v-1.89Z" opacity=".52"/><path d="M495.96 254.961h-2.89v3.06h2.89v-3.06Z" opacity=".74"/><path d="M509.699 254.9h-3v3.17h3v-3.17Z" opacity=".9"/><path d="M523.19 255.1h-2.62v2.77h2.62v-2.77Z" opacity=".52"/><path d="M537.72 254.199h-4.31v4.56h4.31v-4.56Z" opacity=".54"/><path d="M550.687 254.961h-2.89v3.05h2.89v-3.05Z" opacity=".66"/><path d="M564.18 255.16h-2.5v2.64h2.5v-2.64Z" opacity=".94"/><path d="M576.888 256.189h-.56v.59h.56v-.59Z" opacity=".93"/><path d="M592.888 253.73h-5.2v5.5h5.2v-5.5Z" opacity=".67"/><path d="M605.497 254.869h-3.059v3.24h3.059v-3.24Z" opacity=".87"/><path d="M618.558 255.52h-1.82v1.93h1.82v-1.93Z" opacity=".5"/><path d="M632.33 255.43h-1.99v2.1h1.99v-2.1Z" opacity=".8"/><path d="M646.307 255.109h-2.6v2.75h2.6v-2.75Z" opacity=".6"/><path d="M398.957 270.74h-.41v.43h.41v-.43Z" opacity=".84"/><path d="M428.509 268.43h-4.79v5.07h4.79v-5.07Z" opacity=".93"/><path d="M441.807 268.83h-4.03v4.26h4.03v-4.26Z" opacity=".69"/><path d="M453.78 270.641h-.6v.63h.6v-.63Z" opacity=".79"/><path d="M467.427 270.68h-.54v.57h.54v-.57Z" opacity=".74"/><path d="M481.09 270.699h-.5v.53h.5v-.53Z" opacity=".77"/><path d="M496.429 268.939h-3.82v4.04h3.82v-4.04Z" opacity=".73"/><path d="M510.58 268.439h-4.76v5.04h4.76v-5.04Z" opacity=".59"/><path d="M522.418 270.391h-1.07v1.13h1.07v-1.13Z" opacity=".8"/><path d="M536.167 270.32h-1.21v1.28h1.21v-1.28Z" opacity=".53"/><path d="M551.247 268.83h-4.02v4.25h4.02v-4.25Z" opacity=".84"/><path d="M563.278 270.59h-.7v.74h.7v-.74Z" opacity=".82"/><path d="M590.68 270.551h-.77v.81h.77v-.81Z" opacity=".69"/><path d="M604.717 270.16h-1.51v1.6h1.51v-1.6Z" opacity=".81"/><path d="M632.277 269.961h-1.89v2h1.89v-2Z" opacity=".69"/><path d="M647.348 268.48h-4.68v4.95h4.68v-4.95Z" opacity=".67"/><path d="M413.427 284.381h-1.989v2.11h1.989v-2.11Z" opacity=".84"/><path d="M427.027 284.471h-1.82v1.92h1.82v-1.92Z" opacity=".85"/><path d="M454.069 284.801h-1.19v1.26h1.19v-1.26Z" opacity=".8"/><path d="M468.958 283.52h-3.61v3.82h3.61v-3.82Z" opacity=".64"/><path d="M481.799 284.42h-1.92v2.03h1.92v-2.03Z" opacity=".54"/><path d="M495.137 284.77h-1.25v1.33h1.25v-1.33Z" opacity=".65"/><path d="M509.418 284.15h-2.43v2.57h2.43v-2.57Z" opacity=".67"/><path d="M535.958 285.02h-.79v.83h.79v-.83Z" opacity=".94"/><path d="M549.668 284.99h-.84v.88h.84v-.88Z" opacity=".74"/><path d="M564.417 283.859h-2.979v3.15h2.979v-3.15Z" opacity=".69"/><path d="M578.019 283.939h-2.82v2.98h2.82v-2.98Z" opacity=".85"/><path d="M592.228 283.381h-3.88v4.11h3.88v-4.11Z" opacity=".82"/><path d="M604.559 284.811h-1.18v1.25h1.18v-1.25Z" opacity=".84"/><path d="M618.179 284.881h-1.05v1.11h1.05v-1.11Z" opacity=".64"/><path d="M632.158 284.561h-1.65v1.74h1.65v-1.74Z" opacity=".71"/><path d="M646.719 283.631h-3.41v3.61h3.41v-3.61Z" opacity=".51"/><path d="M398.92 299.73h-.33v.35h.33v-.35Z" opacity=".77"/><path d="M412.669 299.66h-.47v.5h.47v-.5Z" opacity=".82"/><path d="M441.34 298.27h-3.09v3.27h3.09v-3.27Z" opacity=".91"/><path d="M455.319 297.949h-3.69v3.91h3.69v-3.91Z" opacity=".79"/><path d="M467.779 299.25h-1.24v1.31h1.24v-1.31Z" opacity=".74"/><path d="M482.569 298.08h-3.46v3.66h3.46v-3.66Z" opacity=".6"/><path d="M495.73 298.631h-2.41v2.55h2.41v-2.55Z" opacity=".78"/><path d="M508.508 299.58h-.61v.64h.61v-.64Z" opacity=".52"/><path d="M522.449 299.301h-1.14v1.21h1.14v-1.21Z" opacity=".64"/><path d="M536.177 299.25h-1.239v1.31h1.239v-1.31Z" opacity=".61"/><path d="M550.32 298.76h-2.16v2.29h2.16v-2.29Z" opacity=".9"/><path d="M563.989 298.779h-2.13v2.25h2.13v-2.25Z" opacity=".69"/><path d="M591.438 298.699h-2.29v2.42h2.29v-2.42Z" opacity=".75"/><path d="M605.697 298.07h-3.47v3.67h3.47v-3.67Z" opacity=".59"/><path d="M618.907 298.58h-2.52v2.66h2.52v-2.66Z" opacity=".78"/><path d="M632.697 298.461h-2.74v2.9h2.74v-2.9Z" opacity=".82"/><path d="M647.1 297.699h-4.17v4.41h4.17v-4.41Z" opacity=".76"/><path d="M427.66 312.75h-3.09v3.27h3.09v-3.27Z" opacity=".56"/><path d="M441.437 312.631h-3.3v3.49h3.3v-3.49Z" opacity=".5"/><path d="M454.788 312.99h-2.62v2.78h2.62v-2.78Z" opacity=".73"/><path d="M467.428 314.1h-.53v.56h.53v-.56Z" opacity=".79"/><path d="M482.947 312.15h-4.22v4.47h4.22v-4.47Z" opacity=".88"/><path d="M495.12 313.75h-1.19V315h1.19v-1.25Z" opacity=".55"/><path d="M509.88 312.6h-3.36v3.56h3.36v-3.56Z" opacity=".82"/><path d="M536.69 313.18h-2.26v2.39h2.26v-2.39Z" opacity=".75"/><path d="M550.039 313.541h-1.59v1.68h1.59v-1.68Z" opacity=".94"/><path d="M563.889 313.369h-1.92v2.03h1.92v-2.03Z" opacity=".65"/><path d="M577.337 313.6h-1.47v1.55h1.47v-1.55Z" opacity=".73"/><path d="M591.088 313.529h-1.6v1.69h1.6v-1.69Zm28.39-1.08h-3.65v3.86h3.65v-3.86Z" opacity=".78"/><path d="M633.529 312.051h-4.4v4.66h4.4v-4.66Z" opacity=".89"/><path d="M646.149 313.18h-2.27v2.4h2.27v-2.4Z" opacity=".64"/><path d="M415.577 325.52h-6.3v6.67h6.3v-6.67Z" opacity=".8"/><path d="M427.187 327.711h-2.16v2.29h2.16v-2.29Z" opacity=".6"/><path d="M441.598 326.939h-3.61v3.82h3.61v-3.82Z" opacity=".74"/><path d="M453.8 328.52h-.64v.67h.64v-.67Z" opacity=".68"/><path d="M482.288 327.33h-2.89v3.05h2.89v-3.05Z" opacity=".64"/><path d="M495.267 328.07h-1.49v1.57h1.49v-1.57Z" opacity=".56"/><path d="M522.227 328.49h-.7v.74h.7v-.74Z" opacity=".55"/><path d="M536.159 328.221h-1.19v1.26h1.19v-1.26Z" opacity=".88"/><path d="M550.049 328.01h-1.6v1.69h1.6v-1.69Z" opacity=".51"/><path d="M564.368 327.33h-2.88v3.04h2.88v-3.04Z" opacity=".83"/><path d="M577.268 328.15h-1.33v1.41h1.33v-1.41Z" opacity=".8"/><path d="M592.267 326.75h-3.97v4.2h3.97v-4.2Z" opacity=".78"/><path d="M605.237 327.5h-2.549v2.7h2.549v-2.7Z" opacity=".77"/><path d="M617.997 328.48h-.7v.74h.7v-.74Z" opacity=".94"/><path d="M632.459 327.66h-2.26v2.39h2.26v-2.39Z" opacity=".68"/><path d="M647.52 326.199h-5.02v5.31h5.02v-5.31Z" opacity=".84"/><path d="M399.969 342.041h-2.43v2.58h2.43v-2.58Z" opacity=".79"/><path d="M413.53 342.17h-2.19v2.32h2.19v-2.32Z" opacity=".89"/><path d="M428.289 341.029h-4.34v4.59h4.34v-4.59Z" opacity=".84"/><path d="M440.539 342.551h-1.48v1.56h1.48v-1.56Z" opacity=".77"/><path d="M456.308 340.34h-5.66v5.99h5.66v-5.99Z" opacity=".93"/><path d="M469.74 340.609h-5.15v5.44h5.15v-5.44Z" opacity=".5"/><path d="M481.268 342.881h-.85v.89h.85v-.89Z" opacity=".82"/><path d="M495.189 342.631h-1.33v1.4h1.33v-1.4Z" opacity=".86"/><path d="M508.34 343.189h-.27v.28h.27v-.28Z" opacity=".52"/><path d="M523.408 341.711h-3.06v3.24h3.06v-3.24Z" opacity=".6"/><path d="M538.448 340.27h-5.78v6.12h5.78v-6.12Z" opacity=".79"/><path d="M550.007 342.52h-1.53v1.62h1.53v-1.62Z" opacity=".94"/><path d="M563.76 342.449h-1.67v1.76h1.67v-1.76Z" opacity=".67"/><path d="M579.728 340.029h-6.24v6.6h6.24v-6.6Z" opacity=".84"/><path d="M591.629 341.91h-2.68v2.83h2.68v-2.83Z" opacity=".83"/><path d="M634.85 339.609h-7.03v7.44h7.03v-7.44Z" opacity=".52"/><path d="M645.76 342.541h-1.49v1.58h1.49v-1.58Z" opacity=".6"/><path d="M400.037 356.439h-2.58v2.73h2.58v-2.73Z" opacity=".93"/><path d="M413.21 356.98h-1.55v1.64h1.55v-1.64Z" opacity=".52"/><path d="M427.56 356.27h-2.9v3.07h2.9v-3.07Zm13.757-.071h-3.04v3.21h3.04v-3.21Z" opacity=".92"/><path d="M455.227 355.949h-3.5v3.7h3.5v-3.7Z" opacity=".68"/><path d="M468.8 356.07h-3.28v3.47h3.28v-3.47Z" opacity=".83"/><path d="M482.6 355.93h-3.53v3.74h3.53v-3.74Z" opacity=".7"/><path d="M494.917 357.381h-.8v.84h.8v-.84Z" opacity=".61"/><path d="M509.449 356.48h-2.5v2.65h2.5v-2.65Z" opacity=".83"/><path d="M535.87 357.471h-.62v.66h.62v-.66Z" opacity=".5"/><path d="M549.707 357.311h-.93v.98h.93v-.98Z" opacity=".88"/><path d="M563.678 357h-1.51v1.6h1.51V357Z" opacity=".75"/><path d="M577.269 357.1h-1.32v1.4h1.32v-1.4Z" opacity=".71"/><path d="M591.777 356.23h-2.98v3.15h2.98v-3.15Z" opacity=".89"/><path d="M618.907 356.471h-2.52v2.67h2.52v-2.67Z" opacity=".79"/><path d="M633.058 355.971h-3.46v3.66h3.46v-3.66Z" opacity=".55"/><path d="M646.547 356.18h-3.07v3.24h3.07v-3.24Z" opacity=".64"/><path d="M413.727 370.91h-2.59v2.74h2.59v-2.74Z" opacity=".5"/><path d="M427.17 371.17h-2.1v2.22h2.1v-2.22Z" opacity=".72"/><path d="M440.647 371.369h-1.709v1.81h1.709v-1.81Z" opacity=".62"/><path d="M456.327 369.26h-5.71v6.04h5.71v-6.04Z" opacity=".87"/><path d="M467.418 372h-.52v.55h.52V372Z" opacity=".62"/><path d="M482.817 370.189h-3.95v4.18h3.95v-4.18Z" opacity=".8"/><path d="M494.948 371.811h-.87v.93h.87v-.93Z" opacity=".67"/><path d="M509 371.43h-1.59v1.69H509v-1.69Z" opacity=".62"/><path d="M523.27 370.811h-2.77v2.94h2.77v-2.94Z" opacity=".63"/><path d="M536.868 370.9h-2.61v2.76h2.61v-2.76Z" opacity=".92"/><path d="M551.17 370.24h-3.85v4.08h3.85v-4.08Z" opacity=".67"/><path d="M564.957 370.131h-4.07v4.3h4.07v-4.3Z" opacity=".73"/><path d="M591.39 371.109h-2.21v2.34h2.21v-2.34Z" opacity=".52"/><path d="M605.038 371.15h-2.14v2.26h2.14v-2.26Z" opacity=".54"/><path d="M618.807 371.041h-2.33v2.47h2.33v-2.47Z" opacity=".61"/><path d="M632.308 371.24h-1.96v2.07h1.96v-2.07Z" opacity=".53"/><path d="M646.838 370.35h-3.65v3.86h3.65v-3.86Z" opacity=".7"/><path d="M400.668 384.721h-3.84v4.07h3.84v-4.07Z" opacity=".57"/><path d="M414.479 384.58h-4.1v4.34h4.1v-4.34Z" opacity=".85"/><path d="M440.198 386.33h-.8v.85h.8v-.85Z" opacity=".72"/><path d="M454.21 385.98h-1.46v1.55h1.46v-1.55Z" opacity=".53"/><path d="M469.189 384.6h-4.06v4.3h4.06v-4.3Z" opacity=".83"/><path d="M482.369 385.131h-3.06v3.23h3.06v-3.23Z" opacity=".69"/><path d="M508.997 385.9h-1.61v1.71h1.61v-1.71Z" opacity=".54"/><path d="M522.169 386.461h-.56v.59h.56v-.59Z" opacity=".65"/><path d="M536.048 386.24h-.97v1.03h.97v-1.03Z" opacity=".71"/><path d="M565.547 383.971h-5.25v5.56h5.25v-5.56Z" opacity=".66"/><path d="M578.769 384.471h-4.32v4.57h4.32v-4.57Z" opacity=".62"/><path d="M591.328 385.641h-2.09v2.21h2.09v-2.21Z" opacity=".67"/><path d="M604.459 386.23h-.99v1.05h.99v-1.05Z" opacity=".51"/><path d="M620.21 384.041h-5.12v5.42h5.12v-5.42Z" opacity=".81"/><path d="M631.787 386.26h-.92v.97h.92v-.97Z" opacity=".82"/><path d="M647.34 384.279h-4.66v4.93h4.66v-4.93Z" opacity=".59"/><path d="M399.857 400.051h-2.22v2.35h2.22v-2.35Z" opacity=".5"/><path d="M412.8 400.84h-.73v.77h.73v-.77Z" opacity=".79"/><path d="M426.759 400.541h-1.29v1.37h1.29v-1.37Z" opacity=".53"/><path d="M468.5 399.801h-2.68v2.84h2.68v-2.84Zm13.17.539H480v1.77h1.67v-1.77Z" opacity=".6"/><path d="M509.98 399.34h-3.55v3.76h3.55v-3.76Z" opacity=".93"/><path d="M523.42 399.59h-3.08v3.26h3.08v-3.26Z" opacity=".94"/><path d="M537.56 399.109h-3.99v4.22h3.99v-4.22Z" opacity=".8"/><path d="M551.199 399.16h-3.91v4.13h3.91v-4.13Z" opacity=".65"/><path d="M564.898 399.131h-3.96v4.19h3.96v-4.19Z" opacity=".72"/><path d="M591.299 400.15h-2.029v2.15h2.029v-2.15Z" opacity=".83"/><path d="M606.028 399.051h-4.11v4.35h4.11v-4.35Z" opacity=".59"/><path d="M618.357 400.471h-1.419v1.51h1.419v-1.51Z" opacity=".75"/><path d="M631.787 400.74h-.92v.97h.92v-.97Z" opacity=".93"/><path d="M646.778 399.35h-3.54v3.75h3.54v-3.75Z" opacity=".85"/><path d="M399.977 414.4h-2.45v2.6h2.45v-2.6Zm13.463.231h-2.01v2.13h2.01v-2.13Z" opacity=".83"/><path d="M427.199 414.561h-2.16v2.28h2.16v-2.28Z" opacity=".79"/><path d="M440.279 415.189h-.97v1.02h.97v-1.02Z" opacity=".87"/><path d="M455.37 413.699h-3.78v4h3.78v-4Z" opacity=".86"/><path d="M467.988 414.82h-1.66v1.76h1.66v-1.76Z" opacity=".84"/><path d="M496.739 413.359h-4.43v4.68h4.43v-4.68Z" opacity=".5"/><path d="M509.687 414.119h-2.98v3.16h2.98v-3.16Z" opacity=".9"/><path d="M523.139 414.369h-2.51v2.66h2.51v-2.66Zm27.029.361h-1.84v1.94h1.84v-1.94Z" opacity=".74"/><path d="M563.098 415.52h-.34v.36h.34v-.36Z" opacity=".69"/><path d="M577.06 415.221h-.9v.95h.9v-.95Z" opacity=".67"/><path d="M605.219 414.381h-2.5v2.64h2.5v-2.64Z" opacity=".76"/><path d="M619.198 414.061h-3.1v3.28h3.1v-3.28Z" opacity=".8"/><path d="M646.028 414.619h-2.04v2.16h2.04v-2.16Z" opacity=".86"/><path d="M400.498 428.33h-3.49v3.69h3.49v-3.69Z" opacity=".69"/><path d="M414.409 428.09h-3.94v4.17h3.94v-4.17Z" opacity=".57"/><path d="M441.018 428.881h-2.44v2.58h2.44v-2.58Z" opacity=".89"/><path d="M455.858 427.65h-4.76v5.04h4.76v-5.04Z" opacity=".92"/><path d="M468.117 429.16h-1.91v2.02h1.91v-2.02Z" opacity=".86"/><path d="M481.37 429.619h-1.05v1.11h1.05v-1.11Z" opacity=".89"/><path d="M494.938 429.73h-.84v.89h.84v-.89Z" opacity=".77"/><path d="M508.898 429.439h-1.39v1.47h1.39v-1.47Z" opacity=".61"/><path d="M523.248 428.721h-2.74v2.9h2.74v-2.9Z" opacity=".78"/><path d="M536.159 429.541h-1.19v1.26h1.19v-1.26Z" opacity=".51"/><path d="M551.787 427.471h-5.099v5.4h5.099v-5.4Z" opacity=".59"/><path d="M563.139 429.949h-.42v.45h.42v-.45Z" opacity=".58"/><path d="M591.82 428.551h-3.07v3.25h3.07v-3.25Z" opacity=".75"/><path d="M605.489 428.561h-3.04v3.22h3.04v-3.22Z" opacity=".82"/><path d="M618.769 428.99h-2.23v2.35h2.23v-2.35Z" opacity=".5"/><path d="M632.33 429.119h-1.99v2.1h1.99v-2.1Z" opacity=".67"/><path d="M646.079 429.051h-2.13v2.25h2.13v-2.25Z" opacity=".53"/><path d="M414.358 442.609h-3.85v4.07h3.85v-4.07Zm13.741-.058h-3.97v4.2h3.97v-4.2Zm13.341.359h-3.28v3.47h3.28v-3.47Z" opacity=".9"/><path d="M455.727 442.27h-4.5v4.76h4.5v-4.76Z" opacity=".77"/><path d="M481.77 443.66h-1.86v1.97h1.86v-1.97Z" opacity=".82"/><path d="M494.837 444.301h-.649v.69h.649v-.69Z" opacity=".74"/><path d="M508.799 444.01h-1.19v1.26h1.19v-1.26Z" opacity=".6"/><path d="M522.627 443.859h-1.49v1.58h1.49v-1.58Z" opacity=".86"/><path d="M535.847 444.34h-.57v.61h.57v-.61Z" opacity=".93"/><path d="M550.728 443.07h-2.97v3.14h2.97v-3.14Z" opacity=".62"/><path d="M563.907 443.6h-1.969v2.09h1.969v-2.09Z" opacity=".55"/><path d="M577.157 444.061h-1.11v1.18h1.11v-1.18Z" opacity=".89"/><path d="M591.047 443.84h-1.52v1.6h1.52v-1.6Zm13.9-.24h-1.97v2.09h1.97v-2.09Z" opacity=".66"/><path d="M617.827 444.461h-.35v.37h.35v-.37Z" opacity=".9"/><path d="M632.9 442.99h-3.13v3.31h3.13v-3.31Z" opacity=".79"/><path d="M646.159 443.43h-2.3v2.44h2.3v-2.44Z" opacity=".69"/><path d="M399.697 458.109h-1.9v2.01h1.9v-2.01Z" opacity=".5"/><path d="M412.989 458.529h-1.11v1.17h1.11v-1.17Z" opacity=".73"/><path d="M426.597 458.609h-.96v1.01h.96v-1.01Zm13.612.071h-.83v.88h.83v-.88Z" opacity=".77"/><path d="M455.968 456.49h-4.98v5.26h4.98v-5.26Z" opacity=".51"/><path d="M470.168 455.93h-6.02v6.37h6.02v-6.37Z" opacity=".64"/><path d="M482.229 457.65h-2.78v2.94h2.78v-2.94Z" opacity=".84"/><path d="M495.058 458.561h-1.07v1.13h1.07v-1.13Z" opacity=".7"/><path d="M509.15 458.119h-1.9v2.01h1.9v-2.01Z" opacity=".58"/><path d="M522.397 458.58h-1.03v1.09h1.03v-1.09Z" opacity=".5"/><path d="M536.087 458.561h-1.06v1.13h1.06v-1.13Z" opacity=".75"/><path d="M549.919 458.4h-1.36v1.44h1.36v-1.44Z" opacity=".54"/><path d="M564.117 457.859h-2.39v2.53h2.39v-2.53Z" opacity=".72"/><path d="M577.429 458.25h-1.64v1.74h1.64v-1.74Z" opacity=".69"/><path d="M591.297 458.051h-2.02v2.14h2.02v-2.14Z" opacity=".51"/><path d="M607.069 455.85h-6.19v6.55h6.19v-6.55Z" opacity=".5"/><path d="M618.388 458.34h-1.47v1.55h1.47v-1.55Z" opacity=".63"/><path d="M632.929 457.42h-3.21v3.4h3.21v-3.4Z" opacity=".59"/><path d="M645.987 458.08h-1.96v2.08h1.96v-2.08Z" opacity=".61"/><path d="M400.869 471.35h-4.24v4.49h4.24v-4.49Zm26.281 1.16h-2.06v2.18h2.06v-2.18Z" opacity=".89"/><path d="M440.857 472.471h-2.13v2.25h2.13v-2.25Z" opacity=".52"/><path d="M468.398 472.279h-2.48v2.62h2.48v-2.62Z" opacity=".86"/><path d="M482.289 472.051h-2.91v3.08h2.91v-3.08Z" opacity=".89"/><path d="M495.997 472.02h-2.97v3.14h2.97v-3.14Z" opacity=".9"/><path d="M508.707 473.051h-1.019v1.08h1.019v-1.08Z" opacity=".72"/><path d="M523.588 471.791h-3.42v3.62h3.42v-3.62Z" opacity=".87"/><path d="M535.868 473.27h-.61v.65h.61v-.65Z" opacity=".56"/><path d="M551.33 471.391h-4.17v4.41h4.17v-4.41Z" opacity=".75"/><path d="M565.137 471.25h-4.43v4.69h4.43v-4.69Z" opacity=".7"/><path d="M578.378 471.711h-3.55v3.76h3.55v-3.76Z" opacity=".79"/><path d="M591.58 472.23H589v2.72h2.58v-2.72Z" opacity=".78"/><path d="M604.329 473.211h-.72v.76h.72v-.76Z" opacity=".82"/><path d="M618.73 472.449h-2.16v2.29h2.16v-2.29Z" opacity=".93"/><path d="M631.707 473.199h-.75v.79h.75v-.79Z" opacity=".73"/><path d="M400.148 486.59h-2.8v2.96h2.8v-2.96Z" opacity=".72"/><path d="M415.06 485.301h-5.24v5.54h5.24v-5.54Z" opacity=".53"/><path d="M427.237 486.869h-2.26v2.39h2.26v-2.39Z" opacity=".81"/><path d="M440.787 487.01h-1.99v2.11h1.99v-2.11Z" opacity=".94"/><path d="M453.808 487.721h-.66v.7h.66v-.7Z" opacity=".83"/><path d="M468.81 486.311h-3.31v3.51h3.31v-3.51Z" opacity=".66"/><path d="M482.117 486.711h-2.57v2.72h2.57v-2.72Z" opacity=".64"/><path d="M496.239 486.25h-3.43v3.63h3.43v-3.63Z" opacity=".93"/><path d="M523.299 486.57h-2.83v3h2.83v-3Z" opacity=".89"/><path d="M538.268 485.199h-5.42v5.73h5.42v-5.73Z" opacity=".78"/><path d="M549.689 487.59h-.9v.95h.9v-.95Z" opacity=".92"/><path d="M563.219 487.76h-.59v.62h.59v-.62Z" opacity=".79"/><path d="M577.798 486.811h-2.38v2.51h2.38v-2.51Z" opacity=".77"/><path d="M604.948 487.029h-1.96v2.07h1.96v-2.07Z" opacity=".54"/><path d="M618.88 486.76h-2.47v2.62h2.47v-2.62Z" opacity=".77"/><path d="M633.197 486.09h-3.74v3.95h3.74v-3.95Z" opacity=".92"/><path d="M645.669 487.369h-1.31v1.39h1.31v-1.39Z" opacity=".76"/></g></g></svg>