<svg xmlns="http://www.w3.org/2000/svg" width="149" height="149" fill="none"><g fill="#767676" opacity=".73"><path d="M74.5 148.98C33.411 148.98 0 115.569 0 74.5S33.411 0 74.5 0 149 33.411 149 74.5 115.589 149 74.5 149v-.02Zm0-147.511C34.234 1.469 1.469 34.234 1.469 74.5c0 40.266 32.765 73.031 73.031 73.031 40.266 0 73.031-32.765 73.031-73.031 0-40.266-32.765-73.031-73.031-73.031Z"/><path d="M74.506 148.98c-29.612 0-53.701-33.411-53.701-74.5C20.805 33.392 44.894 0 74.505 0c29.613 0 53.702 33.411 53.702 74.5S104.118 149 74.506 149v-.02Zm0-147.511c-28.81 0-52.233 32.765-52.233 73.031 0 40.266 23.424 73.031 52.233 73.031 28.809 0 52.232-32.765 52.232-73.031 0-40.266-23.443-73.031-52.232-73.031Z"/><path d="M74.497 148.98c-15.217 0-27.614-33.411-27.614-74.5C46.883 33.392 59.26 0 74.497 0s27.615 33.411 27.615 74.5S89.734 149 74.497 149v-.02Zm0-147.511c-14.414 0-26.145 32.765-26.145 73.031 0 40.266 11.73 73.031 26.145 73.031s26.146-32.765 26.146-73.031c0-40.266-11.731-73.031-26.146-73.031Z"/><path d="M74.498 148.98a.727.727 0 0 1-.725-.744V.744A.74.74 0 0 1 74.498 0a.74.74 0 0 1 .725.744v147.512a.74.74 0 0 1-.725.744v-.02Z"/><path d="M74.496 139.875c-16.862 0-33.47-2.938-48.021-8.48a.742.742 0 0 1-.431-.941.74.74 0 0 1 .94-.43c14.395 5.483 30.826 8.382 47.512 8.382s33.51-2.977 48.041-8.578a.715.715 0 0 1 .94.411.715.715 0 0 1-.411.94c-14.688 5.68-31.492 8.676-48.55 8.676l-.02.02ZM26.732 19.015a.737.737 0 0 1-.686-.47.724.724 0 0 1 .43-.94c14.572-5.542 31.18-8.48 48.023-8.48 16.842 0 33.372 2.918 47.904 8.441a.74.74 0 0 1 .43.94.74.74 0 0 1-.94.43c-14.375-5.463-30.748-8.342-47.375-8.342s-33.098 2.898-47.493 8.382c-.078.04-.176.04-.254.04h-.04Zm117.395 31.827s-.176 0-.255-.04C125.561 43.89 100.923 40.07 74.503 40.07S23.446 43.89 5.135 50.803c-.392.137-.803-.04-.94-.431a.724.724 0 0 1 .43-.94c18.469-6.972 43.302-10.83 69.898-10.83 26.596 0 51.41 3.838 69.898 10.83a.74.74 0 0 1 .43.94.736.736 0 0 1-.685.47h-.039Zm-69.63 59.554c-26.596 0-51.41-3.839-69.897-10.83a.74.74 0 0 1-.431-.94.74.74 0 0 1 .94-.431c18.312 6.913 42.949 10.732 69.369 10.732 26.419 0 51.057-3.819 69.369-10.733.391-.137.803.04.94.431a.725.725 0 0 1-.431.94c-18.469 6.973-43.302 10.831-69.898 10.831h.04Zm73.759-35.166H.725A.727.727 0 0 1 0 74.487a.74.74 0 0 1 .725-.744h147.511c.411 0 .725.333.725.744a.74.74 0 0 1-.725.745h.02Z"/></g><path fill="#0059FE" d="M71.882 41.123A3.012 3.012 0 0 1 71 39.008a3.016 3.016 0 0 1 .882-2.134c.595-.575 1.297-.866 2.111-.874.815 0 1.517.291 2.12.869.583.596.874 1.298.887 2.115 0 .815-.291 1.517-.86 2.12a2.989 2.989 0 0 1-2.128.896h-.013c-.817-.008-1.517-.3-2.12-.874l.003-.003Zm-53 35A3.012 3.012 0 0 1 18 74.008a3.016 3.016 0 0 1 .882-2.134c.595-.575 1.297-.866 2.111-.874.815 0 1.517.291 2.12.869.583.596.874 1.298.887 2.115 0 .815-.291 1.517-.86 2.12a2.989 2.989 0 0 1-2.128.896h-.013c-.817-.008-1.517-.3-2.12-.874l.003-.003Zm102 31a3.008 3.008 0 0 1-.882-2.115 3.016 3.016 0 0 1 .882-2.134c.595-.575 1.297-.866 2.111-.874.815 0 1.517.291 2.12.869.583.596.874 1.298.887 2.115 0 .815-.291 1.517-.861 2.121a2.988 2.988 0 0 1-2.127.895h-.013c-.817-.008-1.517-.299-2.12-.874l.003-.003Z"/></svg>