<svg xmlns="http://www.w3.org/2000/svg" width="142" height="112" fill="none"><path fill="#000" d="m16.362.037.972-.003 1.063.002 1.132-.002c1.038-.002 2.075-.002 3.112-.002L25.997.03C28.188.027 30.38.027 32.572.026l5.344-.001C42.968.022 48.02.02 53.07.02h1.652c4.418 0 8.837-.002 13.255-.006C72.514.011 77.051.009 81.588.009c2.547 0 5.095 0 7.642-.003 2.168-.003 4.337-.003 6.506-.001 1.106 0 2.213 0 3.319-.002a770.64 770.64 0 0 1 3.041 0c.538.001 1.077 0 1.615-.003 4.479.018 8.121 1.305 11.462 4.334l.638.708.453.46c2.305 2.434 3.453 5.106 3.453 8.424l.003.696c.003.771.004 1.542.005 2.313l.005 1.657a3295.58 3295.58 0 0 1 .015 7.323c.006 2.94.009 5.879.012 8.819.002 3.39.01 6.78.021 10.169.008 2.622.012 5.244.013 7.866.001 1.565.003 3.13.01 4.695a651.6 651.6 0 0 1 .005 4.42c0 .54.002 1.079.005 1.618.027 3.947-.158 7.248-3.016 10.227-1.342 1.34-2.868 2.269-4.573 3.09l-.554.28c-3.664 1.618-8.276 1.159-12.17 1.114l-1.905-.015c-1.36-.01-2.722-.02-4.082-.033a1260.522 1260.522 0 0 0-7.032-.036l-3.367-.01a8145.303 8145.303 0 0 1-5.767-.02 1520.4 1520.4 0 0 1-9.307-.071 910.68 910.68 0 0 0-9.61-.046c-1.79 0-3.581-.008-5.373-.037-10.796-.2-10.796-.2-20.14 4.647-1.193.912-2.486 1.633-3.791 2.371-.487.287-.973.574-1.458.863-2.198 1.299-4.403 2.588-6.607 3.878-1.595.934-3.19 1.87-4.78 2.814l-.84.498-1.534.913c-1.166.693-2.33 1.353-3.554 1.939.162-1.983.69-3.847 1.218-5.757.282-1.03.549-2.062.818-3.095a796.483 796.483 0 0 1 2.381-8.817l-.589-.072c-4.64-.66-9.394-2.506-12.386-6.277C.486 69.869.095 68.376.096 66.009l-.004-.694-.005-2.305-.005-1.652a3212.891 3212.891 0 0 1-.015-7.297c-.005-2.927-.01-5.855-.012-8.783-.002-3.377-.01-6.755-.02-10.133-.009-2.612-.013-5.224-.014-7.836 0-1.559-.003-3.118-.01-4.678a697.333 697.333 0 0 1-.005-4.403c0-.538-.001-1.075-.005-1.613C-.03 11.96.805 8.983 4.07 5.48 7.318 2.37 11.798.04 16.361.037Z"/><path fill="#000" d="M127.684 29.609c.839-.005 1.678-.008 2.517-.01l.716-.005c3.326-.008 5.549.462 8.079 2.707 2.75 2.802 2.653 6.46 2.635 10.121l.006 1.518c.005 1.366.003 2.731-.001 4.097-.002 1.434 0 2.869.002 4.303.002 2.409-.001 4.817-.006 7.226-.006 2.777-.004 5.554.002 8.331.005 2.392.006 4.784.003 7.176-.002 1.426-.002 2.851.002 4.276a539.3 539.3 0 0 1-.006 4.023c-.001.49-.001.979.002 1.468.019 4.294-.557 8.301-3.683 11.543-1.708 1.42-3.959 2.278-6.18 2.254l-1.051-.011.115.445c.396 1.526.79 3.054 1.183 4.581l.442 1.71.633 2.457.201.774.184.72.164.633c.115.55.115.55.115 1.379-1.162-.429-2.222-.994-3.296-1.605l-.58-.328c-2.106-1.199-4.189-2.437-6.274-3.674-1.813-1.075-3.63-2.142-5.448-3.207l-1.059-.621-1.494-.876-.868-.509-.858-.499-.868-.575c-1.166-.661-2.189-.684-3.507-.669l-.726-.005c-.799-.004-1.598 0-2.397.003l-1.722-.006a738.512 738.512 0 0 0-3.706-.003c-1.955.003-3.91-.002-5.865-.008-3.095-.008-6.19-.012-9.284-.013a7792.18 7792.18 0 0 1-16.608-.023c-1.942-.005-3.883-.006-5.825-.005-1.21 0-2.421-.002-3.632-.005h-1.678c-5.585.012-10.11-.453-14.325-4.453-1.028-1.024-1.823-2.052-2.465-3.348l-.5-.846c-.437-1.042-.365-2.116-.348-3.225l.004-.584c.004-.473.01-.946.016-1.419h.496a21552.16 21552.16 0 0 0 32.6-.057l.703-.002c3.754-.008 7.508-.013 11.262-.016 3.854-.004 7.707-.011 11.561-.023 2.377-.007 4.754-.01 7.131-.01 1.631 0 3.262-.004 4.893-.011.94-.004 1.881-.006 2.821-.004 1.022.002 2.043-.003 3.065-.01l.891.007c3.243-.037 6-1.181 8.425-3.33 2.108-2.205 3.178-5.71 3.192-8.699l.005-.562c.005-.616.006-1.231.006-1.847l.009-1.331c.007-1.2.011-2.401.015-3.602.004-1.256.012-2.512.019-3.768.013-2.377.023-4.753.032-7.13.011-2.707.024-5.413.038-8.12.029-5.566.053-11.132.075-16.698Z"/><path fill="#F4F4F4" d="M92.897 29.777c.575.313.575.313 1.104.656l.521.325c1.775 1.302 2.858 3.357 3.21 5.508.09 2.47-.614 4.241-2.178 6.124-1.712 1.836-3.414 2.683-5.918 2.778-2.416-.051-4.146-.943-5.907-2.57-1.45-1.672-2.265-3.784-2.228-5.997.258-2.18 1.182-4.168 2.837-5.616 2.47-1.8 5.645-2.423 8.559-1.208Zm-58.25.662c1.964 1.36 3.13 3.179 3.59 5.521.214 2.145-.32 4.106-1.55 5.892-1.497 1.782-3.171 3.063-5.545 3.29-2.272.087-4.167-.227-5.962-1.692-1.9-1.83-2.944-3.613-3.094-6.282.044-2.206.877-4.028 2.328-5.68 2.812-2.61 6.91-3.183 10.233-1.05Zm25.087-1.162.998-.011c2.235.147 3.808 1.152 5.3 2.772 1.599 1.935 1.933 3.444 1.874 5.947-.268 2.045-1.19 3.872-2.703 5.286-.495.364-.495.364-1.018.69l-.549.343c-1.767.937-3.563 1.06-5.524.761-2.077-.698-3.798-1.71-4.97-3.589l-.343-.539c-.987-1.84-1.025-3.77-.76-5.81.692-2.256 2.145-3.88 4.054-5.211 1.214-.59 2.294-.631 3.64-.639Z"/></svg>