<svg xmlns="http://www.w3.org/2000/svg" width="42" height="28" fill="none"><path fill="#000" d="M25.95 10.008a4.626 4.626 0 0 1-9.25 0 4.626 4.626 0 0 1 9.25 0Z"/><mask id="a" width="17" height="11" x="13" y="16" maskUnits="userSpaceOnUse" style="mask-type:luminance"><path fill="#fff" d="M21.282 16.148c-4.436 0-8.071 3.635-8.071 8.071a2.79 2.79 0 0 0 2.784 2.784h10.573a2.79 2.79 0 0 0 2.784-2.784c0-4.436-3.634-8.07-8.066-8.07h-.005Z"/></mask><g fill="#000" mask="url(#a)"><path d="M14.218 17.578h-.124v.172h.124v-.172Z" opacity=".77"/><path d="M16.606 17.148h-.754v1.03h.754v-1.03Z" opacity=".51"/><path d="M18.768 17.055h-.913V18.3h.913v-1.245Z" opacity=".64"/><path d="M20.597 17.383h-.421v.573h.421v-.573Z" opacity=".84"/><path d="M22.54 17.555h-.161v.22h.161v-.22Z" opacity=".7"/><path d="M24.683 17.469h-.288v.393h.288v-.393Z" opacity=".58"/><path d="M26.684 17.555h-.157v.211h.157v-.211Z" opacity=".5"/><path d="M28.767 17.555h-.162v.22h.162v-.22Z" opacity=".75"/><path d="M14.32 20.273h-.324v.44h.324v-.44Z" opacity=".52"/><path d="M18.494 20.234h-.377v.513h.377v-.513Z" opacity=".86"/><path d="M20.602 20.203h-.442v.602h.442v-.602Z" opacity=".89"/><path d="M22.681 20.188h-.45v.613h.45v-.613Z" opacity=".9"/><path d="M24.607 20.383h-.154v.211h.154v-.211Z" opacity=".72"/><path d="M26.865 20.14h-.517v.707h.517v-.706Z" opacity=".87"/><path d="M28.726 20.43h-.093v.127h.093v-.127Z" opacity=".56"/><path d="M14.31 23.117h-.302v.413h.303v-.413Z" opacity=".94"/><path d="M16.28 23.25h-.1v.136h.1v-.136Z" opacity=".83"/><path d="M18.561 22.977h-.502v.684h.502v-.684Z" opacity=".66"/><path d="M20.582 23.055h-.39v.53h.39v-.53Z" opacity=".64"/><path d="M22.72 22.96h-.52v.71h.52v-.71Z" opacity=".93"/><path d="M26.82 23.023h-.43v.585h.43v-.585Z" opacity=".89"/><path d="M29.09 22.758h-.82v1.12h.82v-1.12Z" opacity=".78"/><path d="M14.536 25.633h-.759v1.035h.759v-1.035Z" opacity=".73"/><path d="M16.421 25.89h-.374v.512h.374v-.511Z" opacity=".5"/><path d="M18.37 26.07h-.128v.175h.127v-.175Z" opacity=".78"/><path d="M20.547 25.922h-.328v.446h.328v-.446Z" opacity=".91"/><path d="M22.642 25.898h-.36v.493h.36v-.493Z" opacity=".62"/><path d="M24.65 25.984h-.236v.324h.237v-.324Z" opacity=".73"/><path d="M26.834 25.844h-.455v.618h.455v-.618Z" opacity=".69"/><path d="M29.008 25.703h-.652v.889h.652v-.889Z" opacity=".83"/></g><path stroke="#000" stroke-miterlimit="10" stroke-width=".7" d="M21.282 16.148c-4.436 0-8.071 3.635-8.071 8.071a2.79 2.79 0 0 0 2.784 2.784h10.573a2.79 2.79 0 0 0 2.784-2.784c0-4.436-3.634-8.07-8.066-8.07h-.005Z"/><path fill="#000" d="M38.653 4.625a4.626 4.626 0 0 1-9.25 0 4.626 4.626 0 0 1 9.25 0Zm-4.676 6.188a8.05 8.05 0 0 0-6.985 4.058l-.52.85.897.425c1.84.896 3.068 2.642 3.35 4.673l.095.803h8.402A2.79 2.79 0 0 0 42 18.837c.047-4.436-3.587-8.023-8.023-8.023v-.002ZM13.16 4.625a4.626 4.626 0 0 1-9.25 0 4.626 4.626 0 0 1 9.25 0Zm-1.462 17.036.095-.803a6.188 6.188 0 0 1 3.35-4.672l.896-.425-.519-.85a8.05 8.05 0 0 0-6.985-4.059c-4.39-.047-8.023 3.54-8.023 8.023a2.79 2.79 0 0 0 2.784 2.785h8.402v.001Z"/></svg>