<svg xmlns="http://www.w3.org/2000/svg" width="46" height="33" fill="none"><mask id="a" width="9" height="9" x="19" y="13" maskUnits="userSpaceOnUse" style="mask-type:luminance"><path fill="#fff" stroke="#fff" stroke-width=".1" d="M23.739 21.798c2.198 0 3.98-1.85 3.98-4.133s-1.782-4.134-3.98-4.134c-2.199 0-3.981 1.85-3.981 4.134 0 2.282 1.782 4.133 3.98 4.133Z"/></mask><g fill="#1F375B" stroke="#000" stroke-width=".1" mask="url(#a)"><path d="M20.528 13.922h-.45v.476h.45v-.476Z" opacity=".74"/><path d="M22.747 13.984h-.31v.33h.31v-.33Z" opacity=".76"/><path d="M26.226 13.945h-.398v.422h.398v-.422Z" opacity=".78"/><path d="M27.2 14.117h-.055v.058h.055v-.058Z" opacity=".61"/><path d="M20.363 15.297h-.117v.123h.117v-.123Z" opacity=".94"/><path d="M21.57 15.227h-.242v.256h.242v-.256Z" opacity=".82"/><path d="M22.732 15.21h-.283v.301h.283v-.3Z" opacity=".93"/><path d="M23.875 15.21h-.273v.29h.273v-.29Z" opacity=".51"/><path d="M24.937 15.297h-.105v.111h.105v-.111Z" opacity=".66"/><path d="M26.101 15.29h-.148v.156h.148v-.157Z" opacity=".69"/><path d="M21.544 16.469h-.196v.209h.196v-.21Z" opacity=".82"/><path d="M22.68 16.484h-.176v.186h.176v-.186Z" opacity=".57"/><path d="M23.798 16.5h-.126v.134h.126V16.5Z" opacity=".81"/><path d="M25.007 16.445h-.245v.261h.245v-.26Z" opacity=".65"/><path d="M26.08 16.523h-.107v.114h.107v-.114Z" opacity=".61"/><path d="M27.256 16.484h-.158v.167h.159v-.167Z" opacity=".8"/><path d="M21.521 17.695h-.162v.172h.162v-.172Z" opacity=".76"/><path d="M22.66 17.719h-.129v.137h.13v-.137Z" opacity=".67"/><path d="M23.966 17.531H23.5v.492h.466v-.492Z" opacity=".88"/><path d="M27.352 17.586h-.368v.388h.368v-.388Z" opacity=".87"/><path d="M20.348 18.945h-.09v.096h.09v-.096Z" opacity=".61"/><path d="M21.573 18.852h-.253v.267h.253v-.267Z" opacity=".84"/><path d="M22.678 18.906h-.166v.178h.166v-.178Z" opacity=".69"/><path d="M23.824 18.906h-.18v.19h.18v-.19Z" opacity=".54"/><path d="M24.923 18.96h-.083v.089h.083v-.088Z" opacity=".64"/><path d="M26.156 18.852h-.261v.276h.26v-.276Z" opacity=".52"/><path d="M27.306 18.852h-.27v.284h.27v-.284Z" opacity=".57"/><path d="M21.505 20.133h-.107v.113h.107v-.113Z" opacity=".71"/><path d="M23.825 20.11h-.173v.183h.173v-.184Z" opacity=".85"/><path d="M26.186 20.04h-.303v.32h.303v-.32Z" opacity=".91"/><path d="M27.325 20.055h-.294v.31h.294v-.31Z" opacity=".67"/><path d="M20.38 21.344h-.15v.159h.15v-.16Z" opacity=".59"/><path d="M21.47 21.39h-.048v.052h.049v-.051Z" opacity=".61"/><path d="M22.678 21.328h-.174v.186h.174v-.186Z" opacity=".55"/><path d="M23.844 21.313h-.215v.228h.215v-.229Zm1.126.015h-.173v.183h.173v-.183Z" opacity=".59"/><path d="M26.06 21.39h-.056v.06h.056v-.06Z" opacity=".62"/><path d="M27.196 21.39h-.052v.056h.052v-.055Z" opacity=".78"/></g><path fill="#000" stroke="#000" stroke-width=".1" d="M43.581 11.517a7.814 7.814 0 0 0-5.565-2.306c-2.1 0-4.08.818-5.566 2.306a7.82 7.82 0 0 0-2.306 5.564 7.84 7.84 0 0 0 2.1 5.351 7.833 7.833 0 0 0 5.772 2.521 7.826 7.826 0 0 0 4.678-1.54l.061-.045c.074-.057.147-.113.22-.173.012-.008.024-.019.035-.028a7.194 7.194 0 0 0 .283-.247c.074-.063.145-.13.216-.2.094-.094.187-.19.278-.288l.024-.027.005-.004a7.834 7.834 0 0 0 2.07-5.32 7.82 7.82 0 0 0-2.305-5.564Zm-.425 10.33a7.843 7.843 0 0 1-.644.612l-.033.028a7.184 7.184 0 0 1-.53.398 5.888 5.888 0 0 1-.206.134c-.03.019-.06.038-.092.056a4.516 4.516 0 0 1-.177.103.386.386 0 0 1-.055.033c-.076.042-.153.081-.232.122l-.037.02a6.945 6.945 0 0 1-3.133.738 6.952 6.952 0 0 1-3.637-1.016l-.075-.045a7.335 7.335 0 0 1-.752-.543l-.033-.028a6.558 6.558 0 0 1-.195-.17l-.036-.033a4.248 4.248 0 0 1-.213-.203 6.995 6.995 0 0 1-.61-.689 6.983 6.983 0 0 1-1.46-4.283c0-1.871.73-3.631 2.054-4.956a6.96 6.96 0 0 1 4.956-2.052c1.874 0 3.632.73 4.956 2.052a6.969 6.969 0 0 1 2.053 4.956 6.983 6.983 0 0 1-1.868 4.766Z"/><path fill="#000" stroke="#000" stroke-width=".1" d="M43.868 21.961a6.39 6.39 0 0 0-5.85-3.828 6.392 6.392 0 0 0-5.854 3.828.43.43 0 0 0 .08.466 7.833 7.833 0 0 0 5.772 2.521 7.826 7.826 0 0 0 4.418-1.354c.088-.062.176-.123.26-.186l.062-.046a7.57 7.57 0 0 0 .218-.173 7.21 7.21 0 0 0 .32-.275 4.01 4.01 0 0 0 .215-.2c.096-.094.189-.19.28-.287.008-.01.016-.018.022-.027 0-.002.003-.003.005-.005a.432.432 0 0 0 .052-.434Zm-1.144.307c-.069.064-.14.126-.212.185l-.033.029a7.335 7.335 0 0 1-.827.588c-.058.036-.118.07-.178.102a5.566 5.566 0 0 1-.324.175 6.945 6.945 0 0 1-3.133.738 6.952 6.952 0 0 1-3.636-1.015l-.076-.046a7.706 7.706 0 0 1-.508-.349 9.431 9.431 0 0 1-.244-.193l-.033-.029a6.585 6.585 0 0 1-.195-.17l-.036-.033a6.461 6.461 0 0 1-.212-.202 5.523 5.523 0 0 1 9.879 0 6.861 6.861 0 0 1-.232.22ZM38.02 10.93a3.32 3.32 0 0 0-3.317 3.317 3.32 3.32 0 0 0 3.317 3.317 3.32 3.32 0 0 0 3.316-3.317 3.32 3.32 0 0 0-3.316-3.317Zm0 5.772a2.457 2.457 0 0 1-2.455-2.455 2.456 2.456 0 0 1 2.455-2.454 2.456 2.456 0 0 1 2.454 2.454 2.458 2.458 0 0 1-2.454 2.455Z"/><path fill="#000" stroke="#000" stroke-width=".1" d="M40.471 14.235a2.457 2.457 0 0 1-2.453 2.455 2.458 2.458 0 0 1-2.456-2.455 2.456 2.456 0 0 1 2.456-2.454 2.456 2.456 0 0 1 2.453 2.454Zm-26.034-2.718A7.81 7.81 0 0 0 8.872 9.21c-2.103 0-4.08.818-5.566 2.306A7.82 7.82 0 0 0 1 17.08a7.84 7.84 0 0 0 2.1 5.351 7.827 7.827 0 0 0 2.57 1.842 7.82 7.82 0 0 0 3.202.68 7.844 7.844 0 0 0 5.772-2.521 7.846 7.846 0 0 0 2.098-5.352 7.814 7.814 0 0 0-2.305-5.564Zm-.425 10.33a6.114 6.114 0 0 1-.433.426 4.166 4.166 0 0 1-.24.21c-.08.069-.164.133-.247.198a7.178 7.178 0 0 1-1.046.652l-.038.02a6.957 6.957 0 0 1-3.135.738 6.957 6.957 0 0 1-3.134-.739l-.038-.019a7.178 7.178 0 0 1-.231-.122.387.387 0 0 1-.055-.033 3.919 3.919 0 0 1-.178-.103l-.091-.056a5.812 5.812 0 0 1-.492-.338 7.244 7.244 0 0 1-.244-.194l-.033-.028a6.484 6.484 0 0 1-.195-.17l-.036-.033a4.227 4.227 0 0 1-.213-.203 6.966 6.966 0 0 1-.609-.689 6.983 6.983 0 0 1-1.459-4.283c0-1.871.728-3.631 2.053-4.956a6.968 6.968 0 0 1 4.956-2.052 6.97 6.97 0 0 1 4.955 2.052 6.968 6.968 0 0 1 2.053 4.956 6.983 6.983 0 0 1-1.868 4.766h-.002Z"/><path fill="#000" stroke="#000" stroke-width=".1" d="M14.719 21.961a6.388 6.388 0 0 0-11.4-.602c-.11.193-.211.394-.302.602a.43.43 0 0 0 .078.466 7.827 7.827 0 0 0 2.57 1.841 7.82 7.82 0 0 0 3.203.68 7.844 7.844 0 0 0 5.772-2.521.43.43 0 0 0 .079-.466Zm-1.144.307a7.557 7.557 0 0 1-.488.407 6.392 6.392 0 0 1-.797.52 5.575 5.575 0 0 1-.248.133l-.038.019a6.957 6.957 0 0 1-3.135.738 6.957 6.957 0 0 1-3.933-1.205 7.303 7.303 0 0 1-.53-.398l-.033-.029a6.62 6.62 0 0 1-.195-.17c-.013-.01-.024-.021-.037-.033a6.51 6.51 0 0 1-.212-.202 5.523 5.523 0 0 1 9.88 0 5.15 5.15 0 0 1-.232.22h-.002Z"/><path fill="#000" stroke="#000" stroke-width=".1" d="M8.88 10.93a3.32 3.32 0 0 0-3.318 3.317 3.32 3.32 0 0 0 3.318 3.317 3.32 3.32 0 0 0 3.317-3.317A3.32 3.32 0 0 0 8.88 10.93Zm0 5.772a2.457 2.457 0 0 1-2.456-2.455 2.456 2.456 0 0 1 2.456-2.454 2.455 2.455 0 0 1 2.453 2.454 2.458 2.458 0 0 1-2.453 2.455Z"/><path fill="#000" stroke="#000" stroke-width=".1" d="M11.327 14.235a2.457 2.457 0 0 1-2.454 2.455 2.458 2.458 0 0 1-2.455-2.455 2.456 2.456 0 0 1 2.455-2.454 2.456 2.456 0 0 1 2.454 2.454Zm12.41-2.008a4.856 4.856 0 0 0-4.85 4.849 4.857 4.857 0 0 0 4.85 4.85 4.856 4.856 0 0 0 4.85-4.85 4.855 4.855 0 0 0-4.85-4.85Zm0 8.837a3.993 3.993 0 0 1-3.987-3.988 3.991 3.991 0 0 1 3.987-3.988 3.991 3.991 0 0 1 3.987 3.988 3.993 3.993 0 0 1-3.987 3.988Zm1.092 10.311c-1.413 0-2.87-.227-4.359-.682-2.656-.813-5.448-2.363-8.298-4.609a.432.432 0 0 1 .533-.677c2.762 2.176 5.456 3.677 8.007 4.459 2.136.654 4.2.814 6.134.475a11.402 11.402 0 0 0 3.409-1.182 12.638 12.638 0 0 0 2.449-1.719c1.3-1.16 1.967-2.225 1.975-2.236a.431.431 0 0 1 .733.453c-.028.047-.725 1.16-2.108 2.401a13.547 13.547 0 0 1-2.618 1.847 12.24 12.24 0 0 1-5.859 1.469l.002.002Z"/><path fill="#000" stroke="#000" stroke-width=".1" d="M12.438 26.181a.432.432 0 0 1-.079-.856l5.834-1.083a.432.432 0 0 1 .16.848l-5.834 1.083a.462.462 0 0 1-.08.008Z"/><path fill="#000" stroke="#000" stroke-width=".1" d="M13.52 32.001a.43.43 0 0 1-.423-.352l-1.082-5.834a.432.432 0 0 1 .848-.158l1.082 5.833a.432.432 0 0 1-.423.511h-.002ZM12.438 8a.431.431 0 0 1-.366-.657c.028-.048.725-1.161 2.108-2.402a13.55 13.55 0 0 1 2.618-1.847 12.24 12.24 0 0 1 3.678-1.28c2.07-.366 4.27-.2 6.54.494 2.656.813 5.448 2.362 8.298 4.608a.432.432 0 0 1-.534.678c-2.761-2.176-5.456-3.677-8.007-4.459-2.136-.654-4.2-.814-6.134-.475-1.184.208-2.33.606-3.408 1.182a12.642 12.642 0 0 0-2.45 1.719c-1.3 1.16-1.967 2.225-1.975 2.236a.431.431 0 0 1-.366.205L12.438 8Z"/><path fill="#000" stroke="#000" stroke-width=".1" d="M29.208 8.775a.432.432 0 0 1-.079-.856l5.834-1.083a.432.432 0 0 1 .159.847L29.29 8.767a.46.46 0 0 1-.079.008h-.003Z"/><path fill="#000" stroke="#000" stroke-width=".1" d="M35.048 7.697a.43.43 0 0 1-.423-.353l-1.082-5.833a.432.432 0 0 1 .847-.16l1.082 5.835a.432.432 0 0 1-.423.51h-.001Z"/></svg>