<svg xmlns="http://www.w3.org/2000/svg" width="1080" height="1080" fill="none"><g clip-path="url(#a)"><path fill="#000" stroke="#000" stroke-miterlimit="10" d="M604.679 549.729c-2.16 5.03-25.04 13.3-63.57 16.51.23-5.74.34-11.24.34-16.3 0-5.06-.11-10.57-.34-16.31 38.51 3.18 61.37 11.36 63.56 15.9v.21l.01-.01Zm-128.508.2c0 5.07.11 10.56.34 16.31-38.48-3.19-61.34-11.35-63.55-15.9v-.22c2.17-5.02 25.04-13.3 63.56-16.51-.23 5.75-.34 11.25-.34 16.31l-.01.01Zm14.001 94.111c-18.56-3.63-35.56-12.63-49.11-26.3 0-.01 0-.01-.02-.01-13.64-13.52-22.66-30.53-26.28-49.13 15.6 7.16 39.77 10.99 62.67 12.74 1.75 22.92 5.58 47.12 12.75 62.71l-.01-.01Zm112.72-112.76c-15.61-7.16-39.78-10.99-62.68-12.74-1.74-22.88-5.57-47.05-12.72-62.64 18.54 3.62 35.53 12.63 49.06 26.3 0 0 .04.03.06.04 13.65 13.53 22.67 30.51 26.29 49.05l-.01-.01ZM490.14 455.899c-7.15 15.6-10.97 39.76-12.72 62.63-22.89 1.75-47.06 5.58-62.65 12.73 3.72-19 13.11-36.39 27.43-50.21 13.24-13.01 29.84-21.63 47.95-25.16l-.01.01ZM602.901 568.58c-3.53 18.13-12.17 34.75-25.22 48.06-13.8 14.29-31.2 23.67-50.22 27.39 7.17-15.61 11-39.79 12.75-62.71 22.91-1.75 47.09-5.58 62.69-12.74Zm-77.771 13.649c-3.2 38.62-11.42 61.54-15.95 63.6h-.12c-5.02-2.05-13.34-24.99-16.56-63.61 5.74.22 11.25.33 16.31.33 5.06 0 10.56-.11 16.31-.33l.01.01Zm1.382-32.299c0 6.06-.2 11.721-.43 17.271-5.55.23-11.21.419-17.27.419-6.06 0-11.73-.189-17.28-.419-.23-5.55-.43-11.211-.43-17.271 0-6.06.2-11.73.43-17.27 5.55-.23 11.21-.43 17.28-.43s11.72.2 17.27.43c.23 5.54.43 11.21.43 17.27Zm-1.392-32.3c-5.74-.22-11.25-.33-16.3-.33-5.05 0-10.57.11-16.32.33 3.18-38.4 11.32-61.24 15.87-63.51.09 0 .19-.02.27-.02 5.03 2.25 13.28 25.1 16.48 63.53Z"/><path fill="#1E1E1E" stroke="#000" stroke-miterlimit="10" stroke-width="3" d="M392.471 244.68c-.98 0-1.78-.79-1.79-1.77-.01-1.24.03-2.5.13-3.74.08-.99.95-1.72 1.93-1.65a1.8 1.8 0 0 1 1.65 1.93c-.09 1.13-.13 2.28-.12 3.42.01.99-.78 1.8-1.77 1.81h-.03Zm232.659-17.019c-.68 0-1.33-.39-1.63-1.05a47.88 47.88 0 0 0-3.4-6.21c-.53-.83-.29-1.94.54-2.48.83-.54 1.94-.3 2.47.54 1.4 2.18 2.63 4.42 3.66 6.67.41.9 0 1.96-.89 2.37-.24.11-.49.16-.74.16h-.01Zm-229.12-.04c-.24 0-.48-.05-.71-.15a1.786 1.786 0 0 1-.93-2.36c.99-2.27 2.18-4.53 3.55-6.73.52-.84 1.63-1.1 2.47-.57.84.52 1.1 1.63.57 2.47a47.042 47.042 0 0 0-3.3 6.26c-.29.68-.95 1.08-1.65 1.08Zm216.74-17.18c-.45 0-.91-.17-1.26-.51a75.706 75.706 0 0 0-5.35-4.79c-.77-.63-.88-1.75-.26-2.52.63-.77 1.75-.88 2.52-.26a80.54 80.54 0 0 1 5.6 5.01c.71.69.71 1.83.02 2.54-.35.35-.81.53-1.28.53h.01Zm-204.57-.18c-.46 0-.92-.18-1.27-.52-.7-.7-.7-1.84 0-2.53 1.72-1.73 3.6-3.42 5.58-5.05.76-.63 1.89-.52 2.52.25.63.77.52 1.89-.24 2.52a73.27 73.27 0 0 0-5.32 4.82c-.35.35-.81.52-1.26.52l-.01-.01Zm187.65-12.71c-.31 0-.63-.08-.92-.26a114.54 114.54 0 0 0-6.32-3.53 1.79 1.79 0 0 1-.76-2.42c.46-.88 1.54-1.22 2.42-.77 1.62.84 3.22 1.72 4.78 2.62.58.34 1.16.68 1.73 1.02a1.792 1.792 0 0 1-.93 3.33v.01Zm-170.78-.25a1.795 1.795 0 0 1-.93-3.33c.6-.37 1.21-.72 1.83-1.08 1.51-.87 3.09-1.73 4.69-2.56a1.8 1.8 0 0 1 1.66 3.19c-1.55.8-3.08 1.64-4.55 2.49-.6.34-1.19.69-1.77 1.04-.29.18-.61.26-.92.26l-.01-.01Zm151.63-9.09c-.22 0-.44-.04-.65-.12-2.22-.87-4.52-1.71-6.83-2.48a1.798 1.798 0 0 1-1.13-2.27c.31-.94 1.33-1.44 2.27-1.13 2.36.8 4.72 1.65 6.99 2.54.92.36 1.37 1.4 1.02 2.32a1.79 1.79 0 0 1-1.67 1.14Zm-132.49-.24c-.72 0-1.39-.44-1.67-1.14-.36-.92.1-1.96 1.02-2.32 2.27-.89 4.63-1.74 7-2.53.94-.31 1.95.19 2.27 1.13.31.94-.19 1.95-1.13 2.27-2.32.77-4.62 1.6-6.83 2.47-.21.08-.44.12-.65.12h-.01Zm112.17-6.15c-.15 0-.29-.02-.43-.05-2.33-.57-4.72-1.1-7.11-1.58-.97-.2-1.6-1.14-1.41-2.11.2-.97 1.15-1.6 2.11-1.41 2.43.49 4.87 1.03 7.26 1.62.96.24 1.55 1.21 1.31 2.17-.2.82-.93 1.37-1.74 1.37l.01-.01Zm-91.83-.19c-.81 0-1.54-.55-1.74-1.37-.23-.96.36-1.93 1.32-2.16 2.37-.57 4.81-1.11 7.25-1.59.97-.2 1.91.44 2.11 1.41.19.97-.44 1.91-1.41 2.1-2.39.47-4.78 1-7.1 1.56-.14.03-.28.05-.42.05h-.01Zm70.86-3.66c-.07 0-.15 0-.23-.01-2.38-.3-4.82-.56-7.25-.78-.99-.09-1.71-.96-1.63-1.94.09-.99.96-1.71 1.94-1.63 2.47.22 4.95.49 7.38.79.98.12 1.68 1.02 1.55 2-.12.9-.89 1.57-1.78 1.57h.02Zm-49.89-.11a1.8 1.8 0 0 1-1.78-1.57c-.12-.98.58-1.88 1.56-2 2.44-.3 4.92-.55 7.38-.76.99-.08 1.86.65 1.94 1.64a1.8 1.8 0 0 1-1.64 1.94c-2.41.2-4.85.45-7.25.75-.07 0-.15.01-.22.01l.01-.01Zm28.62-1.43h-.04c-2.43-.05-4.86-.05-7.29-.01-.99-.02-1.8-.77-1.82-1.76-.02-.99.77-1.81 1.76-1.82 2.47-.04 4.94-.03 7.42.02.99.02 1.77.84 1.75 1.83-.02.98-.82 1.76-1.79 1.76l.01-.02Zm114.912 68.25c-.98 0-1.78-.79-1.79-1.77-.01-1.13-.08-2.29-.19-3.41-.1-.99.61-1.86 1.6-1.96.98-.1 1.86.62 1.96 1.61.13 1.24.2 2.49.21 3.73.01.99-.78 1.8-1.77 1.81h-.02v-.01Z"/><path fill="#1E1E1E" stroke="#000" stroke-miterlimit="10" stroke-width="3" d="M511.49 312.912c-30.74 0-61.54-6.78-85.01-20.33-22.88-13.21-35.6-30.85-35.8-49.67 0-.99.78-1.8 1.77-1.81h.02c.98 0 1.78.79 1.79 1.77.19 17.5 12.27 34.05 34.01 46.61 22.98 13.26 53.14 19.9 83.22 19.9 29.84 0 59.61-6.53 82.26-19.6 21.79-12.58 33.68-29.22 33.49-46.87-.01-.99.78-1.8 1.77-1.81h.02c.98 0 1.78.79 1.79 1.77.2 19-12.32 36.76-35.28 50.01-23.13 13.36-53.56 20.03-84.05 20.03Zm-.325 50.048h-.43c-.99 0-1.78-.82-1.77-1.81.01-.99.82-1.81 1.81-1.77 1.14.01 2.28-.03 3.42-.12.99-.08 1.85.66 1.93 1.65.08.99-.66 1.85-1.65 1.93-1.1.09-2.21.13-3.31.13v-.01Z"/><path fill="#1E1E1E" stroke="#000" stroke-miterlimit="10" stroke-width="3" d="M527.812 359.41c-.69 0-1.35-.4-1.65-1.08-.39-.91.02-1.96.93-2.36 2.11-.91 4.22-2.03 6.26-3.3.84-.52 1.95-.27 2.47.57.52.84.27 1.95-.57 2.47a50.549 50.549 0 0 1-6.73 3.55c-.23.1-.47.15-.71.15Zm17.35-12.16c-.46 0-.92-.18-1.26-.53-.7-.7-.7-1.83 0-2.53 1.64-1.65 3.26-3.44 4.82-5.32a1.79 1.79 0 0 1 2.76 2.28 80.35 80.35 0 0 1-5.05 5.57c-.35.35-.81.53-1.27.53Zm12.96-16.87c-.32 0-.64-.08-.93-.26a1.792 1.792 0 0 1-.61-2.46c.35-.58.7-1.17 1.05-1.77.85-1.47 1.68-3 2.49-4.55a1.79 1.79 0 0 1 2.42-.76c.88.45 1.22 1.54.76 2.42-.83 1.59-1.69 3.17-2.57 4.69-.35.62-.71 1.23-1.07 1.83-.34.56-.93.86-1.54.86Zm9.33-19.14c-.22 0-.44-.04-.65-.12-.92-.36-1.38-1.4-1.02-2.32.86-2.22 1.69-4.52 2.47-6.83a1.794 1.794 0 0 1 3.4 1.14c-.79 2.37-1.64 4.73-2.53 7a1.79 1.79 0 0 1-1.67 1.14v-.01Zm6.34-20.35a1.792 1.792 0 0 1-1.74-2.21c.56-2.33 1.08-4.72 1.56-7.1a1.79 1.79 0 0 1 2.11-1.41c.97.19 1.6 1.13 1.41 2.11-.48 2.43-1.01 4.88-1.59 7.25-.2.82-.93 1.37-1.74 1.37l-.01-.01Zm3.78-20.97c-.07 0-.15 0-.22-.01a1.792 1.792 0 0 1-1.56-2c.29-2.39.54-4.83.75-7.25.08-.98.95-1.71 1.94-1.63.99.08 1.72.95 1.63 1.94-.21 2.46-.46 4.94-.76 7.38-.11.91-.88 1.57-1.78 1.57Zm1.44-21.26h-.03c-.99-.01-1.78-.83-1.77-1.82a184.992 184.992 0 0 0-.01-7.29c-.02-.99.76-1.81 1.75-1.83h.04c.97 0 1.77.78 1.79 1.75.03 1.39.04 2.77.04 4.15 0 1.09 0 2.18-.03 3.26a1.79 1.79 0 0 1-1.79 1.77l.01.01Zm-.77-21.3c-.92 0-1.7-.7-1.78-1.63-.21-2.43-.48-4.87-.77-7.25a1.79 1.79 0 0 1 3.55-.45c.31 2.43.57 4.91.79 7.38.09.99-.64 1.86-1.62 1.94h-.16l-.01.01Zm-3.04-21.11c-.83 0-1.59-.59-1.75-1.44-.48-2.38-1.02-4.78-1.58-7.11-.24-.96.35-1.93 1.31-2.16.97-.23 1.93.35 2.17 1.32.58 2.38 1.129 4.82 1.62 7.25.189.97-.44 1.92-1.41 2.11-.12.02-.24.03-.35.03h-.01Zm-5.47-20.6c-.75 0-1.45-.47-1.7-1.22-.78-2.31-1.62-4.6-2.49-6.83a1.794 1.794 0 0 1 3.34-1.31c.89 2.28 1.75 4.63 2.54 6.99a1.79 1.79 0 0 1-1.7 2.36l.01.01Zm-8.27-19.63c-.65 0-1.27-.35-1.59-.97-.82-1.57-1.67-3.13-2.54-4.64-.33-.57-.66-1.13-.99-1.68a1.8 1.8 0 0 1 .61-2.46 1.79 1.79 0 0 1 2.46.61c.34.57.69 1.15 1.02 1.74.9 1.55 1.78 3.16 2.62 4.78.45.88.11 1.96-.77 2.42-.26.14-.55.2-.82.2Zm-11.58-17.87c-.52 0-1.03-.22-1.39-.66-1.55-1.9-3.16-3.7-4.79-5.35-.69-.7-.69-1.84.02-2.53.7-.69 1.84-.69 2.53.02a80.54 80.54 0 0 1 5.01 5.6c.63.77.51 1.9-.25 2.52-.33.27-.73.4-1.13.4Zm-15.67-14.32c-.33 0-.67-.09-.97-.29a48.544 48.544 0 0 0-6.21-3.4 1.79 1.79 0 1 1 1.48-3.26 51.9 51.9 0 0 1 6.67 3.65c.83.54 1.07 1.65.54 2.48-.34.53-.92.82-1.51.82Zm-19.889-7.23c-.06 0-.12 0-.18-.01-1.13-.11-2.28-.18-3.42-.19a1.79 1.79 0 0 1 .02-3.58h.02c1.24.01 2.5.08 3.74.21a1.788 1.788 0 0 1-.18 3.57Z"/><path fill="#1E1E1E" stroke="#000" stroke-miterlimit="10" stroke-width="3" d="M510.753 362.961h-.02c-18.82-.2-36.46-12.92-49.67-35.8-27-46.76-27.13-122.6-.3-169.07 13.14-22.77 30.73-35.28 49.55-35.28h.46a1.79 1.79 0 0 1-.02 3.58h-.02c-17.64-.18-34.29 11.7-46.87 33.48-26.26 45.48-26.12 119.71.3 165.48 12.55 21.74 29.1 33.82 46.6 34.01.99.01 1.78.82 1.77 1.81 0 .98-.81 1.77-1.79 1.77l.01.02Z"/><path fill="#1E1E1E" stroke="#000" stroke-miterlimit="10" stroke-width="3" d="M510.75 362.961c-66.21 0-120.07-53.87-120.07-120.08 0-66.21 53.87-120.07 120.07-120.07 66.2 0 120.07 53.87 120.07 120.07 0 66.2-53.87 120.08-120.07 120.08Zm0-236.56c-64.23 0-116.49 52.26-116.49 116.49 0 64.23 52.26 116.49 116.49 116.49 64.23 0 116.49-52.26 116.49-116.49 0-64.23-52.26-116.49-116.49-116.49Z"/><mask id="b" width="236" height="142" x="392" y="174" maskUnits="userSpaceOnUse" style="mask-type:luminance"><path fill="#fff" d="M509.89 315.11c64.706 0 117.16-31.515 117.16-70.39s-52.454-70.39-117.16-70.39c-64.705 0-117.16 31.515-117.16 70.39s52.455 70.39 117.16 70.39Z"/></mask><g fill="#1F375B" mask="url(#b)"><path d="M407.213 173.539h-1.49v1.58h1.49v-1.58Z" opacity=".54"/><path d="M419.354 174.059h-.51v.54h.51v-.54Z" opacity=".65"/><path d="M432.181 173.85h-.9v.95h.9v-.95Z" opacity=".71"/><path d="M459.42 171.76h-4.85v5.13h4.85v-5.13Z" opacity=".66"/><path d="M471.623 172.219h-3.99v4.22h3.99v-4.22Z" opacity=".62"/><path d="M483.223 173.309h-1.93v2.04h1.93v-2.04Z" opacity=".67"/><path d="M495.344 173.85h-.91v.97h.91v-.97Z" opacity=".51"/><path d="M509.89 171.83h-4.73v5h4.73v-5Z" opacity=".81"/><path d="M520.581 173.879h-.851v.9h.851v-.9Z" opacity=".82"/><path d="M534.933 172.049h-4.3v4.55h4.3v-4.55Z" opacity=".59"/><path d="M545.931 173.779h-1.04v1.1h1.04v-1.1Z" opacity=".68"/><path d="M559.254 173.049h-2.41v2.55h2.41v-2.55Z" opacity=".78"/><path d="M571.731 173.209h-2.11v2.23h2.11v-2.23Z" opacity=".65"/><path d="M584.491 173.068h-2.37v2.51h2.37v-2.51Z" opacity=".52"/><path d="M597.853 172.299h-3.83v4.05h3.83v-4.05Z" opacity=".53"/><path d="M608.843 174.039h-.55v.58h.55v-.58Zm12.629 0h-.55v.58h.55v-.58Z" opacity=".92"/><path d="M408.112 185.959h-3.28v3.47h3.28v-3.47Z" opacity=".93"/><path d="M420.534 186.189h-2.85v3.01h2.85v-3.01Z" opacity=".94"/><path d="M433.571 185.738h-3.68v3.9h3.68v-3.9Z" opacity=".8"/><path d="M446.173 185.779h-3.611v3.82h3.611v-3.82Z" opacity=".65"/><path d="M458.82 185.76h-3.66v3.87h3.66v-3.87Z" opacity=".72"/><path d="M483.19 186.699h-1.87v1.98h1.87v-1.98Z" opacity=".83"/><path d="M496.782 185.689h-3.79v4.01h3.79v-4.01Z" opacity=".59"/><path d="M508.173 187h-1.31v1.39h1.31V187Z" opacity=".75"/><path d="M520.581 187.238h-.851v.9h.851v-.9Z" opacity=".93"/><path d="M534.422 185.959h-3.27v3.46h3.27v-3.46Zm11.98.68h-1.98v2.1h1.98v-2.1Z" opacity=".85"/><path d="M571.231 187.1h-1.11v1.18h1.11v-1.18Z" opacity=".78"/><path d="M584.573 186.35h-2.53v2.68h2.53v-2.68Z" opacity=".86"/><path d="M598.444 185.039h-5.01v5.3h5.01v-5.3Z" opacity=".74"/><path d="M622.062 186.77h-1.73v1.83h1.73v-1.83Z" opacity=".84"/><path d="M395.891 198.889h-4.09v4.32h4.09v-4.32Z" opacity=".5"/><path d="M407.844 199.6h-2.75v2.91h2.75v-2.91Z" opacity=".9"/><path d="M420.261 199.83h-2.32v2.45h2.32v-2.45Zm24.962.328h-1.7v1.79h1.7v-1.79Z" opacity=".74"/><path d="M457.154 200.889h-.31v.33h.31v-.33Z" opacity=".69"/><path d="M470.041 200.619h-.83v.88h.83v-.88Z" opacity=".67"/><path d="M496.04 199.84h-2.31v2.44h2.31v-2.44Z" opacity=".76"/><path d="M508.964 199.539h-2.87v3.03h2.87v-3.03Z" opacity=".8"/><path d="M533.724 200.059h-1.88v1.99h1.88v-1.99Z" opacity=".86"/><path d="M545.994 200.449h-1.15v1.22h1.15v-1.22Z" opacity=".94"/><path d="M559.594 199.42h-3.09v3.27h3.09v-3.27Z" opacity=".74"/><path d="M585.991 198.219h-5.37v5.68h5.37v-5.68Z" opacity=".64"/><path d="M597.743 199.148h-3.61v3.82h3.61v-3.82Z" opacity=".67"/><path d="M608.742 200.869h-.34v.36h.34v-.36Z" opacity=".57"/><path d="M621.371 200.879h-.34v.36h.34v-.36Z" opacity=".87"/><path d="M394.233 214.01h-.78v.83h.78v-.83Z" opacity=".77"/><path d="M407.122 213.738h-1.29v1.36h1.29v-1.36Z" opacity=".61"/><path d="M420.374 213.08h-2.53v2.68h2.53v-2.68Z" opacity=".78"/><path d="M432.284 213.84h-1.1V215h1.1v-1.16Z" opacity=".51"/><path d="M446.722 211.93h-4.71v4.99h4.71v-4.99Z" opacity=".59"/><path d="M457.191 214.209h-.39v.41h.39v-.41Z" opacity=".58"/><path d="M483.674 212.92h-2.83v3h2.83v-3Z" opacity=".75"/><path d="M496.29 212.93h-2.81v2.97h2.81v-2.97Z" opacity=".82"/><path d="M508.542 213.33h-2.05v2.17h2.05v-2.17Z" opacity=".5"/><path d="M521.07 213.449h-1.84v1.94h1.84v-1.94Z" opacity=".67"/><path d="M533.771 213.379h-1.97v2.08h1.97v-2.08Z" opacity=".53"/><path d="M546.701 213.049h-2.58v2.73h2.58v-2.73Z" opacity=".63"/><path d="M558.432 214.01h-.78v.82h.78v-.82Z" opacity=".56"/><path d="M573.283 211.648h-5.221v5.53h5.221v-5.53Z" opacity=".88"/><path d="M584.352 213.309h-2.09v2.21h2.09v-2.21Z" opacity=".59"/><path d="M622.121 213.439h-1.84v1.95h1.84v-1.95Z" opacity=".8"/><path d="M394.143 227.459h-.6v.64h.6v-.64Z" opacity=".74"/><path d="M407.022 227.199h-1.1v1.17h1.1v-1.17Z" opacity=".6"/><path d="M419.79 227.049h-1.38v1.46h1.38v-1.46Z" opacity=".86"/><path d="M432.003 227.5h-.53v.56h.53v-.56Z" opacity=".93"/><path d="M445.732 226.33h-2.74v2.9h2.74v-2.9Z" opacity=".62"/><path d="M457.902 226.818h-1.82v1.93h1.82v-1.93Z" opacity=".55"/><path d="M470.143 227.238h-1.03v1.09h1.03v-1.09Z" opacity=".89"/><path d="M482.962 227.039h-1.4v1.48h1.4v-1.48Zm12.838-.221h-1.82v1.93h1.82v-1.93Z" opacity=".66"/><path d="M507.683 227.609h-.32v.34h.32v-.34Z" opacity=".9"/><path d="M521.601 226.25h-2.89v3.06h2.89v-3.06Z" opacity=".79"/><path d="M533.853 226.658h-2.13v2.25h2.13v-2.25Z" opacity=".69"/><path d="M545.861 227.309h-.9v.95h.9v-.95Z" opacity=".79"/><path d="M558.453 227.35h-.82v.87h.82v-.87Z" opacity=".59"/><path d="M584.614 226.398h-2.61v2.76h2.61v-2.76Z" opacity=".74"/><path d="M597.103 226.549h-2.33v2.47h2.33v-2.47Z" opacity=".85"/><path d="M621.933 227.01h-1.46v1.54h1.46v-1.54Z" opacity=".71"/><path d="M394.332 240.619h-.98v1.04h.98v-1.04Z" opacity=".7"/><path d="M407.344 240.219h-1.75v1.85h1.75v-1.85Z" opacity=".58"/><path d="M419.583 240.639h-.95v1h.95v-1Z" opacity=".5"/><path d="M432.222 240.619h-.98v1.04h.98v-1.04Z" opacity=".75"/><path d="M444.99 240.479h-1.26v1.33h1.26v-1.33Z" opacity=".54"/><path d="M458.091 239.979h-2.2v2.33h2.2v-2.33Z" opacity=".72"/><path d="M470.381 240.34h-1.51v1.6h1.51v-1.6Z" opacity=".69"/><path d="M483.19 240.158h-1.87v1.97h1.87v-1.97Z" opacity=".51"/><path d="M497.741 238.119h-5.71v6.04h5.71v-6.04Z" opacity=".5"/><path d="M508.194 240.43h-1.35v1.43h1.35v-1.43Z" opacity=".63"/><path d="M521.642 239.568h-2.97v3.14h2.97v-3.14Z" opacity=".59"/><path d="M533.681 240.18h-1.81v1.92h1.81v-1.92Z" opacity=".61"/><path d="M545.693 240.85h-.56v.59h.56v-.59Z" opacity=".52"/><path d="M559.262 239.859h-2.43v2.57h2.43v-2.57Z" opacity=".86"/><path d="M572.932 238.76h-4.51v4.77h4.51v-4.77Z" opacity=".94"/><path d="M584.302 240.09h-1.99v2.11h1.99v-2.11Z" opacity=".51"/><path d="M597.013 240.01h-2.15v2.28h2.15v-2.28Z" opacity=".55"/><path d="M609.761 239.879h-2.39v2.53h2.39v-2.53Z" opacity=".74"/><path d="M395.213 253.059h-2.74v2.9h2.74v-2.9Z" opacity=".9"/><path d="M406.944 254.01h-.94v1h.94v-1Z" opacity=".72"/><path d="M420.683 252.84h-3.16v3.34h3.16v-3.34Z" opacity=".87"/><path d="M432.013 254.209h-.56v.6h.56v-.6Z" opacity=".56"/><path d="M446.291 252.469h-3.85v4.07h3.85v-4.07Z" opacity=".75"/><path d="M459.043 252.34h-4.09v4.33h4.09v-4.33Z" opacity=".7"/><path d="M471.272 252.77h-3.28v3.47h3.28v-3.47Z" opacity=".79"/><path d="M483.45 253.25h-2.38v2.52h2.38v-2.52Z" opacity=".78"/><path d="M495.221 254.148h-.67v.71h.67v-.71Z" opacity=".82"/><path d="M508.513 253.449h-1.99v2.11h1.99v-2.11Z" opacity=".93"/><path d="M520.491 254.139h-.69v.73h.69v-.73Z" opacity=".73"/><path d="M546.621 253.229h-2.41v2.54h2.41v-2.54Z" opacity=".91"/><path d="M560.192 252.238h-4.29v4.53h4.29v-4.53Z" opacity=".65"/><path d="M571.254 253.889h-1.16v1.23h1.16v-1.23Z" opacity=".8"/><path d="M583.622 254.17h-.63v.67h.63v-.67Z" opacity=".57"/><path d="M608.941 254.109h-.75v.8h.75v-.8Z" opacity=".62"/><path d="M623.343 252.238h-4.281v4.53h4.281v-4.53Z" opacity=".5"/><path d="M395.432 266.189h-3.17v3.35h3.17v-3.35Z" opacity=".93"/><path d="M420.403 266.488h-2.61v2.77h2.61v-2.77Z" opacity=".89"/><path d="M434.23 265.219h-5v5.29h5v-5.29Z" opacity=".78"/><path d="M444.783 267.43h-.83v.88h.83v-.88Z" opacity=".92"/><path d="M457.263 267.58h-.54v.58h.54v-.58Z" opacity=".79"/><path d="M470.721 266.709h-2.19v2.32h2.19v-2.32Z" opacity=".77"/><path d="M495.79 266.908h-1.81v1.92h1.81v-1.92Z" opacity=".54"/><path d="M508.663 266.658h-2.28v2.42h2.28v-2.42Z" opacity=".77"/><path d="M521.872 266.039h-3.45v3.65h3.45v-3.65Z" opacity=".92"/><path d="M533.382 267.229h-1.21v1.28h1.21v-1.28Z" opacity=".76"/><path d="M547.572 265.59h-4.31v4.56h4.31v-4.56Z" opacity=".92"/><path d="M559.553 266.279h-3.01v3.18h3.01v-3.18Z" opacity=".78"/><path d="M571.87 266.609h-2.39v2.53h2.39v-2.53Z" opacity=".55"/><path d="M583.573 267.59h-.53v.56h.53v-.56Z" opacity=".7"/><path d="M597.034 266.709h-2.19v2.31h2.19v-2.31Z" opacity=".91"/><path d="M609.451 266.939h-1.76v1.86h1.76v-1.86Z" opacity=".73"/><path d="M622.533 266.459h-2.67v2.82h2.67v-2.82Z" opacity=".86"/><path d="M394.942 280.068h-2.2v2.33h2.2v-2.33Z" opacity=".62"/><path d="M407.194 280.469h-1.44v1.53h1.44v-1.53Z" opacity=".73"/><path d="M420.483 279.77h-2.76v2.93h2.76v-2.93Z" opacity=".69"/><path d="M433.724 279.129h-3.97v4.2h3.97v-4.2Z" opacity=".83"/><path d="M444.82 280.75h-.91v.97h.91v-.97Z" opacity=".72"/><path d="M459.201 278.889h-4.42v4.68h4.42v-4.68Z" opacity=".94"/><path d="M471.362 279.398h-3.46v3.66h3.46v-3.66Z" opacity=".93"/><path d="M483.272 280.158h-2.03v2.15h2.03v-2.15Z" opacity=".55"/><path d="M508.294 280.42h-1.54v1.63h1.54v-1.63Z" opacity=".9"/><path d="M520.82 280.529h-1.34v1.41h1.34v-1.41Z" opacity=".78"/><path d="M546.894 279.67h-2.96v3.13h2.96v-3.13Z" opacity=".62"/><path d="M559.041 280.18h-1.99v2.1h1.99v-2.1Z" opacity=".67"/><path d="M571.883 279.959h-2.41v2.55h2.41v-2.55Z" opacity=".62"/><path d="M584.653 279.818h-2.68v2.83h2.68v-2.83Z" opacity=".72"/><path d="M597.452 279.629h-3.03v3.2h3.03v-3.2Z" opacity=".64"/><path d="M609.601 280.139h-2.07v2.19h2.07v-2.19Z" opacity=".78"/><path d="M622.111 280.26h-1.83v1.94h1.83v-1.94Z" opacity=".74"/><path d="M395.77 292.559h-3.86v4.08h3.86v-4.08Z" opacity=".71"/><path d="M406.813 294.229h-.68v.72h.68v-.72Z" opacity=".7"/><path d="M419.991 293.648h-1.78v1.89h1.78v-1.89Z" opacity=".73"/><path d="M432.831 293.439h-2.19v2.32h2.19v-2.32Z" opacity=".88"/><path d="M447.441 291.35h-6.14v6.49h6.14v-6.49Z" opacity=".59"/><path d="M457.393 294.18h-.78v.82h.78v-.82Z" opacity=".73"/><path d="M469.793 294.408h-.34v.36h.34v-.36Z" opacity=".59"/><path d="M484.371 292.359h-4.23v4.48h4.23v-4.48Z" opacity=".51"/><path d="M508.391 293.67h-1.75v1.85h1.75v-1.85Z" opacity=".64"/><path d="M546.832 293.09h-2.84v3.01h2.84v-3.01Z" opacity=".61"/><path d="M558.672 293.93h-1.25v1.32h1.25v-1.32Z" opacity=".71"/><path d="M572.393 292.77h-3.44v3.64h3.44v-3.64Z" opacity=".86"/><path d="M583.882 294h-1.14v1.2h1.14V294Z" opacity=".69"/><path d="M597.462 292.979h-3.06v3.24h3.06v-3.24Z" opacity=".53"/><path d="M609.623 293.479h-2.1v2.229h2.1v-2.229Z" opacity=".55"/><path d="M623.513 292.148h-4.63v4.9h4.63v-4.9Z" opacity=".8"/><path d="M394.45 307.309h-1.22v1.29h1.22v-1.29Z" opacity=".52"/><path d="M407.811 306.549h-2.67v2.82h2.67v-2.82Z" opacity=".55"/><path d="M432.771 306.859h-2.08v2.2h2.08v-2.2Z" opacity=".66"/><path d="M444.943 307.35h-1.15v1.21h1.15v-1.21Z" opacity=".91"/><path d="M457.472 307.449h-.96v1.01h.96v-1.01Z" opacity=".56"/><path d="M470.203 307.34h-1.16v1.23h1.16v-1.23Z" opacity=".88"/><path d="M496.55 306.199h-3.32v3.51h3.32v-3.51Z" opacity=".8"/><path d="M508.341 307.1h-1.63v1.72h1.63v-1.72Z" opacity=".88"/><path d="M521.292 306.75h-2.28v2.41h2.28v-2.41Z" opacity=".77"/><path d="M533.634 307.059h-1.7v1.8h1.7v-1.8Z" opacity=".65"/><path d="M548.113 305.109h-5.39v5.7h5.39v-5.7Z" opacity=".66"/><path d="M558.813 307.139h-1.54v1.63h1.54v-1.63Z" opacity=".57"/><path d="M583.661 307.58h-.72v.76h.72v-.76Z" opacity=".91"/><path d="M596.911 306.93h-1.95V309h1.95v-2.07Z" opacity=".66"/><path d="M609.113 307.379h-1.09v1.16h1.09v-1.16Z" opacity=".62"/><path d="M621.833 307.289h-1.271v1.34h1.271v-1.34Z" opacity=".92"/></g><path fill="#1E1E1E" stroke="#000" stroke-miterlimit="10" stroke-width="3" d="M392.471 858.84c-.98 0-1.78-.79-1.79-1.77-.01-1.24.03-2.5.13-3.74.08-.99.95-1.72 1.93-1.65a1.8 1.8 0 0 1 1.65 1.93c-.09 1.13-.13 2.28-.12 3.42.01.99-.78 1.8-1.77 1.81h-.03Zm232.659-17.019c-.68 0-1.33-.39-1.63-1.05a47.88 47.88 0 0 0-3.4-6.21c-.53-.83-.29-1.94.54-2.48.83-.54 1.94-.3 2.47.54 1.4 2.18 2.63 4.42 3.66 6.67.41.9 0 1.96-.89 2.37-.24.11-.49.16-.74.16h-.01Zm-229.12-.04c-.24 0-.48-.05-.71-.15a1.786 1.786 0 0 1-.93-2.36c.99-2.27 2.18-4.53 3.55-6.73.52-.84 1.63-1.1 2.47-.57.84.52 1.1 1.63.57 2.47a47.042 47.042 0 0 0-3.3 6.26c-.29.68-.95 1.08-1.65 1.08Zm216.74-17.17c-.45 0-.91-.17-1.26-.51a75.706 75.706 0 0 0-5.35-4.79c-.77-.63-.88-1.75-.26-2.52.63-.77 1.75-.88 2.52-.26a80.54 80.54 0 0 1 5.6 5.01c.71.69.71 1.83.02 2.54-.35.35-.81.53-1.28.53h.01Zm-204.57-.19c-.46 0-.92-.18-1.27-.52-.7-.7-.7-1.84 0-2.53 1.72-1.73 3.6-3.42 5.58-5.05.76-.63 1.89-.52 2.52.25.63.77.52 1.89-.24 2.52a73.27 73.27 0 0 0-5.32 4.82c-.35.35-.81.52-1.26.52l-.01-.01Zm187.65-12.71c-.31 0-.63-.08-.92-.26a114.54 114.54 0 0 0-6.32-3.53 1.79 1.79 0 0 1-.76-2.42c.46-.88 1.54-1.22 2.42-.77 1.62.84 3.22 1.72 4.78 2.62.58.34 1.16.68 1.73 1.02a1.792 1.792 0 0 1-.93 3.33v.01Zm-170.78-.24a1.795 1.795 0 0 1-.93-3.33c.6-.37 1.21-.72 1.83-1.08 1.51-.87 3.09-1.73 4.69-2.56a1.8 1.8 0 0 1 1.66 3.19c-1.55.8-3.08 1.64-4.55 2.49-.6.34-1.19.69-1.77 1.04-.29.18-.61.26-.92.26l-.01-.01Zm151.63-9.1c-.22 0-.44-.04-.65-.12-2.22-.87-4.52-1.71-6.83-2.48a1.798 1.798 0 0 1-1.13-2.27c.31-.94 1.33-1.44 2.27-1.13 2.36.8 4.72 1.65 6.99 2.54.92.36 1.37 1.4 1.02 2.32a1.79 1.79 0 0 1-1.67 1.14Zm-132.49-.24c-.72 0-1.39-.44-1.67-1.14-.36-.92.1-1.96 1.02-2.32 2.27-.89 4.63-1.74 7-2.53.94-.31 1.95.19 2.27 1.13.31.94-.19 1.95-1.13 2.27-2.32.77-4.62 1.6-6.83 2.47-.21.08-.44.12-.65.12h-.01Zm112.17-6.15c-.15 0-.29-.02-.43-.05-2.33-.57-4.72-1.1-7.11-1.58-.97-.2-1.6-1.14-1.41-2.11.2-.97 1.15-1.6 2.11-1.41 2.43.49 4.87 1.03 7.26 1.62.96.24 1.55 1.21 1.31 2.17-.2.82-.93 1.37-1.74 1.37l.01-.01Zm-91.83-.18c-.81 0-1.54-.55-1.74-1.37-.23-.96.36-1.93 1.32-2.16 2.37-.57 4.81-1.11 7.25-1.59.97-.2 1.91.44 2.11 1.41.19.97-.44 1.91-1.41 2.1-2.39.47-4.78 1-7.1 1.56-.14.03-.28.05-.42.05h-.01Zm70.86-3.67c-.07 0-.15 0-.23-.01-2.38-.3-4.82-.56-7.25-.78-.99-.09-1.71-.96-1.63-1.94.09-.99.96-1.71 1.94-1.63 2.47.22 4.95.49 7.38.79.98.12 1.68 1.02 1.55 2-.12.9-.89 1.57-1.78 1.57h.02Zm-49.89-.1a1.8 1.8 0 0 1-1.78-1.57c-.12-.98.58-1.88 1.56-2 2.44-.3 4.92-.55 7.38-.76.99-.08 1.86.65 1.94 1.64a1.8 1.8 0 0 1-1.64 1.94c-2.41.2-4.85.45-7.25.75-.07 0-.15.01-.22.01l.01-.01Zm28.62-1.44h-.04c-2.43-.05-4.86-.05-7.29-.01-.99-.02-1.8-.77-1.82-1.76-.02-.99.77-1.81 1.76-1.82 2.47-.04 4.94-.03 7.42.02.99.02 1.77.84 1.75 1.83-.02.98-.82 1.76-1.79 1.76l.01-.02Zm114.912 68.25c-.98 0-1.78-.79-1.79-1.77-.01-1.13-.08-2.29-.19-3.41-.1-.99.61-1.86 1.6-1.96.98-.1 1.86.62 1.96 1.61.13 1.24.2 2.49.21 3.73.01.99-.78 1.8-1.77 1.81h-.02v-.01Z"/><path fill="#1E1E1E" stroke="#000" stroke-miterlimit="10" stroke-width="3" d="M511.49 927.072c-30.74 0-61.54-6.78-85.01-20.33-22.88-13.21-35.6-30.85-35.8-49.67 0-.99.78-1.8 1.77-1.81h.02c.98 0 1.78.79 1.79 1.77.19 17.5 12.27 34.05 34.01 46.61 22.98 13.26 53.14 19.9 83.22 19.9 29.84 0 59.61-6.53 82.26-19.6 21.79-12.58 33.68-29.22 33.49-46.87-.01-.99.78-1.8 1.77-1.81h.02c.98 0 1.78.79 1.79 1.77.2 19-12.32 36.76-35.28 50.01-23.13 13.36-53.56 20.03-84.05 20.03Zm-.325 50.048h-.43c-.99 0-1.78-.82-1.77-1.81.01-.99.82-1.81 1.81-1.77 1.14.01 2.28-.03 3.42-.12.99-.08 1.85.66 1.93 1.65.08.99-.66 1.85-1.65 1.93-1.1.09-2.21.13-3.31.13v-.01Z"/><path fill="#1E1E1E" stroke="#000" stroke-miterlimit="10" stroke-width="3" d="M527.812 973.57c-.69 0-1.35-.4-1.65-1.08-.39-.91.02-1.96.93-2.36 2.11-.91 4.22-2.03 6.26-3.3.84-.52 1.95-.27 2.47.57.52.84.27 1.95-.57 2.47a50.549 50.549 0 0 1-6.73 3.55c-.23.1-.47.15-.71.15Zm17.35-12.16c-.46 0-.92-.18-1.26-.53-.7-.7-.7-1.83 0-2.53 1.64-1.65 3.26-3.44 4.82-5.32a1.79 1.79 0 0 1 2.76 2.28 80.35 80.35 0 0 1-5.05 5.57c-.35.35-.81.53-1.27.53Zm12.96-16.87c-.32 0-.64-.08-.93-.26a1.792 1.792 0 0 1-.61-2.46c.35-.58.7-1.17 1.05-1.77.85-1.47 1.68-3 2.49-4.55a1.79 1.79 0 0 1 2.42-.76c.88.45 1.22 1.54.76 2.42-.83 1.59-1.69 3.17-2.57 4.69-.35.62-.71 1.23-1.07 1.83-.34.56-.93.86-1.54.86Zm9.33-19.14c-.22 0-.44-.04-.65-.12-.92-.36-1.38-1.4-1.02-2.32.86-2.22 1.69-4.52 2.47-6.83a1.794 1.794 0 0 1 3.4 1.14c-.79 2.37-1.64 4.73-2.53 7a1.79 1.79 0 0 1-1.67 1.14v-.01Zm6.34-20.34a1.792 1.792 0 0 1-1.74-2.21c.56-2.33 1.08-4.72 1.56-7.1a1.79 1.79 0 0 1 2.11-1.41c.97.19 1.6 1.13 1.41 2.11-.48 2.43-1.01 4.88-1.59 7.25-.2.82-.93 1.37-1.74 1.37l-.01-.01Zm3.78-20.97c-.07 0-.15 0-.22-.01a1.792 1.792 0 0 1-1.56-2c.29-2.39.54-4.83.75-7.25.08-.98.95-1.71 1.94-1.63.99.08 1.72.95 1.63 1.94-.21 2.46-.46 4.94-.76 7.38-.11.91-.88 1.57-1.78 1.57Zm1.44-21.27h-.03c-.99-.01-1.78-.83-1.77-1.82a184.992 184.992 0 0 0-.01-7.29c-.02-.99.76-1.81 1.75-1.83h.04c.97 0 1.77.78 1.79 1.75.03 1.39.04 2.77.04 4.15 0 1.09 0 2.18-.03 3.26a1.79 1.79 0 0 1-1.79 1.77l.01.01Zm-.77-21.3c-.92 0-1.7-.7-1.78-1.63-.21-2.43-.48-4.87-.77-7.25a1.79 1.79 0 0 1 3.55-.45c.31 2.43.57 4.91.79 7.38.09.99-.64 1.86-1.62 1.94h-.16l-.01.01Zm-3.04-21.11c-.83 0-1.59-.59-1.75-1.44-.48-2.38-1.02-4.78-1.58-7.11-.24-.96.35-1.93 1.31-2.16.97-.23 1.93.35 2.17 1.32.58 2.38 1.129 4.82 1.62 7.25.189.97-.44 1.92-1.41 2.11-.12.02-.24.03-.35.03h-.01Zm-5.47-20.6c-.75 0-1.45-.47-1.7-1.22-.78-2.31-1.62-4.6-2.49-6.83a1.794 1.794 0 0 1 3.34-1.31c.89 2.28 1.75 4.63 2.54 6.99a1.79 1.79 0 0 1-1.7 2.36l.01.01Zm-8.27-19.63c-.65 0-1.27-.35-1.59-.97-.82-1.57-1.67-3.13-2.54-4.64-.33-.57-.66-1.13-.99-1.68a1.8 1.8 0 0 1 .61-2.46 1.79 1.79 0 0 1 2.46.61c.34.57.69 1.15 1.02 1.74.9 1.55 1.78 3.16 2.62 4.78.45.88.11 1.96-.77 2.42-.26.14-.55.2-.82.2Zm-11.58-17.87c-.52 0-1.03-.22-1.39-.66-1.55-1.9-3.16-3.7-4.79-5.35-.69-.7-.69-1.84.02-2.53.7-.69 1.84-.69 2.53.02a80.54 80.54 0 0 1 5.01 5.6c.63.77.51 1.9-.25 2.52-.33.27-.73.4-1.13.4Zm-15.67-14.32c-.33 0-.67-.09-.97-.29a48.544 48.544 0 0 0-6.21-3.4 1.79 1.79 0 1 1 1.48-3.26 51.9 51.9 0 0 1 6.67 3.65c.83.54 1.07 1.65.54 2.48-.34.53-.92.82-1.51.82Zm-19.889-7.23c-.06 0-.12 0-.18-.01-1.13-.11-2.28-.18-3.42-.19a1.79 1.79 0 0 1 .02-3.58h.02c1.24.01 2.5.08 3.74.21.98.1 1.7.981 1.6 1.961-.1.93-.87 1.609-1.78 1.609Z"/><path fill="#1E1E1E" stroke="#000" stroke-miterlimit="10" stroke-width="3" d="M510.753 977.121h-.02c-18.82-.2-36.46-12.92-49.67-35.8-27-46.76-27.13-122.6-.3-169.07 13.14-22.77 30.73-35.28 49.55-35.28h.46a1.79 1.79 0 0 1-.02 3.58h-.02c-17.64-.18-34.29 11.7-46.87 33.48-26.26 45.48-26.12 119.71.3 165.48 12.55 21.74 29.1 33.82 46.6 34.01.99.01 1.78.82 1.77 1.81 0 .98-.81 1.77-1.79 1.77l.01.02Z"/><path fill="#1E1E1E" stroke="#000" stroke-miterlimit="10" stroke-width="3" d="M510.75 977.121c-66.21 0-120.07-53.87-120.07-120.08 0-66.21 53.87-120.07 120.07-120.07 66.2 0 120.07 53.87 120.07 120.07 0 66.2-53.87 120.08-120.07 120.08Zm0-236.56c-64.23 0-116.49 52.26-116.49 116.49 0 64.23 52.26 116.49 116.49 116.49 64.23 0 116.49-52.26 116.49-116.49 0-64.23-52.26-116.49-116.49-116.49Z"/><mask id="c" width="236" height="142" x="392" y="788" maskUnits="userSpaceOnUse" style="mask-type:luminance"><path fill="#fff" d="M509.89 929.27c64.706 0 117.16-31.514 117.16-70.39 0-38.875-52.454-70.39-117.16-70.39-64.705 0-117.16 31.515-117.16 70.39 0 38.876 52.455 70.39 117.16 70.39Z"/></mask><g fill="#1F375B" mask="url(#c)"><path d="M407.213 787.701h-1.49v1.58h1.49v-1.58Z" opacity=".54"/><path d="M419.354 788.221h-.51v.54h.51v-.54Z" opacity=".65"/><path d="M432.181 788.021h-.9v.95h.9v-.95Z" opacity=".71"/><path d="M459.42 785.932h-4.85v5.13h4.85v-5.13Z" opacity=".66"/><path d="M471.623 786.381h-3.99v4.22h3.99v-4.22Z" opacity=".62"/><path d="M483.223 787.471h-1.93v2.04h1.93v-2.04Z" opacity=".67"/><path d="M495.344 788.01h-.91v.97h.91v-.97Z" opacity=".51"/><path d="M509.89 785.99h-4.73v5h4.73v-5Z" opacity=".81"/><path d="M520.581 788.041h-.851v.9h.851v-.9Z" opacity=".82"/><path d="M534.933 786.221h-4.3v4.55h4.3v-4.55Z" opacity=".59"/><path d="M545.931 787.941h-1.04v1.1h1.04v-1.1Z" opacity=".68"/><path d="M559.254 787.221h-2.41v2.55h2.41v-2.55Z" opacity=".78"/><path d="M571.731 787.381h-2.11v2.23h2.11v-2.23Z" opacity=".65"/><path d="M584.491 787.24h-2.37v2.51h2.37v-2.51Z" opacity=".52"/><path d="M597.853 786.471h-3.83v4.05h3.83v-4.05Z" opacity=".53"/><path d="M608.843 788.201h-.55v.58h.55v-.58Zm12.629 0h-.55v.58h.55v-.58Z" opacity=".92"/><path d="M408.112 800.121h-3.28v3.47h3.28v-3.47Z" opacity=".93"/><path d="M420.534 800.352h-2.85v3.01h2.85v-3.01Z" opacity=".94"/><path d="M433.571 799.91h-3.68v3.9h3.68v-3.9Z" opacity=".8"/><path d="M446.173 799.951h-3.611v3.82h3.611v-3.82Z" opacity=".65"/><path d="M458.82 799.92h-3.66v3.87h3.66v-3.87Z" opacity=".72"/><path d="M483.19 800.861h-1.87v1.98h1.87v-1.98Z" opacity=".83"/><path d="M496.782 799.852h-3.79v4.01h3.79v-4.01Z" opacity=".59"/><path d="M508.173 801.16h-1.31v1.39h1.31v-1.39Z" opacity=".75"/><path d="M520.581 801.41h-.851v.9h.851v-.9Z" opacity=".93"/><path d="M534.422 800.121h-3.27v3.46h3.27v-3.46Zm11.98.69h-1.98v2.1h1.98v-2.1Z" opacity=".85"/><path d="M571.231 801.271h-1.11v1.18h1.11v-1.18Z" opacity=".78"/><path d="M584.573 800.521h-2.53v2.68h2.53v-2.68Z" opacity=".86"/><path d="M598.444 799.201h-5.01v5.3h5.01v-5.3Z" opacity=".74"/><path d="M622.062 800.941h-1.73v1.83h1.73v-1.83Z" opacity=".84"/><path d="M395.891 813.061h-4.09v4.32h4.09v-4.32Z" opacity=".5"/><path d="M407.844 813.76h-2.75v2.91h2.75v-2.91Z" opacity=".9"/><path d="M420.261 813.99h-2.32v2.45h2.32v-2.45Zm24.962.33h-1.7v1.79h1.7v-1.79Z" opacity=".74"/><path d="M457.154 815.051h-.31v.33h.31v-.33Z" opacity=".69"/><path d="M470.041 814.781h-.83v.88h.83v-.88Z" opacity=".67"/><path d="M496.04 814h-2.31v2.44h2.31V814Z" opacity=".76"/><path d="M508.964 813.701h-2.87v3.03h2.87v-3.03Z" opacity=".8"/><path d="M533.724 814.221h-1.88v1.99h1.88v-1.99Z" opacity=".86"/><path d="M545.994 814.611h-1.15v1.22h1.15v-1.22Z" opacity=".94"/><path d="M559.594 813.58h-3.09v3.27h3.09v-3.27Z" opacity=".74"/><path d="M585.991 812.381h-5.37v5.68h5.37v-5.68Z" opacity=".64"/><path d="M597.743 813.311h-3.61v3.82h3.61v-3.82Z" opacity=".67"/><path d="M608.742 815.041h-.34v.36h.34v-.36Z" opacity=".57"/><path d="M621.371 815.041h-.34v.36h.34v-.36Z" opacity=".87"/><path d="M394.233 828.17h-.78v.83h.78v-.83Z" opacity=".77"/><path d="M407.122 827.9h-1.29v1.36h1.29v-1.36Z" opacity=".61"/><path d="M420.374 827.24h-2.53v2.68h2.53v-2.68Z" opacity=".78"/><path d="M432.284 828h-1.1v1.16h1.1V828Z" opacity=".51"/><path d="M446.722 826.09h-4.71v4.99h4.71v-4.99Z" opacity=".59"/><path d="M457.191 828.371h-.39v.41h.39v-.41Z" opacity=".58"/><path d="M483.674 827.08h-2.83v3h2.83v-3Z" opacity=".75"/><path d="M496.29 827.09h-2.81v2.97h2.81v-2.97Z" opacity=".82"/><path d="M508.542 827.49h-2.05v2.17h2.05v-2.17Z" opacity=".5"/><path d="M521.07 827.611h-1.84v1.94h1.84v-1.94Z" opacity=".67"/><path d="M533.771 827.541h-1.97v2.08h1.97v-2.08Z" opacity=".53"/><path d="M546.701 827.221h-2.58v2.73h2.58v-2.73Z" opacity=".63"/><path d="M558.432 828.17h-.78v.82h.78v-.82Z" opacity=".56"/><path d="M573.283 825.82h-5.221v5.53h5.221v-5.53Z" opacity=".88"/><path d="M584.352 827.48h-2.09v2.21h2.09v-2.21Z" opacity=".59"/><path d="M622.121 827.611h-1.84v1.95h1.84v-1.95Z" opacity=".8"/><path d="M394.143 841.621h-.6v.64h.6v-.64Z" opacity=".74"/><path d="M407.022 841.361h-1.1v1.17h1.1v-1.17Z" opacity=".6"/><path d="M419.79 841.211h-1.38v1.46h1.38v-1.46Z" opacity=".86"/><path d="M432.003 841.66h-.53v.56h.53v-.56Z" opacity=".93"/><path d="M445.732 840.49h-2.74v2.9h2.74v-2.9Z" opacity=".62"/><path d="M457.902 840.98h-1.82v1.93h1.82v-1.93Z" opacity=".55"/><path d="M470.143 841.4h-1.03v1.09h1.03v-1.09Z" opacity=".89"/><path d="M482.962 841.201h-1.4v1.48h1.4v-1.48Zm12.838-.221h-1.82v1.93h1.82v-1.93Z" opacity=".66"/><path d="M507.683 841.771h-.32v.34h.32v-.34Z" opacity=".9"/><path d="M521.601 840.42h-2.89v3.06h2.89v-3.06Z" opacity=".79"/><path d="M533.853 840.82h-2.13v2.25h2.13v-2.25Z" opacity=".69"/><path d="M545.861 841.471h-.9v.95h.9v-.95Z" opacity=".79"/><path d="M558.453 841.51h-.82v.87h.82v-.87Z" opacity=".59"/><path d="M584.614 840.561h-2.61v2.76h2.61v-2.76Z" opacity=".74"/><path d="M597.103 840.711h-2.33v2.47h2.33v-2.47Z" opacity=".85"/><path d="M621.933 841.17h-1.46v1.54h1.46v-1.54Z" opacity=".71"/><path d="M394.332 854.791h-.98v1.04h.98v-1.04Z" opacity=".7"/><path d="M407.344 854.381h-1.75v1.85h1.75v-1.85Z" opacity=".58"/><path d="M419.583 854.801h-.95v1h.95v-1Z" opacity=".5"/><path d="M432.222 854.791h-.98v1.04h.98v-1.04Z" opacity=".75"/><path d="M444.99 854.641h-1.26v1.33h1.26v-1.33Z" opacity=".54"/><path d="M458.091 854.141h-2.2v2.33h2.2v-2.33Z" opacity=".72"/><path d="M470.381 854.5h-1.51v1.6h1.51v-1.6Z" opacity=".69"/><path d="M483.19 854.32h-1.87v1.97h1.87v-1.97Z" opacity=".51"/><path d="M497.741 852.281h-5.71v6.04h5.71v-6.04Z" opacity=".5"/><path d="M508.194 854.59h-1.35v1.43h1.35v-1.43Z" opacity=".63"/><path d="M521.642 853.74h-2.97v3.14h2.97v-3.14Z" opacity=".59"/><path d="M533.681 854.352h-1.81v1.92h1.81v-1.92Z" opacity=".61"/><path d="M545.693 855.01h-.56v.59h.56v-.59Z" opacity=".52"/><path d="M559.262 854.021h-2.43v2.57h2.43v-2.57Z" opacity=".86"/><path d="M572.932 852.92h-4.51v4.77h4.51v-4.77Z" opacity=".94"/><path d="M584.302 854.25h-1.99v2.11h1.99v-2.11Z" opacity=".51"/><path d="M597.013 854.17h-2.15v2.28h2.15v-2.28Z" opacity=".55"/><path d="M609.761 854.041h-2.39v2.53h2.39v-2.53Z" opacity=".74"/><path d="M395.213 867.221h-2.74v2.9h2.74v-2.9Z" opacity=".9"/><path d="M406.944 868.17h-.94v1h.94v-1Z" opacity=".72"/><path d="M420.683 867h-3.16v3.34h3.16V867Z" opacity=".87"/><path d="M432.013 868.371h-.56v.6h.56v-.6Z" opacity=".56"/><path d="M446.291 866.631h-3.85v4.07h3.85v-4.07Z" opacity=".75"/><path d="M459.043 866.51h-4.09v4.33h4.09v-4.33Z" opacity=".7"/><path d="M471.272 866.932h-3.28v3.47h3.28v-3.47Z" opacity=".79"/><path d="M483.45 867.41h-2.38v2.52h2.38v-2.52Z" opacity=".78"/><path d="M495.221 868.32h-.67v.71h.67v-.71Z" opacity=".82"/><path d="M508.513 867.611h-1.99v2.11h1.99v-2.11Z" opacity=".93"/><path d="M520.491 868.301h-.69v.73h.69v-.73Z" opacity=".73"/><path d="M546.621 867.4h-2.41v2.54h2.41v-2.54Z" opacity=".91"/><path d="M560.192 866.4h-4.29v4.53h4.29v-4.53Z" opacity=".65"/><path d="M571.254 868.051h-1.16v1.23h1.16v-1.23Z" opacity=".8"/><path d="M583.622 868.34h-.63v.67h.63v-.67Z" opacity=".57"/><path d="M608.941 868.271h-.75v.8h.75v-.8Z" opacity=".62"/><path d="M623.343 866.4h-4.281v4.53h4.281v-4.53Z" opacity=".5"/><path d="M395.432 880.361h-3.17v3.35h3.17v-3.35Z" opacity=".93"/><path d="M420.403 880.65h-2.61v2.77h2.61v-2.77Z" opacity=".89"/><path d="M434.23 879.391h-5v5.29h5v-5.29Z" opacity=".78"/><path d="M444.783 881.59h-.83v.88h.83v-.88Z" opacity=".92"/><path d="M457.263 881.74h-.54v.58h.54v-.58Z" opacity=".79"/><path d="M470.721 880.871h-2.19v2.32h2.19v-2.32Z" opacity=".77"/><path d="M495.79 881.07h-1.81v1.92h1.81v-1.92Z" opacity=".54"/><path d="M508.663 880.82h-2.28v2.42h2.28v-2.42Z" opacity=".77"/><path d="M521.872 880.211h-3.45v3.65h3.45v-3.65Z" opacity=".92"/><path d="M533.382 881.391h-1.21v1.28h1.21v-1.28Z" opacity=".76"/><path d="M547.572 879.75h-4.31v4.56h4.31v-4.56Z" opacity=".92"/><path d="M559.553 880.441h-3.01v3.18h3.01v-3.18Z" opacity=".78"/><path d="M571.87 880.771h-2.39v2.53h2.39v-2.53Z" opacity=".55"/><path d="M583.573 881.75h-.53v.56h.53v-.56Z" opacity=".7"/><path d="M597.034 880.871h-2.19v2.31h2.19v-2.31Z" opacity=".91"/><path d="M609.451 881.102h-1.76v1.86h1.76v-1.86Z" opacity=".73"/><path d="M622.533 880.621h-2.67v2.82h2.67v-2.82Z" opacity=".86"/><path d="M394.942 894.23h-2.2v2.33h2.2v-2.33Z" opacity=".62"/><path d="M407.194 894.631h-1.44v1.53h1.44v-1.53Z" opacity=".73"/><path d="M420.483 893.932h-2.76v2.93h2.76v-2.93Z" opacity=".69"/><path d="M433.724 893.291h-3.97v4.2h3.97v-4.2Z" opacity=".83"/><path d="M444.82 894.91h-.91v.97h.91v-.97Z" opacity=".72"/><path d="M459.201 893.061h-4.42v4.68h4.42v-4.68Z" opacity=".94"/><path d="M471.362 893.57h-3.46v3.66h3.46v-3.66Z" opacity=".93"/><path d="M483.272 894.32h-2.03v2.15h2.03v-2.15Z" opacity=".55"/><path d="M508.294 894.58h-1.54v1.63h1.54v-1.63Z" opacity=".9"/><path d="M520.82 894.691h-1.34v1.41h1.34v-1.41Z" opacity=".78"/><path d="M546.894 893.83h-2.96v3.13h2.96v-3.13Z" opacity=".62"/><path d="M559.041 894.34h-1.99v2.1h1.99v-2.1Z" opacity=".67"/><path d="M571.883 894.121h-2.41v2.55h2.41v-2.55Z" opacity=".62"/><path d="M584.653 893.98h-2.68v2.83h2.68v-2.83Z" opacity=".72"/><path d="M597.452 893.791h-3.03v3.2h3.03v-3.2Z" opacity=".64"/><path d="M609.601 894.301h-2.07v2.19h2.07v-2.19Z" opacity=".78"/><path d="M622.111 894.432h-1.83v1.94h1.83v-1.94Z" opacity=".74"/><path d="M395.77 906.721h-3.86v4.08h3.86v-4.08Z" opacity=".71"/><path d="M406.813 908.4h-.68v.72h.68v-.72Z" opacity=".7"/><path d="M419.991 907.811h-1.78v1.89h1.78v-1.89Z" opacity=".73"/><path d="M432.831 907.602h-2.19v2.32h2.19v-2.32Z" opacity=".88"/><path d="M447.441 905.51h-6.14V912h6.14v-6.49Z" opacity=".59"/><path d="M457.393 908.352h-.78v.82h.78v-.82Z" opacity=".73"/><path d="M469.793 908.58h-.34v.36h.34v-.36Z" opacity=".59"/><path d="M484.371 906.521h-4.23v4.48h4.23v-4.48Z" opacity=".51"/><path d="M508.391 907.83h-1.75v1.85h1.75v-1.85Z" opacity=".64"/><path d="M546.832 907.25h-2.84v3.01h2.84v-3.01Z" opacity=".61"/><path d="M558.672 908.102h-1.25v1.32h1.25v-1.32Z" opacity=".71"/><path d="M572.393 906.941h-3.44v3.64h3.44v-3.64Z" opacity=".86"/><path d="M583.882 908.16h-1.14v1.2h1.14v-1.2Z" opacity=".69"/><path d="M597.462 907.141h-3.06v3.24h3.06v-3.24Z" opacity=".53"/><path d="M609.623 907.65h-2.1v2.23h2.1v-2.23Z" opacity=".55"/><path d="M623.513 906.311h-4.63v4.9h4.63v-4.9Z" opacity=".8"/><path d="M394.45 921.471h-1.22v1.29h1.22v-1.29Z" opacity=".52"/><path d="M407.811 920.711h-2.67v2.82h2.67v-2.82Z" opacity=".55"/><path d="M432.771 921.021h-2.08v2.2h2.08v-2.2Z" opacity=".66"/><path d="M444.943 921.51h-1.15v1.21h1.15v-1.21Z" opacity=".91"/><path d="M457.472 921.611h-.96v1.01h.96v-1.01Z" opacity=".56"/><path d="M470.203 921.5h-1.16v1.23h1.16v-1.23Z" opacity=".88"/><path d="M496.55 920.361h-3.32v3.51h3.32v-3.51Z" opacity=".8"/><path d="M508.341 921.26h-1.63v1.72h1.63v-1.72Z" opacity=".88"/><path d="M521.292 920.91h-2.28v2.41h2.28v-2.41Z" opacity=".77"/><path d="M533.634 921.221h-1.7v1.8h1.7v-1.8Z" opacity=".65"/><path d="M548.113 919.271h-5.39v5.7h5.39v-5.7Z" opacity=".66"/><path d="M558.813 921.311h-1.54v1.63h1.54v-1.63Z" opacity=".57"/><path d="M583.661 921.74h-.72v.76h.72v-.76Z" opacity=".91"/><path d="M596.911 921.09h-1.95v2.07h1.95v-2.07Z" opacity=".66"/><path d="M609.113 921.541h-1.09v1.16h1.09v-1.16Z" opacity=".62"/><path d="M621.833 921.451h-1.271v1.34h1.271v-1.34Z" opacity=".92"/></g></g><defs><clipPath id="a"><path fill="#fff" d="M0 0h1080v1080H0z"/></clipPath></defs></svg>