<svg xmlns="http://www.w3.org/2000/svg" width="39" height="52" fill="none"><path fill="#000" stroke="#000" stroke-miterlimit="10" stroke-width=".2" d="M3.637 23.155c3.383 1.961 3.281 1.87 3.38 1.967 5.784 3.31 15.171-6.992 15.152-15.786-.009-2.805-1.012-4.8-2.628-5.745-.01 0-.01-.01-.01-.01l-3.37-1.958c-1.713-1.004-3.992-.789-6.407.604-3.126 1.801-5.852 5.257-7.4 8.977v.01C1.497 13.27.991 15.413 1 17.39c0 2.717.936 4.761 2.639 5.765h-.002v.001Zm9.523-1.432c-3.49 2.027-6.26.432-6.26-3.563-.02-4.108 2.883-9.134 6.466-11.198 3.581-2.05 6.261-.346 6.261 3.564.01 4.109-2.892 9.134-6.466 11.198Zm.604-20.235c1.76 0 2.485.852 3.76 1.49-.2.016-1.225-.16-3 .536-.078.03-.156.049-.224.078-1.402-.809-2.298-1.335-2.814-1.637.799-.302 1.568-.467 2.28-.467h-.002Zm-3.768 1.16c.302-.175.604-.321.906-.458.31.194 1.07.593 2.872 1.656-1.791.848-3.428 2.314-4.723 3.836L6.948 6.455a.24.24 0 0 0-.332.088.252.252 0 0 0 .087.34l2.036 1.179a21.589 21.589 0 0 0-2.94 4.88l-2.941-1.714c1.519-3.555 4.148-6.846 7.138-8.579v-.001Zm-7.324 9.037 2.94 1.713c-.779 1.948-1.246 3.963-1.256 5.832l-2.862-1.664c0-1.815.274-3.58 1.178-5.881Zm1.705 8.12c.07 1.694.524 2.973 1.1 3.836 0 .008.003.014.01.02l-1.607-.926c-1.383-.817-2.21-2.433-2.366-4.596l2.863 1.665v.001Z"/><mask id="a" width="14" height="21" x="6" y="3" maskUnits="userSpaceOnUse" style="mask-type:luminance"><path fill="#fff" d="M17.902 17.415c-2.49 4.808-6.56 6.943-9.09 4.768-2.53-2.174-2.56-7.834-.07-12.641s6.56-6.944 9.09-4.769c2.529 2.174 2.56 7.835.07 12.642Z"/></mask><g fill="#1F375B" mask="url(#a)"><path d="M7.33 3.734h-.217v.295h.217v-.295Z" opacity=".79"/><path d="M8.644 3.82h-.097v.131h.097v-.13Z" opacity=".87"/><path d="M10.148 3.633H9.77v.517h.378v-.517Z" opacity=".86"/><path d="M11.413 3.781h-.167v.227h.167v-.227Z" opacity=".84"/><path d="M14.295 3.586h-.443v.604h.443v-.604Z" opacity=".5"/><path d="M15.592 3.688h-.299v.406h.299v-.407Z" opacity=".9"/><path d="M16.936 3.71h-.252v.344h.252v-.343Zm2.709.048h-.184v.25h.184v-.25Z" opacity=".74"/><path d="M8.717 5.594h-.244v.333h.244v-.333Z" opacity=".89"/><path d="M10.2 5.43h-.477v.65h.477v-.65Z" opacity=".92"/><path d="M11.43 5.625h-.192v.26h.192v-.26Z" opacity=".86"/><path d="M12.753 5.68h-.105v.143h.105V5.68Z" opacity=".89"/><path d="M14.111 5.688h-.084v.114h.084v-.114Z" opacity=".77"/><path d="M15.515 5.656h-.14v.19h.14v-.19Z" opacity=".61"/><path d="M16.95 5.57h-.274v.375h.274V5.57Z" opacity=".78"/><path d="M18.244 5.672h-.119v.162h.12v-.162Z" opacity=".51"/><path d="M19.808 5.414h-.511v.697h.511v-.697Z" opacity=".59"/><path d="M7.421 7.352h-.398v.542h.398v-.542Zm1.333.038h-.328v.448h.328v-.447Z" opacity=".9"/><path d="M10.19 7.313h-.452v.612h.451v-.612Z" opacity=".77"/><path d="M12.793 7.492h-.188v.255h.188v-.255Z" opacity=".82"/><path d="M14.108 7.578h-.065v.089h.065v-.089Z" opacity=".74"/><path d="M15.498 7.54h-.12v.163h.12v-.164Z" opacity=".6"/><path d="M16.892 7.508h-.15v.203h.15v-.203Z" opacity=".86"/><path d="M18.214 7.578h-.058v.078h.058v-.078Z" opacity=".93"/><path d="M19.696 7.414h-.298v.405h.298v-.405Z" opacity=".62"/><path d="M7.268 9.422h-.096v.131h.096v-.131Zm1.362 0h-.083v.113h.082v-.113Z" opacity=".77"/><path d="M10.213 9.14h-.498v.68h.498v-.68Z" opacity=".51"/><path d="M11.63 9.07h-.603v.822h.603V9.07Z" opacity=".64"/><path d="M12.845 9.297h-.279v.378h.279v-.378Z" opacity=".84"/><path d="M14.126 9.414h-.106v.146h.106v-.146Z" opacity=".7"/><path d="M15.538 9.352h-.19v.259h.19v-.26Z" opacity=".58"/><path d="M16.86 9.422h-.102v.14h.103v-.14Z" opacity=".5"/><path d="M18.235 9.414h-.106v.146h.106v-.146Z" opacity=".75"/><path d="M19.621 9.39h-.137v.186h.137v-.185Z" opacity=".54"/><path d="M7.323 11.203h-.206v.282h.206v-.282Z" opacity=".89"/><path d="M8.694 11.203H8.48v.29h.214v-.29Z" opacity=".52"/><path d="M11.452 11.188h-.249v.338h.25v-.338Z" opacity=".86"/><path d="M12.846 11.148h-.291v.398h.291v-.398Z" opacity=".89"/><path d="M14.22 11.148h-.298v.406h.297v-.406Z" opacity=".9"/><path d="M15.496 11.29h-.101v.139h.101v-.14Z" opacity=".72"/><path d="M16.982 11.125h-.341v.467h.341v-.467Z" opacity=".87"/><path d="M18.214 11.313h-.062v.083h.062v-.084Z" opacity=".56"/><path d="M19.766 11.07h-.418v.57h.418v-.57Z" opacity=".75"/><path d="M7.332 13.063h-.227v.309h.227v-.31Z" opacity=".81"/><path d="M8.693 13.086h-.2v.272h.2v-.272Z" opacity=".94"/><path d="M9.992 13.18h-.066v.09h.066v-.09Z" opacity=".83"/><path d="M11.5 12.992h-.332v.452h.331v-.452Z" opacity=".66"/><path d="M12.828 13.04h-.258v.35h.258v-.35Z" opacity=".64"/><path d="M14.242 12.984h-.344v.469h.344v-.469Z" opacity=".93"/><path d="M16.95 13.023h-.282v.386h.283v-.386Z" opacity=".89"/><path d="M18.456 12.844h-.542v.74h.542v-.74Z" opacity=".78"/><path d="M19.598 13.148h-.09v.124h.09v-.124Z" opacity=".92"/><path d="M7.583 14.602h-.724v.985h.724v-.985Z" opacity=".7"/><path d="M8.84 14.742h-.5v.684h.5v-.684Z" opacity=".73"/><path d="M10.087 14.922H9.84v.337h.247v-.337Z" opacity=".5"/><path d="M11.377 15.031h-.084v.115h.084v-.115Z" opacity=".78"/><path d="M12.814 14.945h-.216v.295h.216v-.295Z" opacity=".91"/><path d="M14.192 14.922h-.239v.325h.239v-.325Z" opacity=".62"/><path d="M15.515 14.977h-.156v.213h.156v-.213Z" opacity=".73"/><path d="M16.96 14.89h-.3v.409h.3v-.408Z" opacity=".69"/><path d="M18.399 14.797h-.43v.586h.43v-.586Z" opacity=".83"/><path d="M19.607 15.016h-.1v.135h.1v-.135Z" opacity=".72"/><path d="M7.38 16.742h-.317v.433h.318v-.433Z" opacity=".7"/><path d="M8.728 16.781H8.46v.364h.267v-.364Z" opacity=".92"/><path d="M10.114 16.742h-.31v.421h.31v-.42Z" opacity=".71"/><path d="M11.354 16.93h-.045v.062h.045v-.062Z" opacity=".62"/><path d="M14.282 16.664h-.419v.57h.419v-.57Z" opacity=".71"/><path d="M15.476 16.898h-.074v.1h.074v-.1Z" opacity=".7"/><path d="M16.904 16.828h-.193v.264h.193v-.264Z" opacity=".73"/><path d="M18.304 16.797h-.238v.324h.238v-.324Z" opacity=".88"/><path d="M19.885 16.508h-.666v.907h.666v-.907Z" opacity=".59"/><path d="M7.388 18.586h-.337v.46h.337v-.46Z" opacity=".54"/><path d="M8.756 18.594h-.33v.45h.33v-.45Z" opacity=".81"/><path d="M10.08 18.664h-.24v.327h.24v-.327Z" opacity=".91"/><path d="M11.434 18.688h-.196v.266h.196v-.267Z" opacity=".82"/><path d="M12.784 18.703h-.167v.227h.167v-.227Z" opacity=".92"/><path d="M14.136 18.727h-.132v.18h.133v-.18Z" opacity=".52"/><path d="M15.586 18.625h-.29v.395h.29v-.395Z" opacity=".55"/><path d="M18.296 18.664h-.226v.308h.226v-.308Z" opacity=".66"/><path d="M19.613 18.734h-.125v.17h.125v-.17Z" opacity=".91"/><path d="M7.24 20.664h-.033v.044h.032v-.044Z" opacity=".9"/><path d="M8.722 20.516H8.47v.346h.253v-.346Z" opacity=".68"/><path d="M10.136 20.445h-.355v.485h.355v-.485Z" opacity=".91"/><path d="M11.415 20.57h-.169v.232h.17v-.232Z" opacity=".87"/><path d="M15.58 20.5h-.275v.374h.275V20.5Z" opacity=".8"/><path d="M16.86 20.625h-.09v.124h.09v-.124Z" opacity=".85"/><path d="M18.382 20.422h-.398v.542h.398v-.542Z" opacity=".75"/><path d="M19.809 20.344h-.508v.692h.508v-.692Z" opacity=".55"/><path d="M7.476 22.203h-.511v.697h.511v-.697Z" opacity=".57"/><path d="M8.808 22.258h-.433v.59h.433v-.59Z" opacity=".61"/><path d="M10.112 22.352h-.3v.406h.3v-.406Z" opacity=".78"/><path d="M11.358 22.54h-.042v.056h.042v-.057Z" opacity=".87"/><path d="M12.72 22.54h-.04v.056h.04v-.057Z" opacity=".61"/><path d="M14.117 22.492h-.09v.122h.09v-.122Z" opacity=".84"/><path d="M15.604 22.344h-.315v.428h.315v-.428Zm2.664.094h-.17v.232h.17v-.233Z" opacity=".74"/></g><path fill="#000" stroke="#000" stroke-miterlimit="10" stroke-width=".2" d="M14.542 47.593c4.427 2.566 4.293 2.447 4.422 2.574 7.57 4.33 19.854-9.15 19.828-20.658-.011-3.671-1.324-6.283-3.44-7.518-.013 0-.013-.013-.013-.013l-4.41-2.562c-2.241-1.313-5.223-1.031-8.383.791-4.091 2.357-7.658 6.88-9.684 11.75v.012c-1.122 2.689-1.782 5.492-1.772 8.08 0 3.554 1.224 6.23 3.453 7.542h-.001v.002Zm12.462-1.874c-4.569 2.653-8.194.564-8.194-4.663-.025-5.377 3.773-11.952 8.46-14.654 4.687-2.684 8.194-.454 8.194 4.663.014 5.377-3.784 11.952-8.46 14.654Zm.79-26.478c2.305 0 3.254 1.113 4.921 1.949-.26.02-1.601-.208-3.924.701-.102.038-.205.063-.293.102-1.836-1.058-3.007-1.748-3.682-2.142 1.044-.395 2.05-.612 2.982-.612h-.002l-.001.002Zm-4.931 1.517c.394-.23.79-.42 1.185-.6.407.255 1.402.777 3.76 2.168-2.344 1.11-4.486 3.029-6.18 5.02l-2.753-1.605a.314.314 0 0 0-.434.116.33.33 0 0 0 .114.445l2.663 1.542a28.247 28.247 0 0 0-3.848 6.385l-3.848-2.242c1.988-4.652 5.43-8.959 9.34-11.226v-.003Zm-9.584 11.826 3.848 2.242c-1.02 2.549-1.63 5.186-1.644 7.633l-3.746-2.18c0-2.374.358-4.684 1.542-7.695Zm2.23 10.626c.093 2.217.687 3.89 1.441 5.02 0 .01.005.018.014.026l-2.104-1.211c-1.81-1.07-2.892-3.185-3.097-6.015l3.747 2.178v.002Z"/><mask id="b" width="18" height="26" x="18" y="22" maskUnits="userSpaceOnUse" style="mask-type:luminance"><path fill="#fff" d="M33.217 40.094c-3.259 6.292-8.585 9.085-11.895 6.24-3.31-2.845-3.35-10.252-.093-16.543 3.259-6.29 8.585-9.085 11.895-6.24 3.31 2.845 3.35 10.252.093 16.543Z"/></mask><g fill="#1F375B" mask="url(#b)"><path d="M19.377 22.195h-.283v.386h.283v-.386Z" opacity=".79"/><path d="M21.088 22.297h-.127v.17h.127v-.17Z" opacity=".87"/><path d="M23.065 22.047h-.495v.676h.495v-.676Z" opacity=".86"/><path d="M24.718 22.234H24.5v.298h.218v-.298Z" opacity=".84"/><path d="M28.49 21.984h-.58v.791h.58v-.79Z" opacity=".5"/><path d="M30.189 22.11h-.392v.531h.392v-.532Z" opacity=".9"/><path d="M31.951 22.156h-.33v.45h.33v-.45Zm3.541.054h-.242v.328h.242v-.327Z" opacity=".74"/><path d="M21.183 24.602h-.32v.436h.32v-.436Z" opacity=".89"/><path d="M23.133 24.398h-.625v.85h.625v-.85Z" opacity=".92"/><path d="M24.743 24.648h-.25v.342h.25v-.342Z" opacity=".86"/><path d="M26.473 24.727h-.137v.187h.137v-.187Z" opacity=".89"/><path d="M28.255 24.75h-.11v.15h.11v-.15Z" opacity=".77"/><path d="M30.085 24.703h-.183v.25h.183v-.25Z" opacity=".61"/><path d="M31.963 24.586h-.358v.489h.358v-.49Z" opacity=".78"/><path d="M33.652 24.71h-.156v.213h.156v-.212Z" opacity=".51"/><path d="M35.708 24.36h-.669v.911h.669v-.912Z" opacity=".59"/><path d="M19.493 26.922h-.52v.71h.52v-.71Zm1.75.055h-.43v.586h.43v-.586Z" opacity=".9"/><path d="M23.117 26.875h-.59v.801h.59v-.801Z" opacity=".77"/><path d="M26.526 27.102h-.245v.332h.245v-.332Z" opacity=".82"/><path d="M28.242 27.21h-.086v.117h.086v-.116Z" opacity=".74"/><path d="M30.07 27.156h-.156v.214h.156v-.214Z" opacity=".6"/><path d="M31.883 27.14h-.195v.267h.195v-.266Z" opacity=".86"/><path d="M33.614 27.21h-.075v.103h.075v-.102Z" opacity=".93"/><path d="M35.565 27h-.39v.53h.39V27Z" opacity=".62"/><path d="M19.297 29.625h-.125v.17h.125v-.17Zm1.787.008h-.107v.149h.107v-.15Z" opacity=".77"/><path d="M23.143 29.266h-.65v.888h.65v-.888Z" opacity=".51"/><path d="M25.007 29.172h-.788v1.075h.788v-1.075Z" opacity=".64"/><path d="M26.59 29.469h-.363v.495h.363v-.495Z" opacity=".84"/><path d="M28.271 29.617h-.138v.192h.138v-.192Z" opacity=".7"/><path d="M30.116 29.54h-.249v.338h.25v-.339Z" opacity=".58"/><path d="M31.85 29.625h-.135v.183h.135v-.183Z" opacity=".5"/><path d="M33.646 29.617h-.138v.192h.138v-.192Z" opacity=".75"/><path d="M35.457 29.586h-.18v.243h.18v-.243Z" opacity=".54"/><path d="M19.371 31.969h-.27v.368h.27v-.368Z" opacity=".89"/><path d="M21.167 31.953h-.28v.38h.28v-.38Z" opacity=".52"/><path d="M24.779 31.93h-.326v.443h.326v-.443Z" opacity=".86"/><path d="M26.596 31.89h-.381v.52h.381v-.52Z" opacity=".89"/><path d="M28.393 31.89h-.39v.531h.39v-.53Z" opacity=".9"/><path d="M30.058 32.055h-.132v.182h.132v-.182Z" opacity=".72"/><path d="M32.007 31.86h-.448v.61h.448v-.61Z" opacity=".87"/><path d="M33.616 32.094h-.08v.11h.08v-.11Z" opacity=".56"/><path d="M35.642 31.781h-.548v.746h.548v-.746Z" opacity=".75"/><path d="M19.387 34.39h-.297v.406h.297v-.405Z" opacity=".81"/><path d="M21.16 34.422h-.262v.356h.263v-.356Z" opacity=".94"/><path d="M22.86 34.531h-.087v.118h.087v-.118Z" opacity=".83"/><path d="M24.832 34.297h-.434v.592h.434v-.592Z" opacity=".66"/><path d="M26.572 34.375h-.338v.458h.338v-.458Z" opacity=".64"/><path d="M28.422 34.29h-.45v.612h.45v-.613Z" opacity=".93"/><path d="M31.971 34.344h-.37v.505h.37v-.505Z" opacity=".89"/><path d="M33.937 34.117h-.71v.968h.71v-.968Z" opacity=".78"/><path d="M35.426 34.523h-.117v.162h.117v-.162Z" opacity=".92"/><path d="M19.709 36.398h-.947v1.29h.947v-1.29Z" opacity=".7"/><path d="M21.355 36.586h-.656v.894h.656v-.894Z" opacity=".73"/><path d="M22.984 36.82h-.324v.442h.324v-.442Z" opacity=".5"/><path d="M24.67 36.96h-.111v.151h.11v-.15Z" opacity=".78"/><path d="M26.545 36.844h-.283v.386h.283v-.386Z" opacity=".91"/><path d="M28.355 36.82h-.312v.426h.312v-.426Z" opacity=".62"/><path d="M30.095 36.906h-.204v.28h.204v-.28Z" opacity=".73"/><path d="M31.98 36.773h-.394v.534h.393v-.534Z" opacity=".69"/><path d="M33.856 36.664h-.563v.768h.563v-.768Z" opacity=".83"/><path d="M35.43 36.96h-.13v.178h.13v-.177Z" opacity=".72"/><path d="M19.444 39.203h-.417v.567h.417v-.567Z" opacity=".7"/><path d="M21.205 39.25h-.35v.476h.35v-.476Z" opacity=".92"/><path d="M23.018 39.21h-.405v.552h.405v-.551Z" opacity=".71"/><path d="M24.642 39.438h-.06v.08h.06v-.08Z" opacity=".62"/><path d="M28.47 39.11h-.548v.745h.548v-.746Z" opacity=".71"/><path d="M30.037 39.422h-.096v.131h.096v-.131Z" opacity=".7"/><path d="M31.912 39.313h-.252v.344h.252v-.344Z" opacity=".73"/><path d="M33.733 39.273h-.311v.425h.31v-.425Z" opacity=".88"/><path d="M35.804 38.883h-.87v1.187h.87v-1.187Z" opacity=".59"/><path d="M19.458 41.625h-.442v.601h.442v-.601Z" opacity=".54"/><path d="M21.244 41.625h-.431v.588h.431v-.588Z" opacity=".81"/><path d="M22.974 41.71h-.314v.43h.314v-.43Z" opacity=".91"/><path d="M24.745 41.758h-.257v.349h.257v-.35Z" opacity=".82"/><path d="M26.519 41.773H26.3v.298h.218v-.298Z" opacity=".92"/><path d="M28.283 41.813h-.174v.237h.174v-.237Z" opacity=".52"/><path d="M30.182 41.672h-.377v.517h.377v-.517Z" opacity=".55"/><path d="M33.728 41.727h-.294v.403h.294v-.403Z" opacity=".66"/><path d="M35.456 41.813h-.163v.22h.163v-.22Z" opacity=".91"/><path d="M19.258 44.336h-.043v.057h.043v-.057Z" opacity=".9"/><path d="M21.19 44.148h-.33v.454h.33v-.454Z" opacity=".68"/><path d="M23.054 44.047h-.464v.635h.464v-.635Z" opacity=".91"/><path d="M24.721 44.219H24.5v.302h.221v-.302Z" opacity=".87"/><path d="M30.173 44.125h-.36v.49h.36v-.49Z" opacity=".8"/><path d="M31.846 44.281h-.12v.162h.12v-.162Z" opacity=".85"/><path d="M33.837 44.016h-.52v.71h.52v-.71Z" opacity=".75"/><path d="M35.707 43.914h-.664v.906h.664v-.906Z" opacity=".55"/><path d="M19.571 46.36h-.669v.911h.67v-.912Z" opacity=".57"/><path d="M21.313 46.422h-.567v.773h.567v-.773Z" opacity=".61"/><path d="M23.013 46.555h-.392v.532h.392v-.532Z" opacity=".78"/><path d="M24.644 46.773h-.054v.076h.054v-.076Z" opacity=".87"/><path d="M26.433 46.773h-.054v.076h.054v-.076Z" opacity=".61"/><path d="M28.259 46.742h-.118v.16h.118v-.16Z" opacity=".84"/><path d="M30.194 46.54h-.413v.56h.413v-.56Zm3.495.116h-.224v.305h.224v-.305Z" opacity=".74"/></g></svg>